<?xml version="1.0" encoding="UTF-8"?>
<svg xmlns="http://www.w3.org/2000/svg" xmlns:xlink="http://www.w3.org/1999/xlink" version="1.2" >
<font id="Birocratic">
<font-face  font-family="Birocratic" units-per-em="1000" ascent="750" descent="-250" font-style="normal" font-weight="400" font-stretch="normal" cap-height="700" x-height="500" underline-position="-75" underline-thickness="50" />
<missing-glyph  horiz-adv-x="94" d="" />
<glyph glyph-name="NULL" d="" />
<glyph glyph-name="nonmarkingreturn" unicode="&#xd;" horiz-adv-x="94" d="" />
<glyph glyph-name="space" unicode="&#x20;" horiz-adv-x="94" d="" />
<glyph glyph-name="D" unicode="D" horiz-adv-x="486" d="M500 482 Q498 436 483.5 392.5 Q469 349 452 307 Q419 230 377.5 158 Q336 86 284 20 Q258 -12 230.5 -41.5 Q203 -71 173 -97 Q143 -124 109.5 -148.5 Q76 -173 40 -192 Q20 -202 -1 -209 Q-22 -216 -44 -215 Q-80 -213 -108 -192 Q-139 -169 -145 -130 Q-148 -106 -142.5 -83 Q-137 -60 -129 -38 Q-127 -32 -120.5 -34 Q-114 -36 -116 -42 Q-120 -52 -123.5 -62 Q-127 -72 -129 -83 Q-134 -103 -132.5 -124 Q-131 -145 -119 -163 Q-109 -177 -94.5 -186 Q-80 -195 -63 -199 Q-43 -204 -23 -200.5 Q-3 -197 16 -189 Q35 -181 52.5 -170 Q70 -159 86 -148 Q150 -105 204 -50.5 Q258 4 303 67 Q350 131 387 200.5 Q424 270 453 345 Q469 387 480 430.5 Q491 474 486 519 Q481 556 461 586.5 Q441 617 408 636 Q376 653 341 656.5 Q306 660 271 652 L259 649 Q248 625 236.5 601 Q225 577 214 552 Q183 486 153 420.5 Q123 355 92 289 Q60 219 27.5 150 Q-5 81 -37 12 Q-39 6 -45 9.5 Q-51 13 -48 19 Q-29 59 -10.5 99 Q8 139 27 179 Q58 245 88 311 Q118 377 149 443 L242 644 Q207 633 175.5 615 Q144 597 113 577 Q108 574 104.5 579.5 Q101 585 106 588 L145 612 Q170 626 196 639 Q222 652 250 660 L277 720 Q280 726 285.5 722.5 Q291 719 289 713 Q283 701 277.5 689 Q272 677 266 665 Q277 667 289 669 Q301 671 313 671 Q348 673 382 662 Q416 651 442 628 Q474 601 488 562.5 Q502 524 500 482 Z " />
<glyph glyph-name="E" unicode="E" horiz-adv-x="516" d="M535 669 Q515 696 484 705.5 Q453 715 421 710 Q386 703 357.5 682.5 Q329 662 306 636 Q284 610 269 577 Q254 544 256 509 Q258 480 275 453.5 Q292 427 321 418 Q328 416 326 410.5 Q324 405 318 406 Q309 408 300 407.5 Q291 407 283 405 Q265 402 249 395 Q233 388 217 380 Q203 372 190.5 364.5 Q178 357 165 349 Q141 332 118 313 Q95 294 74 274 Q-12 189 -61 78 Q-72 52 -82 22 Q-92 -8 -95 -38.5 Q-98 -69 -92.5 -98.5 Q-87 -128 -67 -152 Q-48 -175 -21 -188 Q6 -201 35 -204 Q68 -207 100.5 -199 Q133 -191 163 -177 Q223 -149 273.5 -107 Q324 -65 362 -12 Q366 -7 371.5 -10.5 Q377 -14 374 -19 Q369 -26 364 -32 Q359 -38 354 -45 Q308 -98 254 -138 Q226 -158 195.5 -175.5 Q165 -193 133 -204 Q101 -215 67.5 -217.5 Q34 -220 2 -211 Q-28 -202 -53 -183.5 Q-78 -165 -92 -137 Q-106 -108 -108 -77 Q-110 -46 -105 -15 Q-99 17 -88 46.5 Q-77 76 -63 105 Q-36 162 2 212.5 Q40 263 87 305 Q110 326 135.5 344 Q161 362 188 379 Q212 393 237.5 404.5 Q263 416 291 419 Q267 436 254 464.5 Q241 493 242 522 Q244 561 263 595.5 Q282 630 308 658 Q334 686 368 704.5 Q402 723 442 725 Q477 726 507 710 Q537 694 554 664 Q570 637 572.5 606 Q575 575 561 547 Q559 541 553 544.5 Q547 548 550 554 Q563 582 558 613.5 Q553 645 535 669 Z " />
<glyph glyph-name="F" unicode="F" horiz-adv-x="259" d="M306 690 Q283 643 261.5 597 Q240 551 218 504 Q188 438 158 373 Q128 308 99 242 Q118 244 136.5 245 Q155 246 174 248 Q181 249 181 242.5 Q181 236 174 235 L93 229 Q85 212 78 195.5 Q71 179 63 162 Q25 72 -13 -16.5 Q-51 -105 -87 -195 Q-89 -201 -95.5 -199 Q-102 -197 -100 -192 Q-79 -141 -58 -90 Q-37 -39 -15 12 Q30 120 78 228 Q76 227 73 227 Q67 226 67 233 Q67 240 73 240 Q77 241 84 241 Q97 270 110 299.5 Q123 329 136 358 Q174 441 212.5 523 Q251 605 290 688 Q255 683 220 675.5 Q185 668 150 660 Q143 658 141.5 664.5 Q140 671 146 672 Q177 680 207.5 686.5 Q238 693 270 698 Q277 699 283.5 700 Q290 701 297 702 L303 714 Q305 720 311 716.5 Q317 713 314 707 Q314 706 313.5 705.5 Q313 705 313 704 Q414 718 515.5 719 Q617 720 719 709 Q726 708 726 701.5 Q726 695 719 695 Q688 699 657 701.5 Q626 704 594 705 Q448 711 306 690 Z " />
<glyph glyph-name="G" unicode="G" horiz-adv-x="563" d="M500 221 Q489 196 479.5 172 Q470 148 459 124 Q421 37 382.5 -47.5 Q344 -132 304 -217 Q301 -223 295.5 -219.5 Q290 -216 292 -210 Q303 -187 314.5 -163 Q326 -139 337 -116 Q361 -62 385 -10 Q409 42 432 96 Q415 72 397.5 49 Q380 26 360 5 Q326 -34 287 -64 Q267 -78 245 -89.5 Q223 -101 198 -105 Q152 -112 113 -83 Q78 -55 64 -13 Q57 6 54.5 26.5 Q52 47 50 67 Q48 90 48.5 111.5 Q49 133 51 155 Q53 177 57.5 198.5 Q62 220 67 241 Q78 286 94 327 Q124 415 175 491 Q201 529 230.5 563.5 Q260 598 295 627 Q329 655 368 679 Q388 691 408.5 701.5 Q429 712 452 719 Q473 726 495 728 Q517 730 539 725 Q584 714 613 679 Q639 646 639.5 605.5 Q640 565 624 529 Q621 523 615.5 526 Q610 529 612 535 Q617 544 619.5 553.5 Q622 563 624 573 Q627 591 626 609.5 Q625 628 618 645 Q602 682 565 701 Q545 712 523.5 714 Q502 716 480.5 712.5 Q459 709 438.5 700.5 Q418 692 399 682 Q323 640 262.5 578 Q202 516 159 440 Q138 402 121.5 362.5 Q105 323 92 281 Q80 241 71.5 201 Q63 161 62 119 Q61 97 62.5 76 Q64 55 67 34 Q70 14 75 -4 Q80 -22 91 -39 Q102 -56 118.5 -70 Q135 -84 155 -90 Q178 -97 201.5 -91.5 Q225 -86 245 -75 Q287 -52 321.5 -17.5 Q356 17 385 54 Q416 93 441.5 135.5 Q467 178 487 224 Q489 230 495.5 228 Q502 226 500 221 Z " />
<glyph glyph-name="H" unicode="H" horiz-adv-x="485" d="M544 521 Q525 475 511 442.5 Q497 410 486 385 Q475 360 466 340 Q457 320 448 299 Q439 278 428.5 253.5 Q418 229 404 196 Q369 115 334.5 34.5 Q300 -46 266 -127 Q263 -133 257 -131.5 Q251 -130 253 -124 Q272 -79 290.5 -34 Q309 11 329 56 Q358 123 386.5 189.5 Q415 256 444 323 Q345 320 248.5 305 Q152 290 58 262 Q47 238 36.5 214 Q26 190 15 166 Q-29 67 -72 -31 Q-115 -129 -160 -228 Q-162 -234 -168 -230.5 Q-174 -227 -171 -221 Q-145 -162 -119 -104 Q-93 -46 -67 14 L41 257 Q37 255 29 253 Q23 251 21.5 257.5 Q20 264 26 266 Q31 268 37 269.5 Q43 271 48 273 Q58 295 67.5 316.5 Q77 338 87 361 Q126 449 164.5 535 Q203 621 241 708 Q244 714 249.5 710.5 Q255 707 253 702 Q230 651 208 601 Q186 551 164 500 Q139 444 114.5 389 Q90 334 65 277 Q85 283 105.5 288 Q126 293 146 298 Q298 333 450 336 Q455 347 459.5 358.5 Q464 370 469 381 Q504 462 538.5 542.5 Q573 623 607 704 Q609 710 615.5 708.5 Q622 707 620 701 Q601 656 582 611 Q563 566 544 521 Z " />
<glyph glyph-name="I" unicode="I" horiz-adv-x="140" d="M30 168 Q-9 81 -47.5 -5 Q-86 -91 -124 -179 L-125 -180 Q-116 -180 -111 -179 Q-79 -178 -47 -176 Q-15 -174 17 -171 Q23 -170 23 -176.5 Q23 -183 17 -184 Q-47 -190 -111 -193 Q-143 -194 -175.5 -194 Q-208 -194 -240 -195 Q-246 -195 -246 -188 Q-246 -181 -240 -181 L-227 -181 L-224 -181 Q-201 -181 -179 -181 Q-157 -181 -134 -180 Q-138 -177 -136 -172 L-49 23 Q-11 110 28.5 196 Q68 282 107 369 Q146 454 185.5 538.5 Q225 623 265 708 Q242 707 218.5 707 Q195 707 172 707 Q179 704 185 701 Q191 698 197 695 Q203 692 199.5 686 Q196 680 191 683 Q178 690 165.5 696 Q153 702 141 708 Q136 710 137.5 715 Q139 720 144 720 L202 720 Q252 720 301 720.5 Q350 721 400 720 Q407 720 407 713.5 Q407 707 400 707 Q383 707 366 707.5 Q349 708 332 708 L279 708 L279 707 Q256 659 233.5 610.5 Q211 562 189 514 Q148 427 108.5 341 Q69 255 30 168 Z " />
<glyph glyph-name="J" unicode="J" horiz-adv-x="442" d="M433 375 Q411 323 389 271.5 Q367 220 345 168 Q324 120 302 72.5 Q280 25 254 -20 Q230 -61 200 -97 Q170 -133 133 -163 Q117 -176 99 -188.5 Q81 -201 62 -209 Q43 -217 22.5 -220 Q2 -223 -19 -217 Q-43 -211 -62.5 -197.5 Q-82 -184 -95.5 -165 Q-109 -146 -117 -123.5 Q-125 -101 -126 -78 Q-131 -26 -113 22.5 Q-95 71 -67 112 Q-40 153 -7.5 188 Q25 223 61 255 Q66 259 71 254.5 Q76 250 73 246 Q62 238 53.5 230.5 Q45 223 37 215 Q6 183 -24 148.5 Q-54 114 -76 72 Q-99 30 -110 -20.5 Q-121 -71 -104 -121 Q-96 -142 -83 -160 Q-70 -178 -50 -190 Q-33 -201 -13.5 -205 Q6 -209 23 -207 Q42 -204 60.5 -194.5 Q79 -185 95 -174 Q134 -148 164 -116 Q197 -84 222 -46 Q247 -8 267 33 Q292 78 311.5 124.5 Q331 171 351 219 Q395 322 438.5 423 Q482 524 522 628 Q526 639 529.5 650 Q533 661 534 672 Q534 681 532 690.5 Q530 700 520 705 Q509 712 494.5 709 Q480 706 469 703 Q446 695 421 685 Q397 673 373 659.5 Q349 646 326 632 Q301 618 277 603.5 Q253 589 228 573 Q223 570 220 575.5 Q217 581 222 585 L270 615 Q321 646 372 675 Q397 688 421 699.5 Q445 711 473 717 Q484 720 497 721.5 Q510 723 523 718 Q539 710 546 687 Q548 676 546.5 666 Q545 656 542 646 Q538 632 533.5 619.5 Q529 607 524 593 Q501 538 479 483.5 Q457 429 433 375 Z " />
<glyph glyph-name="K" unicode="K" horiz-adv-x="355" d="M292 91 Q296 96 300.5 91.5 Q305 87 301 82 Q291 71 282 64 Q241 31 189.5 25 Q138 19 91 43 Q68 55 49 72.5 Q30 90 18 113 Q4 138 4 166 Q2 162 0.5 158.5 Q-1 155 -3 150 Q-43 59 -81.5 -32 Q-120 -123 -157 -215 Q-160 -221 -166 -219 Q-172 -217 -170 -212 Q-149 -160 -128 -108.5 Q-107 -57 -85 -6 Q-60 52 -35.5 109 Q-11 166 15 223 Q15 223 16 224 Q27 259 46 289 Q54 306 61 323 Q68 340 76 357 Q118 448 161 537 Q204 626 249 716 Q252 722 258 718.5 Q264 715 261 710 Q236 659 211.5 610 Q187 561 163 510 Q143 470 124.5 430 Q106 390 87 349 Q98 361 108.5 373 Q119 385 130 396 Q170 434 214.5 468 Q259 502 306 534 Q408 603 515 659 Q521 662 524 656 Q527 650 522 647 Q407 588 298 513 Q254 483 212.5 450.5 Q171 418 133 380 Q111 358 92 334 Q73 310 57 283 Q49 267 42.5 251 Q36 235 28 219 Q28 218 27.5 217 Q27 216 27 215 Q22 201 19.5 188 Q17 175 18 161 Q18 147 22.5 134 Q27 121 35 109 Q49 89 69 73 Q89 57 112 48 Q159 30 208 41.5 Q257 53 292 91 Z " />
<glyph glyph-name="L" unicode="L" horiz-adv-x="355" d="M429 724 Q434 729 438.5 724 Q443 719 438 714 Q430 706 423 698.5 Q416 691 408 683 Q349 619 294.5 552 Q240 485 190 413 Q139 341 94.5 266 Q50 191 11 112 Q-9 71 -26.5 29 Q-44 -13 -55 -58 Q-61 -80 -63 -102 Q-65 -124 -57 -145 Q-52 -158 -43.5 -168.5 Q-35 -179 -23 -186 Q0 -198 27 -194.5 Q54 -191 77 -183 Q109 -172 138.5 -154 Q168 -136 195 -116 Q259 -67 310.5 -5 Q362 57 413 120 Q417 125 422 120.5 Q427 116 422 111 Q410 95 396 79 Q344 15 289.5 -46.5 Q235 -108 164 -153 Q138 -170 109.5 -183.5 Q81 -197 50 -204 Q24 -209 -3 -205.5 Q-30 -202 -50 -182 Q-61 -170 -67.5 -154.5 Q-74 -139 -76 -122 Q-78 -99 -73 -75.5 Q-68 -52 -61 -30 Q-47 15 -28.5 58 Q-10 101 12 143 Q53 224 99.5 300 Q146 376 199 449 Q252 522 309 590 Q366 658 429 724 Z " />
<glyph glyph-name="M" unicode="M" horiz-adv-x="683" d="M791 635 Q783 611 773.5 587 Q764 563 754 540 Q714 442 667.5 348.5 Q621 255 574 161 Q529 67 482.5 -25.5 Q436 -118 387 -210 Q384 -216 378.5 -212.5 Q373 -209 376 -204 Q381 -193 387 -182 Q393 -171 399 -160 Q447 -69 491 21 Q535 111 580 202 Q625 294 670 385 Q715 476 753 571 Q758 583 762.5 594.5 Q767 606 771 618 Q776 629 779.5 641 Q783 653 784 666 Q785 681 778 694.5 Q771 708 756 713 Q743 718 729 718 Q715 718 701 715 Q687 713 674 708 Q661 703 648 696 Q608 675 579 641.5 Q550 608 524 572 Q467 495 417 417 Q369 343 327 267 Q306 220 283 174.5 Q260 129 236 84 Q233 79 228 82 Q223 85 225 91 Q230 102 235 113 Q240 124 245 135 Q278 206 316 274 Q333 312 348.5 351 Q364 390 378 429 Q392 467 402.5 505.5 Q413 544 421 583 Q426 605 428.5 628.5 Q431 652 422 673 Q414 693 395 699 Q379 704 363 699 Q347 694 333 686 Q304 669 279 647 Q254 625 232 600 Q188 552 153.5 497.5 Q119 443 90 385 Q84 372 77.5 359 Q71 346 65 332 Q42 284 20.5 235.5 Q-1 187 -21 137 Q-22 133 -25.5 132.5 Q-29 132 -31 134 Q-35 136 -33 141 Q-29 151 -25.5 160.5 Q-22 170 -17 180 Q6 237 31.5 293.5 Q57 350 85 406 Q91 419 97.5 432 Q104 445 110 458 Q135 509 160.5 559 Q186 609 212 660 Q215 665 220.5 661.5 Q226 658 223 653 Q209 626 195 598.5 Q181 571 167 543 Q166 541 165 539 Q164 537 163 535 Q184 564 207 591.5 Q230 619 256 643 Q280 667 307 685 Q322 696 339 704 Q356 712 374 714 Q402 716 419 700 Q427 692 432 682.5 Q437 673 439 662 Q444 635 439.5 608 Q435 581 429 555 Q409 474 381 397 Q378 389 374.5 380.5 Q371 372 368 364 Q385 392 402.5 419 Q420 446 438 473 Q452 493 465.5 512.5 Q479 532 493 552 Q507 571 520.5 590 Q534 609 549 627 Q574 659 605 684 Q636 709 674 722 Q687 726 702 729 Q717 732 731.5 731.5 Q746 731 759.5 726 Q773 721 783 710 Q797 694 797 674 Q797 654 791 635 Z " />
<glyph glyph-name="N" unicode="N" horiz-adv-x="473" d="M478 723 Q499 713 512.5 695 Q526 677 533 656 Q541 630 540 602.5 Q539 575 534 549 Q529 521 519.5 494.5 Q510 468 499 442 Q476 387 452.5 333 Q429 279 406 225 L310 3 Q287 -51 264 -105 Q241 -159 214 -212 Q211 -217 205 -213.5 Q199 -210 202 -205 Q215 -180 227 -155 Q251 -103 273 -50.5 Q295 2 318 55 L411 271 Q423 297 434.5 324 Q446 351 457 378 Q468 404 479.5 430 Q491 456 501 482 Q510 508 517 534 Q524 560 526 587 Q528 612 524 637.5 Q520 663 505 684 Q492 701 473 711 Q460 717 446.5 717.5 Q433 718 419 715 Q374 706 332 681 Q291 659 257 628 Q223 597 195 560 Q175 534 159 506 Q143 478 128 449 Q111 416 95 383 Q79 350 63 316 Q48 283 32.5 249.5 Q17 216 3 182 L-48 59 Q-51 53 -57 54.5 Q-63 56 -61 62 L-52 86 Q-42 110 -32.5 134 Q-23 158 -12 181 Q11 237 33 292.5 Q55 348 77 404 Q97 455 115 504.5 Q133 554 149 605 Q151 612 157.5 610 Q164 608 162 602 Q154 576 145 551 Q136 526 127 500 Q119 477 110 454.5 Q101 432 93 409 Q119 464 150 516.5 Q181 569 224 614 Q257 648 295.5 674.5 Q334 701 379 717 Q402 726 428 730 Q454 734 478 723 Z " />
<glyph glyph-name="O" unicode="O" horiz-adv-x="592" d="M582 593 Q593 559 595.5 523.5 Q598 488 594.5 452 Q591 416 582.5 380.5 Q574 345 563 311 Q516 170 432 45 Q412 13 389.5 -16 Q367 -45 343 -74 Q320 -100 296 -124 Q272 -148 243 -168 Q216 -186 185.5 -198.5 Q155 -211 123 -212 Q94 -214 67.5 -204.5 Q41 -195 20 -178 Q-22 -142 -38.5 -85.5 Q-55 -29 -45 28 Q-34 98 1 163.5 Q36 229 81 286 Q123 341 175 388.5 Q227 436 291 462 Q297 464 298.5 458 Q300 452 294 450 Q279 444 265 436 Q251 428 237 420 Q180 383 135 332 Q90 281 53 225 Q33 195 16.5 163.5 Q0 132 -13 98 Q-24 68 -30.5 36.5 Q-37 5 -35 -27 Q-34 -53 -26.5 -79 Q-19 -105 -5.5 -127 Q8 -149 27.5 -166 Q47 -183 72 -192 Q102 -202 132 -198.5 Q162 -195 190.5 -182 Q219 -169 245 -149.5 Q271 -130 293 -109 Q319 -85 341 -58 Q363 -31 383 -3 Q404 26 424 55.5 Q444 85 461 116 Q496 178 524 243.5 Q552 309 569 378 Q577 411 581 445 Q585 479 583.5 512.5 Q582 546 573.5 578 Q565 610 548 639 Q533 664 510.5 682.5 Q488 701 459 707 Q428 714 396 704 Q364 694 336 677 Q307 658 281 635 Q255 612 231 586 Q208 560 186 533 Q164 506 144 477 Q63 361 17 232 Q15 226 8.5 228 Q2 230 4 236 Q10 253 16 268.5 Q22 284 30 301 Q59 367 97 428.5 Q135 490 181 547 Q204 575 228.5 601.5 Q253 628 281 652 Q307 675 337.5 692.5 Q368 710 402 718 Q433 726 463.5 719.5 Q494 713 518 694 Q542 674 557.5 648 Q573 622 582 593 Z " />
<glyph glyph-name="P" unicode="P" horiz-adv-x="452" d="M529 644 Q536 626 536.5 607.5 Q537 589 532.5 571 Q528 553 520.5 535.5 Q513 518 504 502 Q487 473 467.5 445 Q448 417 425 391 Q380 340 324.5 301.5 Q269 263 203 245 Q187 240 169 237.5 Q151 235 133 235.5 Q115 236 98.5 241 Q82 246 68 258 Q67 258 64 261 L-23 66 Q-54 -5 -84.5 -75 Q-115 -145 -145 -216 Q-147 -222 -153 -218.5 Q-159 -215 -156 -209 Q-139 -169 -122 -129.5 Q-105 -90 -88 -50 Q-57 20 -26.5 89.5 Q4 159 36 229 L54 271 Q40 290 36.5 314.5 Q33 339 48 359 Q52 364 57.5 360.5 Q63 357 59 352 Q51 341 50 329 Q48 318 51 306.5 Q54 295 60 285 Q86 342 111 397.5 Q136 453 162 509 Q164 515 170 511.5 Q176 508 173 503 Q155 463 137 424 Q119 385 102 345 Q94 327 86 309 Q78 291 70 274 Q79 264 91 258.5 Q103 253 116 250 Q148 244 182 252.5 Q216 261 245 273 Q304 298 353 339 Q402 380 441 431 Q461 457 479 485.5 Q497 514 510 544 Q522 575 522.5 607.5 Q523 640 499 666 Q479 687 452 696.5 Q425 706 398 710 Q366 714 332.5 712 Q299 710 267 704 Q198 692 135.5 662 Q73 632 20 587 Q15 583 10.5 587.5 Q6 592 11 596 Q18 602 24.5 608 Q31 614 38 619 Q98 664 166.5 690 Q235 716 309 723 Q342 726 375.5 725 Q409 724 441 714 Q469 706 493.5 689 Q518 672 529 644 Z " />
<glyph glyph-name="Q" unicode="Q" horiz-adv-x="625" d="M510 185 Q408 44 275 -67 Q270 -71 264.5 -75 Q259 -79 254 -84 Q268 -102 284.5 -118.5 Q301 -135 320 -148 Q344 -166 371.5 -178.5 Q399 -191 427 -202 Q432 -204 430.5 -210 Q429 -216 423 -214 Q392 -202 364 -189 Q341 -178 320.5 -165 Q300 -152 283 -135 Q272 -126 263 -116 Q254 -106 246 -95 L243 -92 Q235 -99 225.5 -105.5 Q216 -112 208 -119 Q191 -132 173 -144 Q155 -156 135 -165 Q115 -174 94 -180 Q73 -186 53 -181 Q36 -177 23.5 -164.5 Q11 -152 12 -134 Q11 -121 21 -104 Q5 -79 -1 -48.5 Q-7 -18 -9 11 Q-12 53 -10.5 96 Q-9 139 -1 182 Q13 266 47.5 344.5 Q82 423 133 492 Q176 549 228.5 598.5 Q281 648 344 681 Q368 693 394 704 Q420 715 447 721 Q474 727 501 727 Q528 727 554 718 Q580 709 599.5 691 Q619 673 631 649 Q649 614 652.5 574 Q656 534 649 494 Q636 410 598 332 Q560 254 510 185 Z M218 -95 Q223 -92 227 -89 Q231 -86 236 -82 Q228 -72 219 -62.5 Q210 -53 199 -47 Q167 -28 131 -37 Q113 -41 97 -50 Q81 -59 68 -70 Q60 -76 54 -82.5 Q48 -89 42 -96 Q40 -100 37 -103 Q48 -119 64.5 -128 Q81 -137 103 -133 Q109 -132 110.5 -138.5 Q112 -145 105 -146 Q70 -152 44 -131 Q39 -127 36 -123.5 Q33 -120 29 -116 Q25 -124 25 -129 Q23 -139 27.5 -146.5 Q32 -154 39 -159.5 Q46 -165 55 -167 Q64 -169 73 -169 Q93 -169 113 -161 Q133 -153 150 -142 Q168 -131 184.5 -119.5 Q201 -108 218 -95 Z M241 -68 Q243 -70 243.5 -71 Q244 -72 246 -74 Q271 -54 295 -33 Q319 -12 342 11 Q402 68 454 132 Q506 196 549 267 Q569 302 586.5 339 Q604 376 617 415 Q630 453 637 493 Q644 533 639 572 Q636 604 623.5 633.5 Q611 663 587 684 Q569 699 546.5 706 Q524 713 500 714 Q448 714 397.5 692.5 Q347 671 303 641 Q274 621 248 598 Q222 575 199 550 Q172 521 147.5 490 Q123 459 103 425 Q60 353 34.5 274.5 Q9 196 4 115 Q0 74 1.5 33 Q3 -8 12 -46 Q15 -57 19 -68.5 Q23 -80 29 -91 Q34 -85 39.5 -79.5 Q45 -74 50 -69 Q64 -56 80 -45.5 Q96 -35 113 -29 Q150 -15 182 -25 Q202 -31 216 -41 Q224 -47 229.5 -53.5 Q235 -60 241 -68 Z " />
<glyph glyph-name="R" unicode="R" horiz-adv-x="437" d="M197 233 Q173 224 147.5 218 Q122 212 96 217 Q83 218 70 225 Q76 214 82 203.5 Q88 193 94 182 Q134 110 173 38.5 Q212 -33 250 -105 Q253 -111 247.5 -114 Q242 -117 239 -112 Q228 -91 217 -70.5 Q206 -50 195 -29 Q157 40 120 107.5 Q83 175 45 243 L43 245 Q20 197 -1.5 150 Q-23 103 -43 55 Q-72 -11 -100 -76.5 Q-128 -142 -154 -208 Q-156 -214 -162.5 -212 Q-169 -210 -167 -205 Q-152 -167 -136.5 -130 Q-121 -93 -105 -55 Q-77 11 -48.5 75.5 Q-20 140 10 206 Q16 219 22 231.5 Q28 244 33 257 Q31 261 28.5 264.5 Q26 268 24 273 Q21 279 26.5 282.5 Q32 286 35 280 Q36 278 37 275.5 Q38 273 40 270 Q63 320 86.5 368.5 Q110 417 134 465 Q137 471 142.5 467.5 Q148 464 146 458 Q128 422 110 386 Q92 350 75 314 Q69 300 62.5 287 Q56 274 50 261 Q52 258 53 255.5 Q54 253 56 250 Q72 235 93.5 231 Q115 227 137.5 230 Q160 233 181.5 241.5 Q203 250 221 259 Q246 271 269 285.5 Q292 300 315 317 Q333 331 349.5 344.5 Q366 358 382 373 Q409 401 432.5 432 Q456 463 474 497 Q490 527 501 561.5 Q512 596 507 631 Q505 645 499.5 658.5 Q494 672 484 683 Q466 702 441 710 Q413 719 383.5 717.5 Q354 716 327 709 Q295 701 264.5 688.5 Q234 676 205 661 Q173 644 143 623 Q113 602 89 576 Q84 571 79.5 575.5 Q75 580 80 585 Q85 591 91.5 597 Q98 603 104 609 Q133 635 166.5 654.5 Q200 674 235 690 Q264 704 295 714 Q326 724 359 728 Q388 732 417.5 729 Q447 726 473 709 Q499 692 511 663.5 Q523 635 521 604 Q519 566 504 530 Q489 494 469 462 Q430 400 379 353 Q343 320 299 290 Q275 273 249.5 258.5 Q224 244 197 233 Z " />
<glyph glyph-name="S" unicode="S" horiz-adv-x="473" d="M209 650 Q177 621 153 585.5 Q129 550 115 509 Q100 468 95 425 Q90 382 97 339 Q105 290 125.5 245 Q146 200 166 155 Q176 133 184.5 110 Q193 87 199 63.5 Q205 40 207 16 Q209 -8 205 -33 Q199 -77 173 -113 Q147 -149 110 -172 Q92 -183 70.5 -190.5 Q49 -198 26.5 -200 Q4 -202 -18 -198 Q-40 -194 -59 -182 Q-81 -168 -91 -147.5 Q-101 -127 -102.5 -104 Q-104 -81 -100 -57 Q-96 -33 -90 -11 Q-88 -5 -81.5 -6.5 Q-75 -8 -77 -15 Q-80 -26 -83 -38 Q-86 -50 -88 -62 Q-92 -85 -89.5 -109 Q-87 -133 -73 -153 Q-59 -171 -36.5 -179 Q-14 -187 9 -188 Q54 -189 93.5 -167 Q133 -145 159 -109 Q173 -92 181 -71.5 Q189 -51 193 -29 Q196 -5 193.5 19.5 Q191 44 185 67 Q171 116 149 160.5 Q127 205 108 253 Q91 295 84 339 Q77 383 82 429 Q87 472 102 513 Q117 554 141 590 Q164 626 195.5 656 Q227 686 265 706 Q307 729 355 736.5 Q403 744 448 724 Q490 705 511 663.5 Q532 622 533 577 Q533 523 510.5 475 Q488 427 459 384 Q455 379 449.5 382.5 Q444 386 447 391 Q455 402 462 413 Q469 424 476 436 Q501 479 514 528 Q527 577 512 627 Q506 648 493.5 667 Q481 686 463 700 Q444 714 421 720 Q398 726 374 724 Q328 722 285.5 701.5 Q243 681 209 650 Z " />
<glyph glyph-name="T" unicode="T" horiz-adv-x="123" d="M531 688 Q460 688 389.5 687 Q319 686 247 684 Q227 638 206 593.5 Q185 549 164 504 Q122 414 79.5 325.5 Q37 237 -6 147 Q-51 55 -95 -35 Q-139 -125 -184 -216 Q-186 -222 -192 -218.5 Q-198 -215 -195 -210 Q-169 -158 -144 -106.5 Q-119 -55 -93 -4 Q-50 86 -7.5 174.5 Q35 263 78 352 Q117 435 155.5 517.5 Q194 600 233 683 Q188 681 144 679.5 Q100 678 56 675 Q49 675 49 681.5 Q49 688 56 689 Q89 691 122 692 Q155 693 189 695 Q201 695 213.5 695.5 Q226 696 239 697 Q241 702 244 707.5 Q247 713 249 719 Q252 724 257.5 721 Q263 718 261 712 Q259 708 257.5 704.5 Q256 701 254 697 Q459 703 665 700 Q671 699 671 692.5 Q671 686 665 686 Q631 687 598 687 Q565 687 531 688 Z " />
<glyph glyph-name="U" unicode="U" horiz-adv-x="537" d="M643 653 Q605 560 565.5 469 Q526 378 481 287 Q465 252 449.5 216 Q434 180 418 144 Q380 59 346.5 -27 Q313 -113 295 -206 Q294 -212 287.5 -210.5 Q281 -209 283 -203 Q293 -150 307.5 -100.5 Q322 -51 342 -2 Q356 34 371.5 69.5 Q387 105 402 140 Q384 110 365.5 80 Q347 50 327 21 Q299 -20 267.5 -57.5 Q236 -95 197 -126 Q157 -158 113 -176 Q93 -185 71 -190 Q49 -195 26 -192 Q-9 -187 -33 -160 Q-45 -147 -52 -130.5 Q-59 -114 -62 -97 Q-67 -74 -65.5 -52.5 Q-64 -31 -60 -9 Q-55 20 -48.5 48 Q-42 76 -35 104 Q-21 160 -3 213.5 Q15 267 36 320 Q81 428 136 528.5 Q191 629 254 728 Q257 733 263 729.5 Q269 726 265 721 Q249 696 236 674 Q177 577 125.5 478.5 Q74 380 32 274 Q12 222 -4 168.5 Q-20 115 -32 60 Q-40 31 -44 3 Q-46 -9 -48 -21.5 Q-50 -34 -52 -46 Q-54 -65 -51.5 -84 Q-49 -103 -41 -121 Q-35 -137 -25 -149.5 Q-15 -162 0 -170 Q16 -179 35 -180 Q54 -181 72 -176 Q119 -165 160 -137.5 Q201 -110 234 -76 Q267 -41 295 -2 Q323 37 349 78 Q380 128 408.5 178.5 Q437 229 463 282 Q465 285 466.5 288 Q468 291 470 295 Q475 309 481.5 322.5 Q488 336 495 350 Q534 441 574.5 532 Q615 623 654 714 Q657 720 662.5 716.5 Q668 713 666 707 Q660 693 654.5 680 Q649 667 643 653 Z " />
<glyph glyph-name="V" unicode="V" horiz-adv-x="472" d="M617 638 Q545 544 477 448.5 Q409 353 342 256 Q282 168 222.5 80 Q163 -8 104 -98 Q84 -128 61.5 -157.5 Q39 -187 7 -205 Q-25 -223 -56 -217 Q-78 -214 -91 -197 Q-105 -178 -108 -154 Q-112 -129 -108 -103.5 Q-104 -78 -98 -54 Q-92 -27 -83.5 0.5 Q-75 28 -65 54 Q-45 110 -23 164 Q-1 218 21 273 Q66 385 112 495 Q158 605 204 717 Q207 723 213.5 721 Q220 719 217 713 Q212 700 206 687 Q200 674 195 660 Q150 551 105.5 443 Q61 335 16 226 Q-5 173 -26 120.5 Q-47 68 -65 14 Q-74 -12 -81 -39 Q-88 -66 -93 -93 Q-97 -116 -97 -140.5 Q-97 -165 -83 -185 Q-77 -195 -69 -199 Q-61 -203 -50 -205 Q-34 -206 -19 -202 Q-3 -197 10.5 -187 Q24 -177 35 -166 Q60 -141 78.5 -112 Q97 -83 117 -54 Q147 -7 178 38.5 Q209 84 241 130 Q273 178 306 226 Q339 274 372 322 Q438 417 505 509.5 Q572 602 643 693 Q647 698 652 693.5 Q657 689 653 684 Q644 673 635 661 Q626 649 617 638 Z " />
<glyph glyph-name="W" unicode="W" horiz-adv-x="775" d="M710 197 Q693 126 671 60 Q661 30 650.5 1 Q640 -28 626 -57 Q612 -85 595 -110.5 Q578 -136 557 -159 Q538 -180 512.5 -196.5 Q487 -213 458 -213 Q429 -212 411.5 -194 Q394 -176 386 -150 Q382 -136 380.5 -123 Q379 -110 378 -96 Q377 -62 378 -28 Q383 62 408 147 Q380 97 349.5 50 Q319 3 282 -40 Q259 -67 233 -90.5 Q207 -114 178 -133 Q151 -150 117 -163 Q100 -170 81.5 -174.5 Q63 -179 44 -178 Q1 -176 -28 -150 Q-52 -126 -60 -90 Q-68 -55 -62.5 -19.5 Q-57 16 -49 51 Q-38 99 -26 144.5 Q-14 190 3 236 Q19 281 38 324.5 Q57 368 79 411 Q121 494 172 571 Q223 648 283 720 Q287 725 291.5 720.5 Q296 716 292 711 Q285 702 278 693.5 Q271 685 264 676 Q208 604 160 528 Q112 452 73 371 Q53 328 35.5 285 Q18 242 3 197 Q-11 155 -21.5 112.5 Q-32 70 -41 26 Q-48 -6 -51 -41.5 Q-54 -77 -40 -109 Q-33 -126 -20 -139 Q-7 -152 10 -158 Q28 -166 47.5 -165 Q67 -164 87 -159 Q153 -141 205.5 -96.5 Q258 -52 299 2 Q341 56 375 115 Q409 174 441 234 Q444 240 449.5 236.5 Q455 233 453 227 Q449 219 446 212 Q443 205 440 197 Q392 74 390 -57 Q390 -83 391.5 -112 Q393 -141 406 -165 Q417 -189 442 -197 Q455 -201 468.5 -199 Q482 -197 494 -191 Q520 -179 540.5 -157.5 Q561 -136 578 -112 Q595 -88 608.5 -61.5 Q622 -35 633 -7 Q645 22 654.5 51.5 Q664 81 673 110 Q683 143 691.5 176.5 Q700 210 708 244 Q724 311 735 378.5 Q746 446 754 515 Q754 521 760.5 521 Q767 521 767 515 Q765 506 764.5 497 Q764 488 763 479 Q754 407 741 337 Q728 267 710 197 Z " />
<glyph glyph-name="X" unicode="X" horiz-adv-x="406" d="M134 189 Q133 138 134.5 87 Q136 36 141 -15 Q144 -41 148 -66 Q152 -91 158 -117 Q160 -129 162.5 -140.5 Q165 -152 169 -163 Q172 -173 177.5 -182 Q183 -191 191 -196 Q197 -200 193.5 -205.5 Q190 -211 185 -208 Q165 -195 158 -171.5 Q151 -148 146 -127 Q140 -99 135.5 -72 Q131 -45 129 -17 Q123 36 121.5 88 Q120 140 121 193 Q46 129 -29 68 Q-104 7 -180 -54 Q-185 -58 -190 -53.5 Q-195 -49 -190 -45 Q-143 -7 -97 29.5 Q-51 66 -5 104 Q27 130 58 157 Q89 184 121 211 Q122 253 122.5 295 Q123 337 123 380 Q124 430 122 479 Q120 528 114 578 Q108 627 96 677 Q94 686 91.5 696 Q89 706 81 713 Q76 718 67 718 Q58 718 56 710 Q54 704 48 705.5 Q42 707 44 713 Q46 723 54 727.5 Q62 732 71 731 Q82 730 89.5 723 Q97 716 102 706 Q107 694 109.5 681.5 Q112 669 114 656 Q117 642 119.5 627.5 Q122 613 124 599 Q138 505 137 411 Q136 317 134 222 Q179 261 222.5 300.5 Q266 340 308 382 Q383 455 452.5 533.5 Q522 612 584 697 Q586 701 589.5 700 Q593 699 595 697 Q598 695 594 689 Q590 683 586 677 Q520 588 447 508 Q377 429 301.5 356.5 Q226 284 146 215 Q143 213 140 210 Q137 207 134 205 L134 189 Z " />
<glyph glyph-name="Y" unicode="Y" horiz-adv-x="456" d="M578 697 Q581 703 586.5 699.5 Q592 696 589 691 Q566 642 543 593.5 Q520 545 497 496 Q457 408 418.5 319.5 Q380 231 342 142 Q306 56 270.5 -29 Q235 -114 200 -201 Q198 -206 191.5 -204.5 Q185 -203 187 -197 Q207 -149 226.5 -102 Q246 -55 266 -7 Q300 74 334 154.5 Q368 235 403 316 Q367 244 329 171.5 Q291 99 236 39 Q224 26 209 14 Q194 2 177.5 -6.5 Q161 -15 143 -17 Q125 -19 107 -13 Q72 -1 53.5 32 Q35 65 30 99 Q25 137 30 175.5 Q35 214 43 252 Q52 294 62.5 334 Q73 374 86 414 Q107 480 133 543.5 Q159 607 190 669 Q194 677 195.5 679.5 Q197 682 201 689 Q209 706 218 723 Q221 728 227 724.5 Q233 721 230 716 Q225 707 220 698 Q215 689 210 680 Q172 608 142 532.5 Q112 457 89 379 Q77 340 67.5 300.5 Q58 261 50 222 Q43 186 40.5 148.5 Q38 111 48 76 Q53 59 62 43.5 Q71 28 84 16 Q97 4 113.5 -1.5 Q130 -7 149 -3 Q167 1 182.5 11 Q198 21 212 33 Q226 47 238.5 62 Q251 77 262 92 Q285 124 305.5 158.5 Q326 193 344 228 Q364 266 382 303 Q400 340 419 378 Q459 459 498.5 538 Q538 617 578 697 Z " />
<glyph glyph-name="Z" unicode="Z" horiz-adv-x="491" d="M625 741 Q639 738 646.5 728 Q654 718 652 705 Q650 691 641 680.5 Q632 670 624 660 Q588 615 547.5 573 Q507 531 464 491 Q422 451 378 413 Q334 375 289 337 Q283 332 277 327 Q271 322 265 317 Q276 317 285.5 316.5 Q295 316 304 315 Q310 314 311.5 307.5 Q313 301 305 302 Q291 304 277.5 304 Q264 304 250 304 Q215 275 179.5 246 Q144 217 110 188 Q67 150 24 112 Q-19 74 -62 33 L-104 -9 Q-113 -18 -122 -28.5 Q-131 -39 -136 -52 Q-141 -66 -137.5 -79 Q-134 -92 -126 -103.5 Q-118 -115 -106.5 -124.5 Q-95 -134 -83 -141 Q-37 -171 16 -180.5 Q69 -190 120 -183 Q176 -175 224.5 -150.5 Q273 -126 315 -91 Q357 -54 390.5 -10.5 Q424 33 456 80 Q460 85 465.5 82 Q471 79 467 73 Q460 62 452.5 50.5 Q445 39 437 28 Q404 -17 367 -58 Q330 -99 283 -131 Q239 -162 188.5 -179.5 Q138 -197 82 -199 Q31 -200 -21 -184 Q-73 -168 -115 -133 Q-126 -124 -135 -113 Q-144 -102 -149 -88 Q-156 -61 -144 -38 Q-137 -25 -128.5 -15 Q-120 -5 -110 5 Q-100 15 -89.5 25 Q-79 35 -68 46 Q-25 87 18.5 125.5 Q62 164 104 202 Q135 228 165.5 252.5 Q196 277 227 303 Q209 303 194 300 Q188 299 187.5 305.5 Q187 312 193 313 Q205 315 218 316 Q231 317 244 317 Q255 326 265 335 Q275 344 285 352 Q331 390 374.5 428 Q418 466 462 507 Q504 548 544 590.5 Q584 633 621 678 Q624 682 628.5 688 Q633 694 636 700.5 Q639 707 639 713 Q639 719 633 724 Q628 729 621 729.5 Q614 730 607 730 Q599 730 589.5 730.5 Q580 731 572 731 Q506 731 440 725 Q373 718 308 704 Q243 690 181 668 Q175 666 172.5 672.5 Q170 679 176 681 Q192 686 207 690.5 Q222 695 237 700 Q363 734 498 742 Q514 743 530 743.5 Q546 744 563 744 Q571 744 579.5 744 Q588 744 596 743 Q604 743 611 743 Q618 743 625 741 Z " />
<glyph glyph-name="b" unicode="b" horiz-adv-x="86" d="M122 535 Q96 478 70 421 Q44 364 15 301 Q30 317 43 316 Q53 315 55.5 308 Q58 301 57 293 Q65 295 71.5 296.5 Q78 298 86 300 Q91 302 93 296 Q95 290 89 288 Q80 286 70.5 284 Q61 282 52 279 Q48 270 43 260 Q38 250 28 245 Q23 242 18 245.5 Q13 249 12 255 Q10 268 21.5 275.5 Q33 283 43 288 Q45 293 45.5 299.5 Q46 306 38 304 Q31 302 25.5 296.5 Q20 291 16 286 Q5 273 -1 261.5 Q-7 250 -14 237 Q-17 232 -22 235 Q-27 238 -25 243 Q-17 260 -10.5 276 Q-4 292 4 309 Q30 368 57 425.5 Q84 483 111 541 Q114 546 119 543 Q124 540 122 535 Z M24 258 Q26 258 30 262.5 Q34 267 34 270 Q29 268 26.5 264 Q24 260 24 258 Z " />
<glyph glyph-name="c" unicode="c" horiz-adv-x="74" d="M74 299 Q79 302 82 297 Q85 292 80 289 Q63 278 44 265 Q25 252 9 244 Q3 241 -3.5 241 Q-10 241 -15 247 Q-20 252 -19 259 Q-18 266 -16 272 Q-11 285 -1 298 Q3 303 9 308.5 Q15 314 23 315 Q31 315 34 309 Q37 303 34 297 Q31 292 26 294.5 Q21 297 23 303 Q24 305 20.5 301.5 Q17 298 15 296 Q13 294 8.5 288.5 Q4 283 -0.5 276.5 Q-5 270 -7 263.5 Q-9 257 -5 254 Q-3 252 3.5 254.5 Q10 257 12 259 Q27 268 42.5 278 Q58 288 74 299 Z " />
<glyph glyph-name="d" unicode="d" horiz-adv-x="104" d="M62 276 Q61 272 60 268.5 Q59 265 59 262 Q58 260 58 256 L58 253 Q59 254 60 254.5 Q61 255 62 256 Q64 258 65 258.5 Q66 259 67 261 L79 273 Q85 280 91.5 286 Q98 292 104 298 Q109 303 113.5 298.5 Q118 294 113 290 L80 257 Q75 252 67 244.5 Q59 237 51 242 Q45 245 45 253 Q45 261 47 266 Q50 281 54 292 Q49 282 43 273 Q37 264 30 256 Q23 248 13 243 Q3 238 -7 243 Q-16 248 -16 258.5 Q-16 269 -14 277 Q-11 287 -4 296 Q3 305 13 309 Q18 311 22.5 311 Q27 311 31 306 Q37 298 32 291 Q29 286 24 289 Q19 292 22 297 Q24 300 17.5 296 Q11 292 8 289 Q6 287 3 282 Q0 277 -2.5 272 Q-5 267 -5 262 Q-5 257 -1 254 Q5 249 14 257.5 Q23 266 32 279 Q41 292 48 305.5 Q55 319 57 324 Q67 342 75.5 360 Q84 378 93 396 Q98 407 103.5 417.5 Q109 428 114 439 Q125 465 137 489.5 Q149 514 160 540 Q163 545 168 542 Q173 539 171 534 Q160 509 148.5 485 Q137 461 126 437 Q112 405 97.5 372.5 Q83 340 72 306 Q69 298 66.5 291 Q64 284 62 276 Z " />
<glyph glyph-name="e" unicode="e" horiz-adv-x="77" d="M77 299 Q82 302 86 298 Q90 294 85 290 Q71 279 60 270 Q49 261 36 251 Q28 245 15.5 239.5 Q3 234 -7 241 Q-18 249 -15 264.5 Q-12 280 -7 290 Q-3 296 2 302 Q7 308 14 312 Q19 315 25.5 315.5 Q32 316 35 309 Q40 297 29 286 Q18 275 7 272 Q2 272 1 276 Q-1 271 -3 261.5 Q-5 252 2 250 Q7 249 17 254.5 Q27 260 38.5 268.5 Q50 277 60.5 285.5 Q71 294 77 299 Z M25 304 Q17 299 6 284 Q11 284 15.5 287.5 Q20 291 23 295 Q26 299 27 302 Q28 305 25 304 Z " />
<glyph glyph-name="f" unicode="f" horiz-adv-x="88" d="M0 268 Q13 273 23 277 Q33 281 43 284.5 Q53 288 63.5 291.5 Q74 295 88 300 Q94 302 95.5 296 Q97 290 91 288 Q71 280 51.5 274 Q32 268 5 258 Q-2 256 -3.5 250 Q-5 244 -6 237 Q-8 214 -12.5 192 Q-17 170 -24 150 Q-32 130 -39.5 111.5 Q-47 93 -58 76 Q-66 64 -78 47.5 Q-90 31 -103 18 Q-108 13 -112 14 Q-118 15 -116 23 Q-114 29 -111.5 35 Q-109 41 -107 47 Q-94 79 -82.5 108.5 Q-71 138 -57 170 Q-15 267 26.5 357.5 Q68 448 112 542 Q114 548 121 544 Q128 540 125 535 L0 268 Z M-53 112 Q-39 140 -29.5 171.5 Q-20 203 -18 231 L-54 147 Q-65 121 -75.5 94.5 Q-86 68 -97 41 Q-89 51 -78 68 Q-67 85 -53 112 Z " />
<glyph glyph-name="g" unicode="g" horiz-adv-x="91" d="M91 298 Q96 302 99 297.5 Q102 293 97 289 Q49 250 11 200 Q6 188 1 175.5 Q-4 163 -9 150 Q-16 133 -22 116 Q-28 99 -36 83 Q-42 71 -48.5 58 Q-55 45 -62 34 Q-69 23 -75.5 16.5 Q-82 10 -87 11 Q-95 12 -94 24 Q-93 36 -92 42 Q-87 59 -83.5 68.5 Q-80 78 -70 96 Q-54 125 -36.5 153 Q-19 181 1 207 Q6 218 9.5 227.5 Q13 237 18 248 Q13 243 6 239 Q-1 235 -8 237 Q-19 239 -19.5 250 Q-20 261 -15 274 Q-10 287 -1.5 298 Q7 309 14 311 Q21 313 24.5 310.5 Q28 308 29.5 303 Q31 298 30.5 292 Q30 286 29 282 Q27 276 21 277.5 Q15 279 17 285 Q18 288 18 290.5 Q18 293 19 297 Q20 301 14.5 294.5 Q9 288 3 278 Q-3 268 -6 258.5 Q-9 249 -4 248 Q1 247 5 251.5 Q9 256 12 259 Q16 263 19.5 267 Q23 271 26 275 Q30 280 33.5 285.5 Q37 291 39 297 Q41 301 43 305 Q45 309 47 313 Q49 318 54.5 316 Q60 314 58 309 Q56 304 54 300 Q52 296 50 291 Q45 278 39 265 Q33 252 28 239 Q42 256 58 270 Q74 284 91 298 Z M-83 29 Q-76 39 -71.5 45.5 Q-67 52 -63.5 58 Q-60 64 -56.5 71 Q-53 78 -48 89 Q-45 95 -40.5 106 Q-36 117 -30.5 129 Q-25 141 -20.5 151 Q-16 161 -14 166 Q-25 149 -36.5 128.5 Q-48 108 -57 91 Q-65 77 -70 64.5 Q-75 52 -83 29 Z " />
<glyph glyph-name="h" unicode="h" horiz-adv-x="84" d="M120 534 Q116 526 111.5 515 Q107 504 96 480 Q85 456 66 412.5 Q47 369 14 296 Q24 310 29.5 318 Q35 326 42 325 Q53 323 52 315.5 Q51 308 47 294 Q45 286 42.5 277 Q40 268 38 260 Q48 268 59 276.5 Q70 285 84 299 Q89 303 92 298 Q95 293 90 289 Q82 281 75 274.5 Q68 268 58 260 Q52 255 43 248.5 Q34 242 26 247 Q23 249 23.5 254.5 Q24 260 25.5 266 Q27 272 28.5 278 Q30 284 31 287 Q34 297 36 302.5 Q38 308 39 313 Q34 308 27.5 298 Q21 288 15 279 Q10 271 4 262.5 Q-2 254 -8 246 Q-11 242 -16 244 Q-21 246 -19 251 Q-7 284 8 317 Q20 345 32.5 372 Q45 399 57 427 L108 541 Q111 547 116.5 543 Q122 539 120 534 Z " />
<glyph glyph-name="i" unicode="i" horiz-adv-x="67" d="M67 299 Q72 302 75.5 297 Q79 292 74 289 Q56 278 35 262 Q14 246 -3 244 Q-7 243 -11 245.5 Q-15 248 -16 253 Q-18 264 -9.5 281.5 Q-1 299 7 312 Q10 317 16.5 313.5 Q23 310 19 305 Q12 292 4.5 277 Q-3 262 -1 257 Q12 263 32.5 277 Q53 291 67 299 Z M45 367 Q38 367 38 373 Q38 375 39 377 Q40 379 44 380 Q52 382 52 374 Q52 367 45 367 Z " />
<glyph glyph-name="j" unicode="j" horiz-adv-x="57" d="M57 299 Q62 303 65 298 Q68 293 63 289 Q13 250 -27 204 Q-28 204 -28 203 Q-34 189 -40 176 Q-46 163 -52 150 Q-67 117 -82.5 84.5 Q-98 52 -120 23 Q-124 18 -130 15 Q-136 12 -141 18 Q-145 23 -143.5 30.5 Q-142 38 -140 43 Q-131 76 -114 107 Q-99 136 -79.5 161.5 Q-60 187 -39 210 Q-28 235 -18.5 258.5 Q-9 282 4 308 Q7 314 13 310 Q19 306 17 301 Q10 284 2.5 268.5 Q-5 253 -12 236 Q5 253 21.5 269 Q38 285 57 299 Z M-78 123 Q-72 136 -66.5 148 Q-61 160 -55 172 Q-71 152 -82.5 135.5 Q-94 119 -105 99 Q-113 83 -119.5 66 Q-126 49 -131 29 Q-125 39 -116.5 53.5 Q-108 68 -100 82 Q-92 96 -86 107 Q-80 118 -78 123 Z M35 367 Q30 367 29 371 Q27 379 35 379 Q41 379 41 374 Q41 367 35 367 Z " />
<glyph glyph-name="k" unicode="k" horiz-adv-x="87" d="M120 538 Q92 479 66 419.5 Q40 360 14 300 Q15 302 19 306 Q23 309 26 311 Q29 313 34 311 Q44 308 42 297 Q40 286 36 281 Q30 272 19 272 Q19 270 20 265.5 Q21 261 23 259 Q27 257 34.5 262.5 Q42 268 51 274 Q62 282 69 286.5 Q76 291 87 299 Q92 302 95 296.5 Q98 291 93 288 Q79 278 66 269.5 Q53 261 39 252 Q34 248 26 247 Q18 246 13 252 Q9 257 8 262.5 Q7 268 7 274 Q2 267 -2 260.5 Q-6 254 -10 247 Q-13 241 -18 244.5 Q-23 248 -21 253 Q-13 269 -6.5 285 Q0 301 8 317 Q33 374 58.5 430.5 Q84 487 110 544 Q112 549 117 546 Q122 543 120 538 Z M29 297 Q26 295 23 292.5 Q20 290 17 287 L17 285 Q17 284 18 284 Q20 284 22.5 286 Q25 288 26 289 Q29 292 29 297 Z " />
<glyph glyph-name="l" unicode="l" horiz-adv-x="83" d="M30 332 Q28 329 22.5 316 Q17 303 11.5 288.5 Q6 274 3.5 262 Q1 250 6 248 Q9 247 17.5 252.5 Q26 258 33 263 Q45 271 60 281.5 Q75 292 83 299 Q88 303 92.5 298.5 Q97 294 92 290 Q84 284 78.5 279.5 Q73 275 65.5 270 Q58 265 47.5 258 Q37 251 20 240 Q9 233 -0.5 237 Q-10 241 -12 250 Q-14 258 -9 275 Q-4 292 4.5 311.5 Q13 331 22.5 350.5 Q32 370 38 383 L110 539 Q112 544 117.5 541 Q123 538 121 533 Q110 512 101 490.5 Q92 469 82 448 Q74 430 68 416.5 Q62 403 56 390 Q50 377 44 363.5 Q38 350 30 332 Z " />
<glyph glyph-name="m" unicode="m" horiz-adv-x="122" d="M122 299 Q127 302 130 297 Q133 292 128 288 Q114 277 99.5 266 Q85 255 71 244 Q66 240 62 239 Q58 238 53 246 Q52 249 53 252.5 Q54 256 55 259 Q58 268 61 277 Q64 286 68 297 L66 295 Q61 289 56.5 282.5 Q52 276 47 270 Q43 265 41.5 262.5 Q40 260 39 258.5 Q38 257 37 255.5 Q36 254 33 250 Q31 247 29.5 245.5 Q28 244 25 242 Q22 240 19.5 242.5 Q17 245 17 248 Q17 251 21.5 261.5 Q26 272 29 280 Q31 284 32 287.5 Q33 291 35 296 Q27 285 19.5 275 Q12 265 4 254 Q1 249 -4 243.5 Q-9 238 -15 240 Q-23 242 -21 249 Q-19 256 -17 261 Q-12 272 -7.5 283 Q-3 294 2 304 Q7 312 12.5 310 Q18 308 16 301 Q12 291 9 285 Q6 279 1 268 Q8 278 13.5 287 Q19 296 29 307 Q37 315 45 314 Q52 311 50.5 304 Q49 297 46 289 Q50 294 53 298.5 Q56 303 61 307 Q74 315 78 306.5 Q82 298 77 284 Q73 273 71.5 268.5 Q70 264 67 256 Q80 267 94 277.5 Q108 288 122 299 Z " />
<glyph glyph-name="n" unicode="n" horiz-adv-x="87" d="M87 299 Q92 302 95.5 296.5 Q99 291 94 288 Q81 279 68.5 271 Q56 263 43 255 Q38 252 33 248 Q28 244 22 246 Q15 249 16 255.5 Q17 262 19 267 L33 295 Q31 293 25.5 286.5 Q20 280 15 274 Q5 263 0 256.5 Q-5 250 -16 239 Q-20 235 -24 239 Q-27 242 -27 245 Q-27 248 -25 252 Q-18 266 -10.5 280 Q-3 294 6 311 Q9 316 15.5 312.5 Q22 309 19 304 Q14 296 10 288.5 Q6 281 1 272 Q9 280 17.5 293.5 Q26 307 34 311 Q42 314 44.5 308 Q47 302 46 296 Q44 287 39 278.5 Q34 270 31 262 Q42 270 57 279 Q72 288 87 299 Z " />
<glyph glyph-name="o" unicode="o" horiz-adv-x="69" d="M69 300 Q73 301 75 295.5 Q77 290 72 288 Q55 284 36 287 Q34 282 30 274 Q27 268 23 263 Q19 258 14 252 Q9 247 3.5 243 Q-2 239 -9 239 Q-17 239 -19.5 244 Q-22 249 -21.5 256 Q-21 263 -18 270 Q-15 277 -13 281 Q-7 292 2 302 Q11 312 24 317 Q29 319 31 314 Q33 309 29 306 Q33 304 35 300 Q52 295 69 300 Z M25 290 Q22 292 18 292.5 Q14 293 16 298 Q12 295 6.5 287.5 Q1 280 -3.5 271.5 Q-8 263 -10 256.5 Q-12 250 -8 249 Q-4 250 1.5 254.5 Q7 259 11.5 265 Q16 271 20 278 Q24 285 25 290 Z " />
<glyph glyph-name="p" unicode="p" horiz-adv-x="101" d="M101 299 Q106 302 109 296.5 Q112 291 107 288 Q92 279 74.5 273 Q57 267 39 264 Q29 256 22 251 Q17 247 9.5 244.5 Q2 242 -3 248 Q-11 236 -18.5 223.5 Q-26 211 -33 198 Q-56 153 -77.5 107.5 Q-99 62 -119 15 Q-121 9 -126 12.5 Q-131 16 -129 21 Q-122 38 -115 54 Q-108 70 -101 87 Q-75 145 -48 202 Q-21 259 8 315 Q10 320 15.5 317 Q21 314 18 309 Q14 301 10 293 Q6 285 2 277 Q4 279 7.5 284 Q11 289 13 291 Q20 299 30.5 308.5 Q41 318 56 314 Q63 312 65.5 307 Q68 302 66 296 Q63 288 55 280 Q80 288 101 299 Z M28 290 Q24 286 20.5 281 Q17 276 13 271 Q21 273 33 275 Q34 276 38 280 Q42 284 46 289 Q50 294 52 298 Q54 302 51 303 Q45 303 39 298.5 Q33 294 28 290 Z " />
<glyph glyph-name="q" unicode="q" horiz-adv-x="94" d="M94 299 Q99 302 102 297 Q105 292 100 288 Q82 274 63.5 261 Q45 248 30 231 Q19 220 8.5 205.5 Q-2 191 -8 174 Q-14 158 -17.5 140.5 Q-21 123 -26 105 Q-33 82 -46 54.5 Q-59 27 -80 9 Q-84 6 -88 8 Q-92 10 -90 15 Q-83 39 -72.5 67.5 Q-62 96 -49.5 126.5 Q-37 157 -23 187 Q-9 217 6 244 Q8 248 10 251.5 Q12 255 14 259 Q6 254 -3 251 Q-12 248 -17 258 Q-19 263 -17.5 269 Q-16 275 -14 280 Q-10 290 0 300 Q3 303 8 307 Q13 311 18.5 313 Q24 315 29.5 314 Q35 313 38 307 Q40 304 38 302 Q40 304 40.5 305.5 Q41 307 43 309 Q46 314 51 311 Q56 308 54 303 Q43 285 31.5 264 Q20 243 10 227 Q15 232 19.5 237.5 Q24 243 29 248 Q44 262 60.5 274.5 Q77 287 94 299 Z M-6 264 Q-4 262 0 264 Q4 266 8.5 269.5 Q13 273 17 277 Q21 281 23 283 Q30 290 36 299 Q34 297 31.5 297 Q29 297 27 301 Q25 305 20.5 302 Q16 299 11 294 Q6 289 2 282.5 Q-2 276 -4 272 Q-5 270 -6 267.5 Q-7 265 -6 264 Z M-67 46 Q-53 64 -43.5 89.5 Q-34 115 -29 145 Q-33 135 -35 130.5 Q-37 126 -39 120 Q-46 103 -52 87 Q-58 71 -64 54 Q-66 48 -67 46 Z " />
<glyph glyph-name="r" unicode="r" horiz-adv-x="85" d="M85 299 Q88 302 93 298 Q98 294 93 290 Q77 276 61 263 Q45 250 27 236 Q22 233 16 229 Q10 225 5 232 Q3 236 4 240 Q5 244 7 248 Q10 256 15 264.5 Q20 273 25 284 L20 284 Q15 284 13 285 Q-3 288 -4 303 Q-4 310 -0.5 317 Q3 324 10 328 Q15 330 20.5 329 Q26 328 28 322 Q30 315 25.5 309 Q21 303 16 298 Q21 298 27 296.5 Q33 295 36 290 Q39 285 36.5 279 Q34 273 31 267 Q28 261 25 256 Q22 251 19 245 Q20 246 22.5 248 Q25 250 26 251 Q42 264 56 274.5 Q70 285 85 299 Z M15 317 Q11 314 9 307 Q14 312 15 317 Z " />
<glyph glyph-name="s" unicode="s" horiz-adv-x="76" d="M75 299 Q80 301 82.5 295.5 Q85 290 80 288 Q66 282 53.5 276 Q41 270 28 262 Q26 254 24 248 Q17 232 6 221 Q1 216 -5.5 213 Q-12 210 -20 212 Q-28 214 -28.5 220.5 Q-29 227 -25 233 Q-18 244 -7.5 253 Q3 262 15 269 Q13 279 7 285 Q2 290 -1 296.5 Q-4 303 -2 311 Q0 317 4.5 322.5 Q9 328 16 330 Q22 332 27.5 328.5 Q33 325 32 317 Q31 310 24.5 305 Q18 300 13 296 Q24 287 27 275 Q38 282 50 287.5 Q62 293 75 299 Z M20 318 Q18 320 15 316 Q12 312 10 309 Q12 310 16.5 313 Q21 316 20 318 Z M-5 228 Q1 233 5.5 239.5 Q10 246 13 253 Q5 248 -3 241 Q-11 234 -16 223 Q-14 223 -10.5 224.5 Q-7 226 -5 228 Z " />
<glyph glyph-name="t" unicode="t" horiz-adv-x="40" d="M231 350 Q237 350 237 344 Q237 338 231 338 Q211 338 192 338.5 Q173 339 153 339 Q123 339 93.5 339.5 Q64 340 34 340 Q11 287 -9 242.5 Q-29 198 -47 157.5 Q-65 117 -81 79.5 Q-97 42 -112 5 Q-114 0 -121 2 Q-128 4 -126 10 Q-115 34 -105.5 57.5 Q-96 81 -86 105 Q-60 165 -34 223.5 Q-8 282 19 341 Q-10 341 -38 341.5 Q-66 342 -94 342 Q-100 342 -100 348 Q-100 354 -94 354 Q-74 354 -55 354 Q-36 354 -16 353 L24 353 Q36 378 47 402 Q49 406 53 405 Q57 404 58 401 Q60 393 58 386 Q56 379 53 373 Q50 368 47 362.5 Q44 357 40 352 Q88 352 135.5 351.5 Q183 351 231 350 Z " />
<glyph glyph-name="u" unicode="u" horiz-adv-x="94" d="M95 298 Q100 303 103.5 297.5 Q107 292 102 288 Q98 284 90 275 Q82 266 72 257 Q62 248 52 242 Q42 236 35 238 Q27 240 26.5 247.5 Q26 255 27 260 Q22 253 16 247.5 Q10 242 2 240 Q-3 238 -8 241 Q-13 244 -15 249 Q-18 258 -13 272 Q-8 286 -5 291.5 Q-2 297 5 309 Q8 314 13 311 Q18 308 16 303 Q12 295 8.5 288 Q5 281 1 272 Q-1 268 -3 261.5 Q-5 255 -3 253 Q0 251 7 255 Q13 260 18 267 Q23 274 28 281 Q33 289 37 296.5 Q41 304 46 312 Q49 317 54 314 Q59 311 57 306 Q53 298 50 292 Q47 286 43 277 Q43 276 41.5 272 Q40 268 39 263.5 Q38 259 38 255.5 Q38 252 40 251 Q43 250 50 255 Q57 260 65 267.5 Q73 275 81 283.5 Q89 292 95 298 Z " />
<glyph glyph-name="v" unicode="v" horiz-adv-x="84" d="M84 299 Q90 301 91.5 295 Q93 289 88 287 Q74 281 58 280 Q45 278 37 282 Q36 282 32.5 278 Q29 274 24.5 269.5 Q20 265 15.5 260 Q11 255 8 252 Q3 247 -2.5 241.5 Q-8 236 -16 235 Q-24 235 -22 243 Q-9 280 8 319 Q10 324 16 322.5 Q22 321 20 316 Q6 286 -4 256 Q-3 258 -2 258.5 Q-1 259 0 261 Q4 266 8 269.5 Q12 273 16 278 Q19 282 22 285 Q25 288 29 292 Q24 299 27 307 Q29 313 34.5 319 Q40 325 47 325 Q55 326 57 319.5 Q59 313 57 307 Q54 300 46 292 Q56 290 66 292.5 Q76 295 84 299 Z M46 312 Q45 312 43.5 310.5 Q42 309 41 308 L38 302 Q44 308 46 312 Z " />
<glyph glyph-name="w" unicode="w" horiz-adv-x="105" d="M105 299 Q110 303 113 297.5 Q116 292 111 288 Q106 285 100 284 Q94 283 89 282 Q84 281 78 281 Q72 281 67 283 Q66 283 64 285 Q64 284 63 284 Q56 274 48 265.5 Q40 257 31 249 Q28 246 24 248 Q14 253 18 266 Q16 264 14.5 262 Q13 260 11 258 Q7 253 0 244.5 Q-7 236 -15 241 Q-21 246 -17 255 Q-15 261 -13 266.5 Q-11 272 -9 277 Q-5 288 -1 298 Q3 308 8 318 Q10 323 15 320 Q20 317 18 312 Q15 304 11.5 296.5 Q8 289 5 281 Q3 276 2 272.5 Q1 269 -1 265 Q-1 264 -1.5 263.5 Q-2 263 -2 261 Q4 269 7 272 Q12 279 16.5 285 Q21 291 26 298 Q29 303 34 300.5 Q39 298 37 293 Q36 288 35 282.5 Q34 277 32 272 Q32 271 31 269 Q30 267 30 265 Q39 273 49 286 Q51 288 52.5 290.5 Q54 293 56 295 Q54 303 58.5 312.5 Q63 322 73 324 Q76 326 80 322 Q82 317 80 312.5 Q78 308 76 303 Q74 301 73 299 Q72 297 71 295 Q75 293 78 293 Q84 293 92 294 Q100 295 105 299 Z " />
<glyph glyph-name="x" unicode="x" horiz-adv-x="93" d="M92 298 Q97 303 101 298 Q105 293 100 289 Q93 284 88.5 280 Q84 276 80.5 273 Q77 270 73 266.5 Q69 263 63 258 Q58 253 49.5 246.5 Q41 240 36 235 Q31 232 25.5 232 Q20 232 20 240 Q20 244 20.5 251 Q21 258 22 264 Q18 260 14 257 Q10 254 5 250 Q1 246 -3.5 250 Q-8 254 -3 258 Q4 264 11 270.5 Q18 277 25 283 Q25 288 25.5 293 Q26 298 26 306 Q26 308 19 301 L6 288 Q1 283 -2.5 287.5 Q-6 292 -2 297 Q5 305 14 313 Q18 316 20.5 318 Q23 320 27 320 Q36 318 37 311 Q38 306 38 302 Q38 298 38 294 Q41 297 44.5 300.5 Q48 304 51 306 Q56 311 60.5 306.5 Q65 302 60 298 L36 277 Q35 270 34.5 263 Q34 256 33 248 Q49 262 62 273 Q75 284 92 298 Z " />
<glyph glyph-name="y" unicode="y" horiz-adv-x="84" d="M83 298 Q88 303 92 298.5 Q96 294 92 289 Q78 275 62 259.5 Q46 244 33 230 Q22 218 12.5 207 Q3 196 -6 183 Q-17 155 -29 127 Q-41 99 -52 71 Q-56 62 -59.5 53 Q-63 44 -68 35 Q-71 29 -75 22.5 Q-79 16 -84 12 Q-86 10 -88.5 11 Q-91 12 -92 14 Q-97 27 -93 41.5 Q-89 56 -83 70 Q-55 134 -17 188 Q-12 199 -8 207 Q-4 215 -0.5 223 Q3 231 7.5 240 Q12 249 19 263 Q10 253 3 249 Q-1 247 -6 247.5 Q-11 248 -13 253 Q-15 258 -14 263 Q-13 268 -11 273 Q-3 295 7 314 Q10 319 15.5 316 Q21 313 18 308 Q14 300 12 295.5 Q10 291 4 280 Q-3 268 -3 264.5 Q-3 261 -2 261 Q1 263 3.5 264.5 Q6 266 15 276 Q26 287 31.5 295 Q37 303 46 316 Q50 320 54 316.5 Q58 313 56 308 Q48 291 38.5 272.5 Q29 254 18 234 Q34 250 51.5 266 Q69 282 83 298 Z M-57 90 Q-53 98 -50 106.5 Q-47 115 -43 123 Q-51 109 -58 95 Q-65 81 -71 67 Q-75 59 -77.5 50.5 Q-80 42 -82 35 Q-68 61 -57 90 Z " />
<glyph glyph-name="z" unicode="z" horiz-adv-x="88" d="M88 298 Q93 303 97 298.5 Q101 294 96 289 Q81 273 66 257 Q51 241 37 224 Q29 215 22 205.5 Q15 196 7 187 Q-1 168 -9 150 Q-17 132 -25 113 Q-32 97 -39 81.5 Q-46 66 -54 50 Q-59 40 -69 25 Q-71 23 -74.5 18 Q-78 13 -83 13 Q-88 13 -89 18 Q-90 23 -89 28 Q-87 42 -82.5 55 Q-78 68 -73 80 Q-61 107 -45.5 131 Q-30 155 -13 180 Q-11 183 -8.5 186.5 Q-6 190 -3 193 Q0 200 3 207 Q6 214 9 221 Q14 231 18 240 Q22 249 27 262 Q22 260 18.5 259.5 Q15 259 10 257 Q5 255 3 260.5 Q1 266 5 268 Q13 273 19.5 279 Q26 285 32 294 Q34 296 35.5 298.5 Q37 301 36 302 Q35 303 31 302.5 Q27 302 22 300 Q17 298 12 295.5 Q7 293 6 292 Q1 290 -1 295 Q-3 300 2 303 Q9 307 17 310.5 Q25 314 33 314 Q40 315 44.5 311 Q49 307 48 300 Q47 292 41.5 285.5 Q36 279 31 274 Q38 272 39 266 Q40 260 37 252 Q35 247 32.5 242 Q30 237 27 231 Q42 248 57 265 Q72 282 88 298 Z M-53 78 Q-45 95 -40.5 106 Q-36 117 -29 134 Q-37 120 -45.5 106 Q-54 92 -63 73 Q-67 64 -70 55 Q-73 46 -76 37 Q-63 59 -53 78 Z " />
<glyph glyph-name="C" unicode="C" horiz-adv-x="547" d="M152 470 Q106 397 74 316 Q42 235 27 148 Q19 105 17.5 60.5 Q16 16 26 -29 Q36 -70 57.5 -108 Q79 -146 115 -171 Q133 -183 151.5 -190 Q170 -197 190 -198 Q213 -200 234 -194.5 Q255 -189 274 -178 Q313 -157 340.5 -122 Q368 -87 390 -49 Q394 -44 399.5 -47 Q405 -50 401 -55 Q395 -66 389 -75.5 Q383 -85 377 -95 Q352 -132 318.5 -163 Q285 -194 239 -206 Q218 -212 196 -212 Q174 -212 153 -204 Q113 -190 82 -159 Q48 -124 31.5 -81 Q15 -38 10 7.5 Q5 53 9 100 Q13 147 22 189 Q42 279 79 362 Q116 445 170 519 Q197 556 226.5 589.5 Q256 623 292 652 Q327 681 369.5 703 Q412 725 460 727 Q481 728 501.5 724 Q522 720 539 709 Q569 692 588 660 Q606 631 611.5 597.5 Q617 564 605 534 Q602 528 596 531.5 Q590 535 592 540 Q594 547 596 553.5 Q598 560 600 568 Q602 598 589.5 629 Q577 660 553 682 Q538 697 519.5 704.5 Q501 712 481 713.5 Q461 715 441 711.5 Q421 708 402 701 Q360 686 325.5 660 Q291 634 259 604 Q229 573 202.5 539.5 Q176 506 152 470 Z " />
<glyph glyph-name="braceleft" unicode="&#x7b;" horiz-adv-x="87" d="M166 545 Q172 547 173.5 540.5 Q175 534 170 532 Q158 528 151 518 Q144 508 139 497 Q133 486 127 474 Q121 462 115 450 Q104 427 91 406 Q78 385 61 366 Q63 359 61 352 Q59 345 57 338 Q53 328 49.5 318.5 Q46 309 43 300 Q39 290 36 280.5 Q33 271 30 261 Q28 256 26.5 252 Q25 248 25 243 Q25 238 26 237 Q28 234 30 236 Q35 240 39 235.5 Q43 231 39 227 Q31 220 23 224 Q15 228 13 237 Q11 242 12 247 Q13 252 15 257 Q17 262 19 268 Q21 274 23 280 Q26 291 30 302 Q34 313 38 324 Q40 329 42 334.5 Q44 340 46 346 Q52 357 48 365 Q45 368 49 372 Q57 381 64.5 390 Q72 399 79 410 Q90 427 99.5 446 Q109 465 118 484 Q126 501 136.5 519 Q147 537 166 545 Z " />
<glyph glyph-name="braceright" unicode="&#x7d;" horiz-adv-x="77" d="M116 544 Q125 547 130 540 Q135 533 135 525 Q135 520 134 516 Q133 512 131 507 Q129 502 128 496.5 Q127 491 125 485 Q121 474 117 463 Q113 452 108 441 Q103 430 98 420 Q93 410 88 399 Q83 390 78.5 379.5 Q74 369 78 358 Q78 354 75 351 Q58 338 51.5 317.5 Q45 297 37 278 Q30 260 18 244 Q6 228 -14 223 Q-20 221 -21.5 227 Q-23 233 -17 235 Q3 240 13 257 Q23 274 29 291 Q35 309 42.5 327 Q50 345 65 358 Q63 370 67 381 Q71 392 76 403 Q82 415 88 427 Q94 439 99 451 Q104 464 109 477 Q114 490 117 504 Q119 509 120.5 514.5 Q122 520 122 525 Q122 526 122 528 Q122 530 121 531 Q120 532 120.5 532.5 Q121 533 119 532 Q114 530 112.5 536 Q111 542 116 544 Z " />
<glyph glyph-name="bracketleft" unicode="&#x5b;" horiz-adv-x="92" d="M172 545 Q178 545 178 538.5 Q178 532 172 532 L152 532 Q149 532 148 529 Q147 527 146 524.5 Q145 522 144 520 Q139 512 135.5 503 Q132 494 128 485 Q113 453 98.5 421 Q84 389 70 357 Q63 341 56.5 325.5 Q50 310 42 293 Q39 285 35.5 276.5 Q32 268 28 260 Q26 256 24.5 252.5 Q23 249 21 244 Q20 242 18 236 Q18 236 17 235 L25 235 L43 235 Q49 236 49 229.5 Q49 223 43 223 Q38 222 32 222 Q26 222 20 222 Q16 222 11.5 222 Q7 222 4 225 Q1 229 3.5 234 Q6 239 8 243 L17 267 Q34 306 51 345 Q68 384 86 423 Q94 443 103 462 Q112 481 121 500 Q123 505 125.5 510 Q128 515 130 520 Q132 525 134 529 Q136 533 138 538 Q142 545 152 545 L172 545 L172 545 Z " />
<glyph glyph-name="bracketright" unicode="&#x5d;" horiz-adv-x="81" d="M152 542 Q155 538 152.5 533 Q150 528 148 524 Q146 518 143.5 512 Q141 506 138 501 Q121 461 104 422 Q87 383 70 345 Q62 325 53 306 Q44 287 35 267 Q33 262 30.5 257 Q28 252 26 247 Q24 243 22 238.5 Q20 234 18 229 Q14 222 4 222 Q-1 222 -6 222.5 Q-11 223 -16 223 Q-22 222 -22 228.5 Q-22 235 -16 235 L4 235 Q7 235 8 238 Q9 240 10 242.5 Q11 245 12 247 Q16 255 20 264 Q24 273 28 282 Q57 344 86 410 Q93 426 99.5 442 Q106 458 114 474 Q117 482 120.5 490.5 Q124 499 128 507 Q130 511 131.5 515 Q133 519 135 523 Q136 525 136.5 527 Q137 529 138 531 Q138 531 139 532 L138 532 L130 532 L113 532 Q106 532 106.5 538 Q107 544 113 544 Q118 545 124 545 Q130 545 136 545 Q140 545 144.5 545 Q149 545 152 542 Z " />
<glyph glyph-name="parenleft" unicode="&#x28;" horiz-adv-x="80" d="M161 542 Q166 546 170 542 Q174 538 169 533 Q155 521 143 507.5 Q131 494 120 480 Q100 455 84 427 Q68 399 57 369 Q44 337 37 301.5 Q30 266 35 231 Q37 225 31 223 Q29 222 26 223.5 Q23 225 23 227 Q20 249 21 270.5 Q22 292 27 313 Q41 379 75.5 438 Q110 497 161 542 Z " />
<glyph glyph-name="parenright" unicode="&#x29;" horiz-adv-x="85" d="M118 539 Q118 545 124.5 545 Q131 545 130 539 Q130 499 121 462 Q107 395 73.5 334 Q40 273 -9 225 Q-14 220 -18.5 224.5 Q-23 229 -18 233 Q-4 247 8 261 Q20 275 31 290 Q71 344 93.5 407.5 Q116 471 118 539 Z " />
<glyph glyph-name="question" unicode="&#x3f;" horiz-adv-x="122" d="M184 543 Q194 539 197 530 Q200 521 198 511 Q196 502 192 493.5 Q188 485 184 477 Q179 469 173.5 460.5 Q168 452 162 444 Q150 428 137 413 Q124 398 110 384 Q84 355 60 323 Q36 291 27 251 Q25 245 19 247 Q13 249 15 255 Q24 293 49 329 Q69 359 94.5 385 Q120 411 143 440 Q155 454 165 470 Q175 486 182 503 Q184 508 186.5 517 Q189 526 182 530 Q174 535 165.5 531 Q157 527 151 522 Q146 518 142.5 523.5 Q139 529 144 533 Q153 539 163 543.5 Q173 548 184 543 Z M14 237 Q20 237 20 230.5 Q20 224 14 224 Q8 224 8 230.5 Q8 237 14 237 Z " />
<glyph glyph-name="exclam" unicode="&#x21;" horiz-adv-x="75" d="M12 237 Q18 237 18 231 Q18 225 12 225 Q6 225 6 231 Q6 237 12 237 Z M144 542 Q146 547 151.5 543.5 Q157 540 155 535 Q153 533 149 523.5 Q145 514 143 510 Q117 454 93.5 402.5 Q70 351 47 299 Q42 288 38 278.5 Q34 269 29 259 Q28 257 25.5 256 Q23 255 21 256 Q16 259 18 265 Q20 267 20.5 269.5 Q21 272 23 275 L49 335 Q66 372 82.5 408.5 Q99 445 116 482 Q125 500 130 511 Q135 522 137.5 528 Q140 534 141.5 537 Q143 540 144 542 Z " />
<glyph glyph-name="quotedbl" unicode="&#x22;" horiz-adv-x="108" d="M122 544 Q126 542 124 538 Q120 530 117 521 Q115 517 110 519 Q106 522 108 526 Q111 535 115 543 Q118 548 122 544 Z M129 543 Q131 547 135 544.5 Q139 542 137 538 L128 517 Q126 512 121.5 513 Q117 514 119 519 Q121 525 123.5 531 Q126 537 129 543 Z " />
<glyph glyph-name="quotesingle" unicode="&#x27;" horiz-adv-x="100" d="M112 539 Q114 544 118.5 541.5 Q123 539 121 534 Q116 524 113 515 Q111 510 106.5 512.5 Q102 515 104 520 Q106 525 108 529.5 Q110 534 112 539 Z " />
<glyph glyph-name="grave" unicode="&#x60;" horiz-adv-x="84" d="M103 517 Q105 512 100 510.5 Q95 509 93 514 Q91 520 88.5 526 Q86 532 84 539 Q82 544 87 545 Q92 546 94 541 Q96 535 98 529 Q100 523 103 517 Z " />
<glyph glyph-name="asciitilde" unicode="&#x7e;" horiz-adv-x="103" d="M76 296 Q79 301 84.5 298 Q90 295 87 290 Q81 276 70 267 Q65 262 58.5 258 Q52 254 46 259 Q41 264 41.5 271.5 Q42 279 42 285 L42 287 Q41 285 39.5 284.5 Q38 284 37 282 Q34 280 32 277 Q32 277 29 274 Q29 267 23 267 Q18 266 16 269.5 Q14 273 16 277 Q18 281 21 284 Q24 287 27 290 Q32 295 39.5 299 Q47 303 52 295 Q56 290 54 281 L54 272 Q54 272 55 270 L55 271 Q57 273 58.5 273.5 Q60 274 62 276 Q64 278 64.5 279 Q65 280 67 282 Q73 288 76 296 Z " />
<glyph glyph-name="less" unicode="&#x3c;" horiz-adv-x="138" d="M118 312 Q123 314 124.5 309 Q126 304 121 302 Q98 294 76.5 287 Q55 280 33 272 Q49 264 64.5 257.5 Q80 251 95 243 Q100 241 97.5 236.5 Q95 232 90 234 Q72 243 54 251.5 Q36 260 17 268 Q14 270 15 273 Q16 276 18 277 Q44 286 68.5 294.5 Q93 303 118 312 Z " />
<glyph glyph-name="greater" unicode="&#x3e;" horiz-adv-x="146" d="M111 281 Q113 279 114 276 Q115 273 112 272 Q84 259 56 248.5 Q28 238 -1 229 Q-6 227 -7.5 232 Q-9 237 -4 239 Q22 247 47 256 Q72 265 97 276 Q80 282 64 288.5 Q48 295 31 302 Q26 304 27 308.5 Q28 313 33 311 L111 281 L111 281 Z " />
<glyph glyph-name="plus" unicode="&#x2b;" horiz-adv-x="118" d="M92 286 Q97 286 97 281 Q97 276 92 276 L63 276 Q58 265 52 253.5 Q46 242 41 231 Q39 226 34.5 228.5 Q30 231 32 236 Q37 246 42 255.5 Q47 265 52 276 L24 276 Q19 276 19 281 Q19 286 24 286 L57 286 Q60 293 63.5 299 Q67 305 70 312 Q72 317 76.5 314.5 Q81 312 79 307 Q76 302 73 296.5 Q70 291 68 286 L92 286 L92 286 Z " />
<glyph glyph-name="hyphen" unicode="&#x2d;" horiz-adv-x="110" d="M79 285 Q84 285 84 280 Q84 275 79 275 L25 275 Q20 275 20 280 Q20 285 25 285 L79 285 L79 285 Z " />
<glyph glyph-name="equal" unicode="&#x3d;" horiz-adv-x="112" d="M88 297 Q93 297 93 291.5 Q93 286 88 286 L30 286 Q25 286 25 291 Q25 296 30 296 Q45 297 59.5 297 Q74 297 88 297 Z M79 276 Q84 276 84 271 Q84 266 79 266 L22 266 Q17 266 17 271 Q17 276 22 276 L79 276 Z " />
<glyph glyph-name="underscore" unicode="&#x5f;" horiz-adv-x="128" d="M97 254 Q102 254 102 249 Q102 244 97 244 L8 244 Q3 244 3 249 Q3 254 8 254 L97 254 L97 254 Z " />
<glyph glyph-name="semicolon" unicode="&#x3b;" horiz-adv-x="52" d="M36 303 Q38 299 38 299 Q38 297 36 295 Q35 295 34.5 294.5 Q34 294 33 294 L32 294 Q32 294 30 295 L29 295 Q27 297 27 299 Q27 299 29 303 Q30 303 30.5 303.5 Q31 304 32 304 L33 304 Q34 304 35 303 L36 303 Z M21 269 Q24 272 28 269 Q31 265 28 262 Q26 259 24 256.5 Q22 254 20 252 Q17 248 13 252 Q9 254 13 259 Q15 261 17 263.5 Q19 266 21 269 Z " />
<glyph glyph-name="colon" unicode="&#x3a;" horiz-adv-x="48" d="M34 301 Q35 299 35 297 Q35 294 34 293 Q33 292 30 292 Q27 289 27 293 Q25 295 25 297 Q25 297 27 301 L28 301 Q29 301 29 301.5 Q29 302 30 302 Q31 302 32 301.5 Q33 301 34 301 Z M19 268 Q22 268 23 267 Q24 266 24 263 Q25 262 23 260 Q21 258 19 258 Q19 258 15 260 Q14 261 14 263 Q14 265 14.5 265.5 Q15 266 15 267 Q17 268 19 268 Z " />
<glyph glyph-name="period" unicode="&#x2e;" horiz-adv-x="54" d="M15 254 Q17 254 19 252 Q20 251 20 249 L20 248 Q20 246 19 245 Q18 244 15 244 Q14 243 12 245 Q10 247 10 248 L10 249 Q10 250 12 252 Q14 254 15 254 Z " />
<glyph glyph-name="comma" unicode="&#x2c;" horiz-adv-x="68" d="M18 254 Q20 259 24.5 256 Q29 253 26 249 Q24 246 22 243 Q20 240 18 236 Q16 232 11.5 234.5 Q7 237 10 241 Q12 246 18 254 Z " />
<glyph glyph-name="numbersign" unicode="&#x23;" horiz-adv-x="126" d="M105 302 Q111 301 111 295 Q111 289 105 289 L82 289 Q78 281 76 276 L95 276 Q101 276 101 270 Q101 264 95 264 L70 264 Q64 249 57 235 Q55 230 49.5 233 Q44 236 47 242 Q49 247 51.5 253 Q54 259 57 264 L45 264 Q41 257 38 250 Q35 243 32 235 Q29 230 23.5 233 Q18 236 21 242 Q23 247 26 253 Q29 259 31 265 L19 265 Q13 265 13 271 Q13 277 19 277 L37 277 Q38 283 42 290 L30 290 Q24 290 24 296.5 Q24 303 30 303 Q35 302 39 302 Q43 302 48 302 Q50 308 53 313.5 Q56 319 58 325 Q60 330 65.5 327 Q71 324 69 319 Q67 314 65 310.5 Q63 307 61 302 L74 302 Q78 314 84 325 Q86 330 91.5 327 Q97 324 95 319 Q93 314 91 310 Q89 306 87 302 L105 302 Z M62 277 Q66 285 68 290 L56 290 Q54 285 50 277 L62 277 Z " />
<glyph glyph-name="bar" unicode="&#x7c;" horiz-adv-x="86" d="M145 543 Q147 548 152 545 Q157 542 155 537 L125 468 Q98 407 71.5 346.5 Q45 286 18 225 Q16 220 11 223 Q6 226 8 231 L38 300 Q65 361 91.5 421.5 Q118 482 145 543 Z " />
<glyph glyph-name="slash" unicode="&#x2f;" horiz-adv-x="142" d="M212 543 Q215 548 220 545 Q225 542 222 537 Q211 520 199.5 503 Q188 486 177 469 Q137 407 97 346.5 Q57 286 17 225 Q14 220 8.5 223 Q3 226 6 231 Q18 248 29 265 Q40 282 51 299 Q92 361 131.5 421.5 Q171 482 212 543 Z " />
<glyph glyph-name="backslash" unicode="&#x5c;" horiz-adv-x="196" d="M77 549 Q75 554 80.5 555 Q86 556 88 550 L107 477 L170 220 Q172 214 166 213.5 Q160 213 158 218 L140 291 L77 549 L77 549 Z " />
<glyph glyph-name="asciicircum" unicode="&#x5e;" horiz-adv-x="106" d="M125 538 Q127 540 130 539 Q133 538 133 534 Q133 530 132 526 Q131 522 130 518 Q128 513 127.5 509 Q127 505 125 500 Q123 495 118.5 496 Q114 497 116 502 L119 517 Q116 513 113 510 Q110 507 107 504 Q104 500 100.5 503.5 Q97 507 100 511 Q106 518 112.5 524.5 Q119 531 125 538 Z " />
<glyph glyph-name="one" unicode="1" horiz-adv-x="38" d="M29 363 Q31 368 36 364.5 Q41 361 38 356 Q26 327 13 298 Q0 269 -14 240 Q-16 235 -21 238.5 Q-26 242 -24 247 Q-14 268 -4.5 289.5 Q5 311 15 331 Q13 331 13 330.5 Q13 330 12 330 Q6 327 3 332 Q0 337 5 342 Q13 345 18.5 350.5 Q24 356 29 363 Z " />
<glyph glyph-name="two" unicode="2" horiz-adv-x="93" d="M60 364 Q69 369 78 363.5 Q87 358 86 346 Q84 335 79 323.5 Q74 312 67 303 Q53 286 37 275 Q21 264 4 253 Q15 254 25.5 253.5 Q36 253 47 252 Q52 251 52 244.5 Q52 238 47 239 Q14 244 -18 238 Q-24 237 -26 241.5 Q-28 246 -23 250 Q-1 265 22 279.5 Q45 294 61 317 Q62 318 65.5 324.5 Q69 331 71 337.5 Q73 344 72.5 349.5 Q72 355 65 354 Q56 352 47 343 Q36 334 31 322 Q29 318 23.5 321 Q18 324 21 329 Q27 341 37 350.5 Q47 360 60 364 Z " />
<glyph glyph-name="three" unicode="3" horiz-adv-x="98" d="M77 315 Q72 308 67.5 302.5 Q63 297 56 292 Q66 287 66 274 Q65 264 57 255.5 Q49 247 39 242 Q31 237 20.5 236.5 Q10 236 1 244 Q-7 249 -7.5 259 Q-8 269 -1 277 Q3 281 7.5 276.5 Q12 272 7 267 Q4 263 5.5 258 Q7 253 13 251 Q22 247 34 252 Q45 259 51 269 Q53 277 52 280 Q50 282 48 283.5 Q46 285 44 283 Q38 281 36 286.5 Q34 292 38 295 Q45 300 51.5 304.5 Q58 309 63 317 Q66 322 71.5 329.5 Q77 337 77 345 Q77 352 72 353.5 Q67 355 62 353 Q54 351 48 345.5 Q42 340 37 334 Q35 329 29.5 332 Q24 335 28 340 Q33 348 41.5 355.5 Q50 363 61 365 Q69 367 76 364.5 Q83 362 87 354 Q91 343 86.5 333 Q82 323 77 315 Z " />
<glyph glyph-name="four" unicode="4" horiz-adv-x="92" d="M78 361 Q80 366 85.5 364.5 Q91 363 89 358 Q84 345 79 333.5 Q74 322 70 310 Q74 308 73.5 302.5 Q73 297 68 297 L63 297 Q57 283 50.5 269 Q44 255 38 241 Q35 236 30 239.5 Q25 243 27 249 Q33 260 38.5 272.5 Q44 285 51 297 L6 297 Q3 299 1 302.5 Q-1 306 3 308 Q17 322 31.5 336 Q46 350 60 364 Q63 368 67.5 364 Q72 360 68 355 Q57 344 45 333 Q33 322 21 310 L56 310 Q61 322 66.5 335 Q72 348 78 361 Z " />
<glyph glyph-name="five" unicode="5" horiz-adv-x="102" d="M37 350 Q35 348 34 345 Q33 342 31 340 Q29 335 28 334 L29 334 Q34 334 39 334.5 Q44 335 49 335 Q55 335 61.5 334.5 Q68 334 73 330 Q82 323 84 311 Q85 298 79 286.5 Q73 275 63 265 Q54 254 42 245 Q30 236 15 237 Q3 239 -6 248.5 Q-15 258 -11 271 Q-9 276 -3 275 Q3 274 1 269 Q-1 263 3 258 Q7 253 13 251 Q19 249 25.5 251 Q32 253 37 257 Q47 264 56.5 274.5 Q66 285 70 298 Q74 308 70 315 Q67 321 61.5 322 Q56 323 51 323 Q47 323 43.5 322.5 Q40 322 35 322 Q29 322 26 321 L22 321 Q21 319 21 321 Q18 315 13 318 Q8 321 10 326 Q13 332 16.5 338.5 Q20 345 22 350 Q25 355 28 359 Q31 363 37 365 Q48 366 58.5 366 Q69 366 80 366 Q86 365 86 358.5 Q86 352 80 354 Q72 354 62.5 354 Q53 354 46 352 Q39 352 37 350 Z " />
<glyph glyph-name="six" unicode="6" horiz-adv-x="86" d="M58 364 Q63 368 66 362.5 Q69 357 64 354 Q51 347 41.5 337 Q32 327 24 317 Q20 310 16 304 Q33 311 47 302 Q63 292 58 276 Q56 264 45 251.5 Q34 239 22 237 Q9 236 -2 243 Q-7 249 -8 256 Q-9 263 -8 269 Q-5 298 14 324 Q33 350 58 364 Z M19 291 Q14 289 12 296 Q7 288 5.5 280.5 Q4 273 3 265 Q3 248 18 248 Q24 249 28.5 253 Q33 257 37 262 Q42 267 45.5 274 Q49 281 44 288 Q40 296 32.5 295.5 Q25 295 19 291 Z " />
<glyph glyph-name="seven" unicode="7" horiz-adv-x="72" d="M72 366 Q75 366 76.5 363 Q78 360 76 356 Q68 344 60 330.5 Q52 317 43 303 Q43 302 43.5 302 Q44 302 44 301 Q44 299 42 296.5 Q40 294 38 295 L37 295 Q28 281 18.5 267.5 Q9 254 0 240 Q-3 235 -8.5 238 Q-14 241 -10 247 Q-2 258 6.5 270.5 Q15 283 24 296 Q17 296 17 302 Q17 308 24 308 Q26 308 27.5 307.5 Q29 307 31 307 Q38 318 45 329.5 Q52 341 60 352 Q49 351 38.5 350.5 Q28 350 17 348 Q10 348 10 353.5 Q10 359 17 361 Q31 362 44.5 363 Q58 364 72 366 Z " />
<glyph glyph-name="eight" unicode="8" horiz-adv-x="98" d="M75 365 Q83 363 85.5 357.5 Q88 352 86 344 Q84 336 78 331 Q72 326 67 322 Q62 317 58 321.5 Q54 326 59 330 Q66 334 72 343 Q74 344 74.5 347 Q75 350 75 352 Q74 354 70 354 Q60 353 53 347.5 Q46 342 48 333 Q50 323 54 314 Q58 305 63 295 Q65 288 66 280 Q67 272 64 264 Q60 257 54 253 Q48 249 42 246 Q34 242 24.5 239 Q15 236 7 237 Q-10 240 -17 251 Q-22 259 -20 266.5 Q-18 274 -15 280 Q2 310 33 322 Q36 324 38 322 Q37 325 36 328.5 Q35 332 35 336 Q34 350 47.5 359.5 Q61 369 75 365 Z M50 268 Q55 275 53 284 Q51 293 46 301 Q44 304 43.5 307 Q43 310 41 315 Q41 311 37 311 Q29 306 20.5 301 Q12 296 6 288 Q1 283 -5 274.5 Q-11 266 -8 258 Q-2 250 7 249.5 Q16 249 24 251 Q32 253 39 257 Q46 261 50 268 Z " />
<glyph glyph-name="nine" unicode="9" horiz-adv-x="96" d="M50 365 Q63 369 77 364 Q91 359 89 342 Q87 323 78.5 307.5 Q70 292 57.5 279 Q45 266 29 256 Q13 246 -2 238 Q-7 234 -10 239.5 Q-13 245 -8 248 Q6 256 19.5 264.5 Q33 273 45 284 Q64 300 75 328 Q76 332 78 339.5 Q80 347 75 351 Q71 355 66 354.5 Q61 354 57 354 Q46 351 37 343.5 Q28 336 23 325 Q21 320 21 313.5 Q21 307 29 305 Q35 303 41 306.5 Q47 310 52 312 Q57 315 60 310 Q63 305 58 302 Q50 297 41.5 293.5 Q33 290 23 294 Q14 297 11 305 Q8 313 10 322 Q12 337 23.5 348 Q35 359 50 365 Z " />
<glyph glyph-name="zero" unicode="0" horiz-adv-x="100" d="M73 361 Q82 355 84.5 346 Q87 337 85 328 Q83 309 74 292 Q65 275 54 261 Q49 255 43 248.5 Q37 242 29 239 Q12 234 1 248 Q-4 255 -5 263.5 Q-6 272 -4.5 281 Q-3 290 0 299 Q3 308 6 315 Q19 344 48 365 Q52 368 54 365 Q64 368 73 361 Z M72 322 Q73 330 73.5 337 Q74 344 69 350 Q65 355 59 354.5 Q53 354 48 350 L47 350 Q28 334 19 312 Q14 305 12 299 Q10 293 8 287 Q7 279 6.5 272 Q6 265 10 258 Q14 250 19 250 Q24 250 29.5 253.5 Q35 257 40 262.5 Q45 268 48 272 Q66 296 72 322 Z " />
<glyph glyph-name="asterisk" unicode="&#x2a;" horiz-adv-x="92" d="M67 306 Q70 310 74 306 Q78 302 74 299 Q68 294 62 289 Q56 284 51 279 Q53 274 56 268.5 Q59 263 62 258 Q64 254 60 251 Q56 248 53 253 Q51 258 49 261.5 Q47 265 45 270 Q43 266 42 262 Q41 258 39 254 Q37 249 32 250.5 Q27 252 29 257 Q30 259 32 265 Q28 262 25 259.5 Q22 257 19 255 Q14 252 11.5 256.5 Q9 261 13 263 Q20 268 26 272.5 Q32 277 38 282 L29 300 Q27 305 31.5 307.5 Q36 310 38 305 Q40 303 40.5 300 Q41 297 43 295 Q45 300 47 305 Q49 310 51 315 Q53 320 57.5 319 Q62 318 60 313 L54 295 Q57 298 60.5 300.5 Q64 303 67 306 Z " />
<glyph glyph-name="dollar" unicode="&#x24;" horiz-adv-x="117" d="M100 345 Q102 347 102.5 350.5 Q103 354 104 357 Q105 358 104.5 358.5 Q104 359 105 360 Q104 360 103 359.5 Q102 359 101 359 Q93 355 90 353 Q88 349 86.5 345.5 Q85 342 83 338 Q77 324 71 311 Q65 298 59 285 Q67 283 73.5 281.5 Q80 280 85 275 Q95 265 88 254 Q81 243 74 236 Q66 227 57 219.5 Q48 212 38 206 Q28 199 21 197 Q12 174 2 153 Q0 148 -5 149 Q-11 151 -9 156 Q-5 165 -1.5 174 Q2 183 6 191 L-2 191 Q-15 195 -13.5 206.5 Q-12 218 -7 226 Q-1 237 6 247.5 Q13 258 21 269 Q25 274 29.5 269.5 Q34 265 30 260 Q25 254 21 248 Q17 242 13 236 Q9 231 5 225 Q1 219 -1 212 Q-1 210 -1.5 207.5 Q-2 205 0 204 Q2 202 5 203 Q8 204 10 205 Q11 205 12 206 Q12 207 12.5 207.5 Q13 208 13 209 L43 278 Q34 282 31 293 Q28 304 33.5 313 Q39 322 46 330 Q54 339 62.5 346.5 Q71 354 81 361 Q85 369 88.5 378 Q92 387 97 396 Q99 401 104 398 Q109 395 107 390 Q105 385 103 380.5 Q101 376 99 371 Q108 375 114 369 Q120 361 115.5 350 Q111 339 108 332 Q102 321 95.5 312 Q89 303 82 292 Q79 287 74 290.5 Q69 294 72 299 Q79 310 87 321 Q95 332 100 345 Z M70 337 Q63 331 56.5 324.5 Q50 318 46 311 Q42 304 42 298.5 Q42 293 48 289 Q53 301 59 313 Q65 325 70 337 Z M60 273 Q58 273 57 273.5 Q56 274 55 274 L28 214 Q30 215 32 217 Q53 229 68 247 Q71 250 75 256 Q77 259 78 261.5 Q79 264 77 266 Q74 269 69.5 270 Q65 271 60 273 Z " />
<glyph glyph-name="percent" unicode="&#x25;" horiz-adv-x="93" d="M113 382 Q113 381 112.5 380.5 Q112 380 112 379 Q81 334 51 291 Q21 248 -10 203 Q-6 205 -3 208 Q0 211 4 213 Q9 217 14 220.5 Q19 224 24 228 Q27 231 29 232 Q33 237 37 240.5 Q41 244 46 248 Q49 250 52.5 247.5 Q56 245 55 241 L52 235 Q59 237 61 229 Q62 224 59.5 219 Q57 214 55 211 Q52 206 48.5 203 Q45 200 41 197 Q37 194 33 191.5 Q29 189 24 188 Q19 187 15 189.5 Q11 192 10 197 Q10 201 11 203 Q0 195 -11 186.5 Q-22 178 -33 170 Q-36 167 -40 171 Q-44 175 -41 179 Q-6 229 28 278.5 Q62 328 96 378 Q94 377 88 375 L73 369 Q69 367 67 367 Q69 359 64 352 Q59 345 52 341 Q46 337 37 336.5 Q28 336 24 344 Q21 350 25 358 Q29 366 34 371 Q34 375 39 377 Q44 379 49.5 379 Q55 379 60 377 Q66 379 72 381.5 Q78 384 84 386 Q88 388 93 390 Q98 392 103 392 Q113 392 113 383 L113 382 Z M55 364 L45 364 Q39 359 36 351 Q34 349 36 349 Q36 349 40 349 Q42 349 46 351 Q49 353 52 356 Q55 359 55 363 L55 364 Z M45 217 Q46 219 46.5 219.5 Q47 220 48 222 Q48 222 49 224 Q45 225 45 229 Q43 227 41.5 226.5 Q40 226 38 224 L37 223 L34 220 Q30 214 28 210 Q26 208 24 205 Q22 202 22 200 Q21 199 22 199 Q23 200 23.5 200 Q24 200 25 201 Q25 201 29 203 Q35 207 37 209 Q39 211 41 213 Q43 215 45 217 Z " />
<glyph glyph-name="ampersand" unicode="&#x26;" horiz-adv-x="134" d="M117 318 Q116 317 116 316 Q114 312 110 313.5 Q106 315 105 319 L105 320 Q103 336 88 341.5 Q73 347 61 337 Q56 332 53 324 Q50 316 58 311 Q66 306 75 305.5 Q84 305 93 305 Q98 305 98.5 300 Q99 295 94 293 Q68 288 47 274 Q42 271 37 267 Q32 263 27 259 Q22 254 18 249.5 Q14 245 10 240 Q8 235 8.5 229.5 Q9 224 17 226 Q23 227 29.5 229.5 Q36 232 41 234 Q64 246 83 266 Q88 271 92 265 Q94 262 93 258 Q79 228 65.5 198 Q52 168 38 137 Q35 132 30 135 Q25 138 27 143 Q38 167 49 191 Q60 215 71 238 Q65 234 59.5 230.5 Q54 227 47 224 Q42 222 36 219.5 Q30 217 24 215 Q18 213 12.5 213 Q7 213 2 217 Q-8 227 -3 238 Q2 249 9 257 Q31 282 62 296 Q57 298 53 299.5 Q49 301 46 305 Q38 314 41.5 326 Q45 338 53 345 Q71 361 92 353 Q104 348 112 336 Q124 363 136 390 Q148 417 161 444 Q163 449 168 446 Q173 443 171 438 L117 318 Z " />
<glyph glyph-name="at" unicode="&#x40;" horiz-adv-x="182" d="M169 342 Q173 325 169 309 Q165 293 157 279 Q148 264 136 252 Q131 247 123 240.5 Q115 234 107 238 Q100 242 99 249 Q97 247 97 247 Q90 236 82 231 Q68 224 59 235 Q54 243 56 251 Q56 273 69 294 Q74 302 81 310 Q88 318 98 320 Q111 323 119 312 Q120 311 120 310.5 Q120 310 121 309 L121 310 Q123 315 129 312.5 Q135 310 133 305 Q133 304 132.5 304 Q132 304 132 303 L132 302 Q131 301 129 297 Q126 289 122.5 281 Q119 273 115 265 Q114 263 111.5 257.5 Q109 252 112 250 Q114 249 118.5 252.5 Q123 256 124 258 Q149 279 157 312 Q159 324 157.5 336.5 Q156 349 147 358 Q131 376 106 371 Q83 366 67.5 347.5 Q52 329 41 310 Q36 300 32 289 Q28 278 26 267 Q23 253 24 238.5 Q25 224 34 213 Q43 202 53.5 200 Q64 198 75 201 Q86 204 95.5 211.5 Q105 219 111 228 Q115 233 120 229.5 Q125 226 122 221 Q113 208 100 198.5 Q87 189 70 187 Q53 185 38.5 193.5 Q24 202 17 218 Q10 234 11 251.5 Q12 269 17 285 Q24 309 40 333 Q55 355 78.5 372.5 Q102 390 131 382 Q145 378 155.5 367.5 Q166 357 169 342 Z M87 254 Q102 270 110 287 Q106 288 104.5 292 Q103 296 108 298 Q112 300 109 304 Q106 308 103 308 Q100 308 98 307 Q95 307 93 305 Q86 300 82 293 Q78 286 74 278 Q72 271 69.5 263.5 Q67 256 68 248 Q68 247 69 245 L69 243 L70 242 Q70 242 70 241 L71 241 Q73 241 77 243 Q81 246 87 254 Z " />
<glyph glyph-name="quoteleft" unicode="&#x2018;" horiz-adv-x="98" d="M112 539 Q114 544 118.5 541.5 Q123 539 121 534 L113 515 Q111 510 106.5 512.5 Q102 515 104 520 L112 539 L112 539 Z " />
<glyph glyph-name="quoteright" unicode="&#x2019;" horiz-adv-x="102" d="M112 539 Q114 544 118.5 541.5 Q123 539 121 534 L113 515 Q111 510 106.5 512.5 Q102 515 104 520 L112 539 L112 539 Z " />
<glyph glyph-name="quotedblleft" unicode="&#x201c;" horiz-adv-x="105" d="M122 544 Q126 542 124 538 L117 521 Q115 517 110 519 Q106 522 108 526 L115 543 Q118 548 122 544 Z M129 543 Q131 547 135 544.5 Q139 542 137 538 L128 517 Q126 512 121.5 513 Q117 514 119 519 Q121 525 123.5 531 Q126 537 129 543 Z " />
<glyph glyph-name="quotedblright" unicode="&#x201d;" horiz-adv-x="105" d="M122 544 Q126 542 124 538 L117 521 Q115 517 110 519 Q106 522 108 526 L115 543 Q118 548 122 544 Z M129 543 Q131 547 135 544.5 Q139 542 137 538 L128 517 Q126 512 121.5 513 Q117 514 119 519 Q121 525 123.5 531 Q126 537 129 543 Z " />
<glyph glyph-name="A" unicode="A" horiz-adv-x="578" d="M677 590 Q660 555 644.5 521 Q629 487 613 452 Q575 370 537 287.5 Q499 205 461 122 L314 -211 Q312 -216 306 -213 Q300 -210 303 -204 Q323 -156 344 -110 Q365 -64 386 -16 Q403 22 420 61 Q437 100 454 138 Q442 118 431 101 Q399 51 361 6.5 Q323 -38 277 -75 Q252 -95 224.5 -111 Q197 -127 167 -135 Q111 -151 61 -122 Q36 -108 18 -86.5 Q0 -65 -11 -39.5 Q-22 -14 -27 14 Q-32 42 -32 69 Q-30 131 -11 189.5 Q8 248 34 302 Q81 400 149 485 Q183 529 222.5 568 Q262 607 307 639 Q352 670 400 693 Q426 704 453 713 Q480 722 508 724 Q538 727 566 719.5 Q594 712 615 690 Q634 671 643 646 Q652 621 648 595 Q647 588 640.5 588 Q634 588 635 595 Q638 618 630 643 Q621 667 602 684.5 Q583 702 558 708 Q528 716 497.5 710 Q467 704 438 694 Q389 677 345 649 Q301 621 262 587 Q183 516 121 426 Q92 384 68 340 Q44 296 24 249 Q12 220 2.5 190 Q-7 160 -13 128.5 Q-19 97 -19.5 65 Q-20 33 -12 2 Q-6 -22 6 -44.5 Q18 -67 35.5 -85 Q53 -103 75.5 -114.5 Q98 -126 124 -127 Q156 -129 185 -116 Q214 -103 240 -86 Q263 -69 284.5 -51 Q306 -33 326 -12 Q366 30 398.5 76.5 Q431 123 459 173 Q489 225 514.5 278.5 Q540 332 566 387 Q597 452 627 516 Q657 580 688 645 Q691 651 696.5 647.5 Q702 644 699 638 Q694 626 688 614 Q682 602 677 590 Z " />
<glyph glyph-name="B" unicode="B" horiz-adv-x="431" d="M478 616 Q484 592 480 568.5 Q476 545 465.5 523.5 Q455 502 439.5 482.5 Q424 463 408 447 Q350 390 283 344 Q216 298 142 264 Q158 267 173.5 269 Q189 271 206 271 Q237 272 268 267 Q299 262 327 247 Q353 233 368.5 210.5 Q384 188 386 159 Q388 128 376 99.5 Q364 71 347 47 Q330 23 310 0.5 Q290 -22 268 -43 Q247 -63 225 -81.5 Q203 -100 179 -117 Q130 -151 78 -173 Q49 -185 19 -194 Q-11 -203 -41 -204 Q-69 -205 -95.5 -195 Q-122 -185 -138 -161 Q-155 -135 -151.5 -104.5 Q-148 -74 -140 -46 Q-138 -40 -131.5 -42 Q-125 -44 -127 -50 Q-129 -57 -131 -63.5 Q-133 -70 -135 -77 Q-138 -91 -139 -106 Q-140 -121 -136 -135 Q-128 -160 -106 -175 Q-81 -191 -52 -191 Q-23 -191 4 -184 Q58 -170 106 -145 Q154 -120 198 -86 Q243 -52 279 -13 Q299 7 317.5 29 Q336 51 350 75 Q364 99 370.5 127 Q377 155 368 183 Q359 209 337.5 224 Q316 239 291 247 Q261 256 230.5 257.5 Q200 259 169.5 255 Q139 251 108.5 243.5 Q78 236 49 228 Q30 186 11.5 145 Q-7 104 -25 62 Q-27 56 -32.5 59.5 Q-38 63 -36 68 Q-20 105 -4.5 141 Q11 177 28 213 Q30 218 32.5 223 Q35 228 37 233 Q37 236 40 239 Q67 299 94.5 357 Q122 415 151 474 Q175 525 199.5 576 Q224 627 248 678 Q218 667 189 652.5 Q160 638 133 622 Q127 619 123.5 624.5 Q120 630 126 633 Q157 650 189 666.5 Q221 683 256 694 Q261 703 264.5 712 Q268 721 273 730 Q276 736 281.5 733 Q287 730 285 724 Q282 718 279 711.5 Q276 705 273 699 Q294 704 315.5 706 Q337 708 360 706 Q398 701 432.5 678.5 Q467 656 478 616 Z M249 337 Q335 391 406 464 Q421 479 434.5 498 Q448 517 457 538 Q466 559 468 581 Q470 603 461 625 Q453 644 439 657 Q425 670 407.5 678.5 Q390 687 370 690.5 Q350 694 331 694 Q314 693 298 690.5 Q282 688 265 683 L217 581 Q185 515 154 450.5 Q123 386 92 320 Q84 301 75 282.5 Q66 264 57 245 Q159 280 249 337 Z " />
<glyph glyph-name="a" unicode="a" horiz-adv-x="78" d="M77 298 Q81 303 85.5 298.5 Q90 294 85 289 Q77 281 69.5 274.5 Q62 268 53 259 Q49 255 43.5 250 Q38 245 33 242 Q30 240 25.5 237 Q21 234 16 235 Q8 236 8.5 242 Q9 248 11 255 Q0 246 -10 246 Q-24 246 -23.5 256.5 Q-23 267 -15.5 279.5 Q-8 292 2.5 302 Q13 312 21 311 Q29 310 28.5 303 Q28 296 26 291 Q23 286 18 288 Q13 290 14 295 Q11 293 6.5 288.5 Q2 284 -2 278 Q-6 272 -9 266.5 Q-12 261 -11 259 Q-10 256 -6 258.5 Q-2 261 3 265 Q8 269 12 273 Q16 277 18 279 Q28 291 37 307 Q40 312 45 309 Q50 306 48 301 Q43 293 39 285 Q35 277 30 269 Q28 264 26 259 Q24 254 22 249 Q30 255 36.5 261 Q43 267 50 273 Q57 279 63.5 285 Q70 291 77 298 Z " />
</font>
</svg>
