<?xml version="1.0" encoding="UTF-8"?>
<svg xmlns="http://www.w3.org/2000/svg" xmlns:xlink="http://www.w3.org/1999/xlink" version="1.2" >
<font id="Gillford">
<font-face  font-family="Gillford" units-per-em="1000" ascent="650" descent="-120" font-style="normal" font-weight="400" font-stretch="normal" cap-height="700" x-height="400" underline-position="-75" underline-thickness="50" />
<missing-glyph  horiz-adv-x="500" d="" />
<glyph glyph-name="uni0000" d="" />
<glyph glyph-name="uni000D" unicode="&#xd;" horiz-adv-x="250" d="" />
<glyph glyph-name="uni0020" unicode="&#x20;" horiz-adv-x="200" d="" />
<glyph glyph-name="uni0021" unicode="&#x21;" horiz-adv-x="114" d="M5 197 Q3 198 1.5 198.5 Q0 199 2 205.5 Q4 212 10 227.5 Q16 243 29 274.5 Q42 306 63 357 Q84 408 115 485 Q121 499 123.5 505 Q126 511 129 516 Q131 518 133 518 Q136 518 139 514 Q140 513 140 511 Q140 509 136.5 500 Q133 491 125.5 472 Q118 453 104 418 Q90 383 68.5 328.5 Q47 274 15 195 L12 195 Q8 195 5 197 Z M-11 144 Q-15 133 -16 129.5 Q-17 126 -18 126 Q-21 126 -23 128 Q-24 130 -24 131 Q-24 132 -22 137 Q-10 179 -3 179 Q-2 179 0 177 Q1 176 1 175 Q1 174 -0.5 171.5 Q-2 169 -4.5 163 Q-7 157 -11 144 Z " />
<glyph glyph-name="uni0022" unicode="&#x22;" horiz-adv-x="100" d="M84 503 Q82 505 82 507 Q82 509 86 521 Q94 541 97 547.5 Q100 554 103 554 Q105 554 106 553 Q110 550 108 546 Q106 543 103 536 Q100 529 95 518 Q88 502 87 502 Q85 502 84 503 Z M82 555 Q84 557 87 553 Q88 551 85 544 Q75 519 72 511.5 Q69 504 67 504 L65 506 Q63 508 63 509 Q63 511 65.5 517.5 Q68 524 71.5 532 Q75 540 78 547 Q81 554 82 555 Z " />
<glyph glyph-name="uni0023" unicode="&#x23;" horiz-adv-x="100" d="M65 281 Q66 281 67 279 Q68 277 68 275 Q68 273 62 273 Q60 273 58 268.5 Q56 264 47 245 Q39 228 37 228 Q33 228 33 233 Q33 235 37.5 246 Q42 257 46 266 Q48 272 47 272 Q45 272 36 271.5 Q27 271 26 270 Q25 270 22.5 265 Q20 260 17.5 255 Q15 250 12.5 245 Q10 240 10 240 Q9 239 6.5 241 Q4 243 4 245 Q3 248 8 257.5 Q13 267 14 268 Q9 268 7 267 Q3 265 3 272 Q4 277 10 277 Q16 277 18 279 Q19 280 20.5 282.5 Q22 285 21 285 Q20 285 19 284 Q15 284 10 283 Q8 285 7.5 287.5 Q7 290 18 292 Q26 294 26 294 Q27 294 30.5 300.5 Q34 307 38.5 314.5 Q43 322 47 328 Q51 334 52 334 Q54 334 56 331 Q58 328 57 326 Q57 324 56 324 Q55 324 52.5 320 Q50 316 47.5 311 Q45 306 43.5 301.5 Q42 297 42 297 Q46 298 50 298 Q54 299 57 299 Q60 299 62 299 Q70 313 75 322.5 Q80 332 82 332 Q84 332 86.5 327.5 Q89 323 87 323 Q86 322 81 312 Q76 302 75 302 Q74 300 79 300 Q81 300 84.5 299.5 Q88 299 87 295 Q86 293 85.5 293 Q85 293 77 292 Q70 292 70 291 Q69 290 69 290 Q69 290 67 286 Q66 284 65 281 Z M33 284 Q32 280 33 280 Q34 280 36 280.5 Q38 281 43 281 L53 281 Q54 283 55 285.5 Q56 288 57 290 Q53 290 49 290 Q46 290 42 290 Q38 290 35 289 Q34 286 33 284 Z " />
<glyph glyph-name="uni0024" unicode="&#x24;" horiz-adv-x="199" d="M206 405 Q206 408 203 409 Q199 409 191 408 Q183 407 174.5 405 Q166 403 158.5 400.5 Q151 398 148 395 Q147 395 139.5 377.5 Q132 360 123.5 339.5 Q115 319 108.5 302 Q102 285 102 285 Q102 284 112 282.5 Q122 281 133 277 Q144 273 153.5 266 Q163 259 162 247 Q162 237 147 228 Q132 219 114 212 Q96 205 81 201 Q66 197 65 195 Q64 194 60 182.5 Q56 171 50.5 157 Q45 143 39.5 129.5 Q34 116 31 111 Q30 108 27 108 Q26 108 20 112 Q24 120 28 129 Q32 138 37 152 Q40 160 42.5 167 Q45 174 47 179 Q49 185 51 190 Q50 191 39.5 187.5 Q29 184 17 179 Q3 174 -15 167 Q-16 167 -17.5 169 Q-19 171 -18 173 Q-18 175 -9.5 178.5 Q-1 182 10.5 186.5 Q22 191 34.5 196 Q47 201 56 204 Q58 210 58.5 210 Q59 210 60.5 214.5 Q62 219 67 232 Q72 245 84 276 Q73 279 56 283 Q39 287 29 294 Q15 304 16 315.5 Q17 327 28 338.5 Q39 350 56 361 Q73 372 90 381 Q107 390 120.5 396 Q134 402 138 404 Q150 431 159.5 453 Q169 475 172 474 Q177 474 177 470 Q177 470 173 460.5 Q169 451 164.5 440 Q160 429 156.5 419.5 Q153 410 153 410 Q153 409 167 413.5 Q181 418 195 419 Q208 419 211 410 Q212 405 210 399 Q208 397 208 397 Q204 397 206 405 Z M131 388 Q130 388 120 383 Q110 378 96.5 370.5 Q83 363 68.5 353 Q54 343 42.5 333.5 Q31 324 26.5 316 Q22 308 28 304 Q36 299 55 294.5 Q74 290 89 288 L131 388 Z M97 273 Q97 273 93 263 Q89 253 84 241.5 Q79 230 75 220 Q71 210 71 209 Q79 212 92.5 216.5 Q106 221 119.5 227 Q133 233 143.5 240 Q154 247 155 254 Q154 258 145 261.5 Q136 265 125.5 268 Q115 271 106.5 272.5 Q98 274 97 273 Z " />
<glyph glyph-name="uni0025" unicode="&#x25;" horiz-adv-x="178" d="M168 400 Q168 401 160 401 L153 401 Q142 400 130 398 Q118 396 107.5 394 Q97 392 90 390 Q83 388 82 388 Q92 386 92 378.5 Q92 371 89 366 Q84 358 72.5 352.5 Q61 347 52 347 Q42 351 44 363 Q45 368 48 373.5 Q51 379 50 379 L44 377 Q42 376 39 376 Q36 376 35 380 Q33 384 35 385 Q37 386 49 390 Q58 393 72.5 397 Q87 401 102.5 405 Q118 409 132.5 411.5 Q147 414 157 414 Q178 414 176 395 Q175 386 163 372.5 Q151 359 130 337 Q109 315 82 283 Q55 251 24 204 Q10 183 3 169 Q-4 155 -7 147.5 Q-10 140 -10.5 137 Q-11 134 -12 134 Q-13 134 -14 135 Q-20 138 -17 149 Q-14 160 -7.5 173 Q-1 186 6.5 198 Q14 210 17 216 Q44 258 71 290 Q98 322 119.5 344.5 Q141 367 154.5 380.5 Q168 394 168 400 Z M39 198 Q44 201 45 201 Q47 201 47.5 200.5 Q48 200 50 200 Q52 200 53 201 Q54 202 56 202 Q61 202 65 196.5 Q69 191 64 183 Q62 179 54 172 Q46 165 38 165 Q36 165 32 167 Q27 170 27 175 Q27 180 29.5 184.5 Q32 189 35 193 Q38 197 39 198 Z M49 356 Q49 354 52 354 Q58 354 69 359 Q80 364 85 373 Q90 380 81 381 Q79 381 77.5 381.5 Q76 382 74 382 Q69 382 68 380.5 Q67 379 65 379 Q61 380 55.5 371.5 Q50 363 49 356 Z M35 175 Q47 181 50.5 185 Q54 189 55 190 Q55 191 53 193 Q51 195 49 194 Q47 194 44.5 191 Q42 188 40 184 Q37 180 35 175 Z " />
<glyph glyph-name="uni0026" unicode="&#x26;" horiz-adv-x="99" d="M49 261 Q51 255 53.5 249 Q56 243 59 243 Q62 243 62.5 240 Q63 237 58 238 Q52 241 45 258 Q40 255 31.5 248 Q23 241 18 241 Q14 240 11 243 Q8 246 8 250 Q8 256 11.5 263 Q15 270 19.5 276.5 Q24 283 29 288 Q34 293 35 295 Q34 302 32.5 317 Q31 332 39 343 Q47 352 55 352 Q66 352 72 340 Q76 333 72.5 324 Q69 315 63 307.5 Q57 300 50.5 294 Q44 288 42 286 Q44 277 47 270 Q54 276 57 276 Q64 273 58 269 Q56 268 52 264 Q50 262 49 261 Z M41 301 Q44 303 50 309.5 Q56 316 60.5 323.5 Q65 331 66 337 Q67 343 59 343 Q51 342 47 336 Q43 330 41.5 322.5 Q40 315 40.5 308.5 Q41 302 41 301 Z M37 281 Q30 276 23 265.5 Q16 255 16 248 Q21 251 26 254 Q30 257 34.5 260.5 Q39 264 42 266 Q40 272 39.5 273.5 Q39 275 37 281 Z " />
<glyph glyph-name="uni0027" unicode="&#x27;" horiz-adv-x="99" d="M75 502 Q75 504 77 510.5 Q79 517 82 524 Q85 531 88 537 Q91 543 93 543 Q94 543 94 542.5 Q94 542 95 542 Q98 541 99.5 538.5 Q101 536 99 536 Q97 536 93 527 Q89 518 85 507 Q81 497 80 497 Q80 497 76 499 Q75 500 75 502 Z " />
<glyph glyph-name="uni0028" unicode="&#x28;" horiz-adv-x="101" d="M3 153 Q-1 187 4 222 Q9 257 20 289.5 Q31 322 46 351 Q61 380 77.5 401.5 Q94 423 110 436 Q126 449 139 450 Q145 450 146 448 Q147 446 145.5 444 Q144 442 141.5 439.5 Q139 437 136 436 Q104 418 78.5 378.5 Q53 339 37 292.5 Q21 246 16.5 200.5 Q12 155 21 123 Q23 120 23.5 116.5 Q24 113 21 113 Q18 113 15 115 Q10 118 7.5 128.5 Q5 139 3 153 Z " />
<glyph glyph-name="uni0029" unicode="&#x29;" horiz-adv-x="110" d="M-28 114 Q-35 117 -30 121.5 Q-25 126 -11.5 143 Q2 160 22 195.5 Q42 231 64 296 Q77 332 83.5 359.5 Q90 387 92.5 406 Q95 425 95.5 436.5 Q96 448 97 453 Q102 453 104 452.5 Q106 452 108 447 Q111 443 108 418 Q104 372 87.5 319 Q71 266 50.5 220 Q30 174 9 143.5 Q-12 113 -25 113 Q-26 113 -26.5 113.5 Q-27 114 -28 114 Z " />
<glyph glyph-name="uni002A" unicode="&#x2a;" horiz-adv-x="101" d="M58 374 L58 370 L57 367 Q60 368 62 370 L68 372 Q70 372 71.5 370 Q73 368 72 367 Q69 362 63 358.5 Q57 355 53 352 Q55 350 58 346 Q61 342 64 337 Q67 333 70 328 Q69 326 67 326 Q65 326 62 330 Q59 334 56.5 336.5 Q54 339 51 343 Q50 339 49 334 Q48 329 46 329 Q44 329 42 331 Q40 333 42 341 Q43 344 42 344 Q40 344 35.5 339 Q31 334 29 336 Q25 338 25 343 Q27 347 37 354 Q42 358 42.5 359 Q43 360 41 366 Q41 368 40.5 368.5 Q40 369 40 370 L39 371 Q38 373 39.5 374 Q41 375 43 375 Q45 375 45 374 L47 370 Q48 372 49.5 376 Q51 380 53 380 Q55 380 57 378 Q59 376 58 374 Z " />
<glyph glyph-name="uni002B" unicode="&#x2b;" horiz-adv-x="90" d="M29 256 Q31 264 32.5 271.5 Q34 279 36 285 L20 285 Q15 285 14 287 Q12 294 20 294 Q28 294 40 295 Q42 299 43.5 303.5 Q45 308 47 310 Q48 312 51 312 Q53 312 54 309.5 Q55 307 53 305 Q52 303 51 301 L48 295 L60 295 Q73 294 73.5 293 Q74 292 73 286 L46 286 Q44 277 42.5 273 Q41 269 38 256 Q36 251 33 251 Q31 251 29.5 252.5 Q28 254 29 256 Z " />
<glyph glyph-name="uni002D" unicode="&#x2d;" horiz-adv-x="100" d="M20 284 Q19 285 17.5 287 Q16 289 16 291 Q16 294 24 294 Q34 294 50.5 294 Q67 294 70 293 Q72 292 73 288 Q74 284 72 284 Q68 285 55 285 Q45 285 34.5 284.5 Q24 284 20 284 Z " />
<glyph glyph-name="uni002C" unicode="&#x2c;" horiz-adv-x="100" d="M-2 216 Q-4 220 0 224 Q8 236 5 242 Q4 246 5 246 Q10 246 12 235 Q13 227 7.5 220.5 Q2 214 1 214 Q-1 214 -2 216 Z " />
<glyph glyph-name="uni002E" unicode="&#x2e;" horiz-adv-x="100" d="M6 231 Q3 234 4.5 239 Q6 244 12 244 L15 244 Q23 242 21 235 Q19 228 13 228 Q9 228 6 231 Z " />
<glyph glyph-name="uni002F" unicode="&#x2f;" horiz-adv-x="149" d="M-14 160 Q-15 159 -17 159 Q-22 159 -25.5 162 Q-29 165 -27 168 Q-27 168 -13.5 191.5 Q0 215 21 250 Q42 285 66 326.5 Q90 368 111 404 Q132 440 147.5 465 Q163 490 165 493 Q167 495 169 493 Q172 491 173 489.5 Q174 488 170 479 Q166 470 155 450.5 Q144 431 123 395 Q102 359 68.5 301.5 Q35 244 -14 160 Z " />
<glyph glyph-name="uni0030" unicode="0" horiz-adv-x="93" d="M18 317 Q26 343 33 343 Q34 342 35 342 Q37 340 41.5 343 Q46 346 52 346 Q59 346 66 339 Q75 331 73 312.5 Q71 294 63.5 275.5 Q56 257 45 243 Q34 229 23 229 Q12 229 7 241 Q4 249 6.5 270 Q9 291 18 317 Z M20 240 Q32 248 41 264 Q50 280 55 296.5 Q60 313 60.5 324.5 Q61 336 57 335 Q51 333 44 328 Q37 323 35 322 Q31 313 27 300.5 Q23 288 21 276.5 Q19 265 18.5 255 Q18 245 20 240 Z " />
<glyph glyph-name="uni0031" unicode="1" horiz-adv-x="78" d="M10 252 Q7 256 10.5 265.5 Q14 275 18.5 285.5 Q23 296 27 305 Q31 314 30 316 Q26 316 26 322 Q26 324 29.5 329 Q33 334 37.5 338.5 Q42 343 46.5 346.5 Q51 350 52 350 Q54 350 56 346 Q58 342 57 338 Q56 334 52.5 327 Q49 320 43 308.5 Q37 297 29 278 Q19 254 20 254 Q21 254 24.5 254.5 Q28 255 32 255 Q40 255 43 253 Q48 250 50 246.5 Q52 243 50 243 Q48 243 47 244 Q43 246 38 246 Q27 246 14.5 241 Q2 236 3 233 L3 231 Q2 231 2 231 Q0 231 -2.5 234 Q-5 237 -4 240 Q-4 244 3.5 247 Q11 250 10 252 Z M33 320 Q32 319 32.5 319 Q33 319 34 320 Q35 321 35 321.5 Q35 322 33 320 Z " />
<glyph glyph-name="uni0032" unicode="2" horiz-adv-x="96" d="M44 265 Q38 260 24 250 Q10 240 2 240 Q-2 240 -5 244 Q-9 250 -5.5 256 Q-2 262 5.5 267 Q13 272 21 275 Q29 278 34 278 Q38 279 43.5 284 Q49 289 54.5 296 Q60 303 64 310 Q68 317 69 321 Q69 325 63 325 Q57 325 48.5 322 Q40 319 32 314.5 Q24 310 18 304.5 Q12 299 12 294 Q11 291 10 292 Q4 297 6 302.5 Q8 308 14 314 Q20 320 28.5 325 Q37 330 44 333 Q49 335 52.5 336 Q56 337 59 337 Q67 337 72 329 Q78 320 76 311 Q75 305 71.5 298.5 Q68 292 63 287 Q59 280 53 274 Q56 272 58 270 Q60 268 62.5 264.5 Q65 261 66 256 Q68 251 68 245 Q68 239 67 238 Q65 237 64 240 Q63 243 63 245 Q63 261 49 266 Q46 267 44 265 Z " />
<glyph glyph-name="uni0033" unicode="3" horiz-adv-x="89" d="M18 280 Q11 289 19 295 Q21 297 28.5 301.5 Q36 306 44 311.5 Q52 317 58 321.5 Q64 326 64 327 Q63 329 57 329.5 Q51 330 46 330 Q35 329 26 325 Q17 321 17 318 Q17 314 14 318 Q9 326 22.5 333 Q36 340 50 340 Q58 340 63.5 337 Q69 334 71 327 Q73 316 62 308.5 Q51 301 29 287 Q30 287 34.5 285.5 Q39 284 44 281.5 Q49 279 53.5 275 Q58 271 60 264 Q61 258 56 253 Q51 248 35 245 Q19 242 8 242 Q-1 242 -3 244 Q-6 250 -4 251.5 Q-2 253 5 253 Q12 253 22.5 254 Q33 255 46 261 Q52 263 52 265 Q52 267 47.5 269 Q43 271 36.5 273 Q30 275 24.5 277 Q19 279 18 280 Z " />
<glyph glyph-name="uni0034" unicode="4" horiz-adv-x="96" d="M30 329 Q28 329 26.5 324 Q25 319 23.5 313 Q22 307 21 302 Q20 297 20 297 Q21 296 29.5 303 Q38 310 47.5 318 Q57 326 65.5 333 Q74 340 76 340 Q79 340 81.5 337 Q84 334 84 332 Q84 329 77 313 Q70 297 61.5 278.5 Q53 260 47 244 Q41 228 43 224 Q46 219 39 223 Q28 230 38 252.5 Q48 275 68 320 Q65 317 59.5 312 Q54 307 47.5 301.5 Q41 296 35 292 Q29 288 25 287 Q24 286 21 286 Q10 286 10 296 Q10 299 11 305.5 Q12 312 13.5 318.5 Q15 325 17.5 331 Q20 337 22 338 Q25 340 29.5 334.5 Q34 329 30 329 Z " />
<glyph glyph-name="uni0036" unicode="6" horiz-adv-x="100" d="M15 241 Q12 236 9 231.5 Q6 227 5 223 Q5 219 1 223 Q-5 229 0 236.5 Q5 244 7 249 Q7 251 5.5 253.5 Q4 256 3.5 261 Q3 266 4.5 274 Q6 282 12 295 Q23 321 35 335.5 Q47 350 52 352 Q53 352 53.5 352.5 Q54 353 55 353 Q61 353 63 346 Q63 344 59 343 Q53 341 44.5 329.5 Q36 318 28.5 304 Q21 290 16.5 276.5 Q12 263 13 257 Q16 260 22 266.5 Q28 273 34.5 279 Q41 285 47.5 289.5 Q54 294 59 294 Q64 294 67 288.5 Q70 283 70 278 Q68 265 52.5 252 Q37 239 23 239 Q18 239 15 241 Z M60 283 Q55 281 48.5 275.5 Q42 270 36 265 Q30 259 24 252 Q33 255 39.5 260.5 Q46 266 51 271 Q56 276 60 283 Z " />
<glyph glyph-name="uni0035" unicode="5" horiz-adv-x="100" d="M53 279 Q45 283 38 283.5 Q31 284 23 284 Q17 284 12.5 285.5 Q8 287 7 293 Q7 296 11 302.5 Q15 309 21 316 Q27 323 32.5 329 Q38 335 40 335 Q43 336 45 334 Q47 332 48 330 Q55 332 62 334 Q69 336 77 336 Q79 336 80 334 Q81 332 80 332 Q80 332 75 331 Q70 330 64 328.5 Q58 327 52 324.5 Q46 322 43 319 Q42 316 40 318 Q39 318 38 318 Q37 318 35.5 316 Q34 314 30.5 309 Q27 304 20 295 Q25 294 36.5 293.5 Q48 293 58 283 Q67 274 63.5 267 Q60 260 51 254.5 Q42 249 31 246.5 Q20 244 14 244 Q8 244 5 249 Q2 257 6 257 Q8 257 9 254 Q10 253 12 253 Q16 253 20 254 Q39 259 48.5 268 Q58 277 53 279 Z " />
<glyph glyph-name="uni0037" unicode="7" horiz-adv-x="82" d="M36 277 Q34 274 29.5 267.5 Q25 261 21 253.5 Q17 246 14.5 239.5 Q12 233 14 230 Q15 229 15 227.5 Q15 226 14 226 Q13 226 12 227 Q4 237 8.5 248 Q13 259 19 270 Q21 274 21 274 L22 275 Q20 275 16.5 274.5 Q13 274 12 273 Q9 271 7.5 274.5 Q6 278 7 280 Q7 282 12 283 Q17 284 22 284 Q26 284 27.5 284.5 Q29 285 31.5 288.5 Q34 292 39.5 299 Q45 306 58 320 L67 329 Q68 331 70 333 Q70 334 62 334 Q52 334 37.5 332 Q23 330 23 327 Q22 323 18.5 328.5 Q15 334 20 337 Q24 339 35 341.5 Q46 344 57 344 Q68 344 74.5 340.5 Q81 337 77 328 Q76 326 70.5 319.5 Q65 313 59 305.5 Q53 298 48 292 Q43 286 42 285 Q44 285 46.5 285 Q49 285 50 283 Q52 281 51.5 279.5 Q51 278 51 277 L49 277 L36 277 Z " />
<glyph glyph-name="uni0038" unicode="8" horiz-adv-x="90" d="M56 258 Q52 250 40.5 241.5 Q29 233 18 233 Q10 233 5 238 Q0 243 0 251 Q0 258 2.5 263.5 Q5 269 8 273 Q11 279 15 283 L12 286 Q1 296 5.5 307 Q10 318 21.5 327 Q33 336 47 342 Q61 348 69 348 Q73 348 74 347 Q85 340 75 322.5 Q65 305 50 281 Q52 279 56.5 273 Q61 267 56 258 Z M49 332 Q41 328 33 322 Q25 316 19.5 309.5 Q14 303 12 298 Q10 293 15 291 Q21 289 28 287 Q35 285 42 284 Q42 284 47 292 Q52 300 58 310 Q64 320 68.5 329 Q73 338 73 339 Q73 341 65 338.5 Q57 336 49 332 Z M8 243 Q15 243 22 246.5 Q29 250 35 254.5 Q41 259 45 264 Q49 269 49 272 Q49 273 27 278 Q26 277 18.5 269 Q11 261 8 243 Z " />
<glyph glyph-name="uni0039" unicode="9" horiz-adv-x="91" d="M57 309 Q54 308 48.5 304 Q43 300 36 295.5 Q29 291 22.5 288 Q16 285 12 285 Q5 285 2 292 Q0 297 3 303 Q6 309 11.5 315.5 Q17 322 23.5 327 Q30 332 35 335 Q41 337 42 337 Q48 337 51 332.5 Q54 328 52 323 Q52 320 53 320 Q54 320 58.5 323.5 Q63 327 74 335 Q80 340 81.5 340.5 Q83 341 84 341 Q89 339 89 334 Q89 333 83.5 326 Q78 319 70.5 308 Q63 297 55.5 283 Q48 269 43 252 Q41 243 44 240 Q45 239 44.5 237 Q44 235 41 237 Q32 241 33 251.5 Q34 262 38.5 273 Q43 284 49 294.5 Q55 305 57 309 Z M44 327 Q38 324 29.5 317.5 Q21 311 16 303 Q12 297 13 297 Q15 297 34 309 Q42 314 44 315 Q46 316 46 317 Q46 318 45 320 Q44 322 46 327 Q46 328 44 327 Z " />
<glyph glyph-name="uni003A" unicode="&#x3a;" horiz-adv-x="68" d="M41 288 Q35 286 32.5 295 Q30 304 37 307 Q38 307 38.5 307.5 Q39 308 40 308 Q48 308 50 300 Q52 292 41 288 Z M20 251 Q13 259 18.5 263.5 Q24 268 25 268 Q29 268 32.5 262.5 Q36 257 34 253 Q32 248 26 248 Q23 248 20 251 Z " />
<glyph glyph-name="uni003B" unicode="&#x3b;" horiz-adv-x="70" d="M40 291 Q38 290 35 290 Q30 290 27 296 Q24 302 29 307 Q32 310 35 310 Q41 310 44 304 Q48 295 40 291 Z M28 272 Q31 268 29 263.5 Q27 259 24 255 Q21 251 17.5 248.5 Q14 246 13 246 Q8 246 8.5 249.5 Q9 253 12 255 Q24 266 23.5 271 Q23 276 25 275 L26 274 Q28 274 28 272 Z " />
<glyph glyph-name="uni003C" unicode="&#x3c;" horiz-adv-x="121" d="M90 303 Q90 300 80 295.5 Q70 291 58 286 Q46 281 36.5 277.5 Q27 274 27 273 Q27 273 34 270 Q41 267 49.5 263 Q58 259 65 253.5 Q72 248 72 242 Q72 236 69 236 Q68 236 67 238 Q64 242 58 245.5 Q52 249 44.5 252.5 Q37 256 29 259 Q21 262 16 264 Q13 266 11.5 270.5 Q10 275 12 279 Q14 282 22 286 Q30 290 40.5 294 Q51 298 62 302 Q73 306 80 309 Q87 313 89 311 Q92 309 90 303 Z " />
<glyph glyph-name="uni003D" unicode="&#x3d;" horiz-adv-x="100" d="M47 277 Q54 277 59.5 277 Q65 277 66 276 Q69 276 69 271 Q69 269 68 267 Q66 267 58.5 266.5 Q51 266 43 266 Q35 266 27.5 265.5 Q20 265 18 264 Q16 262 16 265 Q11 273 20.5 275 Q30 277 41 277 L47 277 Z M29 285 Q26 283 26 288 Q26 293 28 295 L38 295 L69 295 Q69 288 68 288 Q68 288 62 287.5 Q56 287 49 286.5 Q42 286 36 285.5 Q30 285 29 285 Z " />
<glyph glyph-name="uni003E" unicode="&#x3e;" horiz-adv-x="100" d="M80 276 Q78 275 71 271.5 Q64 268 55 263.5 Q46 259 36.5 254 Q27 249 20 244 Q18 242 17.5 241.5 Q17 241 16 239 Q16 236 14 236 Q12 236 10.5 239.5 Q9 243 10 248 Q11 254 20.5 260.5 Q30 267 41 272.5 Q52 278 60.5 281.5 Q69 285 68 286 Q53 294 47.5 299 Q42 304 43 310 Q43 317 46 317 Q47 317 49 313 Q50 309 58.5 304.5 Q67 300 71 298 Q80 294 82 292 Q84 290 84 284 Q83 278 80 276 Z " />
<glyph glyph-name="uni003F" unicode="&#x3f;" horiz-adv-x="178" d="M33 205 Q31 206 30 208 Q29 210 32 217 Q44 249 62.5 281.5 Q81 314 102 345 Q123 376 144.5 404 Q166 432 184 456 Q201 477 208.5 487 Q216 497 217 505 Q216 505 213 506.5 Q210 508 202 508 Q189 508 173 502 Q157 496 141.5 487 Q126 478 112.5 467 Q99 456 91 447 Q74 427 66.5 407.5 Q59 388 67 384 Q69 382 75 381.5 Q81 381 83 381 Q85 382 86.5 380 Q88 378 87 376 Q87 375 82 375 Q75 375 65.5 380 Q56 385 58 402 Q61 422 77 442.5 Q93 463 114.5 479.5 Q136 496 159 506 Q182 516 199 516 Q208 516 214 513 Q225 507 224 494 Q223 485 205.5 463 Q188 441 162 406 Q136 371 104.5 323 Q73 275 43 213 Q38 204 36 204 Q35 204 34.5 204.5 Q34 205 33 205 Z M8 126 Q1 126 1.5 130 Q2 134 4 141 Q9 158 16 173.5 Q23 189 25 188 Q27 188 29 186.5 Q31 185 31 184 Q29 180 27 175 Q25 170 23.5 165 Q22 160 20 155 Q14 142 8 126 Z " />
<glyph glyph-name="uni0040" unicode="&#x40;" horiz-adv-x="221" d="M70 168 Q75 166 75 164.5 Q75 163 72 161.5 Q69 160 64 159.5 Q59 159 54 159 Q43 159 34.5 165.5 Q26 172 19.5 181 Q13 190 8.5 201 Q4 212 2 221 Q-4 252 9 296 Q22 340 61 380 Q84 404 109.5 417.5 Q135 431 158 431 Q184 431 200.5 416.5 Q217 402 220 378.5 Q223 355 211 325 Q199 295 168 263 Q143 238 131 238 Q126 238 122 242 Q118 246 118 251 Q118 253 119.5 259 Q121 265 123 267 Q124 269 121.5 267.5 Q119 266 118 263 Q117 260 114 260 Q111 261 106.5 258.5 Q102 256 97 253 Q92 250 86 247 Q80 244 75 244 Q69 244 67 246 Q58 252 60 263 Q62 274 70.5 284 Q79 294 90 301.5 Q101 309 110 309 Q117 309 120 307 Q125 303 126 299.5 Q127 296 127 293 Q127 290 126 288 Q125 286 126 286 Q127 286 128 287 Q132 289 134 291 Q139 294 140.5 295 Q142 296 144 298 Q146 300 149.5 295.5 Q153 291 151 289 Q143 281 137 269.5 Q131 258 127 247 Q142 256 157 270.5 Q172 285 183.5 302.5 Q195 320 202.5 339 Q210 358 210 376 Q210 398 198 409 Q186 420 166 420 Q140 420 105.5 399.5 Q71 379 45 339 Q25 308 18 277 Q11 246 14 221.5 Q17 197 27.5 181.5 Q38 166 53 166 Q57 166 63 168 Q65 169 67 169 Q69 169 70 168 Z M71 256 Q70 253 77 257 Q84 261 110 275 Q110 275 111.5 279.5 Q113 284 114.5 288.5 Q116 293 117 297 Q118 301 117 301 Q113 301 106.5 297 Q100 293 92.5 286 Q85 279 79 271.5 Q73 264 71 256 Z " />
<glyph glyph-name="uni0041" unicode="A" horiz-adv-x="262" d="M114 269 Q104 254 88 232 Q72 210 53 186 Q34 162 13 137.5 Q-8 113 -28.5 94 Q-49 75 -68 63 Q-87 51 -102 51 Q-109 51 -115 54 Q-134 63 -131 89 Q-128 115 -103 147 Q-78 179 -30 211.5 Q18 244 89 268 L103 273 Q124 309 146 349 Q168 389 189 429 Q210 469 229 505.5 Q248 542 263.5 570.5 Q279 599 289.5 615.5 Q300 632 303 632 Q319 632 314 617 Q311 606 300.5 578.5 Q290 551 276 516 Q262 481 247 443.5 Q232 406 219 373.5 Q206 341 197.5 319 Q189 297 188 294 Q218 298 232 298.5 Q246 299 262 300 Q265 298 264.5 296 Q264 294 260 294 Q248 294 236 293 Q224 292 213.5 291 Q203 290 195.5 288.5 Q188 287 187 287 Q186 287 178 266.5 Q170 246 159 215 Q148 184 136 148 Q124 112 113.5 80 Q103 48 96 25.5 Q89 3 89 0 Q89 -2 88.5 -2.5 Q88 -3 88 -4 Q88 -4 88 -5 Q79 -5 80 5 Q81 11 85 26.5 Q89 42 95 62.5 Q101 83 108.5 107.5 Q116 132 124 156 Q143 213 166 282 Q166 283 158 281 Q150 279 140 276 Q128 273 114 269 Z M97 263 Q97 264 83 259 Q69 254 47 244.5 Q25 235 -1.5 220 Q-28 205 -52 186.5 Q-76 168 -95.5 145 Q-115 122 -122 96 Q-127 79 -123.5 68.5 Q-120 58 -107 58 Q-87 58 -46 90 Q-5 122 55 202 Q60 209 67 219 Q74 229 81 239 Q88 249 92.5 256 Q97 263 97 263 Z M180 386 Q162 352 150.5 331 Q139 310 132 298 Q125 286 122.5 282 Q120 278 121 278 Q141 284 150.5 286 Q160 288 164.5 289 Q169 290 170 291.5 Q171 293 173 298 Q182 323 194 353.5 Q206 384 218.5 415 Q231 446 243 475 Q255 504 264 526.5 Q273 549 278.5 563 Q284 577 284 577 Q274 560 259 533 Q246 510 226.5 474 Q207 438 180 386 Z " />
<glyph glyph-name="uni0043" unicode="C" horiz-adv-x="234" d="M96 66 Q115 93 135.5 126 Q156 159 174.5 192 Q193 225 208.5 254 Q224 283 234 300 Q241 299 238 293 Q230 278 214 248 Q198 218 177.5 182.5 Q157 147 134 110 Q111 73 87.5 42.5 Q64 12 42 -7.5 Q20 -27 3 -27 L-2 -27 Q-29 -22 -37.5 18.5 Q-46 59 -39.5 120 Q-33 181 -14 254.5 Q5 328 33.5 398.5 Q62 469 98 529 Q134 589 173 623 Q210 655 241 655 Q258 655 270.5 644.5 Q283 634 288.5 612.5 Q294 591 291 557.5 Q288 524 274 479 Q270 465 262 444 Q254 423 243.5 403.5 Q233 384 220.5 370.5 Q208 357 194 357 Q189 357 186 358 Q168 364 164 382.5 Q160 401 163.5 422 Q167 443 174.5 461.5 Q182 480 185 484 Q190 490 193 490 Q195 490 198 487 L195 485 Q189 481 182 462 Q175 443 171 421 Q167 399 169.5 381 Q172 363 187 361 L189 361 Q204 361 220 382 Q236 403 249.5 435 Q263 467 272.5 503.5 Q282 540 283.5 572 Q285 604 277 625 Q269 646 248 646 Q238 646 224 640 Q191 625 160 588.5 Q129 552 101.5 502.5 Q74 453 50.5 395 Q27 337 9.5 279 Q-8 221 -18 167 Q-28 113 -30 71 Q-32 29 -24.5 4 Q-17 -21 1 -21 Q16 -21 39.5 -0.5 Q63 20 96 66 Z " />
<glyph glyph-name="uni0042" unicode="B" horiz-adv-x="454" d="M18 10 Q15 1 13.5 -4 Q12 -9 9 -9 Q8 -9 0 -3 Q24 74 57 163 Q85 239 125.5 337 Q166 435 218 541 Q234 574 238 574 Q241 574 242 572 Q243 570 241.5 566 Q240 562 238 557 Q226 527 203 476 Q180 425 150.5 355.5 Q121 286 87 199 Q53 112 18 10 Z M350 496 Q382 536 395 562.5 Q408 589 407 605.5 Q406 622 394.5 629 Q383 636 365 636 Q317 636 266.5 609 Q216 582 170.5 542 Q125 502 89 455.5 Q53 409 33 371 Q16 338 9 311.5 Q2 285 7 272 Q10 263 22 263 L28 263 Q35 264 39.5 264.5 Q44 265 46 265 Q48 265 49 263 Q51 260 44.5 259.5 Q38 259 36 258 Q34 258 31.5 257.5 Q29 257 27 257 Q4 257 1 276 Q-2 295 6 322 Q14 349 30 379 Q46 409 61 431 Q98 485 139.5 524.5 Q181 564 221 590 Q261 616 297 628.5 Q333 641 360 641 Q391 641 405 624.5 Q419 608 408 575 Q402 558 389 537 Q376 516 358.5 493 Q341 470 320.5 447 Q300 424 279 402 Q231 351 173 298 Q175 297 202 305 Q229 313 269 313 Q288 313 309 310 Q344 305 367 292 Q390 279 402.5 261 Q415 243 417.5 222 Q420 201 413 180 Q402 147 372 112 Q342 77 302.5 48.5 Q263 20 219.5 2 Q176 -16 137 -16 Q132 -16 128 -16 Q124 -16 119 -15 Q98 -12 83 -0.5 Q68 11 62 29 Q56 47 60 70.5 Q64 94 81 120 Q95 140 115.5 158.5 Q136 177 160.5 191 Q185 205 211.5 213 Q238 221 263 221 Q292 221 313 211.5 Q334 202 348.5 190.5 Q363 179 369.5 169.5 Q376 160 374 160 L373 162 L368 167 Q351 188 323.5 201.5 Q296 215 265 215 Q261 215 257 215 Q253 215 248 214 Q205 208 170.5 189 Q136 170 112 145.5 Q88 121 75.5 94 Q63 67 64 44.5 Q65 22 80.5 7.5 Q96 -7 128 -7 Q134 -7 140.5 -7 Q147 -7 154 -5 Q196 3 239.5 26 Q283 49 319.5 80 Q356 111 380.5 146 Q405 181 408 212 Q411 243 388 267 Q365 291 306 300 Q301 301 293 301 Q285 301 274 301 Q266 301 258.5 301 Q251 301 243 300 Q218 298 199 293 Q180 288 168 283 Q156 278 149.5 274.5 Q143 271 141 271 Q139 271 136 274.5 Q133 278 133 280 Q133 281 153.5 298 Q174 315 205.5 344 Q237 373 275.5 412 Q314 451 350 496 Z " />
<glyph glyph-name="uni0044" unicode="D" horiz-adv-x="571" d="M19 83 Q31 123 69 163.5 Q107 204 161 233 Q163 234 174.5 261 Q186 288 202.5 327.5 Q219 367 238 413 Q257 459 274.5 499.5 Q292 540 305 568 Q318 596 323 599 Q325 600 325 600 Q328 600 330 597.5 Q332 595 330 592 Q328 589 321 572.5 Q314 556 303.5 531 Q293 506 280 475.5 Q267 445 254 413 Q223 338 186 245 Q188 244 210.5 253 Q233 262 266 262 Q272 262 278 261.5 Q284 261 291 260 Q318 256 338.5 244 Q359 232 372 219 Q385 206 391 196.5 Q397 187 395 187 Q393 187 387 196 Q365 226 335 240 Q305 254 271 254 Q247 254 223 248 Q206 243 193.5 237.5 Q181 232 180 232 Q155 175 141 144.5 Q127 114 119.5 100.5 Q112 87 110 86 Q108 85 108 86 Q108 90 116 111 Q124 132 133 156 Q144 185 158 220 Q157 221 145 213.5 Q133 206 116 192 Q99 178 80.5 159 Q62 140 47 118 Q32 96 25 71.5 Q18 47 24 23 Q29 7 39 -3 Q49 -13 62.5 -19 Q76 -25 91.5 -27 Q107 -29 122 -29 Q162 -29 203 -14 Q244 1 284.5 27 Q325 53 364 88 Q403 123 437 163 Q471 203 499 246 Q527 289 547 331 Q567 373 579.5 418 Q592 463 586 510 Q575 582 534 616 Q493 650 433 650 Q366 650 286 609 Q206 568 131 490 Q90 448 61.5 402.5 Q33 357 17 317 Q1 277 -1 246.5 Q-3 216 9 203 Q15 197 23 195.5 Q31 194 38 194 Q45 194 49.5 193.5 Q54 193 54 189 Q54 188 46 188 Q40 188 32 189 Q24 190 19 193 Q-7 206 -8 241 Q-9 276 10 323 Q29 370 65.5 422.5 Q102 475 151 522 Q200 569 259 604.5 Q318 640 382 653 Q395 655 406.5 656.5 Q418 658 429 658 Q474 658 507.5 639.5 Q541 621 561.5 591 Q582 561 590.5 523 Q599 485 594 445 Q589 399 567 345 Q545 291 510.5 237 Q476 183 431.5 132.5 Q387 82 336.5 43.5 Q286 5 232.5 -18.5 Q179 -42 127 -42 Q98 -42 74 -33.5 Q50 -25 34.5 -9 Q19 7 14.5 30.5 Q10 54 19 83 Z " />
<glyph glyph-name="uni0045" unicode="E" horiz-adv-x="344" d="M286 356 Q306 363 314 365.5 Q322 368 324 368 Q326 368 327 365 Q327 364 326.5 363 Q326 362 323 360.5 Q320 359 313 357 Q306 355 294 351 Q260 340 219 324 Q178 308 141.5 293.5 Q105 279 80.5 268.5 Q56 258 55 256 Q55 255 48 238.5 Q41 222 31 197 Q21 172 9 141.5 Q-3 111 -14.5 82 Q-26 53 -35 29.5 Q-44 6 -47 -6 Q-42 -5 -22.5 3.5 Q-3 12 29.5 24 Q62 36 105.5 50.5 Q149 65 201 78 Q218 83 236 87 Q254 91 257 91 Q259 91 260 88.5 Q261 86 259 85 Q253 83 228 77.5 Q203 72 144 53 Q67 29 16.5 9.5 Q-34 -10 -64 -24.5 Q-94 -39 -108 -46.5 Q-122 -54 -126 -54 Q-129 -54 -129 -50 Q-129 -49 -120 -43.5 Q-111 -38 -99.5 -32 Q-88 -26 -77 -20.5 Q-66 -15 -63 -13 Q-62 -9 -57.5 4 Q-53 17 -46 36.5 Q-39 56 -30 79 Q-21 102 -12 125 Q9 180 35 247 Q35 247 22.5 241 Q10 235 -7.5 226 Q-25 217 -44.5 206.5 Q-64 196 -79 186 Q-90 179 -91 178.5 Q-92 178 -93 179 Q-96 182 -87.5 189 Q-79 196 -64.5 204.5 Q-50 213 -32 222.5 Q-14 232 1.5 240 Q17 248 28 253 Q39 258 39 259 Q39 259 45 272.5 Q51 286 60.5 308.5 Q70 331 81.5 359 Q93 387 105 417 Q134 486 171 574 Q171 574 162.5 571 Q154 568 143 563.5 Q132 559 119 554 Q106 549 97 545 Q67 532 48.5 522.5 Q30 513 19.5 507 Q9 501 5 498.5 Q1 496 -1 496 Q-2 496 -2 500 Q-3 504 9.5 512 Q22 520 41.5 529 Q61 538 84 548 Q107 558 127 566 Q147 574 161 579.5 Q175 585 175 585 Q176 586 178 590 Q180 594 182 599 Q183 601 185 605.5 Q187 610 189.5 614 Q192 618 194.5 621 Q197 624 199 623 Q206 619 203 613 Q201 611 198 604 Q195 597 193 593 Q193 593 212.5 599.5 Q232 606 261.5 616.5 Q291 627 327 639.5 Q363 652 395 663 Q427 674 451 681 Q475 688 482 688 Q484 687 484 687 Q487 682 484 681 Q474 678 452 671.5 Q430 665 394 653 Q358 641 307.5 623.5 Q257 606 189 581 Q170 534 156.5 502 Q143 470 133.5 446.5 Q124 423 116.5 405 Q109 387 101 368 Q93 349 83.5 326 Q74 303 60 269 Q60 268 77.5 275.5 Q95 283 126 295.5 Q157 308 198 324 Q239 340 286 356 Z " />
<glyph glyph-name="uni0046" unicode="F" horiz-adv-x="493" d="M617 667 Q620 668 623 668 Q631 668 626 659 Q625 659 606.5 654.5 Q588 650 558.5 642.5 Q529 635 492.5 626.5 Q456 618 419 608.5 Q382 599 348.5 590 Q315 581 292 573 Q291 573 287 563.5 Q283 554 277 539 Q271 524 263.5 505.5 Q256 487 248 467 Q229 421 206 362 Q306 399 385 420 Q464 441 503 451 L504 449 Q508 445 500 442.5 Q492 440 460.5 432 Q429 424 367.5 405.5 Q306 387 201 350 Q198 343 189.5 322.5 Q181 302 170.5 274.5 Q160 247 148 217 Q136 187 126 160.5 Q116 134 108.5 114.5 Q101 95 100 90 Q95 71 81.5 41 Q68 11 51 -35 Q48 -44 46.5 -47 Q45 -50 43 -50 Q41 -50 39 -49 Q38 -48 36 -47.5 Q34 -47 37 -34.5 Q40 -22 50.5 8 Q61 38 84 96 L96 129 Q95 131 95 139.5 Q95 148 90 158 Q85 168 73.5 177 Q62 186 38 189 L29 189 Q15 189 -2.5 187.5 Q-20 186 -36 186 Q-50 186 -59 188.5 Q-68 191 -67.5 198 Q-67 205 -53.5 218.5 Q-40 232 -8 253 Q26 276 58.5 294 Q91 312 117 324 Q143 336 161 343.5 Q179 351 183 353 Q184 351 188.5 362 Q193 373 203 399 Q213 425 230 466.5 Q247 508 272 567 Q271 567 254 562 Q237 557 211 549 Q185 541 154 530.5 Q123 520 94 509 Q65 498 41.5 488 Q18 478 7 470 Q6 469 4 469 Q1 469 0 472.5 Q-1 476 2 479 Q10 487 30.5 497 Q51 507 78.5 517.5 Q106 528 137 538.5 Q168 549 196 558 Q224 567 246.5 573.5 Q269 580 279 583 Q282 589 290.5 606.5 Q299 624 308 635 Q316 633 316.5 630.5 Q317 628 313 622 Q311 617 304.5 603.5 Q298 590 296 587 L294 587 L296 587 Q305 590 341.5 600 Q378 610 426 622 Q474 634 526 646.5 Q578 659 617 667 Z M180 342 Q179 342 153.5 331 Q128 320 92.5 302 Q57 284 18.5 260.5 Q-20 237 -47 213 Q-53 208 -57.5 202.5 Q-62 197 -62 195 Q-62 192 -46 192 Q-33 192 -14.5 193 Q4 194 21 194 Q28 194 33 194 Q38 194 43 193 Q64 190 75 180.5 Q86 171 91.5 162 Q97 153 98 146.5 Q99 140 100 141 L180 342 Z " />
<glyph glyph-name="uni0047" unicode="G" horiz-adv-x="291" d="M70 -47 Q65 -43 62.5 -28.5 Q60 -14 61 3 Q63 27 66 43 Q69 59 69 60 Q68 60 63.5 56.5 Q59 53 52.5 48.5 Q46 44 37.5 40.5 Q29 37 20 37 Q18 37 17 37.5 Q16 38 14 38 Q-17 44 -22 86 Q-27 128 -14 190 Q-1 252 27 325 Q55 398 91.5 465.5 Q128 533 168.5 587 Q209 641 247 665 Q269 679 289 679 Q304 679 313.5 671.5 Q323 664 327 653 Q332 638 327 613 Q322 588 310 558.5 Q298 529 281.5 499 Q265 469 247 444.5 Q229 420 210 404.5 Q191 389 176 389 Q161 389 151 404 Q146 412 147 423 Q148 434 151.5 445.5 Q155 457 159.5 467 Q164 477 167 484 Q168 486 170 484 Q172 482 171 480 Q168 471 164 460.5 Q160 450 157 439.5 Q154 429 153.5 419 Q153 409 158 401 Q162 393 172 393 Q184 393 201 406 Q218 419 236.5 442.5 Q255 466 273 499 Q291 532 306 572 Q317 600 320 619 Q323 638 321 650 Q319 662 312.5 667 Q306 672 297 672 Q281 672 260 659 Q226 638 190.5 592.5 Q155 547 122.5 489.5 Q90 432 62.5 367.5 Q35 303 17 244 Q-1 185 -7.5 136.5 Q-14 88 -4 62 Q0 54 3 50.5 Q6 47 14 47 Q23 48 33.5 54.5 Q44 61 53.5 68 Q63 75 69 81 Q75 87 75 87 Q75 87 79 103 Q83 119 91 144 Q99 169 111.5 199 Q124 229 141 258 Q154 281 171 303 Q188 325 205.5 342.5 Q223 360 239.5 371 Q256 382 269 382 Q280 382 286 374 Q294 364 285.5 341.5 Q277 319 251 279 Q220 231 189.5 192.5 Q159 154 135 127 Q111 100 96 85.5 Q81 71 80 69 Q78 60 75 44.5 Q72 29 70.5 12 Q69 -5 70 -21 Q71 -37 76 -47 Q78 -49 74 -49 Q72 -49 70 -47 Z M171 286 Q148 254 132.5 220.5 Q117 187 107 160 Q95 128 88 99 Q88 98 110.5 123 Q133 148 163 185.5 Q193 223 223 265 Q253 307 269 340 Q275 352 277.5 362 Q280 372 278 374 Q264 374 248.5 364 Q233 354 218 340 Q203 326 191 311 Q179 296 171 286 Z " />
<glyph glyph-name="uni0048" unicode="H" horiz-adv-x="245" d="M361 320 Q362 320 364 317.5 Q366 315 361 315 L358 315 Q338 320 319.5 321.5 Q301 323 284 323 Q261 323 241.5 321 Q222 319 205 317 Q160 209 140.5 150 Q121 91 119 90 Q117 89 114.5 90.5 Q112 92 110 94 Q109 95 109 96 Q109 97 110 100 Q111 103 113.5 110 Q116 117 120 129 Q131 166 143 199 Q155 232 164.5 257.5 Q174 283 180 298 Q186 313 186 314 Q179 313 172 311 Q166 310 158 308.5 Q150 307 142 305 Q140 305 127.5 283.5 Q115 262 96.5 230 Q78 198 57 160.5 Q36 123 17.5 90 Q-1 57 -13.5 33.5 Q-26 10 -28 6 Q-31 -6 -36 -6 Q-39 -6 -43 -3 Q-43 -2 -39 10.5 Q-35 23 -27.5 43.5 Q-20 64 -10 89.5 Q0 115 10 141 Q34 203 64 281 Q64 281 58.5 279 Q53 277 44.5 273.5 Q36 270 26.5 265.5 Q17 261 8 256 Q-49 229 -75 208 Q-101 187 -101 186 Q-98 181 -101 181 Q-103 181 -105.5 183.5 Q-108 186 -107 190 Q-106 194 -91.5 205.5 Q-77 217 -52.5 232 Q-28 247 4 263 Q36 279 70 292 Q105 375 136 445 Q149 475 162.5 505.5 Q176 536 188 562 Q200 588 209.5 608.5 Q219 629 225 639 Q233 641 229 627 Q225 613 210 580 Q195 547 170.5 493.5 Q146 440 114 362 Q100 325 94.5 312.5 Q89 300 90 299 Q102 302 112 305 L134 311 Q135 312 147 332 Q159 352 180.5 385 Q202 418 231 461.5 Q260 505 294 551 Q305 566 314.5 583.5 Q324 601 331.5 615 Q339 629 344.5 637.5 Q350 646 354 644 Q359 642 346.5 614 Q334 586 311.5 541.5 Q289 497 261 441 Q233 385 209 326 Q224 328 242.5 329.5 Q261 331 281 331 Q301 331 322 328.5 Q343 326 361 320 Z M147 315 Q147 315 153.5 316 Q160 317 167.5 318.5 Q175 320 182 321.5 Q189 323 190 323 Q192 328 201.5 350 Q211 372 224.5 401.5 Q238 431 254 462.5 Q270 494 283 519 Q277 512 265 494.5 Q253 477 237.5 454.5 Q222 432 206 408 Q190 384 177 363.5 Q164 343 155.5 329.5 Q147 316 147 315 Z M127 301 Q127 301 121.5 299.5 Q116 298 108.5 296 Q101 294 94.5 292 Q88 290 86 289 Q85 289 78.5 273 Q72 257 63 234 Q54 211 43.5 184.5 Q33 158 24 135 Q15 112 9 96.5 Q3 81 3 81 Q3 78 16 102 Q29 126 48 161.5 Q67 197 88.5 235.5 Q110 274 127 301 Z M190 323 L189 322 Q190 322 190 323 Z " />
<glyph glyph-name="uni0049" unicode="I" horiz-adv-x="125" d="M-80 -5 Q-72 0 -64.5 4 Q-57 8 -52 10 Q-46 13 -41 15 Q-41 33 -30.5 70 Q-20 107 -2.5 155.5 Q15 204 37.5 260 Q60 316 83 371 Q138 501 209 654 Q172 645 140 633.5 Q108 622 85 610.5 Q62 599 49 590 Q36 581 37 576 Q38 574 37 573 Q36 572 34 574 Q24 582 35 593.5 Q46 605 70.5 618 Q95 631 129.5 643 Q164 655 200 664 Q258 679 298 683.5 Q338 688 361 688 Q374 688 381 687.5 Q388 687 390 687 Q394 687 394.5 682 Q395 677 393 677 Q356 677 324.5 674 Q293 671 270.5 667 Q248 663 235.5 660 Q223 657 223 657 Q166 529 117 412 Q96 363 75 311 Q54 259 35 210.5 Q16 162 1 120.5 Q-14 79 -22 49 Q-25 38 -27 29.5 Q-29 21 -28 21 Q-27 20 -18.5 23 Q-10 26 3.5 30 Q17 34 35 37 Q53 40 72 40 Q83 40 95 39 Q107 38 118 34 Q135 29 129 23 Q118 28 106 29.5 Q94 31 81 31 Q48 31 12.5 21 Q-23 11 -51.5 -3 Q-80 -17 -97 -31 Q-114 -45 -109 -53 Q-108 -56 -109 -56 Q-111 -56 -114.5 -52 Q-118 -48 -118 -43 Q-120 -28 -80 -5 Z " />
<glyph glyph-name="uni004A" unicode="J" horiz-adv-x="223" d="M25 355 Q44 400 78.5 453.5 Q113 507 152 553.5 Q191 600 228 631 Q265 662 289 662 Q308 662 314 640 Q319 622 310 586 Q301 550 286 510.5 Q271 471 254.5 434.5 Q238 398 229 378 Q188 285 159 219.5 Q130 154 109.5 109.5 Q89 65 76.5 38.5 Q64 12 56.5 -1.5 Q49 -15 45 -19 Q41 -23 38 -23 Q37 -23 36 -22.5 Q35 -22 34 -22 Q28 -19 26 -11 Q25 -3 28.5 13 Q32 29 37 45 Q42 61 47 73 Q52 85 54 85 Q55 85 57.5 83.5 Q60 82 61 80 Q63 78 58.5 70.5 Q54 63 47 37 Q45 28 42 16.5 Q39 5 40 3 Q40 2 47 15.5 Q54 29 64.5 51.5 Q75 74 88 102.5 Q101 131 114.5 160.5 Q128 190 140 217 Q152 244 161 263 Q176 296 195.5 337.5 Q215 379 234.5 422.5 Q254 466 271.5 508 Q289 550 298.5 582.5 Q308 615 307.5 635 Q307 655 292 655 Q274 655 248 635.5 Q222 616 196.5 590 Q171 564 150 538 Q129 512 119 498 Q80 444 57 400 Q34 356 22.5 323.5 Q11 291 10 271.5 Q9 252 14 248 Q16 246 14 246 Q12 246 8.5 250 Q5 254 4 266 Q3 278 7 299.5 Q11 321 25 355 Z " />
<glyph glyph-name="uni004B" unicode="K" horiz-adv-x="301" d="M-59 -5 Q-62 -17 -64 -23.5 Q-66 -30 -67 -33 Q-68 -36 -68.5 -36 Q-69 -36 -70 -36 Q-82 -36 -78 -23 Q-78 -22 -75 -10.5 Q-72 1 -68 17 Q-64 33 -59 51 Q-54 69 -49 84 Q-49 84 -55 82 Q-64 79 -67 79 Q-71 79 -74 83 Q-76 86 -76 89.5 Q-76 93 -71.5 99.5 Q-67 106 -58 116 Q-49 126 -34 142 L-25 152 L-18 171 Q1 223 23 278.5 Q45 334 67.5 387 Q90 440 112 487 Q134 534 151.5 569.5 Q169 605 181 626 Q193 647 196 647 Q198 647 201 646 Q204 645 202 640 Q162 559 125 478 Q109 444 92.5 405.5 Q76 367 59.5 328.5 Q43 290 28.5 252.5 Q14 215 2 181 Q16 196 42 222.5 Q68 249 100.5 283 Q133 317 169.5 354.5 Q206 392 242.5 429.5 Q279 467 312.5 501 Q346 535 372 561 Q398 587 414 602.5 Q430 618 431 618 Q432 618 432 613 Q432 610 413.5 589.5 Q395 569 364 537 Q333 505 293.5 464.5 Q254 424 213 382 Q172 340 132.5 299.5 Q93 259 61.5 226.5 Q30 194 10.5 173 Q-9 152 -10 149 Q-11 147 -13.5 140 Q-16 133 -18.5 125.5 Q-21 118 -23 111.5 Q-25 105 -25 105 Q-25 105 -11 110.5 Q3 116 26 123.5 Q49 131 80 138.5 Q111 146 146 149 Q154 150 160.5 150 Q167 150 173 150 Q202 150 220.5 145 Q239 140 250 133.5 Q261 127 265.5 121.5 Q270 116 269 115 Q268 114 266.5 115 Q265 116 259 121 Q245 132 225 137 Q205 142 182 142 Q149 142 112 134.5 Q75 127 44.5 118 Q14 109 -7 101 Q-28 93 -29 91 Q-30 90 -33.5 79.5 Q-37 69 -41.5 54 Q-46 39 -51 23 Q-56 7 -59 -5 Z M-65 90 Q-59 92 -52 94.5 Q-45 97 -44 98 Q-44 99 -43 102.5 Q-42 106 -40 111 Q-38 117 -35 124 Q-36 125 -41 119.5 Q-46 114 -51 107 Q-57 100 -65 90 Z " />
<glyph glyph-name="uni004C" unicode="L" horiz-adv-x="199" d="M-135 -48 Q-127 -31 -113 -15.5 Q-99 0 -85 12 Q-69 26 -52 38 Q-44 50 -25.5 80.5 Q-7 111 18.5 152 Q44 193 73.5 243 Q103 293 132.5 344.5 Q162 396 189 446 Q216 496 235.5 538.5 Q255 581 265.5 612.5 Q276 644 272 658 Q270 663 265 663 Q250 663 227 644.5 Q204 626 179 596.5 Q154 567 128.5 530.5 Q103 494 82.5 458.5 Q62 423 49 392.5 Q36 362 35 344 Q35 337 36 335 Q37 333 38 331 Q41 326 38 326 Q33 326 29 337 Q25 353 36 383.5 Q47 414 68 451.5 Q89 489 116 528 Q143 567 170 599 Q197 631 221.5 651.5 Q246 672 261 672 Q265 672 267 671 Q280 665 281 649.5 Q282 634 279 620 Q273 592 253 546 Q233 500 205 445.5 Q177 391 144.5 332.5 Q112 274 81 221.5 Q50 169 24 127 Q-2 85 -16 63 Q-20 56 -20 56 Q-19 57 -18 57 Q-17 59 -12 60 Q28 79 62.5 85 Q97 91 119 91 Q144 91 146 87 Q148 84 137 84 Q111 84 90 81 Q69 78 49 72 Q29 66 9.5 57.5 Q-10 49 -33 38 L-39 29 Q-59 -1 -73 -21 Q-87 -41 -97 -52.5 Q-107 -64 -114 -68.5 Q-121 -73 -125 -73 Q-129 -73 -132 -70 Q-142 -64 -135 -48 Z M-72 8 Q-75 5 -83 -3 Q-91 -11 -99.5 -20.5 Q-108 -30 -114.5 -39 Q-121 -48 -121 -52 Q-121 -53 -113.5 -44.5 Q-106 -36 -99 -28 Q-91 -17 -85 -8.5 Q-79 0 -72 8 Z " />
<glyph glyph-name="uni004D" unicode="M" horiz-adv-x="436" d="M385 255 Q380 255 365 238 Q339 213 308.5 172 Q278 131 250 92 Q222 53 200 23 Q178 -7 169 -11 Q165 -13 163 -13 Q153 -13 149 -4 Q147 3 148.5 22.5 Q150 42 158 77 Q170 140 187.5 203.5 Q205 267 223.5 326.5 Q242 386 260 439 Q278 492 293 534 Q295 539 303.5 563 Q312 587 321 615.5 Q330 644 336 668.5 Q342 693 338 697 Q336 699 325 689 Q314 679 294 652 Q274 625 245.5 579 Q217 533 179 463 Q119 352 77 255.5 Q35 159 5.5 87.5 Q-24 16 -43 -25 Q-62 -66 -76 -66 Q-81 -66 -84 -62.5 Q-87 -59 -88 -55 Q-91 -44 -86.5 -16 Q-82 12 -72.5 48.5 Q-63 85 -51 124.5 Q-39 164 -25.5 198 Q-12 232 0.5 256 Q13 280 22 285 Q23 285 23.5 285.5 Q24 286 25 286 Q28 286 32 284 Q36 282 38 277 Q40 274 42.5 264.5 Q45 255 44 254 Q43 253 39.5 254.5 Q36 256 34 260 Q34 262 32.5 267 Q31 272 30 275 Q26 271 20 261 Q15 252 7.5 236.5 Q0 221 -10 195 Q-30 143 -42.5 98.5 Q-55 54 -62 22 Q-70 -17 -74 -48 Q-51 -5 -34.5 33.5 Q-18 72 0 115.5 Q18 159 40.5 211.5 Q63 264 97 334 Q131 405 167 470 Q203 535 234.5 586 Q266 637 291 669 Q316 701 329 705 Q331 705 331.5 705.5 Q332 706 334 706 Q338 706 342 702 Q350 694 343.5 664 Q337 634 322.5 587.5 Q308 541 287 480.5 Q266 420 244 350.5 Q222 281 201.5 205 Q181 129 167 52 Q162 23 161.5 13.5 Q161 4 161 -5 Q203 44 241 100 Q279 156 329 216 Q339 227 351 239.5 Q363 252 368 257 Q376 263 381 263 Q385 263 391 259 Q402 251 395.5 213 Q389 175 372 100 Q365 69 361.5 51.5 Q358 34 356.5 25.5 Q355 17 354.5 14.5 Q354 12 354 12 Q354 9 348 9 Q344 9 344 13 Q349 42 357.5 83.5 Q366 125 373.5 163 Q381 201 385.5 228 Q390 255 385 255 Z " />
<glyph glyph-name="uni004E" unicode="N" horiz-adv-x="312" d="M-69 41 Q-67 40 -48 71 Q-29 102 0.5 151 Q30 200 67.5 259 Q105 318 143 373 Q148 381 163.5 402.5 Q179 424 200 451.5 Q221 479 245 510 Q269 541 291 566.5 Q313 592 331 609 Q349 626 359 627 Q376 628 376.5 609.5 Q377 591 366.5 554 Q356 517 337.5 462 Q319 407 298 336 Q281 280 268 230 Q255 180 247 139.5 Q239 99 235.5 69.5 Q232 40 235 25 Q237 17 239 12.5 Q241 8 245 4 Q251 -1 248 -1 Q244 -1 243 0 Q226 7 223.5 37.5 Q221 68 228 113 Q235 158 249.5 213 Q264 268 280.5 324 Q297 380 314.5 433 Q332 486 344.5 527 Q357 568 363.5 592.5 Q370 617 365 617 Q357 617 340 600.5 Q323 584 300.5 557 Q278 530 252 495.5 Q226 461 199.5 425 Q173 389 149 354 Q125 319 107 291 Q70 234 41 185 Q12 136 -10 100.5 Q-32 65 -46.5 45 Q-61 25 -69 24 Q-76 24 -81 29 Q-86 34 -83.5 49.5 Q-81 65 -74.5 87 Q-68 109 -58.5 135 Q-49 161 -39.5 185 Q-30 209 -20.5 229.5 Q-11 250 -6 261 Q-5 264 0 273.5 Q5 283 11.5 293 Q18 303 24.5 310.5 Q31 318 35 318 Q43 318 46 306 Q46 301 43 302 Q39 304 39 306 Q39 308 38 308 Q35 308 24.5 290 Q14 272 0.5 243 Q-13 214 -28 176.5 Q-43 139 -55 98 Q-57 90 -59.5 80.5 Q-62 71 -64.5 62 Q-67 53 -68 47 Q-69 41 -69 41 Z " />
<glyph glyph-name="uni0050" unicode="P" horiz-adv-x="397" d="M264 630 Q202 595 156.5 550.5 Q111 506 80 462.5 Q49 419 32.5 381 Q16 343 13 320 Q9 293 15 282.5 Q21 272 30.5 269 Q40 266 50 266.5 Q60 267 63 262 Q66 259 60 259 L53 259 Q14 260 5.5 289.5 Q-3 319 12 363.5 Q27 408 63 460.5 Q99 513 150 560 Q201 607 262.5 642.5 Q324 678 391 689 Q399 691 405.5 691 Q412 691 419 691 Q462 691 486 666.5 Q510 642 500 594 Q495 569 482 540 Q469 511 451.5 480.5 Q434 450 412 419.5 Q390 389 367 362 Q344 335 320.5 312 Q297 289 277 273 Q264 262 243.5 249 Q223 236 202 236 Q191 236 183 240 Q170 246 166.5 253.5 Q163 261 161 261 Q159 261 157 255 Q155 249 149 234 Q137 204 122 166.5 Q107 129 93.5 90.5 Q80 52 69 15.5 Q58 -21 53 -49 Q53 -52 50 -52 Q45 -52 43 -47 Q42 -44 43 -36.5 Q44 -29 46 -19 Q51 5 60.5 36.5 Q70 68 82.5 102 Q95 136 108 169 Q121 202 132 229 Q143 256 150 273.5 Q157 291 157 294 Q159 307 165.5 315 Q172 323 177 337 Q179 341 186.5 357.5 Q194 374 204 395.5 Q214 417 226 441 Q238 465 249 485.5 Q260 506 268.5 518.5 Q277 531 282 530 Q292 528 284 520 Q280 516 270 497 Q260 478 246.5 451.5 Q233 425 218.5 394.5 Q204 364 192.5 337.5 Q181 311 173 292.5 Q165 274 165 270 Q165 260 176 252 Q187 244 196 244 Q208 244 223.5 251.5 Q239 259 254 269.5 Q269 280 283 292.5 Q297 305 306 314 Q328 335 355.5 368 Q383 401 409.5 439 Q436 477 457.5 516 Q479 555 488.5 588.5 Q498 622 492 646.5 Q486 671 457 679 Q445 683 425 683 Q392 683 350.5 669.5 Q309 656 264 630 Z " />
<glyph glyph-name="uni004F" unicode="O" horiz-adv-x="337" d="M18 94 Q17 95 12 100.5 Q7 106 1.5 118 Q-4 130 -8 149.5 Q-12 169 -11 199 Q-9 253 7 308.5 Q23 364 48.5 415.5 Q74 467 106.5 511.5 Q139 556 173.5 589.5 Q208 623 242 642 Q276 661 305 661 Q331 661 351 644 Q375 623 380.5 585 Q386 547 378.5 499.5 Q371 452 353 398.5 Q335 345 311.5 292 Q288 239 262.5 191 Q237 143 214 106 Q204 90 189 68 Q174 46 156.5 26 Q139 6 120 -8 Q101 -22 83 -22 Q81 -22 79.5 -21.5 Q78 -21 76 -21 Q55 -17 44 -1.5 Q33 14 27.5 33 Q22 52 20.5 69.5 Q19 87 18 94 Z M118 355 Q126 351 119 351 Q117 351 115 352 Q113 353 109 353 Q96 353 82 329.5 Q68 306 56.5 268.5 Q45 231 38.5 184 Q32 137 33 89 Q38 88 47 88 Q73 88 99 103 Q125 118 149.5 141 Q174 164 196 190 Q218 216 235 238.5 Q252 261 262.5 275 Q273 289 275 288 Q280 286 278 283 Q276 280 271 272 Q256 251 232 218.5 Q208 186 179 155.5 Q150 125 117.5 103 Q85 81 52 81 Q47 81 42.5 81 Q38 81 33 83 Q33 75 35.5 59 Q38 43 43 27 Q48 11 56 -1 Q64 -13 76 -13 Q84 -13 92 -9 Q114 0 140.5 30.5 Q167 61 195 105 Q223 149 250.5 202 Q278 255 301 308.5 Q324 362 340.5 412 Q357 462 364 501 Q378 581 361 617 Q344 653 309 653 Q284 653 251.5 635.5 Q219 618 185.5 587 Q152 556 119.5 512.5 Q87 469 61 418 Q42 381 28.5 342 Q15 303 7.5 266.5 Q0 230 -0.5 197 Q-1 164 5 137 Q7 129 9 123.5 Q11 118 13 113 Q16 108 18 105 Q18 153 25.5 199 Q33 245 44.5 281 Q56 317 71 339 Q86 361 101 361 Q112 361 118 355 Z " />
<glyph glyph-name="uni0051" unicode="Q" horiz-adv-x="316" d="M121 -96 Q106 -95 101.5 -84 Q97 -73 99.5 -55.5 Q102 -38 110 -17 Q118 4 127.5 24.5 Q137 45 146 62.5 Q155 80 160 90 Q157 87 150 78.5 Q143 70 133 59 Q123 48 111 37.5 Q99 27 86 21 Q74 16 64 16 Q47 16 32.5 29.5 Q18 43 11 74 Q10 79 9 80.5 Q8 82 6.5 83 Q5 84 3.5 85.5 Q2 87 0 91 Q-3 98 -2.5 107 Q-2 116 3 120 Q5 122 5 122.5 Q5 123 5 126.5 Q5 130 5 137.5 Q5 145 6 160 Q8 214 18.5 269 Q29 324 43.5 369 Q58 414 74.5 443 Q91 472 106 473 L108 473 Q116 473 122 468 Q128 463 132 456.5 Q136 450 138 444.5 Q140 439 140 439 Q139 438 136.5 439 Q134 440 132 442 Q130 444 126.5 452 Q123 460 118 464 Q114 466 113 466 Q105 466 94 449.5 Q83 433 71.5 404 Q60 375 49.5 337 Q39 299 32 256.5 Q25 214 22.5 169 Q20 124 24 82 Q27 84 32.5 84 Q38 84 51.5 91 Q65 98 90.5 115.5 Q116 133 160 169 Q210 211 224 219 Q227 221 243 246.5 Q259 272 280 311 Q301 350 323.5 398 Q346 446 362.5 494 Q379 542 386.5 585.5 Q394 629 385 658 Q376 685 356 685 Q327 685 299 664 Q271 643 246.5 609.5 Q222 576 200.5 534.5 Q179 493 162 452.5 Q145 412 132.5 377 Q120 342 113 320 Q92 253 95 233 Q96 227 98 227 Q100 227 102 228 Q107 230 108.5 231 Q110 232 112 232 Q113 232 116 227 Q115 226 110 224 Q105 222 99 222 Q91 222 87 227 Q81 234 83 252.5 Q85 271 96 307 Q106 342 120.5 384 Q135 426 150 462 Q160 486 179.5 525 Q199 564 225.5 602 Q252 640 283 667.5 Q314 695 346 695 Q381 695 395 659 Q408 627 401.5 582.5 Q395 538 378 489.5 Q361 441 338 393 Q315 345 294.5 306.5 Q274 268 259.5 243.5 Q245 219 245 217 Q246 210 226.5 180.5 Q207 151 181.5 110 Q156 69 133.5 22 Q111 -25 106 -66 Q104 -89 113 -90 Q118 -90 122.5 -90 Q127 -90 132 -88 Q135 -87 139 -87 Q147 -87 142 -90 Q140 -91 133 -93.5 Q126 -96 121 -96 Z M27 64 Q32 50 38.5 38 Q45 26 59 26 Q65 26 72 29 Q94 38 118.5 66 Q143 94 165 124 Q190 158 215 200 Q209 196 203 191 Q198 186 191 180.5 Q184 175 176 169 Q161 156 142 141 Q123 126 104 112.5 Q85 99 67 89 Q49 79 34 77 Q26 76 25.5 75 Q25 74 27 64 Z M7 98 Q6 107 5 107 Q4 107 5 97.5 Q6 88 8 88 Q9 89 7 98 Z " />
<glyph glyph-name="uni0052" unicode="R" horiz-adv-x="362" d="M355 602 Q377 596 391.5 580 Q406 564 405 540 Q405 519 392 492.5 Q379 466 358.5 438.5 Q338 411 313 384 Q288 357 262.5 335.5 Q237 314 215 299.5 Q193 285 179 282 Q175 281 175 279 Q176 276 179.5 267 Q183 258 187.5 248 Q192 238 197.5 227.5 Q203 217 207 211 Q222 186 243.5 161.5 Q265 137 292 116 Q319 95 349.5 79.5 Q380 64 412 56 Q425 53 423.5 51.5 Q422 50 420 48 L405 51 Q365 60 327 81.5 Q289 103 257.5 132.5 Q226 162 202 197 Q178 232 166 269 Q166 268 159.5 252 Q153 236 143.5 211.5 Q134 187 123 158.5 Q112 130 102.5 105.5 Q93 81 86 63.5 Q79 46 78 44 Q74 35 72 35 Q70 35 68 36 Q64 38 65 43 Q66 48 73 69 Q89 114 104 153.5 Q119 193 130.5 223 Q142 253 149 271.5 Q156 290 156 294 Q155 302 159.5 310 Q164 318 167 320 Q168 321 175 336 Q182 351 192.5 373.5 Q203 396 214.5 422 Q226 448 236 470.5 Q246 493 253 509 Q260 525 262 527 Q264 528 264 528 Q266 528 268 526.5 Q270 525 269 523 Q269 522 261.5 504.5 Q254 487 243.5 461.5 Q233 436 221 406.5 Q209 377 198.5 351.5 Q188 326 181 308.5 Q174 291 174 290 Q174 289 183.5 292.5 Q193 296 210 307 Q227 318 250 337 Q273 356 301 385 Q385 473 397 530 Q403 559 387.5 578 Q372 597 337 597 Q292 597 243.5 570 Q195 543 152 503 Q109 463 75.5 417 Q42 371 27 333 Q9 286 19 263 Q25 250 42 250 Q53 250 65 254 Q77 258 88.5 263 Q100 268 108 271.5 Q116 275 118 274 Q120 273 122 271 Q124 269 123 268 Q123 268 117.5 265.5 Q112 263 105.5 260 Q99 257 92 254.5 Q85 252 82 251 Q63 243 47 243 Q31 243 20 254 Q1 272 7.5 305 Q14 338 36 376.5 Q58 415 91 453.5 Q124 492 158 521 Q174 535 194.5 549.5 Q215 564 238 576.5 Q261 589 285 597 Q309 605 331 605 Q343 605 355 602 Z " />
<glyph glyph-name="uni0053" unicode="S" horiz-adv-x="620" d="M5 249 Q-9 213 15.5 200 Q40 187 87 187 Q122 187 166 192 Q210 197 255.5 203 Q301 209 344.5 213.5 Q388 218 424 218 Q476 218 504.5 205.5 Q533 193 540.5 173.5 Q548 154 535.5 129 Q523 104 493 78 Q481 68 462.5 56 Q444 44 424 33.5 Q404 23 383.5 15.5 Q363 8 347 8 Q333 8 323.5 15.5 Q314 23 312 40 Q311 54 317 66 Q323 78 330.5 87 Q338 96 345 101 Q352 106 353 106 Q354 106 356 105 Q358 104 356 102 Q354 99 343.5 91 Q333 83 322 60 Q311 37 318 27 Q325 17 342 17 Q365 17 400 31.5 Q435 46 466.5 68.5 Q498 91 519.5 117.5 Q541 144 536 168 Q532 189 505.5 197 Q479 205 438 205 Q400 205 354 200 Q308 195 261 189 Q214 183 170 178.5 Q126 174 92 174 Q66 174 44 179.5 Q22 185 8 195.5 Q-6 206 -10 223 Q-14 240 -4 264 Q4 283 21 307 Q38 331 62 356.5 Q86 382 115.5 409 Q145 436 178 461 Q214 489 260.5 519 Q307 549 358 573.5 Q409 598 461 614 Q513 630 561 630 Q587 630 611.5 623.5 Q636 617 657 601 Q681 580 686 554 Q691 528 683.5 502 Q676 476 660.5 451 Q645 426 629.5 406.5 Q614 387 601.5 374.5 Q589 362 588 360 Q585 357 583 357 Q581 357 581 360 Q581 363 580 365 Q580 368 591 379.5 Q602 391 617.5 409.5 Q633 428 649 452.5 Q665 477 674 506 Q680 527 679 549 Q678 571 661 587 Q646 601 622.5 608 Q599 615 569 615 Q518 615 461 597 Q404 579 349.5 551 Q295 523 245.5 489.5 Q196 456 158 425 Q98 375 58 329 Q18 283 5 249 Z " />
<glyph glyph-name="uni0054" unicode="T" horiz-adv-x="192" d="M273 618 Q272 619 250 614.5 Q228 610 194 602 Q160 594 117.5 582.5 Q75 571 33 557 Q-9 543 -47 528 Q-85 513 -110 497 L-115 494 Q-108 487 -115 487 Q-119 487 -122 492 Q-125 498 -119 504 Q-113 509 -97 517 Q-81 525 -59 534.5 Q-37 544 -10.5 554 Q16 564 41 573 Q97 592 158.5 607.5 Q220 623 283 634 Q290 643 295 650 Q300 657 305 662 Q310 667 312 668 Q324 668 317 659 Q313 654 306.5 645.5 Q300 637 301 637 Q301 636 329.5 641 Q358 646 404.5 652 Q451 658 510.5 663.5 Q570 669 633 669 Q653 669 677 668.5 Q701 668 725.5 666 Q750 664 774 660 Q798 656 817 650 Q821 649 820 644.5 Q819 640 814 641 Q784 649 743 653 Q702 657 655 657 Q597 657 536.5 652.5 Q476 648 424.5 642.5 Q373 637 337 631 Q301 625 292 622 Q288 621 271.5 589 Q255 557 231.5 505.5 Q208 454 179 387.5 Q150 321 121.5 250 Q93 179 67.5 109 Q42 39 24 -20 Q21 -30 17 -30 Q14 -30 11 -25 Q10 -24 30.5 42.5 Q51 109 106 247 Q152 363 184 435.5 Q216 508 236 548.5 Q256 589 265 603.5 Q274 618 273 618 Z " />
<glyph glyph-name="uni0055" unicode="U" horiz-adv-x="316" d="M231 283 Q220 271 195 239 Q170 207 139.5 173 Q109 139 77 113 Q45 87 20 87 Q13 87 5 90 Q-16 100 -18 141 Q-20 182 -9.5 238.5 Q1 295 20 358.5 Q39 422 59.5 475.5 Q80 529 98.5 565.5 Q117 602 126 604 Q127 604 127.5 604.5 Q128 605 129 605 Q137 605 140.5 596 Q144 587 147 581 Q149 574 149.5 572.5 Q150 571 148 571 Q145 571 142.5 575 Q140 579 138 583.5 Q136 588 134.5 591.5 Q133 595 133 595 Q127 595 112 563.5 Q97 532 78.5 483 Q60 434 42 375 Q24 316 11.5 261 Q-1 206 -4 162 Q-7 118 5 100 Q8 95 15 95 Q24 95 36.5 102.5 Q49 110 62 120.5 Q75 131 86 141.5 Q97 152 103 158 Q128 183 152 211 Q176 239 195.5 263 Q215 287 228.5 304.5 Q242 322 245 325 Q246 328 253 346.5 Q260 365 273.5 394 Q287 423 307.5 460 Q328 497 356 537 Q368 555 381.5 572.5 Q395 590 408 604.5 Q421 619 432 629.5 Q443 640 450 644 Q455 647 457 647 Q460 647 463 644 Q468 640 468 633.5 Q468 627 460 611 Q449 589 429.5 558.5 Q410 528 387 495 Q364 462 341 430 Q318 398 298.5 372 Q279 346 266.5 329.5 Q254 313 253 311 L247 294 Q242 280 235 255 Q228 230 220.5 200 Q213 170 206.5 138 Q200 106 196.5 77.5 Q193 49 193.5 27.5 Q194 6 201 -3 Q205 -8 201 -8 Q197 -8 194 -5 Q190 0 187.5 9.5 Q185 19 184.5 29.5 Q184 40 184.5 51 Q185 62 185 69 Q190 113 197.5 152 Q205 191 212.5 220 Q220 249 225.5 266 Q231 283 231 283 Z M452 630 Q443 624 423.5 603 Q404 582 379.5 549 Q355 516 328 471.5 Q301 427 278 373 Q277 370 275 366 Q274 364 274 363 Q275 365 277 368 Q279 370 281.5 373 Q284 376 287 381 Q382 509 419.5 571.5 Q457 634 452 630 Z " />
<glyph glyph-name="uni0056" unicode="V" horiz-adv-x="249" d="M104 461 Q99 464 87.5 441.5 Q76 419 61.5 380.5 Q47 342 31.5 293 Q16 244 3 193.5 Q-10 143 -19.5 96 Q-29 49 -31 15 Q-32 1 -31 -10 Q-30 -21 -28 -23 Q-26 -24 -20.5 -19 Q-15 -14 -8 -6 Q9 14 35.5 56.5 Q62 99 95.5 156 Q129 213 168 279.5 Q207 346 247.5 412.5 Q288 479 328.5 540.5 Q369 602 407 650 Q409 652 411 652 Q415 652 417 646 Q417 645 410 636 Q388 607 362.5 570.5 Q337 534 305 482 Q273 430 231.5 360 Q190 290 134 194 Q98 132 72.5 89 Q47 46 29 19 Q11 -8 -1.5 -20 Q-14 -32 -24 -32 Q-40 -32 -45 -13 Q-49 4 -44 42.5 Q-39 81 -28.5 130 Q-18 179 -2.5 233 Q13 287 29 334.5 Q45 382 60.5 417.5 Q76 453 88 465 Q92 469 96 469 Q101 469 104.5 465.5 Q108 462 108 461 Q108 460 106.5 460 Q105 460 104 461 Z " />
<glyph glyph-name="uni0057" unicode="W" horiz-adv-x="415" d="M303 202 Q319 229 341 269 Q363 309 388 353.5 Q413 398 437.5 442.5 Q462 487 482 522.5 Q502 558 514.5 581 Q527 604 528 605 Q530 608 533 608 Q536 608 538 606 Q540 604 539 602 Q539 602 528.5 582.5 Q518 563 500.5 531 Q483 499 461 458.5 Q439 418 415.5 375.5 Q392 333 369 292.5 Q346 252 328 219 Q307 183 291.5 157.5 Q276 132 264 116.5 Q252 101 242 94 Q232 87 223 87 Q211 87 205 94.5 Q199 102 196.5 113 Q194 124 194 137.5 Q194 151 195 164 Q198 201 207.5 248 Q217 295 226.5 337 Q236 379 243.5 408 Q251 437 250 438 Q250 438 245 432.5 Q240 427 232 417.5 Q224 408 214.5 395.5 Q205 383 196 371 Q141 298 98 233 Q55 168 22 119.5 Q-11 71 -33.5 42.5 Q-56 14 -69 14 Q-72 14 -73 15 Q-78 17 -80.5 21 Q-83 25 -81 35 Q-78 63 -65 103.5 Q-52 144 -33.5 190 Q-15 236 6.5 282.5 Q28 329 47.5 368 Q67 407 83 434.5 Q99 462 106 469 Q109 472 112 472 Q116 472 118.5 468 Q121 464 119 464 Q118 464 117 465 Q114 468 100.5 445.5 Q87 423 67.5 385 Q48 347 26 299 Q4 251 -15.5 203 Q-35 155 -50 111.5 Q-65 68 -69 40 Q-70 35 -70.5 28 Q-71 21 -70 21 Q-65 21 -51 38 Q-37 55 -16.5 83.5 Q4 112 29 149.5 Q54 187 81.5 227.5 Q109 268 137.5 309 Q166 350 192 385 Q214 414 228.5 432 Q243 450 247 452 Q248 453 251 453 Q255 453 260 448 Q263 445 258.5 421.5 Q254 398 246.5 363 Q239 328 230 287 Q221 246 215.5 208 Q210 170 209 139.5 Q208 109 217 96 Q219 94 221 94 Q228 94 240 108.5 Q252 123 264.5 141.5 Q277 160 288 177.5 Q299 195 303 202 Z " />
<glyph glyph-name="uni0059" unicode="Y" horiz-adv-x="284" d="M133 580 Q118 564 100.5 531.5 Q83 499 66.5 460 Q50 421 37 379.5 Q24 338 18.5 304.5 Q13 271 17.5 250 Q22 229 41 230 Q56 231 77.5 243.5 Q99 256 122.5 274.5 Q146 293 170 315.5 Q194 338 213.5 357.5 Q233 377 246 391.5 Q259 406 261 410 Q278 443 298 474.5 Q318 506 339.5 534.5 Q361 563 383 587 Q405 611 426 629 Q450 650 459 650 Q465 650 468 645 Q472 640 470 634.5 Q468 629 460 616 Q450 602 432 580 Q414 558 392.5 533.5 Q371 509 348.5 483.5 Q326 458 308 438 Q290 418 278 405 Q266 392 266 392 Q239 335 216 277 Q196 227 176.5 168.5 Q157 110 149 56 Q146 35 147 22.5 Q148 10 150.5 3 Q153 -4 155 -6 Q157 -8 156 -9 Q155 -10 152 -10 Q149 -10 144 -5 Q138 3 136 20.5 Q134 38 139 66 Q147 113 162.5 164 Q178 215 195 259 Q214 310 236 359 Q223 345 199 321.5 Q175 298 148 275.5 Q121 253 94 236.5 Q67 220 47 220 Q41 220 36 221.5 Q31 223 26 225 Q12 233 7 248.5 Q2 264 2 282.5 Q2 301 5.5 320.5 Q9 340 13 356 Q16 368 23.5 390 Q31 412 41 439 Q51 466 64 494.5 Q77 523 90.5 546 Q104 569 118.5 584 Q133 599 146 599 Q153 597 155.5 593 Q158 589 154 590 Q152 590 151 590.5 Q150 591 149 591 Q146 591 142.5 589 Q139 587 133 580 Z M296 445 Q308 459 331.5 485.5 Q355 512 380 541.5 Q405 571 426.5 597 Q448 623 455 636 Q425 617 396.5 584.5 Q368 552 345.5 521.5 Q323 491 309.5 468 Q296 445 296 445 Z " />
<glyph glyph-name="uni0058" unicode="X" horiz-adv-x="163" d="M100 16 Q91 60 87 115.5 Q83 171 81.5 219.5 Q80 268 80 301 Q80 334 80 334 Q25 266 -27 196 Q-79 126 -119.5 69 Q-160 12 -185 -23 Q-210 -58 -213 -56 Q-218 -52 -217.5 -50.5 Q-217 -49 -214 -44 Q-172 25 -123 93.5 Q-74 162 -30.5 219 Q13 276 44 314.5 Q75 353 80 360 Q81 361 82 378 Q83 395 85 423 Q87 451 90 487.5 Q93 524 99 563 Q102 585 103.5 591.5 Q105 598 107 598 Q109 598 110 597 Q111 596 113 595 Q112 591 107 559 Q102 527 97 448 Q96 437 95.5 425 Q95 413 94 402 Q94 389 93 377 Q94 377 105 391 Q116 405 148 443 Q199 505 233 546 Q267 587 288 613.5 Q309 640 320 653 Q331 666 335.5 671.5 Q340 677 340.5 677 Q341 677 342 676 Q344 675 345 672.5 Q346 670 340.5 661.5 Q335 653 320.5 633.5 Q306 614 277.5 578.5 Q249 543 204 487.5 Q159 432 92 350 Q91 325 91 278 Q91 231 94 178 Q97 125 102 73.5 Q107 22 116 -11 Q118 -19 117 -20 Q116 -21 113 -21 Q110 -21 109 -19 Q108 -17 105 -6 Q102 5 100 16 Z " />
<glyph glyph-name="uni005A" unicode="Z" horiz-adv-x="305" d="M-100 -19 L-96 -19 Q-77 -19 -38 4 Q1 27 47 63 Q93 99 139.5 141 Q186 183 221 221 Q256 259 272 287.5 Q288 316 273 323 Q264 328 244 328 Q223 328 198.5 322.5 Q174 317 149.5 309 Q125 301 101.5 292 Q78 283 58 275 Q41 269 30.5 265 Q20 261 13 261 Q4 261 1 269 Q-2 276 3 283.5 Q8 291 30 314 Q59 343 98.5 378.5 Q138 414 180 450.5 Q222 487 261.5 521.5 Q301 556 329.5 582.5 Q358 609 370 625.5 Q382 642 369 642 Q361 642 350.5 639.5 Q340 637 324 630 Q300 620 271 603.5 Q242 587 213 568.5 Q184 550 157.5 530.5 Q131 511 112 494.5 Q93 478 83 465.5 Q73 453 77 448 Q79 446 79.5 444.5 Q80 443 79 443 Q77 443 74.5 446 Q72 449 71 451 Q68 457 71.5 464.5 Q75 472 88 485 Q108 505 146 533.5 Q184 562 226 588 Q268 614 306 632.5 Q344 651 365 651 Q382 651 382 636 Q382 627 370 612 Q359 597 328 567.5 Q297 538 257.5 502 Q218 466 175 428 Q132 390 96 357.5 Q60 325 37 302.5 Q14 280 14 276 Q14 274 25 278 Q36 282 53.5 289.5 Q71 297 94.5 305.5 Q118 314 142.5 322 Q167 330 191.5 335.5 Q216 341 236 341 Q266 341 280 328 Q293 315 289 296 Q285 277 270.5 256 Q256 235 236 213.5 Q216 192 196 172 Q186 162 165.5 142.5 Q145 123 119 100.5 Q93 78 64 54.5 Q35 31 7.5 12 Q-20 -7 -44.5 -19 Q-69 -31 -85 -31 Q-101 -31 -107 -16 Q-112 -4 -101 17 Q-90 38 -69.5 61.5 Q-49 85 -22.5 109 Q4 133 30.5 152.5 Q57 172 80.5 184.5 Q104 197 119 197 Q136 197 136 178 Q136 172 134 165.5 Q132 159 129.5 153.5 Q127 148 124.5 144 Q122 140 122 140 Q116 140 117 145 Q118 150 120 153 Q140 188 122 188 Q112 188 93.5 178.5 Q75 169 53.5 154.5 Q32 140 9.5 121.5 Q-13 103 -31 85 Q-59 57 -73 37.5 Q-87 18 -93 6 Q-99 -6 -99.5 -12 Q-100 -18 -100 -19 Z " />
<glyph glyph-name="uni005B" unicode="&#x5b;" horiz-adv-x="124" d="M16 164 Q18 165 23.5 163.5 Q29 162 25 158 Q23 157 21 157 Q19 157 16 156.5 Q13 156 10 156 Q4 156 -2 157.5 Q-8 159 -13 164 Q-20 172 -13 192.5 Q-6 213 10.5 249 Q27 285 52 337.5 Q77 390 106 462 Q112 476 114.5 482 Q117 488 119 488 Q120 488 122 486 Q124 485 128.5 485 Q133 485 137.5 484.5 Q142 484 145.5 483.5 Q149 483 148 480 Q147 477 142 477 L135 477 Q133 477 131 477.5 Q129 478 128 478 Q126 478 124.5 476 Q123 474 121 468 Q119 462 115 450.5 Q111 439 103 419 Q97 404 90.5 389.5 Q84 375 76.5 358.5 Q69 342 60.5 322.5 Q52 303 40 278 Q23 242 12.5 219.5 Q2 197 -2 184.5 Q-6 172 -4.5 167.5 Q-3 163 4 163 Q11 163 16 164 Z " />
<glyph glyph-name="uni005C" unicode="&#x5c;" horiz-adv-x="103" d="M15 155 Q14 152 10 152 Q8 152 5 154.5 Q2 157 3 159 Q2 160 7 179.5 Q12 199 23 247 Q47 340 59.5 390.5 Q72 441 78.5 463.5 Q85 486 87 489 Q89 492 91 491 Q95 489 95.5 483 Q96 477 90.5 451 Q85 425 71 369.5 Q57 314 31 213 Q23 184 20 172 Q17 160 15 155 Z " />
<glyph glyph-name="uni005D" unicode="&#x5d;" horiz-adv-x="100" d="M7 173 Q3 160 0.5 157 Q-2 154 -17 153 Q-25 153 -26.5 153 Q-28 153 -31 155 Q-35 157 -35.5 160.5 Q-36 164 -34 164 Q-33 164 -32 163 Q-31 162 -27 162 Q-20 162 -14 164 Q-11 166 -9.5 169 Q-8 172 0 194 Q3 202 13 231.5 Q23 261 36 297.5 Q49 334 62.5 370 Q76 406 86 427 Q89 434 93 442 Q97 450 101 458 Q105 468 109 477 Q109 479 101 478.5 Q93 478 91 482 Q88 486 90 488 Q91 488 93.5 487.5 Q96 487 105 486 L112 485 Q116 491 118 492 Q123 494 123.5 490 Q124 486 123 483 L77 373 Q76 370 70.5 356 Q65 342 58.5 322.5 Q52 303 44 280.5 Q36 258 28.5 237 Q21 216 15.5 199 Q10 182 7 173 Z " />
<glyph glyph-name="uni005E" unicode="&#x5e;" horiz-adv-x="150" d="M138 539 Q138 539 133.5 534 Q129 529 124 523 Q119 517 115 511 Q111 505 111 504 Q112 503 111 502 Q110 501 108 501 Q106 501 105 502 Q101 504 101 508 Q101 509 128 542 Q136 551 137.5 552.5 Q139 554 141 553 Q146 550 146 544 Q146 538 145 529 Q142 503 143 503 Q142 503 140 505 Q137 507 136.5 512.5 Q136 518 136.5 523.5 Q137 529 137.5 534 Q138 539 138 539 Z " />
<glyph glyph-name="uni005F" unicode="&#x5f;" horiz-adv-x="130" d="M-20 230 Q-20 235 -9 236 Q1 238 23 238 Q37 238 52 237.5 Q67 237 75 235 Q81 235 81 230 Q81 225 77 225 Q75 225 72.5 225.5 Q70 226 68 226 Q63 227 54.5 227 Q46 227 36 227 Q19 227 4 226.5 Q-11 226 -16 225 Q-20 224 -20 230 Z " />
<glyph glyph-name="uni0060" unicode="&#x60;" horiz-adv-x="100" d="M93 502 Q90 503 87 506.5 Q84 510 82 513.5 Q80 517 80 520 Q80 523 83 522 Q89 521 89 518 Q88 516 90.5 511.5 Q93 507 95 505 L97 503 Q97 500 93 502 Z " />
<glyph glyph-name="uni0061" unicode="a" horiz-adv-x="148" d="M12 217 Q14 226 17.5 235 Q21 244 25 252 Q29 260 31.5 265 Q34 270 33 270 Q31 270 24 261.5 Q17 253 0 232 Q-19 207 -27 207 Q-30 207 -34 210 Q-40 215 -40 222 Q-40 231 -34.5 245.5 Q-29 260 -20.5 274 Q-12 288 -1.5 298 Q9 308 19 308 Q30 305 32.5 296.5 Q35 288 36 287 Q55 306 59 306 Q61 306 64 301 Q66 296 64 296 Q62 296 54 280.5 Q46 265 38 246.5 Q30 228 25 213 Q20 198 24 199 Q30 200 38.5 206 Q47 212 61.5 224 Q76 236 97 254.5 Q118 273 148 300 Q157 297 151 291 Q144 284 126 267.5 Q108 251 88.5 234 Q69 217 52 204 Q35 191 28 190 Q23 189 15.5 195.5 Q8 202 12 217 Z M23 300 Q15 295 7 285 Q-1 275 -8 264 Q-15 253 -20 242 Q-25 231 -26 224 Q-26 221 -21 226 Q-16 231 -9 239 Q-8 240 -9 239 Q-10 238 -7.5 241 Q-5 244 3 252.5 Q11 261 29 281 Q26 287 24.5 293 Q23 299 23 300 Z " />
<glyph glyph-name="uni0062" unicode="b" horiz-adv-x="144" d="M-2 176 Q-13 168 -23 168 Q-34 168 -38 180 Q-40 187 -38 193.5 Q-36 200 -34 204 Q-35 206 -36.5 207 Q-38 208 -38 210 Q-38 211 -28.5 233 Q-19 255 -5 288.5 Q9 322 25 360.5 Q41 399 55 433.5 Q69 468 79 492 Q89 516 91 520 Q99 538 101 543 Q103 545 105 545 Q109 545 111 541 Q112 539 111 535.5 Q110 532 105 517.5 Q100 503 88 474 Q76 445 55 393 Q40 356 30 332.5 Q20 309 14.5 296 Q9 283 7 278 Q5 273 6 273 Q6 273 12 279 Q31 297 44.5 304.5 Q58 312 67 312 Q80 312 82.5 299.5 Q85 287 77 270 Q76 268 75 266.5 Q74 265 73 263 Q73 261 72 260 Q71 259 82 265 Q93 271 107 279 Q123 288 144 300 Q150 299 149.5 296 Q149 293 140 287.5 Q131 282 112.5 272 Q94 262 63 246 Q61 244 55 235.5 Q49 227 40 216 Q31 205 20 194 Q9 183 -2 176 Z M60 298 Q51 295 40 287 Q29 279 18.5 270 Q8 261 0 251 Q-8 241 -11 233 Q-15 224 -15 224 Q1 230 15 235 Q26 240 37 244 Q48 248 50 249 Q50 250 55 257 Q60 264 65.5 273 Q71 282 74.5 290 Q78 298 76 301 Q75 302 70 301 Q65 300 60 298 Z M-32 186 Q-33 176 -29 176 Q-25 176 -22 177 Q-12 181 -1 190 Q10 199 19 210 Q30 222 40 236 Q40 237 30 233 Q20 229 12 227 Q-25 215 -32 186 Z " />
<glyph glyph-name="uni0063" unicode="c" horiz-adv-x="117" d="M-1 212 Q22 220 50 242.5 Q78 265 117 300 Q124 297 119 292 Q113 287 101 276 Q89 265 81 258 Q44 226 21.5 212.5 Q-1 199 -14 199 Q-31 199 -31 218.5 Q-31 238 -21 261 Q-11 284 4 303.5 Q19 323 31 323 Q39 323 43 315 Q45 311 45.5 305.5 Q46 300 44 300 Q41 300 40 303 Q39 306 38 308 L37 312 Q33 310 29 307 Q26 305 21.5 301 Q17 297 12 290 Q2 278 -5 264.5 Q-12 251 -16 239.5 Q-20 228 -21 220 Q-22 212 -20 210 Q-15 210 -10.5 210.5 Q-6 211 -1 212 Z " />
<glyph glyph-name="uni0064" unicode="d" horiz-adv-x="167" d="M-32 212 Q-33 214 -33.5 216 Q-34 218 -33 223 Q-33 231 -28 246 Q-23 261 -16 275.5 Q-9 290 0.5 301 Q10 312 19 312 Q27 312 32 306 L34 302 Q57 341 69 362.5 Q81 384 88 396.5 Q95 409 98 415.5 Q101 422 105 430 Q119 457 131 483.5 Q143 510 151 527 Q155 535 158 536.5 Q161 538 163 537 Q168 535 167.5 531 Q167 527 165 524 Q162 516 150.5 491.5 Q139 467 124 432.5 Q109 398 92.5 358 Q76 318 62.5 279.5 Q49 241 40.5 207.5 Q32 174 33 153 Q51 165 66 179.5 Q81 194 96.5 212 Q112 230 129 251.5 Q146 273 167 300 Q172 299 171.5 296.5 Q171 294 170 293 Q152 271 139 253.5 Q126 236 115 222 Q104 208 94.5 196 Q85 184 74 173 Q59 156 49.5 151 Q40 146 35 146 Q31 146 29 148 Q21 153 19.5 162 Q18 171 20 186 Q28 240 58 317 Q55 313 46 295 Q37 277 25.5 257 Q14 237 3 220.5 Q-8 204 -14 203 Q-27 203 -32 212 Z M32 298 Q27 303 26.5 303.5 Q26 304 24 303 Q16 300 7.5 285.5 Q-1 271 -7 256 Q-13 241 -16.5 229 Q-20 217 -18 218 Q-16 220 -7.5 232.5 Q1 245 10 260 Q20 277 32 298 Z " />
<glyph glyph-name="uni0065" unicode="e" horiz-adv-x="133" d="M-12 195 Q3 195 22 206 Q41 217 60.5 233 Q80 249 99 267 Q118 285 133 300 Q139 299 139 297 Q139 295 137 293 Q124 280 108.5 264 Q93 248 77 233.5 Q61 219 44.5 207 Q28 195 11 189 Q2 186 -5 186 Q-20 186 -27 198 Q-34 210 -33.5 227.5 Q-33 245 -24.5 265 Q-16 285 0 300 Q8 308 18 313 Q28 318 36 318 Q40 318 44 316 Q58 310 58 298 Q58 286 51 273.5 Q44 261 33 252 Q22 243 12 243 L9 243 Q-1 246 -3 256 Q-5 260 -5 266 Q-7 262 -10 257 Q-12 252 -13.5 246.5 Q-15 241 -17 235 Q-18 232 -19 225.5 Q-20 219 -20.5 212.5 Q-21 206 -19 200.5 Q-17 195 -12 195 Z M5 271 Q3 268 2 262 Q1 256 3 251 Q4 249 9 249 Q17 250 25 255.5 Q33 261 39 269 Q45 277 48.5 286 Q52 295 51 302 Q50 308 44 308 Q37 308 29 303.5 Q21 299 15 293 Q9 287 5.5 282 Q2 277 3 277 Q4 277 6 275 Q7 273 5 271 Z " />
<glyph glyph-name="uni0066" unicode="f" horiz-adv-x="111" d="M111 300 Q120 298 111.5 289.5 Q103 281 95 270 Q68 236 51 217 Q34 198 23 187.5 Q12 177 3.5 171.5 Q-5 166 -15 158 Q-15 150 -22 124 Q-29 98 -38.5 70.5 Q-48 43 -59.5 21.5 Q-71 0 -80 0 Q-81 0 -81.5 0.5 Q-82 1 -83 1 Q-89 3 -92.5 6.5 Q-96 10 -96 19 Q-96 28 -92.5 44 Q-89 60 -82 85 Q-70 127 -52 175 Q-34 223 -13.5 271 Q7 319 28 363.5 Q49 408 66.5 443.5 Q84 479 95.5 502 Q107 525 109 529 Q112 535 113.5 536 Q115 537 117 537 Q123 537 123 531 Q123 530 113 508.5 Q103 487 87.5 454 Q72 421 53.5 381 Q35 341 18 303.5 Q1 266 -12 235.5 Q-25 205 -30 190 L-26 190 Q-19 190 -15 184 Q-11 178 -14 169 Q1 178 18.5 195 Q36 212 52.5 231 Q69 250 84 268.5 Q99 287 111 300 Z M-81 16 Q-82 12 -71.5 28.5 Q-61 45 -50 73 Q-44 90 -39.5 104.5 Q-35 119 -32 130 Q-28 143 -26 154 Q-28 154 -29 153.5 Q-30 153 -32 153 Q-40 153 -42 158 Q-56 118 -65.5 86 Q-75 54 -81 16 Z M-38 162 L-36 162 Q-34 161 -31 161 Q-27 161 -26 162 Q-25 163 -23.5 171 Q-22 179 -23 181 Q-23 182 -25 182 Q-28 182 -32 176.5 Q-36 171 -38 162 Z " />
<glyph glyph-name="uni0067" unicode="g" horiz-adv-x="116" d="M36 178 Q32 174 23 153 Q14 132 1 105 Q-12 78 -28.5 50 Q-45 22 -63 3 Q-83 -17 -99 -17 Q-113 -17 -119.5 -5 Q-126 7 -122 23 Q-119 35 -111.5 46 Q-104 57 -94 67.5 Q-84 78 -73 87 Q-62 96 -53 104 Q-25 127 -12 140 Q1 153 13 164 Q14 167 23.5 189 Q33 211 44 244 Q46 251 49 260 Q52 269 55 277 Q58 286 61 296 Q61 297 53 289.5 Q45 282 35.5 272.5 Q26 263 17 254.5 Q8 246 5 243 Q-15 225 -22 225 Q-33 227 -35 233 Q-37 239 -36 245 Q-34 252 -28 263 Q-22 274 -13.5 285 Q-5 296 4 304 Q13 312 20 312 Q22 312 22.5 311.5 Q23 311 24 311 Q32 307 33 301 Q34 295 35 293 Q40 298 50.5 306.5 Q61 315 66 313 Q74 311 74 304 Q74 301 71 288.5 Q68 276 62.5 260 Q57 244 51 227 Q45 210 40 197 Q49 207 60.5 222 Q72 237 83.5 253 Q95 269 104 282 Q113 295 116 300 Q121 298 121.5 296.5 Q122 295 117 288 Q96 256 74 226 Q52 196 36 178 Z M-113 24 Q-115 21 -115 8.5 Q-115 -4 -110 -9 Q-109 -10 -106 -10 Q-97 -10 -85.5 1 Q-74 12 -61.5 29 Q-49 46 -37.5 66 Q-26 86 -17 103 Q-8 120 -2.5 131.5 Q3 143 4 144 Q-24 119 -43.5 101.5 Q-63 84 -77 71.5 Q-91 59 -99.5 48 Q-108 37 -113 24 Z M-21 242 Q-17 246 -15.5 247 Q-14 248 -10 251.5 Q-6 255 3 263.5 Q12 272 32 291 L30 293 Q27 296 27.5 298.5 Q28 301 26 301 Q24 301 23 300 Q16 297 8.5 287.5 Q1 278 -6 268 Q-14 256 -21 242 Z " />
<glyph glyph-name="uni0068" unicode="h" horiz-adv-x="150" d="M60 299 Q54 296 42.5 286.5 Q31 277 19 265.5 Q7 254 -2.5 242.5 Q-12 231 -15 224 Q-20 215 -21 213.5 Q-22 212 -24 212 Q-31 212 -33 218 Q-34 219 -24.5 243 Q-15 267 -0.5 302.5 Q14 338 31.5 379 Q49 420 64 455.5 Q79 491 89.5 515 Q100 539 101 539 Q102 539 102.5 539.5 Q103 540 104 540 Q107 540 110 538 Q113 536 111 531 Q109 526 102.5 510.5 Q96 495 84 465 Q72 435 53 390 Q34 345 8 282 Q-3 254 -3 254 Q-1 254 9.5 266 Q20 278 42 297 Q53 306 58 306 Q69 306 66.5 294 Q64 282 55.5 262 Q47 242 37 217 Q27 192 24 167 Q33 172 41 179 Q49 186 62 200 Q75 214 95.5 238 Q116 262 150 300 Q153 300 154.5 298.5 Q156 297 152 292 Q130 267 110.5 243 Q91 219 75.5 200.5 Q60 182 48 171 Q36 160 28 160 Q24 160 23 161 Q13 167 16.5 186.5 Q20 206 28.5 228.5 Q37 251 47 271.5 Q57 292 60 299 Z " />
<glyph glyph-name="uni0069" unicode="i" horiz-adv-x="95" d="M13 308 Q15 306 15 304 Q15 302 13 297 Q11 292 6.5 282.5 Q2 273 -4 257 Q-5 254 -7.5 245.5 Q-10 237 -12.5 228.5 Q-15 220 -15.5 214 Q-16 208 -13 209 Q-3 212 9.5 220.5 Q22 229 36 241.5 Q50 254 65 269.5 Q80 285 95 300 Q104 298 98 291 Q92 284 77.5 269 Q63 254 46.5 239 Q30 224 13.5 212.5 Q-3 201 -12 201 Q-21 201 -24 209.5 Q-27 218 -25 232.5 Q-23 247 -16 265.5 Q-9 284 3 305 Q6 310 9 310 Q11 310 13 308 Z M20 325 Q15 328 18 336 Q20 340 23 347 Q26 354 29.5 361 Q33 368 36 373 Q39 378 40 378 Q41 378 44.5 377 Q48 376 46 374 L41 364 Q29 340 26.5 332 Q24 324 22 324 Q21 325 20 325 Z " />
<glyph glyph-name="uni006A" unicode="j" horiz-adv-x="83" d="M-154 4 Q-163 7 -172 17 Q-181 27 -184.5 40.5 Q-188 54 -183 69.5 Q-178 85 -158 100 Q-147 108 -120.5 123 Q-94 138 -65 158 L-52 167 Q-36 208 -24 240 Q-13 268 -4 290.5 Q5 313 6 313 Q8 314 11.5 312.5 Q15 311 14 306 Q13 302 7.5 285 Q2 268 -5 248.5 Q-12 229 -19 211 Q-26 193 -29 186 Q3 210 30 239.5 Q57 269 83 300 Q90 299 87 294 Q58 254 23.5 222.5 Q-11 191 -34 172 Q-38 163 -43.5 147.5 Q-49 132 -56.5 113.5 Q-64 95 -73.5 75.5 Q-83 56 -95 40 Q-121 3 -146 3 Q-151 3 -154 4 Z M-177 54 Q-178 43 -172 28.5 Q-166 14 -152 14 Q-149 14 -143 16 Q-125 25 -109.5 48 Q-94 71 -82 94 Q-68 122 -57 154 Q-59 154 -69 147 Q-93 131 -112.5 120 Q-132 109 -146.5 99 Q-161 89 -169 79 Q-177 69 -177 54 Z M31 355 Q23 337 23 331 Q23 327 21 327 Q18 327 16 331 Q14 334 15.5 340.5 Q17 347 20.5 354 Q24 361 27 366 Q30 371 31 371 Q36 369 36 367 Q36 365 31 355 Z " />
<glyph glyph-name="uni006B" unicode="k" horiz-adv-x="119" d="M2 254 Q1 253 -1 246 Q-3 239 -4.5 231.5 Q-6 224 -5.5 218 Q-5 212 0 212 Q7 211 19 218.5 Q31 226 43.5 236 Q56 246 67.5 256 Q79 266 84 270 Q98 282 108 291 Q114 296 119 300 Q124 299 125 297.5 Q126 296 121 291 Q106 279 89.5 264 Q73 249 57.5 236 Q42 223 28 214 Q14 205 5 205 Q2 205 0 206 Q-10 210 -10.5 219.5 Q-11 229 -12 229 Q-13 229 -19 215 Q-23 206 -24 202.5 Q-25 199 -27 199 Q-29 199 -30 199.5 Q-31 200 -33 201 Q-37 203 -38 205 Q-38 206 -37 210 Q-36 214 -30 229.5 Q-24 245 -10 278 Q4 311 29 370 Q52 425 66 459 Q80 493 88 511.5 Q96 530 99.5 536.5 Q103 543 106 543 Q108 543 110 541.5 Q112 540 115 538 Q114 536 114.5 536.5 Q115 537 114 534.5 Q113 532 110 523.5 Q107 515 98.5 494.5 Q90 474 75 438 Q60 402 36 345 Q32 335 29.5 329 Q27 323 25.5 319.5 Q24 316 23 313.5 Q22 311 20 308 Q23 310 28 312 Q33 314 38 314 Q41 314 45 312 Q55 304 50.5 294.5 Q46 285 36 276.5 Q26 268 15.5 262 Q5 256 2 254 Z M8 280 Q4 269 4 269 Q7 269 15 276 Q38 293 42.5 300.5 Q47 308 42 308 Q31 308 21.5 298.5 Q12 289 8 280 Z " />
<glyph glyph-name="uni006C" unicode="l" horiz-adv-x="117" d="M-13 172 Q-11 174 -7 175 Q-3 176 6.5 183.5 Q16 191 32.5 207 Q49 223 76 253 Q87 266 94.5 274.5 Q102 283 107 289 Q113 296 117 300 Q125 298 121.5 293.5 Q118 289 115 285 Q99 268 81.5 247 Q64 226 46.5 208 Q29 190 14.5 177.5 Q0 165 -10 165 L-13 165 Q-27 170 -27 184 Q-27 198 -25 210 Q-22 230 -14 256.5 Q-6 283 4.5 314.5 Q15 346 28.5 380 Q42 414 57 448 Q75 488 85.5 510.5 Q96 533 98 534 Q99 534 102 533.5 Q105 533 106 530 Q108 520 82.5 468.5 Q57 417 21 313 Q6 271 -1 243.5 Q-8 216 -11 200.5 Q-14 185 -13.5 178.5 Q-13 172 -13 172 Z " />
<glyph glyph-name="uni006D" unicode="m" horiz-adv-x="217" d="M39 254 Q13 221 5 207.5 Q-3 194 -10 194 Q-18 194 -23 201 Q-28 208 -24.5 226 Q-21 244 -14.5 262.5 Q-8 281 -1 296 Q6 311 7 312 Q8 312 8.5 312.5 Q9 313 10 313 Q17 313 20.5 307 Q24 301 19 299 Q17 299 12 286 Q7 273 1.5 257.5 Q-4 242 -7.5 228.5 Q-11 215 -10 214 Q-10 214 -2 225 Q6 236 19 251.5 Q32 267 49 284.5 Q66 302 84 315 Q93 321 94 321 Q96 321 99 318 Q102 315 97.5 308 Q93 301 86.5 290 Q80 279 73 264 Q66 249 64 231 Q63 221 66 221 Q69 221 74.5 227.5 Q80 234 88 244 Q96 254 105.5 266 Q115 278 126 289 Q140 303 152 315 Q164 327 165 327 Q168 329 171 325 Q174 321 173 319 Q173 319 165.5 306.5 Q158 294 149 276 Q140 258 132.5 239 Q125 220 125 206 Q125 202 128 202 Q131 202 137.5 207.5 Q144 213 151 221 Q158 229 164.5 237 Q171 245 175 250 Q195 275 205 286 Q215 297 217 300 Q227 299 221 291 Q189 255 170.5 227.5 Q152 200 138 194 Q136 193 132 193 Q123 193 117 202 Q112 210 114.5 224.5 Q117 239 122 252.5 Q127 266 132 276.5 Q137 287 137 288 Q137 288 133.5 284 Q130 280 124.5 274 Q119 268 113.5 261.5 Q108 255 104 250 Q87 229 80 221.5 Q73 214 68 214 Q67 214 66.5 214.5 Q66 215 65 215 Q55 220 55.5 233 Q56 246 61.5 260 Q67 274 73 285.5 Q79 297 80 299 Q82 302 77.5 297.5 Q73 293 66.5 285.5 Q60 278 52 269.5 Q44 261 39 254 Z " />
<glyph glyph-name="uni006E" unicode="n" horiz-adv-x="167" d="M18 300 Q14 299 8 286 Q2 273 -3 258 Q-8 243 -12 231 Q-16 219 -15 218 Q-14 217 -1 232.5 Q12 248 29 267 Q46 286 63 302 Q80 318 89 318 Q92 318 93 317 Q97 313 96.5 309 Q96 305 93 297.5 Q90 290 85.5 278 Q81 266 77 248 Q75 240 75.5 231 Q76 222 78 218 Q79 218 79.5 217.5 Q80 217 81 217 Q87 217 97.5 226.5 Q108 236 125 254 Q136 265 147.5 278.5 Q159 292 167 300 Q176 298 171 292 Q136 252 116.5 231.5 Q97 211 85 211 Q79 211 74 217 Q68 225 68.5 238.5 Q69 252 73 265.5 Q77 279 82 291.5 Q87 304 89 310 Q86 308 78 301.5 Q70 295 64 290 Q46 272 33.5 256 Q21 240 11.5 228 Q2 216 -4.5 208.5 Q-11 201 -16 201 Q-19 201 -20 202 Q-22 202 -26 206 Q-32 212 -29 228.5 Q-26 245 -19 263 Q-12 281 -3.5 295 Q5 309 9 309 Q14 309 18 305.5 Q22 302 18 300 Z " />
<glyph glyph-name="uni006F" unicode="o" horiz-adv-x="106" d="M38 258 Q35 252 30.5 243.5 Q26 235 20 227 Q14 219 8 213.5 Q2 208 -4 208 L-7 208 Q-19 212 -20 226.5 Q-21 241 -17 257.5 Q-13 274 -6.5 288 Q0 302 4 305 Q8 307 9 307 Q14 307 18.5 302.5 Q23 298 23 294 Q23 292 18 294 Q15 296 10.5 287 Q6 278 1.5 265.5 Q-3 253 -5.5 240 Q-8 227 -7 220 Q0 227 6 235.5 Q12 244 17 251.5 Q22 259 25 264.5 Q28 270 29 271 L27 273 Q23 278 23 285 Q23 292 25.5 299 Q28 306 32.5 311 Q37 316 41 316 Q46 316 50 310 Q53 305 51.5 295 Q50 285 45 273 Q56 274 75 283.5 Q94 293 106 300 Q109 299 111 297 Q113 295 107 292 Q79 277 66 272.5 Q53 268 48 267 Q43 266 42 265.5 Q41 265 38 258 Z M42 307 Q39 304 36 300 Q34 297 32.5 292 Q31 287 30 281 Q30 277 31 277 Q32 277 35 283 Q40 295 41 301 Q42 304 42 307 Z " />
<glyph glyph-name="uni0070" unicode="p" horiz-adv-x="123" d="M-125 -4 Q-89 84 -61 154 Q-49 184 -37.5 212 Q-26 240 -16.5 262.5 Q-7 285 -1 298.5 Q5 312 6 312 Q8 313 11.5 309.5 Q15 306 15 303 Q15 298 12 293 Q9 288 11 288 L12 289 Q13 290 14 290 Q19 295 28 301 Q37 307 45 307 Q58 307 62.5 291.5 Q67 276 50 250 Q48 246 46 244 Q52 246 64.5 254.5 Q77 263 90 274 Q105 285 123 300 Q133 299 124.5 291.5 Q116 284 96 268 Q78 253 67 247 Q56 241 50 238.5 Q44 236 41 234.5 Q38 233 34 228 Q20 211 10.5 205.5 Q1 200 -6 200 Q-14 200 -17.5 205 Q-21 210 -22 209 Q-47 148 -67 99 Q-75 79 -83 59 Q-91 39 -97.5 23.5 Q-104 8 -108.5 -1.5 Q-113 -11 -113 -11 Q-114 -12 -116 -12 Q-120 -12 -123.5 -9 Q-127 -6 -125 -4 Z M53 300 Q38 300 25.5 290 Q13 280 3 269 L-8 243 Q-1 245 6.5 244 Q14 243 21 239 Q24 239 30.5 247 Q37 255 42.5 265 Q48 275 51.5 285.5 Q55 296 53 300 Z M19 233 Q15 234 11.5 235.5 Q8 237 4 237 Q0 237 -3 235 Q-10 230 -14 220.5 Q-18 211 -13 211 Q-9 211 -3.5 214 Q2 217 6.5 221 Q11 225 14.5 228.5 Q18 232 19 233 Z " />
<glyph glyph-name="uni0071" unicode="q" horiz-adv-x="148" d="M34 290 Q45 299 53 306 Q61 313 63 313 Q65 313 67 310.5 Q69 308 69 306 Q69 303 65.5 297 Q62 291 54.5 278 Q47 265 36 243.5 Q25 222 10 188 Q4 175 0.5 165 Q-3 155 -5 150 Q-3 152 -0.5 153.5 Q2 155 6 155 Q7 155 7.5 154.5 Q8 154 10 154 Q16 153 20 147 Q22 144 24 141 Q45 163 60.5 181 Q76 199 89.5 217 Q103 235 116.5 255 Q130 275 148 300 Q155 299 153 295 Q125 250 101.5 219 Q78 188 61 168 Q42 146 26 132 Q24 110 18 85 Q12 63 0 35 Q-12 7 -32 -25 Q-44 -44 -51 -44 Q-62 -44 -64 -34 Q-66 -24 -66 -16 Q-65 10 -54.5 50 Q-44 90 -28 133.5 Q-12 177 6 216.5 Q24 256 40 280 Q35 275 26 267 Q17 259 7 251.5 Q-3 244 -11 238.5 Q-19 233 -23 233 Q-28 233 -33 236.5 Q-38 240 -36 249 Q-35 257 -28.5 267 Q-22 277 -14 286 Q-6 295 2 301.5 Q10 308 16 309 L18 309 Q23 309 26 306 Q29 303 31 300 Q33 295 34 290 Z M-52 -16 Q-53 -30 -52 -30 Q-51 -30 -42.5 -16.5 Q-34 -3 -23.5 18 Q-13 39 -3 64.5 Q7 90 13 114 Q15 124 15 125 Q15 126 13 125 Q5 123 3 123 Q-5 123 -8.5 126.5 Q-12 130 -14 128 Q-14 127 -19 112 Q-24 97 -30.5 75.5 Q-37 54 -43 29.5 Q-49 5 -52 -16 Z M25 295 Q25 298 21.5 296 Q18 294 12.5 289.5 Q7 285 1.5 279 Q-4 273 -8 268 Q-11 263 -15.5 256 Q-20 249 -20 248 Q-20 247 -13 252.5 Q-6 258 3 265 Q12 272 19.5 278 Q27 284 28 285 Q25 288 25 291 Q25 294 25 295 Z M15 137 Q15 139 14.5 143.5 Q14 148 11 148 Q6 148 -1.5 141.5 Q-9 135 -7 130 Q-7 129 -3 129 Q2 129 8.5 131 Q15 133 15 137 Z " />
<glyph glyph-name="uni0072" unicode="r" horiz-adv-x="142" d="M145 291 Q118 246 92.5 206.5 Q67 167 50 143 Q47 139 42 132 Q37 125 31 118.5 Q25 112 19 107.5 Q13 103 8 103 Q7 103 6.5 103.5 Q6 104 5 104 Q0 107 -1 114 Q-2 121 0 130.5 Q2 140 5.5 151 Q9 162 12 172 Q15 181 20.5 196.5 Q26 212 29.5 228.5 Q33 245 34.5 259.5 Q36 274 32 283 Q29 289 22 291.5 Q15 294 6.5 296 Q-2 298 -9.5 301 Q-17 304 -21 312 Q-24 319 -19 329.5 Q-14 340 -4.5 350 Q5 360 15.5 367 Q26 374 33 374 Q39 375 44.5 369.5 Q50 364 50 356 Q50 347 44 338.5 Q38 330 31 322 Q23 314 13 306 Q13 305 18.5 303 Q24 301 30 296 Q36 291 41 282 Q46 273 46 258 Q46 242 41 222 Q36 202 29 182 Q22 162 16 143.5 Q10 125 7 112 Q9 114 13 116 Q17 118 27.5 130.5 Q38 143 57.5 170.5 Q77 198 109 249 Q112 254 117.5 262.5 Q123 271 128 279 Q135 289 142 300 Q150 298 145 291 Z M-10 313 Q-10 311 -3 309.5 Q4 308 7 308 Q8 308 6.5 309 Q5 310 5 312 Q5 314 16 324.5 Q27 335 35 351 Q40 362 37 361 Q30 359 22 352.5 Q14 346 7 338.5 Q0 331 -5 323.5 Q-10 316 -10 313 Z " />
<glyph glyph-name="uni0073" unicode="s" horiz-adv-x="141" d="M15 244 Q11 253 7 264.5 Q3 276 1 287.5 Q-1 299 0.5 308.5 Q2 318 11 324 Q16 328 23 328 Q31 328 35 321.5 Q39 315 35 313 Q33 312 32 315 Q31 318 29 317 Q24 316 19.5 314 Q15 312 11 304 Q7 296 10 283 Q13 270 18.5 254.5 Q24 239 30 223 Q36 207 38 193 Q58 213 73 228 Q88 243 99.5 255.5 Q111 268 121 278.5 Q131 289 141 300 Q145 299 145.5 297 Q146 295 136.5 284 Q127 273 104 249.5 Q81 226 38 182 Q36 175 34 159.5 Q32 144 21 121 Q9 95 -6 85 Q-21 75 -35 75 Q-52 75 -60.5 88.5 Q-69 102 -55 121 Q-40 139 -18.5 150.5 Q3 162 27 183 Q27 194 25.5 208 Q24 222 15 244 Z M25 171 Q22 169 13.5 163 Q5 157 -5 150.5 Q-15 144 -24.5 137 Q-34 130 -39 126 Q-55 114 -56.5 99.5 Q-58 85 -44 85 Q-37 85 -33 87 Q-17 93 -5.5 107.5 Q6 122 13 136 Q20 150 22.5 160.5 Q25 171 25 171 Z " />
<glyph glyph-name="uni0074" unicode="t" horiz-adv-x="110" d="M109 545 Q111 545 114 544 Q117 543 114 537 Q113 534 107.5 523 Q102 512 95 497 Q88 482 80.5 465 Q73 448 66.5 434 Q60 420 56 410 Q52 400 52 399 Q52 399 67 398.5 Q82 398 103 396 Q124 394 147.5 390 Q171 386 189 379 Q197 375 195 373 Q193 371 190 370 Q172 377 148 381 Q124 385 102 387 Q80 389 64.5 389.5 Q49 390 48 390 Q20 315 7 272 Q-6 229 -10.5 206.5 Q-15 184 -14.5 176.5 Q-14 169 -14 166 Q-12 167 -9 167 Q-6 167 2 173.5 Q10 180 24.5 196 Q39 212 64 244 Q72 253 79.5 263 Q87 273 94 281 Q102 291 110 300 Q116 298 115.5 295.5 Q115 293 113 291 Q66 234 36.5 196 Q7 158 -10 158 Q-18 158 -23 166 Q-27 172 -27 185 Q-27 198 -24 214.5 Q-21 231 -15.5 251 Q-10 271 -4 290 Q10 335 31 389 Q7 389 -17 386 Q-40 384 -57 380 Q-74 376 -85 372 Q-98 368 -107 364 L-108 365 Q-112 369 -102 375 Q-92 381 -73 386 Q-54 391 -28.5 395 Q-3 399 24 399 L35 399 Q35 400 40 411 Q45 422 52.5 438 Q60 454 69 473 Q78 492 86 508 Q94 524 100.5 534.5 Q107 545 109 545 Z " />
<glyph glyph-name="uni0076" unicode="v" horiz-adv-x="110" d="M-7 203 Q-3 209 5 221 Q13 233 21.5 247 Q30 261 38 275.5 Q46 290 51 300 Q53 303 55 303 Q57 303 58 302 Q61 300 56.5 294 Q52 288 53 274 Q53 266 59 266 Q64 266 72 271 Q80 276 88 282 Q96 288 102 293.5 Q108 299 110 300 Q117 298 111 293 Q97 282 88.5 275 Q80 268 71 263 Q65 260 60 260 Q48 260 47 274 Q30 242 18 220 Q6 198 -2 190 Q-4 188 -9 188 Q-14 188 -19 194.5 Q-24 201 -21 222 Q-20 233 -16 248 Q-12 263 -8 276.5 Q-4 290 0 299.5 Q4 309 6 309 Q8 309 11 308 Q14 307 14 304 Q14 301 10.5 289.5 Q7 278 3 263 Q-1 248 -4.5 231.5 Q-8 215 -7 203 Z " />
<glyph glyph-name="uni0075" unicode="u" horiz-adv-x="150" d="M22 307 Q19 307 14.5 298.5 Q10 290 6 278.5 Q2 267 -1.5 255 Q-5 243 -6 237 Q9 253 22.5 268 Q36 283 45.5 295 Q55 307 61.5 314 Q68 321 69 321 Q77 319 77 316 Q77 313 75 308 Q71 297 63.5 277 Q56 257 49.5 237 Q43 217 38.5 201.5 Q34 186 36 183 Q45 183 63.5 201 Q82 219 102 241 Q124 267 150 300 Q158 299 154 292 Q148 283 133 264 Q118 245 101 225.5 Q84 206 67.5 191 Q51 176 40 176 Q35 176 33 177 Q23 183 25.5 202 Q28 221 35 241 Q42 261 49 276.5 Q56 292 54 291 Q53 291 46.5 282 Q40 273 31 262 Q22 251 13.5 241 Q5 231 0 227 Q-3 225 -7 225 Q-20 225 -20 238 Q-20 246 -16.5 259 Q-13 272 -8 284.5 Q-3 297 2.5 306.5 Q8 316 12 316 Q19 317 23 312 Q27 307 22 307 Z " />
<glyph glyph-name="uni0077" unicode="w" horiz-adv-x="156" d="M12 291 Q11 290 8 280 Q5 270 1 258.5 Q-3 247 -5.5 237.5 Q-8 228 -8 226 Q-4 230 4 243 Q12 256 21.5 269.5 Q31 283 40 293 Q49 303 54 301 Q59 298 59.5 295 Q60 292 58 286 Q56 280 52.5 270.5 Q49 261 47 246 Q46 237 46 227 Q46 217 48 215 Q50 213 59.5 223.5 Q69 234 86 263 Q80 269 79 277 Q78 285 80 292 Q82 299 86 304.5 Q90 310 93 313 Q95 315 99 315 Q102 315 104 314 Q109 311 109 305 Q109 299 107 292 Q105 285 102 278 Q99 271 97 266 Q111 266 127.5 278 Q144 290 156 300 Q164 298 157 293 Q137 276 124 268.5 Q111 261 94 260 Q92 255 87 246.5 Q82 238 76 229.5 Q70 221 64 214.5 Q58 208 52 208 Q41 208 38 221 Q35 232 36.5 247 Q38 262 40 268 Q37 263 29.5 251.5 Q22 240 14 228 Q6 216 -2 207 Q-10 198 -14 198 Q-15 198 -16 198.5 Q-17 199 -18 199 Q-27 204 -27 211 Q-27 217 -23.5 233 Q-20 249 -14.5 265.5 Q-9 282 -3.5 294.5 Q2 307 6 307 Q15 307 17 298 Q19 289 14 291 Q12 293 12 291 Z M87 267 Q92 275 97.5 287.5 Q103 300 101 310 Q97 307 93.5 300.5 Q90 294 88 287.5 Q86 281 85.5 275.5 Q85 270 87 267 Z " />
<glyph glyph-name="uni0078" unicode="x" horiz-adv-x="114" d="M-5 263 Q-1 291 0 300 Q1 309 4 309 Q6 309 8 308 Q13 306 13 300 Q13 294 12 273 Q29 292 35.5 299 Q42 306 44 308 Q46 310 46.5 310.5 Q47 311 52 316 Q57 314 56.5 311.5 Q56 309 54 307 Q33 285 24 273.5 Q15 262 10 257 Q9 248 8 239 Q7 231 7 223.5 Q7 216 7 211 Q9 206 10 206 Q11 207 12 207 Q26 214 51 238.5 Q76 263 100 286 L114 300 Q124 298 118 292 Q95 268 74 249 Q57 232 41 217.5 Q25 203 18 200 Q16 199 12 199 Q2 199 -3 208 Q-7 213 -7 221.5 Q-7 230 -8 235 Q-15 225 -21 216 Q-26 209 -30.5 202 Q-35 195 -37 191 Q-38 187 -42 190 Q-44 192 -44.5 194 Q-45 196 -41 202 Q-37 208 -29 219.5 Q-21 231 -6 252 L-5 263 Z " />
<glyph glyph-name="uni0079" unicode="y" horiz-adv-x="154" d="M-74 104 Q-70 109 -65 113 Q-60 117 -50.5 123.5 Q-41 130 -25.5 141 Q-10 152 16 171 Q19 179 22 186.5 Q25 194 29 205 Q33 216 39.5 231.5 Q46 247 56 270 Q49 263 40 254 Q31 245 22 237 Q13 229 5 223 Q-3 217 -9 217 Q-23 217 -23 232 Q-23 236 -19.5 248.5 Q-16 261 -11 274.5 Q-6 288 -1 298.5 Q4 309 7 309 Q10 309 13 303.5 Q16 298 14 298 Q13 298 8.5 287 Q4 276 -1.5 262.5 Q-7 249 -11 237.5 Q-15 226 -13 225 Q-6 227 7 237 Q20 247 33 259 Q46 271 56.5 283 Q67 295 70 300 Q71 302 73 306 Q75 310 78 308 Q85 303 82 294.5 Q79 286 71 266 Q62 246 54 226 Q46 206 41 191 Q47 196 65.5 213 Q84 230 104 250 Q127 273 154 300 Q162 298 158 293.5 Q154 289 140 274 Q111 244 93.5 226.5 Q76 209 65 199.5 Q54 190 47.5 185 Q41 180 34 174 Q30 164 23.5 147 Q17 130 8.5 110.5 Q0 91 -11 72 Q-22 53 -35 40 Q-47 28 -60 28 Q-70 28 -77 35 Q-84 42 -87 53.5 Q-90 65 -87 78.5 Q-84 92 -74 104 Z M-77 62 Q-77 57 -75.5 47.5 Q-74 38 -66 38 Q-56 38 -44 53 Q-32 68 -21 87.5 Q-10 107 -1.5 126 Q7 145 10 154 Q6 152 4 150.5 Q2 149 -1 146.5 Q-4 144 -10.5 139.5 Q-17 135 -29 127 Q-51 112 -64 99 Q-77 86 -77 62 Z " />
<glyph glyph-name="uni007A" unicode="z" horiz-adv-x="132" d="M-108 -15 Q-131 -15 -131 6 Q-131 14 -124.5 22.5 Q-118 31 -100 49 Q-82 67 -51 99 Q-20 131 30 185 Q30 203 25 212 Q20 221 14.5 226.5 Q9 232 4.5 237 Q0 242 1 252 Q1 260 11 271.5 Q21 283 31.5 294 Q42 305 49 313.5 Q56 322 52 322 Q48 322 39 318 Q30 314 22 309 Q8 300 5.5 295 Q3 290 0 292 Q-3 295 0.5 300.5 Q4 306 11 311 Q18 316 26 320.5 Q34 325 38 327 Q42 329 48 329 Q53 329 55 327 Q65 319 54.5 305.5 Q44 292 26 270 Q17 260 13.5 254 Q10 248 10 244.5 Q10 241 12 239 Q14 237 17 234 Q25 226 31 217.5 Q37 209 39 196 Q39 196 39.5 196 Q40 196 47.5 205 Q55 214 74 235.5 Q93 257 132 300 Q137 299 137.5 297 Q138 295 130.5 286 Q123 277 107 259.5 Q91 242 62 210 L41 186 Q40 177 40 168 Q40 159 33 137 Q26 113 11 86.5 Q-4 60 -23.5 37.5 Q-43 15 -65 0 Q-87 -15 -108 -15 Z M-121 9 Q-129 -6 -112 -6 Q-104 -6 -90.5 0 Q-77 6 -61.5 18.5 Q-46 31 -30 50.5 Q-14 70 1 98 Q9 115 14.5 128 Q20 141 23 151 Q26 162 28 171 Q-15 123 -42.5 94.5 Q-70 66 -86 49.5 Q-102 33 -109.5 25 Q-117 17 -121 9 Z " />
<glyph glyph-name="uni007B" unicode="&#x7b;" horiz-adv-x="121" d="M6 154 Q14 154 25.5 158.5 Q37 163 45 168 Q46 169 50 169 Q53 169 55 167.5 Q57 166 52 161 Q30 147 13 147 Q-4 147 -11.5 161 Q-19 175 -10 201 Q-5 218 4.5 231 Q14 244 23 253 Q32 262 38.5 267.5 Q45 273 45 273 Q45 273 41 271.5 Q37 270 32 268.5 Q27 267 22.5 266 Q18 265 17 265 Q12 264 10.5 267 Q9 270 9 272 Q9 274 16 282.5 Q23 291 33 303.5 Q43 316 54.5 332 Q66 348 74 364 Q84 383 88.5 398 Q93 413 96.5 425 Q100 437 103.5 446.5 Q107 456 114 465 Q120 473 129.5 479.5 Q139 486 146 486 Q154 486 157 481 Q160 476 158 476 Q157 476 156 477 Q155 478 152 478 Q143 478 135.5 471 Q128 464 122.5 454.5 Q117 445 114 434.5 Q111 424 109 417 Q103 392 95.5 374 Q88 356 78.5 341 Q69 326 57.5 311.5 Q46 297 31 279 Q32 279 39 280.5 Q46 282 53 282 Q61 282 62 279 Q64 276 60 272 Q56 268 48.5 262 Q41 256 31 246.5 Q21 237 12 222 Q6 212 1.5 200 Q-3 188 -4.5 178 Q-6 168 -3.5 161 Q-1 154 6 154 Z " />
<glyph glyph-name="uni007C" unicode="&#x7c;" horiz-adv-x="109" d="M-4 141 Q-6 139 -11.5 143.5 Q-17 148 -15 152 Q-15 153 -5 177 Q5 201 19.5 236.5 Q34 272 51.5 314 Q69 356 84 392.5 Q99 429 110 454 Q121 479 122 481 Q123 485 127 485 Q129 485 131.5 481.5 Q134 478 133 476 Q133 474 122.5 448 Q112 422 97 384.5 Q82 347 64.5 304.5 Q47 262 32 225.5 Q17 189 6.5 165 Q-4 141 -4 141 Z " />
<glyph glyph-name="uni007D" unicode="&#x7d;" horiz-adv-x="127" d="M97 271 Q99 269 99 265.5 Q99 262 95 263 Q91 263 83 261.5 Q75 260 67.5 257.5 Q60 255 54 251.5 Q48 248 46 243 Q44 238 50 229 Q56 220 61 209 Q68 189 61 173 Q54 157 34 149 Q27 147 16 145 Q5 143 -5 143 Q-12 143 -20 145 Q-27 147 -29 151.5 Q-31 156 -27 156 Q-26 156 -25.5 155.5 Q-25 155 -24 155 Q-18 153 -10 153 Q7 153 27.5 160.5 Q48 168 54 189 Q58 202 51.5 214 Q45 226 40 236.5 Q35 247 38 256 Q41 265 65 272 Q72 274 69 275 Q68 275 63.5 281 Q59 287 57 291 Q51 303 53 318.5 Q55 334 62 349.5 Q69 365 78 379.5 Q87 394 94 405 Q96 408 102 417.5 Q108 427 113 438.5 Q118 450 119.5 460 Q121 470 114 473 Q110 475 104 475 Q102 475 100.5 474.5 Q99 474 97 474 Q93 472 89 477 Q85 482 89 484 Q91 486 99 486 Q101 486 103 485.5 Q105 485 107 485 Q119 482 125 467.5 Q131 453 126 436 Q123 424 116 413.5 Q109 403 101 391 Q93 379 84.5 364.5 Q76 350 69 331 Q61 309 63 298.5 Q65 288 71.5 283.5 Q78 279 86 277.5 Q94 276 97 271 Z " />
<glyph glyph-name="uni007E" unicode="&#x7e;" horiz-adv-x="101" d="M44 313 Q51 308 47.5 302.5 Q44 297 48 297 Q51 297 68 304 Q72 306 74 307 Q76 308 78 308 Q80 308 81 305 Q82 302 81 300 Q81 299 72.5 294.5 Q64 290 59 288 Q53 285 49 285 Q41 285 39.5 291.5 Q38 298 38 302 Q35 300 25.5 294.5 Q16 289 15 288 Q13 286 9 290 Q5 294 7 295 Q9 296 14 299.5 Q19 303 24.5 306.5 Q30 310 35 312.5 Q40 315 41 315 Q42 315 44 313 Z " />
<glyph glyph-name="uni20AC" unicode="&#x20ac;" horiz-adv-x="93" d="M68 287 Q67 285 66.5 282 Q66 279 64 277 Q71 277 72 276 Q75 276 75 271 Q75 269 74 267 Q72 267 68.5 266.5 Q65 266 60 266 Q52 250 42 239.5 Q32 229 23 229 Q12 229 7 241 Q4 249 6.5 270 Q9 291 18 317 Q26 343 33 343 Q34 342 35 342 Q37 340 41.5 343 Q46 346 52 346 Q59 346 66 339 Q73 333 73.5 321 Q74 309 70 295 L75 295 Q75 288 74 288 L72 288 Q71 287 68 287 Z M51 286 Q45 285 40.5 285 Q36 285 35 285 Q32 283 32 288 Q32 293 34 295 L44 295 L54 295 Q59 312 60.5 324.5 Q62 337 57 335 Q51 333 44 328 Q37 323 35 322 Q31 313 27 300.5 Q23 288 21 276.5 Q19 265 18.5 255 Q18 245 20 240 Q33 250 42 266 Q35 265 30.5 265 Q26 265 24 264 Q22 262 22 265 Q17 273 26.5 275 Q36 277 47 277 Q49 280 51 286 Z " />
<glyph glyph-name="uni201A" unicode="&#x201a;" horiz-adv-x="99" d="M2 212 Q-1 215 2 217 Q8 226 12 233 Q16 240 14 242 Q13 245 15 245 Q17 245 20 241 Q23 237 22 232 Q21 229 15 219.5 Q9 210 5 210 Q4 210 2 212 Z " />
<glyph glyph-name="uni201E" unicode="&#x201e;" horiz-adv-x="100" d="M11 211 Q12 213 18 222.5 Q24 232 25 239 Q25 244 28 242 Q33 240 32 234 Q31 228 28 222 Q25 216 21 211.5 Q17 207 16 207 Q15 207 13 208.5 Q11 210 11 211 Z M15 243 Q22 239 19 231.5 Q16 224 9 215 Q5 210 4 209.5 Q3 209 -2 209 Q-6 212 -3.5 214 Q-1 216 5 225 Q11 235 11 239.5 Q11 244 13 244 Q14 244 15 243 Z " />
<glyph glyph-name="uni2020" unicode="&#x2020;" horiz-adv-x="95" d="M45 285 Q45 285 41 276 Q37 267 32.5 255 Q28 243 23 230.5 Q18 218 15 211 Q10 199 8.5 194.5 Q7 190 5 190 Q3 190 1 192 Q-1 193 -1 196 Q-1 198 3.5 212 Q8 226 14 241.5 Q20 257 25 270 Q30 283 30 284 Q30 285 26 284.5 Q22 284 19 287 Q17 289 17 290 Q17 292 34 293 Q38 302 40.5 307.5 Q43 313 44.5 317 Q46 321 48 325.5 Q50 330 54 339 Q68 371 77 392 Q86 413 91 426 Q96 439 98.5 444 Q101 449 102 450 Q104 451 106 449 Q108 447 108 445 Q108 443 103.5 431 Q99 419 92.5 402.5 Q86 386 78.5 367.5 Q71 349 64.5 333 Q58 317 53.5 306 Q49 295 49 295 Q49 293 56.5 293.5 Q64 294 65 288 Q65 286 64 286 Q63 286 55 286 Q53 286 51.5 285.5 Q50 285 48 285 Q46 285 45 285 Z " />
<glyph glyph-name="uni2021" unicode="&#x2021;" horiz-adv-x="106" d="M67 321 Q65 319 68 319.5 Q71 320 73 317 Q76 312 73 312 Q70 312 62 310 Q57 298 54.5 292.5 Q52 287 51 284 Q50 281 49.5 279 Q49 277 48 274 Q53 272 50 269.5 Q47 267 44 265 Q32 235 25 217 Q18 199 14 189.5 Q10 180 8.5 177.5 Q7 175 6 175 Q-1 175 -1 183 Q0 186 5.5 202 Q11 218 18 235 Q23 249 24.5 253 Q26 257 24 257 Q22 257 20 256 Q18 255 16 255 Q13 255 13 258 Q11 261 13 262.5 Q15 264 23 268 Q28 270 29 271 Q31 271 32 272 Q32 275 39 289 Q41 296 45 305 L42 305 Q39 305 37 307.5 Q35 310 36 312 Q37 313 43 315 Q46 316 50 317 Q65 353 77 382 Q88 406 97 426.5 Q106 447 108 448 Q109 448 111.5 446 Q114 444 114 442 Q115 440 107.5 421.5 Q100 403 91 380 Q81 354 67 321 Z " />
<glyph glyph-name="uni02C6" unicode="&#x2c6;" horiz-adv-x="99" d="M85 517 Q83 515 79.5 511 Q76 507 76 506 Q76 503 72 506 Q67 509 68.5 513.5 Q70 518 74 522.5 Q78 527 82.5 530.5 Q87 534 88 534 Q90 534 93.5 532.5 Q97 531 96 526 Q96 526 94 516 Q92 506 92 504 Q92 502 90 503 Q84 506 85.5 512.5 Q87 519 85 517 Z " />
<glyph glyph-name="uni02D8" unicode="&#x2d8;" horiz-adv-x="100" d="M72 526 Q69 526 67.5 520.5 Q66 515 68 514 Q71 511 79 519.5 Q87 528 87 536 Q87 540 91 538 Q95 537 93 525 Q92 518 87 511 Q82 504 74 504 Q65 504 60.5 514 Q56 524 65 533 Q66 534 68 534 Q70 534 72 530 Q74 526 72 526 Z " />
<glyph glyph-name="uni02D9" unicode="&#x2d9;" horiz-adv-x="100" d="M80 512 Q76 514 78 520.5 Q80 527 85 527 Q90 527 91.5 522.5 Q93 518 90 514 Q87 510 84 510 Q82 510 80 512 Z " />
<glyph glyph-name="uni02DA" unicode="&#x2da;" horiz-adv-x="100" d="M71 514 Q71 516 73 522 Q75 528 77 528 Q84 528 90 524 Q99 518 95 510 Q90 500 80 502 Q75 502 73 506.5 Q71 511 71 514 Z M83 516 Q84 518 82.5 518 Q81 518 80 516 Q80 514 81 514 Q82 514 83 516 Z " />
<glyph glyph-name="uni02DD" unicode="&#x2dd;" horiz-adv-x="100" d="M77 505 Q76 508 77 509 Q78 511 86.5 516 Q95 521 98 522 Q103 523 103.5 517 Q104 511 102 513 Q102 514 96 511 Q90 508 84 504 Q78 502 79 502 Q79 502 77 505 Z M87 519 Q86 520 81 516 Q76 512 72 508 Q69 505 67 509 Q66 514 71 519 Q83 530 85 528 Q87 527 88 523 Q89 519 87 519 Z " />
<glyph glyph-name="uni02DB" unicode="&#x2db;" horiz-adv-x="100" d="M22 -25 Q18 -27 16 -27 Q11 -27 7.5 -22 Q4 -17 4 -13 Q3 -8 5.5 -1 Q8 6 11 8 Q14 10 16.5 7 Q19 4 16 1 Q13 -2 11 -14 Q11 -19 13 -19 Q15 -19 16 -18 Q17 -17 19 -17 Q22 -17 23 -20 Q26 -24 22 -25 Z " />
<glyph glyph-name="uni02C7" unicode="&#x2c7;" horiz-adv-x="100" d="M71 528 Q71 529 73 529 Q78 529 79 524.5 Q80 520 80 516 Q85 521 89 524.5 Q93 528 97 528 Q100 528 102 526 Q102 524 103 523 Q85 502 80 502 Q77 502 76 503 Q73 505 72 507.5 Q71 510 71 518 L71 528 Z " />
<glyph glyph-name="uni0131" unicode="&#x131;" horiz-adv-x="95" d="M-13 209 Q-3 212 9.5 220.5 Q22 229 36 241.5 Q50 254 65 269.5 Q80 285 95 300 Q104 298 98 291 Q92 284 77.5 269 Q63 254 46.5 239 Q30 224 13.5 212.5 Q-3 201 -12 201 Q-21 201 -24 209.5 Q-27 218 -25 232.5 Q-23 247 -16 265.5 Q-9 284 3 305 Q6 310 9 310 Q11 310 13 308 Q15 306 15 304 Q15 302 13 297 Q11 292 6.5 282.5 Q2 273 -4 257 Q-5 254 -7.5 245.5 Q-10 237 -12.5 228.5 Q-15 220 -15.5 214 Q-16 208 -13 209 Z " />
<glyph glyph-name="uni2039" unicode="&#x2039;" horiz-adv-x="100" d="M26 290 Q27 289 31.5 287 Q36 285 41.5 282.5 Q47 280 52 277.5 Q57 275 57 275 Q59 274 59 268 Q59 266 58 264 Q51 266 42.5 268.5 Q34 271 28 275 Q22 279 19 284 Q16 289 18 297 Q21 303 37 310 Q46 315 61.5 320.5 Q77 326 78 325 Q80 324 80 321.5 Q80 319 79 317 Q75 308 72 311 Q71 311 63.5 308 Q56 305 47.5 301.5 Q39 298 32.5 294.5 Q26 291 26 290 Z " />
<glyph glyph-name="uni2018" unicode="&#x2018;" horiz-adv-x="100" d="M87 504 Q81 508 80 515 Q79 522 81 528.5 Q83 535 86.5 539.5 Q90 544 94 544 Q98 543 100 540.5 Q102 538 98 537 Q93 536 88.5 524.5 Q84 513 88 508 Q90 506 90.5 504.5 Q91 503 89 503 Q88 503 87 504 Z " />
<glyph glyph-name="uni2019" unicode="&#x2019;" horiz-adv-x="100" d="M76 509 Q78 512 82 518.5 Q86 525 88 531 Q90 539 88 543.5 Q86 548 90 548 Q96 548 97 539 Q98 529 94 519 Q92 514 90 511 Q88 508 86 506 Q83 503 81 501 Q80 501 76 503.5 Q72 506 76 509 Z " />
<glyph glyph-name="uni201C" unicode="&#x201c;" horiz-adv-x="100" d="M81 546 Q85 544 86 541.5 Q87 539 84 539 Q81 539 78 534 Q75 529 72.5 522.5 Q70 516 69 509.5 Q68 503 69 500 Q69 498 68 498 Q66 498 64 501 Q61 504 61 512 Q61 520 63 527.5 Q65 535 69 541 Q73 547 78 547 Q79 547 79.5 546.5 Q80 546 81 546 Z M87 503 Q81 506 80 512.5 Q79 519 80.5 525.5 Q82 532 85.5 537 Q89 542 93 542 L95 542 Q98 540 100 538 Q102 536 99 535 Q94 533 89.5 522 Q85 511 90 506 Q95 501 92 501 Q91 501 87 503 Z " />
<glyph glyph-name="uni201D" unicode="&#x201d;" horiz-adv-x="100" d="M84 501 Q81 503 82 507 Q83 511 88 523 Q90 526 89.5 529 Q89 532 89 534 Q89 537 90 537 Q92 537 94.5 534 Q97 531 98 528 Q99 525 97.5 520.5 Q96 516 93.5 511.5 Q91 507 89 503.5 Q87 500 87 500 L86 500 Q85 500 85 500.5 Q85 501 84 501 Z M82 522 Q80 513 75 506 Q73 502 70 504 Q65 506 69 513 Q75 524 75 530.5 Q75 537 77 537 Q80 537 82 532 Q84 527 82 522 Z " />
<glyph glyph-name="uni2022" unicode="&#x2022;" horiz-adv-x="100" d="M35 279 Q31 280 29 284.5 Q27 289 27.5 294 Q28 299 31.5 303 Q35 307 41 307 Q45 307 47 306 Q52 304 53.5 299 Q55 294 53 289 Q52 287 49 282.5 Q46 278 39 278 Q37 278 35 279 Z " />
<glyph glyph-name="uni2013" unicode="&#x2013;" horiz-adv-x="100" d="M15 295 Q13 300 18.5 301.5 Q24 303 42 303 L80 303 Q82 303 82 299.5 Q82 296 81 296 Q50 295 36.5 294.5 Q23 294 18 294 Q15 294 15 295 Z " />
<glyph glyph-name="uni2014" unicode="&#x2014;" horiz-adv-x="120" d="M9 296 Q9 298 8 300 Q7 302 11 304 Q15 306 27 306.5 Q39 307 54 307 Q73 307 89 306 Q105 305 106 303 Q107 296 103 296 Q100 296 98 297 Q96 298 84 298 Q72 298 58 298 Q44 298 31.5 298 Q19 298 15 297 L9 296 Z " />
<glyph glyph-name="uni02DC" unicode="&#x2dc;" horiz-adv-x="99" d="M75 523 Q70 521 66 519 Q63 517 60 515 Q57 513 57 511 Q57 508 54 511 Q50 515 56 520 Q60 524 68.5 528 Q77 532 79 531 Q82 530 82 525.5 Q82 521 79 516 Q81 516 82 515.5 Q83 515 84 515 Q90 515 94.5 516.5 Q99 518 101 519 Q103 514 103 513 Q103 512 97 510 Q90 507 84 507 Q76 507 74 515 Q74 519 75 523 Z " />
<glyph glyph-name="uni2122" unicode="&#x2122;" horiz-adv-x="150" d="M149 522 Q144 508 142.5 503.5 Q141 499 140 499 Q139 499 137 502 Q135 504 135 507 Q135 510 138 519 Q141 527 141 529 Q140 529 134 520 Q128 511 125 511 Q121 511 118 515 Q116 511 113 509 Q109 503 105 503 Q100 504 99 508.5 Q98 513 98.5 518 Q99 523 101 527 Q103 531 105 531 Q110 532 111 529 Q112 526 113 525 Q115 527 117 531.5 Q119 536 120 538 Q122 541 125 541 Q130 539 128.5 535 Q127 531 127 528 L134 536 Q142 547 144 548 Q146 549 148 548 Q157 544 149 522 Z M71 538 Q71 541 77 544.5 Q83 548 90.5 550.5 Q98 553 106 555 Q114 557 119 557 Q127 557 128 553 Q131 547 126 548.5 Q121 550 104 545 Q99 543 101 542 Q103 541 101 539 Q99 538 95.5 529.5 Q92 521 89 513 Q88 508 86 508 Q84 508 83 510 Q80 513 81.5 516.5 Q83 520 88 537 L89 539 Q87 538 83 536 Q79 534 79 532 Q78 528 74.5 532 Q71 536 71 538 Z M107 517 Q108 517 109.5 519.5 Q111 522 112 523 Q112 524 110.5 524 Q109 524 108 523 L108 520 L107 517 Z " />
<glyph glyph-name="uni203A" unicode="&#x203a;" horiz-adv-x="100" d="M57 278 Q53 276 40.5 270 Q28 264 23 262 Q17 259 15 259 Q13 259 13 261 Q11 266 13 267.5 Q15 269 21 273 Q29 278 39.5 282.5 Q50 287 52 289 Q53 290 38 302 Q32 308 29 308 Q26 308 26 313.5 Q26 319 29 319 Q32 319 41 311.5 Q50 304 55 301 Q74 288 57 278 Z " />
<glyph glyph-name="uni00A2" unicode="&#xa2;" horiz-adv-x="100" d="M55 318 Q51 314 46.5 308 Q42 302 38.5 296 Q35 290 33 286 Q31 282 31 282 Q31 282 37 284 Q39 285 42 285 Q47 285 50 278 Q45 276 40 273.5 Q35 271 34 270 Q22 243 18.5 233.5 Q15 224 12 224 Q11 224 9 226 Q8 228 7.5 229 Q7 230 8.5 234 Q10 238 13.5 247 Q17 256 24 272 Q24 274 21.5 275 Q19 276 18 279.5 Q17 283 19.5 290 Q22 297 32 311 Q36 316 41 322 Q46 328 48 329 Q49 329 51 334.5 Q53 340 55 346.5 Q57 353 59.5 359 Q62 365 64 366 Q65 367 66 367 Q68 367 69.5 363.5 Q71 360 70 358 Q67 351 63.5 343 Q60 335 60 334 L64 330 Q72 322 67 310 Q62 298 60 287 Q59 283 56 285 Q50 290 52.5 299 Q55 308 59 322 L55 318 Z " />
<glyph glyph-name="uni00A3" unicode="&#xa3;" horiz-adv-x="118" d="M5 199 Q12 201 12 203 Q13 204 15.5 209 Q18 214 20.5 219.5 Q23 225 25.5 230 Q28 235 28 235 Q28 236 26 236 Q24 236 22 235.5 Q20 235 18 235 Q15 235 14 236 Q9 241 11 243 Q13 245 22 245.5 Q31 246 32 246 Q33 246 36.5 255.5 Q40 265 44 275 Q56 307 65.5 338.5 Q75 370 83 395 Q91 420 98 436 Q105 452 112 452 Q117 452 121 445 Q125 438 125 426 Q125 414 123 401.5 Q121 389 118 376 Q115 363 114 353 Q114 348 112 344 Q112 342 111 340 Q104 342 104.5 352.5 Q105 363 108 378 Q111 393 114.5 408.5 Q118 424 117 434 Q117 439 115 439 Q112 439 104 418 Q96 397 86.5 367 Q77 337 67 303.5 Q57 270 48 246 Q47 245 52 245 Q57 245 60.5 244 Q64 243 60 238 Q58 236 52 236 L47 236 L44 236 Q43 235 39.5 227.5 Q36 220 27 200 Q34 198 40 196 Q46 193 51.5 189 Q57 185 61 179 Q64 175 60 175 Q58 175 57 176 Q45 184 36.5 186.5 Q28 189 23 191 Q22 190 18 182.5 Q14 175 7.5 166 Q1 157 -6 149.5 Q-13 142 -20 142 Q-23 142 -25 143 Q-34 148 -33.5 156 Q-33 164 -28 172.5 Q-23 181 -13.5 188.5 Q-4 196 5 199 Z M-24 153 Q-20 155 -15 160 Q-10 165 -6 170.5 Q-2 176 0.5 181 Q3 186 3 186 Q3 187 -1 184 Q-5 181 -10.5 176 Q-16 171 -20 164.5 Q-24 158 -24 153 Z " />
<glyph glyph-name="uni00A4" unicode="&#xa4;" horiz-adv-x="101" d="M38 270 Q27 255 27 255 Q26 255 24 257 Q24 258 23.5 258 Q23 258 23 259 L22 260 Q22 261 25.5 267 Q29 273 31 275 Q34 277 31 282 Q28 287 35 303 Q37 307 36 308 Q34 312 32 322 Q30 332 32 334 Q34 336 35 336 Q37 336 38 332.5 Q39 329 40 325 Q42 317 42.5 315 Q43 313 45 315 Q47 317 56 317 Q61 317 63 315 Q64 314 66 314 Q69 314 70.5 317 Q72 320 75 318 Q77 316 77.5 313.5 Q78 311 72 306 Q74 292 69.5 287 Q65 282 65 279 Q65 276 68 269 Q71 262 71 261 L69 261 Q69 260 67 260 Q62 261 61 266.5 Q60 272 58 274 Q52 268 45 268 Q42 268 38 270 Z M42 282 Q44 280 46 280 Q50 280 53 283 Q61 288 63 296 Q65 304 63 306 Q62 307 61 307 Q59 307 56 305 Q53 303 51 304 Q50 306 48 304 Q45 299 41 291.5 Q37 284 42 282 Z " />
<glyph glyph-name="uni00A5" unicode="&#xa5;" horiz-adv-x="149" d="M37 239 Q42 250 43 253.5 Q44 257 43 257 Q42 257 41.5 256.5 Q41 256 40 256 Q38 256 36 259 Q34 262 39 263.5 Q44 265 48 267 Q51 274 52 276.5 Q53 279 54.5 283.5 Q56 288 60.5 297.5 Q65 307 74 328 Q74 329 70 331 Q66 333 62.5 340 Q59 347 58 361.5 Q57 376 61 402 Q61 405 63.5 414.5 Q66 424 69.5 434.5 Q73 445 77.5 453.5 Q82 462 86 462 Q87 462 88 461 Q91 460 88 453 Q82 445 77 427.5 Q72 410 69.5 391.5 Q67 373 67.5 357 Q68 341 74 335 Q77 333 87.5 343.5 Q98 354 106 368 Q116 385 123 401.5 Q130 418 134.5 431 Q139 444 142 452.5 Q145 461 147 461 Q153 461 150 448.5 Q147 436 141 419.5 Q135 403 128.5 388 Q122 373 119 368 Q111 352 102 341 Q93 330 85 328 Q83 328 82.5 327 Q82 326 80.5 321.5 Q79 317 75.5 308.5 Q72 300 66 283 Q65 280 64 277.5 Q63 275 62 273 Q61 270 60 268 Q63 268 65 268 Q70 268 70 264 Q70 261 64 261 Q59 261 57.5 260 Q56 259 53 251 Q51 245 50.5 243.5 Q50 242 51 242 Q53 241 54.5 239 Q56 237 55 236 Q55 235 51.5 234 Q48 233 47 232 Q46 232 41.5 219 Q37 206 31.5 191 Q26 176 21 163 Q16 150 16 148 Q16 145 13 145 L8 145 Q5 146 6 150 Q15 180 21 196 Q27 212 30 219.5 Q33 227 33 228 Q33 229 30 229 Q27 229 25 231 Q21 236 25.5 236.5 Q30 237 37 239 Z " />
<glyph glyph-name="uni00A6" unicode="&#xa6;" horiz-adv-x="131" d="M53 288 Q53 290 58 305.5 Q63 321 71 342.5 Q79 364 89 389 Q99 414 108.5 435 Q118 456 125 469.5 Q132 483 134 483 Q136 483 139 480 Q142 477 140 475 Q138 473 130.5 456 Q123 439 107 402 Q91 364 81.5 340.5 Q72 317 67.5 304.5 Q63 292 61.5 288 Q60 284 58 284 Q57 284 55 285.5 Q53 287 53 288 Z M15 169 Q6 148 1.5 135 Q-3 122 -5 115 Q-7 108 -8 105.5 Q-9 103 -10 103 Q-12 103 -15 105 Q-18 107 -18 109 L-14 123 Q-10 137 -3 157 Q4 177 12 196.5 Q20 216 27.5 232 Q35 248 39 255 Q42 258 43 258 Q46 258 47 255 Q49 254 49 253 Q49 252 46 245 Q43 238 36 221 Q29 204 15 169 Z " />
<glyph glyph-name="uni00A7" unicode="&#xa7;" horiz-adv-x="130" d="M53 223 Q50 225 42 227.5 Q34 230 26.5 234.5 Q19 239 14.5 246.5 Q10 254 14 266 Q18 277 27.5 287.5 Q37 298 46.5 306 Q56 314 62.5 319 Q69 324 66 324 Q57 324 48 334 Q39 344 42 353 Q44 359 53.5 367.5 Q63 376 75 383 Q87 390 98 395 Q109 400 115 400 Q117 400 118 399 Q119 398 119.5 394.5 Q120 391 117 391 Q111 390 99.5 384 Q88 378 76.5 370 Q65 362 56.5 354.5 Q48 347 48 343 Q48 339 59 335 Q66 332 74.5 330 Q83 328 90 325 Q97 322 102 318 Q107 314 107 307 Q107 301 96.5 292 Q86 283 73.5 274 Q61 265 50 259 Q39 253 38 253 Q35 253 33 259 Q33 261 33.5 261.5 Q34 262 38 264 Q61 279 79 292 Q97 305 99 310 Q101 312 98 313 Q95 314 80 319 Q63 305 51 292 Q40 281 30.5 269.5 Q21 258 21 250 Q21 246 23 245 Q27 243 35 240 Q43 237 50 232.5 Q57 228 60 221.5 Q63 215 57 207 Q54 203 46.5 195 Q39 187 30.5 179 Q22 171 15.5 165.5 Q9 160 9 160 Q7 160 6 162 Q5 164 4 166 Q3 168 11.5 176.5 Q20 185 29.5 195 Q39 205 47 213.5 Q55 222 53 223 Z " />
<glyph glyph-name="uni00A8" unicode="&#xa8;" horiz-adv-x="100" d="M65 514 Q61 517 62.5 521 Q64 525 68 525 Q72 525 75 521 Q78 517 76 514 Q74 511 70 511 Q67 511 65 514 Z M83 510 Q80 513 81.5 517 Q83 521 87 521 Q91 521 94 517 Q97 513 95 510 Q93 507 89 507 Q86 507 83 510 Z " />
<glyph glyph-name="uni00A9" unicode="&#xa9;" horiz-adv-x="131" d="M106 313 Q106 300 99 289.5 Q92 279 81.5 271 Q71 263 59.5 258.5 Q48 254 39 254 Q33 254 31 255 Q19 260 15 270 Q11 280 13 292 Q15 304 21.5 315 Q28 326 37 333 Q42 336 42 338 Q42 340 49.5 342 Q57 344 67 344 Q81 344 93.5 338 Q106 332 106 313 Z M95 328 Q93 330 85.5 331.5 Q78 333 70 333 Q58 333 52 330 Q42 324 36 314 Q30 304 27 293.5 Q24 283 24 275 Q24 267 27 266 Q33 264 37 264 Q49 264 59.5 270 Q70 276 78 285.5 Q86 295 90.5 306.5 Q95 318 95 328 Z M41 280 Q29 283 33 296 Q34 299 38.5 303.5 Q43 308 48.5 312.5 Q54 317 60.5 320.5 Q67 324 72 324 Q77 324 80 320 Q81 319 82 315.5 Q83 312 79 314 Q78 315 77 315 Q74 315 68.5 311.5 Q63 308 57.5 303.5 Q52 299 48.5 295.5 Q45 292 45 291 Q45 289 53.5 291.5 Q62 294 65 293 Q70 291 70 285 Q70 283 61.5 281 Q53 279 46 279 Q42 279 41 280 Z " />
<glyph glyph-name="uni00AA" unicode="&#xaa;" horiz-adv-x="101" d="M88 496 Q83 500 83 504 Q83 508 82 509 Q79 507 73 502.5 Q67 498 61 498 Q58 498 56 500 Q51 504 52 510 Q54 515 61.5 523.5 Q69 532 77 532 Q81 532 84 529 Q87 526 88 527 Q88 529 89.5 531 Q91 533 93 533 Q96 533 97 530 Q101 525 97.5 523.5 Q94 522 91 509 Q88 500 91 500 Q93 498 92.5 496.5 Q92 495 90 495 Q89 495 88 496 Z M69 516 Q63 510 64 510 Q66 510 77 518 Q85 525 82 525 Q77 525 69 516 Z " />
<glyph glyph-name="uni00AB" unicode="&#xab;" horiz-adv-x="120" d="M41 263 Q35 265 28 267.5 Q21 270 18 273 Q11 278 10.5 286 Q10 294 14 299 Q17 305 26.5 310 Q36 315 47.5 319 Q59 323 70.5 325.5 Q82 328 89 328 Q93 328 94 327 Q96 325 95 322 Q94 319 92 316.5 Q90 314 87.5 313 Q85 312 85 313 Q85 315 83 315 Q79 315 69 312 Q59 309 48 305.5 Q37 302 28.5 297.5 Q20 293 18 290 Q18 289 25 283.5 Q32 278 41 275 L47 273 Q49 261 41 263 Z M54 278 Q49 282 49 289 Q49 296 59 301 Q63 303 70 304.5 Q77 306 84.5 308 Q92 310 98.5 311 Q105 312 107 312 Q112 312 111.5 307 Q111 302 108 302 Q106 303 97.5 300.5 Q89 298 80 296 Q58 289 60 288 Q62 287 88 276 Q88 274 87.5 269.5 Q87 265 82 267 Q78 269 67 272.5 Q56 276 54 278 Z " />
<glyph glyph-name="uni00AC" unicode="&#xac;" horiz-adv-x="100" d="M8 299 Q9 303 13.5 304 Q18 305 31 306 L37 306 Q48 306 50 303.5 Q52 301 47 290 Q43 280 42 280 Q40 280 39 281 Q36 283 42 297 Q28 297 21 296.5 Q14 296 11 296 Q8 296 8 299 Z " />
<glyph glyph-name="uni00AE" unicode="&#xae;" horiz-adv-x="151" d="M77 434 Q61 439 57 453 Q53 467 57 483 Q61 499 70 512.5 Q79 526 89 531 Q102 536 115 536 Q128 536 138.5 530 Q149 524 153 510 Q156 497 149 483.5 Q142 470 130.5 458.5 Q119 447 105.5 440 Q92 433 82 433 Q80 433 79.5 433.5 Q79 434 77 434 Z M100 523 Q95 522 89 515 Q83 508 77.5 498 Q72 488 68.5 476.5 Q65 465 66 456 Q69 444 77 444 Q84 444 91.5 448.5 Q99 453 105 457 Q111 461 111 461.5 Q111 462 109 462 Q104 462 102 464 Q97 467 95.5 471 Q94 475 93 475 L92 473 Q92 473 90 467 Q88 460 87.5 458.5 Q87 457 85 457 Q80 457 80 462 Q80 463 81 467 Q82 471 84 476 Q95 500 103 507 Q111 514 116 514 Q124 514 125 508 Q127 503 121.5 497.5 Q116 492 103 472 Q108 472 109.5 472.5 Q111 473 113 473 Q114 473 119 468 Q122 471 128.5 478.5 Q135 486 139.5 494 Q144 502 145 509.5 Q146 517 137 521 Q128 524 117 524 Q112 524 108 523.5 Q104 523 100 523 Z M97 488 Q97 487 96.5 486 Q96 485 96 484 Q96 484 96 483 Q97 483 99.5 487.5 Q102 492 107 497 Q110 501 110.5 501.5 Q111 502 109 501 Q106 499 102 495 Q98 491 97 488 Z " />
<glyph glyph-name="uni00B0" unicode="&#xb0;" horiz-adv-x="101" d="M63 490 Q68 498 80 498 Q91 496 96.5 488 Q102 480 91 469 Q80 458 70 458 Q61 458 58 467.5 Q55 477 63 490 Z M74 486 Q69 483 66.5 475 Q64 467 67 469 Q75 471 84 480 Q92 488 84 488 Q82 488 74 486 Z " />
<glyph glyph-name="uni00B1" unicode="&#xb1;" horiz-adv-x="70" d="M17 305 Q17 309 24 309 L35 309 Q37 313 40 320 Q43 327 47 325 Q51 321 47 314 Q45 309 45 308.5 Q45 308 49 308 Q54 308 54.5 305 Q55 302 53 300 L40 300 Q31 279 30 279 L28 281 Q26 284 27.5 289.5 Q29 295 31 300 L24 300 Q19 300 18 301 Q17 302 17 305 Z M40 268 Q45 266 45 260 L8 260 Q6 262 6 264 Q4 269 6 269 Q8 269 11.5 269.5 Q15 270 20 270 Q34 270 40 268 Z " />
<glyph glyph-name="uni00B2" unicode="&#xb2;" horiz-adv-x="100" d="M77 523 Q76 523 74.5 525 Q73 527 73 529 Q73 532 80.5 536.5 Q88 541 93 541 Q95 541 96 540 Q103 534 98 527.5 Q93 521 78 507 Q87 510 89 510 Q90 510 91 509 Q92 508 93 506 Q94 504 93 503 Q92 502 85.5 500 Q79 498 75 497 Q72 497 68.5 499 Q65 501 65 506 Q65 509 68.5 512.5 Q72 516 75.5 519.5 Q79 523 82.5 525.5 Q86 528 86 529 Q86 530 83.5 528 Q81 526 80 525 Q78 523 77 523 Z " />
<glyph glyph-name="uni00B3" unicode="&#xb3;" horiz-adv-x="100" d="M83 512 Q81 514 80 516 Q78 522 81 525 L83 528 Q83 529 81 529 Q79 529 78 533 Q76 538 83 540 Q85 541 89 541 Q98 541 99 534 Q101 529 97 526.5 Q93 524 89 520 Q95 518 97 513.5 Q99 509 96 507 Q95 506 90.5 504 Q86 502 80 499.5 Q74 497 69 495 Q64 493 63 493 L61 495 Q57 500 61.5 502 Q66 504 83 512 Z M86 532 Q84 531 84.5 530 Q85 529 88 531 Q89 532 86 532 Z " />
<glyph glyph-name="uni00B4" unicode="&#xb4;" horiz-adv-x="100" d="M76 505 Q74 505 73 506 Q72 507 76 508 Q78 509 82.5 511.5 Q87 514 87 516 Q87 518 90 518 Q91 518 91.5 517.5 Q92 517 94 517 Q97 516 96 514 Q95 512 91.5 510 Q88 508 83.5 506.5 Q79 505 76 505 Z " />
<glyph glyph-name="uni00B5" unicode="&#xb5;" horiz-adv-x="70" d="M19 305 Q22 316 26 316 Q28 316 29 315 Q31 313 31.5 311.5 Q32 310 30 310 Q29 310 28 304.5 Q27 299 28 298 Q28 298 31.5 301.5 Q35 305 39.5 309.5 Q44 314 47.5 317.5 Q51 321 51 321 Q52 321 54.5 319.5 Q57 318 56 315 Q55 311 49.5 297 Q44 283 40 274 Q38 270 35 272 Q30 274 32 280 Q34 286 37 293 Q35 291 33 290 Q29 286 26 288 Q24 288 23.5 287 Q23 286 21 280 L18 274 Q18 273 17 272 Q13 272 11 276 Q10 277 12 283 Q14 289 19 305 Z " />
<glyph glyph-name="uni00B6" unicode="&#xb6;" horiz-adv-x="150" d="M81 327 Q59 271 46 236 Q33 201 25.5 181 Q18 161 15.5 154 Q13 147 12 147 Q8 147 6 150 Q5 151 7 159 Q9 167 13 179 Q17 191 22.5 206 Q28 221 34 237 Q47 274 65 321 Q64 322 58 319 Q52 316 44 316 Q39 316 34 319 Q22 327 26.5 342 Q31 357 45 372 Q59 387 78.5 399 Q98 411 116 413 L119 413 Q125 413 128 410 Q130 408 132 410 Q132 411 134 411 Q136 411 138.5 408.5 Q141 406 139 402 Q138 400 131.5 384.5 Q125 369 115 346 Q105 323 93.5 295.5 Q82 268 71.5 242 Q61 216 52.5 194.5 Q44 173 41 161 Q39 157 39 156 Q38 155 38 154 Q36 153 33.5 154.5 Q31 156 30 158 Q28 162 36 186 Q44 210 57.5 244 Q71 278 87.5 316.5 Q104 355 120 388 Q127 402 127 403 Q126 404 125 404 Q119 404 111 400 Q101 375 95.5 362.5 Q90 350 88 345 Q86 340 86.5 339 Q87 338 88 337 Q93 332 88.5 330.5 Q84 329 81 327 Z " />
<glyph glyph-name="uni00B8" unicode="&#xb8;" horiz-adv-x="101" d="M9 -27 Q11 -25 15 -20 Q19 -15 20 -13 Q22 -9 14.5 -8 Q7 -7 7 -1 Q6 1 9 5.5 Q12 10 14 11 Q15 12 16 12 Q19 12 22 9 Q23 7 20 3 Q17 -2 19 -4 Q21 -6 24.5 -8 Q28 -10 30.5 -13 Q33 -16 31 -22 Q29 -25 24.5 -30.5 Q20 -36 15 -36 Q13 -36 12 -35 Q5 -31 9 -27 Z " />
<glyph glyph-name="uni00B7" unicode="&#xb7;" horiz-adv-x="100" d="M37 295 Q32 297 34 303.5 Q36 310 42 310 Q45 310 46 309 Q51 306 49 300 Q47 294 41 294 Q38 294 37 295 Z " />
<glyph glyph-name="uni00DE" unicode="&#xde;" horiz-adv-x="84" d="M-26 200 Q-26 199 -28.5 192.5 Q-31 186 -34 177.5 Q-37 169 -40.5 161.5 Q-44 154 -45 149 Q-48 139 -50 139 Q-52 139 -54 140.5 Q-56 142 -58 144 Q-59 146 -54.5 161 Q-50 176 -41.5 199 Q-33 222 -21.5 250.5 Q-10 279 3 308 Q8 320 16 337.5 Q24 355 32.5 372.5 Q41 390 48 405 Q55 420 58 427 Q65 441 68 439 Q70 439 72 437 Q74 435 74 433 Q59 399 47 372 Q37 349 28.5 330.5 Q20 312 20 311 Q20 310 19.5 309.5 Q19 309 19 308 L19 307 Q21 307 31 316 Q41 325 53 324 Q59 323 63.5 317.5 Q68 312 67 306 Q66 296 55 280.5 Q44 265 29 250 Q14 235 -1.5 221.5 Q-17 208 -26 200 Z M-3 255 Q-10 239 -12.5 233 Q-15 227 -14 227 Q-13 227 -3 237 Q22 261 34.5 275.5 Q47 290 52.5 298.5 Q58 307 58 310.5 Q58 314 59 315 Q48 315 40 310 Q32 305 24 298 Q18 293 15 290 Q12 287 9.5 283 Q7 279 4.5 272.5 Q2 266 -3 255 Z " />
<glyph glyph-name="uni00DF" unicode="&#xdf;" horiz-adv-x="93" d="M-32 180 Q-40 151 -38 149 Q-36 147 -40 147 Q-42 147 -45 149 Q-48 151 -49 156 Q-50 160 -46.5 174 Q-43 188 -37 206 Q-31 224 -24 244 Q-17 264 -9 280 Q2 306 18.5 338 Q35 370 51.5 397.5 Q68 425 81 442.5 Q94 460 98 458 Q103 455 104 451.5 Q105 448 101.5 437.5 Q98 427 88.5 407.5 Q79 388 62 353 Q53 335 43.5 314.5 Q34 294 26 276.5 Q18 259 13.5 247 Q9 235 10 234 Q12 234 14 235 Q16 235 24 237 Q32 239 36.5 240.5 Q41 242 44 242 Q50 242 53.5 237.5 Q57 233 57 227 Q57 221 49.5 211.5 Q42 202 32.5 193 Q23 184 13.5 177.5 Q4 171 -2 171 Q-7 171 -10.5 174.5 Q-14 178 -14 183 Q-14 187 -9 192.5 Q-4 198 3 203.5 Q10 209 17 212.5 Q24 216 29 216 Q32 216 33 215 Q35 214 35.5 214.5 Q36 215 39 219 Q40 220 44 225 Q48 230 46 232 Q43 232 31.5 228 Q20 224 12 224 Q9 224 8 225 Q3 228 1 232.5 Q-1 237 1 247.5 Q3 258 10.5 275.5 Q18 293 32 322 Q34 327 40 339.5 Q46 352 53 365.5 Q60 379 65 390 Q70 401 71 403 Q68 399 56.5 379.5 Q45 360 29.5 330 Q14 300 -3 261.5 Q-20 223 -32 180 Z M7 193 Q-2 184 0 184 Q1 184 11 191 Q16 196 22.5 201.5 Q29 207 29 208 Q28 209 20.5 203.5 Q13 198 7 193 Z " />
<glyph glyph-name="uni00FE" unicode="&#xfe;" horiz-adv-x="57" d="M47 311 Q52 304 45.5 293 Q39 282 29 271.5 Q19 261 8.5 253.5 Q-2 246 -5 246 Q-7 246 -11.5 235 Q-16 224 -21.5 210 Q-27 196 -32 182.5 Q-37 169 -39 164 Q-41 157 -44 157 Q-44 157 -48 159 Q-51 162 -44 184.5 Q-37 207 -24.5 240 Q-12 273 4 311 Q20 349 34 381 Q48 413 58.5 435 Q69 457 71 458 Q72 458 72 458.5 Q72 459 73 459 Q77 459 79.5 454.5 Q82 450 80 450 Q79 450 77.5 447.5 Q76 445 71.5 434.5 Q67 424 58.5 403.5 Q50 383 35 347 Q28 332 23.5 321.5 Q19 311 19 310 Q19 309 24.5 313 Q30 317 37 317 Q43 317 47 311 Z M-2 259 Q-2 259 2 262 Q6 265 11.5 270.5 Q17 276 22.5 282 Q28 288 32 294 Q36 299 39 304 Q42 309 41 309 Q40 311 35 308 Q30 305 26 301 Q18 295 12 286.5 Q6 278 6 275 Q7 275 5 273 Q3 273 0.5 266.5 Q-2 260 -2 259 Z " />
<glyph glyph-name="uni00B9" unicode="&#xb9;" horiz-adv-x="100" d="M80 498 Q78 500 78.5 506 Q79 512 81.5 518 Q84 524 87 528.5 Q90 533 93 533 Q94 533 96 531 Q100 525 97 525 Q95 525 91 517.5 Q87 510 85 502 Q84 496 82 496 Q82 496 80 498 Z " />
<glyph glyph-name="uni00BA" unicode="&#xba;" horiz-adv-x="100" d="M102 526 Q104 514 94.5 505.5 Q85 497 78 498 Q76 498 71 502.5 Q66 507 69 518 Q71 524 75 532 Q79 540 85 540 Q91 540 91 535 Q100 537 102 526 Z M77 511 Q77 509 83.5 513.5 Q90 518 92 521 Q94 525 91.5 527 Q89 529 87 529 Q84 529 82 525 Q80 521 78.5 517 Q77 513 77 511 Z " />
<glyph glyph-name="uni00BB" unicode="&#xbb;" horiz-adv-x="100" d="M59 316 Q67 315 74.5 312.5 Q82 310 87 305 Q90 302 90.5 296 Q91 290 89 285 Q81 268 34 253 Q24 250 13 250 Q10 253 12 259 Q12 261 15.5 263.5 Q19 266 20 264 Q21 262 30.5 265 Q40 268 51.5 273 Q63 278 73 284 Q83 290 84 293 Q84 294 80 296.5 Q76 299 71 301 Q66 303 61 304 Q56 305 53 306 Q51 308 52.5 312 Q54 316 59 316 Z M-2 262 Q-7 262 -7 266.5 Q-7 271 -4 271 Q-2 272 6.5 274.5 Q15 277 23 281 Q44 289 42 290 Q40 291 13 298 Q13 300 12.5 301 Q12 302 13 305 Q14 307 18 307 Q22 307 33.5 304.5 Q45 302 47 300 Q53 297 53.5 290.5 Q54 284 45 279 Q41 277 34.5 274 Q28 271 20.5 268.5 Q13 266 7 264 Q1 262 -2 262 Z " />
<glyph glyph-name="uni00BC" unicode="&#xbc;" horiz-adv-x="100" d="M101 374 Q102 373 98 366.5 Q94 360 84.5 346.5 Q75 333 59.5 310.5 Q44 288 23 254 Q17 245 13 238.5 Q9 232 8 232 Q7 232 5 233.5 Q3 235 3 237 Q3 239 15 259.5 Q27 280 42.5 305 Q58 330 73.5 351.5 Q89 373 95 377 Q98 379 101 374 Z M61 273 Q50 273 50 286 Q50 296 56 296 Q58 296 61 293 L63 290 Q61 289 60 288 Q58 286 59 281 Q59 280 61.5 281.5 Q64 283 67 285.5 Q70 288 72.5 290 Q75 292 76 293 Q80 297 84 297 Q88 297 90 295 Q93 293 90 283 Q89 281 85.5 273.5 Q82 266 78.5 257.5 Q75 249 71.5 242.5 Q68 236 68 236 Q66 236 64 238 Q61 241 61.5 244 Q62 247 71 267 Q73 271 73.5 273 Q74 275 75 277 Q76 278 76 279 Q74 279 70 275.5 Q66 272 61 273 Z M44 326 Q41 328 41 330.5 Q41 333 44 341 Q46 349 49.5 357 Q53 365 55 367 Q57 369 59 368 Q64 364 59.5 356 Q55 348 49 331 Q49 330 48.5 329 Q48 328 48 327 L47 326 Q47 326 44 326 Z " />
<glyph glyph-name="uni00BD" unicode="&#xbd;" horiz-adv-x="106" d="M98 364 Q95 360 81 338.5 Q67 317 51.5 293 Q36 269 23 250 Q10 231 10 231 Q9 232 8 233 Q5 235 5 236 Q5 238 17 258.5 Q29 279 45 304 Q61 329 76 350.5 Q91 372 97 376 Q100 378 103 373 Q104 371 103 370 Q102 369 98 364 Z M47 241 Q40 248 44 253.5 Q48 259 60 270 Q63 273 65 275.5 Q67 278 69 280 Q70 282 72 284 Q72 285 69 283.5 Q66 282 64 280 Q61 278 59 278 Q55 282 56 285 Q58 288 62.5 290.5 Q67 293 72 293 Q75 293 79 289 Q83 285 82 282 Q81 279 77 274 Q73 269 68 263.5 Q63 258 59.5 253.5 Q56 249 56 249 Q58 249 59.5 250.5 Q61 252 63 252 Q69 252 69 245 Q69 244 64 241.5 Q59 239 54 239 Q49 239 47 241 Z M48 326 Q44 327 45 334 Q46 341 51 351.5 Q56 362 60 366 Q61 368 63 368 Q65 368 66 366 Q67 364 66.5 362.5 Q66 361 61 351 Q53 337 52.5 331 Q52 325 50 325 Q49 325 48 326 Z " />
<glyph glyph-name="uni00BE" unicode="&#xbe;" horiz-adv-x="97" d="M89 378 Q93 380 95 375 Q97 372 74.5 342 Q52 312 17 255 Q15 250 12 246.5 Q9 243 7 240 Q5 236 3 233 Q2 233 -0.5 234.5 Q-3 236 -3 238 Q-3 240 9 260.5 Q21 281 37 306 Q53 331 68 352.5 Q83 374 89 378 Z M75 295 Q78 297 82 291 Q85 285 79.5 272.5 Q74 260 69 246 L67 240 Q67 240 63 242 Q60 245 61 250 Q62 255 68 271 Q71 281 71 281 L70 280 Q69 280 67 278 Q62 274 57 274 Q48 274 46 283.5 Q44 293 49 293 Q51 293 53 291 Q55 289 55.5 287 Q56 285 54 285 L54 285 Q53 285 53 283 Q53 281 54 281 Q57 281 65 287.5 Q73 294 75 295 Z M35 339 Q33 341 27 344 Q21 347 24 355 Q25 357 28 359 Q31 361 33 361 Q33 363 33 363 Q31 368 34 370.5 Q37 373 41 373 Q47 373 50 369 Q54 359 38 351 L35 350 Q47 342 43 333 Q42 330 37 329 Q34 327 22.5 325 Q11 323 10 323 Q9 324 9 325 Q9 327 8.5 327.5 Q8 328 8 329 Q8 331 11.5 332 Q15 333 35 339 Z " />
<glyph glyph-name="uni00F7" unicode="&#xf7;" horiz-adv-x="68" d="M55 291 Q54 290 41.5 290 Q29 290 18 290 L7 290 Q5 290 4 292.5 Q3 295 4 297 Q5 299 7 299.5 Q9 300 17 300 L32 300 Q48 300 50.5 300 Q53 300 55 298 Q56 296 56.5 293.5 Q57 291 55 291 Z M34 316 Q32 323 40 323 Q45 323 46.5 318 Q48 313 45 311 Q43 310 40 310 Q36 310 34 316 Z M22 267 Q18 272 18.5 277 Q19 282 22 280 Q23 279 24 280 Q25 282 27.5 278.5 Q30 275 30 272 Q30 266 25 266 Q23 266 22 267 Z " />
<glyph glyph-name="uni00D7" unicode="&#xd7;" horiz-adv-x="100" d="M18 305 Q16 307 16.5 310 Q17 313 19 313 L24 308 Q29 303 30 303 Q32 305 38.5 308 Q45 311 46 311 Q49 311 49.5 306.5 Q50 302 49 302 Q48 302 43 299 Q38 296 38 295 Q39 294 40 293 Q43 292 44 289 Q46 287 47.5 285 Q49 283 46 280 Q45 279 38.5 285 Q32 291 31 291 Q30 291 23 286.5 Q16 282 11 278 Q10 277 8 279 Q5 284 10.5 288.5 Q16 293 22 296 Q25 299 23 300 L18 305 Z " />
<glyph glyph-name="uni2212" unicode="&#x2212;" horiz-adv-x="99" d="M20 284 Q19 285 17.5 287 Q16 289 16 291 Q16 294 24 294 Q34 294 50.5 294 Q67 294 70 293 Q72 292 73 288 Q74 284 72 284 Q68 285 55 285 Q45 285 34.5 284.5 Q24 284 20 284 Z " />
<glyph glyph-name="uni00AF" unicode="&#xaf;" horiz-adv-x="101" d="M65 507 Q64 507 65 510 Q66 513 67 514 Q68 514 70 515 L75 515 Q84 515 92 513 L97 512 Q97 510 96 507.5 Q95 505 93 506 Q92 506 82 506.5 Q72 507 65 507 Z " />
<glyph glyph-name="uni00F0" unicode="&#xf0;" horiz-adv-x="32" d="M-28 264 Q-20 280 -9.5 291 Q1 302 9 310 Q11 317 12 323 Q14 331 14 333 Q15 335 15 337 Q14 337 8 334 Q2 331 2 330 Q0 328 -2 330 Q-4 332 -5 335 Q-6 338 -2.5 340 Q1 342 5 344.5 Q9 347 13 349 Q17 351 17 353 Q18 356 18 368.5 Q18 381 17 385 Q17 390 19 390 Q21 390 23 388 Q26 386 27 380.5 Q28 375 28 369.5 Q28 364 28 359.5 Q28 355 29 355 Q30 355 35 357 Q40 359 41 359 Q47 353 44.5 351 Q42 349 37 347 Q33 345 31.5 345 Q30 345 28 343 Q26 333 22 314 Q18 295 12 276.5 Q6 258 -2.5 244.5 Q-11 231 -22 231 Q-24 231 -28 233 Q-39 240 -28 264 Z M-19 247 Q-16 250 -12 256.5 Q-8 263 -5 269.5 Q-2 276 0 281 Q2 286 1 286 Q0 286 -1 285 Q-12 273 -19 257.5 Q-26 242 -24 242 Q-22 242 -19 247 Z " />
<glyph glyph-name="uni2030" unicode="&#x2030;" horiz-adv-x="202" d="M-14 135 Q-20 138 -17 149 Q-14 160 -7.5 173 Q-1 186 6.5 198 Q14 210 17 216 Q44 258 71 290 Q98 322 119.5 344.5 Q141 367 154.5 380.5 Q168 394 168 400 Q168 401 160 401 L153 401 Q142 400 130 398 Q118 396 107.5 394 Q97 392 90 390 Q83 388 82 388 Q92 386 92 378.5 Q92 371 89 366 Q84 358 72.5 352.5 Q61 347 52 347 Q42 351 44 363 Q45 368 48 373.5 Q51 379 50 379 L44 377 Q42 376 39 376 Q36 376 35 380 Q33 384 35 385 Q37 386 49 390 Q58 393 72.5 397 Q87 401 102.5 405 Q118 409 132.5 411.5 Q147 414 157 414 Q178 414 176 395 Q175 386 163 372.5 Q151 359 130 337 Q109 315 82 283 Q55 251 24 204 Q10 183 3 169 Q-4 155 -7 147.5 Q-10 140 -10.5 137 Q-11 134 -12 134 Q-13 134 -14 135 Z M89 198 Q94 201 95 201 Q97 201 97.5 200.5 Q98 200 100 200 Q102 200 103 201 Q104 202 106 202 Q111 202 115 196.5 Q119 191 114 183 Q112 179 104 172 Q96 165 88 165 Q86 165 82 167 Q77 170 77 175 Q77 180 79.5 184.5 Q82 189 85 193 Q88 197 89 198 Z M32 167 Q27 170 27 175 Q27 180 29.5 184.5 Q32 189 35 193 Q38 197 39 198 Q44 201 45 201 Q47 201 47.5 200.5 Q48 200 50 200 Q52 200 53 201 Q54 202 56 202 Q61 202 65 196.5 Q69 191 64 183 Q62 179 54 172 Q46 165 38 165 Q36 165 32 167 Z M49 356 Q49 354 52 354 Q58 354 69 359 Q80 364 85 373 Q90 380 81 381 Q79 381 77.5 381.5 Q76 382 74 382 Q69 382 68 380.5 Q67 379 65 379 Q61 380 55.5 371.5 Q50 363 49 356 Z M35 175 Q47 181 50.5 185 Q54 189 55 190 Q55 191 53 193 Q51 195 49 194 Q47 194 44.5 191 Q42 188 40 184 Q37 180 35 175 Z M99 194 Q97 194 94.5 191 Q92 188 90 184 Q87 180 85 175 Q97 181 100.5 185 Q104 189 105 190 Q105 191 103 193 Q101 195 99 194 Z " />
<glyph glyph-name="uni0152" unicode="&#x152;" horiz-adv-x="584" d="M432 583 Q431 579 421 554.5 Q411 530 397 495.5 Q383 461 366.5 422 Q350 383 336.5 349.5 Q323 316 314 294 Q305 272 304 271 Q304 270 321.5 277.5 Q339 285 370 297.5 Q401 310 442 326 Q483 342 530 358 Q550 365 558 367.5 Q566 370 568 370 Q570 370 570 367 Q571 365 566.5 363 Q562 361 537 353 Q504 342 462.5 326 Q421 310 385 295.5 Q349 281 324.5 270.5 Q300 260 299 258 Q299 257 292.5 240.5 Q286 224 276 199 Q266 174 254 143.5 Q242 113 231 84 Q220 55 210.5 31 Q201 7 197 -4 Q197 -6 216 2 Q235 10 268 23 Q301 36 346.5 51.5 Q392 67 444 80 Q453 82 462.5 84.5 Q472 87 480 89 Q488 91 493.5 92 Q499 93 500 93 Q501 93 502 91 Q503 89 503 88 Q501 86 474 80 Q447 74 388 55 Q311 31 260.5 11.5 Q210 -8 180 -22.5 Q150 -37 136.5 -44.5 Q123 -52 118 -52 Q116 -51 116 -51 Q115 -50 115 -49 L114 -48 Q114 -47 124.5 -41.5 Q135 -36 147.5 -29.5 Q160 -23 170 -18 Q180 -13 180 -11 Q180 -9 185.5 5.5 Q191 20 199.5 42 Q208 64 218 91 Q228 118 238 144 Q227 125 209 95.5 Q191 66 169.5 38.5 Q148 11 124.5 -8.5 Q101 -28 80 -28 Q78 -28 76.5 -27.5 Q75 -27 73 -27 Q53 -23 41.5 -7.5 Q30 8 24.5 27 Q19 46 17.5 63.5 Q16 81 15 88 Q14 89 9 94.5 Q4 100 -1 112 Q-6 124 -10 143.5 Q-14 163 -13 193 Q-11 247 5 302.5 Q21 358 46.5 409.5 Q72 461 104.5 506 Q137 551 171.5 584.5 Q206 618 240.5 637 Q275 656 304 656 Q342 656 358.5 630 Q375 604 379 571 Q396 578 407 582.5 Q418 587 419 587 Q419 588 421 591.5 Q423 595 425 600 Q426 602 428 606.5 Q430 611 432.5 615.5 Q435 620 438 623 Q441 626 443 625 Q445 624 447 620.5 Q449 617 447 615 Q445 613 442 606 Q439 599 437 595 Q437 595 456.5 601.5 Q476 608 505.5 618.5 Q535 629 571 641.5 Q607 654 639 665 Q671 676 695 683 Q719 690 726 690 Q728 689 728 689 Q730 685 728 683 Q726 683 715.5 680 Q705 677 674 667 Q643 657 585.5 637.5 Q528 618 432 583 Z M31 77 Q31 68 33 52 Q35 36 40.5 20.5 Q46 5 54.5 -7 Q63 -19 75 -19 Q82 -19 90 -15 Q112 -6 138.5 24.5 Q165 55 193 99 Q221 143 248.5 196 Q276 249 299 302.5 Q322 356 338.5 406 Q355 456 362 495 Q376 575 359 611 Q342 647 307 647 Q281 647 249 629.5 Q217 612 183 581 Q149 550 116.5 506.5 Q84 463 58 412 Q39 375 25.5 336 Q12 297 5 260.5 Q-2 224 -3 191 Q-4 158 2 131 Q4 123 6 117.5 Q8 112 10 107 Q13 102 15 99 Q16 147 23.5 193 Q31 239 42.5 275 Q54 311 69 333 Q84 355 99 355 Q110 355 116 349 Q120 345 117 345 Q114 345 112 346 Q110 347 106 347 Q93 347 79 324 Q65 301 54 264.5 Q43 228 36 183.5 Q29 139 30 95 L30 83 Q32 82 35.5 80.5 Q39 79 46 79 Q52 79 56 80 Q82 85 107 102 Q132 119 155.5 141.5 Q179 164 199.5 189 Q220 214 235.5 235 Q251 256 260.5 269.5 Q270 283 272 282 Q278 280 276 277 Q274 274 268 266 Q252 242 227 209 Q202 176 172.5 146 Q143 116 111 95 Q79 74 47 74 Q43 74 40.5 74.5 Q38 75 31 77 Z M380 563 Q382 543 380 521.5 Q378 500 373 477 Q382 498 389.5 515.5 Q397 533 402 547 Q409 563 414 576 Q409 574 404 572 Q399 570 393 568 Q387 566 380 563 Z " />
<glyph glyph-name="uni00D8" unicode="&#xd8;" horiz-adv-x="337" d="M373 667 Q376 665 359 636 Q379 612 382 573.5 Q385 535 376.5 488 Q368 441 350 389 Q332 337 309 286 Q286 235 261 188.5 Q236 142 214 106 Q204 90 189.5 68.5 Q175 47 157.5 27 Q140 7 121 -7 Q102 -21 84 -21 Q69 -21 58 -13.5 Q47 -6 39.5 5.5 Q32 17 28 31 Q24 45 22 58 Q10 34 -7 8 L-10 8 Q-14 9 -17 11.5 Q-20 14 -20 16 Q-15 24 -10 34 Q-5 43 2.5 55.5 Q10 68 19 83 Q19 91 18 94 Q17 95 12 100.5 Q7 106 2 118 Q-3 130 -7 150 Q-11 170 -10 199 Q-8 254 8 309 Q24 364 49 415.5 Q74 467 106 512 Q138 557 172.5 590 Q207 623 241.5 642 Q276 661 305 661 Q332 661 353 643 Q360 654 364 660.5 Q368 667 370 668 Q370 668 372 668 Q372 668 373 667 Z M365 501 Q373 549 370 580 Q367 611 356 629 Q339 597 307 542 Q275 487 233 416 Q191 345 141.5 261 Q92 177 39 87 Q43 86 52 86 L59 86 Q85 91 110 108.5 Q135 126 158.5 148.5 Q182 171 202.5 195.5 Q223 220 238.5 241 Q254 262 263.5 275.5 Q273 289 275 288 Q281 286 279 283 Q277 280 271 272 Q255 249 230 216 Q205 183 175.5 153 Q146 123 114 102 Q82 81 51 81 Q46 81 44 81.5 Q42 82 37 83 Q36 81 35.5 80.5 Q35 80 34 78 Q35 69 37.5 54 Q40 39 45 24 Q50 9 58 -2 Q66 -13 78 -13 Q81 -13 84.5 -12 Q88 -11 93 -9 Q115 1 141.5 31.5 Q168 62 196 105.5 Q224 149 251.5 202 Q279 255 302 308.5 Q325 362 341.5 412 Q358 462 365 501 Z M61 419 Q42 382 29 343 Q16 304 8.5 267.5 Q1 231 0 197.5 Q-1 164 5 138 Q10 122 13 114 Q16 109 18 105 Q18 117 20 140 Q22 163 26 191.5 Q30 220 36.5 250 Q43 280 53 304.5 Q63 329 76 345 Q89 361 106 361 Q111 360 116 356 Q121 352 119 352 Q117 352 115 353 Q113 354 109 354 Q96 354 82.5 331.5 Q69 309 57.5 273 Q46 237 39.5 193 Q33 149 33 106 Q55 143 83 190 Q111 237 141.5 288.5 Q172 340 203 392 Q234 444 261.5 490.5 Q289 537 312 575.5 Q335 614 349 637 Q334 653 310 653 Q284 653 252 635.5 Q220 618 186 587 Q152 556 119.5 513 Q87 470 61 419 Z " />
<glyph glyph-name="uni00C6" unicode="&#xc6;" horiz-adv-x="472" d="M87 -4 Q96 -1 118 8 Q140 17 172 28.5 Q204 40 244.5 53.5 Q285 67 330 79 Q347 84 365.5 88 Q384 92 385 92 Q387 92 388 90 Q389 88 388 86 Q387 84 359.5 78.5 Q332 73 274 54 Q197 30 147 10 Q97 -10 66.5 -24 Q36 -38 22.5 -45.5 Q9 -53 4 -53 Q2 -53 2 -52 Q0 -50 0 -49 Q0 -48 10 -42.5 Q20 -37 32.5 -31 Q45 -25 55.5 -19.5 Q66 -14 66 -13 Q74 8 87 43.5 Q100 79 114 119.5 Q128 160 142 203 Q156 246 166 282 Q161 281 152.5 279 Q144 277 135 275 Q125 272 113 269 L105 256 Q97 244 82.5 224 Q68 204 50 181 Q32 158 11.5 135 Q-9 112 -29.5 93.5 Q-50 75 -69 63 Q-88 51 -103 51 Q-110 51 -116 54 Q-135 63 -132 89 Q-129 115 -104 147 Q-79 179 -31 211.5 Q17 244 89 268 L102 273 Q123 309 145 349 Q167 389 188 429 Q209 469 228.5 506 Q248 543 263 571 Q278 599 288.5 616 Q299 633 302 633 Q317 633 313 617 Q311 612 309 604 Q307 596 302 585 Q304 586 305 586 Q311 600 317.5 612 Q324 624 328 623 Q331 622 333 619.5 Q335 617 332 614 Q330 612 327 604.5 Q324 597 323 594 Q323 593 342.5 600 Q362 607 391.5 617.5 Q421 628 457 640.5 Q493 653 525 664 Q557 675 581 682 Q605 689 612 689 Q614 688 614 688 Q616 682 612 681 Q611 681 600.5 678.5 Q590 676 559 666 Q528 656 471 636.5 Q414 617 318 582 Q300 538 287.5 507.5 Q275 477 266 454.5 Q257 432 250 415.5 Q243 399 236 382 Q229 365 221 345 Q213 325 201 296 Q199 291 197 286.5 Q195 282 193 278 Q191 274 190 270 Q190 269 207.5 276.5 Q225 284 255.5 296.5 Q286 309 327.5 325 Q369 341 416 357 Q436 363 444 366 Q452 369 454 369 Q456 369 456 366 Q456 365 455.5 364 Q455 363 452 361.5 Q449 360 442 358 Q435 356 423 352 Q390 341 348.5 325 Q307 309 271 294.5 Q235 280 210 269 Q185 258 185 257 Q162 191 134.5 127.5 Q107 64 87 -4 Z M-123 96 Q-128 79 -124 68.5 Q-120 58 -107 58 Q-87 58 -46.5 90 Q-6 122 54 202 Q59 209 66 219 Q73 229 80 239 Q87 249 91.5 256 Q96 263 96 263 Q96 264 82 259 Q68 254 46 244.5 Q24 235 -2.5 220 Q-29 205 -53 186.5 Q-77 168 -96 145 Q-115 122 -123 96 Z M180 386 Q162 352 150 331 Q138 310 131 298 Q124 286 121.5 282 Q119 278 120 278 Q140 284 150 286 Q160 288 164.5 289 Q169 290 170 291.5 Q171 293 172 298 Q186 336 205.5 384 Q225 432 242.5 474.5 Q260 517 272 546.5 Q284 576 283 577 Q273 560 259 533 Q246 510 226.5 474 Q207 438 180 386 Z M298 574 Q291 553 280 526 Q290 551 295 561 Q298 569 300 575 Q299 575 298 574 Z " />
<glyph glyph-name="uni0141" unicode="&#x141;" horiz-adv-x="199" d="M280 620 Q276 601 265.5 574 Q255 547 239.5 514.5 Q224 482 205.5 446 Q187 410 166 372 Q187 378 190 377 Q192 376 192.5 373.5 Q193 371 191 370 Q183 368 175.5 366 Q168 364 160 361 Q135 315 108.5 269 Q82 223 58 183.5 Q34 144 15 112.5 Q-4 81 -16 63 Q-20 56 -20 56 Q-21 56 -11 60 Q31 79 65.5 85 Q100 91 121 91 Q142 91 145 88 Q148 84 135 84 Q90 84 48 74 Q6 64 -32 38 L-38 29 Q-59 -2 -73.5 -21.5 Q-88 -41 -98 -52.5 Q-108 -64 -114.5 -68.5 Q-121 -73 -125 -73 Q-128 -73 -132 -71 Q-137 -66 -138 -61.5 Q-139 -57 -134 -48 Q-126 -31 -112.5 -15.5 Q-99 0 -85 12 Q-69 26 -52 38 Q-44 50 -24.5 81.5 Q-5 113 21 155.5 Q47 198 77.5 249.5 Q108 301 138 353 Q127 348 117.5 344.5 Q108 341 101 338 Q100 339 98 341 Q96 343 99 346 Q103 348 116 353.5 Q129 359 145 365 Q172 414 196.5 460.5 Q221 507 239 546 Q257 585 266 614.5 Q275 644 272 657 Q271 662 264 662 Q250 662 213 629.5 Q176 597 127 528 Q85 468 61 419 Q37 370 35 344 Q35 337 35 335.5 Q35 334 37 331 Q40 326 38 326 Q33 326 29 337 Q25 353 36 383.5 Q47 414 68 451.5 Q89 489 116 528 Q143 567 170 599 Q197 631 221.5 651.5 Q246 672 261 672 Q265 672 267 671 Q280 664 281 649 Q282 634 280 620 Z M-121 -52 Q-121 -54 -113.5 -45 Q-106 -36 -99 -28 Q-91 -17 -84.5 -8.5 Q-78 0 -72 8 Q-75 5 -83 -3.5 Q-91 -12 -99.5 -21.5 Q-108 -31 -114.5 -40 Q-121 -49 -121 -52 Z " />
<glyph glyph-name="uni0142" unicode="&#x142;" horiz-adv-x="118" d="M-14 358 Q-11 360 1 365 Q13 370 27 375 Q31 386 42 411.5 Q53 437 65 464 Q77 491 87 512.5 Q97 534 99 535 Q100 535 102.5 534 Q105 533 106 531 Q110 525 92.5 488.5 Q75 452 47 382 Q58 386 66.5 388 Q75 390 76 389 Q78 388 78.5 385.5 Q79 383 78 382 Q59 377 43 371 Q33 346 22 314 Q7 272 -0.5 244.5 Q-8 217 -10 201 Q-13 183 -12 173 Q-10 175 -6 176 Q-2 177 7.5 184 Q17 191 33.5 207 Q50 223 77 253 Q88 266 95.5 275 Q103 284 108 289 Q114 296 118 300 Q126 299 122.5 294.5 Q119 290 116 286 Q100 268 82 247 Q64 226 47 208 Q30 190 15 177.5 Q0 165 -9 165 L-12 165 Q-26 170 -26 184 Q-26 198 -24 211 Q-19 237 -7 277.5 Q5 318 23 364 Q12 360 3.5 356.5 Q-5 353 -13 350 Q-13 351 -15 353 Q-17 355 -14 358 Z " />
<glyph glyph-name="uni00D0" unicode="&#xd0;" horiz-adv-x="571" d="M325 596 L327 596 Q330 596 332 593.5 Q334 591 332 588 Q330 585 323 569.5 Q316 554 306 530.5 Q296 507 283.5 477.5 Q271 448 259 417 Q273 416 283.5 415.5 Q294 415 295 413 Q297 411 296.5 408.5 Q296 406 294 406 Q286 408 276.5 408 Q267 408 255 408 Q242 376 230 346.5 Q218 317 209 294 Q198 266 188 242 Q190 241 212.5 250 Q235 259 268 259 Q274 259 280 258.5 Q286 258 293 257 Q320 253 340 241 Q360 229 373.5 216 Q387 203 393 193.5 Q399 184 397 184 Q395 184 389 193 Q367 223 337.5 236.5 Q308 250 274 250 Q249 250 225 244 Q217 242 209 239 Q201 236 195 234 Q188 232 182 229 Q157 172 142.5 141.5 Q128 111 121 97.5 Q114 84 112 83 Q110 82 110 83 Q110 87 118 108 Q126 129 135 153 Q146 182 160 217 Q159 218 147 210.5 Q135 203 118 189 Q101 175 82.5 156 Q64 137 49 114.5 Q34 92 27 67.5 Q20 43 26 19 Q30 3 40.5 -7 Q51 -17 65 -23 Q79 -29 94.5 -31 Q110 -33 124 -33 Q164 -33 205 -18 Q246 -3 286.5 23 Q327 49 366 84 Q405 119 439 159 Q473 199 501 242 Q529 285 549 327 Q569 369 581.5 414 Q594 459 588 507 Q577 579 536.5 613 Q496 647 436 647 Q369 647 288.5 605.5 Q208 564 133 486 Q92 444 63.5 398.5 Q35 353 19 313 Q3 273 1 242.5 Q-1 212 11 200 Q17 194 25 192 Q33 190 40 190 Q47 190 51.5 189.5 Q56 189 56 185 Q56 184 50 184 Q44 184 35.5 185.5 Q27 187 21 189 Q-5 202 -6 237 Q-7 272 12 319 Q31 366 67.5 418.5 Q104 471 153 518 Q202 565 260.5 600.5 Q319 636 383 649 Q411 654 431 654 Q476 654 509.5 636 Q543 618 563.5 588 Q584 558 592.5 520 Q601 482 596 442 Q591 396 569 342 Q547 288 512.5 233.5 Q478 179 433.5 129 Q389 79 338.5 40 Q288 1 234.5 -22 Q181 -45 129 -45 Q100 -45 76 -36.5 Q52 -28 36.5 -12 Q21 4 16.5 27 Q12 50 21 80 Q33 120 71 160.5 Q109 201 162 230 Q164 231 171 246.5 Q178 262 188.5 286.5 Q199 311 212 343 Q225 375 239 408 Q227 408 216.5 408 Q206 408 198 407 Q198 409 197 411 Q196 413 200 415 Q204 416 216 416.5 Q228 417 243 417 Q257 450 270 481 Q283 512 294 536.5 Q305 561 313.5 577 Q322 593 325 596 Z " />
<glyph glyph-name="uni00E6" unicode="&#xe6;" horiz-adv-x="189" d="M35 270 Q34 270 27.5 263 Q21 256 1 232 Q-10 218 -15 213 Q-20 208 -25 208 Q-30 208 -34.5 212.5 Q-39 217 -40 222 Q-41 230 -35.5 244.5 Q-30 259 -21 273 Q-12 287 -2 298 Q8 309 17 309 Q25 309 30.5 302 Q36 295 36 287 Q46 296 50.5 301 Q55 306 58 306 Q60 306 61 305 Q77 318 91 318 Q94 318 100 316 Q114 310 114 298 Q114 286 107 273.5 Q100 261 89 252 Q78 243 68 243 L65 243 Q56 246 52 256 Q51 261 51 266 Q48 262 43.5 250.5 Q39 239 36.5 227 Q34 215 35.5 205.5 Q37 196 44 196 Q59 196 78 207 Q97 218 116.5 233.5 Q136 249 155 267 Q174 285 189 300 Q195 299 195 297 Q195 295 193 293 Q166 266 135.5 235.5 Q105 205 67 190 Q62 188 58 187 Q54 186 50 186 Q38 186 31.5 193.5 Q25 201 23.5 213 Q22 225 25 240 Q28 255 35 270 Z M61 272 Q59 269 58 260 Q57 251 65 250 Q73 250 80.5 255.5 Q88 261 93.5 269 Q99 277 102.5 286 Q106 295 106 302 Q106 307 105 307.5 Q104 308 100 308 Q93 308 85 303.5 Q77 299 71 293 Q65 287 61.5 282 Q58 277 59 277 L60 276 Q62 276 62 275 Q63 274 61 272 Z M20 298 Q14 294 6.5 285 Q-1 276 -7.5 264.5 Q-14 253 -19 242.5 Q-24 232 -25 225 Q-25 221 -20 226.5 Q-15 232 -9 239 Q-8 240 -9 239 Q-10 238 -7.5 241 Q-5 244 3.5 252.5 Q12 261 30 281 Q25 285 24.5 292 Q24 299 24 300 L20 298 Z " />
<glyph glyph-name="uni0153" unicode="&#x153;" horiz-adv-x="187" d="M191 293 Q178 280 163 264.5 Q148 249 132 235 Q116 221 99 209 Q82 197 65 190 Q57 186 48 186 Q33 186 26 199 Q19 212 21 230 Q16 222 9.5 215 Q3 208 -8 208 Q-20 212 -21.5 226.5 Q-23 241 -18.5 257.5 Q-14 274 -7 288 Q0 302 3 305 Q4 307 8 307 Q13 307 17.5 302.5 Q22 298 22 294 Q22 293 20.5 293 Q19 293 17 295 Q14 297 9.5 288 Q5 279 0.5 266 Q-4 253 -6.5 240 Q-9 227 -8 220 Q-2 225 4 233 Q10 241 15 249 Q20 257 23 263.5 Q26 270 27 271 L26 273 Q22 278 22 285 Q22 292 24.5 299.5 Q27 307 31.5 312 Q36 317 41 317 Q45 317 49 311 Q53 304 50 295 Q56 302 66.5 310 Q77 318 88 318 Q95 318 98 316 Q112 310 112 298 Q112 286 105.5 273.5 Q99 261 87.5 252 Q76 243 67 243 L64 243 Q55 246 51 256 Q50 261 50 266 Q49 266 44.5 256.5 Q40 247 37 235 Q32 216 36 200 Q37 196 42 196 Q57 196 76 207 Q95 218 114.5 233.5 Q134 249 153 267 Q172 285 187 300 Q194 299 193.5 297 Q193 295 191 293 Z M105 302 Q104 307 103.5 307.5 Q103 308 99 308 Q91 308 83.5 303.5 Q76 299 70 293 Q64 287 60.5 282 Q57 277 58 277 Q59 276 60 275 Q62 274 60 272 Q57 268 56 262 Q55 256 57 252 Q58 250 58.5 250 Q59 250 64 250 Q72 250 80 255.5 Q88 261 94 269 Q100 277 103 286 Q106 295 105 302 Z M41 307 Q38 304 35 300 Q33 297 31.5 292 Q30 287 29 281 L29 278 Q30 278 33 284 Q39 295 40 301 Q41 305 41 307 Z " />
<glyph glyph-name="uni00F8" unicode="&#xf8;" horiz-adv-x="106" d="M37 258 Q35 253 30.5 244.5 Q26 236 20.5 228 Q15 220 8.5 214 Q2 208 -5 208 Q-8 208 -12 210 Q-15 205 -18 199.5 Q-21 194 -25 188 Q-30 188 -34.5 189 Q-39 190 -37 194 Q-32 202 -28.5 208.5 Q-25 215 -20 223 Q-22 233 -20 246 Q-18 259 -13.5 271 Q-9 283 -4.5 292.5 Q0 302 3 305 Q7 307 8 307 Q13 307 17 303 Q21 299 22 295 Q25 300 27 303 Q29 306 32 311 Q38 321 43.5 330.5 Q49 340 54 348 Q56 350 58 350 Q62 350 64.5 348 Q67 346 64 341 Q60 335 56.5 328 Q53 321 48 313 Q55 302 44 273 Q55 273 74 283 Q93 293 106 300 Q109 299 110.5 297 Q112 295 107 292 Q79 277 66 272.5 Q53 268 47.5 267 Q42 266 41 265.5 Q40 265 37 258 Z M-6 221 Q0 227 6 235.5 Q12 244 16.5 251.5 Q21 259 24 264.5 Q27 270 28 271 L26 274 Q18 263 10.5 249.5 Q3 236 -6 221 Z M-3 252 Q3 263 9 273 Q15 283 21 293 Q20 293 19.5 293.5 Q19 294 18 294 Q14 296 8 282.5 Q2 269 -3 252 Z M30 282 Q30 277 31 277 L32 279 Q32 281 34 283 Q36 288 37 291.5 Q38 295 39 298 Q37 294 34.5 290.5 Q32 287 30 282 Z " />
<glyph glyph-name="uni017D" unicode="&#x17d;" horiz-adv-x="305" d="M-100 -19 L-96 -19 Q-77 -19 -38 4 Q1 27 47 63 Q93 99 139.5 141 Q186 183 221 221 Q256 259 272 287.5 Q288 316 273 323 Q264 328 244 328 Q223 328 198.5 322.5 Q174 317 149.5 309 Q125 301 101.5 292 Q78 283 58 275 Q41 269 30.5 265 Q20 261 13 261 Q4 261 1 269 Q-2 276 3 283.5 Q8 291 30 314 Q59 343 98.5 378.5 Q138 414 180 450.5 Q222 487 261.5 521.5 Q301 556 329.5 582.5 Q358 609 370 625.5 Q382 642 369 642 Q361 642 350.5 639.5 Q340 637 324 630 Q300 620 271 603.5 Q242 587 213 568.5 Q184 550 157.5 530.5 Q131 511 112 494.5 Q93 478 83 465.5 Q73 453 77 448 Q79 446 79.5 444.5 Q80 443 79 443 Q77 443 74.5 446 Q72 449 71 451 Q68 457 71.5 464.5 Q75 472 88 485 Q108 505 146 533.5 Q184 562 226 588 Q268 614 306 632.5 Q344 651 365 651 Q382 651 382 636 Q382 627 370 612 Q359 597 328 567.5 Q297 538 257.5 502 Q218 466 175 428 Q132 390 96 357.5 Q60 325 37 302.5 Q14 280 14 276 Q14 274 25 278 Q36 282 53.5 289.5 Q71 297 94.5 305.5 Q118 314 142.5 322 Q167 330 191.5 335.5 Q216 341 236 341 Q266 341 280 328 Q293 315 289 296 Q285 277 270.5 256 Q256 235 236 213.5 Q216 192 196 172 Q186 162 165.5 142.5 Q145 123 119 100.5 Q93 78 64 54.5 Q35 31 7.5 12 Q-20 -7 -44.5 -19 Q-69 -31 -85 -31 Q-101 -31 -107 -16 Q-112 -4 -101 17 Q-90 38 -69.5 61.5 Q-49 85 -22.5 109 Q4 133 30.5 152.5 Q57 172 80.5 184.5 Q104 197 119 197 Q136 197 136 178 Q136 172 134 165.5 Q132 159 129.5 153.5 Q127 148 124.5 144 Q122 140 122 140 Q116 140 117 145 Q118 150 120 153 Q140 188 122 188 Q112 188 93.5 178.5 Q75 169 53.5 154.5 Q32 140 9.5 121.5 Q-13 103 -31 85 Q-59 57 -73 37.5 Q-87 18 -93 6 Q-99 -6 -99.5 -12 Q-100 -18 -100 -19 Z M333 685 Q333 686 335 686 Q340 686 341 681.5 Q342 677 342 673 Q347 678 351 681.5 Q355 685 359 685 Q362 685 364 683 Q364 681 365 680 Q347 659 342 659 Q339 659 338 660 Q335 662 334 664.5 Q333 667 333 675 L333 685 Z " />
<glyph glyph-name="uni017E" unicode="&#x17e;" horiz-adv-x="132" d="M-108 -15 Q-131 -15 -131 6 Q-131 14 -124.5 22.5 Q-118 31 -100 49 Q-82 67 -51 99 Q-20 131 30 185 Q30 203 25 212 Q20 221 14.5 226.5 Q9 232 4.5 237 Q0 242 1 252 Q1 260 11 271.5 Q21 283 31.5 294 Q42 305 49 313.5 Q56 322 52 322 Q48 322 39 318 Q30 314 22 309 Q8 300 5.5 295 Q3 290 0 292 Q-3 295 0.5 300.5 Q4 306 11 311 Q18 316 26 320.5 Q34 325 38 327 Q42 329 48 329 Q53 329 55 327 Q65 319 54.5 305.5 Q44 292 26 270 Q17 260 13.5 254 Q10 248 10 244.5 Q10 241 12 239 Q14 237 17 234 Q25 226 31 217.5 Q37 209 39 196 Q39 196 39.5 196 Q40 196 47.5 205 Q55 214 74 235.5 Q93 257 132 300 Q137 299 137.5 297 Q138 295 130.5 286 Q123 277 107 259.5 Q91 242 62 210 L41 186 Q40 177 40 168 Q40 159 33 137 Q26 113 11 86.5 Q-4 60 -23.5 37.5 Q-43 15 -65 0 Q-87 -15 -108 -15 Z M-121 9 Q-129 -6 -112 -6 Q-104 -6 -90.5 0 Q-77 6 -61.5 18.5 Q-46 31 -30 50.5 Q-14 70 1 98 Q9 115 14.5 128 Q20 141 23 151 Q26 162 28 171 Q-15 123 -42.5 94.5 Q-70 66 -86 49.5 Q-102 33 -109.5 25 Q-117 17 -121 9 Z M37 373 Q37 374 39 374 Q44 374 45 369.5 Q46 365 46 361 Q51 366 55 369.5 Q59 373 63 373 Q66 373 68 371 Q68 369 69 368 Q51 347 46 347 Q43 347 42 348 Q39 350 38 352.5 Q37 355 37 363 L37 373 Z " />
<glyph glyph-name="uni0160" unicode="&#x160;" horiz-adv-x="620" d="M5 249 Q-9 213 15.5 200 Q40 187 87 187 Q122 187 166 192 Q210 197 255.5 203 Q301 209 344.5 213.5 Q388 218 424 218 Q476 218 504.5 205.5 Q533 193 540.5 173.5 Q548 154 535.5 129 Q523 104 493 78 Q481 68 462.5 56 Q444 44 424 33.5 Q404 23 383.5 15.5 Q363 8 347 8 Q333 8 323.5 15.5 Q314 23 312 40 Q311 54 317 66 Q323 78 330.5 87 Q338 96 345 101 Q352 106 353 106 Q354 106 356 105 Q358 104 356 102 Q354 99 343.5 91 Q333 83 322 60 Q311 37 318 27 Q325 17 342 17 Q365 17 400 31.5 Q435 46 466.5 68.5 Q498 91 519.5 117.5 Q541 144 536 168 Q532 189 505.5 197 Q479 205 438 205 Q400 205 354 200 Q308 195 261 189 Q214 183 170 178.5 Q126 174 92 174 Q66 174 44 179.5 Q22 185 8 195.5 Q-6 206 -10 223 Q-14 240 -4 264 Q4 283 21 307 Q38 331 62 356.5 Q86 382 115.5 409 Q145 436 178 461 Q214 489 260.5 519 Q307 549 358 573.5 Q409 598 461 614 Q513 630 561 630 Q587 630 611.5 623.5 Q636 617 657 601 Q681 580 686 554 Q691 528 683.5 502 Q676 476 660.5 451 Q645 426 629.5 406.5 Q614 387 601.5 374.5 Q589 362 588 360 Q585 357 583 357 Q581 357 581 360 Q581 363 580 365 Q580 368 591 379.5 Q602 391 617.5 409.5 Q633 428 649 452.5 Q665 477 674 506 Q680 527 679 549 Q678 571 661 587 Q646 601 622.5 608 Q599 615 569 615 Q518 615 461 597 Q404 579 349.5 551 Q295 523 245.5 489.5 Q196 456 158 425 Q98 375 58 329 Q18 283 5 249 Z M567 684 Q567 685 569 685 Q574 685 575 680.5 Q576 676 576 672 Q581 677 585 680.5 Q589 684 593 684 Q596 684 598 682 Q598 680 599 679 Q581 658 576 658 Q573 658 572 659 Q569 661 568 663.5 Q567 666 567 674 L567 684 Z " />
<glyph glyph-name="uni0161" unicode="&#x161;" horiz-adv-x="141" d="M15 244 Q11 253 7 264.5 Q3 276 1 287.5 Q-1 299 0.5 308.5 Q2 318 11 324 Q16 328 23 328 Q31 328 35 321.5 Q39 315 35 313 Q33 312 32 315 Q31 318 29 317 Q24 316 19.5 314 Q15 312 11 304 Q7 296 10 283 Q13 270 18.5 254.5 Q24 239 30 223 Q36 207 38 193 Q58 213 73 228 Q88 243 99.5 255.5 Q111 268 121 278.5 Q131 289 141 300 Q145 299 145.5 297 Q146 295 136.5 284 Q127 273 104 249.5 Q81 226 38 182 Q36 175 34 159.5 Q32 144 21 121 Q9 95 -6 85 Q-21 75 -35 75 Q-52 75 -60.5 88.5 Q-69 102 -55 121 Q-40 139 -18.5 150.5 Q3 162 27 183 Q27 194 25.5 208 Q24 222 15 244 Z M25 171 Q22 169 13.5 163 Q5 157 -5 150.5 Q-15 144 -24.5 137 Q-34 130 -39 126 Q-55 114 -56.5 99.5 Q-58 85 -44 85 Q-37 85 -33 87 Q-17 93 -5.5 107.5 Q6 122 13 136 Q20 150 22.5 160.5 Q25 171 25 171 Z M14 367 Q14 368 16 368 Q21 368 22 363.5 Q23 359 23 355 Q28 360 32 363.5 Q36 367 40 367 Q43 367 45 365 Q45 363 46 362 Q28 341 23 341 Q20 341 19 342 Q16 344 15 346.5 Q14 349 14 357 L14 367 Z " />
<glyph glyph-name="uni0178" unicode="&#x178;" horiz-adv-x="284" d="M133 580 Q118 564 100.5 531.5 Q83 499 66.5 460 Q50 421 37 379.5 Q24 338 18.5 304.5 Q13 271 17.5 250 Q22 229 41 230 Q56 231 77.5 243.5 Q99 256 122.5 274.5 Q146 293 170 315.5 Q194 338 213.5 357.5 Q233 377 246 391.5 Q259 406 261 410 Q278 443 298 474.5 Q318 506 339.5 534.5 Q361 563 383 587 Q405 611 426 629 Q450 650 459 650 Q465 650 468 645 Q472 640 470 634.5 Q468 629 460 616 Q450 602 432 580 Q414 558 392.5 533.5 Q371 509 348.5 483.5 Q326 458 308 438 Q290 418 278 405 Q266 392 266 392 Q239 335 216 277 Q196 227 176.5 168.5 Q157 110 149 56 Q146 35 147 22.5 Q148 10 150.5 3 Q153 -4 155 -6 Q157 -8 156 -9 Q155 -10 152 -10 Q149 -10 144 -5 Q138 3 136 20.5 Q134 38 139 66 Q147 113 162.5 164 Q178 215 195 259 Q214 310 236 359 Q223 345 199 321.5 Q175 298 148 275.5 Q121 253 94 236.5 Q67 220 47 220 Q41 220 36 221.5 Q31 223 26 225 Q12 233 7 248.5 Q2 264 2 282.5 Q2 301 5.5 320.5 Q9 340 13 356 Q16 368 23.5 390 Q31 412 41 439 Q51 466 64 494.5 Q77 523 90.5 546 Q104 569 118.5 584 Q133 599 146 599 Q153 597 155.5 593 Q158 589 154 590 Q152 590 151 590.5 Q150 591 149 591 Q146 591 142.5 589 Q139 587 133 580 Z M296 445 Q308 459 331.5 485.5 Q355 512 380 541.5 Q405 571 426.5 597 Q448 623 455 636 Q425 617 396.5 584.5 Q368 552 345.5 521.5 Q323 491 309.5 468 Q296 445 296 445 Z M269 639 Q265 642 266.5 646 Q268 650 272 650 Q276 650 279 646 Q282 642 280 639 Q278 636 274 636 Q271 636 269 639 Z M287 635 Q284 638 285.5 642 Q287 646 291 646 Q295 646 298 642 Q301 638 299 635 Q297 632 293 632 Q290 632 287 635 Z " />
<glyph glyph-name="uni00A1" unicode="&#xa1;" horiz-adv-x="114" d="M3 159 Q-3 145 -5.5 139 Q-8 133 -11 128 Q-13 126 -15 126 Q-18 126 -21 130 Q-22 131 -22 133 Q-22 135 -18.5 144 Q-15 153 -7.5 172 Q0 191 14 226 Q28 261 49.5 315.5 Q71 370 103 449 L106 449 Q110 449 113 447 Q115 446 116.5 445.5 Q118 445 116 438.5 Q114 432 108 416.5 Q102 401 89 369.5 Q76 338 55 287 Q34 236 3 159 Z M118 467 Q117 469 117 469.5 Q117 470 118.5 472.5 Q120 475 122.5 481 Q125 487 129 500 Q133 511 134 514.5 Q135 518 136 518 Q139 518 141 516 Q142 514 142 513 Q142 512 140 507 Q128 465 121 465 Q120 465 118 467 Z " />
<glyph glyph-name="uni00BF" unicode="&#xbf;" horiz-adv-x="178" d="M146 236 Q143 216 127 195.5 Q111 175 89.5 158.5 Q68 142 45 132 Q22 122 5 122 Q-4 122 -10 125 Q-21 131 -20 144 Q-19 153 -1.5 175 Q16 197 42 232 Q68 267 99.5 315.5 Q131 364 161 425 Q166 434 168 434 Q169 434 169.5 433.5 Q170 433 171 433 Q173 432 174 430 Q175 428 172 421 Q160 389 141.5 356.5 Q123 324 102 293 Q81 262 59.5 234 Q38 206 20 182 Q3 161 -4.5 151 Q-12 141 -13 133 Q-12 133 -9 131.5 Q-6 130 2 130 Q16 130 31.5 136 Q47 142 62.5 151 Q78 160 91.5 171 Q105 182 113 191 Q130 211 137.5 230.5 Q145 250 137 254 Q135 256 129 256.5 Q123 257 121 257 Q119 256 117.5 258 Q116 260 117 262 Q117 263 122 263 Q129 263 138.5 258 Q148 253 146 236 Z M200 497 Q195 480 188 464.5 Q181 449 179 450 Q177 450 175 451.5 Q173 453 173 454 Q173 455 176.5 463.5 Q180 472 185 483 Q190 496 196 512 Q203 512 202.5 508 Q202 504 200 497 Z " />
<glyph glyph-name="uni2026" unicode="&#x2026;" horiz-adv-x="201" d="M146 231 Q143 234 144.5 239 Q146 244 152 244 L155 244 Q163 242 161 235 Q159 228 153 228 Q149 228 146 231 Z M76 231 Q73 234 74.5 239 Q76 244 82 244 L85 244 Q93 242 91 235 Q89 228 83 228 Q79 228 76 231 Z M15 244 Q23 242 21 235 Q19 228 13 228 Q9 228 6 231 Q3 234 4.5 239 Q6 244 12 244 L15 244 Z " />
<glyph glyph-name="uni00C0" unicode="&#xc0;" horiz-adv-x="262" d="M114 269 Q104 254 88 232 Q72 210 53 186 Q34 162 13 137.5 Q-8 113 -28.5 94 Q-49 75 -68 63 Q-87 51 -102 51 Q-109 51 -115 54 Q-134 63 -131 89 Q-128 115 -103 147 Q-78 179 -30 211.5 Q18 244 89 268 L103 273 Q124 309 146 349 Q168 389 189 429 Q210 469 229 505.5 Q248 542 263.5 570.5 Q279 599 289.5 615.5 Q300 632 303 632 Q319 632 314 617 Q311 606 300.5 578.5 Q290 551 276 516 Q262 481 247 443.5 Q232 406 219 373.5 Q206 341 197.5 319 Q189 297 188 294 Q218 298 232 298.5 Q246 299 262 300 Q265 298 264.5 296 Q264 294 260 294 Q248 294 236 293 Q224 292 213.5 291 Q203 290 195.5 288.5 Q188 287 187 287 Q186 287 178 266.5 Q170 246 159 215 Q148 184 136 148 Q124 112 113.5 80 Q103 48 96 25.5 Q89 3 89 0 Q89 -2 88.5 -2.5 Q88 -3 88 -4 Q88 -4 88 -5 Q79 -5 80 5 Q81 11 85 26.5 Q89 42 95 62.5 Q101 83 108.5 107.5 Q116 132 124 156 Q143 213 166 282 Q166 283 158 281 Q150 279 140 276 Q128 273 114 269 Z M97 263 Q97 264 83 259 Q69 254 47 244.5 Q25 235 -1.5 220 Q-28 205 -52 186.5 Q-76 168 -95.5 145 Q-115 122 -122 96 Q-127 79 -123.5 68.5 Q-120 58 -107 58 Q-87 58 -46 90 Q-5 122 55 202 Q60 209 67 219 Q74 229 81 239 Q88 249 92.5 256 Q97 263 97 263 Z M180 386 Q162 352 150.5 331 Q139 310 132 298 Q125 286 122.5 282 Q120 278 121 278 Q141 284 150.5 286 Q160 288 164.5 289 Q169 290 170 291.5 Q171 293 173 298 Q182 323 194 353.5 Q206 384 218.5 415 Q231 446 243 475 Q255 504 264 526.5 Q273 549 278.5 563 Q284 577 284 577 Q274 560 259 533 Q246 510 226.5 474 Q207 438 180 386 Z M314 646 Q311 647 308 650.5 Q305 654 303 657.5 Q301 661 301 664 Q301 667 304 666 Q310 665 310 662 Q309 660 311.5 655.5 Q314 651 316 649 L318 647 Q318 644 314 646 Z " />
<glyph glyph-name="uni00C1" unicode="&#xc1;" horiz-adv-x="262" d="M114 269 Q104 254 88 232 Q72 210 53 186 Q34 162 13 137.5 Q-8 113 -28.5 94 Q-49 75 -68 63 Q-87 51 -102 51 Q-109 51 -115 54 Q-134 63 -131 89 Q-128 115 -103 147 Q-78 179 -30 211.5 Q18 244 89 268 L103 273 Q124 309 146 349 Q168 389 189 429 Q210 469 229 505.5 Q248 542 263.5 570.5 Q279 599 289.5 615.5 Q300 632 303 632 Q319 632 314 617 Q311 606 300.5 578.5 Q290 551 276 516 Q262 481 247 443.5 Q232 406 219 373.5 Q206 341 197.5 319 Q189 297 188 294 Q218 298 232 298.5 Q246 299 262 300 Q265 298 264.5 296 Q264 294 260 294 Q248 294 236 293 Q224 292 213.5 291 Q203 290 195.5 288.5 Q188 287 187 287 Q186 287 178 266.5 Q170 246 159 215 Q148 184 136 148 Q124 112 113.5 80 Q103 48 96 25.5 Q89 3 89 0 Q89 -2 88.5 -2.5 Q88 -3 88 -4 Q88 -4 88 -5 Q79 -5 80 5 Q81 11 85 26.5 Q89 42 95 62.5 Q101 83 108.5 107.5 Q116 132 124 156 Q143 213 166 282 Q166 283 158 281 Q150 279 140 276 Q128 273 114 269 Z M97 263 Q97 264 83 259 Q69 254 47 244.5 Q25 235 -1.5 220 Q-28 205 -52 186.5 Q-76 168 -95.5 145 Q-115 122 -122 96 Q-127 79 -123.5 68.5 Q-120 58 -107 58 Q-87 58 -46 90 Q-5 122 55 202 Q60 209 67 219 Q74 229 81 239 Q88 249 92.5 256 Q97 263 97 263 Z M180 386 Q162 352 150.5 331 Q139 310 132 298 Q125 286 122.5 282 Q120 278 121 278 Q141 284 150.5 286 Q160 288 164.5 289 Q169 290 170 291.5 Q171 293 173 298 Q182 323 194 353.5 Q206 384 218.5 415 Q231 446 243 475 Q255 504 264 526.5 Q273 549 278.5 563 Q284 577 284 577 Q274 560 259 533 Q246 510 226.5 474 Q207 438 180 386 Z M314 650 Q312 650 311 651 Q310 652 314 653 Q316 654 320.5 656.5 Q325 659 325 661 Q325 663 328 663 Q329 663 329.5 662.5 Q330 662 332 662 Q335 661 334 659 Q333 657 329.5 655 Q326 653 321.5 651.5 Q317 650 314 650 Z " />
<glyph glyph-name="uni00C2" unicode="&#xc2;" horiz-adv-x="262" d="M114 269 Q104 254 88 232 Q72 210 53 186 Q34 162 13 137.5 Q-8 113 -28.5 94 Q-49 75 -68 63 Q-87 51 -102 51 Q-109 51 -115 54 Q-134 63 -131 89 Q-128 115 -103 147 Q-78 179 -30 211.5 Q18 244 89 268 L103 273 Q124 309 146 349 Q168 389 189 429 Q210 469 229 505.5 Q248 542 263.5 570.5 Q279 599 289.5 615.5 Q300 632 303 632 Q319 632 314 617 Q311 606 300.5 578.5 Q290 551 276 516 Q262 481 247 443.5 Q232 406 219 373.5 Q206 341 197.5 319 Q189 297 188 294 Q218 298 232 298.5 Q246 299 262 300 Q265 298 264.5 296 Q264 294 260 294 Q248 294 236 293 Q224 292 213.5 291 Q203 290 195.5 288.5 Q188 287 187 287 Q186 287 178 266.5 Q170 246 159 215 Q148 184 136 148 Q124 112 113.5 80 Q103 48 96 25.5 Q89 3 89 0 Q89 -2 88.5 -2.5 Q88 -3 88 -4 Q88 -4 88 -5 Q79 -5 80 5 Q81 11 85 26.5 Q89 42 95 62.5 Q101 83 108.5 107.5 Q116 132 124 156 Q143 213 166 282 Q166 283 158 281 Q150 279 140 276 Q128 273 114 269 Z M97 263 Q97 264 83 259 Q69 254 47 244.5 Q25 235 -1.5 220 Q-28 205 -52 186.5 Q-76 168 -95.5 145 Q-115 122 -122 96 Q-127 79 -123.5 68.5 Q-120 58 -107 58 Q-87 58 -46 90 Q-5 122 55 202 Q60 209 67 219 Q74 229 81 239 Q88 249 92.5 256 Q97 263 97 263 Z M180 386 Q162 352 150.5 331 Q139 310 132 298 Q125 286 122.5 282 Q120 278 121 278 Q141 284 150.5 286 Q160 288 164.5 289 Q169 290 170 291.5 Q171 293 173 298 Q182 323 194 353.5 Q206 384 218.5 415 Q231 446 243 475 Q255 504 264 526.5 Q273 549 278.5 563 Q284 577 284 577 Q274 560 259 533 Q246 510 226.5 474 Q207 438 180 386 Z M319 655 Q317 653 313.5 649 Q310 645 310 644 Q310 641 306 644 Q301 647 302.5 651.5 Q304 656 308 660.5 Q312 665 316.5 668.5 Q321 672 322 672 Q324 672 327.5 670.5 Q331 669 330 664 Q330 664 328 654 Q326 644 326 642 Q326 640 324 641 Q318 644 319.5 650.5 Q321 657 319 655 Z " />
<glyph glyph-name="uni00C3" unicode="&#xc3;" horiz-adv-x="262" d="M114 269 Q104 254 88 232 Q72 210 53 186 Q34 162 13 137.5 Q-8 113 -28.5 94 Q-49 75 -68 63 Q-87 51 -102 51 Q-109 51 -115 54 Q-134 63 -131 89 Q-128 115 -103 147 Q-78 179 -30 211.5 Q18 244 89 268 L103 273 Q124 309 146 349 Q168 389 189 429 Q210 469 229 505.5 Q248 542 263.5 570.5 Q279 599 289.5 615.5 Q300 632 303 632 Q319 632 314 617 Q311 606 300.5 578.5 Q290 551 276 516 Q262 481 247 443.5 Q232 406 219 373.5 Q206 341 197.5 319 Q189 297 188 294 Q218 298 232 298.5 Q246 299 262 300 Q265 298 264.5 296 Q264 294 260 294 Q248 294 236 293 Q224 292 213.5 291 Q203 290 195.5 288.5 Q188 287 187 287 Q186 287 178 266.5 Q170 246 159 215 Q148 184 136 148 Q124 112 113.5 80 Q103 48 96 25.5 Q89 3 89 0 Q89 -2 88.5 -2.5 Q88 -3 88 -4 Q88 -4 88 -5 Q79 -5 80 5 Q81 11 85 26.5 Q89 42 95 62.5 Q101 83 108.5 107.5 Q116 132 124 156 Q143 213 166 282 Q166 283 158 281 Q150 279 140 276 Q128 273 114 269 Z M97 263 Q97 264 83 259 Q69 254 47 244.5 Q25 235 -1.5 220 Q-28 205 -52 186.5 Q-76 168 -95.5 145 Q-115 122 -122 96 Q-127 79 -123.5 68.5 Q-120 58 -107 58 Q-87 58 -46 90 Q-5 122 55 202 Q60 209 67 219 Q74 229 81 239 Q88 249 92.5 256 Q97 263 97 263 Z M180 386 Q162 352 150.5 331 Q139 310 132 298 Q125 286 122.5 282 Q120 278 121 278 Q141 284 150.5 286 Q160 288 164.5 289 Q169 290 170 291.5 Q171 293 173 298 Q182 323 194 353.5 Q206 384 218.5 415 Q231 446 243 475 Q255 504 264 526.5 Q273 549 278.5 563 Q284 577 284 577 Q274 560 259 533 Q246 510 226.5 474 Q207 438 180 386 Z M317 653 Q312 651 308 649 Q305 647 302 645 Q299 643 299 641 Q299 638 296 641 Q292 645 298 650 Q302 654 310.5 658 Q319 662 321 661 Q324 660 324 655.5 Q324 651 321 646 Q323 646 324 645.5 Q325 645 326 645 Q332 645 336.5 646.5 Q341 648 343 649 Q345 644 345 643 Q345 642 339 640 Q332 637 326 637 Q318 637 316 645 Q316 649 317 653 Z " />
<glyph glyph-name="uni00C4" unicode="&#xc4;" horiz-adv-x="262" d="M114 269 Q104 254 88 232 Q72 210 53 186 Q34 162 13 137.5 Q-8 113 -28.5 94 Q-49 75 -68 63 Q-87 51 -102 51 Q-109 51 -115 54 Q-134 63 -131 89 Q-128 115 -103 147 Q-78 179 -30 211.5 Q18 244 89 268 L103 273 Q124 309 146 349 Q168 389 189 429 Q210 469 229 505.5 Q248 542 263.5 570.5 Q279 599 289.5 615.5 Q300 632 303 632 Q319 632 314 617 Q311 606 300.5 578.5 Q290 551 276 516 Q262 481 247 443.5 Q232 406 219 373.5 Q206 341 197.5 319 Q189 297 188 294 Q218 298 232 298.5 Q246 299 262 300 Q265 298 264.5 296 Q264 294 260 294 Q248 294 236 293 Q224 292 213.5 291 Q203 290 195.5 288.5 Q188 287 187 287 Q186 287 178 266.5 Q170 246 159 215 Q148 184 136 148 Q124 112 113.5 80 Q103 48 96 25.5 Q89 3 89 0 Q89 -2 88.5 -2.5 Q88 -3 88 -4 Q88 -4 88 -5 Q79 -5 80 5 Q81 11 85 26.5 Q89 42 95 62.5 Q101 83 108.5 107.5 Q116 132 124 156 Q143 213 166 282 Q166 283 158 281 Q150 279 140 276 Q128 273 114 269 Z M97 263 Q97 264 83 259 Q69 254 47 244.5 Q25 235 -1.5 220 Q-28 205 -52 186.5 Q-76 168 -95.5 145 Q-115 122 -122 96 Q-127 79 -123.5 68.5 Q-120 58 -107 58 Q-87 58 -46 90 Q-5 122 55 202 Q60 209 67 219 Q74 229 81 239 Q88 249 92.5 256 Q97 263 97 263 Z M180 386 Q162 352 150.5 331 Q139 310 132 298 Q125 286 122.5 282 Q120 278 121 278 Q141 284 150.5 286 Q160 288 164.5 289 Q169 290 170 291.5 Q171 293 173 298 Q182 323 194 353.5 Q206 384 218.5 415 Q231 446 243 475 Q255 504 264 526.5 Q273 549 278.5 563 Q284 577 284 577 Q274 560 259 533 Q246 510 226.5 474 Q207 438 180 386 Z M305 654 Q301 657 302.5 661 Q304 665 308 665 Q312 665 315 661 Q318 657 316 654 Q314 651 310 651 Q307 651 305 654 Z M323 650 Q320 653 321.5 657 Q323 661 327 661 Q331 661 334 657 Q337 653 335 650 Q333 647 329 647 Q326 647 323 650 Z " />
<glyph glyph-name="uni00C5" unicode="&#xc5;" horiz-adv-x="262" d="M114 269 Q104 254 88 232 Q72 210 53 186 Q34 162 13 137.5 Q-8 113 -28.5 94 Q-49 75 -68 63 Q-87 51 -102 51 Q-109 51 -115 54 Q-134 63 -131 89 Q-128 115 -103 147 Q-78 179 -30 211.5 Q18 244 89 268 L103 273 Q124 309 146 349 Q168 389 189 429 Q210 469 229 505.5 Q248 542 263.5 570.5 Q279 599 289.5 615.5 Q300 632 303 632 Q319 632 314 617 Q311 606 300.5 578.5 Q290 551 276 516 Q262 481 247 443.5 Q232 406 219 373.5 Q206 341 197.5 319 Q189 297 188 294 Q218 298 232 298.5 Q246 299 262 300 Q265 298 264.5 296 Q264 294 260 294 Q248 294 236 293 Q224 292 213.5 291 Q203 290 195.5 288.5 Q188 287 187 287 Q186 287 178 266.5 Q170 246 159 215 Q148 184 136 148 Q124 112 113.5 80 Q103 48 96 25.5 Q89 3 89 0 Q89 -2 88.5 -2.5 Q88 -3 88 -4 Q88 -4 88 -5 Q79 -5 80 5 Q81 11 85 26.5 Q89 42 95 62.5 Q101 83 108.5 107.5 Q116 132 124 156 Q143 213 166 282 Q166 283 158 281 Q150 279 140 276 Q128 273 114 269 Z M97 263 Q97 264 83 259 Q69 254 47 244.5 Q25 235 -1.5 220 Q-28 205 -52 186.5 Q-76 168 -95.5 145 Q-115 122 -122 96 Q-127 79 -123.5 68.5 Q-120 58 -107 58 Q-87 58 -46 90 Q-5 122 55 202 Q60 209 67 219 Q74 229 81 239 Q88 249 92.5 256 Q97 263 97 263 Z M180 386 Q162 352 150.5 331 Q139 310 132 298 Q125 286 122.5 282 Q120 278 121 278 Q141 284 150.5 286 Q160 288 164.5 289 Q169 290 170 291.5 Q171 293 173 298 Q182 323 194 353.5 Q206 384 218.5 415 Q231 446 243 475 Q255 504 264 526.5 Q273 549 278.5 563 Q284 577 284 577 Q274 560 259 533 Q246 510 226.5 474 Q207 438 180 386 Z M309 660 Q309 662 311 668 Q313 674 315 674 Q322 674 328 670 Q337 664 333 656 Q328 646 318 648 Q313 648 311 652.5 Q309 657 309 660 Z M321 662 Q322 664 320.5 664 Q319 664 318 662 Q318 660 319 660 Q320 660 321 662 Z " />
<glyph glyph-name="uni00C8" unicode="&#xc8;" horiz-adv-x="344" d="M286 356 Q306 363 314 365.5 Q322 368 324 368 Q326 368 327 365 Q327 364 326.5 363 Q326 362 323 360.5 Q320 359 313 357 Q306 355 294 351 Q260 340 219 324 Q178 308 141.5 293.5 Q105 279 80.5 268.5 Q56 258 55 256 Q55 255 48 238.5 Q41 222 31 197 Q21 172 9 141.5 Q-3 111 -14.5 82 Q-26 53 -35 29.5 Q-44 6 -47 -6 Q-42 -5 -22.5 3.5 Q-3 12 29.5 24 Q62 36 105.5 50.5 Q149 65 201 78 Q218 83 236 87 Q254 91 257 91 Q259 91 260 88.5 Q261 86 259 85 Q253 83 228 77.5 Q203 72 144 53 Q67 29 16.5 9.5 Q-34 -10 -64 -24.5 Q-94 -39 -108 -46.5 Q-122 -54 -126 -54 Q-129 -54 -129 -50 Q-129 -49 -120 -43.5 Q-111 -38 -99.5 -32 Q-88 -26 -77 -20.5 Q-66 -15 -63 -13 Q-62 -9 -57.5 4 Q-53 17 -46 36.5 Q-39 56 -30 79 Q-21 102 -12 125 Q9 180 35 247 Q35 247 22.5 241 Q10 235 -7.5 226 Q-25 217 -44.5 206.5 Q-64 196 -79 186 Q-90 179 -91 178.5 Q-92 178 -93 179 Q-96 182 -87.5 189 Q-79 196 -64.5 204.5 Q-50 213 -32 222.5 Q-14 232 1.5 240 Q17 248 28 253 Q39 258 39 259 Q39 259 45 272.5 Q51 286 60.5 308.5 Q70 331 81.5 359 Q93 387 105 417 Q134 486 171 574 Q171 574 162.5 571 Q154 568 143 563.5 Q132 559 119 554 Q106 549 97 545 Q67 532 48.5 522.5 Q30 513 19.5 507 Q9 501 5 498.5 Q1 496 -1 496 Q-2 496 -2 500 Q-3 504 9.5 512 Q22 520 41.5 529 Q61 538 84 548 Q107 558 127 566 Q147 574 161 579.5 Q175 585 175 585 Q176 586 178 590 Q180 594 182 599 Q183 601 185 605.5 Q187 610 189.5 614 Q192 618 194.5 621 Q197 624 199 623 Q206 619 203 613 Q201 611 198 604 Q195 597 193 593 Q193 593 212.5 599.5 Q232 606 261.5 616.5 Q291 627 327 639.5 Q363 652 395 663 Q427 674 451 681 Q475 688 482 688 Q484 687 484 687 Q487 682 484 681 Q474 678 452 671.5 Q430 665 394 653 Q358 641 307.5 623.5 Q257 606 189 581 Q170 534 156.5 502 Q143 470 133.5 446.5 Q124 423 116.5 405 Q109 387 101 368 Q93 349 83.5 326 Q74 303 60 269 Q60 268 77.5 275.5 Q95 283 126 295.5 Q157 308 198 324 Q239 340 286 356 Z M290 661 Q287 662 284 665.5 Q281 669 279 672.5 Q277 676 277 679 Q277 682 280 681 Q286 680 286 677 Q285 675 287.5 670.5 Q290 666 292 664 L294 662 Q294 659 290 661 Z " />
<glyph glyph-name="uni00C7" unicode="&#xc7;" horiz-adv-x="234" d="M96 66 Q115 93 135.5 126 Q156 159 174.5 192 Q193 225 208.5 254 Q224 283 234 300 Q241 299 238 293 Q230 278 214 248 Q198 218 177.5 182.5 Q157 147 134 110 Q111 73 87.5 42.5 Q64 12 42 -7.5 Q20 -27 3 -27 L-2 -27 Q-29 -22 -37.5 18.5 Q-46 59 -39.5 120 Q-33 181 -14 254.5 Q5 328 33.5 398.5 Q62 469 98 529 Q134 589 173 623 Q210 655 241 655 Q258 655 270.5 644.5 Q283 634 288.5 612.5 Q294 591 291 557.5 Q288 524 274 479 Q270 465 262 444 Q254 423 243.5 403.5 Q233 384 220.5 370.5 Q208 357 194 357 Q189 357 186 358 Q168 364 164 382.5 Q160 401 163.5 422 Q167 443 174.5 461.5 Q182 480 185 484 Q190 490 193 490 Q195 490 198 487 L195 485 Q189 481 182 462 Q175 443 171 421 Q167 399 169.5 381 Q172 363 187 361 L189 361 Q204 361 220 382 Q236 403 249.5 435 Q263 467 272.5 503.5 Q282 540 283.5 572 Q285 604 277 625 Q269 646 248 646 Q238 646 224 640 Q191 625 160 588.5 Q129 552 101.5 502.5 Q74 453 50.5 395 Q27 337 9.5 279 Q-8 221 -18 167 Q-28 113 -30 71 Q-32 29 -24.5 4 Q-17 -21 1 -21 Q16 -21 39.5 -0.5 Q63 20 96 66 Z M-14 -60 Q-12 -58 -8 -53 Q-4 -48 -3 -46 Q-1 -42 -8.5 -41 Q-16 -40 -16 -34 Q-17 -32 -14 -27.5 Q-11 -23 -9 -22 Q-8 -21 -7 -21 Q-4 -21 -1 -24 Q0 -26 -3 -30 Q-6 -35 -4 -37 Q-2 -39 1.5 -41 Q5 -43 7.5 -46 Q10 -49 8 -55 Q6 -58 1.5 -63.5 Q-3 -69 -8 -69 Q-10 -69 -11 -68 Q-18 -64 -14 -60 Z " />
<glyph glyph-name="uni00C9" unicode="&#xc9;" horiz-adv-x="344" d="M286 356 Q306 363 314 365.5 Q322 368 324 368 Q326 368 327 365 Q327 364 326.5 363 Q326 362 323 360.5 Q320 359 313 357 Q306 355 294 351 Q260 340 219 324 Q178 308 141.5 293.5 Q105 279 80.5 268.5 Q56 258 55 256 Q55 255 48 238.5 Q41 222 31 197 Q21 172 9 141.5 Q-3 111 -14.5 82 Q-26 53 -35 29.5 Q-44 6 -47 -6 Q-42 -5 -22.5 3.5 Q-3 12 29.5 24 Q62 36 105.5 50.5 Q149 65 201 78 Q218 83 236 87 Q254 91 257 91 Q259 91 260 88.5 Q261 86 259 85 Q253 83 228 77.5 Q203 72 144 53 Q67 29 16.5 9.5 Q-34 -10 -64 -24.5 Q-94 -39 -108 -46.5 Q-122 -54 -126 -54 Q-129 -54 -129 -50 Q-129 -49 -120 -43.5 Q-111 -38 -99.5 -32 Q-88 -26 -77 -20.5 Q-66 -15 -63 -13 Q-62 -9 -57.5 4 Q-53 17 -46 36.5 Q-39 56 -30 79 Q-21 102 -12 125 Q9 180 35 247 Q35 247 22.5 241 Q10 235 -7.5 226 Q-25 217 -44.5 206.5 Q-64 196 -79 186 Q-90 179 -91 178.5 Q-92 178 -93 179 Q-96 182 -87.5 189 Q-79 196 -64.5 204.5 Q-50 213 -32 222.5 Q-14 232 1.5 240 Q17 248 28 253 Q39 258 39 259 Q39 259 45 272.5 Q51 286 60.5 308.5 Q70 331 81.5 359 Q93 387 105 417 Q134 486 171 574 Q171 574 162.5 571 Q154 568 143 563.5 Q132 559 119 554 Q106 549 97 545 Q67 532 48.5 522.5 Q30 513 19.5 507 Q9 501 5 498.5 Q1 496 -1 496 Q-2 496 -2 500 Q-3 504 9.5 512 Q22 520 41.5 529 Q61 538 84 548 Q107 558 127 566 Q147 574 161 579.5 Q175 585 175 585 Q176 586 178 590 Q180 594 182 599 Q183 601 185 605.5 Q187 610 189.5 614 Q192 618 194.5 621 Q197 624 199 623 Q206 619 203 613 Q201 611 198 604 Q195 597 193 593 Q193 593 212.5 599.5 Q232 606 261.5 616.5 Q291 627 327 639.5 Q363 652 395 663 Q427 674 451 681 Q475 688 482 688 Q484 687 484 687 Q487 682 484 681 Q474 678 452 671.5 Q430 665 394 653 Q358 641 307.5 623.5 Q257 606 189 581 Q170 534 156.5 502 Q143 470 133.5 446.5 Q124 423 116.5 405 Q109 387 101 368 Q93 349 83.5 326 Q74 303 60 269 Q60 268 77.5 275.5 Q95 283 126 295.5 Q157 308 198 324 Q239 340 286 356 Z M279 661 Q277 661 276 662 Q275 663 279 664 Q281 665 285.5 667.5 Q290 670 290 672 Q290 674 293 674 Q294 674 294.5 673.5 Q295 673 297 673 Q300 672 299 670 Q298 668 294.5 666 Q291 664 286.5 662.5 Q282 661 279 661 Z " />
<glyph glyph-name="uni00CA" unicode="&#xca;" horiz-adv-x="344" d="M286 356 Q306 363 314 365.5 Q322 368 324 368 Q326 368 327 365 Q327 364 326.5 363 Q326 362 323 360.5 Q320 359 313 357 Q306 355 294 351 Q260 340 219 324 Q178 308 141.5 293.5 Q105 279 80.5 268.5 Q56 258 55 256 Q55 255 48 238.5 Q41 222 31 197 Q21 172 9 141.5 Q-3 111 -14.5 82 Q-26 53 -35 29.5 Q-44 6 -47 -6 Q-42 -5 -22.5 3.5 Q-3 12 29.5 24 Q62 36 105.5 50.5 Q149 65 201 78 Q218 83 236 87 Q254 91 257 91 Q259 91 260 88.5 Q261 86 259 85 Q253 83 228 77.5 Q203 72 144 53 Q67 29 16.5 9.5 Q-34 -10 -64 -24.5 Q-94 -39 -108 -46.5 Q-122 -54 -126 -54 Q-129 -54 -129 -50 Q-129 -49 -120 -43.5 Q-111 -38 -99.5 -32 Q-88 -26 -77 -20.5 Q-66 -15 -63 -13 Q-62 -9 -57.5 4 Q-53 17 -46 36.5 Q-39 56 -30 79 Q-21 102 -12 125 Q9 180 35 247 Q35 247 22.5 241 Q10 235 -7.5 226 Q-25 217 -44.5 206.5 Q-64 196 -79 186 Q-90 179 -91 178.5 Q-92 178 -93 179 Q-96 182 -87.5 189 Q-79 196 -64.5 204.5 Q-50 213 -32 222.5 Q-14 232 1.5 240 Q17 248 28 253 Q39 258 39 259 Q39 259 45 272.5 Q51 286 60.5 308.5 Q70 331 81.5 359 Q93 387 105 417 Q134 486 171 574 Q171 574 162.5 571 Q154 568 143 563.5 Q132 559 119 554 Q106 549 97 545 Q67 532 48.5 522.5 Q30 513 19.5 507 Q9 501 5 498.5 Q1 496 -1 496 Q-2 496 -2 500 Q-3 504 9.5 512 Q22 520 41.5 529 Q61 538 84 548 Q107 558 127 566 Q147 574 161 579.5 Q175 585 175 585 Q176 586 178 590 Q180 594 182 599 Q183 601 185 605.5 Q187 610 189.5 614 Q192 618 194.5 621 Q197 624 199 623 Q206 619 203 613 Q201 611 198 604 Q195 597 193 593 Q193 593 212.5 599.5 Q232 606 261.5 616.5 Q291 627 327 639.5 Q363 652 395 663 Q427 674 451 681 Q475 688 482 688 Q484 687 484 687 Q487 682 484 681 Q474 678 452 671.5 Q430 665 394 653 Q358 641 307.5 623.5 Q257 606 189 581 Q170 534 156.5 502 Q143 470 133.5 446.5 Q124 423 116.5 405 Q109 387 101 368 Q93 349 83.5 326 Q74 303 60 269 Q60 268 77.5 275.5 Q95 283 126 295.5 Q157 308 198 324 Q239 340 286 356 Z M274 674 Q272 672 268.5 668 Q265 664 265 663 Q265 660 261 663 Q256 666 257.5 670.5 Q259 675 263 679.5 Q267 684 271.5 687.5 Q276 691 277 691 Q279 691 282.5 689.5 Q286 688 285 683 Q285 683 283 673 Q281 663 281 661 Q281 659 279 660 Q273 663 274.5 669.5 Q276 676 274 674 Z " />
<glyph glyph-name="uni00CB" unicode="&#xcb;" horiz-adv-x="344" d="M286 356 Q306 363 314 365.5 Q322 368 324 368 Q326 368 327 365 Q327 364 326.5 363 Q326 362 323 360.5 Q320 359 313 357 Q306 355 294 351 Q260 340 219 324 Q178 308 141.5 293.5 Q105 279 80.5 268.5 Q56 258 55 256 Q55 255 48 238.5 Q41 222 31 197 Q21 172 9 141.5 Q-3 111 -14.5 82 Q-26 53 -35 29.5 Q-44 6 -47 -6 Q-42 -5 -22.5 3.5 Q-3 12 29.5 24 Q62 36 105.5 50.5 Q149 65 201 78 Q218 83 236 87 Q254 91 257 91 Q259 91 260 88.5 Q261 86 259 85 Q253 83 228 77.5 Q203 72 144 53 Q67 29 16.5 9.5 Q-34 -10 -64 -24.5 Q-94 -39 -108 -46.5 Q-122 -54 -126 -54 Q-129 -54 -129 -50 Q-129 -49 -120 -43.5 Q-111 -38 -99.5 -32 Q-88 -26 -77 -20.5 Q-66 -15 -63 -13 Q-62 -9 -57.5 4 Q-53 17 -46 36.5 Q-39 56 -30 79 Q-21 102 -12 125 Q9 180 35 247 Q35 247 22.5 241 Q10 235 -7.5 226 Q-25 217 -44.5 206.5 Q-64 196 -79 186 Q-90 179 -91 178.5 Q-92 178 -93 179 Q-96 182 -87.5 189 Q-79 196 -64.5 204.5 Q-50 213 -32 222.5 Q-14 232 1.5 240 Q17 248 28 253 Q39 258 39 259 Q39 259 45 272.5 Q51 286 60.5 308.5 Q70 331 81.5 359 Q93 387 105 417 Q134 486 171 574 Q171 574 162.5 571 Q154 568 143 563.5 Q132 559 119 554 Q106 549 97 545 Q67 532 48.5 522.5 Q30 513 19.5 507 Q9 501 5 498.5 Q1 496 -1 496 Q-2 496 -2 500 Q-3 504 9.5 512 Q22 520 41.5 529 Q61 538 84 548 Q107 558 127 566 Q147 574 161 579.5 Q175 585 175 585 Q176 586 178 590 Q180 594 182 599 Q183 601 185 605.5 Q187 610 189.5 614 Q192 618 194.5 621 Q197 624 199 623 Q206 619 203 613 Q201 611 198 604 Q195 597 193 593 Q193 593 212.5 599.5 Q232 606 261.5 616.5 Q291 627 327 639.5 Q363 652 395 663 Q427 674 451 681 Q475 688 482 688 Q484 687 484 687 Q487 682 484 681 Q474 678 452 671.5 Q430 665 394 653 Q358 641 307.5 623.5 Q257 606 189 581 Q170 534 156.5 502 Q143 470 133.5 446.5 Q124 423 116.5 405 Q109 387 101 368 Q93 349 83.5 326 Q74 303 60 269 Q60 268 77.5 275.5 Q95 283 126 295.5 Q157 308 198 324 Q239 340 286 356 Z M270 671 Q266 674 267.5 678 Q269 682 273 682 Q277 682 280 678 Q283 674 281 671 Q279 668 275 668 Q272 668 270 671 Z M288 667 Q285 670 286.5 674 Q288 678 292 678 Q296 678 299 674 Q302 670 300 667 Q298 664 294 664 Q291 664 288 667 Z " />
<glyph glyph-name="uni00CC" unicode="&#xcc;" horiz-adv-x="125" d="M-80 -5 Q-72 0 -64.5 4 Q-57 8 -52 10 Q-46 13 -41 15 Q-41 33 -30.5 70 Q-20 107 -2.5 155.5 Q15 204 37.5 260 Q60 316 83 371 Q138 501 209 654 Q172 645 140 633.5 Q108 622 85 610.5 Q62 599 49 590 Q36 581 37 576 Q38 574 37 573 Q36 572 34 574 Q24 582 35 593.5 Q46 605 70.5 618 Q95 631 129.5 643 Q164 655 200 664 Q258 679 298 683.5 Q338 688 361 688 Q374 688 381 687.5 Q388 687 390 687 Q394 687 394.5 682 Q395 677 393 677 Q356 677 324.5 674 Q293 671 270.5 667 Q248 663 235.5 660 Q223 657 223 657 Q166 529 117 412 Q96 363 75 311 Q54 259 35 210.5 Q16 162 1 120.5 Q-14 79 -22 49 Q-25 38 -27 29.5 Q-29 21 -28 21 Q-27 20 -18.5 23 Q-10 26 3.5 30 Q17 34 35 37 Q53 40 72 40 Q83 40 95 39 Q107 38 118 34 Q135 29 129 23 Q118 28 106 29.5 Q94 31 81 31 Q48 31 12.5 21 Q-23 11 -51.5 -3 Q-80 -17 -97 -31 Q-114 -45 -109 -53 Q-108 -56 -109 -56 Q-111 -56 -114.5 -52 Q-118 -48 -118 -43 Q-120 -28 -80 -5 Z M229 687 Q226 688 223 691.5 Q220 695 218 698.5 Q216 702 216 705 Q216 708 219 707 Q225 706 225 703 Q224 701 226.5 696.5 Q229 692 231 690 L233 688 Q233 685 229 687 Z " />
<glyph glyph-name="uni00CD" unicode="&#xcd;" horiz-adv-x="125" d="M-80 -5 Q-72 0 -64.5 4 Q-57 8 -52 10 Q-46 13 -41 15 Q-41 33 -30.5 70 Q-20 107 -2.5 155.5 Q15 204 37.5 260 Q60 316 83 371 Q138 501 209 654 Q172 645 140 633.5 Q108 622 85 610.5 Q62 599 49 590 Q36 581 37 576 Q38 574 37 573 Q36 572 34 574 Q24 582 35 593.5 Q46 605 70.5 618 Q95 631 129.5 643 Q164 655 200 664 Q258 679 298 683.5 Q338 688 361 688 Q374 688 381 687.5 Q388 687 390 687 Q394 687 394.5 682 Q395 677 393 677 Q356 677 324.5 674 Q293 671 270.5 667 Q248 663 235.5 660 Q223 657 223 657 Q166 529 117 412 Q96 363 75 311 Q54 259 35 210.5 Q16 162 1 120.5 Q-14 79 -22 49 Q-25 38 -27 29.5 Q-29 21 -28 21 Q-27 20 -18.5 23 Q-10 26 3.5 30 Q17 34 35 37 Q53 40 72 40 Q83 40 95 39 Q107 38 118 34 Q135 29 129 23 Q118 28 106 29.5 Q94 31 81 31 Q48 31 12.5 21 Q-23 11 -51.5 -3 Q-80 -17 -97 -31 Q-114 -45 -109 -53 Q-108 -56 -109 -56 Q-111 -56 -114.5 -52 Q-118 -48 -118 -43 Q-120 -28 -80 -5 Z M227 696 Q225 696 224 697 Q223 698 227 699 Q229 700 233.5 702.5 Q238 705 238 707 Q238 709 241 709 Q242 709 242.5 708.5 Q243 708 245 708 Q248 707 247 705 Q246 703 242.5 701 Q239 699 234.5 697.5 Q230 696 227 696 Z " />
<glyph glyph-name="uni00CE" unicode="&#xce;" horiz-adv-x="125" d="M-80 -5 Q-72 0 -64.5 4 Q-57 8 -52 10 Q-46 13 -41 15 Q-41 33 -30.5 70 Q-20 107 -2.5 155.5 Q15 204 37.5 260 Q60 316 83 371 Q138 501 209 654 Q172 645 140 633.5 Q108 622 85 610.5 Q62 599 49 590 Q36 581 37 576 Q38 574 37 573 Q36 572 34 574 Q24 582 35 593.5 Q46 605 70.5 618 Q95 631 129.5 643 Q164 655 200 664 Q258 679 298 683.5 Q338 688 361 688 Q374 688 381 687.5 Q388 687 390 687 Q394 687 394.5 682 Q395 677 393 677 Q356 677 324.5 674 Q293 671 270.5 667 Q248 663 235.5 660 Q223 657 223 657 Q166 529 117 412 Q96 363 75 311 Q54 259 35 210.5 Q16 162 1 120.5 Q-14 79 -22 49 Q-25 38 -27 29.5 Q-29 21 -28 21 Q-27 20 -18.5 23 Q-10 26 3.5 30 Q17 34 35 37 Q53 40 72 40 Q83 40 95 39 Q107 38 118 34 Q135 29 129 23 Q118 28 106 29.5 Q94 31 81 31 Q48 31 12.5 21 Q-23 11 -51.5 -3 Q-80 -17 -97 -31 Q-114 -45 -109 -53 Q-108 -56 -109 -56 Q-111 -56 -114.5 -52 Q-118 -48 -118 -43 Q-120 -28 -80 -5 Z M239 706 Q237 704 233.5 700 Q230 696 230 695 Q230 692 226 695 Q221 698 222.5 702.5 Q224 707 228 711.5 Q232 716 236.5 719.5 Q241 723 242 723 Q244 723 247.5 721.5 Q251 720 250 715 Q250 715 248 705 Q246 695 246 693 Q246 691 244 692 Q238 695 239.5 701.5 Q241 708 239 706 Z " />
<glyph glyph-name="uni00CF" unicode="&#xcf;" horiz-adv-x="125" d="M-80 -5 Q-72 0 -64.5 4 Q-57 8 -52 10 Q-46 13 -41 15 Q-41 33 -30.5 70 Q-20 107 -2.5 155.5 Q15 204 37.5 260 Q60 316 83 371 Q138 501 209 654 Q172 645 140 633.5 Q108 622 85 610.5 Q62 599 49 590 Q36 581 37 576 Q38 574 37 573 Q36 572 34 574 Q24 582 35 593.5 Q46 605 70.5 618 Q95 631 129.5 643 Q164 655 200 664 Q258 679 298 683.5 Q338 688 361 688 Q374 688 381 687.5 Q388 687 390 687 Q394 687 394.5 682 Q395 677 393 677 Q356 677 324.5 674 Q293 671 270.5 667 Q248 663 235.5 660 Q223 657 223 657 Q166 529 117 412 Q96 363 75 311 Q54 259 35 210.5 Q16 162 1 120.5 Q-14 79 -22 49 Q-25 38 -27 29.5 Q-29 21 -28 21 Q-27 20 -18.5 23 Q-10 26 3.5 30 Q17 34 35 37 Q53 40 72 40 Q83 40 95 39 Q107 38 118 34 Q135 29 129 23 Q118 28 106 29.5 Q94 31 81 31 Q48 31 12.5 21 Q-23 11 -51.5 -3 Q-80 -17 -97 -31 Q-114 -45 -109 -53 Q-108 -56 -109 -56 Q-111 -56 -114.5 -52 Q-118 -48 -118 -43 Q-120 -28 -80 -5 Z M214 702 Q210 705 211.5 709 Q213 713 217 713 Q221 713 224 709 Q227 705 225 702 Q223 699 219 699 Q216 699 214 702 Z M232 698 Q229 701 230.5 705 Q232 709 236 709 Q240 709 243 705 Q246 701 244 698 Q242 695 238 695 Q235 695 232 698 Z " />
<glyph glyph-name="uni00D1" unicode="&#xd1;" horiz-adv-x="312" d="M-69 41 Q-67 40 -48 71 Q-29 102 0.5 151 Q30 200 67.5 259 Q105 318 143 373 Q148 381 163.5 402.5 Q179 424 200 451.5 Q221 479 245 510 Q269 541 291 566.5 Q313 592 331 609 Q349 626 359 627 Q376 628 376.5 609.5 Q377 591 366.5 554 Q356 517 337.5 462 Q319 407 298 336 Q281 280 268 230 Q255 180 247 139.5 Q239 99 235.5 69.5 Q232 40 235 25 Q237 17 239 12.5 Q241 8 245 4 Q251 -1 248 -1 Q244 -1 243 0 Q226 7 223.5 37.5 Q221 68 228 113 Q235 158 249.5 213 Q264 268 280.5 324 Q297 380 314.5 433 Q332 486 344.5 527 Q357 568 363.5 592.5 Q370 617 365 617 Q357 617 340 600.5 Q323 584 300.5 557 Q278 530 252 495.5 Q226 461 199.5 425 Q173 389 149 354 Q125 319 107 291 Q70 234 41 185 Q12 136 -10 100.5 Q-32 65 -46.5 45 Q-61 25 -69 24 Q-76 24 -81 29 Q-86 34 -83.5 49.5 Q-81 65 -74.5 87 Q-68 109 -58.5 135 Q-49 161 -39.5 185 Q-30 209 -20.5 229.5 Q-11 250 -6 261 Q-5 264 0 273.5 Q5 283 11.5 293 Q18 303 24.5 310.5 Q31 318 35 318 Q43 318 46 306 Q46 301 43 302 Q39 304 39 306 Q39 308 38 308 Q35 308 24.5 290 Q14 272 0.5 243 Q-13 214 -28 176.5 Q-43 139 -55 98 Q-57 90 -59.5 80.5 Q-62 71 -64.5 62 Q-67 53 -68 47 Q-69 41 -69 41 Z M373 662 Q368 660 364 658 Q361 656 358 654 Q355 652 355 650 Q355 647 352 650 Q348 654 354 659 Q358 663 366.5 667 Q375 671 377 670 Q380 669 380 664.5 Q380 660 377 655 Q379 655 380 654.5 Q381 654 382 654 Q388 654 392.5 655.5 Q397 657 399 658 Q401 653 401 652 Q401 651 395 649 Q388 646 382 646 Q374 646 372 654 Q372 658 373 662 Z " />
<glyph glyph-name="uni00D2" unicode="&#xd2;" horiz-adv-x="337" d="M18 94 Q17 95 12 100.5 Q7 106 1.5 118 Q-4 130 -8 149.5 Q-12 169 -11 199 Q-9 253 7 308.5 Q23 364 48.5 415.5 Q74 467 106.5 511.5 Q139 556 173.5 589.5 Q208 623 242 642 Q276 661 305 661 Q331 661 351 644 Q375 623 380.5 585 Q386 547 378.5 499.5 Q371 452 353 398.5 Q335 345 311.5 292 Q288 239 262.5 191 Q237 143 214 106 Q204 90 189 68 Q174 46 156.5 26 Q139 6 120 -8 Q101 -22 83 -22 Q81 -22 79.5 -21.5 Q78 -21 76 -21 Q55 -17 44 -1.5 Q33 14 27.5 33 Q22 52 20.5 69.5 Q19 87 18 94 Z M118 355 Q126 351 119 351 Q117 351 115 352 Q113 353 109 353 Q96 353 82 329.5 Q68 306 56.5 268.5 Q45 231 38.5 184 Q32 137 33 89 Q38 88 47 88 Q73 88 99 103 Q125 118 149.5 141 Q174 164 196 190 Q218 216 235 238.5 Q252 261 262.5 275 Q273 289 275 288 Q280 286 278 283 Q276 280 271 272 Q256 251 232 218.5 Q208 186 179 155.5 Q150 125 117.5 103 Q85 81 52 81 Q47 81 42.5 81 Q38 81 33 83 Q33 75 35.5 59 Q38 43 43 27 Q48 11 56 -1 Q64 -13 76 -13 Q84 -13 92 -9 Q114 0 140.5 30.5 Q167 61 195 105 Q223 149 250.5 202 Q278 255 301 308.5 Q324 362 340.5 412 Q357 462 364 501 Q378 581 361 617 Q344 653 309 653 Q284 653 251.5 635.5 Q219 618 185.5 587 Q152 556 119.5 512.5 Q87 469 61 418 Q42 381 28.5 342 Q15 303 7.5 266.5 Q0 230 -0.5 197 Q-1 164 5 137 Q7 129 9 123.5 Q11 118 13 113 Q16 108 18 105 Q18 153 25.5 199 Q33 245 44.5 281 Q56 317 71 339 Q86 361 101 361 Q112 361 118 355 Z M342 677 Q339 678 336 681.5 Q333 685 331 688.5 Q329 692 329 695 Q329 698 332 697 Q338 696 338 693 Q337 691 339.5 686.5 Q342 682 344 680 L346 678 Q346 675 342 677 Z " />
<glyph glyph-name="uni00D3" unicode="&#xd3;" horiz-adv-x="337" d="M18 94 Q17 95 12 100.5 Q7 106 1.5 118 Q-4 130 -8 149.5 Q-12 169 -11 199 Q-9 253 7 308.5 Q23 364 48.5 415.5 Q74 467 106.5 511.5 Q139 556 173.5 589.5 Q208 623 242 642 Q276 661 305 661 Q331 661 351 644 Q375 623 380.5 585 Q386 547 378.5 499.5 Q371 452 353 398.5 Q335 345 311.5 292 Q288 239 262.5 191 Q237 143 214 106 Q204 90 189 68 Q174 46 156.5 26 Q139 6 120 -8 Q101 -22 83 -22 Q81 -22 79.5 -21.5 Q78 -21 76 -21 Q55 -17 44 -1.5 Q33 14 27.5 33 Q22 52 20.5 69.5 Q19 87 18 94 Z M118 355 Q126 351 119 351 Q117 351 115 352 Q113 353 109 353 Q96 353 82 329.5 Q68 306 56.5 268.5 Q45 231 38.5 184 Q32 137 33 89 Q38 88 47 88 Q73 88 99 103 Q125 118 149.5 141 Q174 164 196 190 Q218 216 235 238.5 Q252 261 262.5 275 Q273 289 275 288 Q280 286 278 283 Q276 280 271 272 Q256 251 232 218.5 Q208 186 179 155.5 Q150 125 117.5 103 Q85 81 52 81 Q47 81 42.5 81 Q38 81 33 83 Q33 75 35.5 59 Q38 43 43 27 Q48 11 56 -1 Q64 -13 76 -13 Q84 -13 92 -9 Q114 0 140.5 30.5 Q167 61 195 105 Q223 149 250.5 202 Q278 255 301 308.5 Q324 362 340.5 412 Q357 462 364 501 Q378 581 361 617 Q344 653 309 653 Q284 653 251.5 635.5 Q219 618 185.5 587 Q152 556 119.5 512.5 Q87 469 61 418 Q42 381 28.5 342 Q15 303 7.5 266.5 Q0 230 -0.5 197 Q-1 164 5 137 Q7 129 9 123.5 Q11 118 13 113 Q16 108 18 105 Q18 153 25.5 199 Q33 245 44.5 281 Q56 317 71 339 Q86 361 101 361 Q112 361 118 355 Z M342 679 Q340 679 339 680 Q338 681 342 682 Q344 683 348.5 685.5 Q353 688 353 690 Q353 692 356 692 Q357 692 357.5 691.5 Q358 691 360 691 Q363 690 362 688 Q361 686 357.5 684 Q354 682 349.5 680.5 Q345 679 342 679 Z " />
<glyph glyph-name="uni00D4" unicode="&#xd4;" horiz-adv-x="337" d="M18 94 Q17 95 12 100.5 Q7 106 1.5 118 Q-4 130 -8 149.5 Q-12 169 -11 199 Q-9 253 7 308.5 Q23 364 48.5 415.5 Q74 467 106.5 511.5 Q139 556 173.5 589.5 Q208 623 242 642 Q276 661 305 661 Q331 661 351 644 Q375 623 380.5 585 Q386 547 378.5 499.5 Q371 452 353 398.5 Q335 345 311.5 292 Q288 239 262.5 191 Q237 143 214 106 Q204 90 189 68 Q174 46 156.5 26 Q139 6 120 -8 Q101 -22 83 -22 Q81 -22 79.5 -21.5 Q78 -21 76 -21 Q55 -17 44 -1.5 Q33 14 27.5 33 Q22 52 20.5 69.5 Q19 87 18 94 Z M118 355 Q126 351 119 351 Q117 351 115 352 Q113 353 109 353 Q96 353 82 329.5 Q68 306 56.5 268.5 Q45 231 38.5 184 Q32 137 33 89 Q38 88 47 88 Q73 88 99 103 Q125 118 149.5 141 Q174 164 196 190 Q218 216 235 238.5 Q252 261 262.5 275 Q273 289 275 288 Q280 286 278 283 Q276 280 271 272 Q256 251 232 218.5 Q208 186 179 155.5 Q150 125 117.5 103 Q85 81 52 81 Q47 81 42.5 81 Q38 81 33 83 Q33 75 35.5 59 Q38 43 43 27 Q48 11 56 -1 Q64 -13 76 -13 Q84 -13 92 -9 Q114 0 140.5 30.5 Q167 61 195 105 Q223 149 250.5 202 Q278 255 301 308.5 Q324 362 340.5 412 Q357 462 364 501 Q378 581 361 617 Q344 653 309 653 Q284 653 251.5 635.5 Q219 618 185.5 587 Q152 556 119.5 512.5 Q87 469 61 418 Q42 381 28.5 342 Q15 303 7.5 266.5 Q0 230 -0.5 197 Q-1 164 5 137 Q7 129 9 123.5 Q11 118 13 113 Q16 108 18 105 Q18 153 25.5 199 Q33 245 44.5 281 Q56 317 71 339 Q86 361 101 361 Q112 361 118 355 Z M354 685 Q352 683 348.5 679 Q345 675 345 674 Q345 671 341 674 Q336 677 337.5 681.5 Q339 686 343 690.5 Q347 695 351.5 698.5 Q356 702 357 702 Q359 702 362.5 700.5 Q366 699 365 694 Q365 694 363 684 Q361 674 361 672 Q361 670 359 671 Q353 674 354.5 680.5 Q356 687 354 685 Z " />
<glyph glyph-name="uni00D5" unicode="&#xd5;" horiz-adv-x="337" d="M18 94 Q17 95 12 100.5 Q7 106 1.5 118 Q-4 130 -8 149.5 Q-12 169 -11 199 Q-9 253 7 308.5 Q23 364 48.5 415.5 Q74 467 106.5 511.5 Q139 556 173.5 589.5 Q208 623 242 642 Q276 661 305 661 Q331 661 351 644 Q375 623 380.5 585 Q386 547 378.5 499.5 Q371 452 353 398.5 Q335 345 311.5 292 Q288 239 262.5 191 Q237 143 214 106 Q204 90 189 68 Q174 46 156.5 26 Q139 6 120 -8 Q101 -22 83 -22 Q81 -22 79.5 -21.5 Q78 -21 76 -21 Q55 -17 44 -1.5 Q33 14 27.5 33 Q22 52 20.5 69.5 Q19 87 18 94 Z M118 355 Q126 351 119 351 Q117 351 115 352 Q113 353 109 353 Q96 353 82 329.5 Q68 306 56.5 268.5 Q45 231 38.5 184 Q32 137 33 89 Q38 88 47 88 Q73 88 99 103 Q125 118 149.5 141 Q174 164 196 190 Q218 216 235 238.5 Q252 261 262.5 275 Q273 289 275 288 Q280 286 278 283 Q276 280 271 272 Q256 251 232 218.5 Q208 186 179 155.5 Q150 125 117.5 103 Q85 81 52 81 Q47 81 42.5 81 Q38 81 33 83 Q33 75 35.5 59 Q38 43 43 27 Q48 11 56 -1 Q64 -13 76 -13 Q84 -13 92 -9 Q114 0 140.5 30.5 Q167 61 195 105 Q223 149 250.5 202 Q278 255 301 308.5 Q324 362 340.5 412 Q357 462 364 501 Q378 581 361 617 Q344 653 309 653 Q284 653 251.5 635.5 Q219 618 185.5 587 Q152 556 119.5 512.5 Q87 469 61 418 Q42 381 28.5 342 Q15 303 7.5 266.5 Q0 230 -0.5 197 Q-1 164 5 137 Q7 129 9 123.5 Q11 118 13 113 Q16 108 18 105 Q18 153 25.5 199 Q33 245 44.5 281 Q56 317 71 339 Q86 361 101 361 Q112 361 118 355 Z M351 693 Q346 691 342 689 Q339 687 336 685 Q333 683 333 681 Q333 678 330 681 Q326 685 332 690 Q336 694 344.5 698 Q353 702 355 701 Q358 700 358 695.5 Q358 691 355 686 Q357 686 358 685.5 Q359 685 360 685 Q366 685 370.5 686.5 Q375 688 377 689 Q379 684 379 683 Q379 682 373 680 Q366 677 360 677 Q352 677 350 685 Q350 689 351 693 Z " />
<glyph glyph-name="uni00D6" unicode="&#xd6;" horiz-adv-x="337" d="M18 94 Q17 95 12 100.5 Q7 106 1.5 118 Q-4 130 -8 149.5 Q-12 169 -11 199 Q-9 253 7 308.5 Q23 364 48.5 415.5 Q74 467 106.5 511.5 Q139 556 173.5 589.5 Q208 623 242 642 Q276 661 305 661 Q331 661 351 644 Q375 623 380.5 585 Q386 547 378.5 499.5 Q371 452 353 398.5 Q335 345 311.5 292 Q288 239 262.5 191 Q237 143 214 106 Q204 90 189 68 Q174 46 156.5 26 Q139 6 120 -8 Q101 -22 83 -22 Q81 -22 79.5 -21.5 Q78 -21 76 -21 Q55 -17 44 -1.5 Q33 14 27.5 33 Q22 52 20.5 69.5 Q19 87 18 94 Z M118 355 Q126 351 119 351 Q117 351 115 352 Q113 353 109 353 Q96 353 82 329.5 Q68 306 56.5 268.5 Q45 231 38.5 184 Q32 137 33 89 Q38 88 47 88 Q73 88 99 103 Q125 118 149.5 141 Q174 164 196 190 Q218 216 235 238.5 Q252 261 262.5 275 Q273 289 275 288 Q280 286 278 283 Q276 280 271 272 Q256 251 232 218.5 Q208 186 179 155.5 Q150 125 117.5 103 Q85 81 52 81 Q47 81 42.5 81 Q38 81 33 83 Q33 75 35.5 59 Q38 43 43 27 Q48 11 56 -1 Q64 -13 76 -13 Q84 -13 92 -9 Q114 0 140.5 30.5 Q167 61 195 105 Q223 149 250.5 202 Q278 255 301 308.5 Q324 362 340.5 412 Q357 462 364 501 Q378 581 361 617 Q344 653 309 653 Q284 653 251.5 635.5 Q219 618 185.5 587 Q152 556 119.5 512.5 Q87 469 61 418 Q42 381 28.5 342 Q15 303 7.5 266.5 Q0 230 -0.5 197 Q-1 164 5 137 Q7 129 9 123.5 Q11 118 13 113 Q16 108 18 105 Q18 153 25.5 199 Q33 245 44.5 281 Q56 317 71 339 Q86 361 101 361 Q112 361 118 355 Z M339 682 Q335 685 336.5 689 Q338 693 342 693 Q346 693 349 689 Q352 685 350 682 Q348 679 344 679 Q341 679 339 682 Z M357 678 Q354 681 355.5 685 Q357 689 361 689 Q365 689 368 685 Q371 681 369 678 Q367 675 363 675 Q360 675 357 678 Z " />
<glyph glyph-name="uni00D9" unicode="&#xd9;" horiz-adv-x="316" d="M231 283 Q220 271 195 239 Q170 207 139.5 173 Q109 139 77 113 Q45 87 20 87 Q13 87 5 90 Q-16 100 -18 141 Q-20 182 -9.5 238.5 Q1 295 20 358.5 Q39 422 59.5 475.5 Q80 529 98.5 565.5 Q117 602 126 604 Q127 604 127.5 604.5 Q128 605 129 605 Q137 605 140.5 596 Q144 587 147 581 Q149 574 149.5 572.5 Q150 571 148 571 Q145 571 142.5 575 Q140 579 138 583.5 Q136 588 134.5 591.5 Q133 595 133 595 Q127 595 112 563.5 Q97 532 78.5 483 Q60 434 42 375 Q24 316 11.5 261 Q-1 206 -4 162 Q-7 118 5 100 Q8 95 15 95 Q24 95 36.5 102.5 Q49 110 62 120.5 Q75 131 86 141.5 Q97 152 103 158 Q128 183 152 211 Q176 239 195.5 263 Q215 287 228.5 304.5 Q242 322 245 325 Q246 328 253 346.5 Q260 365 273.5 394 Q287 423 307.5 460 Q328 497 356 537 Q368 555 381.5 572.5 Q395 590 408 604.5 Q421 619 432 629.5 Q443 640 450 644 Q455 647 457 647 Q460 647 463 644 Q468 640 468 633.5 Q468 627 460 611 Q449 589 429.5 558.5 Q410 528 387 495 Q364 462 341 430 Q318 398 298.5 372 Q279 346 266.5 329.5 Q254 313 253 311 L247 294 Q242 280 235 255 Q228 230 220.5 200 Q213 170 206.5 138 Q200 106 196.5 77.5 Q193 49 193.5 27.5 Q194 6 201 -3 Q205 -8 201 -8 Q197 -8 194 -5 Q190 0 187.5 9.5 Q185 19 184.5 29.5 Q184 40 184.5 51 Q185 62 185 69 Q190 113 197.5 152 Q205 191 212.5 220 Q220 249 225.5 266 Q231 283 231 283 Z M452 630 Q443 624 423.5 603 Q404 582 379.5 549 Q355 516 328 471.5 Q301 427 278 373 Q277 370 275 366 Q274 364 274 363 Q275 365 277 368 Q279 370 281.5 373 Q284 376 287 381 Q382 509 419.5 571.5 Q457 634 452 630 Z M283 644 Q280 645 277 648.5 Q274 652 272 655.5 Q270 659 270 662 Q270 665 273 664 Q279 663 279 660 Q278 658 280.5 653.5 Q283 649 285 647 L287 645 Q287 642 283 644 Z " />
<glyph glyph-name="uni00DB" unicode="&#xdb;" horiz-adv-x="316" d="M231 283 Q220 271 195 239 Q170 207 139.5 173 Q109 139 77 113 Q45 87 20 87 Q13 87 5 90 Q-16 100 -18 141 Q-20 182 -9.5 238.5 Q1 295 20 358.5 Q39 422 59.5 475.5 Q80 529 98.5 565.5 Q117 602 126 604 Q127 604 127.5 604.5 Q128 605 129 605 Q137 605 140.5 596 Q144 587 147 581 Q149 574 149.5 572.5 Q150 571 148 571 Q145 571 142.5 575 Q140 579 138 583.5 Q136 588 134.5 591.5 Q133 595 133 595 Q127 595 112 563.5 Q97 532 78.5 483 Q60 434 42 375 Q24 316 11.5 261 Q-1 206 -4 162 Q-7 118 5 100 Q8 95 15 95 Q24 95 36.5 102.5 Q49 110 62 120.5 Q75 131 86 141.5 Q97 152 103 158 Q128 183 152 211 Q176 239 195.5 263 Q215 287 228.5 304.5 Q242 322 245 325 Q246 328 253 346.5 Q260 365 273.5 394 Q287 423 307.5 460 Q328 497 356 537 Q368 555 381.5 572.5 Q395 590 408 604.5 Q421 619 432 629.5 Q443 640 450 644 Q455 647 457 647 Q460 647 463 644 Q468 640 468 633.5 Q468 627 460 611 Q449 589 429.5 558.5 Q410 528 387 495 Q364 462 341 430 Q318 398 298.5 372 Q279 346 266.5 329.5 Q254 313 253 311 L247 294 Q242 280 235 255 Q228 230 220.5 200 Q213 170 206.5 138 Q200 106 196.5 77.5 Q193 49 193.5 27.5 Q194 6 201 -3 Q205 -8 201 -8 Q197 -8 194 -5 Q190 0 187.5 9.5 Q185 19 184.5 29.5 Q184 40 184.5 51 Q185 62 185 69 Q190 113 197.5 152 Q205 191 212.5 220 Q220 249 225.5 266 Q231 283 231 283 Z M452 630 Q443 624 423.5 603 Q404 582 379.5 549 Q355 516 328 471.5 Q301 427 278 373 Q277 370 275 366 Q274 364 274 363 Q275 365 277 368 Q279 370 281.5 373 Q284 376 287 381 Q382 509 419.5 571.5 Q457 634 452 630 Z M296 648 Q294 646 290.5 642 Q287 638 287 637 Q287 634 283 637 Q278 640 279.5 644.5 Q281 649 285 653.5 Q289 658 293.5 661.5 Q298 665 299 665 Q301 665 304.5 663.5 Q308 662 307 657 Q307 657 305 647 Q303 637 303 635 Q303 633 301 634 Q295 637 296.5 643.5 Q298 650 296 648 Z " />
<glyph glyph-name="uni00DA" unicode="&#xda;" horiz-adv-x="316" d="M231 283 Q220 271 195 239 Q170 207 139.5 173 Q109 139 77 113 Q45 87 20 87 Q13 87 5 90 Q-16 100 -18 141 Q-20 182 -9.5 238.5 Q1 295 20 358.5 Q39 422 59.5 475.5 Q80 529 98.5 565.5 Q117 602 126 604 Q127 604 127.5 604.5 Q128 605 129 605 Q137 605 140.5 596 Q144 587 147 581 Q149 574 149.5 572.5 Q150 571 148 571 Q145 571 142.5 575 Q140 579 138 583.5 Q136 588 134.5 591.5 Q133 595 133 595 Q127 595 112 563.5 Q97 532 78.5 483 Q60 434 42 375 Q24 316 11.5 261 Q-1 206 -4 162 Q-7 118 5 100 Q8 95 15 95 Q24 95 36.5 102.5 Q49 110 62 120.5 Q75 131 86 141.5 Q97 152 103 158 Q128 183 152 211 Q176 239 195.5 263 Q215 287 228.5 304.5 Q242 322 245 325 Q246 328 253 346.5 Q260 365 273.5 394 Q287 423 307.5 460 Q328 497 356 537 Q368 555 381.5 572.5 Q395 590 408 604.5 Q421 619 432 629.5 Q443 640 450 644 Q455 647 457 647 Q460 647 463 644 Q468 640 468 633.5 Q468 627 460 611 Q449 589 429.5 558.5 Q410 528 387 495 Q364 462 341 430 Q318 398 298.5 372 Q279 346 266.5 329.5 Q254 313 253 311 L247 294 Q242 280 235 255 Q228 230 220.5 200 Q213 170 206.5 138 Q200 106 196.5 77.5 Q193 49 193.5 27.5 Q194 6 201 -3 Q205 -8 201 -8 Q197 -8 194 -5 Q190 0 187.5 9.5 Q185 19 184.5 29.5 Q184 40 184.5 51 Q185 62 185 69 Q190 113 197.5 152 Q205 191 212.5 220 Q220 249 225.5 266 Q231 283 231 283 Z M452 630 Q443 624 423.5 603 Q404 582 379.5 549 Q355 516 328 471.5 Q301 427 278 373 Q277 370 275 366 Q274 364 274 363 Q275 365 277 368 Q279 370 281.5 373 Q284 376 287 381 Q382 509 419.5 571.5 Q457 634 452 630 Z M282 651 Q280 651 279 652 Q278 653 282 654 Q284 655 288.5 657.5 Q293 660 293 662 Q293 664 296 664 Q297 664 297.5 663.5 Q298 663 300 663 Q303 662 302 660 Q301 658 297.5 656 Q294 654 289.5 652.5 Q285 651 282 651 Z " />
<glyph glyph-name="uni00DC" unicode="&#xdc;" horiz-adv-x="316" d="M231 283 Q220 271 195 239 Q170 207 139.5 173 Q109 139 77 113 Q45 87 20 87 Q13 87 5 90 Q-16 100 -18 141 Q-20 182 -9.5 238.5 Q1 295 20 358.5 Q39 422 59.5 475.5 Q80 529 98.5 565.5 Q117 602 126 604 Q127 604 127.5 604.5 Q128 605 129 605 Q137 605 140.5 596 Q144 587 147 581 Q149 574 149.5 572.5 Q150 571 148 571 Q145 571 142.5 575 Q140 579 138 583.5 Q136 588 134.5 591.5 Q133 595 133 595 Q127 595 112 563.5 Q97 532 78.5 483 Q60 434 42 375 Q24 316 11.5 261 Q-1 206 -4 162 Q-7 118 5 100 Q8 95 15 95 Q24 95 36.5 102.5 Q49 110 62 120.5 Q75 131 86 141.5 Q97 152 103 158 Q128 183 152 211 Q176 239 195.5 263 Q215 287 228.5 304.5 Q242 322 245 325 Q246 328 253 346.5 Q260 365 273.5 394 Q287 423 307.5 460 Q328 497 356 537 Q368 555 381.5 572.5 Q395 590 408 604.5 Q421 619 432 629.5 Q443 640 450 644 Q455 647 457 647 Q460 647 463 644 Q468 640 468 633.5 Q468 627 460 611 Q449 589 429.5 558.5 Q410 528 387 495 Q364 462 341 430 Q318 398 298.5 372 Q279 346 266.5 329.5 Q254 313 253 311 L247 294 Q242 280 235 255 Q228 230 220.5 200 Q213 170 206.5 138 Q200 106 196.5 77.5 Q193 49 193.5 27.5 Q194 6 201 -3 Q205 -8 201 -8 Q197 -8 194 -5 Q190 0 187.5 9.5 Q185 19 184.5 29.5 Q184 40 184.5 51 Q185 62 185 69 Q190 113 197.5 152 Q205 191 212.5 220 Q220 249 225.5 266 Q231 283 231 283 Z M452 630 Q443 624 423.5 603 Q404 582 379.5 549 Q355 516 328 471.5 Q301 427 278 373 Q277 370 275 366 Q274 364 274 363 Q275 365 277 368 Q279 370 281.5 373 Q284 376 287 381 Q382 509 419.5 571.5 Q457 634 452 630 Z M278 646 Q274 649 275.5 653 Q277 657 281 657 Q285 657 288 653 Q291 649 289 646 Q287 643 283 643 Q280 643 278 646 Z M296 642 Q293 645 294.5 649 Q296 653 300 653 Q304 653 307 649 Q310 645 308 642 Q306 639 302 639 Q299 639 296 642 Z " />
<glyph glyph-name="uni00DD" unicode="&#xdd;" horiz-adv-x="284" d="M133 580 Q118 564 100.5 531.5 Q83 499 66.5 460 Q50 421 37 379.5 Q24 338 18.5 304.5 Q13 271 17.5 250 Q22 229 41 230 Q56 231 77.5 243.5 Q99 256 122.5 274.5 Q146 293 170 315.5 Q194 338 213.5 357.5 Q233 377 246 391.5 Q259 406 261 410 Q278 443 298 474.5 Q318 506 339.5 534.5 Q361 563 383 587 Q405 611 426 629 Q450 650 459 650 Q465 650 468 645 Q472 640 470 634.5 Q468 629 460 616 Q450 602 432 580 Q414 558 392.5 533.5 Q371 509 348.5 483.5 Q326 458 308 438 Q290 418 278 405 Q266 392 266 392 Q239 335 216 277 Q196 227 176.5 168.5 Q157 110 149 56 Q146 35 147 22.5 Q148 10 150.5 3 Q153 -4 155 -6 Q157 -8 156 -9 Q155 -10 152 -10 Q149 -10 144 -5 Q138 3 136 20.5 Q134 38 139 66 Q147 113 162.5 164 Q178 215 195 259 Q214 310 236 359 Q223 345 199 321.5 Q175 298 148 275.5 Q121 253 94 236.5 Q67 220 47 220 Q41 220 36 221.5 Q31 223 26 225 Q12 233 7 248.5 Q2 264 2 282.5 Q2 301 5.5 320.5 Q9 340 13 356 Q16 368 23.5 390 Q31 412 41 439 Q51 466 64 494.5 Q77 523 90.5 546 Q104 569 118.5 584 Q133 599 146 599 Q153 597 155.5 593 Q158 589 154 590 Q152 590 151 590.5 Q150 591 149 591 Q146 591 142.5 589 Q139 587 133 580 Z M296 445 Q308 459 331.5 485.5 Q355 512 380 541.5 Q405 571 426.5 597 Q448 623 455 636 Q425 617 396.5 584.5 Q368 552 345.5 521.5 Q323 491 309.5 468 Q296 445 296 445 Z M274 615 Q272 615 271 616 Q270 617 274 618 Q276 619 280.5 621.5 Q285 624 285 626 Q285 628 288 628 Q289 628 289.5 627.5 Q290 627 292 627 Q295 626 294 624 Q293 622 289.5 620 Q286 618 281.5 616.5 Q277 615 274 615 Z " />
<glyph glyph-name="uni00E0" unicode="&#xe0;" horiz-adv-x="148" d="M12 217 Q14 226 17.5 235 Q21 244 25 252 Q29 260 31.5 265 Q34 270 33 270 Q31 270 24 261.5 Q17 253 0 232 Q-19 207 -27 207 Q-30 207 -34 210 Q-40 215 -40 222 Q-40 231 -34.5 245.5 Q-29 260 -20.5 274 Q-12 288 -1.5 298 Q9 308 19 308 Q30 305 32.5 296.5 Q35 288 36 287 Q55 306 59 306 Q61 306 64 301 Q66 296 64 296 Q62 296 54 280.5 Q46 265 38 246.5 Q30 228 25 213 Q20 198 24 199 Q30 200 38.5 206 Q47 212 61.5 224 Q76 236 97 254.5 Q118 273 148 300 Q157 297 151 291 Q144 284 126 267.5 Q108 251 88.5 234 Q69 217 52 204 Q35 191 28 190 Q23 189 15.5 195.5 Q8 202 12 217 Z M23 300 Q15 295 7 285 Q-1 275 -8 264 Q-15 253 -20 242 Q-25 231 -26 224 Q-26 221 -21 226 Q-16 231 -9 239 Q-8 240 -9 239 Q-10 238 -7.5 241 Q-5 244 3 252.5 Q11 261 29 281 Q26 287 24.5 293 Q23 299 23 300 Z M30 322 Q27 323 24 326.5 Q21 330 19 333.5 Q17 337 17 340 Q17 343 20 342 Q26 341 26 338 Q25 336 27.5 331.5 Q30 327 32 325 L34 323 Q34 320 30 322 Z " />
<glyph glyph-name="uni00E1" unicode="&#xe1;" horiz-adv-x="148" d="M12 217 Q14 226 17.5 235 Q21 244 25 252 Q29 260 31.5 265 Q34 270 33 270 Q31 270 24 261.5 Q17 253 0 232 Q-19 207 -27 207 Q-30 207 -34 210 Q-40 215 -40 222 Q-40 231 -34.5 245.5 Q-29 260 -20.5 274 Q-12 288 -1.5 298 Q9 308 19 308 Q30 305 32.5 296.5 Q35 288 36 287 Q55 306 59 306 Q61 306 64 301 Q66 296 64 296 Q62 296 54 280.5 Q46 265 38 246.5 Q30 228 25 213 Q20 198 24 199 Q30 200 38.5 206 Q47 212 61.5 224 Q76 236 97 254.5 Q118 273 148 300 Q157 297 151 291 Q144 284 126 267.5 Q108 251 88.5 234 Q69 217 52 204 Q35 191 28 190 Q23 189 15.5 195.5 Q8 202 12 217 Z M23 300 Q15 295 7 285 Q-1 275 -8 264 Q-15 253 -20 242 Q-25 231 -26 224 Q-26 221 -21 226 Q-16 231 -9 239 Q-8 240 -9 239 Q-10 238 -7.5 241 Q-5 244 3 252.5 Q11 261 29 281 Q26 287 24.5 293 Q23 299 23 300 Z M28 318 Q26 318 25 319 Q24 320 28 321 Q30 322 34.5 324.5 Q39 327 39 329 Q39 331 42 331 Q43 331 43.5 330.5 Q44 330 46 330 Q49 329 48 327 Q47 325 43.5 323 Q40 321 35.5 319.5 Q31 318 28 318 Z " />
<glyph glyph-name="uni00E2" unicode="&#xe2;" horiz-adv-x="148" d="M12 217 Q14 226 17.5 235 Q21 244 25 252 Q29 260 31.5 265 Q34 270 33 270 Q31 270 24 261.5 Q17 253 0 232 Q-19 207 -27 207 Q-30 207 -34 210 Q-40 215 -40 222 Q-40 231 -34.5 245.5 Q-29 260 -20.5 274 Q-12 288 -1.5 298 Q9 308 19 308 Q30 305 32.5 296.5 Q35 288 36 287 Q55 306 59 306 Q61 306 64 301 Q66 296 64 296 Q62 296 54 280.5 Q46 265 38 246.5 Q30 228 25 213 Q20 198 24 199 Q30 200 38.5 206 Q47 212 61.5 224 Q76 236 97 254.5 Q118 273 148 300 Q157 297 151 291 Q144 284 126 267.5 Q108 251 88.5 234 Q69 217 52 204 Q35 191 28 190 Q23 189 15.5 195.5 Q8 202 12 217 Z M23 300 Q15 295 7 285 Q-1 275 -8 264 Q-15 253 -20 242 Q-25 231 -26 224 Q-26 221 -21 226 Q-16 231 -9 239 Q-8 240 -9 239 Q-10 238 -7.5 241 Q-5 244 3 252.5 Q11 261 29 281 Q26 287 24.5 293 Q23 299 23 300 Z M30 330 Q28 328 24.5 324 Q21 320 21 319 Q21 316 17 319 Q12 322 13.5 326.5 Q15 331 19 335.5 Q23 340 27.5 343.5 Q32 347 33 347 Q35 347 38.5 345.5 Q42 344 41 339 Q41 339 39 329 Q37 319 37 317 Q37 315 35 316 Q29 319 30.5 325.5 Q32 332 30 330 Z " />
<glyph glyph-name="uni00E3" unicode="&#xe3;" horiz-adv-x="148" d="M12 217 Q14 226 17.5 235 Q21 244 25 252 Q29 260 31.5 265 Q34 270 33 270 Q31 270 24 261.5 Q17 253 0 232 Q-19 207 -27 207 Q-30 207 -34 210 Q-40 215 -40 222 Q-40 231 -34.5 245.5 Q-29 260 -20.5 274 Q-12 288 -1.5 298 Q9 308 19 308 Q30 305 32.5 296.5 Q35 288 36 287 Q55 306 59 306 Q61 306 64 301 Q66 296 64 296 Q62 296 54 280.5 Q46 265 38 246.5 Q30 228 25 213 Q20 198 24 199 Q30 200 38.5 206 Q47 212 61.5 224 Q76 236 97 254.5 Q118 273 148 300 Q157 297 151 291 Q144 284 126 267.5 Q108 251 88.5 234 Q69 217 52 204 Q35 191 28 190 Q23 189 15.5 195.5 Q8 202 12 217 Z M23 300 Q15 295 7 285 Q-1 275 -8 264 Q-15 253 -20 242 Q-25 231 -26 224 Q-26 221 -21 226 Q-16 231 -9 239 Q-8 240 -9 239 Q-10 238 -7.5 241 Q-5 244 3 252.5 Q11 261 29 281 Q26 287 24.5 293 Q23 299 23 300 Z M28 332 Q23 330 19 328 Q16 326 13 324 Q10 322 10 320 Q10 317 7 320 Q3 324 9 329 Q13 333 21.5 337 Q30 341 32 340 Q35 339 35 334.5 Q35 330 32 325 Q34 325 35 324.5 Q36 324 37 324 Q43 324 47.5 325.5 Q52 327 54 328 Q56 323 56 322 Q56 321 50 319 Q43 316 37 316 Q29 316 27 324 Q27 328 28 332 Z " />
<glyph glyph-name="uni00E4" unicode="&#xe4;" horiz-adv-x="148" d="M12 217 Q14 226 17.5 235 Q21 244 25 252 Q29 260 31.5 265 Q34 270 33 270 Q31 270 24 261.5 Q17 253 0 232 Q-19 207 -27 207 Q-30 207 -34 210 Q-40 215 -40 222 Q-40 231 -34.5 245.5 Q-29 260 -20.5 274 Q-12 288 -1.5 298 Q9 308 19 308 Q30 305 32.5 296.5 Q35 288 36 287 Q55 306 59 306 Q61 306 64 301 Q66 296 64 296 Q62 296 54 280.5 Q46 265 38 246.5 Q30 228 25 213 Q20 198 24 199 Q30 200 38.5 206 Q47 212 61.5 224 Q76 236 97 254.5 Q118 273 148 300 Q157 297 151 291 Q144 284 126 267.5 Q108 251 88.5 234 Q69 217 52 204 Q35 191 28 190 Q23 189 15.5 195.5 Q8 202 12 217 Z M23 300 Q15 295 7 285 Q-1 275 -8 264 Q-15 253 -20 242 Q-25 231 -26 224 Q-26 221 -21 226 Q-16 231 -9 239 Q-8 240 -9 239 Q-10 238 -7.5 241 Q-5 244 3 252.5 Q11 261 29 281 Q26 287 24.5 293 Q23 299 23 300 Z M12 323 Q8 326 9.5 330 Q11 334 15 334 Q19 334 22 330 Q25 326 23 323 Q21 320 17 320 Q14 320 12 323 Z M30 319 Q27 322 28.5 326 Q30 330 34 330 Q38 330 41 326 Q44 322 42 319 Q40 316 36 316 Q33 316 30 319 Z " />
<glyph glyph-name="uni00E5" unicode="&#xe5;" horiz-adv-x="148" d="M12 217 Q14 226 17.5 235 Q21 244 25 252 Q29 260 31.5 265 Q34 270 33 270 Q31 270 24 261.5 Q17 253 0 232 Q-19 207 -27 207 Q-30 207 -34 210 Q-40 215 -40 222 Q-40 231 -34.5 245.5 Q-29 260 -20.5 274 Q-12 288 -1.5 298 Q9 308 19 308 Q30 305 32.5 296.5 Q35 288 36 287 Q55 306 59 306 Q61 306 64 301 Q66 296 64 296 Q62 296 54 280.5 Q46 265 38 246.5 Q30 228 25 213 Q20 198 24 199 Q30 200 38.5 206 Q47 212 61.5 224 Q76 236 97 254.5 Q118 273 148 300 Q157 297 151 291 Q144 284 126 267.5 Q108 251 88.5 234 Q69 217 52 204 Q35 191 28 190 Q23 189 15.5 195.5 Q8 202 12 217 Z M23 300 Q15 295 7 285 Q-1 275 -8 264 Q-15 253 -20 242 Q-25 231 -26 224 Q-26 221 -21 226 Q-16 231 -9 239 Q-8 240 -9 239 Q-10 238 -7.5 241 Q-5 244 3 252.5 Q11 261 29 281 Q26 287 24.5 293 Q23 299 23 300 Z M19 332 Q19 334 21 340 Q23 346 25 346 Q32 346 38 342 Q47 336 43 328 Q38 318 28 320 Q23 320 21 324.5 Q19 329 19 332 Z M31 334 Q32 336 30.5 336 Q29 336 28 334 Q28 332 29 332 Q30 332 31 334 Z " />
<glyph glyph-name="uni00E7" unicode="&#xe7;" horiz-adv-x="117" d="M-1 212 Q22 220 50 242.5 Q78 265 117 300 Q124 297 119 292 Q113 287 101 276 Q89 265 81 258 Q44 226 21.5 212.5 Q-1 199 -14 199 Q-31 199 -31 218.5 Q-31 238 -21 261 Q-11 284 4 303.5 Q19 323 31 323 Q39 323 43 315 Q45 311 45.5 305.5 Q46 300 44 300 Q41 300 40 303 Q39 306 38 308 L37 312 Q33 310 29 307 Q26 305 21.5 301 Q17 297 12 290 Q2 278 -5 264.5 Q-12 251 -16 239.5 Q-20 228 -21 220 Q-22 212 -20 210 Q-15 210 -10.5 210.5 Q-6 211 -1 212 Z M-20 169 Q-18 171 -14 176 Q-10 181 -9 183 Q-7 187 -14.5 188 Q-22 189 -22 195 Q-23 197 -20 201.5 Q-17 206 -15 207 Q-14 208 -13 208 Q-10 208 -7 205 Q-6 203 -9 199 Q-12 194 -10 192 Q-8 190 -4.5 188 Q-1 186 1.5 183 Q4 180 2 174 Q0 171 -4.5 165.5 Q-9 160 -14 160 Q-16 160 -17 161 Q-24 165 -20 169 Z " />
<glyph glyph-name="uni00E8" unicode="&#xe8;" horiz-adv-x="133" d="M-12 195 Q3 195 22 206 Q41 217 60.5 233 Q80 249 99 267 Q118 285 133 300 Q139 299 139 297 Q139 295 137 293 Q124 280 108.5 264 Q93 248 77 233.5 Q61 219 44.5 207 Q28 195 11 189 Q2 186 -5 186 Q-20 186 -27 198 Q-34 210 -33.5 227.5 Q-33 245 -24.5 265 Q-16 285 0 300 Q8 308 18 313 Q28 318 36 318 Q40 318 44 316 Q58 310 58 298 Q58 286 51 273.5 Q44 261 33 252 Q22 243 12 243 L9 243 Q-1 246 -3 256 Q-5 260 -5 266 Q-7 262 -10 257 Q-12 252 -13.5 246.5 Q-15 241 -17 235 Q-18 232 -19 225.5 Q-20 219 -20.5 212.5 Q-21 206 -19 200.5 Q-17 195 -12 195 Z M5 271 Q3 268 2 262 Q1 256 3 251 Q4 249 9 249 Q17 250 25 255.5 Q33 261 39 269 Q45 277 48.5 286 Q52 295 51 302 Q50 308 44 308 Q37 308 29 303.5 Q21 299 15 293 Q9 287 5.5 282 Q2 277 3 277 Q4 277 6 275 Q7 273 5 271 Z M48 329 Q45 330 42 333.5 Q39 337 37 340.5 Q35 344 35 347 Q35 350 38 349 Q44 348 44 345 Q43 343 45.5 338.5 Q48 334 50 332 L52 330 Q52 327 48 329 Z " />
<glyph glyph-name="uni00E9" unicode="&#xe9;" horiz-adv-x="133" d="M-12 195 Q3 195 22 206 Q41 217 60.5 233 Q80 249 99 267 Q118 285 133 300 Q139 299 139 297 Q139 295 137 293 Q124 280 108.5 264 Q93 248 77 233.5 Q61 219 44.5 207 Q28 195 11 189 Q2 186 -5 186 Q-20 186 -27 198 Q-34 210 -33.5 227.5 Q-33 245 -24.5 265 Q-16 285 0 300 Q8 308 18 313 Q28 318 36 318 Q40 318 44 316 Q58 310 58 298 Q58 286 51 273.5 Q44 261 33 252 Q22 243 12 243 L9 243 Q-1 246 -3 256 Q-5 260 -5 266 Q-7 262 -10 257 Q-12 252 -13.5 246.5 Q-15 241 -17 235 Q-18 232 -19 225.5 Q-20 219 -20.5 212.5 Q-21 206 -19 200.5 Q-17 195 -12 195 Z M5 271 Q3 268 2 262 Q1 256 3 251 Q4 249 9 249 Q17 250 25 255.5 Q33 261 39 269 Q45 277 48.5 286 Q52 295 51 302 Q50 308 44 308 Q37 308 29 303.5 Q21 299 15 293 Q9 287 5.5 282 Q2 277 3 277 Q4 277 6 275 Q7 273 5 271 Z M44 325 Q42 325 41 326 Q40 327 44 328 Q46 329 50.5 331.5 Q55 334 55 336 Q55 338 58 338 Q59 338 59.5 337.5 Q60 337 62 337 Q65 336 64 334 Q63 332 59.5 330 Q56 328 51.5 326.5 Q47 325 44 325 Z " />
<glyph glyph-name="uni00EA" unicode="&#xea;" horiz-adv-x="133" d="M-12 195 Q3 195 22 206 Q41 217 60.5 233 Q80 249 99 267 Q118 285 133 300 Q139 299 139 297 Q139 295 137 293 Q124 280 108.5 264 Q93 248 77 233.5 Q61 219 44.5 207 Q28 195 11 189 Q2 186 -5 186 Q-20 186 -27 198 Q-34 210 -33.5 227.5 Q-33 245 -24.5 265 Q-16 285 0 300 Q8 308 18 313 Q28 318 36 318 Q40 318 44 316 Q58 310 58 298 Q58 286 51 273.5 Q44 261 33 252 Q22 243 12 243 L9 243 Q-1 246 -3 256 Q-5 260 -5 266 Q-7 262 -10 257 Q-12 252 -13.5 246.5 Q-15 241 -17 235 Q-18 232 -19 225.5 Q-20 219 -20.5 212.5 Q-21 206 -19 200.5 Q-17 195 -12 195 Z M5 271 Q3 268 2 262 Q1 256 3 251 Q4 249 9 249 Q17 250 25 255.5 Q33 261 39 269 Q45 277 48.5 286 Q52 295 51 302 Q50 308 44 308 Q37 308 29 303.5 Q21 299 15 293 Q9 287 5.5 282 Q2 277 3 277 Q4 277 6 275 Q7 273 5 271 Z M48 339 Q46 337 42.5 333 Q39 329 39 328 Q39 325 35 328 Q30 331 31.5 335.5 Q33 340 37 344.5 Q41 349 45.5 352.5 Q50 356 51 356 Q53 356 56.5 354.5 Q60 353 59 348 Q59 348 57 338 Q55 328 55 326 Q55 324 53 325 Q47 328 48.5 334.5 Q50 341 48 339 Z " />
<glyph glyph-name="uni00EB" unicode="&#xeb;" horiz-adv-x="133" d="M-12 195 Q3 195 22 206 Q41 217 60.5 233 Q80 249 99 267 Q118 285 133 300 Q139 299 139 297 Q139 295 137 293 Q124 280 108.5 264 Q93 248 77 233.5 Q61 219 44.5 207 Q28 195 11 189 Q2 186 -5 186 Q-20 186 -27 198 Q-34 210 -33.5 227.5 Q-33 245 -24.5 265 Q-16 285 0 300 Q8 308 18 313 Q28 318 36 318 Q40 318 44 316 Q58 310 58 298 Q58 286 51 273.5 Q44 261 33 252 Q22 243 12 243 L9 243 Q-1 246 -3 256 Q-5 260 -5 266 Q-7 262 -10 257 Q-12 252 -13.5 246.5 Q-15 241 -17 235 Q-18 232 -19 225.5 Q-20 219 -20.5 212.5 Q-21 206 -19 200.5 Q-17 195 -12 195 Z M5 271 Q3 268 2 262 Q1 256 3 251 Q4 249 9 249 Q17 250 25 255.5 Q33 261 39 269 Q45 277 48.5 286 Q52 295 51 302 Q50 308 44 308 Q37 308 29 303.5 Q21 299 15 293 Q9 287 5.5 282 Q2 277 3 277 Q4 277 6 275 Q7 273 5 271 Z M31 331 Q27 334 28.5 338 Q30 342 34 342 Q38 342 41 338 Q44 334 42 331 Q40 328 36 328 Q33 328 31 331 Z M49 327 Q46 330 47.5 334 Q49 338 53 338 Q57 338 60 334 Q63 330 61 327 Q59 324 55 324 Q52 324 49 327 Z " />
<glyph glyph-name="uni00EC" unicode="&#xec;" horiz-adv-x="95" d="M-13 209 Q-3 212 9.5 220.5 Q22 229 36 241.5 Q50 254 65 269.5 Q80 285 95 300 Q104 298 98 291 Q92 284 77.5 269 Q63 254 46.5 239 Q30 224 13.5 212.5 Q-3 201 -12 201 Q-21 201 -24 209.5 Q-27 218 -25 232.5 Q-23 247 -16 265.5 Q-9 284 3 305 Q6 310 9 310 Q11 310 13 308 Q15 306 15 304 Q15 302 13 297 Q11 292 6.5 282.5 Q2 273 -4 257 Q-5 254 -7.5 245.5 Q-10 237 -12.5 228.5 Q-15 220 -15.5 214 Q-16 208 -13 209 Z M19 328 Q16 329 13 332.5 Q10 336 8 339.5 Q6 343 6 346 Q6 349 9 348 Q15 347 15 344 Q14 342 16.5 337.5 Q19 333 21 331 L23 329 Q23 326 19 328 Z " />
<glyph glyph-name="uni00ED" unicode="&#xed;" horiz-adv-x="95" d="M-13 209 Q-3 212 9.5 220.5 Q22 229 36 241.5 Q50 254 65 269.5 Q80 285 95 300 Q104 298 98 291 Q92 284 77.5 269 Q63 254 46.5 239 Q30 224 13.5 212.5 Q-3 201 -12 201 Q-21 201 -24 209.5 Q-27 218 -25 232.5 Q-23 247 -16 265.5 Q-9 284 3 305 Q6 310 9 310 Q11 310 13 308 Q15 306 15 304 Q15 302 13 297 Q11 292 6.5 282.5 Q2 273 -4 257 Q-5 254 -7.5 245.5 Q-10 237 -12.5 228.5 Q-15 220 -15.5 214 Q-16 208 -13 209 Z M18 327 Q16 327 15 328 Q14 329 18 330 Q20 331 24.5 333.5 Q29 336 29 338 Q29 340 32 340 Q33 340 33.5 339.5 Q34 339 36 339 Q39 338 38 336 Q37 334 33.5 332 Q30 330 25.5 328.5 Q21 327 18 327 Z " />
<glyph glyph-name="uni00EE" unicode="&#xee;" horiz-adv-x="95" d="M-13 209 Q-3 212 9.5 220.5 Q22 229 36 241.5 Q50 254 65 269.5 Q80 285 95 300 Q104 298 98 291 Q92 284 77.5 269 Q63 254 46.5 239 Q30 224 13.5 212.5 Q-3 201 -12 201 Q-21 201 -24 209.5 Q-27 218 -25 232.5 Q-23 247 -16 265.5 Q-9 284 3 305 Q6 310 9 310 Q11 310 13 308 Q15 306 15 304 Q15 302 13 297 Q11 292 6.5 282.5 Q2 273 -4 257 Q-5 254 -7.5 245.5 Q-10 237 -12.5 228.5 Q-15 220 -15.5 214 Q-16 208 -13 209 Z M22 336 Q20 334 16.5 330 Q13 326 13 325 Q13 322 9 325 Q4 328 5.5 332.5 Q7 337 11 341.5 Q15 346 19.5 349.5 Q24 353 25 353 Q27 353 30.5 351.5 Q34 350 33 345 Q33 345 31 335 Q29 325 29 323 Q29 321 27 322 Q21 325 22.5 331.5 Q24 338 22 336 Z " />
<glyph glyph-name="uni00EF" unicode="&#xef;" horiz-adv-x="95" d="M-13 209 Q-3 212 9.5 220.5 Q22 229 36 241.5 Q50 254 65 269.5 Q80 285 95 300 Q104 298 98 291 Q92 284 77.5 269 Q63 254 46.5 239 Q30 224 13.5 212.5 Q-3 201 -12 201 Q-21 201 -24 209.5 Q-27 218 -25 232.5 Q-23 247 -16 265.5 Q-9 284 3 305 Q6 310 9 310 Q11 310 13 308 Q15 306 15 304 Q15 302 13 297 Q11 292 6.5 282.5 Q2 273 -4 257 Q-5 254 -7.5 245.5 Q-10 237 -12.5 228.5 Q-15 220 -15.5 214 Q-16 208 -13 209 Z M4 329 Q0 332 1.5 336 Q3 340 7 340 Q11 340 14 336 Q17 332 15 329 Q13 326 9 326 Q6 326 4 329 Z M22 325 Q19 328 20.5 332 Q22 336 26 336 Q30 336 33 332 Q36 328 34 325 Q32 322 28 322 Q25 322 22 325 Z " />
<glyph glyph-name="uni00F1" unicode="&#xf1;" horiz-adv-x="167" d="M18 300 Q14 299 8 286 Q2 273 -3 258 Q-8 243 -12 231 Q-16 219 -15 218 Q-14 217 -1 232.5 Q12 248 29 267 Q46 286 63 302 Q80 318 89 318 Q92 318 93 317 Q97 313 96.5 309 Q96 305 93 297.5 Q90 290 85.5 278 Q81 266 77 248 Q75 240 75.5 231 Q76 222 78 218 Q79 218 79.5 217.5 Q80 217 81 217 Q87 217 97.5 226.5 Q108 236 125 254 Q136 265 147.5 278.5 Q159 292 167 300 Q176 298 171 292 Q136 252 116.5 231.5 Q97 211 85 211 Q79 211 74 217 Q68 225 68.5 238.5 Q69 252 73 265.5 Q77 279 82 291.5 Q87 304 89 310 Q86 308 78 301.5 Q70 295 64 290 Q46 272 33.5 256 Q21 240 11.5 228 Q2 216 -4.5 208.5 Q-11 201 -16 201 Q-19 201 -20 202 Q-22 202 -26 206 Q-32 212 -29 228.5 Q-26 245 -19 263 Q-12 281 -3.5 295 Q5 309 9 309 Q14 309 18 305.5 Q22 302 18 300 Z M93 348 Q88 346 84 344 Q81 342 78 340 Q75 338 75 336 Q75 333 72 336 Q68 340 74 345 Q78 349 86.5 353 Q95 357 97 356 Q100 355 100 350.5 Q100 346 97 341 Q99 341 100 340.5 Q101 340 102 340 Q108 340 112.5 341.5 Q117 343 119 344 Q121 339 121 338 Q121 337 115 335 Q108 332 102 332 Q94 332 92 340 Q92 344 93 348 Z " />
</font>
</svg>
