<?xml version="1.0" encoding="UTF-8"?>
<svg xmlns="http://www.w3.org/2000/svg" xmlns:xlink="http://www.w3.org/1999/xlink" version="1.2" >
<font id="Amber Queen">
<font-face  font-family="Amber Queen" units-per-em="1000" ascent="750" descent="-250" font-style="normal" font-weight="400" font-stretch="normal" cap-height="700" x-height="500" underline-position="-75" underline-thickness="50" />
<missing-glyph  horiz-adv-x="197" d="" />
<glyph glyph-name="NULL" d="" />
<glyph glyph-name="nonmarkingreturn" unicode="&#xd;" horiz-adv-x="197" d="" />
<glyph glyph-name="space" unicode="&#x20;" horiz-adv-x="197" d="" />
<glyph glyph-name="e" unicode="e" horiz-adv-x="113" d="M124 342 Q126 338 125.5 334 Q125 330 122 328 Q98 315 76 303 Q54 291 32 276 Q20 268 10 260.5 Q0 253 -11 245 Q-12 245 -11.5 244.5 Q-11 244 -12 244 Q-16 242 -18.5 239.5 Q-21 237 -25 235 Q-34 231 -42 236 Q-52 241 -55 255 Q-54 273 -47 289.5 Q-40 306 -30 320 Q-27 324 -19 332 Q-11 340 -1.5 346 Q8 352 17.5 353 Q27 354 34 345 Q42 334 35 325 Q28 316 23 311 Q15 304 8.5 299 Q2 294 -6 289 Q-14 287 -19 291 Q-18 290 -19 290 L-31 266 Q-32 262 -34 256 Q-30 258 -27.5 260 Q-25 262 -22 264 Q-17 267 -13 270.5 Q-9 274 -4 277 Q6 284 13.5 290 Q21 296 32 302 Q52 314 71.5 324.5 Q91 335 111 346 Q117 349 124 342 Z M12 330 Q9 327 6 324 Q3 321 1 318 Q-2 314 -5 311 Q-3 311 1.5 314.5 Q6 318 10 322.5 Q14 327 15 330 Q16 333 12 330 Z " />
<glyph glyph-name="f" unicode="f" horiz-adv-x="198" d="M302 738 Q305 736 306.5 732 Q308 728 306 725 Q301 719 297 713.5 Q293 708 289 703 Q220 614 154 523 Q122 477 88 432.5 Q54 388 21 342 Q6 321 -9 300 Q-24 279 -39 257 L-104 160 Q-98 164 -92.5 167.5 Q-87 171 -81 175 L198 346 Q202 348 204.5 346 Q207 344 207.5 339.5 Q208 335 206 330.5 Q204 326 200 324 Q180 312 164.5 302.5 Q149 293 129 280 Q64 240 -0.5 200.5 Q-65 161 -130 121 L-141 105 Q-132 94 -132 80 Q-132 69 -136 59.5 Q-140 50 -145 42 Q-151 32 -157 23 Q-163 14 -169 5 Q-182 -15 -195 -34.5 Q-208 -54 -222 -73 Q-249 -111 -277.5 -148.5 Q-306 -186 -336 -222 Q-337 -223 -337.5 -224 Q-338 -225 -340 -226 Q-344 -231 -351 -228 L-352 -227 Q-357 -223 -356 -217 L-356 -216 Q-356 -216 -355 -214 Q-352 -208 -348.5 -202 Q-345 -196 -342 -190 Q-287 -91 -229 3 L-172 93 Q-177 91 -182 89.5 Q-187 88 -192 87 Q-200 85 -203.5 92.5 Q-207 100 -199 105 Q-185 113 -171 121.5 Q-157 130 -143 138 Q-134 152 -125.5 164.5 Q-117 177 -108 191 Q-76 238 -44.5 283.5 Q-13 329 20 375 Q37 398 54 420 Q71 442 88 465 Q105 488 121 510 Q137 532 153 555 Q186 601 220 645 Q254 689 289 734 Q294 743 302 738 Z M-152 75 Q-150 83 -153 87 Q-172 58 -190 28.5 Q-208 -1 -226 -30 Q-240 -52 -252.5 -73 Q-265 -94 -278 -116 Q-255 -86 -233 -54.5 Q-211 -23 -190 9 Q-184 17 -178.5 26 Q-173 35 -168 43 Q-163 51 -158.5 59 Q-154 67 -152 75 Z " />
<glyph glyph-name="g" unicode="g" horiz-adv-x="172" d="M171 346 Q175 348 178 346.5 Q181 345 182 341 Q183 337 181.5 333 Q180 329 176 326 Q143 305 114 283.5 Q85 262 54 238 Q-12 184 -74 125 Q-92 98 -109.5 70.5 Q-127 43 -144 15 Q-153 1 -161.5 -13 Q-170 -27 -178 -41 Q-188 -58 -197.5 -76 Q-207 -94 -216 -112 Q-219 -118 -222.5 -124 Q-226 -130 -229 -137 L-232 -143 Q-235 -148 -239.5 -156 Q-244 -164 -249 -170.5 Q-254 -177 -260 -181.5 Q-266 -186 -271 -184 Q-277 -182 -279 -169 Q-281 -156 -281 -141.5 Q-281 -127 -279.5 -114.5 Q-278 -102 -278 -100 Q-275 -84 -269.5 -69 Q-264 -54 -254 -40 Q-243 -25 -231.5 -11.5 Q-220 2 -207 16 Q-195 29 -183 42 Q-171 55 -158 68 Q-124 104 -89 137 L-89 138 Q-63 176 -36.5 213 Q-10 250 17 288 Q13 284 9.5 280.5 Q6 277 2 274 Q-9 262 -22 251.5 Q-35 241 -49 233 Q-53 231 -57 229 Q-61 227 -65 227 Q-75 227 -77 236 Q-78 241 -77 244.5 Q-76 248 -75 252 Q-71 262 -69 266 Q-56 297 -35 318 Q-25 330 -11 339 Q-8 341 -4.5 343.5 Q-1 346 3 348 Q7 350 9 352 Q14 355 19.5 351.5 Q25 348 24 341 Q22 334 20.5 327.5 Q19 321 17 314 Q26 321 35 327 Q44 333 55 337 Q61 340 65.5 334 Q70 328 66 323 Q46 296 27 268.5 Q8 241 -12 214 Q-15 209 -18 205.5 Q-21 202 -24 197 Q23 238 71 275.5 Q119 313 171 346 Z M-58 241 Q-59 239 -58 239.5 Q-57 240 -57 241 L-58 241 Z M-10 298 Q-7 304 -4.5 310.5 Q-2 317 0 323 Q-1 323 -1 322.5 Q-1 322 -2 322 Q-9 317 -15.5 311 Q-22 305 -27 298 Q-40 283 -47 268 Q-49 264 -50.5 260.5 Q-52 257 -54 253 Q-53 253 -52.5 253.5 Q-52 254 -51 254 Q-47 256 -43.5 259 Q-40 262 -37 264 Q-29 270 -23 276 Q-17 282 -10 289 Q-12 291 -10 298 Z M-213 -65 Q-196 -33 -178 -3 Q-160 27 -141 58 Q-147 52 -150 48 Q-162 36 -174 23 Q-186 10 -198 -3 Q-209 -15 -220.5 -27.5 Q-232 -40 -241 -54 Q-250 -69 -254 -85.5 Q-258 -102 -260 -119 Q-261 -129 -262 -140 Q-263 -151 -262 -162 Q-251 -137 -239 -113 Q-227 -89 -213 -65 Z " />
<glyph glyph-name="h" unicode="h" horiz-adv-x="193" d="M268 720 Q273 728 281.5 723 Q290 718 285 710 Q267 683 248.5 656 Q230 629 211 602 Q179 554 144.5 507.5 Q110 461 75 415 Q57 390 38.5 365.5 Q20 341 2 316 Q8 321 14 326 Q20 331 26 336 Q32 341 38 346 Q44 351 51 356 Q65 367 77 363 Q85 361 88 355 Q91 349 88 342 Q84 334 80 326.5 Q76 319 72 311 Q71 309 70 307.5 Q69 306 68 304 L61 291 L45 261 Q46 262 47 262.5 Q48 263 49 264 Q54 267 58.5 270.5 Q63 274 68 277 Q86 289 108 302 Q128 314 149 324.5 Q170 335 192 346 Q196 348 198.5 346 Q201 344 201.5 340.5 Q202 337 200 332.5 Q198 328 194 326 Q169 313 148 301.5 Q127 290 103 276 Q91 268 79 260.5 Q67 253 56 245 Q54 244 52.5 243 Q51 242 49 241 Q44 238 36 235 Q28 232 23 238 Q17 246 19 253 Q21 260 22 262 L22 263 Q22 263 23 264 L33 280 Q38 291 44 300.5 Q50 310 55 321 Q58 326 61 332 Q64 338 67 343 Q66 342 64 342 Q53 334 42 324.5 Q31 315 20 306 Q-2 286 -22.5 266 Q-43 246 -62 225 Q-68 218 -75.5 223.5 Q-83 229 -78 236 Q-59 264 -40 290.5 Q-21 317 -2 344 Q32 391 67 436 Q102 481 136 529 Q170 577 203 624 Q236 671 268 720 Z " />
<glyph glyph-name="i" unicode="i" horiz-adv-x="122" d="M121 346 Q125 348 127.5 346 Q130 344 130.5 339.5 Q131 335 129.5 330.5 Q128 326 124 324 Q106 313 92 306 Q78 299 60 288 Q44 279 28.5 270.5 Q13 262 -2 253 Q-10 248 -18 244 Q-26 240 -34 235 Q-38 233 -42.5 230 Q-47 227 -52 227 Q-60 227 -64 237 Q-66 245 -63 252 Q-60 259 -55 266 L-34 293 Q-29 301 -23 308.5 Q-17 316 -11 324 Q-11 324 -13 326 Q-18 334 -9 339 Q1 347 11 353 Q17 356 23.5 351 Q30 346 25 340 Q15 326 5.5 313.5 Q-4 301 -15 287 Q-20 281 -24.5 274.5 Q-29 268 -34 261 Q-36 259 -40 253 Q-32 258 -25 262 Q-18 266 -11 271 Q0 277 11 283 Q22 289 33 295 Q55 308 77 320.5 Q99 333 121 346 Z M69 422 Q67 424 67 429 Q67 432 71 436 Q72 437 72.5 437 Q73 437 74 438 L78 438 L82 438 Q85 438 87 437 Q87 437 89 435 Q91 431 91 428 Q90 426 89.5 424.5 Q89 423 87 421 Q87 421 83 419 L80 419 L76 419 Q72 419 71 420 L69 422 Z " />
<glyph glyph-name="j" unicode="j" horiz-adv-x="128" d="M138 340 Q140 336 137.5 332 Q135 328 132 326 Q111 311 93 297.5 Q75 284 55 269 Q18 241 -17 213 Q-52 185 -86 154 Q-94 146 -103 137 Q-112 128 -121 120 L-124 117 Q-141 100 -157 82.5 Q-173 65 -189 47 Q-213 21 -235.5 -7 Q-258 -35 -280 -64 Q-330 -130 -376 -196 Q-382 -204 -389 -200 Q-398 -195 -393 -186 Q-373 -155 -352 -124.5 Q-331 -94 -309 -64 Q-271 -10 -231 42 Q-191 94 -150 146 Q-121 184 -92.5 221.5 Q-64 259 -36 297 L9 359 L11 361 Q11 361 15 363 Q20 363 24 358 Q28 353 24 348 Q-18 286 -63 228 Q-79 207 -94.5 186.5 Q-110 166 -126 145 Q-124 147 -124 148 L-131 137 Q-70 197 -6 246 Q26 272 60 296.5 Q94 321 128 346 Q131 348 133.5 345.5 Q136 343 138 340 Z M43 422 Q40 425 40 429 Q40 433 43 436 Q44 437 44.5 437 Q45 437 46 438 L50 438 L54 438 Q57 438 59 437 Q59 437 61 435 Q63 433 63 428 Q64 426 61 421 Q61 421 57 419 L54 419 L50 419 Q46 419 45 420 L43 422 Z " />
<glyph glyph-name="k" unicode="k" horiz-adv-x="170" d="M286 741 Q291 749 299 744 Q307 739 302 731 Q284 701 264.5 672 Q245 643 223 614 Q185 562 146 511.5 Q107 461 69 409 Q43 374 18.5 339 Q-6 304 -30 269 Q-4 294 22.5 316.5 Q49 339 78 361 Q81 363 85 361.5 Q89 360 91 357 Q95 350 88 344 Q71 331 54.5 318 Q38 305 22 291 Q24 290 27 287 Q32 281 31 274 Q30 267 28 260 L28 256 Q42 267 57 277 Q72 287 88 298 Q108 311 128 323 Q148 335 169 346 Q173 348 175.5 346 Q178 344 178.5 340.5 Q179 337 177 332.5 Q175 328 171 326 Q150 315 134 304.5 Q118 294 98 281 Q79 269 61 256.5 Q43 244 25 231 Q23 229 22 228.5 Q21 228 20 227 L19 226 Q19 226 18 225 Q13 223 9 226 Q4 228 4 234 L4 235 L4 237 Q5 242 6 247.5 Q7 253 8 258 L11 270 L11 272 Q7 272 3 270 Q-1 268 -9 262 Q-46 229 -79 192 Q-84 187 -89 190 Q-94 190 -97.5 195 Q-101 200 -97 205 Q-77 235 -56.5 265.5 Q-36 296 -15 326 Q23 380 61.5 432 Q100 484 140 536 Q178 586 216 636.5 Q254 687 286 741 Z " />
<glyph glyph-name="l" unicode="l" horiz-adv-x="95" d="M258 710 Q263 718 271.5 713 Q280 708 275 700 Q240 644 203 589 Q171 542 137.5 497 Q104 452 70 407 Q53 384 35.5 361.5 Q18 339 1 316 Q-7 304 -16 292 Q-25 280 -34 268 Q-38 262 -42.5 256.5 Q-47 251 -51 245 Q-52 243 -53 241 Q-54 239 -55 237 Q-17 263 20 289.5 Q57 316 92 344 Q100 352 105 343 Q110 334 100 327 Q62 296 26 269.5 Q-10 243 -50 216 Q-56 212 -58 211 Q-59 211 -59 210 Q-63 209 -66 210 Q-71 212 -72 214 Q-80 231 -71.5 245.5 Q-63 260 -54 273 Q-44 287 -34 300.5 Q-24 314 -14 328 Q21 375 56 420.5 Q91 466 125 513 Q160 561 193.5 610 Q227 659 258 710 Z " />
<glyph glyph-name="m" unicode="m" horiz-adv-x="224" d="M223 346 Q227 348 229.5 346 Q232 344 232.5 340.5 Q233 337 231.5 332.5 Q230 328 226 326 Q203 314 183.5 302.5 Q164 291 141 277 Q130 270 119 262.5 Q108 255 97 247 Q96 246 95.5 246 Q95 246 94 245 Q91 243 88.5 241 Q86 239 82 238 Q77 235 70 239 Q62 243 62 253 Q61 258 62 262 Q63 266 64 270 L67 276 Q69 281 72 285 Q75 289 78 294 Q61 280 43.5 266 Q26 252 9 238 Q3 232 -3 237 Q-5 239 -7 242 Q-9 245 -7 248 Q-3 257 2 265.5 Q7 274 13 282 Q-4 268 -21.5 255 Q-39 242 -56 229 Q-63 224 -69 228 Q-71 230 -72 234 Q-73 238 -71 241 Q-54 264 -38 287.5 Q-22 311 -5 335 Q-7 341 -1 346 Q3 348 9 352 Q15 356 21 350.5 Q27 345 22 339 Q12 325 2.5 311 Q-7 297 -17 283 L60 343 Q67 348 72 344 Q79 339 75 331 Q63 311 48 295 Q65 309 82 322.5 Q99 336 116 350 Q123 355 129 351 Q136 346 132 338 Q125 329 119 319.5 Q113 310 106 301 L106 300 L104 298 Q100 292 92.5 280 Q85 268 81 259 Q87 263 90 266 Q95 269 99.5 272.5 Q104 276 109 279 Q118 285 127 291 Q136 297 146 303 Q165 314 184 324.5 Q203 335 223 346 Z M83 248 L82 247 L83 247 L83 248 Z " />
<glyph glyph-name="n" unicode="n" horiz-adv-x="164" d="M163 346 Q167 348 169.5 346 Q172 344 172.5 340 Q173 336 171 331.5 Q169 327 165 325 Q139 312 117.5 300.5 Q96 289 71 273 Q58 265 46 257.5 Q34 250 23 242 Q17 238 10.5 233 Q4 228 -3 228 Q-4 228 -4 228.5 Q-4 229 -5 229 Q-11 230 -12.5 234 Q-14 238 -13.5 242.5 Q-13 247 -11 250.5 Q-9 254 -8 256 Q-1 267 6 278.5 Q13 290 21 301 Q17 297 15 296 L-45 245 Q-52 240 -58.5 244.5 Q-65 249 -61 257 Q-49 280 -33.5 301.5 Q-18 323 -2 344 Q4 351 11 347 Q14 345 15.5 341 Q17 337 15 334 Q8 325 1.5 316.5 Q-5 308 -12 298 Q-8 302 -4.5 305 Q-1 308 3 311 Q17 323 31.5 335.5 Q46 348 63 357 Q71 361 75.5 354.5 Q80 348 75 341 Q73 339 71.5 336.5 Q70 334 68 332 L50 308 Q45 302 41 295.5 Q37 289 32 283 L19 263 Q24 266 27.5 268.5 Q31 271 35 274 Q45 281 55 287 Q65 293 76 300 Q98 312 119.5 323.5 Q141 335 163 346 Z " />
<glyph glyph-name="o" unicode="o" horiz-adv-x="135" d="M142 339 Q143 336 141 332.5 Q139 329 135 328 Q115 325 96.5 322 Q78 319 58 316 Q53 315 48.5 314.5 Q44 314 39 314 Q28 283 5 261 Q-1 256 -7.5 251 Q-14 246 -22 242 Q-29 238 -38.5 234.5 Q-48 231 -56 233 Q-67 235 -69 248 Q-69 252 -67.5 256 Q-66 260 -64 264 Q-60 272 -55 279.5 Q-50 287 -45 295 Q-34 310 -21.5 323.5 Q-9 337 4 351 Q9 356 13.5 353.5 Q18 351 20 346 Q21 347 24 347 Q37 347 42 339 Q43 337 43 336.5 Q43 336 44 334 Q49 335 53.5 335 Q58 335 63 336 Q80 339 97.5 341.5 Q115 344 133 347 Q139 348 142 339 Z M-8 275 Q9 292 17 311 Q11 310 4.5 309.5 Q-2 309 -7 311 Q-12 306 -16.5 300.5 Q-21 295 -25 289 Q-30 284 -33.5 278 Q-37 272 -41 266 Q-43 261 -47 253 Q-45 254 -42.5 254 Q-40 254 -38 256 Q-34 257 -28 261 Q-18 267 -8 275 Z " />
<glyph glyph-name="q" unicode="q" horiz-adv-x="120" d="M55 354 Q63 361 69 354.5 Q75 348 69 340 Q25 292 -15 241 Q-52 196 -87 151.5 Q-122 107 -156 60 Q-190 13 -222 -34.5 Q-254 -82 -285 -130 Q-290 -138 -298.5 -133 Q-307 -128 -302 -120 Q-268 -66 -230 -12 Q-197 36 -162.5 82.5 Q-128 129 -93 175 Q-65 211 -34 249 Q-39 245 -45 242 Q-51 239 -58 241 Q-63 242 -66 245.5 Q-69 249 -70 254 Q-70 265 -62 279.5 Q-54 294 -43 308.5 Q-32 323 -19 334 Q-6 345 4 348 Q12 351 20 348.5 Q28 346 30 338 Q31 336 31 333 L55 354 Z M-46 264 Q-44 266 -41 268.5 Q-38 271 -36 274 Q-12 293 11 315 Q4 320 8 329 Q2 325 -2.5 320.5 Q-7 316 -12 311 Q-21 301 -28.5 291 Q-36 281 -43 270 L-46 264 Z " />
<glyph glyph-name="p" unicode="p" horiz-adv-x="177" d="M185 339 Q187 330 177 326 Q163 320 151 315.5 Q139 311 125 305 Q105 296 85.5 287 Q66 278 46 269 Q36 260 26 251.5 Q16 243 5 235 Q-1 230 -7.5 225.5 Q-14 221 -20 217 Q-27 212 -33 208 Q-39 204 -46 201 Q-50 199 -54.5 198.5 Q-59 198 -63 202 Q-67 205 -67 210 Q-97 169 -127 128.5 Q-157 88 -188 47 Q-220 3 -252 -40 Q-284 -83 -316 -127 Q-314 -130 -314.5 -134 Q-315 -138 -319 -140 Q-323 -142 -326 -144.5 Q-329 -147 -333 -149 Q-338 -153 -344.5 -147 Q-351 -141 -346 -135 Q-326 -108 -306 -81 Q-286 -54 -266 -27 Q-231 21 -195.5 68.5 Q-160 116 -125 164 Q-94 206 -64 247 Q-34 288 -3 330 Q-8 336 -2 344 Q3 350 9 354 Q15 358 22 361 Q28 363 32.5 357.5 Q37 352 33 347 Q28 341 24.5 335 Q21 329 16 323 Q22 326 28.5 329.5 Q35 333 42 335 Q49 338 57 340.5 Q65 343 73 343 Q83 343 86.5 335.5 Q90 328 87 320 Q86 313 81 307 Q104 318 128 327.5 Q152 337 176 347 Q181 349 185 339 Z M-2 287 Q-7 282 -12 285 Q-20 274 -27.5 264 Q-35 254 -43 243 Q-33 250 -23 255.5 Q-13 261 -2 266 Q14 275 35 285 Q44 293 52.5 301.5 Q61 310 67 321 L67 323 Q66 322 65 322 Q64 322 63 321 Q49 318 41 314 Q18 304 -2 287 Z " />
<glyph glyph-name="r" unicode="r" horiz-adv-x="158" d="M157 346 Q161 348 163.5 346 Q166 344 166.5 340 Q167 336 165.5 331.5 Q164 327 160 325 Q135 311 114.5 299 Q94 287 71 270 Q59 262 47.5 253.5 Q36 245 25 236 Q22 234 18.5 231 Q15 228 11 226 Q5 221 -2 219.5 Q-9 218 -16 223 Q-24 228 -21 236 Q-12 259 2.5 278 Q17 297 32 316 Q31 315 30.5 315 Q30 315 29 314 Q22 312 15 314.5 Q8 317 6 325 Q1 326 -3 330.5 Q-7 335 -4 340 Q1 350 9 354 Q13 356 17.5 354.5 Q22 353 24 348 Q26 345 25.5 342 Q25 339 25 336 Q26 336 26.5 336.5 Q27 337 28 337 Q38 344 47 350 Q56 356 66 362 Q72 366 78.5 360.5 Q85 355 81 349 Q66 323 45.5 300.5 Q25 278 9 252 L8 249 L20 258 Q23 261 26.5 263.5 Q30 266 33 269 Q43 276 52.5 283 Q62 290 73 297 Q93 310 114.5 322 Q136 334 157 346 Z " />
<glyph glyph-name="s" unicode="s" horiz-adv-x="131" d="M139 341 Q142 339 139 333 Q136 327 132 325 Q109 307 91.5 293.5 Q74 280 48 266 Q37 260 25 256 Q19 237 4.5 225 Q-10 213 -29 208 Q-39 205 -49.5 206.5 Q-60 208 -65 219 Q-69 229 -61.5 236.5 Q-54 244 -46 248 Q-35 254 -23 258 Q-11 262 0 267 L9 270 Q9 274 9.5 277 Q10 280 10 284 Q9 295 5 304.5 Q1 314 -1 325 Q-3 336 0 347 Q3 358 16 361 Q22 362 27.5 359.5 Q33 357 36 351.5 Q39 346 38.5 340 Q38 334 33 330 Q28 325 23.5 326.5 Q19 328 17 333 Q18 329 19 325.5 Q20 322 21 318 Q25 310 28 296 Q29 291 29 287 Q29 283 29 279 Q34 281 37.5 283 Q41 285 46 287 Q68 299 88.5 314.5 Q109 330 129 345 Q132 348 134 346.5 Q136 345 139 341 Z M-36 226 Q-16 231 -3 245 Q-13 241 -23 237.5 Q-33 234 -41 229 Q-43 228 -46 225 L-42 225 Q-40 225 -39 225.5 Q-38 226 -36 226 Z " />
<glyph glyph-name="t" unicode="t" horiz-adv-x="126" d="M473 554 Q478 554 480 551.5 Q482 549 482 545 Q482 541 479.5 538 Q477 535 473 535 Q434 533 395 531 Q356 529 317 526 Q274 524 231 520.5 Q188 517 144 513 Q128 492 112 471 Q96 450 80 429 Q58 398 37 367 Q16 336 -3 304 Q-13 287 -22 270 Q-31 253 -39 235 Q-43 227 -42 221 Q-42 218 -41 217 L-40 217 Q-36 218 -33 221 Q-30 224 -27 226 Q-23 229 -19.5 232 Q-16 235 -11 238 Q22 265 55.5 291.5 Q89 318 123 344 Q129 350 134 343 Q137 341 135.5 335 Q134 329 131 327 Q91 295 55 266 Q19 237 -21 206 Q-29 201 -37.5 198 Q-46 195 -54 202 Q-62 209 -62 219 Q-62 229 -59 237 Q-55 247 -51 256 Q-47 265 -42 274 Q-37 283 -32 292 Q-27 301 -22 310 Q-2 345 20 377 Q42 409 66 441 Q93 478 118 511 Q98 509 78.5 507.5 Q59 506 39 504 Q-31 497 -100.5 489 Q-170 481 -239 473 Q-243 472 -246 475.5 Q-249 479 -249 482 Q-249 490 -239 492 Q-200 497 -160.5 501.5 Q-121 506 -82 511 Q26 523 134 532 L257 694 Q253 696 252 698 Q247 706 255 712 Q262 715 268 718 Q274 721 281 724 Q288 728 293 723 Q295 721 295.5 717 Q296 713 294 711 Q265 673 236.5 634.5 Q208 596 179 558 Q174 552 169.5 546 Q165 540 160 534 Q169 535 178.5 535.5 Q188 536 197 537 Q266 542 335 546.5 Q404 551 473 554 Z " />
<glyph glyph-name="u" unicode="u" horiz-adv-x="146" d="M154 339 Q156 335 154 331 Q152 327 149 325 Q135 314 124 305.5 Q113 297 99 286 Q87 276 74.5 266 Q62 256 50 246 Q45 241 39.5 237 Q34 233 26 235 Q21 236 18 240.5 Q15 245 14 250 Q12 261 17 272 Q22 283 28 293 Q30 295 32 298 Q34 301 36 303 Q32 301 29 298.5 Q26 296 23 294 Q14 286 5 279 Q-4 272 -12 264 Q-15 261 -18 258.5 Q-21 256 -25 254 Q-30 250 -35.5 252.5 Q-41 255 -43 261 Q-45 268 -42.5 274.5 Q-40 281 -38 287 Q-35 293 -32 298.5 Q-29 304 -26 309 Q-21 317 -16 323.5 Q-11 330 -6 337 Q-6 341 -3 344 Q3 350 6 352 Q12 358 19 353 Q26 348 22 340 Q14 331 7 322 Q0 313 -7 303 Q-10 298 -12.5 294 Q-15 290 -17 285 Q-12 290 -6.5 294.5 Q-1 299 4 304 Q12 310 20.5 316.5 Q29 323 38 328 Q42 331 45.5 333.5 Q49 336 53 338 Q62 345 70 345 Q75 346 78 342 Q81 338 79 333 Q77 326 72.5 319.5 Q68 313 63 307 Q59 302 55 296.5 Q51 291 47 285 Q40 277 35 265 Q34 264 34 261 Q34 259 33 258 L33 257 Q34 257 34 257.5 Q34 258 35 258 L56 276 Q78 294 100.5 311.5 Q123 329 146 346 Q149 348 150.5 345 Q152 342 154 339 Z " />
<glyph glyph-name="v" unicode="v" horiz-adv-x="143" d="M150 339 Q152 330 143 328 Q123 324 104 321 Q85 318 64 317 L60 317 Q52 309 43 300.5 Q34 292 26 284 Q16 275 6.5 266 Q-3 257 -12 247 Q-15 244 -19 240.5 Q-23 237 -27.5 235 Q-32 233 -36 233.5 Q-40 234 -43 240 Q-47 246 -44.5 253 Q-42 260 -40 265 Q-34 278 -28 289 Q-23 296 -19 302.5 Q-15 309 -11 316 Q-9 318 -8 320 Q-7 322 -6 324 Q-9 326 -10.5 329 Q-12 332 -9 337 Q-3 345 5 351 Q15 356 20 345 Q23 337 19 328.5 Q15 320 11 314 Q7 307 3 300.5 Q-1 294 -6 287 L-15 272 Q16 303 49 333 Q49 334 49.5 334.5 Q50 335 50 336 Q54 341 58.5 344.5 Q63 348 68 351 Q75 356 80.5 349.5 Q86 343 82 338 Q89 338 93 339 Q106 341 118 343 Q130 345 142 347 Q146 348 147 345.5 Q148 343 150 339 Z " />
<glyph glyph-name="w" unicode="w" horiz-adv-x="174" d="M181 340 Q182 336 180 332 Q178 328 174 327 Q164 325 156 324 Q148 323 138 321 Q133 320 128 319.5 Q123 319 118 318 Q113 317 108 316 Q103 315 98 316 Q97 316 96.5 316.5 Q96 317 94 317 Q92 315 91 313.5 Q90 312 88 310 Q83 304 78.5 298 Q74 292 69 287 Q51 266 29 250 Q25 246 19 242 Q8 235 1 243 Q-4 248 -3 254 Q-2 260 0 265 Q2 270 5.5 275 Q9 280 12 285 Q-2 274 -14.5 263 Q-27 252 -40 241 Q-45 237 -51 239 Q-57 241 -57 248 Q-56 263 -48 275.5 Q-40 288 -31 300 Q-26 306 -21.5 312.5 Q-17 319 -12 326 Q-16 332 -11 337 L7 352 Q14 357 20 353 Q22 351 23 347 Q24 343 22 340 Q14 329 5 317 Q-4 305 -12 293 Q-14 290 -18 286 Q-2 299 13 312 Q28 325 44 339 Q50 344 57 339.5 Q64 335 59 327 Q53 316 47 306.5 Q41 297 35 286 Q33 283 31.5 280 Q30 277 28 274 Q33 278 36.5 281.5 Q40 285 45 290 Q57 300 70 317 Q72 320 74.5 323 Q77 326 79 330 L79 337 Q82 345 90 348 Q93 349 97.5 349 Q102 349 104 346 Q107 341 106 335 Q110 336 114 336.5 Q118 337 123 338 Q135 340 147.5 342.5 Q160 345 172 347 Q180 349 181 340 Z " />
<glyph glyph-name="x" unicode="x" horiz-adv-x="148" d="M146 346 Q150 348 152.5 346.5 Q155 345 156 341 Q157 337 155.5 333 Q154 329 150 327 Q134 319 122 311.5 Q110 304 95 295 Q82 287 69.5 278.5 Q57 270 45 260 Q39 256 33 251.5 Q27 247 22 242 Q15 237 7.5 234 Q0 231 -8 235 Q-14 239 -16.5 245 Q-19 251 -19 257 L-19 261 Q-36 247 -51.5 233 Q-67 219 -83 205 Q-90 198 -97 205 Q-104 212 -97 219 Q-77 237 -57 254 Q-37 271 -17 288 L-16 289 Q-14 306 -9 319 Q-7 325 -5 331 Q-3 337 -1 343 Q-1 348 5 353 Q10 357 16 352.5 Q22 348 20 342 Q18 334 15 327.5 Q12 321 9 314 Q9 311 7 307 Q39 331 69 351 Q76 356 81 347.5 Q86 339 79 334 Q59 320 40 306.5 Q21 293 2 278 Q1 273 0.5 267.5 Q0 262 1 257 L1 253 Q3 253 4.5 254 Q6 255 8 256 Q19 264 30 273 Q41 282 52 290 Q75 306 98 319.5 Q121 333 146 346 Z M1 253 Q3 253 2.5 252 Q2 251 1 253 Z " />
<glyph glyph-name="y" unicode="y" horiz-adv-x="162" d="M170 342 Q172 340 171.5 335 Q171 330 168 328 Q139 304 113.5 282 Q88 260 59 236 Q35 216 11 195.5 Q-13 175 -36 153 Q-46 142 -56 132.5 Q-66 123 -76 112 Q-89 95 -101.5 77.5 Q-114 60 -128 43 Q-163 -2 -197.5 -46 Q-232 -90 -267 -135 Q-269 -138 -273.5 -137.5 Q-278 -137 -280 -135 Q-287 -128 -280 -121 Q-270 -108 -261.5 -93.5 Q-253 -79 -244 -65 Q-233 -50 -222.5 -35.5 Q-212 -21 -201 -6 Q-175 28 -147.5 60.5 Q-120 93 -90 125 Q-85 133 -79 140.5 Q-73 148 -67 156 Q-43 189 -19 222 Q5 255 28 289 Q27 289 25 287 Q14 279 3 270.5 Q-8 262 -19 253 Q-23 250 -28 247.5 Q-33 245 -38 245 Q-44 245 -48.5 248.5 Q-53 252 -53 259 Q-54 265 -50.5 271 Q-47 277 -44 282 Q-41 287 -38 293 Q-35 299 -31 304 Q-24 315 -16.5 325.5 Q-9 336 -1 346 Q5 354 13 346 Q19 340 13 332 Q5 321 -3 310 Q-11 299 -18 287 Q-21 283 -23.5 279 Q-26 275 -28 271 Q-5 288 18.5 306 Q42 324 65 342 Q71 347 76.5 340.5 Q82 334 78 329 Q43 275 6 224 Q3 219 -0.5 214.5 Q-4 210 -7 205 Q9 219 25 232.5 Q41 246 58 260 Q84 281 109.5 302.5 Q135 324 161 345 Q164 348 165.5 346.5 Q167 345 170 342 Z " />
<glyph glyph-name="z" unicode="z" horiz-adv-x="153" d="M152 345 Q159 351 162 341 Q165 331 158 325 Q127 297 99.5 273.5 Q72 250 43 221 Q32 211 22.5 201 Q13 191 2 181 Q-19 148 -45 113 Q-77 70 -111.5 29 Q-146 -12 -182 -52 Q-219 -94 -257 -133 Q-295 -172 -333 -211 Q-339 -217 -346 -212 Q-353 -207 -348 -199 Q-328 -164 -305 -131 Q-282 -98 -256 -66 Q-234 -39 -211 -13 Q-188 13 -164 39 Q-151 52 -139 64.5 Q-127 77 -114 90 L-88 116 Q-81 122 -74.5 128 Q-68 134 -62 142 Q-50 155 -38 168 Q-26 181 -13 194 Q-9 199 -5.5 205 Q-2 211 2 216 L14 237 Q16 242 18.5 246.5 Q21 251 22 256 Q24 264 19.5 268 Q15 272 8 269 Q0 264 -8.5 258.5 Q-17 253 -28 256 Q-39 260 -37 271 Q-35 275 -33 277.5 Q-31 280 -29 283 Q-22 289 -15.5 294.5 Q-9 300 -2 306 Q4 312 10.5 317.5 Q17 323 23 329 Q30 334 33 339 L35 341 L34 341 Q30 339 28 339 Q26 338 23 337 L17 334 Q14 332 11 330.5 Q8 329 5 327 Q-1 323 -5 321 L-8 318 L-9 318 Q-16 311 -23 318 Q-25 320 -25.5 324.5 Q-26 329 -23 332 Q-21 334 -19 334.5 Q-17 335 -15 337 Q-10 341 -4 344 Q2 347 7 351 Q13 354 19.5 356.5 Q26 359 33 360 Q40 362 46.5 359.5 Q53 357 55 349 Q57 341 52 333 Q47 325 42 319 L18 298 Q14 295 8 289 Q20 291 29 285 Q40 278 42 267 Q44 256 39 245 Q41 247 41 247 Q54 260 67.5 271.5 Q81 283 95 294 L152 345 Z M-185 -26 Q-160 2 -136 30 Q-112 58 -89 87 Q-107 70 -125 51.5 Q-143 33 -160 15 Q-191 -18 -220 -52.5 Q-249 -87 -275 -123 Q-252 -99 -229.5 -75 Q-207 -51 -185 -26 Z " />
<glyph glyph-name="d" unicode="d" horiz-adv-x="126" d="M334 692 Q341 687 337 679 Q315 650 294 621.5 Q273 593 251 564 Q212 513 172 463.5 Q132 414 90 365 Q88 362 82 356 Q68 337 55.5 318.5 Q43 300 29 280 Q-17 212 -61.5 143.5 Q-106 75 -150 5 Q-155 -3 -163 2 Q-171 7 -166 15 Q-118 94 -67 171 L5 279 Q-19 258 -41 243 Q-49 238 -61.5 233 Q-74 228 -82 232 Q-88 236 -85.5 242.5 Q-83 249 -81 254 Q-66 277 -46.5 299 Q-27 321 -7 340 Q1 348 11 355 Q21 362 32 365 Q36 367 39 364.5 Q42 362 44 359 Q45 351 42 342 Q54 352 67 369 Q80 387 93 405.5 Q106 424 120 442 Q144 476 168.5 509 Q193 542 219 576 Q242 607 266.5 636.5 Q291 666 321 691 Q328 696 334 692 Z M9 323 Q11 325 12.5 328 Q14 331 16 334 Q14 332 11.5 329 Q9 326 6 324 Q-2 316 -9.5 309 Q-17 302 -24 294 Q-32 286 -39.5 276.5 Q-47 267 -55 258 Q-37 268 -22 282 Q-22 286 -19 289 Q-3 304 9 323 Z " />
<glyph glyph-name="A" unicode="A" horiz-adv-x="442" d="M651 739 Q657 745 663.5 740 Q670 735 667 729 Q667 728 666 727 Q661 721 657.5 715 Q654 709 649 703 Q615 655 581.5 608 Q548 561 513 513 L375 324 Q363 307 351 291 Q339 275 326 258 Q343 262 359.5 266 Q376 270 393 275 Q397 276 400.5 273.5 Q404 271 404.5 267.5 Q405 264 403.5 260.5 Q402 257 398 256 Q390 254 382 252 Q374 250 366 248 Q352 244 337 240.5 Q322 237 308 233 Q290 209 272 184.5 Q254 160 236 136 Q201 89 165.5 43 Q130 -3 94 -51 L-50 -237 Q-55 -244 -62.5 -238.5 Q-70 -233 -65 -226 Q-54 -209 -43 -193.5 Q-32 -178 -21 -162 Q-18 -157 -12 -157 L96 -16 Q132 31 167 77 Q202 123 237 170 Q248 184 258 198 Q268 212 278 226 Q234 215 190.5 204 Q147 193 102 182 Q95 180 89 179 Q83 178 76 176 Q30 129 -15.5 83 Q-61 37 -106 -11 Q-114 -19 -122 -27.5 Q-130 -36 -138 -44 Q-140 -49 -142.5 -53 Q-145 -57 -147 -61 Q-178 -118 -227 -157 Q-235 -165 -244 -171 Q-253 -177 -263 -184 Q-267 -187 -270.5 -189.5 Q-274 -192 -278 -195 Q-280 -196 -280.5 -196.5 Q-281 -197 -283 -198 L-284 -199 L-283 -198 Q-289 -204 -296 -199 Q-303 -194 -298 -186 Q-293 -176 -281 -164 Q-259 -141 -237.5 -118 Q-216 -95 -193 -72 L-154 -33 Q-143 -7 -136.5 21 Q-130 49 -132 78 Q-133 86 -134 93 Q-135 100 -137 107 Q-138 111 -139.5 114 Q-141 117 -143 120 L-143 122 Q-149 120 -154.5 119 Q-160 118 -166 117 Q-200 109 -233 105 Q-237 104 -241.5 103 Q-246 102 -250 104 Q-258 106 -260 115 Q-261 122 -257.5 128 Q-254 134 -250 139 Q-233 158 -206.5 163.5 Q-180 169 -157 160 Q-144 155 -135 146 L-133 144 Q-126 146 -119 147 Q-112 148 -105 150 Q-62 161 -19.5 171.5 Q23 182 66 193 Q71 198 75 202 Q79 206 83 211 Q130 256 175.5 300.5 Q221 345 269 390 Q316 435 363 478.5 Q410 522 458 566 Q506 611 554 653.5 Q602 696 651 739 Z M-231 125 Q-212 127 -193.5 130.5 Q-175 134 -157 139 Q-166 144 -179 146 Q-203 148 -221 137 Q-226 134 -230 131 Q-234 128 -237 124 Q-233 124 -231 125 Z M-99 25 Q-65 61 -30 96.5 Q5 132 40 167 L-32 149 Q-55 143 -78 137 Q-101 131 -124 126 Q-124 126 -123 125 Q-120 117 -117.5 109.5 Q-115 102 -114 93 Q-113 85 -112.5 76.5 Q-112 68 -113 60 Q-113 32 -121 2 Q-116 7 -110.5 13 Q-105 19 -99 25 Z M376 358 Q411 406 445 452.5 Q479 499 513 547 Q536 578 557.5 608.5 Q579 639 602 670 L449 532 Q401 488 354.5 444.5 Q308 401 261 356 Q221 318 181.5 279.5 Q142 241 103 202 Q114 205 124 207.5 Q134 210 145 213 Q183 222 221 231.5 Q259 241 297 250 Q317 277 336.5 304 Q356 331 376 358 Z " />
<glyph glyph-name="B" unicode="B" horiz-adv-x="415" d="M604 738 Q611 743 616.5 735.5 Q622 728 616 723 L501 595 Q494 587 488 580 Q482 573 475 565 Q441 528 407.5 491.5 Q374 455 340 417 Q306 380 272.5 343 Q239 306 205 269 Q172 232 138.5 195.5 Q105 159 72 121 Q54 101 36 81.5 Q18 62 0 42 Q11 49 22 55.5 Q33 62 44 69 Q69 84 93.5 99 Q118 114 143 128 Q168 142 192.5 156 Q217 170 243 182 Q250 185 260 188 Q270 191 280 190.5 Q290 190 297.5 185.5 Q305 181 308 171 Q310 163 308 154.5 Q306 146 301 138 Q296 129 290.5 122 Q285 115 279 107 Q247 71 213 38 Q174 -3 133.5 -40 Q93 -77 48 -112 Q5 -147 -39.5 -178.5 Q-84 -210 -132 -239 Q-138 -243 -144 -237.5 Q-150 -232 -146 -226 Q-130 -203 -114.5 -181 Q-99 -159 -83 -137 Q-78 -130 -70 -133 Q-61 -138 -66 -147 Q-75 -159 -84 -171.5 Q-93 -184 -101 -196 Q-61 -170 -23.5 -142.5 Q14 -115 51 -85 Q93 -51 132 -14.5 Q171 22 209 61 Q224 77 239.5 92.5 Q255 108 269 125 Q274 131 279 138 Q284 145 287 153 Q290 157 290 164 Q290 165 289.5 165.5 Q289 166 289 167 Q288 168 288 168.5 Q288 169 286 170 Q285 170 283.5 170.5 Q282 171 281 171 L273 171 Q268 171 258 167 Q255 166 253 165 Q245 161 242 159 Q227 153 217 146 Q192 133 168 119.5 Q144 106 120 92 Q97 78 73.5 64 Q50 50 27 36 Q4 22 -18.5 7 Q-41 -8 -62 -25 Q-65 -27 -69 -26 Q-73 -25 -75 -23 Q-81 -15 -74 -10 Q-70 -5 -66 -1 Q-62 3 -57 8 Q-24 44 9 80.5 Q42 117 74 153 Q108 191 141.5 227.5 Q175 264 208 301 Q242 338 275.5 375 Q309 412 343 449 L460 578 L545 671 L535 664 L536 664 Q529 659 522.5 655 Q516 651 510 646 Q493 634 477.5 621.5 Q462 609 446 596 Q430 583 414 570.5 Q398 558 383 544 Q333 502 285.5 459 Q238 416 191 371 Q143 325 97.5 279 Q52 233 7 185 Q-39 137 -83 88 Q-127 39 -172 -10 Q-217 -61 -260.5 -110.5 Q-304 -160 -348 -211 Q-353 -216 -357.5 -213.5 Q-362 -211 -364 -206 Q-366 -202 -363 -198 Q-360 -193 -357 -187 Q-354 -181 -351 -176 Q-325 -130 -297.5 -86 Q-270 -42 -241 2 Q-212 47 -182 90 Q-152 133 -122 176 Q-91 219 -60 261.5 Q-29 304 3 346 Q35 388 67.5 430 Q100 472 133 514 L235 643 Q233 641 230.5 640.5 Q228 640 226 638 Q183 613 143 584 Q103 555 67 521 Q59 514 52.5 521 Q46 528 53 535 Q73 554 96 572 Q136 604 178.5 631 Q221 658 266 681 Q274 686 278.5 679.5 Q283 673 278 666 Q274 661 270 656 Q266 651 262 646 Q229 604 196 562.5 Q163 521 131 479 Q99 437 67 396 Q35 355 3 313 Q-29 271 -60 228.5 Q-91 186 -121 143 Q-151 100 -180 57.5 Q-209 15 -238 -30 L-295 -120 Q-262 -82 -229 -45.5 Q-196 -9 -163 28 Q-118 78 -74 126.5 Q-30 175 16 223 Q62 271 108 317.5 Q154 364 202 409 Q250 454 297.5 496.5 Q345 539 396 580 Q445 622 498 661 Q524 681 551 699.5 Q578 718 604 738 Z " />
<glyph glyph-name="C" unicode="C" horiz-adv-x="417" d="M390 734 Q397 736 400 730.5 Q403 725 401 720 Q386 690 368 660 Q339 608 304 560 Q269 512 230 467 Q227 463 223.5 463.5 Q220 464 217.5 466.5 Q215 469 214.5 473 Q214 477 217 480 Q228 493 238 505.5 Q248 518 258 531 Q322 614 370 703 Q345 689 324 671 Q303 653 283 633 Q241 591 201 548 Q160 505 121 460.5 Q82 416 44 370 Q6 324 -30.5 277.5 Q-67 231 -102 183 Q-138 134 -172.5 84.5 Q-207 35 -240 -16 Q-257 -42 -272.5 -67 Q-288 -92 -302 -119 Q-314 -142 -322.5 -166 Q-331 -190 -332 -216 Q-317 -211 -303 -202.5 Q-289 -194 -276 -185 Q-258 -173 -240 -160.5 Q-222 -148 -205 -135 Q-140 -90 -76.5 -45 Q-13 0 52 45 Q116 90 180 135 Q244 180 308 225 Q311 227 315 226 Q319 225 321 222 Q326 214 318 208 Q281 182 245 157 Q209 132 173 106 Q108 61 44.5 16 Q-19 -29 -84 -74 Q-116 -97 -148.5 -119.5 Q-181 -142 -213 -165 Q-228 -176 -243.5 -186.5 Q-259 -197 -275 -208 Q-290 -218 -306 -226.5 Q-322 -235 -339 -237 Q-350 -239 -352 -228 Q-352 -220 -352 -213.5 Q-352 -207 -350 -200 Q-346 -170 -334.5 -142 Q-323 -114 -308 -88 Q-292 -61 -275.5 -35.5 Q-259 -10 -242 16 Q-208 67 -173 117 Q-138 167 -102 216 Q-28 314 49 406 Q88 452 127.5 496.5 Q167 541 209 586 Q230 607 250.5 628.5 Q271 650 294 670 Q315 690 339 706.5 Q363 723 390 734 Z " />
<glyph glyph-name="D" unicode="D" horiz-adv-x="592" d="M723 668 Q732 654 730.5 636.5 Q729 619 723 604 Q715 585 704.5 569 Q694 553 683 536 Q585 387 466 247 Q451 229 435.5 211 Q420 193 403 176 Q428 169 438 150 Q445 136 442.5 119.5 Q440 103 425 95 Q421 93 417.5 94.5 Q414 96 412 99 Q410 102 410.5 105.5 Q411 109 415 112 Q424 116 424 127 Q424 138 417 147 Q412 153 404 155.5 Q396 158 388 159 Q348 115 307.5 74 Q267 33 224 -7 Q191 -38 157 -67.5 Q123 -97 88 -126 Q56 -152 24 -176 Q-8 -200 -44 -219 Q-58 -227 -74.5 -233 Q-91 -239 -108 -234 Q-125 -230 -129 -215.5 Q-133 -201 -131 -186 Q-129 -178 -126.5 -171.5 Q-124 -165 -122 -158 Q-117 -149 -113 -140 Q-109 -131 -104 -123 Q-85 -89 -59 -57 Q-33 -26 -2.5 0 Q28 26 62 49 Q129 97 209 131 Q229 139 250 146.5 Q271 154 292 160 Q303 163 313 166 Q323 169 334 171 Q345 173 355 175 Q365 177 376 178 L379 178 Q416 219 451.5 260 Q487 301 521 345 Q548 379 573.5 414 Q599 449 624 484 Q637 502 649 520 Q661 538 673 556 Q683 571 692.5 586.5 Q702 602 707 619 Q711 632 710.5 646 Q710 660 697 668 Q684 677 667.5 674 Q651 671 637 666 Q599 652 564 633 Q529 614 495 592 Q425 548 360.5 496.5 Q296 445 233 391 Q167 334 104 276.5 Q41 219 -21 159 Q-84 99 -144.5 38 Q-205 -23 -265 -85 Q-270 -90 -274.5 -88.5 Q-279 -87 -281 -83 Q-283 -76 -281 -73 Q-252 -28 -223.5 16 Q-195 60 -166 104 Q-114 182 -60.5 257.5 Q-7 333 50 408 Q106 483 164 556 Q222 629 282 701 Q284 704 288.5 703.5 Q293 703 296 701 Q302 695 296 687 Q262 647 229 607 Q196 567 164 526 Q107 453 52 379 Q-3 305 -57 229 Q-98 171 -137.5 112.5 Q-177 54 -215 -6 Q-153 57 -90.5 118.5 Q-28 180 36 241 Q102 302 169 361 Q236 420 306 477 Q372 531 440.5 580 Q509 629 586 665 Q604 673 622 681 Q640 689 660 692 Q678 695 695.5 690 Q713 685 723 668 Z M297 91 Q313 108 328 123.5 Q343 139 359 156 Q357 156 355.5 155.5 Q354 155 352 155 Q331 150 310.5 145 Q290 140 270 133 Q194 108 123 66 Q57 27 -1.5 -25 Q-60 -77 -95 -147 Q-101 -160 -107 -173.5 Q-113 -187 -113 -201 Q-113 -205 -111 -211 Q-108 -214 -105 -215 Q-99 -217 -92.5 -216.5 Q-86 -216 -80 -214 Q-66 -209 -53 -202 Q-40 -195 -27 -187 Q-9 -176 7.5 -164 Q24 -152 41 -139 Q109 -85 172.5 -27.5 Q236 30 297 91 Z " />
<glyph glyph-name="E" unicode="E" horiz-adv-x="602" d="M872 696 Q873 691 870.5 688 Q868 685 864.5 684.5 Q861 684 857.5 685 Q854 686 853 691 Q850 702 838.5 705.5 Q827 709 817 710 Q798 711 780 710.5 Q762 710 743 709 Q679 707 615.5 698.5 Q552 690 489 681 Q441 618 394.5 556 Q348 494 300 431 Q280 405 261 379 Q242 353 223 327 Q232 329 241 330 Q250 331 260 332 Q302 337 345 340 Q388 343 431 341 Q442 340 453.5 339 Q465 338 476 336 Q486 335 496 333.5 Q506 332 515 327 Q529 318 529 307 Q529 301 525.5 296 Q522 291 518 287 Q510 280 500 275 Q490 270 480 265 Q462 257 442.5 253 Q423 249 403 247 Q394 247 394 257 Q394 266 403 266 Q443 269 476 285 L494 294 Q496 296 499 297.5 Q502 299 503 300 Q505 301 505.5 302 Q506 303 507 304 Q508 304 508 305 L509 306 L509 307 Q509 307 508 308 Q509 308 507.5 308.5 Q506 309 507 309 Q506 310 505.5 310 Q505 310 504 311 Q496 315 486.5 315.5 Q477 316 468 318 Q448 320 428 321 Q408 322 388 322 Q347 321 307 317.5 Q267 314 227 308 L206 305 Q182 272 157.5 239 Q133 206 109 173 Q61 108 15 44.5 Q-31 -19 -75 -86 Q-86 -102 -96 -118 Q-106 -134 -116 -151 Q-121 -159 -125.5 -167.5 Q-130 -176 -135 -184 Q-137 -187 -138.5 -191 Q-140 -195 -138 -198 Q-138 -201 -135 -202 Q-132 -203 -129 -202.5 Q-126 -202 -123 -202 Q-118 -201 -114 -200.5 Q-110 -200 -106 -199 Q-89 -195 -72 -187 Q-55 -179 -38 -171.5 Q-21 -164 -4 -156 Q67 -127 139.5 -105 Q212 -83 287 -72 Q298 -70 299 -79 Q301 -82 299 -86 Q297 -90 292 -91 Q272 -93 255 -97 Q179 -111 106 -135.5 Q33 -160 -37 -192 Q-54 -200 -71.5 -207.5 Q-89 -215 -108 -219 Q-116 -221 -124.5 -222 Q-133 -223 -141 -220 Q-156 -214 -158 -197 Q-159 -187 -154.5 -178 Q-150 -169 -145 -161 Q-140 -153 -135 -144 Q-130 -135 -125 -127 Q-114 -110 -103.5 -93.5 Q-93 -77 -82 -60 Q-59 -27 -36 5 Q-13 37 10 69 Q34 103 58.5 136.5 Q83 170 107 203 Q125 227 143 251.5 Q161 276 178 300 Q115 288 53 270.5 Q-9 253 -69 227 Q-78 223 -83 231 Q-85 234 -84 238 Q-83 242 -79 244 Q-37 262 6 276.5 Q49 291 94 302 Q142 314 195 323 Q222 359 249 395 Q276 431 303 468 Q343 521 382.5 572.5 Q422 624 462 677 Q400 669 339 663 Q278 657 215 659 Q205 659 205 669 Q205 679 215 679 Q254 677 292.5 679 Q331 681 369 685 Q397 688 424 691.5 Q451 695 479 699 Q484 707 490 714.5 Q496 722 502 730 Q509 737 516 733 Q519 731 520 727 Q521 723 519 720 Q516 715 512.5 711 Q509 707 506 703 Q539 708 572 712 Q605 716 639 720 Q673 724 707 726.5 Q741 729 775 729 Q787 729 802 729.5 Q817 730 831 727.5 Q845 725 856.5 718 Q868 711 872 696 Z M510 307 L510 306 L510 307 L510 307 Z " />
<glyph glyph-name="F" unicode="F" horiz-adv-x="515" d="M1008 674 Q1013 672 1019 667.5 Q1025 663 1025 657 Q1025 651 1024 644.5 Q1023 638 1022 632 Q1020 622 1012 622 Q1002 622 1002 632 L1005 653 Q1002 655 999 657 Q996 659 993 661 Q976 670 957.5 674 Q939 678 920 679 Q899 681 877.5 680.5 Q856 680 834 680 Q785 678 736.5 676 Q688 674 638 670 Q601 667 564.5 664 Q528 661 491 656 Q462 623 434.5 589.5 Q407 556 379 522 Q341 475 304.5 429.5 Q268 384 232 336 Q227 330 222.5 324 Q218 318 213 312 Q316 325 420 327 Q430 327 430 317 Q430 307 420 307 Q394 307 368.5 306 Q343 305 317 303 Q257 298 197 291 Q170 256 143.5 220.5 Q117 185 91 149 L25 59 Q26 54 25 50 Q14 34 3 18.5 Q-8 3 -19 -13 Q-58 -69 -97.5 -124 Q-137 -179 -176 -236 Q-182 -243 -189 -239 Q-192 -237 -193 -233 Q-194 -229 -192 -226 L-177 -202 Q-145 -153 -112 -104.5 Q-79 -56 -45 -8 Q-11 40 23 87.5 Q57 135 92 183 Q111 209 130 235 Q149 261 169 287 Q115 279 61.5 267 Q8 255 -45 241 Q-54 239 -56.5 248 Q-59 257 -50 260 Q-25 267 0 273 Q25 279 51 285 Q118 298 186 309 Q198 325 210.5 340.5 Q223 356 235 372 Q243 383 251.5 393.5 Q260 404 268 415 L267 416 Q260 423 267 430 Q281 447 295 465 Q309 483 323 500 Q355 539 387.5 577 Q420 615 455 652 Q452 652 449 651.5 Q446 651 443 651 Q395 645 346.5 638 Q298 631 250 623 Q213 616 177 609.5 Q141 603 104 595 Q106 595 107.5 594.5 Q109 594 111 594 Q120 592 118 582 Q115 573 106 575 Q92 577 79.5 580 Q67 583 53 585 Q46 587 46 594.5 Q46 602 53 604 Q60 606 66 607 Q72 608 78 610 Q129 621 179 630 Q229 639 280 647 Q377 663 475 674 Q490 691 505 706.5 Q520 722 536 739 Q543 746 549.5 739 Q556 732 550 725 Q545 719 540.5 713.5 Q536 708 531 703 Q526 696 520.5 690 Q515 684 510 678 Q598 687 687 693 Q738 696 787.5 698 Q837 700 888 700 Q909 700 930.5 698 Q952 696 972 690 Q990 686 1008 674 Z " />
<glyph glyph-name="G" unicode="G" horiz-adv-x="442" d="M590 722 Q593 717 592.5 711.5 Q592 706 590 701 Q587 693 583 685.5 Q579 678 574 670 Q565 655 553.5 641.5 Q542 628 529 614 Q504 588 478 563.5 Q452 539 433 509 Q428 501 419.5 506 Q411 511 416 519 Q421 526 426 532.5 Q431 539 436 546 Q458 573 483 596 Q508 619 531 645 Q552 667 568 698 Q569 700 569.5 702 Q570 704 571 706 Q572 707 573 709 Q574 711 573 712 Q572 714 568.5 715 Q565 716 563 716 Q553 718 543 717 Q533 716 523 714 Q503 709 483.5 702 Q464 695 445 687 Q426 679 408 670 Q390 661 373 650 Q338 630 306 607 Q274 584 242 559 Q179 508 121.5 451 Q64 394 16 329 Q3 312 -8.5 294.5 Q-20 277 -30 258 Q-39 242 -45 223 Q-47 216 -49 209 Q-51 202 -49 196 Q-46 189 -37.5 189 Q-29 189 -22 191 Q0 196 18 203 Q38 210 57.5 218.5 Q77 227 97 235 Q117 244 137 253.5 Q157 263 177 273 Q196 283 215 293 Q234 303 252 314 Q287 336 320.5 359.5 Q354 383 392 400 Q393 401 394 401 Q401 406 407 400 Q413 394 407 386 Q400 378 393.5 369 Q387 360 380 352 Q353 317 326 283.5 Q299 250 273 215 Q265 204 258 194.5 Q251 185 244 174 Q267 189 288 200 Q305 210 323 218.5 Q341 227 360 235 Q377 244 398 250 Q406 252 416 250 Q426 248 424 238 Q424 228 414 228 Q412 228 410 229 Q408 230 407 232 L406 232 Q404 232 400 230 Q395 228 391 227 Q387 226 383 224 Q347 210 313 192 Q279 174 247 154 Q239 149 231 144 Q223 139 215 134 Q208 123 201 113 Q194 103 187 92 Q144 30 100 -30.5 Q56 -91 4 -146 Q-10 -160 -24 -173.5 Q-38 -187 -52 -200 Q-66 -212 -82 -222 Q-98 -232 -118 -225 Q-128 -222 -132.5 -214 Q-137 -206 -138 -196.5 Q-139 -187 -137 -177 Q-135 -167 -132 -159 Q-125 -139 -114.5 -122 Q-104 -105 -91 -90 Q-78 -74 -63.5 -60.5 Q-49 -47 -35 -33 Q-21 -19 -6 -6.5 Q9 6 24 19 Q55 45 86.5 68.5 Q118 92 150 114 Q163 123 175.5 131.5 Q188 140 202 149 Q240 205 281.5 257.5 Q323 310 365 364 L364 364 Q346 353 328 341 Q310 329 292 317 Q254 292 218 273 Q177 251 135.5 231.5 Q94 212 51 194 Q40 190 30.5 186.5 Q21 183 10 179 Q-1 176 -11.5 173 Q-22 170 -33 170 Q-43 169 -52 173.5 Q-61 178 -66 187 Q-70 195 -69.5 203.5 Q-69 212 -67 220 Q-54 262 -30 297.5 Q-6 333 20 366 Q74 434 136 492.5 Q198 551 267 603 Q300 628 335 650 Q370 672 407 691 Q446 710 488 724 Q511 732 530 735 Q541 737 552.5 737 Q564 737 575 733 Q585 729 590 722 Z M33 -84 Q71 -39 105 9 Q139 57 173 106 Q159 97 145.5 87.5 Q132 78 119 68 Q89 46 60 23 Q31 0 3 -25 Q-11 -38 -25 -50.5 Q-39 -63 -52 -77 Q-66 -90 -78 -104 Q-90 -118 -99 -135 Q-110 -150 -114 -168 Q-116 -173 -116.5 -177 Q-117 -181 -118 -186 Q-118 -190 -118.5 -194 Q-119 -198 -118 -201 Q-116 -208 -108.5 -208.5 Q-101 -209 -96 -207 Q-88 -205 -81.5 -199.5 Q-75 -194 -69 -189 Q-14 -141 33 -84 Z " />
<glyph glyph-name="H" unicode="H" horiz-adv-x="382" d="M567 732 Q573 738 580.5 733 Q588 728 583 720 L472 552 Q469 548 465 547.5 Q461 547 458 548.5 Q455 550 453.5 553.5 Q452 557 455 561 L500 630 Q453 578 406 521 Q368 476 331 431 Q294 386 257 339 Q247 326 237 313 Q227 300 217 287 Q246 291 274.5 294.5 Q303 298 332 302 Q336 303 338.5 299.5 Q341 296 341 292 Q341 283 332 283 Q311 280 290 277 Q269 274 249 272 Q237 270 225 268.5 Q213 267 200 265 Q180 237 159.5 209.5 Q139 182 119 153 Q84 105 51.5 57.5 Q19 10 -13 -39 Q-45 -88 -75.5 -136.5 Q-106 -185 -135 -236 Q-137 -240 -141 -240.5 Q-145 -241 -148 -239 Q-151 -237 -152.5 -233.5 Q-154 -230 -152 -226 Q-148 -220 -144.5 -213.5 Q-141 -207 -137 -201 Q-107 -151 -76.5 -102 Q-46 -53 -14 -5 Q18 44 51 91.5 Q84 139 119 187 Q133 206 146.5 224.5 Q160 243 174 261 Q142 257 111 253 Q80 249 49 245 Q47 242 45 239.5 Q43 237 41 235 Q-18 155 -76 76.5 Q-134 -2 -193 -82 Q-198 -89 -206 -86 Q-209 -84 -210.5 -79.5 Q-212 -75 -209 -72 Q-196 -54 -184.5 -35.5 Q-173 -17 -162 3 Q-141 40 -122 78 Q-103 116 -86 155 Q-80 169 -74 183 Q-68 197 -63 212 Q-61 217 -60 222 Q-59 227 -57 232 L-57 236 L-57 237 L-57 239 Q-58 244 -55 247.5 Q-52 251 -47 251 Q-26 254 -5.5 257 Q15 260 36 262 Q37 263 38 263 Q67 302 96 341.5 Q125 381 154 420 Q171 443 188 466 Q205 489 222 512 Q205 492 187.5 471 Q170 450 152 430 Q150 427 145.5 427.5 Q141 428 139 430 Q132 437 139 444 Q153 461 166.5 476.5 Q180 492 194 509 Q243 567 292 624 Q341 681 390 739 Q395 745 402.5 739.5 Q410 734 405 727 Q373 682 340 638.5 Q307 595 274 550 Q222 478 170 408 Q118 338 65 266 Q96 271 127 275 Q158 279 190 283 Q207 306 225 329 Q243 352 261 375 Q297 421 334.5 466 Q372 511 410 556 Q448 601 487.5 645 Q527 689 567 732 Z M-79 105 Q-53 139 -28.5 173 Q-4 207 22 241 Q7 239 -8 237 Q-23 235 -37 233 Q-38 231 -38 229.5 Q-38 228 -39 226 Q-42 213 -46 203 Q-58 168 -73 135 Q-88 102 -104 70 Q-98 79 -91.5 87.5 Q-85 96 -79 105 Z " />
<glyph glyph-name="I" unicode="I" horiz-adv-x="135" d="M355 732 Q360 727 355 718 Q350 713 346.5 707.5 Q343 702 338 696 Q303 651 268.5 606 Q234 561 200 516 Q165 471 131 425.5 Q97 380 63 334 Q28 288 -5.5 242 Q-39 196 -73 149 Q-107 103 -140.5 57 Q-174 11 -207 -36 Q-208 -38 -209 -39 Q-210 -40 -211 -42 Q-206 -40 -201 -45 Q-195 -51 -201 -58 Q-236 -100 -270.5 -141.5 Q-305 -183 -340 -225 Q-345 -231 -352.5 -225.5 Q-360 -220 -355 -213 Q-351 -207 -347.5 -201 Q-344 -195 -339 -189 Q-306 -142 -273 -95.5 Q-240 -49 -207 -2 L-72 184 Q-38 230 -4.5 276 Q29 322 64 368 Q131 459 202 551 Q204 553 205.5 555.5 Q207 558 209 560 Q180 529 151.5 498 Q123 467 94 436 Q87 429 80.5 436 Q74 443 80 450 Q94 466 108.5 481 Q123 496 138 512 Q189 567 239.5 622 Q290 677 341 732 Q349 740 355 732 Z " />
<glyph glyph-name="J" unicode="J" horiz-adv-x="285" d="M455 729 Q465 718 459.5 703.5 Q454 689 449 678 Q442 665 434 653.5 Q426 642 418 630 L385 582 Q368 557 350.5 533 Q333 509 315 485 Q279 437 242 390 Q205 343 169 295 Q164 289 160 283.5 Q156 278 151 272 Q169 281 186.5 290.5 Q204 300 222 309 Q230 313 235 304.5 Q240 296 232 292 Q219 286 207 279.5 Q195 273 182 266 Q167 258 152 250 Q137 242 123 234 Q99 202 76 169 Q53 136 30 103 Q-3 54 -37 6.5 Q-71 -41 -109 -86 Q-144 -128 -185.5 -165 Q-227 -202 -278 -224 Q-290 -229 -302.5 -231.5 Q-315 -234 -329 -232 Q-341 -230 -350 -222.5 Q-359 -215 -364 -204 Q-369 -191 -368 -177 Q-367 -163 -361.5 -150 Q-356 -137 -348.5 -124.5 Q-341 -112 -334 -101 Q-302 -54 -261.5 -15 Q-221 24 -176 59 Q-129 95 -81 128 Q-33 161 17 193 Q40 207 63 221 Q86 235 110 249 Q127 272 145 295.5 Q163 319 180 342 Q215 388 250.5 433 Q286 478 320 525 Q337 548 353.5 571 Q370 594 386 617 Q394 629 402 641 Q410 653 418 665 Q426 677 432 688 Q435 693 437.5 699 Q440 705 441 712 L441 715 L441 716 L440 716 Q439 716 438 715.5 Q437 715 436 715 Q430 713 424.5 710 Q419 707 414 704 Q401 698 389 691.5 Q377 685 365 678 Q340 664 315.5 650 Q291 636 268 621 Q260 616 255 624.5 Q250 633 258 638 Q270 646 282 653 Q294 660 306 667 Q332 682 357 696 Q382 710 408 723 Q419 728 432 734 Q445 740 455 729 Z M44 158 Q53 171 62.5 183.5 Q72 196 81 209 Q57 195 34 180.5 Q11 166 -12 151 Q-60 120 -105 87.5 Q-150 55 -194 20 Q-235 -15 -272 -54 Q-309 -93 -335 -141 Q-341 -152 -345.5 -163.5 Q-350 -175 -348 -188 Q-346 -198 -340.5 -205 Q-335 -212 -324 -214 Q-313 -216 -302 -212.5 Q-291 -209 -280 -204 Q-269 -199 -258.5 -192.5 Q-248 -186 -237 -179 Q-214 -165 -194.5 -147.5 Q-175 -130 -157 -110 Q-119 -70 -86 -27 Q-51 18 -19.5 64.5 Q12 111 44 158 Z " />
<glyph glyph-name="K" unicode="K" horiz-adv-x="287" d="M559 604 Q565 598 558 592 Q548 583 537 575.5 Q526 568 515 560 Q511 557 507.5 559 Q504 561 502 564 Q468 547 434.5 530 Q401 513 368 495 Q328 472 288.5 449 Q249 426 210 401 Q172 376 134 350.5 Q96 325 60 298 Q-3 251 -63 202 Q-37 180 -12 159 Q13 138 38 116 Q87 74 135.5 31.5 Q184 -11 232 -54 Q280 -97 327.5 -139.5 Q375 -182 423 -225 Q430 -232 423.5 -238.5 Q417 -245 410 -239 Q383 -215 356 -190.5 Q329 -166 302 -142 Q254 -99 206 -56.5 Q158 -14 109 28 Q62 69 16 109 Q-30 149 -78 189 Q-79 189 -81 187 Q-89 181 -95.5 175 Q-102 169 -109 163 Q-129 135 -148 108 Q-167 81 -186 53 Q-211 17 -235 -18.5 Q-259 -54 -280 -92 Q-278 -94 -277 -98 Q-276 -102 -280 -106 Q-285 -111 -290.5 -117 Q-296 -123 -301 -128 Q-307 -134 -313.5 -129 Q-320 -124 -316 -116 Q-313 -110 -310 -104.5 Q-307 -99 -304 -93 Q-278 -47 -248 -3 Q-218 41 -188 84 Q-186 87 -184.5 89.5 Q-183 92 -181 95 Q-184 92 -187 92 Q-193 86 -199.5 80 Q-206 74 -212 68 Q-217 63 -223 65.5 Q-229 68 -228 75 Q-228 89 -218.5 98 Q-209 107 -196 110 Q-178 127 -160 143.5 Q-142 160 -123 176 Q-109 196 -95 215 Q-81 234 -67 253 Q-4 337 62 418 Q79 439 95.5 460 Q112 481 129 501 Q129 503 130 504 Q133 520 142 532.5 Q151 545 162 556 Q205 602 250 647 Q272 670 294 693 Q316 716 339 739 Q346 746 352.5 739.5 Q359 733 353 725 Q348 720 344 715.5 Q340 711 335 706 Q263 628 194 547 Q160 507 126.5 467 Q93 427 60 386 Q-2 308 -60 230 Q-29 256 2.5 280 Q34 304 66 327 Q104 354 142 379.5 Q180 405 218 429 Q258 454 297.5 477.5 Q337 501 379 523 Q461 568 547 607 Q554 611 559 604 Z M-179 98 Q-179 99 -178.5 99 Q-178 99 -178 100 Q-176 102 -176 102 Q-177 101 -177.5 100 Q-178 99 -179 98 Z " />
<glyph glyph-name="L" unicode="L" horiz-adv-x="322" d="M487 -61 Q490 -83 472 -93 Q464 -98 459 -90 Q454 -82 462 -77 Q468 -73 468 -66 Q468 -67 467 -66 L467 -65 Q467 -64 466 -63 Q464 -61 462 -60 Q460 -59 458 -57 Q440 -48 417 -43 Q394 -37 370 -34.5 Q346 -32 323 -30 Q235 -24 148 -30 Q61 -36 -27 -51 Q-60 -57 -93 -64 Q-126 -71 -159 -79 Q-173 -96 -187 -112 Q-201 -128 -215 -145 Q-226 -159 -237.5 -172 Q-249 -185 -261 -199 Q-271 -210 -282.5 -221 Q-294 -232 -311 -233 Q-316 -234 -319.5 -229 Q-323 -224 -320 -219 Q-314 -210 -310 -200 Q-306 -190 -305 -179 Q-303 -163 -307.5 -148 Q-312 -133 -324 -122 L-325 -122 Q-339 -124 -353 -125.5 Q-367 -127 -381 -126 Q-389 -126 -390.5 -119.5 Q-392 -113 -386 -108 Q-377 -101 -365.5 -97 Q-354 -93 -342 -94 Q-336 -95 -331 -97 Q-326 -99 -321 -101 Q-310 -99 -300 -96 Q-290 -93 -280 -91 Q-254 -83 -228 -76 Q-202 -69 -176 -63 Q-174 -62 -173 -62 Q-172 -62 -170 -61 Q-156 -44 -142 -27 Q-128 -10 -114 7 Q-71 60 -29.5 113.5 Q12 167 54 222 Q96 276 136 330.5 Q176 385 216 442 Q255 498 293.5 553.5 Q332 609 370 666 L388 693 Q390 698 393 703.5 Q396 709 396 714 L396 718 Q396 717 396 717 Q394 717 393 717.5 Q392 718 391 718 Q389 717 388 717 Q387 717 385 716 Q377 714 369 710.5 Q361 707 353 703 Q290 677 230 643 Q226 641 222.5 642.5 Q219 644 217 647 Q215 650 215.5 653.5 Q216 657 220 660 Q228 665 235.5 668.5 Q243 672 251 677 Q267 685 282.5 692.5 Q298 700 315 708 L348 723 Q356 726 364.5 729.5 Q373 733 381 735 Q389 737 397 736.5 Q405 736 410 730 Q418 721 414 705 Q412 698 409 692 Q406 686 402 680 Q397 672 392 665 Q387 658 382 650 Q343 591 303.5 533 Q264 475 223 418 Q140 302 55 190 Q11 133 -33 77 Q-77 21 -123 -34 Q-127 -39 -130.5 -44 Q-134 -49 -139 -54 Q-57 -35 26 -23 Q109 -11 193 -8 Q238 -7 282.5 -8.5 Q327 -10 371 -15 Q394 -18 415.5 -22.5 Q437 -27 458 -36 Q467 -40 475.5 -45.5 Q484 -51 487 -61 Z M-203 -101 Q-200 -97 -197 -93.5 Q-194 -90 -191 -87 Q-195 -88 -198 -88.5 Q-201 -89 -205 -90 Q-227 -96 -248.5 -102.5 Q-270 -109 -293 -114 Q-299 -116 -303 -117 Q-293 -128 -289 -143 Q-280 -171 -290 -202 Q-284 -197 -279 -191 Q-274 -185 -269 -179 Q-264 -172 -258 -166 Q-252 -160 -247 -153 Q-236 -140 -225 -127 Q-214 -114 -203 -101 Z " />
<glyph glyph-name="M" unicode="M" horiz-adv-x="532" d="M719 737 Q725 739 730 736 Q735 733 733 726 Q731 719 729.5 713 Q728 707 726 702 Q716 676 702 654 Q688 632 671 610 Q654 587 637.5 565.5 Q621 544 604 521 Q570 475 536.5 429.5 Q503 384 470 337 Q438 291 406.5 245 Q375 199 344 152 Q313 104 284 57 Q255 10 226 -38 Q212 -62 198.5 -86.5 Q185 -111 172 -135 Q158 -159 146 -184 Q143 -189 140 -194.5 Q137 -200 135 -205 Q133 -211 134 -214 Q134 -216 135 -217 Q143 -222 138 -230.5 Q133 -239 125 -234 Q114 -226 114 -214 Q114 -209 116 -203 Q118 -197 120 -192 L132 -168 Q139 -156 145.5 -143.5 Q152 -131 159 -119 Q172 -94 186 -69.5 Q200 -45 214 -21 Q243 29 272.5 76.5 Q302 124 334 172 Q397 268 463 361 Q497 408 530.5 454 Q564 500 599 547 Q616 570 633 592.5 Q650 615 667 638 Q680 655 690.5 672.5 Q701 690 708 710 Q707 709 703 707 Q677 694 653 679.5 Q629 665 606 648 Q583 632 560.5 616 Q538 600 515 583 Q470 551 428.5 516 Q387 481 345 444 Q304 408 266 370 Q228 332 191 292 Q155 253 121 212.5 Q87 172 55 130 Q20 84 -13 38 Q-46 -8 -87 -49 Q-93 -55 -100 -50 Q-107 -45 -102 -37 Q-85 -6 -68 24.5 Q-51 55 -33 85 Q0 139 34.5 191 Q69 243 104 295 Q133 337 161.5 378 Q190 419 219 461 Q196 444 174 427 Q152 410 131 391 Q76 343 25 291.5 Q-26 240 -74 186 Q-122 132 -167 76.5 Q-212 21 -257 -35 Q-260 -38 -263.5 -38 Q-267 -38 -270 -36 Q-273 -34 -274 -30.5 Q-275 -27 -272 -24 Q-246 11 -220.5 46 Q-195 81 -169 116 Q-122 179 -76.5 240.5 Q-31 302 16 365 Q61 425 105 485 Q149 545 194 606 L193 606 Q188 604 184 602.5 Q180 601 176 598 Q133 569 93 535.5 Q53 502 15 465 Q8 458 1 465 Q-6 472 1 479 Q6 484 10 487.5 Q14 491 19 496 Q37 513 56 529.5 Q75 546 95 562 Q105 570 115 577.5 Q125 585 135 593 L156 608 Q161 611 165 614 Q169 617 174 619 Q182 623 191.5 625.5 Q201 628 209 623 Q214 621 217 616 Q220 611 218 606 Q217 603 214.5 600 Q212 597 210 594 Q208 592 206 589 Q204 586 202 584 Q185 561 169.5 539.5 Q154 518 137 495 Q104 451 71.5 407.5 Q39 364 6 320 Q-11 297 -27 275 Q-43 253 -60 231 Q-39 254 -18 276 Q3 298 25 319 Q79 372 135 420 Q191 468 253 510 Q259 514 265 508.5 Q271 503 267 497 Q246 466 225 436 Q204 406 183 376 Q148 324 112.5 272 Q77 220 42 167 Q21 135 0.5 102 Q-20 69 -40 35 Q-14 67 9 99.5 Q32 132 57 164 Q90 206 124.5 246.5 Q159 287 196 326 Q271 405 353 477 Q395 514 438 548.5 Q481 583 526 616 Q549 633 572 649 Q595 665 618 680 Q643 696 668 710.5 Q693 725 719 737 Z " />
<glyph glyph-name="N" unicode="N" horiz-adv-x="325" d="M546 729 Q549 714 545 703 Q540 690 532 679.5 Q524 669 516 659 Q508 648 499 637.5 Q490 627 482 616 Q465 594 449.5 573 Q434 552 417 530 Q385 486 354 442.5 Q323 399 293 354 Q264 309 236 264 Q208 219 182 171 Q130 78 89 -16 Q78 -40 69 -64 Q60 -88 51 -112 Q46 -125 42 -137.5 Q38 -150 34 -163 Q31 -176 30 -188.5 Q29 -201 34 -214 Q36 -217 33.5 -220.5 Q31 -224 27 -226 Q18 -228 15 -219 Q10 -204 10 -192 Q10 -178 13 -165 Q16 -152 21 -139 Q26 -127 30 -114.5 Q34 -102 39 -90 Q56 -43 78 7 Q99 55 123 101.5 Q147 148 173 194 Q225 287 285 376 Q344 465 410 552 Q441 595 476 639 Q484 650 492.5 660.5 Q501 671 509 682 Q515 689 520.5 697 Q526 705 528 714 Q524 713 521 712 Q518 711 515 710 Q491 702 468.5 690.5 Q446 679 425 665 Q402 651 381 636.5 Q360 622 338 606 Q296 576 256 543 Q216 510 178 475 Q140 440 104.5 404 Q69 368 35 329 Q-1 287 -34.5 243 Q-68 199 -100 154 Q-134 107 -167 60.5 Q-200 14 -233 -34 Q-239 -42 -247 -37.5 Q-255 -33 -250 -24 Q-230 17 -207.5 55.5 Q-185 94 -160 132 Q-114 201 -63.5 265.5 Q-13 330 38 395 Q88 457 135.5 519.5 Q183 582 226 649 Q218 650 209 647 Q200 644 192 640 Q181 635 171.5 628 Q162 621 151 614 Q131 600 112 584 Q75 555 40 519 Q37 515 33 515.5 Q29 516 26.5 518.5 Q24 521 23.5 525 Q23 529 26 532 Q37 543 47.5 553 Q58 563 69 574 Q89 591 110 607.5 Q131 624 153 639 Q163 646 174.5 652.5 Q186 659 198 663.5 Q210 668 222 668 Q234 668 246 662 Q250 660 251 656 Q252 652 250 649 Q225 610 198.5 572.5 Q172 535 144 498 Q115 460 85 422.5 Q55 385 25 347 Q29 351 32 354.5 Q35 358 39 362 Q73 401 109.5 437 Q146 473 185 508 Q225 543 266 576 Q307 609 351 639 Q393 669 438 696.5 Q483 724 534 736 Q544 738 546 729 Z " />
<glyph glyph-name="O" unicode="O" horiz-adv-x="385" d="M579 714 Q583 704 580 693.5 Q577 683 572 675 Q567 664 560.5 654.5 Q554 645 547 635 Q521 593 492 554 Q463 515 434 476 Q405 436 375 396.5 Q345 357 315 317 Q286 278 256.5 240 Q227 202 197 164 Q169 129 141 95.5 Q113 62 84 30 Q54 -3 23 -34.5 Q-8 -66 -41 -95 Q-73 -124 -107.5 -150.5 Q-142 -177 -179 -201 Q-196 -212 -215 -222.5 Q-234 -233 -256 -235 Q-276 -237 -289 -224 Q-297 -216 -299 -205.5 Q-301 -195 -301 -184 Q-299 -161 -291 -139 Q-283 -117 -273 -96 Q-265 -77 -256 -59 Q-247 -41 -238 -22 Q-218 15 -198 51 Q-178 87 -156 123 Q-133 158 -110 193 Q-87 228 -61 262 Q-35 297 -9 330 Q17 363 46 395 Q74 427 103.5 458.5 Q133 490 164 520 Q225 579 291 635 Q308 649 325 662 Q342 675 359 689 Q375 701 394 714 Q413 727 434 722 Q443 719 441 710 Q436 689 426 673 Q465 699 506 717 Q513 720 524 724.5 Q535 729 545.5 730.5 Q556 732 565 729 Q574 726 579 714 Z M557 690 Q559 695 561 702.5 Q563 710 555 711 Q546 713 537.5 709.5 Q529 706 521 703 Q500 694 480.5 683 Q461 672 442 660 Q407 637 374.5 612 Q342 587 310 561 Q247 507 192 446.5 Q137 386 89 319 Q78 302 67 285 Q56 268 45 251 Q34 234 24 217 Q14 200 6 182 Q-2 166 -5 149 Q-7 142 -7 134.5 Q-7 127 -4 122 Q0 114 7.5 111.5 Q15 109 24 109.5 Q33 110 42 112.5 Q51 115 58 117 Q67 120 69.5 110.5 Q72 101 63 98 Q45 93 24 90.5 Q3 88 -13 102 Q-27 115 -26 133.5 Q-25 152 -20 168 Q-14 188 -4.5 205.5 Q5 223 16 241 Q37 277 60.5 311.5 Q84 346 110 380 Q136 414 164.5 446 Q193 478 224 508 Q255 538 287 566.5 Q319 595 354 621 Q368 632 381.5 642 Q395 652 410 662 Q409 662 408 663 Q405 665 403.5 669 Q402 673 404 676 Q409 683 412.5 689 Q416 695 419 703 Q408 700 397 693 Q389 688 381 681.5 Q373 675 365 670 Q299 619 238.5 564 Q178 509 121 449 Q64 389 12.5 325.5 Q-39 262 -86 194 Q-131 128 -171 58.5 Q-211 -11 -246 -83 Q-254 -102 -263 -121.5 Q-272 -141 -277 -161 Q-279 -168 -280.5 -177 Q-282 -186 -281 -194.5 Q-280 -203 -275.5 -209.5 Q-271 -216 -260 -216 Q-251 -216 -242.5 -213 Q-234 -210 -226 -206 Q-209 -198 -191 -186 Q-173 -175 -156 -162.5 Q-139 -150 -122 -137 Q-55 -86 4 -26 Q63 34 118 99 Q177 168 232 239.5 Q287 311 341 384 Q370 422 398.5 460.5 Q427 499 456 538 Q470 556 483 574.5 Q496 593 509 613 L536 652 Q541 661 547 670.5 Q553 680 557 690 Z " />
<glyph glyph-name="P" unicode="P" horiz-adv-x="292" d="M532 714 Q540 708 543 698 Q546 688 544 678 Q542 657 531 638.5 Q520 620 507 604 Q492 585 474.5 567.5 Q457 550 440 533 Q402 495 361 460 Q320 425 277 393 Q263 382 249 372.5 Q235 363 221 353 L242 359 Q246 360 249.5 358 Q253 356 253.5 352.5 Q254 349 252.5 345.5 Q251 342 247 341 Q207 328 165 311 Q161 309 158 308 Q155 307 152 306 Q138 298 125.5 289.5 Q113 281 99 273 Q57 247 15 224 Q-27 201 -70 179 Q-79 168 -88 158 Q-97 148 -105 137 Q-174 53 -241 -38 Q-273 -83 -304.5 -128.5 Q-336 -174 -366 -221 Q-371 -229 -379.5 -224 Q-388 -219 -383 -211 L-368 -187 Q-337 -140 -306.5 -93.5 Q-276 -47 -244 -1 Q-212 47 -179.5 93 Q-147 139 -114 185 Q-81 232 -48 277.5 Q-15 323 20 368 Q55 415 89.5 460 Q124 505 159 550 Q176 572 193.5 593 Q211 614 228 637 Q240 654 250.5 672.5 Q261 691 263 712 Q221 698 180.5 680 Q140 662 102 639 Q94 634 89 642.5 Q84 651 92 656 Q177 706 271 735 Q276 737 280 734 Q284 731 284 726 Q284 713 281 701 Q276 675 262 653 Q248 631 232 611 Q215 588 197 566.5 Q179 545 162 522 Q127 477 92.5 431.5 Q58 386 23 340 L-76 205 Q-74 206 -71 209 Q-36 250 0 290 Q36 330 74 369 Q114 411 155.5 451 Q197 491 241 529 Q283 567 326 603.5 Q369 640 415 672 Q427 680 438.5 687.5 Q450 695 462 702 Q478 713 495 719 Q505 722 514.5 722 Q524 722 532 714 Z M524 675 Q526 683 524 690 Q522 698 518 701 Q513 703 507 702 Q498 700 491 696 Q471 686 456 675 Q433 661 411 645 Q389 629 367 612 Q324 577 282.5 540.5 Q241 504 200 466 Q158 427 118 387 Q78 347 40 305 L-14 245 Q24 268 63 287 Q102 306 142 323 Q225 376 299 435 Q341 467 379.5 502 Q418 537 455 575 Q469 591 483.5 606.5 Q498 622 509 640 Q514 648 518 656.5 Q522 665 524 675 Z " />
<glyph glyph-name="Q" unicode="Q" horiz-adv-x="415" d="M571 722 Q579 711 576 698 Q573 685 567 674 Q561 661 553.5 649 Q546 637 538 626 Q521 601 504 577 Q487 553 470 529 Q434 481 398.5 433 Q363 385 326 337 Q297 299 267.5 260.5 Q238 222 208 184 Q211 185 214 186 Q217 187 219 188 Q243 198 267.5 206.5 Q292 215 318 218 Q329 219 341 215.5 Q353 212 356 199 Q358 186 351 174.5 Q344 163 336 153 Q301 108 263 66.5 Q225 25 186 -17 Q151 -54 116 -90.5 Q81 -127 46 -163 Q71 -152 87 -130 Q92 -123 100 -126 Q104 -128 105 -132.5 Q106 -137 104 -140 Q87 -161 64 -175 Q41 -189 14 -192 Q7 -193 5 -186.5 Q3 -180 7 -176 Q27 -154 48 -133 Q69 -112 89 -90 Q131 -47 171.5 -4.5 Q212 38 252 83 Q272 104 290 126 Q308 148 325 171 Q329 176 332.5 181.5 Q336 187 337 192 Q337 198 330 198 Q320 199 307 196 Q295 194 283 190 Q257 182 232 172 Q207 162 182 151 Q149 109 114.5 69 Q80 29 44 -9 Q7 -47 -32 -83.5 Q-71 -120 -113 -152 Q-134 -168 -155.5 -183 Q-177 -198 -200 -212 Q-209 -218 -220.5 -224 Q-232 -230 -244 -233 Q-256 -236 -268 -235 Q-280 -234 -290 -226 Q-300 -218 -303 -205 Q-306 -192 -304 -180 Q-301 -152 -289 -125 Q-279 -101 -268 -77.5 Q-257 -54 -246 -31 Q-200 60 -146 144 Q-92 229 -27 311 Q5 353 39 391.5 Q73 430 108 467 Q144 505 181.5 541 Q219 577 259 611 Q279 628 299 644.5 Q319 661 340 677 Q351 685 361 693 Q371 701 382 709 Q393 716 405 720.5 Q417 725 430 722 Q439 719 437 710 Q432 690 422 672 Q447 690 476 705 Q488 711 500.5 716.5 Q513 722 527 727 Q538 730 550.5 730.5 Q563 731 571 722 Z M110 93 Q118 103 126 112.5 Q134 122 142 132 Q110 118 81 106 Q68 101 55.5 97.5 Q43 94 30 92 Q18 90 6 92 Q-6 94 -16 102 Q-25 109 -28 119.5 Q-31 130 -30.5 141 Q-30 152 -26.5 163.5 Q-23 175 -19 184 Q-9 207 3.5 228 Q16 249 29 269 Q43 291 57.5 312.5 Q72 334 87 354 Q118 396 152 435 Q186 474 223 511 Q260 547 300 580.5 Q340 614 382 645 Q388 650 394 654 Q400 658 406 662 Q405 662 405 662.5 Q405 663 404 663 Q401 665 400 669 Q399 673 401 676 Q406 683 409 689.5 Q412 696 415 703 Q407 701 399 696.5 Q391 692 385 687 Q375 680 366 673 Q357 666 348 659 Q307 627 269 593.5 Q231 560 194 525 Q157 490 122 453 Q87 416 53 378 Q20 340 -11 301 Q-42 262 -71 221 Q-100 180 -126.5 138.5 Q-153 97 -178 53 Q-228 -31 -267 -122 Q-272 -134 -277 -147 Q-282 -160 -284 -174 Q-286 -183 -285.5 -195 Q-285 -207 -276 -213 Q-268 -218 -257.5 -215.5 Q-247 -213 -239 -210 Q-227 -205 -216.5 -199 Q-206 -193 -196 -186 Q-152 -158 -111.5 -125.5 Q-71 -93 -33 -58 Q5 -23 40 15.5 Q75 54 110 93 Z M551 684 Q552 687 554 691 Q556 695 557 699.5 Q558 704 557 707.5 Q556 711 551 711 Q546 712 540.5 711 Q535 710 530 708 Q524 706 518 703 Q512 700 506 698 Q493 692 481 686 Q469 680 457 672 Q413 646 371.5 614.5 Q330 583 292 548 Q216 481 150 403 Q118 365 89.5 324.5 Q61 284 35 241 Q28 230 22 219.5 Q16 209 10 198 Q-1 177 -7 157 Q-10 149 -11 139.5 Q-12 130 -8 123 Q-3 114 5.5 111.5 Q14 109 23 110 Q36 112 48 115 Q60 118 71 123 Q84 128 96 133 Q108 138 120 143 Q133 149 145 154.5 Q157 160 170 166 Q189 189 207 212.5 Q225 236 243 260 Q279 307 315 353.5 Q351 400 386 448 Q421 495 455 541.5 Q489 588 521 636 Q529 648 536.5 659.5 Q544 671 551 684 Z " />
<glyph glyph-name="R" unicode="R" horiz-adv-x="267" d="M431 653 Q437 642 437 630 Q437 618 433.5 606 Q430 594 424 583 Q418 572 413 562 Q401 540 387 520 Q373 500 357 480 Q331 447 301.5 415.5 Q272 384 242 354 Q211 324 179 295.5 Q147 267 114 240 Q59 196 1 157.5 Q-57 119 -118 84 Q-105 79 -96 69 Q-89 61 -83 52 Q-77 43 -71 34 Q-65 25 -58.5 16 Q-52 7 -45 -3 Q-17 -40 10 -73 Q68 -143 134 -206 Q141 -212 134 -219 Q127 -226 120 -219 Q102 -202 84.5 -184.5 Q67 -167 50 -148 Q-9 -84 -62 -12 Q-69 -3 -75.5 6 Q-82 15 -88 24 Q-94 32 -99 40 Q-104 48 -111 56 Q-123 70 -137 66 Q-146 64 -155 60.5 Q-164 57 -173 55 Q-205 10 -233 -35 Q-264 -83 -294 -130.5 Q-324 -178 -353 -226 Q-358 -234 -366 -229 Q-374 -224 -370 -216 Q-366 -210 -363 -203.5 Q-360 -197 -357 -190 Q-330 -136 -301 -83 Q-272 -30 -241 22 Q-178 125 -104 222 Q-33 315 47 397 L53 403 Q81 439 108.5 474 Q136 509 165 544 Q193 580 220 616 Q247 652 271 690 Q256 681 241.5 671.5 Q227 662 213 652 Q137 596 68 526 Q0 456 -54 377 Q-57 373 -61 373 Q-65 373 -68 374.5 Q-71 376 -72.5 379.5 Q-74 383 -71 387 Q-55 410 -38 432 Q-21 454 -4 476 Q59 551 134 614 Q208 678 295 728 Q301 731 306.5 726 Q312 721 308 714 Q304 708 301 702 Q298 696 294 691 Q265 643 232 599.5 Q199 556 164 513 Q159 506 153.5 499.5 Q148 493 143 487 Q179 517 219 548 Q242 565 265.5 581.5 Q289 598 313 613 Q339 629 366 641.5 Q393 654 423 657 Q425 658 427.5 656.5 Q430 655 431 653 Z M-109 184 Q-132 152 -154.5 119.5 Q-177 87 -198 53 Q-176 86 -153.5 119 Q-131 152 -108 184 Q-105 188 -102.5 191.5 Q-100 195 -97 199 L-109 184 Z M413 608 Q415 615 416.5 622.5 Q418 630 416 637 Q411 636 406 635 Q401 634 396 633 Q369 624 344 609 Q319 594 295 578 Q272 563 249.5 546 Q227 529 205 512 Q169 483 134.5 452.5 Q100 422 67 390 Q56 376 46 362.5 Q36 349 26 335 Q-9 290 -42 244.5 Q-75 199 -107 152 Q-118 136 -128.5 120.5 Q-139 105 -150 89 Q-117 107 -85 126.5 Q-53 146 -21 166 Q118 258 235 375 Q265 404 293.5 435.5 Q322 467 348 500 Q374 532 396 571 Q401 580 405.5 589 Q410 598 413 608 Z " />
<glyph glyph-name="S" unicode="S" horiz-adv-x="492" d="M740 708 Q761 687 756 657 Q754 642 745.5 628.5 Q737 615 727 603 Q716 591 704.5 580 Q693 569 681 558 Q669 547 656.5 536.5 Q644 526 631 515 Q605 494 579 474.5 Q553 455 526 436 Q499 417 471 400 Q443 383 414 367 Q400 359 385.5 351.5 Q371 344 356 337 Q341 329 324.5 323.5 Q308 318 291 318 Q281 318 281 328 Q282 345 292.5 357.5 Q303 370 315 381 Q341 404 368 426 Q395 448 421 471 Q434 481 446 491 Q458 501 471 512 Q484 526 498.5 538.5 Q513 551 529 562 Q536 567 542 559 Q548 551 541 546 Q527 534 512.5 522 Q498 510 484 499 L484 498 Q483 497 482.5 497 Q482 497 481 496 Q455 475 430.5 453.5 Q406 432 380 410 L329 368 Q322 362 314.5 354.5 Q307 347 303 339 Q316 341 327.5 345.5 Q339 350 350 355 Q408 384 462.5 418 Q517 452 568 491 Q619 528 667 572 Q679 583 690.5 593.5 Q702 604 713 616 Q721 627 728.5 638.5 Q736 650 737 664 Q739 676 733 686 Q727 696 717 702 Q703 710 688 711 Q673 712 658 711 Q624 709 590.5 700 Q557 691 525 680 Q463 659 404 631 Q345 603 288 570 Q260 553 232.5 535.5 Q205 518 179 498 Q153 480 129.5 460.5 Q106 441 84 418 Q60 395 43 373 Q33 362 24.5 349.5 Q16 337 9 323 Q6 317 3.5 310.5 Q1 304 3 297 Q4 289 15 284 Q27 279 41 278.5 Q55 278 68 278 Q101 278 133.5 281.5 Q166 285 198.5 289 Q231 293 263.5 295.5 Q296 298 329 297 Q344 296 359.5 293.5 Q375 291 384 277 Q392 266 391.5 251 Q391 236 386 223 Q380 207 370 194 Q360 181 350 168 Q341 157 332 146 Q323 135 313 124 Q324 126 333.5 125 Q343 124 348 113 Q352 103 349 93.5 Q346 84 341 76 Q336 68 331 59 Q326 50 321 42 Q310 25 299 8.5 Q288 -8 276 -25 Q271 -34 262 -29 Q254 -23 259 -16 Q284 20 307 56 Q312 65 317 74 Q322 83 327 92 Q331 101 328.5 103.5 Q326 106 320 105.5 Q314 105 307.5 102 Q301 99 298 98 Q294 96 290 94.5 Q286 93 282 91 Q242 49 200 12 Q158 -25 115 -63 Q88 -86 61.5 -109.5 Q35 -133 8 -156 Q-17 -177 -42 -198.5 Q-67 -220 -98 -234 Q-105 -237 -109.5 -232.5 Q-114 -228 -111 -221 Q-103 -201 -91 -183.5 Q-79 -166 -65 -149 Q-38 -117 -7 -88 Q45 -36 104 7 Q163 50 228 85 Q239 91 249 96.5 Q259 102 270 107 Q290 127 308 147.5 Q326 168 343 191 Q352 203 361 216.5 Q370 230 372 245 Q373 251 372 257 Q371 263 367 268 Q363 273 357 274.5 Q351 276 345 276 Q312 280 279 277.5 Q246 275 213 271 Q180 267 147 263 Q114 259 80 258 Q65 258 49.5 258 Q34 258 19 262 Q6 265 -4.5 273 Q-15 281 -17 295 Q-19 312 -11 327 Q-3 342 5 355 Q14 369 23.5 381 Q33 393 44 405 Q65 429 88.5 450 Q112 471 137 491 Q190 532 246 567.5 Q302 603 362 632 Q421 662 483 685 Q516 698 549.5 708.5 Q583 719 618 725 Q633 728 649.5 730 Q666 732 682.5 731 Q699 730 714 725 Q729 720 740 708 Z M52 -92 Q78 -69 105 -45.5 Q132 -22 158 1 L224 61 Q153 23 93 -26 Q44 -64 0 -107.5 Q-44 -151 -79 -202 Q-44 -176 -12 -147.5 Q20 -119 52 -92 Z " />
<glyph glyph-name="T" unicode="T" horiz-adv-x="202" d="M860 679 Q864 667 855 655 Q841 636 820 623.5 Q799 611 776 604 Q767 602 764.5 611 Q762 620 771 623 Q783 626 790 630 Q810 639 827 654 Q832 657 835 662 Q837 664 839 666 Q841 668 841 670 Q842 673 838.5 675 Q835 677 833 678 Q811 688 786.5 690.5 Q762 693 738 693 Q712 692 685.5 691 Q659 690 633 688 Q606 686 579 683.5 Q552 681 525 678 Q483 673 441 667 Q399 661 357 653 Q296 585 238 519 Q200 475 163.5 431.5 Q127 388 91 343 Q56 298 22 253 Q-12 208 -45 161 Q-77 114 -108.5 67.5 Q-140 21 -169 -28 Q-183 -52 -197 -76.5 Q-211 -101 -225 -126 Q-239 -152 -250.5 -178.5 Q-262 -205 -268 -234 Q-269 -239 -272.5 -240.5 Q-276 -242 -279.5 -241 Q-283 -240 -285.5 -237 Q-288 -234 -287 -229 Q-285 -222 -283.5 -215.5 Q-282 -209 -280 -202 Q-271 -173 -257.5 -146.5 Q-244 -120 -230 -94 Q-216 -69 -201.5 -45 Q-187 -21 -172 4 Q-143 52 -111 99.5 Q-79 147 -46 193 Q-12 241 23 286 Q58 331 94 376 Q130 422 167 465.5 Q204 509 242 554 Q263 577 283.5 600.5 Q304 624 325 647 Q317 645 312 644 Q259 633 207 621.5 Q155 610 102 597 Q50 583 -2 569.5 Q-54 556 -106 542 Q-113 540 -117 547 Q-121 554 -116 559 Q-100 572 -84.5 584.5 Q-69 597 -52 609 Q64 693 195 742 Q198 744 201.5 742 Q205 740 206 738 Q214 724 212 709.5 Q210 695 201 683 Q199 680 194 680.5 Q189 681 187 683 Q182 690 187 697 Q195 708 192 720 Q160 708 129 693 Q76 669 27 638.5 Q-22 608 -68 573 Q32 600 133 624 Q183 636 232.5 647 Q282 658 333 668 Q333 669 335 671 L398 725 Q405 732 411.5 725.5 Q418 719 411 712 Q406 707 401.5 701.5 Q397 696 392 691 Q389 687 385.5 683.5 Q382 680 379 676 Q476 692 577 703 Q605 705 633 707 Q661 709 690 711 Q716 712 742.5 712.5 Q769 713 795 708 Q808 706 820.5 703 Q833 700 844 694 Q856 689 860 679 Z " />
<glyph glyph-name="U" unicode="U" horiz-adv-x="407" d="M599 691 Q604 697 610.5 692 Q617 687 615 681 Q615 680 614.5 679 Q614 678 614 677 Q609 672 605.5 666.5 Q602 661 597 656 Q565 613 532.5 570.5 Q500 528 467 484 Q435 441 402.5 398.5 Q370 356 338 312 Q308 271 278 230.5 Q248 190 219 148 Q190 106 163 63.5 Q136 21 111 -24 Q105 -35 99 -45.5 Q93 -56 88 -67 Q84 -75 81 -89 Q80 -92 80 -100 Q81 -100 81 -99 Q85 -97 86 -96 Q88 -94 91 -92.5 Q94 -91 96 -89 Q101 -86 105 -82.5 Q109 -79 114 -75 Q123 -67 131.5 -59 Q140 -51 148 -42 Q155 -35 162 -42 Q169 -49 162 -56 Q158 -61 154 -65 Q150 -69 145 -74 Q136 -82 126.5 -90 Q117 -98 106 -106 Q95 -115 85 -120 Q79 -122 73 -120.5 Q67 -119 64 -113 Q61 -108 60.5 -102 Q60 -96 61 -90 Q62 -84 64 -78 Q66 -72 68 -66 Q73 -54 79 -42.5 Q85 -31 91 -19 Q117 27 145 71 Q173 115 203 158 Q233 202 264.5 244.5 Q296 287 328 330 Q361 375 394.5 419.5 Q428 464 461 509 Q464 512 466.5 515.5 Q469 519 471 522 Q450 498 428.5 474.5 Q407 451 385 427 L202 226 Q112 127 19 31 Q-26 -16 -72.5 -61.5 Q-119 -107 -168 -151 Q-179 -162 -191.5 -172 Q-204 -182 -216 -192 Q-226 -200 -235 -207 Q-244 -214 -254 -220 Q-262 -225 -269.5 -229 Q-277 -233 -285 -236 Q-291 -239 -298 -241 Q-305 -243 -313 -241 Q-324 -240 -328.5 -233 Q-333 -226 -334 -217 Q-335 -208 -332.5 -198.5 Q-330 -189 -328 -182 Q-318 -152 -303.5 -124 Q-289 -96 -273 -69 Q-241 -15 -208.5 37 Q-176 89 -141 141 Q-106 193 -70 244 Q-34 295 4 346 Q42 397 81.5 446.5 Q121 496 162 545 Q183 570 203.5 594.5 Q224 619 246 642 Q265 664 284.5 686.5 Q304 709 312 738 Q313 742 316.5 743.5 Q320 745 323.5 744.5 Q327 744 329 740.5 Q331 737 330 733 Q323 707 305 683 Q296 671 286.5 659.5 Q277 648 267 637 L225 589 Q184 542 144 493 Q65 395 -8 296 Q-45 246 -80 195.5 Q-115 145 -149 93 Q-166 67 -182 41 Q-198 15 -215 -11 Q-231 -37 -246.5 -63 Q-262 -89 -277 -116 Q-284 -129 -291 -142.5 Q-298 -156 -303 -170 Q-307 -181 -311.5 -192.5 Q-316 -204 -315 -215 L-315 -217 Q-315 -218 -314.5 -218 Q-314 -218 -314 -219 L-314 -221 L-313 -221 L-312 -222 L-310 -222 L-307 -222 L-305 -222 Q-303 -222 -302 -221.5 Q-301 -221 -300 -221 Q-297 -220 -293 -218 Q-290 -217 -289.5 -217.5 Q-289 -218 -287 -216 Q-268 -208 -251.5 -195.5 Q-235 -183 -219 -169 Q-195 -149 -172 -128 Q-149 -107 -126 -86 Q-78 -40 -32.5 6 Q13 52 58 100 Q104 148 148 196.5 Q192 245 237 294 Q283 344 328 393 Q373 442 418 492 Q463 543 508.5 592 Q554 641 599 691 Z " />
<glyph glyph-name="V" unicode="V" horiz-adv-x="315" d="M651 737 Q654 739 657.5 738 Q661 737 663 734 Q665 731 665 727.5 Q665 724 662 722 Q656 716 649.5 710.5 Q643 705 637 700 Q583 656 529.5 612.5 Q476 569 423 524 Q399 504 375 483.5 Q351 463 328 442 Q360 450 389 450 Q412 448 433.5 439.5 Q455 431 467 410 Q469 406 467.5 402.5 Q466 399 463 397 Q460 395 456 395.5 Q452 396 450 400 Q440 419 418 425 Q395 433 372 430 Q349 427 326 422 Q318 420 310.5 417.5 Q303 415 295 413 L214 341 Q163 293 114.5 245.5 Q66 198 18 148 Q-29 98 -72 47.5 Q-115 -3 -160 -54 Q-204 -104 -250 -150.5 Q-296 -197 -349 -237 Q-354 -240 -358.5 -238 Q-363 -236 -364 -232 Q-367 -217 -364 -204 Q-362 -189 -356.5 -175.5 Q-351 -162 -343 -149 Q-335 -135 -326.5 -122 Q-318 -109 -309 -95 Q-291 -68 -273 -41 Q-255 -14 -236 13 Q-199 67 -160.5 120 Q-122 173 -84 226 Q-46 280 -8 332.5 Q30 385 68 439 Q87 466 105 493 Q123 520 141 547 Q159 573 176 600.5 Q193 628 203 658 Q206 665 206 672 L206 673 Q206 674 205 674 Q200 674 194.5 672 Q189 670 184 668 Q170 661 157 654.5 Q144 648 130 640 Q104 624 78.5 606 Q53 588 30 568 Q27 565 23 565.5 Q19 566 16.5 568.5 Q14 571 13.5 575 Q13 579 17 582 Q23 587 28.5 592 Q34 597 41 602 Q66 622 92 639.5 Q118 657 147 671 Q154 675 160.5 678 Q167 681 174 685 Q181 687 187 689.5 Q193 692 201 693 Q216 695 223 683 Q228 676 226 668 Q224 660 222 653 Q212 621 194.5 593 Q177 565 158 537 Q140 509 121.5 481.5 Q103 454 83 427 Q45 372 6 318 Q-33 264 -73 209 Q-112 155 -151 100.5 Q-190 46 -228 -9 Q-247 -37 -265 -64 Q-283 -91 -301 -119 Q-310 -133 -318.5 -147 Q-327 -161 -334 -175 Q-339 -183 -342 -192 Q-345 -201 -346 -210 Q-338 -204 -335 -201 Q-284 -159 -239 -111.5 Q-194 -64 -151 -14 Q-107 37 -63 87.5 Q-19 138 29 187 Q77 237 126.5 284.5 Q176 332 227 378 Q233 384 239 389.5 Q245 395 252 401 Q243 399 233.5 397 Q224 395 215 393 Q206 393 204 398 Q200 405 205 410 Q229 429 253.5 447.5 Q278 466 302 485 Q345 518 387.5 550 Q430 582 474 613 Q518 645 562 676 Q606 707 651 737 Z M285 430 Q360 496 435 559 Q440 563 443.5 566 Q447 569 451 573 Q435 561 419.5 549.5 Q404 538 388 526 Q353 500 319 473.5 Q285 447 251 421 Q257 423 263.5 424.5 Q270 426 277 428 Q283 430 285 430 Z " />
<glyph glyph-name="W" unicode="W" horiz-adv-x="680" d="M1008 666 Q1026 654 1038 635.5 Q1050 617 1047 594 Q1045 585 1037 585 Q1034 585 1030.5 587.5 Q1027 590 1027 594 Q1030 617 1016 633 Q1002 649 982 657 Q959 665 933.5 665 Q908 665 883 666 Q866 666 849.5 666.5 Q833 667 816 667 Q814 659 812 653 Q807 638 801 624 Q795 610 789 596 Q775 568 760 541 Q745 514 729 488 Q713 460 697 433 Q681 406 664 379 Q647 352 629.5 326 Q612 300 594 274 Q558 221 520 170.5 Q482 120 441 71 Q401 23 358.5 -22 Q316 -67 268 -108 Q257 -119 245 -128.5 Q233 -138 220 -148 Q209 -157 197.5 -165 Q186 -173 173 -180 Q153 -191 130.5 -195.5 Q108 -200 88 -187 Q66 -173 61.5 -148 Q57 -123 58 -100 Q59 -75 64 -49 Q66 -36 68 -23.5 Q70 -11 74 1 Q88 58 115 108.5 Q142 159 173 208 Q205 260 240 310.5 Q275 361 311 411 Q325 430 339.5 448.5 Q354 467 368 487 Q344 463 320 439.5 Q296 416 272 392 Q230 352 190 312 Q150 272 109 231 Q68 191 28 151 Q-12 111 -52 69 Q-92 28 -131.5 -12 Q-171 -52 -211 -94 Q-231 -114 -250 -134 Q-269 -154 -288 -175 Q-297 -185 -306 -194 Q-315 -203 -326 -211 Q-336 -218 -348.5 -222 Q-361 -226 -371 -216 Q-377 -209 -377 -200 Q-377 -191 -375 -183 Q-370 -172 -365 -164 Q-361 -158 -357.5 -152.5 Q-354 -147 -350 -141 Q-335 -117 -319 -94 Q-303 -71 -286 -48 Q-252 -1 -217.5 44.5 Q-183 90 -148 137 L-13 323 Q22 370 55.5 415.5 Q89 461 123 509 Q140 532 156 555 Q172 578 189 601 Q206 626 223 647 Q227 653 231 659 Q235 665 239 670 Q241 672 242 674 Q243 676 245 678 Q238 680 230.5 678 Q223 676 217 674 Q205 671 194.5 665 Q184 659 173 653 Q162 647 152 640 Q142 633 131 625 Q93 597 60 558 Q58 555 53.5 555 Q49 555 46 558 Q43 561 43.5 565 Q44 569 46 571 Q56 583 66.5 593.5 Q77 604 88 615 Q128 650 177 678 Q187 683 198.5 688.5 Q210 694 222 696.5 Q234 699 246 697.5 Q258 696 268 688 Q272 684 270.5 679.5 Q269 675 266 672 Q263 671 259 664 Q255 658 252 655 Q248 650 244 644 Q240 638 236 633 Q203 588 171 542.5 Q139 497 106 452 Q73 406 39.5 361 Q6 316 -27 270 Q-61 224 -94 179 Q-127 134 -160 88 Q-193 43 -227 -1.5 Q-261 -46 -293 -92 Q-301 -103 -308.5 -114 Q-316 -125 -324 -137 Q-332 -148 -339 -159.5 Q-346 -171 -353 -183 Q-355 -185 -355 -187 Q-356 -187 -356 -188 L-356 -189 Q-357 -191 -357 -192 Q-357 -193 -358 -195 L-358 -198 L-358 -200 L-357 -201 L-357 -202 Q-357 -202 -355 -203 Q-352 -203 -351 -202 Q-349 -202 -347 -201 Q-345 -200 -343 -199 Q-338 -195 -333 -191.5 Q-328 -188 -323 -183 Q-313 -174 -305 -164.5 Q-297 -155 -288 -146 Q-278 -136 -268.5 -126.5 Q-259 -117 -250 -106 Q-230 -86 -211 -66 Q-192 -46 -172 -26 Q-134 15 -94.5 54.5 Q-55 94 -16 134 Q23 174 62.5 213 Q102 252 142 291 Q182 331 222 370.5 Q262 410 302 449 Q343 489 383 528 Q423 567 463 607 Q470 614 477 607 Q484 600 477 593 Q477 593 476 592 L475 591 Q466 580 457 569 Q448 558 439 547 Q403 500 367.5 453 Q332 406 297 358 Q262 310 229.5 261.5 Q197 213 167 162 Q139 115 117 65.5 Q95 16 85 -39 Q81 -62 78.5 -85 Q76 -108 79 -131 Q80 -141 83 -150.5 Q86 -160 94 -167 Q105 -178 124 -176 Q134 -176 144 -172 Q154 -168 164 -163 Q176 -156 187 -148 Q198 -140 209 -132 Q233 -114 255.5 -94 Q278 -74 300 -53 Q344 -11 383.5 33.5 Q423 78 461 126 Q499 174 534.5 223.5 Q570 273 604 324 Q639 375 670 426.5 Q701 478 732 531 Q747 557 761 583 Q775 609 786 637 Q788 645 791.5 652.5 Q795 660 797 668 L776 668 Q722 670 668.5 670.5 Q615 671 561 672 Q554 673 552 680 Q550 687 557 691 Q583 705 607 714 Q661 735 718 738 Q730 739 744.5 739.5 Q759 740 772.5 737.5 Q786 735 797 728 Q808 721 814 707 Q818 698 818 687 Q841 686 864.5 685.5 Q888 685 911 685 Q936 685 960.5 682.5 Q985 680 1008 666 Z M799 687 L799 689 Q798 701 790.5 708.5 Q783 716 772 718 Q760 721 746.5 720.5 Q733 720 721 719 Q707 718 694 716 Q681 714 667 712 Q633 704 602 691 Q624 691 645 690.5 Q666 690 688 690 L799 687 Z " />
<glyph glyph-name="X" unicode="X" horiz-adv-x="257" d="M511 727 Q519 733 525 727 Q531 721 525 714 Q508 693 490 672 Q472 651 455 630 Q453 627 448.5 627 Q444 627 441 630 Q435 636 441 643 Q442 644 442.5 645 Q443 646 444 647 Q376 590 307 528 Q262 488 218.5 447 Q175 406 132 364 Q127 353 123.5 343 Q120 333 116 322 Q90 253 64.5 185 Q39 117 15 48 Q-6 -12 -24.5 -71.5 Q-43 -131 -59 -192 Q-50 -181 -41 -170 Q-32 -159 -22 -148 Q10 -110 45 -75.5 Q80 -41 117 -8 Q149 21 184.5 49 Q220 77 264 88 Q268 89 271.5 86.5 Q275 84 275.5 80.5 Q276 77 274.5 73.5 Q273 70 269 69 Q246 64 225.5 52 Q205 40 186 26 Q169 12 153 -2 Q137 -16 121 -31 Q103 -47 85.5 -64 Q68 -81 51 -98 Q34 -115 18 -132.5 Q2 -150 -14 -168 Q-22 -178 -30 -187 Q-38 -196 -46 -206 Q-53 -214 -60 -225 Q-62 -227 -63.5 -228.5 Q-65 -230 -67 -232 Q-67 -234 -69 -234 Q-69 -235 -69.5 -236 Q-70 -237 -70 -236 Q-73 -245 -82 -242.5 Q-91 -240 -89 -231 Q-87 -223 -85 -214 Q-83 -205 -81 -197 Q-63 -126 -41 -58 Q-19 10 5 79 Q28 142 51.5 205.5 Q75 269 99 332 Q61 294 23.5 256 Q-14 218 -51 178 Q-93 133 -133.5 88 Q-174 43 -215 -5 Q-235 -28 -254 -51.5 Q-273 -75 -293 -98 Q-312 -121 -331.5 -145 Q-351 -169 -362 -198 Q-366 -208 -374 -205 Q-378 -204 -380.5 -200.5 Q-383 -197 -381 -193 Q-378 -186 -375 -179.5 Q-372 -173 -368 -166 Q-360 -152 -350.5 -139 Q-341 -126 -331 -114 L-292 -66 Q-272 -43 -252.5 -19.5 Q-233 4 -213 27 Q-172 75 -130.5 120.5 Q-89 166 -47 211 Q-7 253 33 293.5 Q73 334 115 375 Q137 435 158 495 Q179 555 197 617 Q202 633 205 649 Q208 665 211 682 Q212 689 213 696 Q214 703 213 710 Q213 715 212 717 Q212 718 211.5 719 Q211 720 211 721 Q211 721 210 723 Q209 723 209 724 L208 724 L207 724 Q206 724 205.5 724.5 Q205 725 204 725 Q203 725 202.5 724.5 Q202 724 200 724 L198 724 Q195 724 191 722 Q174 718 158 709 Q144 701 130 693 Q116 685 102 677 Q74 660 48.5 639.5 Q23 619 0 595 Q-7 589 -14 595.5 Q-21 602 -14 609 L10 633 Q32 652 55.5 668.5 Q79 685 104 701 Q120 711 136 719.5 Q152 728 169 735 Q176 738 184.5 741 Q193 744 202 744 Q211 744 218 741 Q225 738 229 729 Q235 715 233 699 Q231 683 228 668 Q225 651 221 634 Q217 617 212 600 Q197 551 180.5 502.5 Q164 454 147 406 Q189 446 230.5 484.5 Q272 523 315 561 Q363 604 412 645 Q461 686 511 727 Z " />
<glyph glyph-name="Y" unicode="Y" horiz-adv-x="327" d="M552 683 Q559 689 566 682.5 Q573 676 566 669 Q559 663 553 657 Q547 651 540 645 Q515 622 490.5 598 Q466 574 442 549 Q394 499 349 447 Q304 393 261 338 Q218 283 176 226 Q133 169 91 111.5 Q49 54 6 -4 Q-4 -17 -13.5 -30 Q-23 -43 -33 -57 Q-10 -52 12.5 -46.5 Q35 -41 58 -38 Q97 -32 138 -33.5 Q179 -35 214 -57 Q218 -59 218.5 -63 Q219 -67 217 -70 Q215 -73 211.5 -74.5 Q208 -76 204 -74 Q185 -62 164 -57.5 Q143 -53 121 -52 Q76 -51 33.5 -61 Q-9 -71 -51 -81 Q-57 -89 -63 -97 Q-69 -105 -75 -113 Q-86 -126 -96.5 -139 Q-107 -152 -118 -165 Q-128 -177 -138.5 -188.5 Q-149 -200 -162 -210 Q-176 -222 -187 -227 Q-194 -230 -201 -233 Q-208 -236 -215 -233 Q-221 -230 -224 -224.5 Q-227 -219 -227.5 -212 Q-228 -205 -227.5 -198 Q-227 -191 -227 -186 Q-225 -151 -219.5 -117 Q-214 -83 -205 -49 Q-202 -40 -193 -42.5 Q-184 -45 -186 -54 Q-188 -63 -182 -68.5 Q-176 -74 -168 -76 Q-157 -79 -144.5 -78 Q-132 -77 -121 -75 Q-106 -73 -91.5 -70 Q-77 -67 -63 -64 Q-57 -56 -54 -53 Q-34 -26 -14 1 Q6 28 26 55 Q68 112 108.5 167.5 Q149 223 191 279 Q219 316 247.5 352.5 Q276 389 305 425 Q257 379 209 334 Q161 289 113 244 L-31 109 Q-47 94 -63 79 Q-79 64 -96.5 50 Q-114 36 -133 25.5 Q-152 15 -173 9 Q-178 7 -181.5 10 Q-185 13 -185 18 Q-186 43 -175.5 65.5 Q-165 88 -154 109 Q-141 129 -129 149.5 Q-117 170 -104 190 Q-58 263 -9 333 Q40 403 92 471 Q136 528 181.5 583 Q227 638 275 692 Q260 681 246.5 669.5 Q233 658 220 645 Q213 638 206 645 Q199 652 206 659 Q231 685 259.5 705 Q288 725 320 741 Q328 745 333 738.5 Q338 732 332 726 Q266 654 203 579 Q93 447 -3 307 Q-27 272 -50 237 Q-73 202 -95 167 Q-106 149 -117 131.5 Q-128 114 -138 95 Q-147 81 -155 65 Q-163 49 -165 32 Q-146 39 -130 49.5 Q-114 60 -99 73 Q-79 90 -60.5 108 Q-42 126 -23 143 Q49 211 120.5 277.5 Q192 344 264 412 Q330 474 395 535 Q460 596 526 658 Q533 664 539 670.5 Q545 677 552 683 Z M-135 -156 Q-121 -139 -107.5 -122 Q-94 -105 -81 -88 Q-87 -90 -93.5 -90.5 Q-100 -91 -107 -93 Q-118 -95 -130 -96.5 Q-142 -98 -154 -98 Q-165 -97 -175 -94.5 Q-185 -92 -193 -84 Q-193 -86 -194 -87 Q-197 -103 -199.5 -119 Q-202 -135 -204 -152 L-207 -185 Q-208 -191 -208.5 -198.5 Q-209 -206 -208 -212 L-208 -213 Q-208 -215 -207 -215 Q-206 -214 -205 -214 Q-204 -214 -203 -213 Q-190 -208 -177 -198 Q-165 -188 -155 -177.5 Q-145 -167 -135 -156 Z " />
<glyph glyph-name="Z" unicode="Z" horiz-adv-x="382" d="M718 726 Q726 720 727.5 711 Q729 702 727 693 Q727 690 724.5 687.5 Q722 685 719 682 Q717 680 714.5 678 Q712 676 710 674 Q705 669 700 665 Q695 661 690 656 Q680 647 670.5 638.5 Q661 630 650 621 Q608 586 565.5 550.5 Q523 515 481 480 Q438 444 395.5 408.5 Q353 373 310 337 Q267 301 224.5 265.5 Q182 230 139 194 Q96 158 53.5 122.5 Q11 87 -32 52 Q-75 16 -117.5 -20 Q-160 -56 -203 -91 Q-214 -101 -225.5 -110 Q-237 -119 -248 -129 Q-246 -127 -243.5 -126.5 Q-241 -126 -239 -124 Q-209 -109 -177 -96.5 Q-145 -84 -112 -76 Q-97 -72 -82 -69.5 Q-67 -67 -52 -65 Q-40 -64 -27.5 -67 Q-15 -70 -7 -80 Q4 -91 1.5 -106 Q-1 -121 -6 -134 Q-10 -140 -13 -150 Q-14 -152 -15 -155 Q-16 -158 -16 -160 Q-12 -160 -11 -159 Q-6 -158 -2 -157.5 Q2 -157 6 -155 Q48 -146 89 -136.5 Q130 -127 172 -117 Q181 -115 184 -124 Q187 -133 177 -135 Q154 -141 131 -146.5 Q108 -152 85 -157 Q62 -162 40 -167.5 Q18 -173 -5 -178 Q-13 -180 -20.5 -179 Q-28 -178 -33 -170 Q-37 -163 -35 -155 Q-33 -147 -30 -141 Q-27 -133 -24 -126 Q-21 -119 -19 -111 Q-17 -103 -18 -100 Q-20 -96 -21 -94 Q-26 -88 -37 -86 Q-42 -84 -48 -84.5 Q-54 -85 -60 -86 Q-87 -89 -118 -97 Q-189 -117 -253 -153 Q-317 -189 -374 -234 Q-382 -240 -388 -234 Q-390 -232 -390.5 -227.5 Q-391 -223 -388 -220 Q-381 -215 -374.5 -209 Q-368 -203 -361 -198 L-145 -18 Q-91 27 -37 72 Q17 117 71 163 L287 343 L503 523 Q529 546 556 568 Q583 590 610 613 Q636 634 660.5 655 Q685 676 709 699 L709 707 L707 709 L706 709 Q705 709 705 710 Q701 712 696 712 Q691 712 686 712 Q678 710 669 707.5 Q660 705 652 703 Q642 701 632 698 Q622 695 612 692 Q539 672 467 649 Q395 626 323 601 Q250 575 177 549 Q104 523 31 496 Q27 494 23.5 496.5 Q20 499 19 503 Q17 512 26 515 Q39 520 51.5 524.5 Q64 529 77 534 Q130 553 181.5 571.5 Q233 590 286 609 Q337 627 388 643.5 Q439 660 491 677 Q517 685 542.5 692.5 Q568 700 594 707 Q606 711 618.5 714.5 Q631 718 644 721 Q655 724 665.5 726.5 Q676 729 687 731 Q695 732 703 731 Q711 730 718 726 Z " />
<glyph glyph-name="dollar" unicode="&#x24;" horiz-adv-x="207" d="M315 630 Q292 596 267.5 563 Q243 530 218 498 Q213 492 209.5 486.5 Q206 481 201 476 Q209 479 216 482 Q223 485 231 487 Q236 489 240 485.5 Q244 482 243 477 Q242 463 234.5 452 Q227 441 219 431 Q210 421 201.5 411.5 Q193 402 188 389 Q184 380 176 383 Q172 384 169.5 387.5 Q167 391 169 395 Q174 408 182.5 418.5 Q191 429 200 439 Q205 444 209.5 450 Q214 456 218 462 Q207 458 197.5 454 Q188 450 178 445 Q177 445 177 444 Q157 419 137 394 Q117 369 97 343 Q107 343 118 340 Q123 338 128.5 335 Q134 332 136 327 Q142 315 135 303 Q129 291 118.5 281.5 Q108 272 99 264 Q88 254 77 245 Q66 236 55 227 Q29 204 1.5 183 Q-26 162 -54 141 Q-74 113 -92.5 85 Q-111 57 -129 28 Q-131 24 -135 23.5 Q-139 23 -142 25 Q-145 27 -146.5 30.5 Q-148 34 -146 38 Q-135 56 -123.5 73.5 Q-112 91 -100 109 Q-112 99 -128 90 Q-135 85 -141 94 Q-146 102 -141.5 110.5 Q-137 119 -132 125 Q-127 130 -122.5 128 Q-118 126 -116 121 Q-104 129 -92 138 Q-80 147 -68 155 L-56 173 Q-4 245 52 317 Q32 312 11.5 308 Q-9 304 -29 308 Q-34 310 -35.5 315.5 Q-37 321 -33 324 Q-20 337 -6.5 348.5 Q7 360 21 371 Q88 424 164 460 Q199 505 232.5 549.5 Q266 594 298 640 Q304 648 312 643 Q315 641 316 637 Q317 633 315 630 Z M97 323 Q93 323 89 323 Q85 323 81 322 Q70 308 59 293.5 Q48 279 37 265 Q8 229 -16 194 Q-1 206 14 218 Q29 230 44 243 Q55 252 65 260.5 Q75 269 85 278 Q90 283 95 287 Q100 291 105 296 Q109 300 112.5 304 Q116 308 118 313 Q121 318 114 321 Q110 323 106 323 Q102 323 97 323 Z M123 407 Q126 411 129.5 415 Q133 419 136 424 Q98 404 63.5 379 Q29 354 -3 326 Q4 326 10.5 327 Q17 328 23 330 Q35 332 47 335 Q59 338 71 340 Q84 357 96.5 373.5 Q109 390 123 407 Z " />
<glyph glyph-name="numbersign" unicode="&#x23;" horiz-adv-x="145" d="M78 326 Q88 326 88 316 Q88 306 78 306 Q72 305 66 305 Q60 305 55 304 Q49 296 46 293 Q51 293 55 293.5 Q59 294 63 294 Q68 295 70.5 291.5 Q73 288 73 284 Q73 275 63 275 Q55 274 47 273.5 Q39 273 31 272 Q26 264 21 257 Q16 250 11 243 Q8 239 4 238.5 Q0 238 -3 239.5 Q-6 241 -7.5 244.5 Q-9 248 -6 252 L6 270 Q1 269 -3 269 Q-7 269 -11 268 Q-22 254 -33 237 Q-36 233 -40 233 Q-44 233 -47 234.5 Q-50 236 -51.5 239.5 Q-53 243 -50 247 Q-46 252 -43 256.5 Q-40 261 -37 266 Q-39 266 -40 265.5 Q-41 265 -43 265 Q-53 265 -53 275 Q-53 283 -43 285 Q-38 285 -32.5 285.5 Q-27 286 -22 287 Q-17 292 -14 298 Q-18 298 -21 297.5 Q-24 297 -28 297 Q-33 296 -35.5 299.5 Q-38 303 -38 306 Q-38 316 -28 316 L2 319 Q8 327 14 335 Q20 343 26 351 Q29 354 33.5 353.5 Q38 353 40 351 Q47 344 40 337 Q37 333 34 329 Q31 325 28 321 Q32 322 36 322 Q40 322 44 323 Q51 331 57 339.5 Q63 348 70 356 Q72 359 76.5 358.5 Q81 358 84 356 Q90 350 84 342 Q80 337 77 333.5 Q74 330 70 325 Q75 325 78 326 Z M21 290 Q23 294 29 302 Q24 301 20.5 301 Q17 301 12 300 Q10 297 8 294.5 Q6 292 4 289 Q8 289 12 289.5 Q16 290 21 290 Z " />
<glyph glyph-name="question" unicode="&#x3f;" horiz-adv-x="303" d="M471 713 Q479 701 476.5 687.5 Q474 674 468 663 Q461 649 452 636.5 Q443 624 434 612 Q423 598 412.5 585.5 Q402 573 391 560 Q346 507 298 458 Q250 408 201.5 360 Q153 312 108 261 Q20 163 -45 50 Q-50 42 -58 47 Q-66 52 -61 60 L-46 87 Q-13 141 25.5 191 Q64 241 106 288 Q151 338 198 385 Q245 432 292 480 Q315 504 337 528.5 Q359 553 381 579 Q392 591 402 603 Q412 615 422 628 Q430 639 439 651 Q448 663 453 676 Q458 689 457 696 Q453 705 448 709 Q440 715 429.5 716.5 Q419 718 408 717 Q392 716 377 711.5 Q362 707 348 701 Q322 690 299 676 Q253 647 216.5 607.5 Q180 568 150 523 Q145 515 137 520 Q129 525 134 533 Q138 538 141.5 544 Q145 550 150 556 Q182 602 222.5 641.5 Q263 681 314 707 Q328 714 342.5 720 Q357 726 372 730 Q387 735 402.5 736.5 Q418 738 433 735 Q444 733 454 728 Q464 723 471 713 Z M-87 -27 Q-85 -29 -84 -31 L-84 -34 Q-84 -38 -87 -41 Q-88 -42 -88.5 -42 Q-89 -42 -90 -43 L-94 -43 L-97 -43 Q-100 -42 -100 -41 L-102 -39 Q-103 -37 -103.5 -36.5 Q-104 -36 -105 -34 L-105 -32 Q-105 -28 -102 -25 Q-100 -23 -99 -23 Q-98 -22 -95 -22 Q-93 -22 -91 -23 Q-90 -23 -88 -25 Q-88 -25 -87 -27 Z " />
<glyph glyph-name="exclam" unicode="&#x21;" horiz-adv-x="75" d="M299 736 Q306 743 312.5 736.5 Q319 730 313 722 Q284 687 255 651 Q226 615 197 579 Q146 514 98.5 449 Q51 384 3 318 Q-44 251 -88.5 184.5 Q-133 118 -176 49 Q-181 41 -189.5 46 Q-198 51 -193 59 Q-169 97 -144.5 135 Q-120 173 -94 211 Q-48 279 -1.5 344.5 Q45 410 94 476 Q130 524 166.5 571 Q203 618 241 664 Q236 666 234.5 670.5 Q233 675 238 680 Q253 694 268.5 708 Q284 722 299 736 Z M-240 -36 Q-236 -36 -233 -39 Q-231 -40 -231 -46 L-231 -49 Q-233 -52 -233 -52 Q-235 -54 -237 -54 Q-238 -55 -240 -55 L-243 -55 Q-247 -55 -250 -52 Q-253 -51 -253 -46 Q-253 -43 -252 -42 Q-252 -41 -250 -39 Q-248 -37 -247 -37 Q-246 -36 -243 -36 L-240 -36 Z " />
<glyph glyph-name="asciitilde" unicode="&#x7e;" horiz-adv-x="153" d="M52 325 Q59 332 66 325 Q73 318 66 311 Q54 300 41.5 290.5 Q29 281 15 273 Q11 270 6.5 272 Q2 274 1 279 Q-2 287 3 295 Q-3 291 -7 285 Q-14 278 -21 285 Q-28 292 -21 299 Q-6 317 19 330 Q24 332 28 330.5 Q32 329 33 324 Q35 317 32 308 Q42 315 52 325 Z " />
<glyph glyph-name="quotedbl" unicode="&#x22;" horiz-adv-x="265" d="M276 698 Q280 696 281 692 Q282 688 280 685 Q273 676 267 667 Q261 658 254 650 Q249 641 240 646 Q237 648 236 652 Q235 656 237 659 Q244 668 250 677 Q256 686 263 695 Q269 703 276 698 Z M311 698 Q314 696 315.5 692 Q317 688 315 685 Q308 676 301.5 667 Q295 658 288 650 Q283 641 275 646 Q272 648 270.5 652 Q269 656 272 659 Q278 668 284.5 677 Q291 686 298 695 Q304 702 311 698 Z " />
<glyph glyph-name="quotesingle" unicode="&#x27;" horiz-adv-x="255" d="M271 698 Q274 696 275.5 692 Q277 688 275 685 Q268 676 261.5 667 Q255 658 248 650 Q243 641 235 646 Q232 648 230.5 652 Q229 656 232 659 Q238 668 244.5 677 Q251 686 258 695 Q264 702 271 698 Z " />
<glyph glyph-name="asciicircum" unicode="&#x5e;" horiz-adv-x="253" d="M268 695 Q273 689 270 683 Q254 656 248 622 Q246 612 236 616 Q227 617 229 628 Q231 635 232.5 641.5 Q234 648 236 656 Q231 650 227 644 Q223 638 219 631 Q217 627 213 626.5 Q209 626 206 628 Q203 630 201.5 633.5 Q200 637 202 641 Q209 651 216 660.5 Q223 670 231 678 Q234 681 238.5 686 Q243 691 248 695 Q253 699 258.5 699.5 Q264 700 268 695 Z " />
<glyph glyph-name="percent" unicode="&#x25;" horiz-adv-x="175" d="M296 554 Q304 556 307.5 549 Q311 542 304 537 Q272 513 242 487.5 Q212 462 182 436 Q130 391 81 343.5 Q32 296 -16 247 Q-51 211 -84.5 174.5 Q-118 138 -151 101 Q-121 118 -92 130 Q-89 132 -86 130.5 Q-83 129 -81 127 Q-81 125 -80 125 Q-78 126 -75 127 Q-72 128 -69 128 Q-67 130 -64 131 Q-61 132 -59 134 Q-55 136 -51.5 134.5 Q-48 133 -46 130 Q-44 127 -44.5 123 Q-45 119 -49 117 Q-51 115 -53 115 Q-53 110 -56 106.5 Q-59 103 -62 100 Q-87 77 -123 64 Q-128 62 -132 66.5 Q-136 71 -135 76 Q-134 81 -131.5 85 Q-129 89 -127 92 Q-164 73 -202 45 Q-205 43 -209 44 Q-213 45 -215 48 Q-216 49 -216 52 Q-217 56 -214 61 Q-188 90 -162.5 117.5 Q-137 145 -111 174 Q-64 225 -17 273.5 Q30 322 81 370 Q126 412 171 452 Q216 492 264 530 Q250 528 236 526 Q222 524 208 522 Q208 514 202 510 Q196 504 187 499.5 Q178 495 170 493 Q155 487 137 487 Q130 488 128 493.5 Q126 499 130 504 Q142 519 158 529 Q158 532 162 534 Q166 535 174 539 Q178 541 182 542.5 Q186 544 191 546 Q198 548 202 540 Q225 544 249 547.5 Q273 551 296 554 Z M174 517 Q172 515 171 514.5 Q170 514 168 512 Q170 514 172.5 514.5 Q175 515 178 517 L174 517 Z " />
<glyph glyph-name="at" unicode="&#x40;" horiz-adv-x="208" d="M173 404 Q174 388 168 372.5 Q162 357 153 343 Q143 329 131 317.5 Q119 306 106 295 Q91 284 75 273.5 Q59 263 39 260 Q32 260 30 268 Q17 261 9 263 Q3 265 0.5 270.5 Q-2 276 -1 281 Q1 292 9 299.5 Q17 307 25 314 Q30 317 34.5 320.5 Q39 324 44 327 Q49 330 55 332.5 Q61 335 67 333 Q78 330 78 317 Q78 315 76 311 Q81 305 75 299 Q72 297 69.5 294.5 Q67 292 64 290 Q64 290 62 288 Q65 290 67.5 291.5 Q70 293 73 295 Q79 300 85.5 304.5 Q92 309 98 314 Q110 324 121.5 336 Q133 348 141 362 Q148 373 151 387 Q155 400 152 409 Q149 415 144 417.5 Q139 420 133 419.5 Q127 419 120.5 417 Q114 415 109 413 Q78 401 54 377.5 Q30 354 11 328 Q1 314 -6.5 300.5 Q-14 287 -17 270 Q-19 258 -17.5 245 Q-16 232 -6 223 Q4 214 17 215 Q30 216 41 221 Q56 227 70 237 Q84 247 96 258 Q104 264 110.5 257.5 Q117 251 110 244 Q93 229 74 217 Q65 212 56 207 Q47 202 37 199 Q19 194 0.5 198.5 Q-18 203 -29 220 Q-38 234 -38 251.5 Q-38 269 -34 285 Q-29 304 -18.5 320.5 Q-8 337 4 352 Q17 367 30.5 381.5 Q44 396 60 408 Q74 419 91 427 Q108 435 125 438 Q133 439 141.5 438 Q150 437 157 432 Q171 423 173 404 Z M43 303 Q33 296 26 288 Q28 289 29.5 290 Q31 291 33 292 Q38 295 42.5 298.5 Q47 302 52 305 Q53 306 53 306.5 Q53 307 54 308 L54 310 Q51 308 48.5 306.5 Q46 305 43 303 Z " />
<glyph glyph-name="underscore" unicode="&#x5f;" horiz-adv-x="138" d="M27 256 Q37 256 37 246 Q37 236 27 236 L-69 236 Q-79 236 -79 246 Q-79 256 -69 256 L27 256 L27 256 Z " />
<glyph glyph-name="ampersand" unicode="&#x26;" horiz-adv-x="183" d="M352 680 Q361 675 356 666 Q342 648 329 629.5 Q316 611 302 592 Q253 525 204.5 460 Q156 395 106 329 Q104 327 104 326 Q101 323 97 323 Q93 323 89.5 326 Q86 329 87 333 Q88 343 89 352.5 Q90 362 91 373 Q91 376 90.5 380 Q90 384 88 386 Q88 388 86 388 Q86 389 84 389 Q79 389 75 387 Q70 385 65 382 Q60 379 56 375.5 Q52 372 47 369 Q33 359 20.5 349 Q8 339 -3 327 Q-4 326 -4 325 Q4 326 11.5 327 Q19 328 27 330 Q32 331 35.5 331.5 Q39 332 44 333 Q50 334 57 333 Q68 329 65 318 Q64 312 56 308 Q42 298 28 287.5 Q14 277 1 266 Q-13 255 -25.5 242.5 Q-38 230 -51 218 Q-53 216 -54 215.5 Q-55 215 -57 213 Q-55 214 -49 216 Q-18 227 9 245.5 Q36 264 67 276 Q73 278 77 272 Q83 266 79 260 Q64 239 49 218.5 Q34 198 19 177 Q-35 103 -89 30 Q-143 -43 -198 -116 Q-204 -123 -211 -119 Q-215 -117 -216 -113 Q-217 -109 -215 -106 Q-199 -86 -184 -65 Q-169 -44 -153 -24 Q-103 42 -54.5 108.5 Q-6 175 42 242 Q31 237 21.5 230.5 Q12 224 1 219 Q-7 214 -15 210 Q-23 206 -32 202 Q-38 200 -44 197.5 Q-50 195 -57 193 Q-64 191 -71 193.5 Q-78 196 -80 204 Q-82 212 -77.5 218.5 Q-73 225 -68 230 Q-60 235 -54 241.5 Q-48 248 -41 255 Q-27 269 -12 281 Q-4 288 4 294 Q12 300 20 306 Q22 307 22.5 308 Q23 309 25 310 Q22 309 19.5 308.5 Q17 308 14 308 Q9 307 4 306.5 Q-1 306 -6 306 Q-17 304 -23 309 Q-30 316 -27.5 323.5 Q-25 331 -20 337 Q-10 349 2 359 Q14 369 26.5 378.5 Q39 388 52 396 Q63 404 76 408 Q89 412 100 402 Q107 397 109 388.5 Q111 380 110 372 L110 366 Q118 377 127 389 Q136 401 145 412 Q194 478 242.5 544 Q291 610 339 676 Q345 685 352 680 Z M46 325 Q48 325 47.5 326 Q47 327 46 325 Z " />
<glyph glyph-name="parenleft" unicode="&#x28;" horiz-adv-x="90" d="M196 552 Q199 555 203 554.5 Q207 554 209.5 551 Q212 548 212.5 544.5 Q213 541 210 538 Q184 515 159.5 492 Q135 469 111 444 Q69 401 31 355 Q-7 309 -41 259 Q-74 210 -101.5 158.5 Q-129 107 -148 51 Q-151 42 -160.5 44.5 Q-170 47 -167 56 Q-146 120 -113 178 Q-84 232 -49 281 Q-14 330 25 377 Q64 425 107 468 Q150 511 196 552 Z " />
<glyph glyph-name="parenright" unicode="&#x29;" horiz-adv-x="100" d="M141 547 Q144 556 153.5 553.5 Q163 551 160 542 Q149 510 135.5 479.5 Q122 449 106 420 Q77 366 42 317 Q7 268 -32 221 Q-72 174 -114.5 130.5 Q-157 87 -203 47 Q-211 40 -217.5 47 Q-224 54 -217 60 Q-191 83 -166.5 106.5 Q-142 130 -119 154 Q-77 198 -38.5 243.5 Q0 289 34 339 Q67 388 94.5 439.5 Q122 491 141 547 Z " />
<glyph glyph-name="asterisk" unicode="&#x2a;" horiz-adv-x="175" d="M111 343 Q116 334 108 329 Q98 324 88.5 319.5 Q79 315 69 310 Q76 310 82 310.5 Q88 311 94 311 Q104 311 104 301.5 Q104 292 94 291 Q64 291 36 288 Q39 280 41.5 272.5 Q44 265 46 257 Q48 248 39 245.5 Q30 243 27 252 Q25 257 23.5 262.5 Q22 268 20 274 Q18 271 15.5 267.5 Q13 264 11 261 Q9 258 6.5 254.5 Q4 251 1 247 Q-1 243 -4 240 Q0 233 -8 229 Q-13 225 -18 228 Q-23 231 -24 236 Q-26 241 -23.5 244.5 Q-21 248 -19 252 Q-16 257 -13 261 Q-10 265 -7 269 Q-20 262 -32 255 Q-36 253 -39.5 254.5 Q-43 256 -45 259 Q-47 262 -46.5 266 Q-46 270 -42 272 Q-37 274 -33 277 Q-29 280 -24 282 Q-29 281 -34 281 Q-39 281 -44 281 Q-49 281 -51 283.5 Q-53 286 -53 290 Q-53 294 -51 297 Q-49 300 -44 300 Q-31 301 -18 302 Q-5 303 8 304 Q5 312 1.5 318.5 Q-2 325 -6 333 Q-8 337 -7 340.5 Q-6 344 -3 345.5 Q0 347 4 346.5 Q8 346 10 342 Q18 330 25 314 Q33 325 41 335 Q49 345 57 356 Q62 365 70 360 Q79 354 74 347 L59 326 Q69 331 78.5 336 Q88 341 98 346 Q108 350 111 343 Z " />
<glyph glyph-name="hyphen" unicode="&#x2d;" horiz-adv-x="98" d="M16 304 Q26 304 26 294 Q26 284 16 284 L-41 284 Q-50 284 -50 294 Q-50 304 -41 304 L16 304 L16 304 Z " />
<glyph glyph-name="equal" unicode="&#x3d;" horiz-adv-x="100" d="M26 315 Q36 315 35.5 305.5 Q35 296 26 296 L-31 296 Q-41 296 -41 305.5 Q-41 315 -31 315 L26 315 Z M4 285 Q13 285 13 275 Q13 265 4 265 L-53 265 Q-63 265 -63 275 Q-63 285 -53 285 L4 285 Z " />
<glyph glyph-name="plus" unicode="&#x2b;" horiz-adv-x="125" d="M40 304 Q50 304 50 294 Q50 284 40 284 L0 284 Q-8 273 -16.5 262 Q-25 251 -33 240 Q-38 233 -46 236 Q-49 238 -50.5 242.5 Q-52 247 -50 250 Q-43 258 -37 267 Q-31 276 -24 284 L-44 284 Q-53 284 -53 294 Q-53 304 -44 304 L-10 304 Q-2 314 4.5 323 Q11 332 18 342 Q26 350 32 346 Q40 340 35 332 Q30 325 24.5 318 Q19 311 14 304 L40 304 L40 304 Z " />
<glyph glyph-name="braceleft" unicode="&#x7b;" horiz-adv-x="118" d="M217 554 Q221 555 224 551.5 Q227 548 227 545 Q227 535 217 535 Q211 534 205 534 Q199 534 193 533 Q185 533 178 526 Q170 519 165 510.5 Q160 502 155 494 Q132 462 107.5 432.5 Q83 403 59 372 Q54 364 48 357 Q42 350 37 342 Q32 334 27 326.5 Q22 319 17 311 Q5 294 -8 285 Q-16 281 -20 280 L-20 278 Q-20 270 -24.5 263 Q-29 256 -34 249 Q-52 223 -70.5 197.5 Q-89 172 -107 146 L-143 95 Q-148 88 -152.5 81.5 Q-157 75 -162 69 L-165 63 Q-164 64 -162 64 Q-156 64 -150 64.5 Q-144 65 -138 66 Q-134 67 -131 63.5 Q-128 60 -128 56 Q-128 48 -138 46 Q-148 45 -157.5 44 Q-167 43 -177 43 Q-181 44 -185 45 Q-189 46 -191 50 Q-195 56 -189 64 Q-187 68 -185 69 L-185 70 L-182 73 Q-180 77 -177.5 80 Q-175 83 -173 87 Q-168 94 -162.5 101 Q-157 108 -152 116 Q-130 147 -111 175 Q-100 189 -90 203.5 Q-80 218 -69 233 L-48 263 Q-42 271 -40 276 L-40 277 Q-40 278 -39 279 L-40 279 Q-49 282 -47 290 Q-47 293 -44 296 Q-41 299 -38 299 Q-37 298 -35 298 Q-28 296 -21 300.5 Q-14 305 -9 310 Q-2 317 3 325.5 Q8 334 14 342 Q35 374 59.5 403.5 Q84 433 108 463 Q119 477 129.5 492.5 Q140 508 150 523 Q155 531 162 537.5 Q169 544 177 549 Q186 554 196.5 553.5 Q207 553 217 554 Z M-173 53 Q-174 53 -174 52 Q-174 51 -173 53 Z " />
<glyph glyph-name="braceright" unicode="&#x7d;" horiz-adv-x="113" d="M198 541 Q198 537 195.5 533 Q193 529 191 526 Q153 472 114.5 420 Q76 368 34 317 L35 317 Q43 317 45 309.5 Q47 302 40 299 Q32 294 24 290.5 Q16 287 9 280 Q3 274 -1 266.5 Q-5 259 -10 252 Q-31 220 -52.5 189 Q-74 158 -97 128 Q-102 120 -108 113 Q-114 106 -119 98 Q-125 90 -130.5 82.5 Q-136 75 -142 67 Q-147 61 -153.5 55.5 Q-160 50 -168 47 Q-176 44 -184 44.5 Q-192 45 -200 44 Q-210 44 -209.5 53.5 Q-209 63 -200 64 L-182 64 Q-176 64 -168 69 Q-161 74 -155.5 81 Q-150 88 -145 95 Q-123 125 -101 155 Q-79 185 -58 216 Q-47 231 -37.5 246 Q-28 261 -18 276 Q-14 282 -9.5 288 Q-5 294 1 299 Q3 301 4.5 302 Q6 303 8 304 Q4 310 9 317 Q20 331 31.5 345 Q43 359 54 373 Q93 421 130 473 Q140 486 149 499 Q158 512 166 525 Q170 529 173 535 L171 535 Q166 534 155 534 Q146 534 146 543.5 Q146 553 155 554 L176 554 Q179 554 182 554.5 Q185 555 188 553 Q196 552 198 541 Z " />
<glyph glyph-name="bracketleft" unicode="&#x5b;" horiz-adv-x="80" d="M185 553 Q190 554 192.5 550.5 Q195 547 195 543 Q195 534 185 534 Q181 533 176.5 533.5 Q172 534 168 533 Q164 532 158 526 Q152 521 147.5 514.5 Q143 508 138 501 Q116 472 97 445 Q59 394 22 343.5 Q-15 293 -53 242 Q-71 217 -89.5 192 Q-108 167 -127 142 Q-136 129 -144.5 117 Q-153 105 -162 92 Q-166 86 -170 80 Q-174 74 -178 67 Q-180 65 -180 64 Q-175 64 -165 66 Q-155 66 -155 56 Q-155 48 -165 46 Q-173 45 -180 44 Q-187 43 -195 44 Q-200 44 -203.5 46 Q-207 48 -207 53 Q-208 58 -203 65 Q-192 79 -183 94 Q-174 109 -163 124 Q-122 182 -80 238.5 Q-38 295 4 352 Q25 381 46 409.5 Q67 438 89 467 Q100 481 109.5 495.5 Q119 510 130 524 Q135 530 140.5 536 Q146 542 153 547 Q160 552 168.5 552 Q177 552 185 553 Z M-188 52 Q-189 51 -189 50.5 Q-189 50 -188 52 Z " />
<glyph glyph-name="bracketright" unicode="&#x5d;" horiz-adv-x="73" d="M164 544 Q166 536 162 528.5 Q158 521 153 515 Q141 500 129 484.5 Q117 469 105 453 Q62 397 20 340.5 Q-22 284 -64 226 Q-85 198 -105 170 Q-125 142 -145 113 Q-155 99 -164.5 84.5 Q-174 70 -185 57 Q-188 55 -190.5 52 Q-193 49 -197 47 Q-201 45 -204.5 44.5 Q-208 44 -212 44 Q-220 44 -228.5 43.5 Q-237 43 -245 43 Q-250 43 -252 45.5 Q-254 48 -254 52 Q-254 56 -252 59 Q-250 62 -245 62 Q-236 63 -227.5 63.5 Q-219 64 -211 64 Q-206 64 -202 68 Q-198 72 -192 80 Q-182 94 -172.5 108.5 Q-163 123 -152 137 Q-115 190 -77.5 241.5 Q-40 293 -1 345 Q18 371 37.5 396.5 Q57 422 77 448 Q87 461 96.5 473.5 Q106 486 117 499 Q122 506 126.5 512.5 Q131 519 136 525 Q138 527 140 529.5 Q142 532 144 535 Q140 534 132 534 Q127 534 124.5 536.5 Q122 539 122 543 Q122 547 124.5 550 Q127 553 132 553 Q140 554 150.5 554.5 Q161 555 164 544 Z " />
<glyph glyph-name="colon" unicode="&#x3a;" horiz-adv-x="83" d="M-28 274 Q-28 273 -27 272 L-28 270 Q-28 268 -29 267 L-32 264 Q-33 263 -35 263 Q-36 262 -39 262 Q-40 263 -41 263 Q-43 263 -45 265 Q-47 265 -47 267 Q-48 268 -48 271 Q-49 272 -48 275 Q-48 277 -47 277 Q-46 280 -43 281 Q-43 281 -41 282 Q-40 282 -39.5 282.5 Q-39 283 -38 283 Q-37 283 -36 282 Q-34 282 -33 281 Q-32 281 -31.5 280.5 Q-31 280 -30 280 Q-30 279 -29 278 L-29 277 Q-28 277 -28 275 L-28 274 Z M-1 307 L-1 304 Q-1 303 -2 302 Q-3 299 -6 298 Q-7 298 -7 297.5 Q-7 297 -8 297 L-12 297 L-15 297 Q-16 298 -16.5 298 Q-17 298 -18 299 L-21 302 Q-21 303 -21.5 303.5 Q-22 304 -22 305 L-22 309 Q-22 310 -21.5 310.5 Q-21 311 -21 312 L-17 316 Q-15 316 -14 317 L-11 317 L-10 317 Q-8 317 -6 316 Q-4 314 -4 314 L-2 312 Q-2 310 -1 310 L-1 307 Z " />
<glyph glyph-name="semicolon" unicode="&#x3b;" horiz-adv-x="80" d="M-39 275 Q-36 273 -35 269 Q-34 265 -36 262 Q-41 256 -45 249.5 Q-49 243 -54 236 Q-61 229 -68 233 Q-71 235 -72 239 Q-73 243 -71 246 Q-66 253 -61.5 259 Q-57 265 -52 272 Q-46 279 -39 275 Z M-5 310 Q-5 309 -4.5 309 Q-4 309 -4 308 L-4 307 Q-4 305 -5 304 Q-5 302 -6 302 Q-6 301 -9 298 Q-10 298 -11 297 L-15 297 L-16 297 L-18 297 Q-19 298 -20 298 Q-21 298 -22 299 Q-23 300 -23 300.5 Q-23 301 -24 302 Q-25 303 -25 305 L-25 309 Q-25 310 -24.5 310.5 Q-24 311 -24 312 Q-23 313 -22.5 314 Q-22 315 -20 316 L-19 316 Q-19 316 -18 317 L-17 317 L-15 317 L-13 317 Q-11 317 -9 316 Q-9 316 -7 314 Q-7 313 -6.5 313 Q-6 313 -6 312 Q-5 311 -5 310 Z " />
<glyph glyph-name="slash" unicode="&#x2f;" horiz-adv-x="155" d="M242 561 Q244 559 244.5 555 Q245 551 243 548 Q219 520 195 492.5 Q171 465 146 437 Q103 387 60 338.5 Q17 290 -25 240 Q-68 191 -110.5 142 Q-153 93 -196 44 Q-203 35 -209 40 Q-217 46 -212 53 Q-187 81 -162.5 109 Q-138 137 -114 165 Q-71 214 -29 263 Q13 312 56 361 Q99 411 141.5 459.5 Q184 508 227 558 Q236 565 242 561 Z " />
<glyph glyph-name="bar" unicode="&#x7c;" horiz-adv-x="81" d="M164 562 Q168 561 167 557.5 Q166 554 164 550 Q144 522 124.5 494.5 Q105 467 85 439 Q14 340 -54 242.5 Q-122 145 -192 46 Q-195 42 -200 40 Q-205 38 -208 39 Q-215 42 -208 51 Q-189 79 -169 106.5 Q-149 134 -129 162 Q-59 261 10 358.5 Q79 456 148 555 Q151 560 156 561.5 Q161 563 164 562 Z " />
<glyph glyph-name="backslash" unicode="&#x5c;" horiz-adv-x="305" d="M235 51 Q237 42 228 39 Q218 37 216 46 L195 157 Q186 206 176.5 255 Q167 304 158 354 Q149 403 139.5 452 Q130 501 121 550 Q119 560 128 562 Q131 563 135 561 Q139 559 140 555 L161 444 Q170 395 179 346 Q188 297 198 247 Q207 198 216.5 149.5 Q226 101 235 51 Z " />
<glyph glyph-name="less" unicode="&#x3c;" horiz-adv-x="140" d="M84 340 Q86 336 83.5 333 Q81 330 78 328 L-18 289 Q-10 280 -2.5 270.5 Q5 261 13 251 Q18 244 13 237 Q10 235 5.5 234.5 Q1 234 -1 237 Q-11 250 -20.5 262 Q-30 274 -40 286 L-40 287 Q-41 288 -41.5 289 Q-42 290 -43 291 Q-44 300 -36 303 Q-9 314 18 325 Q45 336 72 347 Q76 349 79.5 346.5 Q83 344 84 340 Z " />
<glyph glyph-name="greater" unicode="&#x3e;" horiz-adv-x="138" d="M56 301 Q63 292 54 285 Q54 285 52 284 Q25 272 -2 260 Q-29 248 -57 236 Q-66 232 -70 239 Q-72 243 -71 247 Q-70 251 -67 253 Q-42 264 -17.5 275 Q7 286 32 297 Q24 305 15.5 313.5 Q7 322 -1 331 Q-8 338 -1 345 Q6 352 12 345 L56 301 L56 301 Z " />
<glyph glyph-name="zero" unicode="0" horiz-adv-x="130" d="M117 424 Q125 412 118.5 397 Q112 382 106 371 Q99 358 91.5 345.5 Q84 333 76 322 Q62 301 44.5 281 Q27 261 7 247 Q-3 240 -15.5 234.5 Q-28 229 -39 233 Q-53 238 -54 249 Q-56 256 -53.5 262 Q-51 268 -48 274 Q-30 311 -4 342.5 Q22 374 52 402 Q52 406 56 409 Q60 411 63.5 413.5 Q67 416 70 419 Q72 421 74.5 423 Q77 425 79 427 Q87 433 93 425 Q94 426 96 426 Q98 427 101 427.5 Q104 428 106 429 Q114 431 117 424 Z M88 379 Q91 384 93.5 389.5 Q96 395 98 400 Q99 402 101 408 Q95 405 91 411 Q88 409 84 405 Q67 390 51 374.5 Q35 359 21 342 Q7 325 -5.5 308 Q-18 291 -28 271 Q-29 269 -30 266.5 Q-31 264 -33 261 Q-35 257 -35 254 Q-35 252 -32.5 251.5 Q-30 251 -28 252 Q-18 254 -9 260 Q0 266 7 272 Q24 286 38.5 304 Q53 322 65 340 Q72 350 77.5 359.5 Q83 369 88 379 Z " />
<glyph glyph-name="one" unicode="1" horiz-adv-x="83" d="M65 429 Q70 429 73.5 424 Q77 419 74 414 Q41 369 8 325.5 Q-25 282 -57 237 Q-62 228 -71 233 Q-79 239 -74 247 Q-47 284 -20 320.5 Q7 357 35 394 Q31 394 28 397 Q25 399 25 403.5 Q25 408 28 411 Q36 417 45 423 Q54 429 65 429 Z " />
<glyph glyph-name="two" unicode="2" horiz-adv-x="115" d="M96 419 Q97 415 95.5 411.5 Q94 408 92 404 Q88 397 83.5 391 Q79 385 74 378 Q64 366 53.5 354 Q43 342 32 331 L-35 264 Q-10 270 12 266 Q21 264 19 254 Q16 247 7 247 Q-12 250 -31 245.5 Q-50 241 -67 233 Q-75 230 -80 236 Q-85 242 -79 249 Q-57 270 -35.5 291 Q-14 312 8 334 Q18 344 27.5 354 Q37 364 47 375 Q51 380 55 385.5 Q59 391 63 396 L64 397 Q63 396 62.5 396 Q62 396 61 395 Q55 390 49.5 386 Q44 382 38 377 Q35 374 31 374.5 Q27 375 24.5 377.5 Q22 380 21.5 383.5 Q21 387 25 390 Q32 397 38.5 402.5 Q45 408 53 413 Q57 416 60.5 418.5 Q64 421 68 423 Q76 429 84 429 Q93 429 96 419 Z " />
<glyph glyph-name="three" unicode="3" horiz-adv-x="112" d="M99 429 Q109 425 106 417 Q104 411 100 406.5 Q96 402 92 397 L71 376 Q65 370 59 363.5 Q53 357 47 351 Q59 351 62 339 Q63 333 60.5 326.5 Q58 320 54 315 Q46 303 38 293 Q28 282 17 272 Q6 262 -5 254 Q-11 250 -17 246.5 Q-23 243 -29 240 Q-35 237 -42 233.5 Q-49 230 -56 231 Q-71 233 -71 247 Q-69 261 -56 266 Q-52 268 -48.5 265.5 Q-45 263 -44 260 Q-43 257 -44 254 Q-39 256 -35 258.5 Q-31 261 -27 264 Q-3 277 15 297 Q20 302 24 307 Q28 312 32 317 Q34 319 35.5 322 Q37 325 39 328 Q40 328 40 331 Q39 330 38 330 Q37 330 35 329 Q30 327 25 326.5 Q20 326 15 329 Q6 337 14 345 Q24 356 34 366 Q44 376 55 387 Q59 391 63 395 Q67 399 71 404 Q55 399 43 392 Q39 390 35.5 392 Q32 394 30 397 Q28 400 28.5 403.5 Q29 407 34 409 Q50 418 69 424 Q74 425 77.5 426 Q81 427 85 428 Q88 429 92 430 Q96 431 99 429 Z M-55 251 Q-54 251 -54 251 L-55 251 Z M25 346 L24 346 L25 346 L25 346 Z " />
<glyph glyph-name="four" unicode="4" horiz-adv-x="113" d="M86 408 Q91 414 98 410 Q105 406 102 399 Q101 397 101 396 Q101 395 100 394 Q98 388 94 387 Q88 379 81.5 371 Q75 363 69 355 Q73 345 62 343 Q60 343 59 342 Q39 316 21 289.5 Q3 263 -15 236 Q-18 232 -22 231.5 Q-26 231 -29 233 Q-32 235 -33.5 238.5 Q-35 242 -32 246 Q-17 269 -1.5 291.5 Q14 314 31 337 Q30 337 29 336 Q21 334 13.5 333 Q6 332 -1 338 Q-7 344 -1 352 Q16 369 33 385 Q50 401 67 418 Q67 424 72 427 Q83 432 89 423 Q94 417 88 411 Q74 397 60 384 Q46 371 32 357 Q36 358 40 358.5 Q44 359 48 360 Q58 372 67 384 Q76 396 86 408 Z " />
<glyph glyph-name="five" unicode="5" horiz-adv-x="118" d="M112 429 Q116 430 119 427 Q122 424 122 420 Q122 410 112 410 Q106 409 100 409 Q94 409 88 408 Q86 408 83 407.5 Q80 407 77 407 L71 407 L69 405 Q68 404 68 403.5 Q68 403 67 402 Q63 396 61 394 Q57 389 54 385 Q51 381 48 377 Q43 370 38 364 Q33 358 28 352 Q33 354 39 356 Q45 358 52 358 Q60 358 66.5 353 Q73 348 72 340 Q71 332 66.5 325.5 Q62 319 57 313 Q47 301 37 290 Q27 279 15 268 Q10 263 4 258 Q-2 253 -9 248 Q-14 243 -20.5 238.5 Q-27 234 -34 232 Q-42 230 -48.5 235 Q-55 240 -55 248 Q-55 256 -49.5 262.5 Q-44 269 -38 274 Q-30 280 -24 274 Q-18 268 -23 262 Q-21 264 -19 264 Q-2 278 14 294 Q30 310 44 328 Q47 332 51 338 L50 338 L46 338 Q44 337 41 336 Q38 335 36 334 Q25 329 15.5 322.5 Q6 316 -5 312 Q-13 310 -16.5 317.5 Q-20 325 -13 330 Q-15 329 -14.5 329 Q-14 329 -13 330 Q-12 331 -12 331.5 Q-12 332 -11 333 Q-7 339 -4 342 Q-1 347 2.5 351 Q6 355 10 360 Q18 369 24.5 378 Q31 387 39 397 Q42 401 45 405 Q48 409 51 413 Q58 423 67 426 Q72 427 77.5 427 Q83 427 88 428 Q94 428 100 428.5 Q106 429 112 429 Z " />
<glyph glyph-name="six" unicode="6" horiz-adv-x="111" d="M98 420 Q99 415 96.5 412 Q94 409 92 406 Q87 399 78 403 Q72 399 69 396 L51 378 Q42 368 33.5 357.5 Q25 347 17 336 Q14 333 11.5 329.5 Q9 326 6 323 Q12 325 18 326 Q24 327 29 325 Q45 320 41 304 Q39 298 34.5 292.5 Q30 287 26 282 Q7 261 -13 247 Q-18 243 -23.5 239.5 Q-29 236 -34 234 Q-43 229 -50 233 Q-53 235 -54.5 238 Q-56 241 -57 244 Q-57 251 -54 257 Q-51 263 -49 269 Q-46 275 -43 281 Q-40 287 -37 292 Q-23 316 -6.5 338 Q10 360 28 381 Q47 403 66 418 Q71 422 76 426 Q81 430 88 429 Q98 429 98 420 Z M20 308 Q3 302 -10 288 Q-23 274 -33 256 Q-21 268 -3 280.5 Q15 293 20 308 Z " />
<glyph glyph-name="seven" unicode="7" horiz-adv-x="105" d="M137 422 Q139 415 135.5 410 Q132 405 127 400 L107 380 Q72 345 39.5 308.5 Q7 272 -25 234 Q-28 231 -32.5 231.5 Q-37 232 -39 234 Q-45 240 -39 248 Q-20 271 0 293 Q20 315 40 337 Q59 359 81 381 Q86 386 91 391.5 Q96 397 101 402 Q103 404 103 404 Q84 402 71 406 Q66 407 65 410.5 Q64 414 64.5 417.5 Q65 421 68 423.5 Q71 426 76 425 Q88 421 101 423 Q114 425 125 429 Q129 431 132.5 428.5 Q136 426 137 422 Z " />
<glyph glyph-name="eight" unicode="8" horiz-adv-x="130" d="M139 426 Q146 420 143.5 413 Q141 406 136 401 Q131 395 125 389.5 Q119 384 113 379 Q100 368 87.5 356.5 Q75 345 63 334 Q65 323 62.5 311 Q60 299 54 289 Q48 278 38.5 268.5 Q29 259 18 252 Q-2 240 -24 234 Q-30 232 -36 232 Q-42 232 -48 235 Q-55 239 -55.5 246 Q-56 253 -53 260 Q-51 266 -46.5 270.5 Q-42 275 -37 280 Q-27 293 -15 305 Q6 326 29 343 Q27 345 24.5 346 Q22 347 20 349 Q13 357 17.5 364.5 Q22 372 29 377 Q43 387 57.5 395 Q72 403 87 411 Q102 420 116 425 Q121 427 127.5 428.5 Q134 430 139 426 Z M103 398 Q72 383 45 364 L39 361 Q43 359 44 359 Q46 357 48.5 355.5 Q51 354 53 352 Q66 363 79 375 Q92 387 105 399 Q105 398 103 398 Z M-37 248 Q-33 250 -36 250 Q-36 249 -37 248 Z M38 299 Q41 306 43.5 314 Q46 322 44 330 Q15 309 -10 282 L-31 258 Q-34 255 -35 253 L-35 252 L-34 252 Q-26 253 -15.5 257 Q-5 261 3 266 Q14 272 23 280 Q32 288 38 299 Z " />
<glyph glyph-name="nine" unicode="9" horiz-adv-x="110" d="M104 399 Q112 395 109 388 Q106 374 98.5 362.5 Q91 351 83 340 Q75 329 67 318.5 Q59 308 50 298 Q40 288 30.5 278.5 Q21 269 11 260 Q0 251 -10.5 243 Q-21 235 -35 231 Q-40 230 -44.5 234 Q-49 238 -47 243 Q-46 249 -41 252 Q-36 257 -30 254 Q-22 258 -14.5 264 Q-7 270 0 276 Q10 285 19 293.5 Q28 302 36 312 Q44 320 51 329 Q58 338 65 348 Q57 341 46 335 Q40 330 33.5 326.5 Q27 323 19 322 Q11 322 5 326.5 Q-1 331 -1 339 Q-2 347 2.5 354.5 Q7 362 12 368 Q17 375 22 381 Q27 387 32 393 Q38 399 44.5 404.5 Q51 410 57 415 Q64 420 71.5 424.5 Q79 429 87 429 Q95 429 100.5 422.5 Q106 416 106 408 Q106 405 104 399 Z M34 350 Q39 354 44.5 357 Q50 360 55 364 L76 382 Q70 387 77 394 Q83 400 85 404 Q87 406 87 409 L86 409 Q84 410 82 408 Q79 406 76 404.5 Q73 403 71 401 Q50 385 36 368 Q29 360 23 349 Q22 347 21 346.5 Q20 346 20 344 Q19 343 19 342 Q23 343 27 345.5 Q31 348 34 350 Z " />
<glyph glyph-name="grave" unicode="&#x60;" horiz-adv-x="268" d="M281 659 Q283 656 280.5 652.5 Q278 649 275 647 Q266 646 263 654 Q259 663 256 671.5 Q253 680 249 689 Q246 697 256 701 Q265 703 268 694 Q271 685 274.5 676.5 Q278 668 281 659 Z " />
<glyph glyph-name="comma" unicode="&#x2c;" horiz-adv-x="118" d="M-4 275 Q-1 273 0 269 Q1 265 -1 262 Q-6 256 -10 249.5 Q-14 243 -19 236 Q-26 229 -33 233 Q-36 235 -37 239 Q-38 243 -36 246 Q-31 253 -26.5 259 Q-22 265 -17 272 Q-11 279 -4 275 Z " />
<glyph glyph-name="period" unicode="&#x2e;" horiz-adv-x="113" d="M25 274 Q25 273 26 272 L25 270 Q25 268 24 267 L21 264 Q20 263 18 263 Q17 262 14 262 Q13 263 12 263 Q10 263 8 265 Q6 265 6 267 Q5 268 5 271 Q4 272 5 275 Q5 277 6 277 Q7 280 10 281 Q10 281 12 282 Q13 282 13.5 282.5 Q14 283 15 283 Q16 283 17 282 Q19 282 20 281 Q21 281 21.5 280.5 Q22 280 23 280 Q23 279 24 278 L24 277 Q25 277 25 275 L25 274 Z " />
<glyph glyph-name="quotedblleft" unicode="&#x201c;" horiz-adv-x="313" d="M276 698 Q280 696 281 692 Q282 688 280 685 Q273 676 267 667 Q261 658 254 650 Q249 641 240 646 Q237 648 236 652 Q235 656 237 659 L263 695 Q269 703 276 698 Z M311 698 Q314 696 315.5 692 Q317 688 315 685 L288 650 Q283 641 275 646 Q272 648 270.5 652 Q269 656 272 659 Q278 668 284.5 677 Q291 686 298 695 Q304 702 311 698 Z " />
<glyph glyph-name="quotedblright" unicode="&#x201d;" horiz-adv-x="313" d="M276 698 Q280 696 281 692 Q282 688 280 685 Q273 676 267 667 Q261 658 254 650 Q249 641 240 646 Q237 648 236 652 Q235 656 237 659 L263 695 Q269 703 276 698 Z M311 698 Q314 696 315.5 692 Q317 688 315 685 L288 650 Q283 641 275 646 Q272 648 270.5 652 Q269 656 272 659 Q278 668 284.5 677 Q291 686 298 695 Q304 702 311 698 Z " />
<glyph glyph-name="quoteright" unicode="&#x2019;" horiz-adv-x="287" d="M282 698 Q285 696 286.5 692 Q288 688 286 685 L259 650 Q254 641 246 646 Q243 648 241.5 652 Q240 656 243 659 Q249 668 255.5 677 Q262 686 269 695 Q275 702 282 698 Z " />
<glyph glyph-name="quoteleft" unicode="&#x2018;" horiz-adv-x="289" d="M282 698 Q285 696 286.5 692 Q288 688 286 685 L259 650 Q254 641 246 646 Q243 648 241.5 652 Q240 656 243 659 Q249 668 255.5 677 Q262 686 269 695 Q275 702 282 698 Z " />
<glyph glyph-name="b" unicode="b" horiz-adv-x="160" d="M302 738 Q308 732 302 724 Q282 699 262.5 673.5 Q243 648 223 622 Q188 577 155 530.5 Q122 484 88 438 Q69 412 50.5 385.5 Q32 359 13 332 Q21 338 29 344 Q37 350 48 352 Q56 354 64 351.5 Q72 349 76 341 Q79 334 77.5 326.5 Q76 319 72 313 Q68 305 62.5 299.5 Q57 294 52 288 Q56 290 58 292 Q83 306 108 319.5 Q133 333 159 346 Q169 350 172 342 Q174 339 173.5 335 Q173 331 169 329 Q143 316 117.5 302 Q92 288 66 274 Q41 260 16 246.5 Q-9 233 -35 222 L-36 222 Q-41 221 -45 226 Q-45 226 -46 228 Q-47 230 -47 234 Q-47 238 -42 240 Q-28 248 -14.5 257.5 Q-1 267 12 278 Q18 283 23.5 288 Q29 293 35 298 Q40 303 44.5 308 Q49 313 53 319 Q55 321 57.5 326 Q60 331 58 333 Q56 336 49.5 333 Q43 330 41 329 Q35 325 30 321 Q25 317 20 312 Q8 304 -4 292 Q-15 282 -25 271.5 Q-35 261 -43 249 Q-45 246 -50 244 Q-54 244 -56 246 Q-59 247 -60 251 Q-62 254 -60 259 Q-42 286 -23.5 313 Q-5 340 14 367 Q31 390 47.5 413.5 Q64 437 81 460 Q98 483 114.5 507 Q131 531 148 554 Q183 601 217.5 647 Q252 693 288 738 Q290 741 294.5 740.5 Q299 740 302 738 Z " />
<glyph glyph-name="c" unicode="c" horiz-adv-x="129" d="M139 343 Q142 339 140.5 334 Q139 329 136 327 Q116 318 100.5 309 Q85 300 68 289 Q52 280 37 270.5 Q22 261 7 251 Q0 246 -8 242.5 Q-16 239 -25 237 Q-30 236 -34.5 235.5 Q-39 235 -45 237 Q-51 239 -54.5 244 Q-58 249 -58 254 Q-58 259 -56.5 262.5 Q-55 266 -54 270 Q-52 274 -50.5 277.5 Q-49 281 -47 285 Q-39 302 -31 312 Q-11 340 14 358 Q18 363 24.5 357 Q31 351 29 345 Q29 335 25 327 Q21 319 16 312 Q14 307 9.5 309 Q5 311 1 315 Q-2 311 -5 307.5 Q-8 304 -12 299 Q-16 293 -19.5 287 Q-23 281 -27 274 Q-29 270 -30 267 Q-31 264 -33 260 Q-35 258 -35 255 Q-31 256 -28.5 257 Q-26 258 -23 259 Q-18 261 -13.5 264.5 Q-9 268 -4 271 Q7 278 16.5 284.5 Q26 291 37 297 Q58 311 80 323 Q102 335 125 346 Q132 350 139 343 Z " />
<glyph glyph-name="a" unicode="a" horiz-adv-x="158" d="M157 346 Q161 348 164 346.5 Q167 345 168 341 Q169 337 168 333 Q167 329 163 327 Q140 314 119 302 Q98 290 75 276 Q63 268 52.5 260.5 Q42 253 31 245 Q26 241 20 236.5 Q14 232 7 234 Q-3 236 -5 246 Q-6 249 -4 253 L-3 254 Q-3 255 -2.5 255 Q-2 255 -2 256 Q4 267 10 277 Q16 287 24 298 Q24 299 23 300 Q21 297 17.5 294.5 Q14 292 11 290 Q4 285 -1 280.5 Q-6 276 -12 271 Q-17 267 -22 263.5 Q-27 260 -32 258 Q-38 256 -44.5 258 Q-51 260 -54 267 Q-56 275 -53.5 281.5 Q-51 288 -47 293 Q-21 338 24 364 Q29 366 34 363.5 Q39 361 39 355 Q40 349 39 343 Q39 338 38 337 Q41 339 44 341.5 Q47 344 52 346 Q59 348 63 342.5 Q67 337 65 332 Q60 320 53.5 309.5 Q47 299 41 288 Q37 283 35 278.5 Q33 274 29 269 Q32 271 35 273 Q38 275 41 277 Q49 284 58.5 290 Q68 296 77 302 Q97 314 117 324.5 Q137 335 157 346 Z M14 318 Q19 322 24 325.5 Q29 329 34 333 L35 334 Q34 333 32 333 Q27 333 22 338 Q15 333 9 328 Q3 323 -2 317 Q-10 309 -16 301 Q-22 293 -29 284 Q-28 285 -27 285.5 Q-26 286 -25 287 Q-14 295 -5 302.5 Q4 310 14 318 Z " />
</font>
</svg>
