<svg width="1088" height="456" viewBox="0 0 1088 456" xmlns="http://www.w3.org/2000/svg">
  <g transform="translate(0.72226984775061, 296.40000000000003)">
    <path d="M134.40-238.56C130.08-236.64 130.08-233.28 125.28-219.36C103.20-158.40 101.28-145.44 100.32-144.48C99.36-144 84.48-143.04 70.08-139.20C57.60-136.32 13.44-121.92 14.88-108.96C15.36-105.12 18.72-102.24 22.56-102.24C24.48-102.24 26.40-103.20 28.32-104.64C35.52-110.88 78.72-126.24 94.08-126.24C95.52-126.24 95.52-127.68 93.60-119.52C84.96-88.80 64.80-4.80 62.40 27.36C61.44 40.80 67.20 46.56 72.48 46.56C75.36 46.56 78.24 45.12 79.68 41.76C83.04 34.08 68.64 44.16 108-107.52C113.76-129.12 113.28-128.64 114.24-128.64C114.72-128.64 119.52-129.12 124.32-129.60C138.24-130.56 150.24-131.04 159.84-131.04C203.52-131.04 208.80-122.40 214.56-122.40C221.76-122.40 228-132.96 212.16-140.64C200.16-146.40 179.04-147.84 159.84-147.84C138.24-147.84 119.52-145.92 119.04-146.40C118.56-147.36 138.24-204.48 144-227.04C146.40-235.68 141.60-239.04 137.28-239.04C136.32-239.04 135.36-239.04 134.40-238.56ZM286.56-264C305.28-264 323.52-263.04 324.96-258.72C325.92-254.88 328.80-252.96 332.16-252.96C335.04-252.96 337.92-254.40 339.84-258.24C342.24-263.04 340.80-268.32 335.52-271.68C326.40-278.40 308.64-281.28 286.08-281.28C192.96-281.28 17.28-233.76 16.80-233.28C12.48-231.36 10.56-227.04 11.52-223.68C12.96-219.36 15.84-217.92 19.68-217.92C22.08-217.92 25.44-218.88 28.32-219.36C36-221.28 186.72-257.76 249.60-263.04C253.44-263.04 270.24-264 286.56-264ZM309.12-187.68C304.32-187.68 298.56-185.76 291.36-180.96C256.80-157.92 236.16-86.40 277.92-78.24C279.36-77.76 281.28-77.76 282.72-77.76C305.28-77.76 341.76-109.92 358.56-126.72C365.76-133.44 366.72-140.64 352.80-144C328.32-122.88 306.72-102.24 290.40-96C288.48-95.52 286.08-95.04 284.16-95.04C279.36-95.04 275.04-96.96 273.12-100.80C270.72-107.52 273.12-125.28 273.60-125.28C273.60-125.28 275.04-124.80 276-123.84C277.92-122.88 279.84-122.40 281.76-122.40C296.16-122.40 318.24-140.64 324-159.84C327.84-172.32 323.04-187.68 309.12-187.68ZM308.16-168C308.16-158.40 289.92-138.24 282.24-138.24C281.76-138.24 281.28-138.72 280.80-138.72C280.32-139.20 279.36-139.68 279.36-139.68C279.36-140.64 283.68-147.36 287.04-152.64C297.60-167.04 307.68-170.40 308.16-170.40ZM371.52-73.92C376.80-81.60 404.64-134.40 405.12-134.40C405.60-133.92 405.12-119.52 406.08-97.92C406.56-85.92 408-65.76 419.52-62.40C420.48-62.40 421.44-61.92 422.40-61.92C436.80-61.92 444.48-89.76 452.64-114.24C464.16-149.76 487.68-194.88 495.84-206.88C501.12-215.04 501.12-218.88 497.28-222.24C495.84-223.68 493.92-224.16 492.48-224.16C476.16-224.16 442.08-138.24 435.84-118.08C431.04-103.68 424.80-86.88 424.32-86.88C421.92-86.88 423.36-159.36 420.96-166.08C419.52-169.44 415.20-172.32 411.84-172.32C404.16-172.32 400.32-161.76 381.60-127.20C372.96-111.36 364.80-96.96 364.80-97.44C364.80-99.84 370.08-160.32 370.08-160.32C371.52-165.12 367.20-168.96 362.88-168.96C361.92-168.96 360.96-168.96 360-168.48C353.76-165.60 354.72-161.76 350.88-134.88C348.96-120 347.04-94.08 347.52-82.56C347.52-74.88 348.48-63.84 358.56-63.84C363.36-63.84 368.16-68.16 371.52-73.92ZM708.96-238.56C704.64-236.64 704.64-233.28 699.84-219.36C677.76-158.40 675.84-145.44 674.88-144.48C673.92-144 659.04-143.04 644.64-139.20C632.16-136.32 588-121.92 589.44-108.96C589.92-105.12 593.28-102.24 597.12-102.24C599.04-102.24 600.96-103.20 602.88-104.64C610.08-110.88 653.28-126.24 668.64-126.24C670.08-126.24 670.08-127.68 668.16-119.52C659.52-88.80 639.36-4.80 636.96 27.36C636 40.80 641.76 46.56 647.04 46.56C649.92 46.56 652.80 45.12 654.24 41.76C657.60 34.08 643.20 44.16 682.56-107.52C688.32-129.12 687.84-128.64 688.80-128.64C689.28-128.64 694.08-129.12 698.88-129.60C712.80-130.56 724.80-131.04 734.40-131.04C778.08-131.04 783.36-122.40 789.12-122.40C796.32-122.40 802.56-132.96 786.72-140.64C774.72-146.40 753.60-147.84 734.40-147.84C712.80-147.84 694.08-145.92 693.60-146.40C693.12-147.36 712.80-204.48 718.56-227.04C720.96-235.68 716.16-239.04 711.84-239.04C710.88-239.04 709.92-239.04 708.96-238.56ZM861.12-264C879.84-264 898.08-263.04 899.52-258.72C900.48-254.88 903.36-252.96 906.72-252.96C909.60-252.96 912.48-254.40 914.40-258.24C916.80-263.04 915.36-268.32 910.08-271.68C900.96-278.40 883.20-281.28 860.64-281.28C767.52-281.28 591.84-233.76 591.36-233.28C587.04-231.36 585.12-227.04 586.08-223.68C587.52-219.36 590.40-217.92 594.24-217.92C596.64-217.92 600-218.88 602.88-219.36C610.56-221.28 761.28-257.76 824.16-263.04C828-263.04 844.80-264 861.12-264ZM883.68-187.68C878.88-187.68 873.12-185.76 865.92-180.96C831.36-157.92 810.72-86.40 852.48-78.24C853.92-77.76 855.84-77.76 857.28-77.76C879.84-77.76 916.32-109.92 933.12-126.72C940.32-133.44 941.28-140.64 927.36-144C902.88-122.88 881.28-102.24 864.96-96C863.04-95.52 860.64-95.04 858.72-95.04C853.92-95.04 849.60-96.96 847.68-100.80C845.28-107.52 847.68-125.28 848.16-125.28C848.16-125.28 849.60-124.80 850.56-123.84C852.48-122.88 854.40-122.40 856.32-122.40C870.72-122.40 892.80-140.64 898.56-159.84C902.40-172.32 897.60-187.68 883.68-187.68ZM882.72-168C882.72-158.40 864.48-138.24 856.80-138.24C856.32-138.24 855.84-138.72 855.36-138.72C854.88-139.20 853.92-139.68 853.92-139.68C853.92-140.64 858.24-147.36 861.60-152.64C872.16-167.04 882.24-170.40 882.72-170.40ZM946.08-73.92C951.36-81.60 979.20-134.40 979.68-134.40C980.16-133.92 979.68-119.52 980.64-97.92C981.12-85.92 982.56-65.76 994.08-62.40C995.04-62.40 996.00-61.92 996.96-61.92C1011.36-61.92 1019.04-89.76 1027.20-114.24C1038.72-149.76 1062.24-194.88 1070.40-206.88C1075.68-215.04 1075.68-218.88 1071.84-222.24C1070.40-223.68 1068.48-224.16 1067.04-224.16C1050.72-224.16 1016.64-138.24 1010.40-118.08C1005.60-103.68 999.36-86.88 998.88-86.88C996.48-86.88 997.92-159.36 995.52-166.08C994.08-169.44 989.76-172.32 986.40-172.32C978.72-172.32 974.88-161.76 956.16-127.20C947.52-111.36 939.36-96.96 939.36-97.44C939.36-99.84 944.64-160.32 944.64-160.32C946.08-165.12 941.76-168.96 937.44-168.96C936.48-168.96 935.52-168.96 934.56-168.48C928.32-165.60 929.28-161.76 925.44-134.88C923.52-120 921.60-94.08 922.08-82.56C922.08-74.88 923.04-63.84 933.12-63.84C937.92-63.84 942.72-68.16 946.08-73.92Z" fill="#000000"/>
  </g>
</svg>