<svg width="820" height="605" viewBox="0 0 820 605" xmlns="http://www.w3.org/2000/svg">
  <g transform="translate(11.12, 393.25)">
    <path d="M47.52 80.08C22.44 80.08 0.88 67.32 0.88 29.04C0.88-24.20 39.60-103.40 93.28-192.72C95.04-194.92 97.68-192.28 96.80-190.52C47.52-112.64 4.84-20.68 4.84 28.60C4.84 63.80 25.52 76.56 47.08 76.56C91.08 76.56 142.12 30.36 177.32-15.40C219.56-70.40 261.80-158.40 261.80-216.92C261.80-245.08 253.88-280.72 214.72-294.36C146.52-318.12 70.84-253.44 32.12-173.80C31.24-172.04 27.72-172.92 28.60-175.56C68.64-257.40 144.76-321.64 216.04-297.88C256.52-284.24 265.76-246.84 265.76-216.48C265.76-159.28 223.08-68.20 180.40-12.76C147.40 30.36 92.84 80.08 47.52 80.08ZM269.28 3.08C271.04 1.32 267.96-1.32 266.64 0C256.96 8.80 227.92 32.56 227.92 28.16C228.80 10.56 245.96 3.08 221.76-9.68C239.80-23.76 244.64-54.56 223.96-50.16C207.68-46.20 201.52-15.84 219.56-6.16C226.60-2.64 230.12 0.44 230.56 3.52C231.44 10.12 223.96 17.60 223.96 28.60C223.96 40.92 247.28 22 269.28 3.08ZM218.24-11.88C206.80-20.68 214.28-46.64 226.60-46.64C238.92-46.64 232.76-23.76 218.24-11.88ZM234.52 110.44C234.52 109.12 236.72 101.20 241.56 85.80C250.80 55.88 265.32 15.84 281.60-5.72C289.52-16.28 297.44-20.68 304.48-19.36C315.48-17.60 285.12 7.04 270.16 15.40C268.40 16.72 269.72 19.36 271.04 18.92C276.32 17.60 281.16 10.12 287.32 22C302.72 54.56 322.52 35.64 349.36 2.64C351.12 0.88 348.48-2.20 346.28 0C326.92 22.88 305.80 52.80 290.84 20.68C288.64 15.84 285.56 12.76 282.48 11.44C292.16 5.72 313.72-12.32 311.52-18.92C310.64-22 307.56-23.76 302.28-23.76C290.84-23.76 278.96-11.88 266.20 12.32C295.24-66.88 331.76-138.16 372.68-219.56C374-221.76 370.04-223.96 369.16-221.32L347.60-179.52C301.84-88.44 251.24 25.96 230.56 109.12C229.24 112.64 233.20 115.28 234.52 110.44ZM415.36 3.08C417.12 0.44 415.36-2.64 412.28 0.44C382.36 32.12 381.92 20.24 394.24-18.48C395.56-22 392.04-25.52 388.52-22C367.84-0.88 348.92 14.08 348.04 11.44C344.52 7.92 366.08-25.52 367.84-29.48C369.16-32.56 366.08-34.32 364.32-31.68C352-10.12 340.12 8.36 344.52 14.08C349.80 21.56 372.24 0.44 389.84-17.60C385.44-4.84 379.72 16.72 383.68 20.68C392.04 29.04 411.84 6.60 415.36 3.08ZM475.64 2.20C477.40-0.44 474.32-1.76 472.56 0C458.04 16.72 445.72 29.48 445.28 27.72C444.84 22 450.12 11 456.72-18.04C459.80-31.68 455.84-36.96 446.60-27.72C438.68-19.80 417.56 11.44 415.80 10.56C413.60 9.68 419.76-7.92 420.64-11C421.08-12.32 417.56-14.08 416.68-11.44C413.16 0 411.84 4.40 411.84 9.24C411.84 14.96 415.80 16.72 419.76 12.76C438.24-6.16 462.44-51.04 451.44-13.64C441.32 18.92 438.68 31.68 443.96 31.68C450.12 31.68 460.24 21.12 475.64 2.20ZM539.44 47.96C539.44 65.12 544.72 76.56 555.28 82.28C586.96 99.44 669.24 39.16 712.80-7.92C715.44-10.56 711.48-11.88 709.72-10.12C685.08 19.36 590.92 95.48 557.04 78.76C533.72 67.76 545.60 19.36 557.92-19.80C590.48-124.08 682.44-225.72 758.56-241.56C805.64-253 799.04-205.48 766.48-158.40C765.16-156.20 768.24-154 769.56-155.76L776.16-165.88C805.64-210.76 806.96-258.28 757.68-245.52C698.28-231.88 638.00-176.44 599.72-117.48C562.32-59.84 539.44 13.20 539.44 47.96ZM715.88 24.20C714.56 22.88 713.68 22.44 712.36 22.88C707.52 24.64 711.48 30.80 716.32 30.80C718.08 30.80 719.84 28.60 715.88 24.20Z" fill="#000000"/>
  </g>
</svg>