<svg width="995" height="412" viewBox="0 0 995 412" xmlns="http://www.w3.org/2000/svg">
  <g transform="translate(3.0313824383073253, 267.8)">
    <path d="M19.20-79.20C30.72-123.36 52.32-161.76 82.08-195.84C106.56-223.68 140.64-250.56 179.04-250.56C204.96-248.64 217.44-228.48 215.52-204C212.64-167.04 189.12-129.60 159.84-103.20C152.64-96.48 143.52-88.80 132.48-87.84C109.92-87.36 113.76-120.48 119.04-133.44C119.52-134.88 119.04-136.32 117.60-136.32C117.12-136.32 116.64-135.84 116.16-134.88C108.96-119.52 106.56-85.44 131.52-84C144.96-84 157.44-95.52 167.52-105.12C195.84-132.48 221.76-171.36 219.36-213.60C217.92-238.56 199.68-254.88 175.68-254.88C146.40-254.88 112.80-231.84 91.20-211.20C53.76-173.76 28.32-129.12 14.40-77.76C0.96-24.48 9.12 54.24 77.28 54.24C116.64 54.24 156.96 27.36 186.24 2.88C231.36-36.96 262.08-85.44 280.80-142.08C294.72-189.12 298.08-241.44 265.92-283.20C242.88-309.60 209.28-320.16 173.76-320.16C129.12-320.16 81.12-303.36 47.52-280.80C46.56-278.88 46.08-276.48 47.52-276.48C47.52-276.48 48.48-276.96 48.96-277.44C80.16-300 127.68-315.84 171.84-315.84C214.56-315.84 254.40-300.96 274.08-263.04C291.84-231.84 290.40-191.04 280.32-156C264.48-97.92 234.24-48 190.56-6.24C162.24 20.64 125.28 45.60 84.48 50.40L78.72 50.40C11.04 50.40 6.24-23.04 19.20-79.20ZM264.96-83.04C276.96-107.04 316.80-150.24 339.84-156.48C331.68-145.44 320.16-138.24 308.64-131.04C303.84-127.68 297.60-123.84 295.20-120C293.28-117.12 294.24-114.24 297.60-112.80C299.52-111.84 302.40-111.36 305.28-111.36C326.88-111.36 363.36-129.12 380.16-141.12C381.60-142.08 382.08-143.52 379.20-144C360.96-132.48 328.32-115.68 305.76-115.68C302.40-115.68 300-116.16 298.08-117.12C299.52-120.48 306.24-124.80 310.08-127.20C321.12-134.40 338.40-146.40 342.24-155.04C343.20-157.44 342.72-159.36 339.84-159.36C324.96-158.40 293.28-126.72 284.64-117.12C290.40-126.24 301.92-143.52 310.56-156.48C311.52-157.92 315.36-162.72 316.80-163.68C318.24-165.12 317.28-168 315.36-167.04C313.44-166.08 309.60-161.76 308.16-159.84C289.92-134.88 275.04-108.48 259.68-82.56C257.76-79.68 256.80-77.76 258.72-75.84C259.20-75.36 259.20-75.36 259.68-75.36C261.60-75.36 264-81.60 264.96-83.04ZM341.28-78.72C352.32-95.04 361.44-111.84 373.44-127.20C374.40-118.56 379.68-115.68 386.40-115.68C400.80-115.68 430.08-132 441.60-139.68C442.08-140.16 446.88-143.04 442.08-144C431.04-136.80 400.32-119.04 386.40-119.04C383.52-119.04 380.64-120 378.72-121.92C376.32-125.76 376.80-130.56 380.64-132.96C387.36-137.76 394.08-142.56 401.28-146.88C406.08-150.24 411.36-153.12 416.64-156C417.60-156.96 419.52-157.44 418.56-159.36C418.08-159.84 417.60-160.32 417.12-160.32C413.76-160.32 384.48-141.60 380.16-138.24C394.56-161.76 410.88-185.76 425.28-209.76C426.72-212.64 428.16-214.08 426.72-215.04C426.24-215.04 426.24-215.52 425.76-215.52C424.32-215.52 423.36-213.60 422.40-212.16C394.08-168.48 366.72-124.80 337.92-80.64C336.96-79.20 335.52-76.80 337.44-75.36C338.88-74.40 340.32-76.80 341.28-78.72ZM467.04-124.32C463.20-116.16 443.52-76.80 452.64-70.08C453.12-69.60 454.08-69.60 454.56-69.60C463.68-69.60 483.84-91.68 489.60-96.96C505.44-112.80 521.28-130.08 538.56-144.96C533.76-135.36 526.56-126.24 520.32-116.64C518.88-114.72 517.92-112.80 519.84-111.36C520.32-110.88 520.80-110.88 521.28-110.88C522.24-110.88 522.72-111.36 524.16-112.80C540.48-128.16 563.52-148.32 576-155.04C571.20-146.88 564.96-136.32 565.44-126.24C565.92-121.92 569.28-119.52 573.60-119.52C583.20-120 602.88-131.52 616.32-141.12C616.80-141.60 617.28-143.04 614.88-144C605.76-136.80 583.20-124.32 574.08-123.36C571.20-123.36 569.76-124.32 569.28-127.20C569.28-135.84 575.52-147.84 580.80-156.48C581.28-156.96 581.28-158.40 580.80-159.36C580.32-159.84 579.36-160.32 578.88-160.32C576.48-160.32 574.08-158.88 571.20-156.96C557.28-146.88 544.80-135.84 531.84-125.76C536.64-132.96 541.44-141.12 546.24-148.80C547.20-150.72 547.20-151.68 545.76-153.12C545.28-153.60 544.80-153.60 544.32-153.60C542.40-153.60 540.48-151.68 539.04-150.72C510.24-126.72 470.88-79.20 456.96-72.96C456.48-72.48 456-72.48 455.52-72.48C454.56-72.48 454.08-72.96 454.08-74.40C452.16-89.76 472.80-123.36 481.44-144.96C482.40-146.88 482.40-148.80 480.48-150.72C480-151.20 479.52-151.68 478.56-151.68C477.60-151.68 476.16-150.72 475.20-150.24C463.68-140.64 440.64-121.44 435.36-120.96C434.88-126.24 441.60-137.28 446.40-144.48C448.80-146.88 449.76-148.80 447.84-149.76C446.40-150.72 444.96-148.32 443.52-146.40C437.76-138.72 432-129.60 432-122.40C432-118.08 433.44-118.08 437.28-118.08C447.84-122.40 464.64-137.76 478.08-147.36C475.68-140.16 471.36-132.96 467.04-124.32ZM864-244.32C784.32-222.24 727.68-134.40 704.16-55.20C697.92-34.56 694.08-8.16 704.16 13.44C710.40 26.40 722.40 31.68 736.80 31.68C739.20 31.68 742.08 31.68 744.96 31.20C817.92 15.36 915.84-103.68 951.84-171.84C968.64-204 984.96-248.64 978.24-285.12C973.44-311.52 950.40-333.60 913.92-333.60C876.48-333.60 843.36-315.84 813.60-294.72C782.40-272.16 747.84-242.88 726.24-215.04C723.84-211.68 720-206.88 720-204C720-203.04 720.96-202.56 721.44-202.56C721.92-202.56 722.88-202.56 722.88-203.04C723.84-204.48 724.80-205.44 725.28-206.40C748.32-239.04 780.48-264.96 813.60-289.92C840.96-310.08 879.36-329.76 913.92-329.76C937.92-329.76 968.64-315.84 973.92-285.60C981.12-243.84 963.84-204 943.68-165.60C912-109.44 871.20-60.96 822.72-19.20C803.04-1.44 763.68 27.84 735.84 27.84C724.32 27.84 713.76 23.52 707.52 11.04C697.92-8.16 702.24-32.64 707.52-54.72C730.08-131.52 788.16-217.92 863.04-240C867.36-241.44 871.68-241.92 876-241.92C889.44-241.92 902.88-235.68 904.80-221.76C909.60-193.92 887.04-158.88 865.44-136.80C862.08-133.44 858.24-130.08 852.96-128.64C850.56-128.16 848.64-129.60 848.64-132C848.16-133.44 849.12-136.80 849.12-139.68C849.12-140.16 849.12-141.12 847.68-141.12C846.72-141.60 846.24-141.12 845.76-140.16C845.28-137.76 844.32-133.92 845.28-130.08C845.76-126.24 848.16-124.80 852-124.80C859.20-124.80 865.92-131.52 873.12-138.72C892.80-160.32 913.92-193.44 908.16-224.16C905.28-239.52 891.84-245.76 876.96-245.76C872.64-245.76 868.32-245.28 864-244.32ZM949.44-121.92C948-121.92 945.60-119.04 945.60-117.12C946.08-115.68 947.52-114.24 948.96-114.24C950.88-114.72 952.80-116.64 952.80-118.56C952.80-120 950.88-121.92 949.44-121.92Z" fill="#000000"/>
  </g>
</svg>