<svg width="1406" height="523" viewBox="0 0 1406 523" xmlns="http://www.w3.org/2000/svg">
  <g transform="translate(47.3582545438685, 339.95)">
    <path d="M311.52-320.76C286.88-320.32 259.60-301.84 238.04-283.80C195.80-248.16 160.60-206.36 135.52-171.16C122.76-154 112.64-137.72 105.16-124.96C97.68-112.20 93.28-103.40 91.52-96.80L91.52-94.60C91.52-90.20 95.48-86.24 99.88-86.24C103.84-86.24 107.36-88.88 108.24-92.84C108.68-94.60 113.08-104.28 120.12-116.60C127.16-128.92 136.84-144.32 149.16-161.48C173.80-195.80 208.56-236.28 249.04-270.60C268.84-287.32 297.44-303.60 311.52-303.60C315.04-303.60 317.68-303.16 319-301.84C320.76-300.52 322.52-298.76 323.84-294.80C326.04-286.88 325.60-271.04 319-246.40C301.84-183.04 265.32-115.28 223.52-58.52C181.28-2.20 133.32 43.56 93.72 63.80C63.80 79.20 36.08 84.48 16.28 80.52C-3.52 76.56-14.96 65.56-17.60 42.24C-22 2.64 5.72-58.52 43.12-114.84C80.96-171.60 128.04-223.96 159.28-249.92C161.48-251.68 162.80-253.88 162.80-256.52C162.80-261.36 158.84-265.32 154-265.32C152.24-265.32 150.04-264.44 148.72-263.12C115.28-235.40 67.76-182.16 29.04-124.52C-9.68-66.44-40.04-4.84-34.76 44C-31.24 73.04-12.32 92.40 13.20 97.24C38.28 102.52 69.52 95.48 101.64 79.20C145.20 56.76 194.04 9.68 237.16-48.40C280.28-106.48 317.24-175.56 335.28-241.56C342.76-267.96 344.08-286.44 340.12-300.08C337.92-306.68 333.96-312.40 328.68-315.92C323.84-319.44 317.68-320.76 311.52-320.76ZM348.48-93.28C346.72-97.24 342.76-99.88 337.04-99.44C331.32-99 327.36-95.92 323.40-92.84C319.44-89.32 315.48-84.92 312.40-80.08C309.32-75.24 307.12-69.96 307.12-62.92C307.12-60.28 308.44-55.88 311.08-52.80C313.72-50.16 317.24-48.40 321.20-47.96C326.48-46.64 332.20-46.64 337.04-47.08C332.64-41.80 331.76-41.36 327.36-35.20C321.20-26.40 315.92-17.60 313.72-8.80C312.40-3.96 311.96 0.88 314.60 5.72C316.80 10.56 321.64 14.08 326.92 15.84C334.40 17.60 341.88 15.84 350.24 13.20C359.04 10.12 368.72 5.72 378.84 0C399.96-11.88 423.72-29.48 447.48-49.72C449.24-51.04 450.56-53.68 450.56-55.88C450.56-60.72 446.60-64.68 441.76-64.68C440-64.68 437.80-63.80 436.48-62.48C413.60-42.68 390.28-25.96 370.48-14.96C360.80-9.68 352-5.28 344.96-3.08C337.92-0.88 332.64-0.44 331.32-0.88C330-1.32 329.12-2.64 330-4.84C331.76-9.24 335.72-17.60 341.44-25.52C352.44-41.36 367.40-56.76 367.40-56.76C368.72-58.08 369.60-60.28 369.60-62.48C369.60-67.32 365.64-71.28 361.24-71.28C359.48-71.28 358.16-70.84 356.84-69.96C356.84-69.96 346.28-65.56 333.96-65.12C342.32-70.84 345.84-75.68 348.48-81.40C349.36-83.60 350.68-88 348.48-93.28ZM525.80-225.28L525.36-224.40L387.64 28.60C387.20 29.48 386.76 31.24 386.76 32.56C386.76 36.96 390.72 40.92 395.12 40.92C397.76 40.92 400.40 39.60 402.16 37.40C402.16 37.40 427.68 3.52 471.68-35.64C472.56-31.68 473.44-27.28 475.20-23.32C480.04-14.08 491.04-7.92 504.24-7.92C522.28-7.92 549.56-17.16 601.04-49.28C603.68-50.60 605.44-53.68 605.44-56.76C605.44-61.16 601.48-65.12 596.64-65.12C595.32-65.12 593.56-64.68 592.24-63.80C541.64-32.12 515.68-25.08 504.24-25.08C495-25.08 492.80-27.28 490.60-31.24C488.84-34.76 488.40-41.80 489.72-51.04C524.04-79.64 568.04-109.56 618.20-130.24C621.28-131.56 623.48-134.64 623.48-138.16C623.48-142.56 619.52-146.52 614.68-146.52C613.80-146.52 612.48-146.08 611.60-145.64C534.16-113.96 474.76-63.80 436.04-24.64L540.76-217.36C541.64-218.24 542.08-220 542.08-221.32C542.08-224.84 539.88-227.92 536.36-229.24C535.04-229.68 532.84-230.12 530.64-229.24C528.44-228.36 526.24-226.16 525.80-225.28ZM601.92-70.40C599.28-70.40 597.08-69.52 595.32-67.76C583.88-55 575.96-44 571.56-34.76C569.80-30.36 568.04-25.96 568.04-22C568.04-17.60 569.36-11.88 573.32-8.80C578.16-5.28 583.44-4.84 589.16-5.72C594.44-6.60 600.60-8.80 607.20-12.32C616-17.16 626.56-25.96 638.44-36.52C640.20-30.80 644.16-25.52 650.32-23.32C658.68-20.24 667.92-21.56 680.24-25.52C692.12-29.48 707.52-36.96 726.88-48.40C729.52-50.16 730.84-52.80 730.84-55.88C730.84-60.72 727.32-64.24 722.48-64.24C720.72-64.24 719.40-63.80 718.08-62.92C699.16-51.92 685.08-44.88 674.96-41.80C664.40-38.28 658.24-38.72 656.04-39.16C654.72-39.60 653.40-40.92 653.40-42.68C652.96-45.32 653.84-48.84 656.04-53.68C656.48-54.56 657.36-57.20 657.36-58.52C657.36-62.92 653.84-66.88 649-66.88C646.80-66.88 644.16-66 642.84-64.24C624.36-44.44 609.40-33 598.84-27.28C593.56-24.20 589.16-22.88 586.52-22.44L585.64-22.44C585.64-23.76 586.08-25.08 587.40-27.72C590.48-34.32 597.08-44.44 608.08-56.32C609.40-57.64 610.28-59.84 610.28-62.04C610.28-66.44 606.76-70.40 601.92-70.40ZM862.84-64.68C861.08-64.68 859.76-64.68 858.44-63.80C826.76-46.64 807.40-39.60 799.04-38.28C797.72-38.28 796.40-38.28 795.96-38.28C795.96-42.24 799.48-50.60 801.68-58.08C803-61.60 804.32-65.12 802.56-70.84C801.68-73.48 799.04-76.56 795.96-77.88C792.88-79.20 790.24-79.20 787.60-78.76C778.36-77 769.12-71.72 758.56-65.12C748-58.52 737-50.60 726.88-42.68C725.56-41.80 726-41.80 724.68-40.48L746.24-79.64C746.68-80.96 747.12-82.28 747.12-83.60C747.12-88.44 743.60-92.40 738.76-92.40L738.32-92.40C735.24-91.96 732.60-90.64 731.28-87.56L687.72-9.24C687.28-7.92 686.84-6.60 686.84-5.28C686.84-0.44 690.80 3.52 695.20 3.52C697.40 3.52 699.60 2.64 700.92 1.32C700.92 1.32 717.64-13.64 737.44-29.04C747.12-36.96 758.12-44.88 767.80-50.60C774.84-55 779.68-56.76 784.08-58.96C782.32-53.24 779.24-47.08 778.80-40.04C778.36-35.20 779.24-29.04 784.08-25.08C788.48-21.12 794.64-20.68 801.68-21.56C814.88-23.32 833.80-31.24 866.80-48.84C869.44-50.16 871.20-53.24 871.20-56.32C871.20-61.16 867.24-64.68 862.84-64.68ZM1331.88-346.72C1319.56-348.04 1305.92-341.88 1289.20-332.64C1272.04-323.40 1252.24-309.76 1231.12-293.04C1188.88-259.60 1140.04-213.84 1097.80-165C1041.48-100.76 1008.04-45.76 992.20-3.08C983.84 18.48 980.32 36.96 981.20 52.80C982.08 68.64 987.36 81.84 997.48 90.20C1011.12 101.64 1029.16 103.84 1049.84 100.32C1070.08 96.80 1093.40 88 1118.92 74.36C1169.52 47.52 1229.80 3.08 1290.52-50.16C1292.28-51.48 1293.16-54.12 1293.16-56.32C1293.16-61.16 1289.64-65.12 1284.80-65.12C1282.60-65.12 1280.84-64.24 1279.08-62.92C1219.24-10.12 1159.84 33.44 1111 59.40C1086.36 72.16 1064.36 80.52 1046.76 83.60C1029.16 86.68 1016.84 84.04 1008.48 77.44C1002.76 72.16 998.80 64.24 998.36 51.92C997.48 39.60 1000.56 22.88 1008.04 3.08C1022.56-36.96 1055.56-90.64 1110.56-153.56C1152.36-201.52 1200.32-246.84 1241.68-279.40C1262.36-295.68 1281.72-308.88 1297.12-317.68C1312.52-326.04 1324.40-329.56 1329.24-329.56C1328.36-325.16 1324.84-316.36 1317.80-304.48C1304.60-280.28 1280.40-243.32 1250.04-194.04C1249.16-192.72 1248.72-190.96 1248.72-189.64C1248.72-184.80 1252.24-180.84 1257.08-180.84C1260.16-180.84 1262.80-182.60 1264.56-185.24C1294.48-234.08 1318.68-271.04 1332.76-296.12C1339.80-308.88 1344.64-318.12 1345.96-326.92C1346.84-330.88 1346.84-335.72 1344.20-340.12C1341.56-344.52 1336.28-346.72 1331.88-346.72ZM1281.28-21.56C1278.20-13.64 1282.60-7.48 1290.52-7.48C1298.00-7.48 1306.80-13.64 1309.88-21.56C1312.96-29.48 1309.00-35.64 1301.08-35.64C1293.16-35.64 1284.36-29.48 1281.28-21.56Z" fill="#000000"/>
  </g>
</svg>