<svg width="1783" height="889" viewBox="0 0 1783 889" xmlns="http://www.w3.org/2000/svg">
  <g transform="translate(-3.3599999999999994, 577.85)">
    <path d="M302.40-452.16C291.84-459.36 283.20-465.60 283.20-467.04C283.20-469.92 315.84-485.76 322.56-485.76C353.76-485.76 336.96-525.12 270.24-485.76L258.24-479.04C244.32-484.80 238.08-487.68 234.24-487.68C229.44-487.68 222.24-480.48 236.64-473.28C240.48-471.36 243.36-469.44 243.36-469.44C243.36-468.96 231.84-460.32 231.84-460.32C156.48-399.84 75.84-278.88 40.32-170.88C23.52-120.48 15.36-75.36 15.36-29.76C15.36 23.52 25.92 63.36 49.44 97.92C75.36 135.84 122.88 159.84 161.76 159.84C400.80 159.84 517.92-309.60 302.40-452.16ZM164.64 136.80C144.96 136.80 135.84 134.40 118.08 125.76C82.08 108 59.52 75.36 48.48 25.44C44.16 4.32 44.16-54.24 48.96-82.08C72-226.08 165.60-376.80 256.32-449.28C264.96-456.48 264.96-456.48 270.72-453.60C281.76-448.32 312-423.84 324-410.88C468.96-255.36 369.12 136.80 164.64 136.80ZM418.56-12C424.32-12 430.56-21.12 439.20-40.32C452.16-70.56 479.52-122.40 509.28-156C509.28-121.44 508.80-119.04 513.60-107.52C519.84-95.04 528.48-88.32 540-88.32C549.60-88.32 553.92-91.20 566.40-103.20C602.88-138.72 551.52-109.44 547.20-109.44C543.84-109.44 541.44-119.52 540-141.12C538.56-161.76 535.68-182.88 521.28-182.88C517.44-182.88 513.60-181.44 509.76-179.52C500.16-173.28 480-147.36 463.68-120C462.72-118.56 455.04-105.60 455.04-107.04C455.04-108 456-115.20 457.92-122.88C459.84-132.96 460.80-147.36 460.80-158.40C460.80-167.04 460.80-178.08 451.68-178.08C450.24-178.08 448.32-177.60 446.88-176.64C442.08-173.28 433.92-150.24 425.28-114.24C415.68-75.84 404.16-25.92 412.80-15.84C414.72-13.44 417.60-12 418.56-12ZM576-24.48C581.76-25.44 582.24-27.84 594.72-83.52C600.96-77.28 606.72-70.56 620.16-70.56C644.64-70.56 717.12-110.88 717.12-118.08C717.12-129.60 660-86.40 625.92-86.40C578.40-86.40 653.28-146.88 656.64-146.88C657.12-146.88 658.08-145.44 658.56-143.52C660.48-137.76 667.20-139.20 674.88-146.40C678.24-150.24 682.08-155.52 683.04-157.92C684.48-162.24 684.48-163.68 680.64-167.52C675.36-172.80 673.44-172.80 660-168.48C643.20-162.72 629.76-153.60 613.44-138.24C612.48-137.28 604.80-130.56 604.80-131.52C604.80-132 656.64-364.80 653.76-375.36C652.80-380.64 645.60-385.44 641.76-384C638.40-382.56 617.28-354.72 624.48-350.40C625.44-349.44 619.20-329.28 618.72-327.84C604.80-283.68 583.68-189.12 574.56-132C570.72-107.04 567.84-33.12 570.24-26.88C570.72-24.48 573.60-24.48 576-24.48ZM728.64-156C706.56-156 690.24-77.28 729.12-61.92C752.64-52.80 770.88-86.40 787.20-111.36L788.16-101.76C791.04-72.48 815.52-60.96 833.28-71.52C840.48-75.84 871.20-110.40 871.20-114.24C871.20-116.16 868.80-118.08 867.84-118.08C859.68-118.08 824.16-70.08 817.44-92.64C815.52-98.88 817.44-137.76 817.44-149.28C817.44-157.92 816.96-159.84 815.04-161.76C806.88-169.92 799.20-158.40 794.40-147.84C785.28-127.20 750.24-83.04 743.04-83.04C736.32-83.04 738.72-106.56 739.68-116.64C742.56-146.88 740.16-156 728.64-156ZM867.84-33.60C870.24-32.64 874.56-31.68 877.44-32.16C887.04-34.08 889.44-36.96 925.44-87.36C957.12-132.96 992.16-167.52 995.04-164.16C995.52-163.68 983.04-118.56 982.56-117.60C974.40-92.16 964.32-57.12 974.88-36.96C979.20-28.80 987.36-23.04 995.52-24.96C1000.80-26.88 1000.80-26.88 1002.24-40.80C1006.08-87.84 1033.44-162.72 1013.28-179.52C1009.92-182.40 1007.04-183.84 1004.16-183.84C985.92-183.84 927.36-115.68 915.84-101.76C904.80-88.80 892.32-73.92 891.84-74.40C890.88-74.88 899.04-113.28 899.04-114.24C910.08-166.56 910.08-177.12 898.56-180C897.12-180.48 896.16-180.48 894.72-180.48C884.64-180.48 877.92-168.96 867.36-135.84C858.72-108 855.36-91.68 855.36-70.08C855.36-54.72 855.84-50.40 859.68-43.68C861.60-39.36 865.44-35.04 867.84-33.60ZM1758.24-117.12C1754.40-117.12 1751.04-111.84 1740.00-90.24C1716.96-45.12 1681.44 3.36 1641.12 43.68C1471.20 214.08 1289.28 188.16 1219.20 81.60C1090.56-113.76 1377.12-464.16 1540.32-464.16C1590.24-464.16 1602.72-438.24 1602.72-394.56C1602.72-360.48 1594.56-323.52 1594.56-333.60C1594.56-344.16 1599.84-367.68 1599.84-377.76C1599.84-386.88 1586.88-393.60 1578.24-384.48C1569.12-375.36 1561.92-335.52 1565.28-316.80C1569.12-295.20 1582.56-285.12 1596.96-292.32C1626.24-306.72 1630.56-401.28 1623.36-427.68C1573.92-615.84 1152.48-327.84 1152.48-33.12C1152.48-14.88 1153.44 2.40 1155.84 13.44C1191.84 209.28 1438.08 265.92 1635.84 77.76C1712.16 5.28 1777.92-117.12 1758.24-117.12ZM1760.64-53.76C1767.84-53.76 1773.60-60.96 1773.60-69.60C1773.60-78.24 1771.20-82.08 1764.00-82.08C1748.16-82.08 1741.92-53.76 1760.64-53.76Z" fill="#000000"/>
  </g>
</svg>