<svg width="954" height="456" viewBox="0 0 954 456" xmlns="http://www.w3.org/2000/svg">
  <g transform="translate(10.944417301930306, 296.40000000000003)">
    <path d="M215.04-188.16C221.76-246.24 192.48-276.96 153.60-276.96C89.76-276.96 21.12-193.44 4.80-138.24C-6.24-100.32 8.64-68.64 29.76-59.04C32.64-57.60 32.16-59.04 31.68-53.76C26.88 7.68 53.76 31.68 80.64 31.68C85.92 31.68 91.20 30.72 96.48 28.80C158.40 6.72 207.84-120.48 215.04-188.16ZM132.96-159.84C128.64-157.44 128.64-154.08 116.16-135.36C89.76-95.52 78.24-83.04 61.92-76.32C58.08-74.88 52.80-73.44 52.32-73.92C52.32-73.92 57.12-112.32 90.24-168C101.28-186.72 104.64-193.92 108.96-200.16C111.84-204.48 112.32-206.40 111.36-208.80C109.92-212.16 107.04-214.08 104.16-214.08C102.24-214.08 100.32-213.12 98.40-211.68C95.04-207.84 57.60-154.08 42.72-106.08C35.52-83.04 36-76.32 34.56-76.32C34.08-76.32 33.12-77.28 31.68-78.72C-16.32-122.40 75.36-245.28 141.12-257.76C146.40-258.72 150.72-259.20 155.04-259.20C230.40-259.20 193.92-122.40 147.84-45.12C130.08-16.32 102.24 14.40 79.68 14.40C70.56 14.40 62.40 9.60 56.16-1.92C46.08-20.64 48.96-54.72 49.44-55.20C50.88-56.64 72.96-56.16 96.48-80.16C108-91.68 142.08-140.16 144-150.72C144.96-156.48 141.60-160.80 136.80-160.80C135.36-160.80 134.40-160.32 132.96-159.84ZM292.80-176.64C291.36-181.92 287.52-185.28 282.72-185.28C281.28-185.28 279.84-184.80 278.40-184.32C253.44-177.12 232.80-122.88 231.36-122.88C230.88-122.88 231.84-127.68 235.20-140.16C240.96-165.12 242.88-175.20 245.28-179.04C249.12-185.28 244.80-190.56 239.04-190.56C238.08-190.56 236.64-190.56 235.68-190.08C230.88-188.16 229.44-185.28 222.24-159.36C218.88-146.88 197.76-60 203.04-49.44C204.48-46.08 207.36-44.16 210.72-44.16C212.64-44.16 215.04-44.64 216.96-46.56C222.72-50.88 225.60-67.68 237.60-96C252.48-130.56 275.04-166.08 276.96-163.20C277.44-161.76 277.44-137.28 283.68-129.60C286.08-126.72 288.48-125.76 290.88-125.76C297.12-125.76 302.40-132.48 298.08-138.72C293.28-146.40 294.72-170.40 292.80-176.64ZM292.80-94.56C291.36-91.20 292.32-86.40 295.20-84.48L296.64-83.04C294.24-70.56 293.76-69.60 294.24-66.24C295.20-61.44 299.04-58.56 302.88-58.56C305.28-58.56 308.16-60 309.60-62.88C311.04-65.28 313.92-86.40 315.36-87.84C324.96-94.08 381.12-107.04 405.60-107.04C407.52-107.04 409.92-107.04 411.36-106.56L413.76-106.56C422.88-106.56 424.32-115.68 418.56-120.48C415.68-123.36 409.92-124.32 402.24-124.32C373.44-124.32 321.12-108.48 321.12-108.48C318.72-110.88 376.80-193.92 390.72-193.92C392.64-193.44 395.04-194.88 396.48-196.80C400.80-201.60 396.48-209.28 388.32-209.28C386.40-209.28 384-208.80 381.12-207.36C357.12-195.84 330.72-153.60 329.76-154.56C329.28-155.04 348-232.80 350.40-244.32C353.28-257.76 355.68-261.12 353.28-264.48C351.36-266.88 348.96-267.84 346.56-267.84C345.12-267.84 343.68-267.36 342.24-266.40C333.12-259.20 305.28-115.68 300.48-107.52C297.60-102.72 293.28-96.96 292.80-94.56ZM403.20-81.60C405.12-80.64 407.52-80.16 409.44-80.16C416.64-80.16 424.80-86.40 437.28-101.76C451.20-118.56 457.92-130.56 458.40-130.08C458.88-129.60 442.08-59.52 467.52-52.32C468.96-51.84 470.40-51.84 471.84-51.84C494.40-51.84 517.92-109.44 526.56-131.04C530.40-140.16 524.64-143.04 514.56-144C510.72-135.84 506.40-127.20 502.08-117.60C488.64-88.32 473.76-68.16 472.32-70.56C471.36-72.48 470.88-78.24 470.88-86.88C470.88-112.32 478.56-135.84 479.04-152.16C479.52-159.36 478.56-161.76 476.16-164.64C473.76-167.04 471.84-168 469.92-168C460.32-168 450.24-146.88 432-122.88C426.24-114.72 413.76-100.32 412.80-100.32C412.32-100.32 410.88-116.64 421.44-152.64C425.28-166.08 427.20-172.80 427.68-174.24C430.08-180 425.76-185.28 420.96-185.28C418.08-185.28 415.68-183.84 413.76-180.48C404.16-161.76 383.52-91.68 403.20-81.60ZM507.84-66.72C518.88-66.72 515.52-76.80 523.20-109.44C525.12-119.04 547.20-151.68 571.20-170.40C569.28-135.36 548.64-94.56 559.20-69.12C562.08-62.40 566.40-58.08 573.60-58.08C585.12-58.08 593.28-67.20 600.48-74.88C612-88.32 641.28-127.68 642.24-129.60C647.52-137.28 646.08-142.56 633.12-144C590.88-88.80 579.36-75.84 575.52-75.84C574.08-75.84 574.08-78.24 573.60-80.64C569.76-105.60 596.64-159.84 585.12-181.44C582.72-186.24 577.92-189.12 572.64-189.12C568.32-189.12 564-187.20 556.80-181.44C552.48-177.60 540.96-166.08 537.12-162.24C536.16-160.80 535.68-160.32 535.20-160.32C534.24-160.32 538.56-168.48 535.68-172.80C534.24-175.20 532.32-176.64 529.92-176.64C527.52-176.64 525.12-175.68 523.68-173.28C518.88-167.52 497.76-84 500.16-73.92C500.64-70.08 504.48-66.72 507.84-66.72ZM913.44-144C913.44-144 840.96-41.76 829.92-28.80C817.44-12.96 783.36 25.44 761.76 25.44C735.84 25.44 727.20-19.68 726.24-39.36C722.40-125.76 788.16-242.40 829.92-260.64C833.28-262.08 836.64-262.56 840.00-262.56C846.24-262.56 852.00-260.16 854.40-255.36C858.72-246.24 856.32-219.84 846.24-198.24C836.64-178.08 832.32-177.60 832.80-171.84C833.28-168.96 835.20-166.56 838.56-166.08L839.52-166.08C855.36-166.08 889.92-242.88 864.96-269.76C857.76-277.44 849.60-280.80 840.96-280.80C788.16-280.80 713.28-150.72 708.96-56.16C706.08 1.92 730.08 41.28 761.28 42.24C791.52 42.24 824.16 4.80 841.92-16.32C851.52-27.36 893.76-85.92 920.16-122.88C930.24-137.76 927.84-141.60 913.44-144ZM918.72-96C913.92-96 909.12-94.08 906.72-90.24C902.40-83.52 905.28-72.48 913.92-69.60C914.88-69.12 915.84-69.12 916.80-69.12C925.44-69.12 930.72-75.36 930.72-83.52C930.72-92.64 924.96-96 918.72-96Z" fill="#000000"/>
  </g>
</svg>