<svg width="1360" height="889" viewBox="0 0 1360 889" xmlns="http://www.w3.org/2000/svg">
  <g transform="translate(6.443128419472074, 577.85)">
    <path d="M342.68-284.96C338-298.48 332.28-305.76 320.84-316.68C308.88-328.12 289.64-338 272.48-342.68C240.24-350.48 194.48-348.40 146.12-336.44C136.24-333.84 127.92-331.76 127.40-332.28C126.88-332.80 138.32-369.72 149.24-403.52C159.64-434.72 163.80-451.36 162.76-455C161.72-458.12 156-459.68 153.40-457.08C152.36-456.04 149.24-445.64 146.12-433.68C140.92-414.44 116.48-333.84 113.88-329.16C113.36-328.12 102.96-323.96 90.48-319.28C43.16-302.12 9.36-287.56 6.24-282.36C5.20-280.80 5.20-279.76 7.28-278.20C10.92-275.60 15.60-276.12 15.08-279.24C14.56-281.84 24.96-286.52 53.56-297.44C87.36-310.44 111.28-318.24 110.76-316.68C105.56-303.16 83.20-213.20 80.60-195L78.52-185.64C76.96-180.44 71.24-143.52 69.68-133.12C66.56-108.16 66.04-99.32 65.52-76.44C63.44-10.92 74.36 26.52 98.80 37.44C110.76 42.64 127.40 40.56 146.12 30.68C198.64 2.60 290.68-106.60 328.64-186.68C348.92-228.28 353.08-257.92 342.68-284.96ZM334.36-226.72C319.28-173.16 265.20-91.52 199.68-25.48C167.96 6.76 146.12 23.40 127.92 30.68C108.16 37.96 96.72 33.28 87.88 15.08C80.08-2.08 76.96-21.84 76.96-58.24C76.96-100.88 82.16-143 94.12-201.76C102.96-244.40 122.20-319.28 125.32-321.88C130-325.52 175.76-335.92 201.76-339.04C272.48-347.88 322.40-325 335.92-278.20C339.04-267.80 338-240.76 334.36-226.72ZM351-86.32C351.52-84.76 353.08-84.24 354.64-84.24C356.72-84.24 357.76-85.28 358.28-88.40C358.80-91 360.36-100.88 361.40-110.24C362.96-120.12 365.56-130.52 366.60-134.16C372.32-151.32 385.84-169 398.32-175.24C407.68-179.92 412.36-179.92 414.96-174.72C416-172.12 418.08-170.56 419.64-170.56C421.72-170.56 422.24-171.08 420.68-174.72C418.60-180.44 414.96-182.52 406.64-182.52C397.28-182.52 387.40-177.84 378.04-168.48C369.72-159.64 370.24-158.08 376.48-184.08C378.56-192.40 380.64-200.72 380.64-202.28C380.64-208 372.32-208 371.28-202.80C371.28-201.76 370.24-198.64 369.20-195.52C360.88-173.16 347.88-94.12 351-86.32ZM635.44-165.36C633.88-165.36 619.84-152.36 603.72-136.76C550.68-84.24 525.20-67.08 507-72.28C498.16-74.88 487.76-84.76 481.52-96.20C476.32-106.60 473.72-115.44 463.84-153.40C463.32-155.48 465.40-156 483.60-156.52C505.44-157.04 516.88-159.12 534.56-166.40C552.24-173.16 558.48-179.92 555.88-188.24C554.84-189.80 552.24-192.92 549.64-194.48C542.88-198.12 523.12-197.08 508.56-191.88C495.04-187.72 469.56-175.24 458.12-167.96C453.44-165.36 449.28-162.76 449.28-162.76C448.76-162.76 450.84-166.92 453.96-172.12C465.92-191.88 490.36-245.44 499.20-272.48C504.92-288.60 507-306.80 503.36-309.92C498.68-313.56 495.56-313.04 490.88-308.36C485.68-303.16 469.04-269.88 456.56-240.76C448.76-222.56 433.68-178.88 430.04-162.76C426.92-150.28 425.88-147.68 417.04-136.24C413.40-131.56 410.80-126.88 411.32-126.36C412.36-124.28 417.56-124.80 419.64-126.88C421.20-127.92 421.20-127.40 420.68-124.28C416-101.40 410.80-52.52 409.24-22.88C408.72-3.12 408.72-1.56 411.32 0C417.04 4.68 417.04 4.16 421.20-47.32C424.84-91.52 427.96-113.36 432.12-133.12C433.16-138.84 434.72-140.40 442.52-146.64C450.32-152.88 455-156 455-154.44C455-150.28 468.52-105.56 472.16-98.28C481.52-78.52 498.68-65.52 515.32-65.52C530.92-65.52 541.84-70.72 566.28-89.96C578.76-99.84 623.48-143.52 634.40-157.04C639.08-162.76 639.60-165.36 635.44-165.36ZM486.72-174.20C526.76-193.44 553.80-197.08 545.48-181.48C542.36-175.76 518.96-166.40 499.72-163.28C492.44-162.24 481.52-161.72 475.28-161.72C464.36-161.72 463.84-161.72 466.44-163.80ZM443.04-178.36C443.04-180.44 447.20-194.48 448.76-196.56C449.28-197.08 449.80-198.12 449.28-198.12C448.24-198.12 455-216.32 463.84-238.68C471.64-257.40 492.96-300.04 494-299C495.04-297.96 487.76-274.04 482.56-261.04C474.76-240.76 463.84-216.84 456.04-200.72C447.72-185.12 443.04-176.28 443.04-178.36ZM706.68-39.52C717.08-33.28 728.52-42.64 745.16-70.72C752.96-83.72 791.44-158.08 791.44-159.64C791.44-160.16 790.40-160.68 788.84-160.68C786.24-160.68 781.56-153.40 764.40-120.64C749.32-92.04 736.84-70.20 729.04-59.28C717.60-42.12 712.40-39.52 707.72-47.32C700.44-59.28 698.88-84.76 701.48-144.04C702.52-170.04 702.52-172.64 700.44-174.72C698.88-175.76 696.80-176.80 696.28-176.80C691.60-176.80 689-172.64 663-122.20C652.08-100.36 641.68-83.20 638.56-81.64C635.96-79.56 634.40-88.40 634.40-109.20C634.40-120.64 635.44-137.28 636.48-145.60C638.56-163.80 638.04-165.88 633.88-165.88C629.20-165.88 627.12-160.16 624.52-140.40C622.96-128.44 622.44-118.56 622.96-107.12C624-82.68 627.12-75.40 637-75.40C646.88-75.40 651.56-82.16 671.32-121.68L689-156.52L693.68-165.36L693.68-115.44C693.16-67.08 693.68-65 696.28-56.16C699.40-46.28 702-42.12 706.68-39.52ZM775.84-73.84C781.04-71.76 782.60-73.32 787.28-87.88C793-104 803.40-127.40 809.64-137.28C814.32-145.60 824.20-155.48 827.32-155.48C829.92-155.48 831.48-152.88 837.20-136.24C847.08-107.12 854.88-95.68 866.84-92.04C873.60-89.96 880.88-91.52 888.68-97.24C893.88-101.40 933.40-150.28 937.56-158.08C939.12-160.16 938.60-161.20 936.52-161.72C933.92-162.76 932.36-161.20 904.28-127.40C883.48-102.44 877.76-97.24 872.04-97.24C863.72-97.24 853.84-113.36 844.48-142.48C840.84-153.40 834.60-160.68 829.40-160.68C817.96-160.68 807.04-149.24 795.60-126.36C790.92-117.52 787.80-111.28 787.80-112.84C787.80-114.40 788.84-125.32 790.40-137.28C794.04-165.36 793.52-168.48 790.40-169.52C788.84-170.04 786.76-170.04 785.72-169.52C784.16-167.44 780-141.96 776.88-112.32C773.76-84.76 773.24-74.88 775.84-73.84ZM1133.08 41.60C1138.80 43.68 1143.48 44.20 1151.80 43.68C1161.68 43.16 1164.28 42.64 1174.68 37.44C1184.04 32.76 1188.72 29.12 1198.08 20.28C1214.72 3.12 1223.56-8.32 1265.68-73.32C1289.08-109.72 1315.60-148.20 1320.28-152.88C1323.92-156.52 1323.92-157.56 1322.36-158.60C1319.24-160.68 1317.16-160.16 1311.96-154.96C1305.20-149.24 1272.44-103.48 1237.60-50.96C1199.64 5.72 1188.72 19.24 1171.56 30.16C1150.76 43.68 1131 40.04 1111.76 19.76C1097.72 4.68 1088.88-17.16 1082.64-48.88C1080.56-62.40 1080.04-69.68 1079.52-99.32C1079.52-136.24 1081.60-156 1087.84-191.36C1100.84-263.64 1130.48-343.72 1152.32-366.60C1158.56-372.84 1160.12-373.36 1162.72-369.20C1168.96-356.72 1171.56-337.48 1174.16-284.44C1177.80-212.16 1180.40-194.48 1187.68-191.88C1191.32-190.32 1192.36-191.88 1191.84-198.12C1191.32-206.44 1188.72-251.68 1187.16-287.04C1184.56-344.76 1179.36-369.20 1167.92-375.96C1152.84-385.32 1138.28-372.32 1119.56-332.28C1095.64-282.36 1076.92-211.64 1070.16-148.72C1067.04-119.08 1068.08-67.60 1072.24-47.32C1082.12 3.12 1101.36 31.20 1133.08 41.60ZM1331.72-1.56C1333.80 1.04 1340.04 0.52 1339.00-2.08C1338.48-3.12 1339.00-6.76 1339.52-10.40C1341.08-15.60 1341.08-16.64 1339.52-17.68C1335.88-19.76 1331.72-19.24 1330.16-15.60C1329.12-11.96 1329.64-4.16 1331.72-1.56Z" fill="#000000"/>
  </g>
</svg>