<svg width="1725" height="624" viewBox="0 0 1725 624" xmlns="http://www.w3.org/2000/svg">
  <g transform="translate(-12.00001114348472, 405.6)">
    <path d="M142.00-3.21C142.84 17.40 146.60 38.80 161.05 53.13C200.53 92.27 264.77 50.11 297.48 23.20C345.84-16.58 381.95-69.29 411.77-123.82C441.74-178.62 471.14-240.51 461.20-304.67C452.37-361.64 412.36-406.05 355.22-417.03C294.44-428.72 234.76-405.35 186.15-369.85C135.37-332.75 92.33-284.31 61.19-229.70C31.86-178.27 3.96-105.46 43.75-51.77C66.92-20.50 103.83-7.83 142.00-3.21ZM59.42-193.67C82.87-243.59 116.54-288.52 156.85-326.07C197.06-363.52 246.59-397.42 302.50-403.95C358.27-410.47 414.95-388.33 437.46-334.16C460.31-279.21 442.43-219.50 417.89-168.48C394.67-120.21 366.98-72.72 331.97-32.00C314.35-11.49 294.70 7.50 272.77 23.38C252.42 38.12 228.86 52.18 203.01 52.91C168.64 53.87 159.72 26.33 157.58-1.74C174.82-0.56 191.98-0.72 207.91-1.26C217.60-1.59 217.64-16.68 207.91-16.35C191.79-15.80 174.40-15.48 157.01-16.67C156.64-45.15 160.10-73.55 167.16-101.15C182.29-160.26 213.27-214.03 255.74-257.68C262.52-264.65 251.86-275.33 245.07-268.36C202.51-224.62 170.83-170.97 154.45-112.07C146.65-84.03 142.33-54.88 141.88-25.77C141.84-23.29 141.81-20.73 141.79-18.14C114.57-21.58 88.31-29.69 68.04-47.53C25.07-85.35 37.93-147.94 59.42-193.67ZM594.18-133.25C583.09-125.84 571.50-119.35 559.04-114.53C552.37-111.94 544.93-106.14 541.73-114.51C540.49-117.77 545.31-127.91 546.37-131.85C549.38-143.11 553.18-166.13 532.67-160.09C523.59-157.41 516.17-147.44 509.79-141.02C501.05-132.22 492.67-123.09 484.64-113.63C477.65-105.39 471.00-96.89 464.58-88.21C475.43-116.44 489.18-143.38 505.83-168.88C510.54-176.09 499.90-184.15 493.98-178.03C492.74-176.74 491.49-175.45 490.24-174.16C488.69-172.56 488.09-170.77 488.12-169.03C466.58-134.56 449.96-97.51 438.58-58.43C437.71-55.46 438.60-53.03 440.29-51.40C439.05-44.37 449.82-39.21 454.38-46.51C468.12-68.54 483.38-89.49 500.51-109.00C507.52-116.99 514.80-124.73 522.33-132.23C524.85-134.73 527.38-137.20 529.95-139.64C533.42-144.16 534.56-144.83 533.36-141.65C534.62-140.16 529.15-125.95 528.73-124.30C525.60-112.18 523.34-93.99 541.31-93.79C561.00-93.57 586.24-109.83 601.80-120.22C609.83-125.59 602.29-138.67 594.18-133.25ZM764.60-131.99C726.38-79.52 654.64-34.06 596.71-70.64C616.89-74.91 638.47-90.61 652.10-100.53C684.76-124.30 711.61-154.76 731.33-189.99C736.08-198.48 723.05-206.09 718.30-197.61C703.43-171.04 684.49-147.29 661.55-127.23C650.82-117.84 613.62-86.54 589.76-84.31C595.47-96.29 601.18-108.26 606.98-120.19C621.56-150.11 636.46-179.87 651.77-209.42C680.92-265.65 711.62-321.05 743.98-375.49C745.26-376.30 746.36-377.51 747.06-379.19C748.02-381.47 748.98-383.76 749.94-386.05C753.32-394.10 740.40-398.97 736.15-391.86C699.91-331.36 665.78-269.64 633.52-206.92C617.85-176.45 602.60-145.76 587.69-114.90C583.81-106.87 579.15-98.40 574.55-89.65C573.92-90.35 573.29-91.05 572.67-91.78C567.16-98.19 555.64-89.52 560.82-82.63C561.22-82.10 561.64-81.64 562.05-81.14C562.03-81.13 562.02-81.12 562.00-81.10C562.24-80.82 562.51-80.56 562.75-80.28C563.03-79.97 563.31-79.67 563.59-79.37C564.82-78.00 566.04-76.62 567.32-75.32C559.26-58.42 552.98-40.80 554.04-23.44C554.62-13.79 569.71-13.72 569.13-23.44C568.24-38.12 573.90-51.29 580.10-64.22C606.49-44.50 640.49-37.23 673.30-45.60C717.12-56.79 751.64-88.70 777.63-124.38C783.35-132.24 770.27-139.78 764.60-131.99ZM931.40-128.59C919.84-115.88 907.46-103.99 893.97-93.31C886.41-87.32 878.50-81.75 870.37-76.55C864.07-72.52 852.79-63.11 845.14-62.97C831.02-62.73 833.99-75.80 836.22-85.31C837.96-92.78 840.29-100.10 842.85-107.33C848.43-123.04 855.33-138.24 862.76-153.16C866.52-160.69 857.33-168.41 850.91-162.30C829.78-142.18 809.01-121.65 787.29-102.14C782.62-97.94 777.35-91.65 771.84-88.66C767.53-86.31 770.10-85.24 768.71-89.08C767.71-91.83 770.58-98.61 771.26-101.24C775.31-117.03 782.80-131.36 790.44-145.65C795.01-154.21 781.99-161.84 777.41-153.27C767.14-134.05 757.75-114.78 754.16-93.09C752.41-82.56 754.03-63.26 770.03-68.87C777.19-71.38 783.73-78.95 789.26-83.76C797.69-91.09 805.92-98.64 814.09-106.27C820.49-112.26 826.81-118.32 833.14-124.38C829.37-114.99 825.99-105.45 823.31-95.75C819.33-81.33 812.58-56.79 830.25-48.72C847.38-40.91 869.08-57.55 882.30-66.33C904.34-80.96 924.28-98.36 942.07-117.92C948.59-125.09 937.95-135.79 931.40-128.59ZM1074.05-132.00C1061.44-125.83 1048.83-119.66 1036.23-113.48C1030.82-110.84 1025.42-108.19 1020.01-105.55C1015.37-103.28 1007.31-97.74 1000.80-95.80C999.91-104.59 1007.53-118.90 1009.39-125.42C1011.81-133.94 1012.46-141.84 1011.21-150.63C1010.31-156.93 1002.44-156.97 998.60-153.96C972.18-133.22 948.51-109.64 927.63-83.60C929.62-87.53 931.60-91.29 933.12-94.70C938.48-106.77 944.01-118.77 949.69-130.69C959.38-151.03 969.57-171.13 980.13-191.03C981.72-191.84 983.07-193.24 983.78-195.38C984.64-197.96 985.50-200.55 986.36-203.13C989.06-211.24 976.62-216.45 972.57-208.94C957.35-180.70 942.92-152.05 929.45-122.93C923.10-109.23 916.97-95.44 911.03-81.56C906.16-70.18 901.92-60.19 904.75-47.79C906.29-41.06 915.12-40.92 918.54-45.99C939.82-77.56 965.10-105.78 993.83-130.52C988.24-111.83 978.02-86.33 993.81-80.32C1003.98-76.46 1019.31-88.44 1027.63-92.51C1045.65-101.33 1063.66-110.15 1081.67-118.97C1090.39-123.24 1082.75-136.26 1074.05-132.00ZM1677.93-122.80C1683.82-130.51 1670.72-138.04 1664.90-130.41C1618.33-69.41 1553.44-25.67 1483.23 3.92C1419.34 30.84 1313.30 72.85 1257.54 9.90C1226.33-25.33 1242.68-72.96 1260.19-110.54C1276.53-145.59 1297.73-178.35 1322.19-208.27C1370.89-267.86 1432.11-321.07 1498.90-359.44C1538.51-382.19 1582.60-399.67 1628.56-402.85C1637.04-403.43 1646.08-403.71 1654.07-400.29C1673.01-392.20 1659.35-376.72 1650.43-366.26C1635.84-349.12 1618.60-334.86 1599.41-323.16C1591.13-318.12 1598.71-305.06 1607.03-310.13C1625.86-321.61 1643.11-335.43 1657.86-351.88C1668.21-363.42 1684.33-379.86 1678.41-396.92C1666.17-432.22 1604.12-416.17 1579.35-409.67C1490.41-386.33 1411.22-323.99 1347.84-259.38C1316.38-227.31 1287.99-191.83 1265.38-152.95C1243.64-115.55 1219.07-68.59 1225.53-23.98C1230.97 13.52 1262.06 40.86 1297.09 51.44C1342.94 65.29 1392.32 51.59 1436.29 37.33C1529.88 7.00 1617.54-43.69 1677.93-122.80ZM1715.43-28.49C1712.64-30.74 1709.56-31.31 1706.29-29.67C1705.73-29.39 1705.25-29.01 1704.74-28.67C1689.34-25.42 1687.95-1.00 1703.41 3.30C1710.93 5.39 1719.28 0.88 1722.80-5.82C1727.42-14.63 1722.39-22.89 1715.43-28.49ZM1707.33-11.97C1707.33-11.96 1707.34-11.96 1707.34-11.95C1707.34-11.94 1707.34-11.93 1707.33-11.92C1707.33-11.93 1707.33-11.94 1707.33-11.95C1707.33-11.96 1707.33-11.97 1707.33-11.97ZM1707.70-11.32C1707.66-11.31 1707.60-11.29 1707.52-11.27C1707.52-11.28 1707.52-11.29 1707.51-11.29C1707.49-11.29 1707.47-11.29 1707.44-11.28C1707.44-11.27 1707.45-11.26 1707.45-11.25C1707.43-11.25 1707.44-11.25 1707.42-11.25C1707.41-11.24 1707.40-11.24 1707.39-11.24C1707.38-11.25 1707.37-11.26 1707.37-11.27C1707.29-11.26 1707.22-11.25 1707.12-11.22C1707.18-11.23 1707.28-11.25 1707.37-11.27C1707.37-11.28 1707.36-11.29 1707.36-11.30C1707.38-11.31 1707.41-11.31 1707.43-11.32C1707.43-11.31 1707.44-11.29 1707.44-11.29C1707.47-11.29 1707.49-11.29 1707.52-11.30C1707.51-11.31 1707.51-11.32 1707.51-11.32C1707.56-11.33 1707.61-11.33 1707.66-11.32C1707.77-11.34 1707.80-11.34 1707.72-11.32C1707.71-11.32 1707.71-11.32 1707.70-11.32C1707.70-11.32 1707.70-11.32 1707.70-11.32Z" fill="#000000"/>
  </g>
</svg>