<svg width="534" height="252" viewBox="0 0 534 252" xmlns="http://www.w3.org/2000/svg">
  <g transform="translate(36.81881952690196, 163.8)">
    <path d="M83.76 10.56C121.20 10.56 179.76-66.72 178.32-109.20C177.36-133.44 157.68-142.08 133.92-142.08C118.32-142.08 101.04-138.24 86.16-132.72C18.72-106.80-36-23.04 26.88-23.04C31.20-23.04 36-23.52 41.52-24.24C53.76-26.16 57.84-27.36 59.04-27.36C59.52-27.36 59.28-26.88 59.04-25.92C55.68-6.96 61.68 7.92 80.40 10.32C81.36 10.56 82.56 10.56 83.76 10.56ZM67.44 2.16C57.84-6.96 61.68-27.36 62.16-27.84C63.12-28.80 78.96-31.20 91.20-31.20C99.36-31.20 105.84-30 105.36-26.88C105.36-25.68 105.84-24.96 106.32-24.96C107.28-24.96 108.24-26.16 108-28.08C107.76-30.72 105.12-32.16 99.36-33.12C97.44-33.36 91.68-33.60 86.40-33.60C83.28-33.60 80.40-33.60 78.72-33.36C68.16-32.16 64.56-30.72 63.36-30.72C62.88-30.72 62.88-30.96 62.88-31.68C63.12-33.60 65.04-39.36 66-42C83.28-46.56 112.80-67.68 124.08-90.24C131.04-104.40 128.16-113.28 120-113.28C112.56-113.28 101.04-106.32 88.32-89.52C72.24-68.40 64.56-44.64 63.60-44.16C62.64-43.68 61.20-43.68 59.76-43.68C54.72-43.68 48.48-45.60 46.56-47.52C46.08-48 45.60-48.24 45.36-48.24C45.12-48.24 44.88-48.24 44.64-48C43.44-47.04 44.40-45.12 47.04-43.92C52.32-41.52 56.64-41.28 62.16-41.28C62.64-41.28 62.88-41.28 62.88-41.04C61.68-38.16 60-30.24 59.76-30.24C59.76-30 39.60-25.68 26.16-25.68C23.76-25.68 21.60-25.92 19.68-26.16C-8.64-30.96 0.48-55.68 17.76-78.48C48.48-119.04 98.40-139.44 133.44-139.44C139.92-139.44 145.68-138.72 150.96-137.52C170.40-132.48 179.76-120 174.24-94.32C165.36-53.28 115.92 8.16 82.80 8.16C77.04 8.16 71.76 6.24 67.44 2.16ZM122.64-93.60C114.24-73.68 87.84-52.32 66.96-44.88C83.76-88.80 108.96-110.64 120-110.64C125.52-110.64 127.44-105.12 122.64-93.60ZM175.20-69.36C175.44-69.12 175.68-69.12 175.92-69.12C176.40-69.12 176.88-69.60 177.36-70.32C178.08-71.28 181.20-75.84 181.44-76.08C181.44-76.08 185.76-75.36 186-75.36C186.48-74.64 178.08-64.80 182.64-61.44C183.12-60.96 183.84-60.96 184.32-60.96C187.92-60.96 192-66.48 194.16-69.36C195.12-70.80 195.12-71.76 193.20-72C191.04-69.36 186.48-63.12 184.56-63.60C181.20-64.08 189.36-73.68 188.40-76.32C187.92-78.48 183.60-78 183.12-78.48C183.12-78.72 185.04-81.84 187.44-85.92C192.96-95.28 193.92-97.44 192.72-98.88C192.24-99.36 192-99.36 191.28-99.36C187.44-99.36 178.08-87.60 177.12-84C176.40-80.88 177.36-79.44 179.28-77.28C176.16-72.48 173.52-70.56 175.20-69.36ZM190.08-96.24C190.56-95.76 180.72-79.68 180.72-79.68C180.48-79.44 179.76-80.64 179.52-81.36C178.08-85.92 189.84-96.48 190.08-96.24ZM190.32-60.48C190.80-60 191.04-60 191.52-60C192.24-60 193.20-60.96 195.12-63.60C196.08-65.28 197.04-66.48 197.28-66.48C197.28-66.72 198.00-65.76 198.72-64.56C200.64-61.92 202.56-60.96 204.72-60.96C207.84-60.96 211.44-63.36 215.28-66.24C217.92-68.40 221.52-70.80 218.40-72C216.00-70.08 209.76-65.28 207.36-64.32C205.92-63.84 205.44-63.60 203.76-63.60C203.04-63.84 201.36-65.04 200.88-66.24C200.64-66.72 200.64-66.72 201.36-66.48C205.68-66.48 211.92-71.52 211.92-76.08C211.92-78 211.20-78.48 210.00-78.48C207.60-78.48 203.04-75.60 200.40-73.20C195.84-69.36 193.44-65.76 193.20-65.76C192.96-65.76 193.20-66.48 194.16-68.40C195.36-71.04 195.36-71.04 198.48-74.16C220.08-96.24 240.96-130.32 236.88-134.40C236.64-134.88 236.16-135.12 235.68-135.12C228.48-135.12 207.12-99.12 204.00-92.88C191.04-68.64 187.92-62.40 190.32-60.48ZM199.68-79.68C205.44-90.24 218.40-116.64 232.80-130.32C233.76-131.28 234.72-132 234.96-132C234.96-131.76 233.52-127.68 232.08-124.56C222.48-103.92 198.00-76.56 199.68-79.68ZM200.16-69.36C200.16-69.84 202.56-72 204.24-72.96C206.16-74.40 209.28-76.08 209.28-75.84C209.76-74.88 205.44-69.12 202.32-69.12C200.88-69.12 200.16-69.36 200.16-69.36ZM224.40-68.64C221.52-65.76 218.64-63.12 218.40-63.12C217.20-62.40 218.64-68.16 222-73.20C223.44-75.12 223.20-76.08 221.52-76.08C219.84-76.08 212.64-62.64 216.72-60.48C217.20-60.24 217.44-60 217.92-60C219.12-60 220.56-61.44 224.64-65.52C227.52-68.40 228.72-69.36 228.96-69.36C229.44-69.36 227.52-66.24 228.96-63.60C229.68-62.40 230.88-61.68 232.08-61.68C232.80-61.68 233.76-61.68 234.48-62.16C235.20-62.64 239.04-66 242.16-69.12C243.60-70.32 243.60-71.52 241.92-72C239.04-69.60 234-64.08 231.84-64.08C231.36-64.08 230.88-64.56 230.88-65.76C230.88-69.12 234.48-73.20 232.80-74.40C232.56-74.64 232.32-74.88 231.84-74.88C230.88-74.88 229.20-73.44 224.40-68.64ZM261.60-64.56C262.56-64.56 263.52-64.80 264.48-65.28C266.88-66.24 270-69.36 270.72-69.84C271.44-70.56 271.68-71.76 269.76-72C265.44-68.64 264-67.20 261.60-67.20C255.60-67.44 260.88-76.56 257.52-78.24L257.04-78.24C253.20-78.24 244.32-69.12 243.36-69.12C243.12-69.12 244.80-72 245.52-73.20C246.00-73.92 245.76-75.12 244.56-75.12C244.08-75.12 243.84-75.12 243.12-74.16C241.92-72.48 237.84-65.28 241.68-65.28C243.60-65.28 253.44-74.64 256.08-75.60C257.04-75.84 255.12-71.52 256.56-67.92C257.76-65.76 259.44-64.56 261.60-64.56ZM400.32-133.92C404.40-135.12 409.44-135.84 414-135.84C417.60-135.84 420.96-135.36 423.60-134.40C435.36-129.84 434.40-120.24 429.84-108.96C426.24-106.08 413.28-96.96 411.60-91.44C411.12-89.76 411.60-88.32 413.28-88.32C415.20-88.32 418.32-90 422.88-94.56C431.76-103.44 429.60-105.84 433.92-108.48C437.28-110.40 440.16-111.60 441.36-111.60C442.56-111.60 443.28-112.80 442.32-113.76C442.08-114 441.84-114 441.36-114C439.20-114 435.12-111.84 433.68-111.12C436.08-119.28 437.28-128.16 430.08-133.92C425.76-137.04 420.48-138.48 413.76-138.48C410.64-138.48 407.28-138.24 403.68-137.52C354.96-127.68 308.88-58.80 307.92-25.68C307.44-7.44 319.44 6.72 341.04 6.72C361.68 6.72 391.20-6 427.44-40.08C432.72-45.12 442.56-54.72 444.72-57.12C445.68-58.32 447.60-60.24 445.92-60.96C445.68-60.96 445.68-61.20 445.44-61.20C444.96-61.20 444.24-60.48 442.08-58.08C416.64-30.48 372.24 4.32 340.80 4.32C330.96 4.32 322.32 0.96 316.08-6.96C292.32-36.48 351.60-120.96 400.32-133.92ZM414.48-91.68C416.40-95.52 426.48-103.44 426.72-103.20C426.72-103.20 426-102.24 425.04-101.04C420.72-95.04 413.28-89.52 414.48-91.68ZM456.24-59.52C457.44-59.04 459.60-60.72 460.08-62.64C460.80-64.56 459.84-65.76 458.16-65.76L457.44-65.76C454.56-64.80 453.12-60.72 456.24-59.52Z" fill="#000000"/>
  </g>
</svg>