<svg width="1849" height="772" viewBox="0 0 1849 772" xmlns="http://www.w3.org/2000/svg">
  <g transform="translate(8.826171875, 501.8)">
    <path d="M122.80 14.16L122.80 14.16Q84.96 13.67 57.13 0.85Q29.30-11.96 15.63-36.38L15.63-36.38Q3.17-59.33 3.17-87.89L3.17-87.89Q3.17-102.05 6.35-116.94L6.35-116.94Q13.18-149.17 32.23-181.88L32.23-181.88Q39.55-194.34 51.27-210.69L51.27-210.69Q72.75-238.77 103.52-263.92L103.52-263.92Q172.36-318.60 250.49-330.57L250.49-330.57Q269.04-333.25 285.16-333.25L285.16-333.25L290.04-335.45Q339.11-357.91 376.22-357.91L376.22-357.91Q406.49-357.91 427.73-343.02L427.73-343.02Q458.25-321.29 458.25-281.74L458.25-281.74Q458.25-273.19 457.03-264.16L457.03-264.16Q452.15-231.45 433.59-198.49L433.59-198.49Q398.93-138.92 331.05-80.08L331.05-80.08Q284.91-40.28 237.06-16.36L237.06-16.36Q186.04 9.52 138.92 13.43L138.92 13.43Q131.59 14.16 122.80 14.16ZM122.31 0L130.86 0L137.94-0.24Q205.57-6.59 279.79-56.64L279.79-56.64Q367.92-118.41 419.19-197.27L419.19-197.27Q435.06-223.14 442.63-251.46L442.63-251.46Q446.78-265.63 446.78-279.30L446.78-279.30L446.78-281.49Q446.78-315.67 421.39-333.74L421.39-333.74Q403.32-346.68 376.22-346.68L376.22-346.68Q349.37-346.68 315.92-333.98L315.92-333.98Q311.52-332.52 311.52-332.03L311.52-332.03Q311.52-331.79 313.72-331.79L313.72-331.79Q325.93-330.57 338.38-327.88L338.38-327.88Q369.14-321.04 388.43-310.79L388.43-310.79L383.79-298.10L382.81-298.10Q381.84-298.58 380.62-298.58L380.62-298.58Q377.93-299.07 367.68-302.00L367.68-302.00Q335.21-311.28 305.42-312.74L305.42-312.74Q300.54-313.23 288.82-313.23L288.82-313.23Q278.56-313.23 268.80-312.26L268.80-312.26L265.38-310.55Q188.96-267.33 139.65-202.64L139.65-202.64Q117.92-173.83 108.15-146.73L108.15-146.73Q104.00-135.50 104.00-126.22L104.00-126.22Q104.00-113.28 112.79-107.18L112.79-107.18Q120.12-102.05 138.18-100.10L138.18-100.10Q139.40-100.10 140.50-99.73Q141.60-99.37 144.29-99.37L144.29-99.37Q144.29-95.95 144.04-95.21L144.04-95.21L144.04-93.99L132.08-93.51Q120.12-93.51 112.55-96.92L112.55-96.92Q96.44-103.27 93.51-120.85L93.51-120.85Q93.02-124.02 93.02-127.69L93.02-127.69Q93.02-153.08 117.92-191.89L117.92-191.89Q159.42-254.39 229.98-302.00L229.98-302.00Q232.18-303.47 234.13-304.81Q236.08-306.15 236.94-306.64Q237.79-307.13 238.53-307.62L238.53-307.62L239.01-308.11L225.83-305.18Q186.28-295.17 148.93-272.95L148.93-272.95Q102.29-244.87 69.58-205.81L69.58-205.81Q63.96-199.22 57.37-189.94L57.37-189.94Q29.79-150.88 21.73-112.79L21.73-112.79Q19.04-100.59 18.80-86.18L18.80-86.18Q18.80-42.48 49.80-19.78L49.80-19.78Q76.66-0.73 122.31 0L122.31 0ZM457.76-56.15L457.76-56.15Q456.05-56.15 454.35-56.88L454.35-56.88Q449.71-59.08 449.71-64.94L449.71-64.94Q449.71-69.09 456.05-83.50L456.05-83.50L470.46-114.01Q477.29-129.39 481.20-133.30L481.20-133.30Q482.18-134.28 483.15-134.28L483.15-134.28Q484.13-134.28 489.75-131.84L489.75-131.84L495.85-128.91Q496.34-128.66 496.34-126.95L496.34-126.95Q496.34-123.78 494.63-119.02Q492.92-114.26 490.23-109.86L490.23-109.86L477.54-89.60Q479.25-90.82 483.52-94.85Q487.79-98.88 504.39-114.50L504.39-114.50L508.54-118.41Q521.97-131.35 530.76-131.35L530.76-131.35Q533.45-131.35 535.89-130.62Q538.33-129.88 542.97-128.17L542.97-128.17Q545.65-127.20 549.56-127.20L549.56-127.20Q562.01-126.71 564.45-125.73L564.45-125.73Q565.43-125.49 565.43-125.24Q565.43-125 565.43-124.88Q565.43-124.76 565.67-124.76Q565.92-124.76 566.04-123.66Q566.16-122.56 566.16-120.61L566.16-120.61L566.16-119.38Q564.70-117.68 559.57-116.46Q554.44-115.23 549.32-115.23L549.32-115.23Q542.97-115.72 534.42-118.90L534.42-118.90Q532.23-119.87 530.52-119.87L530.52-119.87Q526.86-119.38 521.00-114.75L521.00-114.75Q518.55-112.55 510.50-104.74Q502.44-96.92 493.41-87.89Q484.38-78.86 479.00-73.49L479.00-73.49Q471.68-65.43 468.38-62.26Q465.09-59.08 462.77-57.62Q460.45-56.15 457.76-56.15ZM571.78-33.45L571.78-33.45L566.89-35.16L566.89-35.64Q566.41-36.13 566.41-38.09L566.41-38.09Q566.41-41.02 567.26-45.41Q568.12-49.80 570.43-54.57Q572.75-59.33 578.37-68.36L578.37-68.36L594.97-97.41Q621.83-143.55 637.70-170.41L637.70-170.41Q644.04-180.66 647.71-187.26L647.71-187.26L680.42-241.46Q692.14-261.72 697.27-268.80L697.27-268.80Q705.08-279.54 711.91-282.71L711.91-282.71Q712.89-283.20 713.38-283.20L713.38-283.20Q713.87-283.20 723.63-274.41L723.63-274.41L723.63-273.44Q723.63-269.53 710.94-253.66L710.94-253.66Q705.08-246.09 696.29-233.64Q687.50-221.19 680.91-211.43L680.91-211.43Q643.31-156.98 619.87-117.68L619.87-117.68L612.55-104.98L613.28-105.22Q615.97-106.93 632.93-116.70Q649.90-126.46 652.59-127.69L652.59-127.69Q662.11-133.06 670.17-133.06L670.17-133.06Q671.88-133.06 672.85-132.32L672.85-132.32L677.25-119.38L675.78-117.92Q673.58-115.48 643.31-101.32L643.31-101.32L633.30-96.68L634.52-96.44L678.71-97.17Q741.94-98.88 780.03-102.54L780.03-102.54L794.68-103.52Q805.66-103.52 805.66-98.88L805.66-98.88Q805.66-94.97 796.88-93.02L796.88-93.02Q791.02-91.55 778.56-90.58L778.56-90.58Q750.98-88.62 729.25-87.89L729.25-87.89L678.22-84.96Q658.94-83.98 616.21-81.05L616.21-81.05Q612.79-80.57 610.60-80.57L610.60-80.57Q604.74-80.57 601.07-85.21L601.07-85.21L588.62-63.23Q582.03-52.25 578.37-43.95L578.37-43.95Q573.73-33.45 571.78-33.45ZM790.77-64.94L790.77-64.94L788.33-65.19Q781.49-66.65 779.30-73.00L779.30-73.00Q779.05-74.22 779.05-75.68L779.05-75.68Q779.05-78.61 780.15-82.15Q781.25-85.69 786.62-94.48L786.62-94.48Q807.13-125 821.29-135.25L821.29-135.25Q826.17-138.67 832.28-139.65L832.28-139.65Q834.47-140.14 836.18-140.14L836.18-140.14Q837.65-140.14 838.13-139.89Q838.62-139.65 841.06-133.30L841.06-133.30Q843.26-128.42 843.26-126.95L843.26-126.95Q843.26-126.22 842.04-124.88Q840.82-123.54 835.45-120.36L835.45-120.36Q820.07-112.30 798.83-84.47L798.83-84.47Q795.65-80.57 795.65-79.59L795.65-79.59Q797.61-79.59 826.90-94.24L826.90-94.24Q848.39-104.74 877.20-122.31L877.20-122.31Q887.94-128.91 893.80-132.08L893.80-132.08Q902.83-137.21 906.49-137.21L906.49-137.21Q911.13-137.21 912.84-133.54L912.84-133.54Q913.57-132.32 913.57-130.62L913.57-130.62Q913.57-128.42 912.11-124.51L912.11-124.51Q910.16-119.14 907.23-114.50L907.23-114.50L903.32-108.64Q899.41-103.52 899.41-96.68L899.41-96.68Q899.41-96.19 899.90-95.21L899.90-95.21Q903.32-88.62 923.58-88.62L923.58-88.62Q950.93-88.62 997.07-102.29L997.07-102.29Q1004.39-104.25 1007.08-104.25L1007.08-104.25Q1008.79-104.25 1009.64-104.13Q1010.50-104.00 1011.84-103.27Q1013.18-102.54 1013.18-99.61L1013.18-99.61Q1013.18-97.17 1011.47-96.19L1011.47-96.19Q1010.25-94.73 1007.69-93.51Q1005.13-92.29 986.08-87.40L986.08-87.40Q941.16-75.93 918.70-75.93L918.70-75.93Q911.62-75.93 908.20-76.42L908.20-76.42Q888.43-79.35 884.52-93.99L884.52-93.99Q883.79-96.92 883.79-100.59L883.79-100.59Q883.79-106.20 885.74-113.77L885.74-113.77L885.99-114.01Q885.99-114.26 885.74-114.26L885.74-114.26L885.50-114.26Q885.01-114.01 884.28-113.28L884.28-113.28L877.20-109.38Q843.26-89.11 819.09-76.42L819.09-76.42L812.26-72.51Q799.32-64.94 790.77-64.94ZM1141.36-59.81L1141.36-59.81L1135.50-59.81Q1116.46-60.30 1104.49-72.51L1104.49-72.51Q1094.48-82.52 1087.40-103.52L1087.40-103.52L1085.94-107.91Q1082.03-107.91 1071.66-103.39Q1061.28-98.88 1036.13-83.50L1036.13-83.50Q1013.43-69.82 1007.32-67.63L1007.32-67.63Q1003.66-66.41 1000.49-66.41L1000.49-66.41Q997.56-66.41 996.58-66.89L996.58-66.89Q991.94-68.60 989.99-73.24L989.99-73.24Q989.50-74.95 989.50-76.90L989.50-76.90Q989.50-83.74 995.61-94.73L995.61-94.73Q998.29-99.12 1001.46-103.76L1001.46-103.76Q1009.52-116.21 1017.46-124.39Q1025.39-132.57 1034.18-136.72L1034.18-136.72Q1037.84-138.43 1039.06-138.43L1039.06-138.43Q1039.55-138.43 1039.67-138.06Q1039.79-137.70 1040.89-136.11Q1041.99-134.52 1043.82-132.20Q1045.65-129.88 1047.36-127.20L1047.36-127.20L1045.65-124.27Q1043.95-122.31 1037.60-116.21L1037.60-116.21Q1022.95-101.81 1014.65-90.09L1014.65-90.09L1013.67-88.87L1027.34-95.95Q1049.32-108.15 1062.01-113.77L1062.01-113.77Q1077.64-120.85 1085.45-120.85L1085.45-120.85Q1093.51-120.85 1096.68-115.23L1096.68-115.23Q1097.90-113.53 1098.63-110.11L1098.63-110.11Q1106.69-81.79 1121.09-74.71L1121.09-74.71Q1127.44-71.53 1138.43-71.29L1138.43-71.29Q1164.31-71.29 1214.60-95.46L1214.60-95.46Q1236.08-106.20 1243.16-106.20L1243.16-106.20Q1245.61-106.20 1246.83-104.98Q1248.05-103.76 1248.05-102.05L1248.05-102.05Q1248.05-99.85 1244.87-97.90L1244.87-97.90Q1238.28-93.99 1225.34-87.65L1225.34-87.65Q1204.35-77.39 1186.04-70.80L1186.04-70.80Q1159.18-60.79 1141.36-59.81ZM1520.26 19.04L1520.26 19.04L1511.23 19.04Q1486.82 19.04 1467.29 10.50L1467.29 10.50Q1431.15-5.13 1414.55-36.13L1414.55-36.13Q1401.37-61.04 1401.37-92.53L1401.37-92.53Q1401.37-136.47 1426.51-188.48L1426.51-188.48Q1457.52-250.49 1512.94-298.34L1512.94-298.34Q1554.20-333.74 1601.56-353.03L1601.56-353.03Q1633.54-365.72 1661.87-369.38L1661.87-369.38Q1666.75-369.87 1672.12-369.87L1672.12-369.87Q1694.82-369.87 1705.81-358.15L1705.81-358.15Q1713.38-350.59 1715.09-338.38L1715.09-338.38Q1715.82-334.72 1715.82-329.35L1715.82-329.35Q1715.82-323.73 1715.09-319.58L1715.09-319.58Q1713.87-310.30 1711.18-301.51L1711.18-301.51Q1701.66-271.00 1678.10-235.60Q1654.54-200.20 1625.73-172.85L1625.73-172.85Q1590.33-140.14 1564.45-140.14L1564.45-140.14Q1547.61-140.14 1539.06-152.83L1539.06-152.83Q1537.60-155.03 1534.91-160.16L1534.91-160.16Q1532.71-164.31 1532.71-165.04L1532.71-165.04Q1532.71-165.28 1533.08-165.65Q1533.45-166.02 1538.57-169.19Q1543.70-172.36 1543.95-172.36L1543.95-172.36Q1544.43-172.36 1549.07-166.75L1549.07-166.75Q1552.73-162.35 1555.54-160.52Q1558.35-158.69 1562.01-158.69L1562.01-158.69Q1576.42-158.69 1600.34-177.61Q1624.27-196.53 1648.68-226.81L1648.68-226.81Q1681.88-268.80 1694.34-305.18L1694.34-305.18Q1698.97-319.09 1698.97-330.08L1698.97-330.08Q1698.97-342.53 1693.85-346.92L1693.85-346.92Q1687.26-354.25 1671.14-354.25L1671.14-354.25Q1656.01-354.25 1631.59-347.41L1631.59-347.41Q1578.13-332.52 1529.05-293.95L1529.05-293.95Q1475.59-250.98 1443.12-193.36L1443.12-193.36Q1413.09-137.70 1413.09-91.80L1413.09-91.80Q1413.09-41.50 1447.75-13.92L1447.75-13.92Q1463.13-2.20 1480.71 3.66L1480.71 3.66Q1494.38 7.81 1511.96 7.81L1511.96 7.81Q1575.20 7.81 1696.29-50.05L1696.29-50.05Q1719.48-61.28 1743.41-73.73L1743.41-73.73Q1786.38-95.21 1790.77-97.17L1790.77-97.17L1803.71-103.52Q1805.42-104.49 1806.88-104.49L1806.88-104.49Q1809.57-104.49 1809.81-102.29L1809.81-102.29Q1809.81-99.37 1782.96-82.76L1782.96-82.76L1773.93-77.15Q1756.59-67.14 1734.38-55.91L1734.38-55.91Q1625.49-0.98 1557.86 13.67L1557.86 13.67Q1534.18 18.55 1520.26 19.04ZM1810.79-68.12L1810.79-68.12Q1808.84-68.12 1807.13-69.09L1807.13-69.09Q1803.71-71.04 1803.71-74.95L1803.71-74.95L1803.71-76.17Q1803.71-80.57 1807.37-84.96L1807.37-84.96Q1809.57-87.89 1812.50-89.72Q1815.43-91.55 1818.12-91.55L1818.12-91.55Q1820.31-91.55 1822.02-90.33Q1823.73-89.11 1824.22-88.99Q1824.71-88.87 1825.68-88.13L1825.68-88.13Q1827.88-85.94 1827.88-82.03L1827.88-82.03Q1827.88-74.71 1818.60-70.07L1818.60-70.07Q1814.21-68.12 1810.79-68.12Z" fill="#000000"/>
  </g>
</svg>