<svg width="1469" height="568" viewBox="0 0 1469 568" xmlns="http://www.w3.org/2000/svg">
  <g transform="translate(10.04082823062813, 369.2)">
    <path d="M100.80-38.88C91.68-12 86.40 19.68 99.36 48.48C108.48 65.28 126.72 72.48 150.24 68.16C180.48 63.36 206.40 42.72 231.36 20.16C282.24-28.32 373.44-132.48 360.96-208.32C357.60-238.56 332.64-269.76 284.64-281.76C275.52-283.68 266.40-285.12 256.80-285.60C224.64-286.56 194.40-281.28 165.60-271.68C96.48-249.12 34.08-196.80 9.12-142.08C-17.76-73.44 35.04-37.44 100.80-38.88ZM118.56-39.36C156-42.72 197.28-47.04 233.76-58.56C236.16-59.52 235.68-60 234.24-62.88C197.28-55.68 160.32-49.92 121.44-46.56C139.68-89.76 162.72-125.28 198.72-160.80C216.96-179.04 242.88-199.20 269.28-204.48C271.20-205.44 272.64-207.84 269.28-208.80C206.40-213.60 124.80-114.24 103.20-47.04C103.20-47.04 103.20-46.56 102.72-46.08C75.84-45.60 50.40-49.44 30.72-64.80C8.64-82.56 10.08-110.88 22.08-136.32C58.08-208.80 134.40-253.44 215.04-268.32C232.32-271.20 249.60-272.16 266.88-268.80C306.24-262.08 335.04-235.68 338.88-204.96C348-135.36 280.32-51.36 219.36 13.44C198.24 33.12 171.84 55.20 139.68 58.08C122.40 59.04 113.28 47.04 110.40 29.28C107.04 6.24 112.32-16.80 118.56-39.36ZM464.16-99.36C425.76-89.28 372-26.88 352.80-8.16C351.36-20.64 374.88-67.68 396.48-87.84C397.92-89.28 399.84-91.20 400.80-93.12C402.72-98.40 400.32-103.20 393.60-103.20C389.76-103.20 386.40-102.24 383.52-100.32C358.56-81.60 339.84-38.88 336.48-6.72C336.96-2.40 333.12 6.72 343.68 8.64C348 9.12 351.36 8.64 354.24 5.76C384.48-25.92 403.20-53.76 440.16-78.24C432-67.68 421.44-53.76 432.48-41.28C442.08-26.88 505.92-60.48 519.36-65.76C525.60-68.16 524.16-72.96 516.48-69.60C497.76-60.96 451.20-43.20 444-45.12C436.80-54.24 465.12-80.64 472.80-87.36C476.64-88.80 477.60-94.56 474.72-97.44C472.32-99.84 468-100.80 464.16-99.36ZM528.48-43.68C528.96-44.64 524.64-45.60 525.12-46.56C550.56-97.92 602.88-183.36 639.36-230.40C641.28-233.76 639.84-237.60 636-239.52C632.16-240.96 627.36-240.48 624.48-237.60C583.20-195.36 517.92-74.88 494.88-18.24C492.96-12.96 491.52-7.68 490.56-1.92C490.08 0.48 491.04 3.36 492 5.28C494.40 9.60 501.12 10.56 504 6.72C510.72-3.36 516.48-14.40 525.60-25.44C540-15.84 556.80-0.48 576-0.48C615.84-0.48 658.08-37.44 680.64-67.68C681.60-69.60 684-71.52 680.64-72.96C677.76-73.92 676.32-71.52 675.36-70.08C655.68-47.04 622.08-19.68 592.32-9.12C582.24-5.76 572.64-6.24 563.52-11.04C552.96-16.80 544.32-23.52 536.16-31.20C535.68-31.20 535.68-32.16 535.20-32.64C552.96-38.40 569.76-41.28 586.08-53.76C598.08-62.88 617.76-82.08 612.48-99.84C600.48-120.48 539.04-56.16 528.48-43.68ZM549.12-50.88C563.52-65.28 579.36-78.72 598.08-91.20C595.20-77.28 569.28-56.16 549.12-50.88ZM510.72-17.76C513.12-22.08 515.52-26.88 517.92-32.16C520.32-31.20 521.28-29.76 520.32-28.32C517.44-24.48 514.56-20.64 511.68-17.28C511.68-17.28 511.20-17.28 510.72-17.76ZM668.64-18.24C661.92-12.96 662.40-16.80 665.28-24C674.88-45.60 688.80-65.28 705.60-84C706.56-85.44 708-86.40 708.96-87.84C711.36-91.68 709.44-95.04 703.68-95.52C697.44-96 692.64-95.04 689.28-90.72C674.40-70.56 655.68-50.88 647.52-25.92C645.60-18.24 643.20-9.12 652.80-4.80C658.08-2.88 662.40-4.32 666.24-6.72C687.36-20.64 705.60-39.36 726.24-58.08C727.68-53.28 721.92-43.20 720.48-37.44C719.04-31.68 721.92-26.40 729.12-23.52C736.32-20.64 743.52-20.64 750.72-24C768-33.60 802.08-56.16 822.72-67.20C823.20-67.68 823.20-67.68 823.20-67.68C823.68-68.64 824.64-70.08 824.16-70.56C821.28-72.48 819.36-70.56 816.48-69.60C793.44-56.16 769.44-44.64 745.44-30.72C736.32-27.84 736.80-37.92 739.20-44.64C744.96-57.60 753.60-69.60 764.16-81.12C766.08-83.04 767.52-84.96 765.60-87.36C763.68-89.28 761.28-89.76 756.96-89.28C752.16-88.80 749.28-85.92 745.92-83.52C728.16-67.68 710.40-52.32 692.16-36.96C684.96-30.24 676.32-24.48 668.64-18.24ZM915.36-30.72C912.96-29.28 887.04-17.28 891.84-28.32C895.20-36.96 914.88-73.44 901.44-80.16C882.24-93.12 819.84-35.52 803.52-18.72C812.64-45.60 830.40-62.40 850.08-84.48C853.92-88.32 864-95.52 856.32-102.24C849.60-107.04 841.44-101.76 836.64-96C818.40-71.52 795.84-48.48 787.20-16.80C784.80-9.12 789.60-4.80 798.24-0.96C801.60 0.48 803.52 0 805.44-2.40C826.56-30.24 860.16-54.24 891.84-68.64C888-54.24 877.44-42.24 876-25.44C875.52-17.28 879.84-13.92 890.40-14.40C907.20-13.92 959.52-42.24 987.36-67.20C987.84-68.16 988.80-70.08 987.36-70.56C963.84-56.64 941.76-42.72 915.36-30.72ZM1066.56 40.32C1067.52 84 1096.80 105.60 1140.48 102.72C1241.76 91.68 1382.40-47.52 1400.64-62.88C1401.12-63.36 1402.08-64.32 1402.56-65.28C1403.04-67.20 1402.08-68.64 1400.16-70.08C1398.24-71.04 1396.32-71.04 1394.40-69.60C1367.04-49.92 1243.20 83.04 1134.24 94.56C1103.52 94.56 1082.88 79.68 1079.52 47.52C1078.56 31.68 1081.92 16.32 1087.68 0.96C1097.28-25.44 1112.16-50.40 1129.44-73.92C1185.60-148.80 1301.28-258.24 1402.08-269.28C1416.96-268.80 1427.04-261.60 1428.48-250.56C1431.84-229.44 1413.12-206.40 1398.72-190.08C1367.04-154.56 1314.72-114.72 1268.64-96.48C1267.68-96 1266.24-94.08 1266.24-93.12C1266.24-91.20 1268.16-90.24 1270.08-90.24C1280.16-90.24 1290.72-95.52 1300.32-100.80C1329.60-117.12 1356.48-134.88 1381.44-155.04C1407.84-178.08 1447.68-212.16 1446.72-252.48C1446.24-307.20 1344.96-269.76 1301.76-245.28C1241.76-208.80 1190.40-166.08 1147.20-117.60C1121.28-88.80 1099.68-58.08 1083.84-24.96C1074.24-4.80 1067.52 16.32 1066.56 40.32ZM1443.36-13.92C1442.88-14.88 1442.40-16.80 1441.44-18.24C1438.08-23.04 1428.48-25.44 1423.20-18.72C1420.32-15.84 1418.88-12 1418.40-8.16C1417.92-2.88 1423.68 0.96 1429.44 0C1436.16-0.96 1443.36-7.68 1443.36-13.92Z" fill="#000000"/>
  </g>
</svg>