<svg width="1409" height="735" viewBox="0 0 1409 735" xmlns="http://www.w3.org/2000/svg">
  <g transform="translate(98.4, 477.75)">
    <path d="M92.80 147.20L92.80 147.20Q66 147.20 47.60 127.60L47.60 127.60Q13.60 91.20 13.60-6.80L13.60-6.80Q13.60-14.40 14.20-43Q14.80-71.60 22.80-121.60L22.80-121.60Q39.60-226 68-276.80L68-276.80Q73.20-284.80 76.80-284.80L76.80-284.80Q80.40-284.80 82.60-282Q84.80-279.20 84.80-276L84.80-276Q84.40-272.40 80.80-271.60L80.80-271.60Q53.60-223.60 35.60-120.80L35.60-120.80Q24.80-56.80 24.80 1.20L24.80 1.20Q24.80 90 54.80 125.60L54.80 125.60Q69.60 143.20 94 143.20L94 143.20Q99.60 143.20 105.20 142.40L105.20 142.40Q152.80 135.60 213.20 32L213.20 32Q260.40-50.80 260.40-123.60L260.40-123.60Q260.40-166.40 245.20-201.20L245.20-201.20Q197.20-310 104.40-310L104.40-310Q98.80-310 73.40-308Q48-306 5-280.20Q-38-254.40-70.40-212.40L-70.40-212.40Q-73.60-205.60-80-205.60L-80-205.60Q-86.40-205.60-86.40-210.40L-86.40-210.40Q-86.40-214-82-220L-82-220Q-49.20-254.40-11.60-278.40L-11.60-278.40Q48-316.40 104-316.40L104-316.40Q200.80-316.40 249.60-203.20L249.60-203.20Q265.20-166.80 265.20-122L265.20-122Q265.20-109.60 261.60-72.80Q258-36 217.60 34.80L217.60 34.80Q157.20 138.80 105.60 146.40L105.60 146.40Q98.80 147.20 92.80 147.20ZM315.60 64.80L315.60 64.80Q303.60 64.80 303.60 36.80L303.60 36.80Q303.60 26.40 305.20 12.40L305.20 12.40Q308.40-14.40 309.60-18Q310.80-21.60 311.20-25.60L311.20-25.60Q311.20-29.20 308-32.80L308-32.80Q302.80-39.20 302.40-51.60L302.40-51.60Q304.40-57.60 309.60-57.60L309.60-57.60Q314-57.60 314-53.20L314-53.20L313.60-47.20Q313.60-39.60 315.60-36.80L315.60-36.80Q318.40-32.40 318.40-27.60L318.40-27.60Q318.40-20.80 317.20-14.80Q316-8.80 315.20-2.80L315.20-2.80Q309.60 26 309.60 43.20L309.60 43.20Q309.60 54.80 313.60 59.20L313.60 59.20L316.40 59.60Q337.60 59.60 394-33.60L394-33.60Q402.80-47.60 404-48L404-48Q404.80-48 405.20-47.60L405.20-47.60L405.20-47.20L404.80-45.60Q389.20-16.40 360.40 23.20L360.40 23.20Q330.40 64.80 315.60 64.80ZM399.20 25.20L399.20 25.20Q396.80 25.20 396.80 20.80L396.80 20.80Q398.40 6.80 401.20-26.40L401.20-26.40Q401.20-44.80 410-130.40L410-130.40Q423.60-259.60 451.20-296.80L451.20-296.80Q459.20-308 464.80-308L464.80-308Q473.20-308 473.20-290.40L473.20-290.40Q473.20-276 467.20-249.20L467.20-249.20Q462.80-230.80 435.80-131Q408.80-31.20 406-26.40L406-26.40L404.80-5.20L410-20.80Q407.60-21.20 407.60-24.80L407.60-24.80Q410-28.80 413.60-31.20L413.60-31.20Q427.20-68 457.20-93.60L457.20-93.60Q475.60-109.20 484.40-109.20L484.40-109.20Q491.20-109.20 491.20-103.20L491.20-103.20Q491.20-91.20 456.40-60L456.40-60Q446-51.20 436.80-44Q427.60-36.80 421.60-30.80L421.60-30.80Q442.40-30.40 472.20-19.80Q502-9.20 514.80 1.60L514.80 1.60Q519.60 6 519.60 9.60L519.60 9.60Q519.60 13.60 514.80 13.60L514.80 13.60Q510.40 13.60 507.20 6.80Q504 0 480.80-10.80L480.80-10.80Q463.60-18.40 445.20-22.80L445.20-22.80Q434-26 425.60-26L425.60-26Q420.80-26 416.80-24.80L416.80-24.80Q408.80-2 404 16L404 16Q401.60 25.20 399.20 25.20ZM408.80-58L408.80-58Q421.60-107.60 434-147.60L434-147.60Q448.80-194.80 462-250.40L462-250.40Q469.60-282.80 469.60-294.40L469.60-294.40Q469.60-301.60 466.80-301.60L466.80-301.60Q463.20-301.60 455.60-285.20Q448-268.80 438.80-232.80L438.80-232.80Q416-138.40 408.80-58ZM422.80-39.60L422.80-39.60Q427.60-43.20 436-51.60L436-51.60Q483.20-97.20 483.20-102.80L483.20-102.80Q483.20-103.60 482-103.60L482-103.60L480-103.20Q460.40-94 435.20-61.20L435.20-61.20Q428.40-52 422.80-39.60ZM654 1.60L654 1.60Q649.20 1.60 641-1.40Q632.80-4.40 624-26L624-26Q618-44.40 614.40-60.80L614.40-60.80Q613.60-66.40 612.80-69.60L612.80-69.60Q597.60-34 577.20-21.20L577.20-21.20Q570-16.80 564-16.80L564-16.80Q549.20-16.80 549.20-40.40L549.20-40.40Q549.20-48.40 550.80-58.80L550.80-58.80Q552-64.40 556.80-64.40L556.80-64.40Q563.60-64.40 563.60-58.80L563.60-58.80L563.20-56Q561.20-46 561.20-37.60L561.20-37.60Q561.20-23.60 568-23.60L568-23.60Q570.80-23.60 574.40-25.60L574.40-25.60Q596-38.80 608.80-75.20L608.80-75.20Q610.40-78.40 612.80-78.40L612.80-78.40Q616.80-78.40 620-61.60L620-61.60Q620-54.40 629.20-28L629.20-28Q638.80-4 654.40-4L654.40-4Q661.20-4 668-7.60L668-7.60Q689.60-18.80 711.20-46.40L711.20-46.40Q712-48 713.20-48L713.20-48Q714.80-48 714.80-46.40L714.80-46.40Q714.80-45.60 714-44.80L714-44.80Q691.20-13.60 670.40-3.20L670.40-3.20Q662 1.60 654 1.60ZM845.20-2L845.20-2Q844-2 843.60-2.80L843.60-2.80Q829.60-16 829.60-46.40L829.60-46.40Q829.60-50.80 830.40-62.40L830.40-62.40Q831.60-72.40 831.60-80.80L831.60-80.80L831.20-92.40Q830.40-104 815.60-104L815.60-104Q804.40-104 788.40-95.20Q772.40-86.40 756.40-72L756.40-72Q724.80-42.40 718.80-14L718.80-14Q718.40-9.20 715.60-9.20L715.60-9.20Q709.20-9.20 709.20-17.60L709.20-17.60Q710.80-36.80 710.80-66.80L710.80-66.80Q710.80-71.20 715.60-71.20L715.60-71.20Q719.60-71.20 719.60-66.80L719.60-66.80Q719.60-42 719.20-29.60L719.20-29.60Q722.80-38 728.40-48.40L728.40-48.40Q736.40-60.80 753.40-76Q770.40-91.20 789.60-100.80L789.60-100.80Q803.60-107.60 816-107.60L816-107.60Q837.60-107.60 840.80-86.80L840.80-86.80Q842-78.40 842-68.80L842-68.80Q842-61.20 841.20-52.80L841.20-52.80Q840-42 840-32L840-32Q840-28.80 840.60-20.80Q841.20-12.80 847.20-6.40L847.20-6.40L848-4.80Q848-3.60 847-2.80Q846-2 845.20-2ZM1098.40 164L1098.40 164Q1086.80 164 1065.60 157.60Q1044.40 151.20 1019.20 112.40L1019.20 112.40Q989.60 64.40 989.60-16.40L989.60-16.40Q990-60.80 1005-121.60Q1020-182.40 1048.40-238.40L1048.40-238.40Q1095.60-331.20 1161.20-344.80L1161.20-344.80Q1166.80-345.60 1172-345.60L1172-345.60Q1188.40-345.60 1203.20-334.80Q1218-324 1227-303.20Q1236-282.40 1236-261.20L1236-261.20Q1236-239.60 1226-226L1226-226Q1221.60-222 1218.40-222L1218.40-222Q1213.60-222 1212-225.20L1212-225.20L1211.60-226.80Q1211.60-229.20 1214-232.40L1214-232.40Q1224-246 1224-270L1224-270Q1224-286.40 1218-303.80Q1212-321.20 1197.60-332.40L1197.60-332.40Q1187.20-340.80 1172.40-340.80L1172.40-340.80Q1112.80-340.80 1056.80-228.80L1056.80-228.80Q1028.40-173.60 1013-115.80Q997.60-58 997.60-10.40L997.60-10.40Q997.60 67.20 1023.20 109.60L1023.20 109.60Q1055.60 159.20 1098.40 159.20L1098.40 159.20Q1170.40 159.20 1240 30.40L1240 30.40Q1262-10.80 1273.20-45.20L1273.20-45.20Q1274.40-46.80 1275.60-46.80L1275.60-46.80Q1276-46.80 1276.60-46.60Q1277.20-46.40 1277.80-45.80Q1278.40-45.20 1278.40-44.80L1278.40-44.80L1278-43.60Q1266.40-8.80 1244 32.80L1244 32.80Q1192.40 128.80 1136 155.20L1136 155.20Q1117.20 164 1098.40 164ZM1290.40 10L1290.40 10L1290 10Q1284.80 8.80 1284.80-0.40L1284.80-0.40Q1284.80-4.80 1287.20-6.80Q1289.60-8.80 1291.60-8.80L1291.60-8.80L1292.40-8.80Q1298-7.20 1298-1.60L1298-1.60L1297.60 0Q1295.60 10 1290.40 10Z" fill="#000000"/>
  </g>
</svg>