<svg width="1187" height="613" viewBox="0 0 1187 613" xmlns="http://www.w3.org/2000/svg">
  <g transform="translate(6.877645019878172, 398.45)">
    <path d="M364.80-159.84C363.36-161.28 343.68-156 308.64-144.96C296.16-140.64 285.12-137.28 285.12-137.76C284.64-137.76 286.08-139.68 287.52-142.08C292.80-148.80 314.88-185.28 320.16-196.80C329.76-216.48 334.56-233.28 335.52-248.16C336-261.12 336-262.08 332.16-269.76C328.32-276.96 325.92-278.88 318.72-282.72C311.52-286.56 307.68-287.04 295.68-288L281.28-288.48L285.12-292.32C289.44-296.16 289.44-296.16 287.52-300.48C285.12-305.28 280.80-303.36 273.12-294.24C265.44-285.60 264.96-285.60 249.60-281.76C200.64-268.80 128.64-227.52 83.04-185.76C40.80-146.88 7.20-99.36 5.28-76.80C4.80-69.12 5.28-67.68 8.64-63.36C13.44-57.60 20.64-55.68 33.12-55.68C44.64-55.68 62.88-60 106.56-73.92L144.96-86.40C147.84-87.36 147.36-85.44 140.64-68.64C124.32-27.36 117.12 12.48 124.32 22.08C129.12 27.84 137.76 27.36 148.32 21.60C166.08 11.52 222.24-52.32 265.92-111.36L276.96-125.76L303.84-134.40C318.72-139.20 338.40-145.44 348-147.84C361.44-151.68 365.28-153.60 365.76-155.52C366.24-156.96 365.76-158.88 364.80-159.84ZM120.96-87.36L71.52-71.52C56.64-67.20 49.92-65.76 37.44-64.80C15.36-63.84 11.52-67.20 15.36-82.56C22.56-112.32 71.52-168.96 119.52-204.96C143.52-222.24 165.12-235.68 194.88-250.08C217.92-261.60 253.44-276 255.36-274.08C255.36-274.08 252.48-269.76 248.64-264.48C236.16-247.68 207.84-204.48 196.32-183.84C190.08-172.80 177.12-148.32 168.48-130.08L152.16-96.96ZM261.12-129.12C257.28-127.68 234.24-120.96 210.72-114.24L166.08-101.28C164.64-100.80 163.68-101.28 163.68-101.76C163.68-105.12 198.72-171.84 209.76-190.56C223.20-213.12 239.52-237.60 254.40-257.28C272.16-280.32 268.80-278.40 288.96-278.88C304.80-279.36 307.20-278.88 313.44-275.52C330.24-266.88 331.20-249.12 316.32-212.64C309.12-195.36 299.04-177.60 281.76-151.20C268.80-131.52 268.80-131.04 261.12-129.12ZM246.72-101.28C207.84-50.40 161.28 1.92 144.96 12.96C135.84 18.72 132.48 19.20 130.56 15.36C125.76 6.24 135.84-35.52 154.08-80.16C158.40-90.24 158.88-90.72 166.08-93.12C194.40-101.28 259.68-120 260.16-120C260.16-119.52 254.40-111.36 246.72-101.28ZM334.56-46.08C335.52-42.72 340.80-43.20 343.68-47.04L350.88-64.80C372.00-122.88 402.24-178.56 409.92-172.80C419.04-166.08 420.96-165.60 429.12-165.60C441.60-165.60 458.88-175.20 458.88-182.40C458.88-186.72 455.52-186.72 449.28-181.92C442.56-177.12 432.48-172.32 428.16-172.32C426.24-172.32 421.92-174.24 418.56-176.64C409.92-183.36 403.68-182.88 396.48-175.68C388.80-167.52 374.88-144 364.32-119.52C359.04-108.48 353.76-96 352.32-92.16C350.40-88.32 348.96-86.40 348.96-87.84C348.96-92.16 366.72-152.64 371.52-163.68C377.28-176.64 384.96-199.20 384.96-202.56C384.96-205.92 380.64-207.36 378.24-204.96C377.28-204 372.48-194.88 367.68-184.80C361.92-171.84 359.52-164.64 360.00-162.24C360.48-159.84 358.08-149.28 354.24-136.32C340.80-92.64 332.16-52.32 334.56-46.08ZM439.68 14.88C443.04 19.20 446.40 17.28 450.24 10.08C454.56 0.96 454.08-2.88 448.32-2.88L444.00-2.88L444.96-26.88C446.40-64.80 447.36-73.44 450.24-72.48C451.68-71.52 457.92-70.08 463.68-69.12C473.76-66.72 476.16-66.72 487.20-69.12C511.20-73.92 529.92-85.92 572.16-124.80C584.64-135.84 592.32-144 592.32-145.44C590.88-151.68 586.08-148.32 564-127.68C528-94.56 509.76-82.08 489.60-76.80C478.56-73.92 465.12-74.40 455.52-78.24L448.80-81.12L449.76-88.32C450.24-92.16 451.20-96.48 451.68-98.40C451.68-100.32 463.20-113.76 476.64-128.16C502.08-155.04 509.76-166.56 506.88-170.88C505.92-172.32 504.00-173.76 502.08-173.76C498.24-173.76 497.76-172.80 493.92-163.68C492.00-158.88 457.92-120 455.04-118.56C454.56-118.56 454.08-119.52 454.56-120.96C454.56-122.40 456.96-134.40 458.88-147.84C466.08-190.08 479.04-245.28 494.40-296.64C499.20-313.92 504.00-330.24 504.00-333.60C504.00-339.36 504.00-339.84 500.64-339.84C497.28-339.84 496.32-338.88 493.92-328.32C492.48-322.08 488.16-305.28 483.84-290.88C468.00-235.68 455.52-179.52 448.32-131.52C445.44-112.80 443.52-104.64 441.12-101.28C436.32-94.56 435.36-89.28 438.24-83.04C440.64-78.24 441.12-76.32 439.68-64.32C438.72-57.12 438.24-36.96 437.76-19.20C437.76 5.76 438.24 12.96 439.68 14.88ZM657.60-95.04C660.48-91.68 667.20-91.68 672.96-96C679.68-100.32 712.32-142.08 711.84-144.96C711.84-146.40 710.40-147.84 708.96-147.84C707.04-148.32 702.24-143.04 693.12-130.56C672-101.76 664.80-95.52 661.44-102.72C660.96-104.16 660-118.08 659.52-133.44C658.56-164.16 657.60-166.56 649.92-166.56C642.72-166.56 629.76-152.16 600.48-113.76C596.16-108 591.84-103.20 591.36-103.20C588.48-103.20 589.92-114.72 594.24-132.96C600.00-156.96 602.40-164.64 606.72-167.52C611.04-171.36 609.12-175.68 603.36-175.68C600.48-175.68 598.08-174.24 596.64-171.84C593.76-167.52 584.64-132.48 582.24-115.20C580.32-103.68 580.32-102.72 583.20-98.88C590.40-89.76 595.20-93.12 614.88-119.52C622.56-129.12 633.12-142.08 638.88-148.32L649.44-159.36L650.40-132.96C651.36-107.04 652.80-100.32 657.60-95.04ZM700.32-81.60C703.68-79.20 704.16-79.20 707.04-81.12C710.88-83.52 713.76-87.84 725.28-108.96C734.88-127.20 746.40-141.60 747.84-137.76L751.68-126.72C758.88-106.08 771.84-99.84 789.12-108.48C799.20-113.28 802.56-117.12 800.16-120.48C797.76-123.36 797.28-123.36 787.20-117.12C782.40-114.24 776.64-111.84 774.24-111.84C768.96-111.84 761.76-120 758.40-130.56C754.08-144 752.16-146.88 747.36-146.88C745.44-146.88 742.08-145.92 740.16-144.48C735.36-141.12 724.80-125.76 714.72-107.52C710.40-98.88 705.60-91.20 704.64-90.24C702.72-88.32 704.16-105.12 707.52-130.08C709.92-144.96 710.40-147.36 713.28-148.32C718.08-150.24 718.56-153.12 716.64-159.84C713.76-168.48 708.00-169.92 705.12-162.72C702.72-156 696.96-114.24 696.96-99.36C696.48-85.44 696.96-84.48 700.32-81.60ZM954.24 19.20C981.12 27.84 1025.28 1.44 1058.40-42.72C1093.92-89.76 1106.88-135.36 1086.72-142.08C1079.04-144.96 1069.44-144.48 1068.00-141.12C1065.60-136.80 1068.48-134.88 1076.64-134.88C1085.76-134.88 1088.16-132 1087.68-121.92C1087.68-112.32 1080.48-94.08 1069.92-76.32C1041.60-27.84 1003.20 5.28 970.08 11.04C955.20 13.44 940.80 3.36 935.52-13.44C930.72-26.40 931.20-61.44 936.00-82.56C943.68-118.08 952.80-144 970.08-179.52C999.36-238.56 1031.52-284.64 1071.84-324.96C1095.36-348.48 1108.32-358.56 1125.60-367.68C1150.08-379.68 1162.08-372 1156.80-348C1152.96-331.68 1138.08-302.40 1121.28-280.32C1106.88-260.64 1083.36-236.16 1074.24-230.88C1066.08-226.56 1064.16-223.20 1068.00-219.84C1073.28-214.56 1082.88-220.80 1103.04-242.88C1122.24-263.52 1133.28-277.44 1144.80-297.12C1164.48-331.68 1171.68-356.64 1164.48-370.56C1157.76-383.52 1141.44-386.40 1122.72-377.28C1082.88-358.56 1026.72-298.08 986.88-232.32C948.96-169.44 927.84-111.84 922.56-57.60C918.24-15.84 929.76 12 954.24 19.20ZM1128.96-68.16C1132.80-64.32 1136.16-64.32 1140.00-67.68C1143.84-71.04 1143.36-75.36 1138.08-80.64C1132.32-85.44 1132.32-85.44 1128.96-82.08C1125.12-78.72 1125.12-72 1128.96-68.16Z" fill="#000000"/>
  </g>
</svg>