<svg width="1305" height="822" viewBox="0 0 1305 822" xmlns="http://www.w3.org/2000/svg">
  <g transform="translate(9.6, 534.3000000000001)">
    <path d="M239.04-372.96L233.28-372.96C216.48-372.96 201.12-369.60 183.36-365.76C156-358.56 131.04-347.04 106.56-333.12C81.12-318.24 58.56-300.96 39.36-277.92C20.16-255.36 6.72-229.44 3.36-199.20C2.88-193.92 2.40-189.12 2.40-183.84C2.40-162.72 8.64-142.56 22.08-124.80C28.80-115.68 36.96-107.52 46.08-100.80C48.48-98.88 49.92-96.96 49.92-94.08C49.92-93.60 49.44-92.64 49.44-91.68C46.08-72 42.72-52.32 42.72-32.16C42.72-24.96 43.20-17.76 44.16-10.56C46.08 6.24 48.96 22.56 56.64 37.92C64.80 55.20 75.84 70.56 91.68 81.60C111.84 95.04 133.44 100.80 156 100.80C161.76 100.80 167.52 100.32 173.28 99.84C207.84 96 239.04 82.08 267.36 62.40C285.60 49.92 301.92 35.04 316.32 18.24C334.08-2.40 348.96-25.44 361.92-49.92C372.96-70.56 381.60-92.64 388.32-115.20C396-142.08 401.28-169.44 401.28-197.76C401.28-204.48 400.80-211.68 400.32-218.40C397.92-243.36 392.16-267.36 380.64-289.44C370.08-309.12 356.64-325.44 339.36-338.88C310.08-361.44 277.44-372.96 239.04-372.96ZM56.16-24.96L56.16-30.72C56.16-46.08 58.08-64.32 62.40-82.56C62.40-83.52 62.88-84.48 62.88-85.44C63.36-86.88 63.84-87.84 65.28-87.84C65.76-87.84 66.24-87.84 67.20-87.36C68.16-86.88 68.64-86.88 69.60-86.40C90.72-76.80 112.80-71.52 135.84-68.16C149.76-65.76 163.68-64.32 177.60-63.84C184.80-63.36 192-62.88 199.20-62.88L204-62.88C221.76-63.36 239.52-64.32 256.80-68.64C267.36-71.04 277.44-75.36 285.60-82.56C287.52-84 289.44-85.92 290.88-87.84C291.84-88.80 292.80-89.76 292.80-91.20C292.80-91.68 292.32-92.64 291.84-93.12C291.36-93.60 290.88-93.60 289.92-93.60C288.96-93.60 287.52-92.64 286.08-92.16C285.60-91.20 284.64-90.72 283.68-89.76C276.48-80.64 266.88-76.32 255.84-73.44C244.80-70.56 233.28-69.12 221.76-68.64C214.08-68.16 206.40-68.16 198.72-68.16C191.04-68.16 183.36-68.16 175.68-68.64C158.88-70.08 143.04-72 126.72-74.88C108.48-78.24 90.72-83.04 73.92-91.20C72.96-91.68 71.52-92.16 70.56-93.12C67.20-95.04 66.24-96 66.24-98.40C66.24-99.36 66.24-100.32 66.72-101.76C67.20-105.12 68.16-108 69.12-110.88C77.28-137.76 86.88-164.16 99.84-189.12C111.84-212.64 124.80-235.68 141.60-256.80C154.56-273.60 168.96-289.44 186.24-301.92C192.96-306.72 200.16-311.04 207.84-313.92C214.08-316.32 220.32-317.28 226.08-317.28C240.48-317.28 252.48-310.56 262.56-299.04C279.84-279.36 288-255.84 289.44-229.92C289.92-226.08 290.40-222.24 291.36-217.92C291.84-215.52 292.80-213.12 295.68-212.64C296.16-212.64 296.64-212.16 297.12-212.16C298.56-212.16 299.52-213.60 299.52-215.04L299.52-216C296.64-224.64 297.60-233.28 296.64-241.92C293.28-265.44 286.08-287.52 269.76-304.80C256.80-318.72 241.92-325.44 224.64-325.44C218.88-325.44 212.16-324.48 205.92-323.04C191.04-319.20 178.08-311.04 166.08-300.96C150.24-288 136.32-273.12 123.84-256.80C112.32-242.40 102.72-226.56 94.08-210.24C81.60-187.20 70.56-163.20 62.40-138.24C59.52-130.08 56.64-121.92 54.72-113.28C54.24-111.84 53.76-110.40 53.28-108.48C52.80-107.04 52.32-106.08 51.36-106.08C50.40-106.08 49.44-106.56 48.48-107.52C41.28-112.80 35.04-119.04 29.76-126.72C17.28-143.52 11.04-163.20 11.04-183.84L11.04-190.56C12.48-214.08 19.68-235.68 32.64-255.36C47.04-277.92 65.28-296.16 86.40-311.52C122.40-337.92 161.76-357.12 205.92-364.80C216.96-366.72 228-367.68 239.04-367.68C260.64-367.68 281.76-363.84 302.40-353.76C315.84-347.52 327.84-339.36 338.88-329.28C348.96-320.16 358.08-310.56 365.28-299.04C380.16-276 388.32-250.56 390.72-223.20C391.68-215.52 391.68-207.84 392.16-200.16L392.16-196.80C392.16-169.92 386.88-144.48 380.16-118.56C374.88-97.92 367.20-78.24 358.08-59.52C345.60-34.08 330.24-10.08 312 11.52C292.80 34.08 270.72 53.76 244.80 68.64C221.28 82.08 196.32 91.68 168.96 94.56C165.12 95.04 161.28 95.04 157.44 95.04C135.84 95.04 115.68 89.28 97.92 75.84C82.56 64.32 72.48 48.96 65.28 30.72C58.56 13.44 56.16-4.32 56.16-24.96ZM444.96-13.44L444.96-16.80C444.48-23.52 442.08-26.88 436.80-26.88C435.84-26.88 434.40-26.88 432.96-26.40C430.56-25.92 428.16-25.44 425.76-24.48C419.52-22.56 413.28-21.60 407.04-21.12L405.12-21.12C402.24-21.12 400.80-21.60 400.80-24C400.80-24.96 401.28-25.92 401.76-27.84C403.20-31.20 404.16-34.08 405.12-37.44C405.12-38.40 405.60-39.36 405.60-40.32C405.60-41.76 405.12-43.20 403.68-44.16C402.24-45.12 400.80-45.60 399.36-45.60C398.40-45.60 396.96-45.60 396-45.12C390.72-42.72 388.32-37.92 386.40-32.64C385.44-30.72 384.96-28.80 384.96-26.88C384.96-21.60 388.80-18.24 395.04-16.32C397.44-15.84 399.36-15.84 401.76-15.84L405.12-15.84C411.84-16.80 418.56-19.20 425.28-20.64C427.68-21.12 429.60-21.60 431.04-21.60C433.92-21.60 434.88-20.16 434.88-17.28C434.88-15.84 434.88-14.40 434.40-12.48L432.96-3.84C432.48-1.92 432.48 0 432.48 1.92C432.48 5.28 432.96 8.64 433.92 12C435.84 18.72 440.64 22.56 447.36 22.56C449.28 22.56 451.20 22.08 453.12 21.60C456.48 20.16 459.36 18.24 461.76 15.84C470.40 6.72 478.08-3.36 486.24-12.96C487.68-14.40 490.56-16.32 490.56-18.24C490.56-18.24 490.56-18.72 490.08-19.20C489.60-19.68 489.12-19.68 488.16-19.68C486.24-19.68 484.80-16.80 483.36-15.36C475.68-6.72 467.52 1.44 459.36 9.60C457.92 11.52 456 12.96 454.56 14.40C452.16 16.32 450.24 17.28 448.80 17.28C446.88 17.28 445.44 15.36 444.48 11.04C444 8.64 443.52 6.24 443.52 3.36C443.52 0.96 444-1.44 444-3.84C444.48-7.20 444.96-10.08 444.96-13.44ZM496.32-2.88C495.84-5.76 495.84-8.64 495.84-11.04C495.84-14.88 496.32-18.72 497.28-22.56C497.28-24 498.72-25.44 499.68-26.40C507.84-33.60 514.56-41.76 521.28-50.40C532.80-66.24 540.96-83.52 547.68-101.76C557.76-127.68 566.40-154.08 571.68-181.44C574.56-197.28 577.44-212.16 577.44-228C577.44-232.80 576.96-238.08 576.48-242.88C574.56-256.32 571.20-268.80 564.48-279.84C562.08-283.68 559.20-287.04 554.88-289.44C552.48-290.40 550.08-291.36 547.20-291.36C540.96-291.36 534.72-288 529.92-282.24C524.64-275.04 520.32-266.88 516.96-258.72C509.28-240 504-221.28 500.16-201.60C494.40-172.32 490.56-143.04 488.64-113.28C487.68-105.12 488.16-96.96 486.72-88.80C485.76-80.16 485.76-71.52 485.76-62.88L485.76-53.76C485.76-48 485.76-42.24 485.28-36.48L485.28-29.28C485.28-19.68 485.76-9.60 485.76 0.48C485.76 1.92 485.76 3.36 486.24 4.32C486.72 8.16 489.60 10.56 492.96 10.56C493.92 10.56 495.36 10.08 496.32 9.60C498.24 8.64 499.68 6.72 500.64 5.28C503.52 1.44 506.88-2.40 509.76-6.24C510.72-7.68 511.68-8.16 512.64-8.16C513.12-8.16 514.08-8.16 515.04-7.68C520.80-5.28 527.04-4.80 533.28-4.32C544.32-3.36 555.36-1.44 565.44 2.40C573.60 5.76 579.84 11.04 581.76 20.16C581.76 21.12 582.24 22.08 582.72 23.04C583.68 24.48 584.16 25.92 586.08 25.92L587.04 25.92C588.48 25.44 589.44 24.48 589.44 23.04C589.44 22.56 588.96 22.08 588.96 21.60C588.48 12.96 584.64 6.24 577.44 1.92C572.64-0.48 567.84-2.88 562.56-4.32C551.52-7.68 540-9.12 528.48-10.08C525.60-10.08 521.76-10.08 520.32-13.44C519.84-13.92 519.84-14.88 519.84-15.36C519.84-17.76 522.24-19.68 523.68-21.60C528-27.36 533.28-32.64 538.56-36.96C543.36-40.80 547.20-45.12 551.52-48.96C552-49.92 552.96-50.88 552.96-51.84C552.96-52.32 552.48-52.80 552-53.28C551.52-54.24 551.04-54.24 550.08-54.24C549.12-54.24 548.64-54.24 547.68-53.76C545.76-53.28 544.80-51.84 543.36-50.40C540.96-48.48 539.04-46.08 536.64-44.16C527.52-36 518.88-27.84 510.72-18.72C506.40-12.96 501.12-8.16 496.32-2.88ZM498.24-33.60C496.80-34.08 496.80-35.52 496.80-36.48L496.80-53.28C496.80-58.56 497.28-64.32 497.76-69.60C498.24-70.56 498.24-71.04 498.24-72C498.24-92.64 500.16-113.28 502.08-133.92C504-154.56 506.88-175.20 510.24-195.84C514.56-217.44 519.84-238.56 528-258.72C530.40-264.48 533.28-270.24 536.16-275.52C537.60-277.92 539.52-280.80 541.44-282.72C543.84-285.12 545.76-286.08 547.68-286.08C549.60-286.08 551.52-285.12 553.44-282.72C558.24-277.92 561.60-272.16 564-265.92C569.28-252.96 571.20-239.52 571.20-225.60C571.20-220.32 570.72-214.56 570.24-209.28C567.84-181.92 560.64-156 552.48-130.56C546.72-112.80 540-95.04 531.84-78.72C524.16-63.36 515.52-48.96 503.04-36.96C501.60-35.52 500.64-33.60 498.24-33.60ZM656.16-24.96C656.16-19.68 656.16-15.84 656.64-11.52C657.12-1.92 663.36 2.88 671.52 2.88L674.88 2.88C677.28 2.40 679.68 1.92 681.60 0.96C690.72-2.40 698.88-7.68 706.56-12.96C707.52-13.44 708.48-14.40 708.96-15.36C709.44-15.84 709.92-16.32 709.92-16.80L709.44-17.76C708.96-18.24 708.48-18.72 708-18.72C707.52-18.72 707.04-18.24 706.56-18.24C705.12-17.76 704.16-16.80 702.72-15.84C694.56-10.08 685.92-5.28 676.80-1.92C675.36-1.44 673.92-0.96 672.48-0.96C668.16-0.96 664.32-4.32 663.36-10.08L663.36-27.36C662.88-31.20 661.44-32.64 659.04-32.64C658.08-32.64 657.12-32.64 655.68-31.68C653.28-30.24 651.36-28.32 649.44-26.40C641.76-20.16 634.08-13.44 624.96-9.12C623.52-8.64 622.08-7.68 621.12-7.68C620.16-7.68 619.68-7.68 619.20-8.16C617.76-9.12 617.28-10.56 617.28-11.52C617.28-12.48 617.76-13.44 617.76-14.40C619.20-19.20 620.64-24 624-27.84C624.48-28.80 625.44-30.24 625.44-31.20C625.44-32.16 625.44-32.64 624.96-33.12C624-35.04 621.60-35.52 619.68-35.52C615.36-35.52 612-33.12 609.60-29.28C607.20-24.96 605.76-20.16 605.28-15.36L605.28-14.40C605.28-6.72 609.60-1.92 616.80-1.92C618.24-1.92 619.68-1.92 621.12-2.40C623.04-2.88 624.96-3.36 626.88-4.32C631.68-7.20 636.48-10.56 640.80-13.92C645.60-17.28 649.44-22.08 656.16-24.96ZM719.04-21.12C717.12-21.60 716.64-23.52 715.20-24C714.24-24.48 712.80-24.96 711.84-24.96C708.96-24.96 706.56-23.04 706.08-20.16C705.60-17.28 705.12-14.88 705.12-12C705.12-9.12 705.60-5.76 707.04-2.88C708-0.48 709.92 0.48 711.84 0.48C713.28 0.48 715.20-0.48 716.64-2.40C717.12-3.36 718.08-4.32 718.56-5.76C722.40-16.32 729.12-24.96 736.32-33.12C739.68-36.96 743.52-40.32 748.32-42.72C749.28-43.20 750.24-43.68 750.72-43.68C752.16-43.68 753.12-42.72 753.60-40.32C755.04-35.04 755.04-29.28 755.04-23.52C755.52-14.88 756.48-5.76 760.32 2.40C762.72 7.20 767.04 9.60 772.32 10.08L774.24 10.08C776.64 10.08 779.52 9.12 782.40 8.16C792.96 3.36 800.16-5.76 807.84-13.92C808.32-13.92 808.32-14.40 808.32-14.88C808.80-15.84 809.28-16.32 809.28-16.80C809.28-17.28 808.80-17.76 808.32-18.24C807.84-18.72 807.36-18.72 806.88-18.72C806.40-18.72 805.44-18.24 804.96-17.76C804-16.80 803.04-15.36 802.08-14.40C795.36-8.16 789.60-0.96 781.44 3.84C778.56 5.28 776.64 5.76 774.24 5.76C770.88 5.76 768 3.36 766.08-1.92C764.16-7.68 763.20-13.44 763.20-19.68C763.20-25.92 762.72-32.64 761.76-38.88C760.80-45.60 757.44-49.44 752.64-49.44C750.72-49.44 748.32-48.96 745.92-47.52C742.56-46.08 739.68-43.68 736.80-41.28C730.08-35.04 724.80-27.84 719.04-21.12ZM925.44-50.88L925.44-38.40C925.44-15.84 930.24 6.24 941.28 27.36C954.24 52.80 974.40 71.04 999.84 83.04C1015.68 90.24 1032.48 93.60 1050.24 93.60C1056.96 93.60 1063.68 93.12 1070.40 92.16C1097.28 88.32 1121.76 78.24 1145.76 66.24C1170.24 54.24 1192.80 40.32 1213.44 22.56C1221.12 16.80 1226.88 9.60 1231.68 0.96C1233.12-2.40 1234.08-5.28 1234.08-8.64L1234.08-11.04C1234.08-12.48 1233.60-13.92 1233.12-14.88C1232.16-16.32 1231.20-17.28 1229.76-17.28L1228.80-17.28C1226.88-16.80 1226.40-15.36 1226.40-13.44C1226.40-12 1226.88-11.04 1226.88-10.08C1226.88-3.84 1224 1.44 1220.16 5.76C1213.92 12.96 1207.20 19.68 1200 25.44C1179.36 41.28 1157.28 54.24 1133.76 65.28C1117.44 72.48 1100.64 79.20 1082.88 83.52C1072.32 85.92 1061.76 87.36 1051.68 87.36C1035.84 87.36 1020.48 84 1005.60 76.32C974.88 60.96 955.68 35.52 945.60 2.88C941.28-12 939.36-26.88 939.36-41.76C939.36-49.92 939.84-57.60 940.80-65.76C944.64-98.40 954.72-129.60 968.16-159.36C983.04-192.48 1001.76-223.20 1024.32-251.52C1042.08-273.60 1060.80-294.24 1081.92-312.48C1099.68-328.32 1118.40-342.72 1139.04-354.24C1152.96-361.92 1167.84-368.64 1184.16-371.52C1188-372 1191.84-372.48 1195.20-372.48C1208.64-372.48 1220.64-368.16 1230.24-356.64C1236.96-348.48 1240.80-339.36 1243.20-329.28C1245.12-321.60 1246.08-313.44 1246.08-305.76C1246.08-295.20 1244.64-285.12 1242.72-274.56C1238.40-251.04 1231.20-228.96 1221.12-207.36C1217.76-200.16 1214.40-192.48 1211.52-185.28C1211.04-184.32 1210.56-183.36 1210.56-182.88C1210.56-181.44 1211.52-180.48 1212.96-180L1213.44-180C1215.36-180 1215.84-181.44 1216.80-183.36C1218.72-187.68 1220.64-192 1223.04-196.80C1234.56-220.32 1245.12-244.80 1250.40-270.72C1253.28-282.72 1254.72-294.72 1254.72-307.20C1254.72-316.32 1253.76-325.44 1251.84-334.56C1246.56-357.12 1230.24-373.44 1208.16-377.76C1203.36-378.72 1199.04-379.20 1194.24-379.20C1188.48-379.20 1182.24-378.24 1176.48-377.28C1148.64-372.48 1124.64-358.56 1101.60-343.20C1086.24-332.64 1071.84-320.16 1057.92-307.68C1041.60-293.76 1027.68-277.92 1014.24-262.08C997.92-241.92 983.52-220.80 970.56-198.72C956.64-174.24 945.60-148.80 937.44-121.44C930.24-98.88 925.44-75.36 925.44-50.88ZM1273.44 8.64C1278.24 8.64 1283.04 4.80 1283.04 0.48L1283.04 0C1283.04-5.28 1278.72-9.60 1273.92-10.08C1268.64-10.08 1264.80-6.24 1264.80-0.48C1264.80 4.80 1268.16 8.64 1273.44 8.64Z" fill="#000000"/>
  </g>
</svg>