<svg width="1023" height="426" viewBox="0 0 1023 426" xmlns="http://www.w3.org/2000/svg">
  <g transform="translate(0.6336557724673142, 276.90000000000003)">
    <path d="M229.84-83.30C260.10-129.54 286.96-184.62 294.44-240.04C295.80-250.92 296.14-262.14 293.08-273.02C286.96-294.78 270.98-306 249.22-306C209.78-306 167.96-266.56 143.48-239.02C142.46-238.00 141.44-236.98 140.08-235.62C139.06-236.64 138.04-237.32 137.36-238.00C134.64-240.38 131.92-241.40 129.54-241.40C124.10-241.40 119.00-235.96 115.94-232.22C110.84-225.42 105.40-218.62 100.98-211.82C61.88-150.62 23.12-58.48 13.26 13.94C11.56 28.22 10.54 42.16 12.24 56.44C13.94 76.16 22.10 95.20 44.88 95.20C104.38 95.20 199.92-37.74 229.84-83.30ZM18.02 55.42C15.98 38.42 17.68 22.10 20.40 5.44C31.28-62.56 67.66-145.18 104.38-202.98C108.80-209.78 113.90-216.58 118.66-223.38C120.70-226.10 123.42-228.48 126.14-230.86C128.86-233.58 129.54-233.24 132.26-230.52C132.94-229.84 133.28-229.16 133.96-228.14C93.50-177.48 62.22-118.32 51.68-54.06C49.64-39.78 48.62-25.50 51.34-11.22C54.40 6.46 64.94 23.46 84.66 23.46C116.28 23.46 147.56-19.38 161.16-44.54C163.20-48.28 164.90-52.02 166.26-56.10C166.60-57.80 166.60-60.18 166.26-61.88C165.58-64.60 163.20-65.62 160.82-65.62C158.78-65.28 157.08-63.92 156.74-61.20C155.38-41.14 113.56 14.28 87.04 15.98C77.86 17 70.38 13.60 64.94 6.12C59.84-1.36 57.46-9.86 56.44-18.70C54.40-35.70 56.78-52.70 60.52-69.02C73.10-127.50 100.30-174.42 136.34-220.66C137.36-222.02 139.06-223.04 140.76-224.06C142.46-224.74 143.14-225.76 143.82-227.80C144.16-229.16 144.50-230.52 145.52-231.54C167.28-255.68 202.98-290.02 235.96-297.50C243.44-299.20 250.58-299.54 258.06-298.52C272.68-295.80 281.86-286.96 286.28-273.02C289-264.18 289.34-255.00 288.66-245.82C280.50-150.96 200.26-42.84 137.36 25.84C117.64 47.60 75.82 88.74 43.86 88.74C25.50 88.06 20.06 70.72 18.02 55.42ZM281.52 31.62C289 27.20 295.80 18.70 300.90 11.90C315.52-7.82 338.30-46.92 350.88-67.66C352.58-70.38 352.24-72.42 350.88-73.44C349.18-74.46 347.14-73.78 345.44-71.06C329.12-43.52 312.46-16.66 294.78 9.86C291.38 14.62 286.96 18.70 282.88 23.12C281.86 24.48 280.50 25.16 278.46 26.52C279.82 15.64 281.86 5.44 285.60-5.10L293.08-28.56C297.84-42.16 301.92-55.76 305.66-69.70C306.34-73.44 306.68-77.52 306.34-81.26C305.66-87.38 302.26-89.42 296.48-88.74C295.80-88.74 294.78-88.74 294.10-88.40C288.66-86.70 283.56-85 278.12-83.30C274.04-81.94 269.62-79.90 265.54-78.54C264.18-77.86 262.82-77.86 260.78-77.52C261.80-79.56 262.48-80.58 263.16-81.60C265.54-87.04 267.24-92.48 267.92-98.26C267.92-99.62 267.92-100.98 267.58-102.34C266.90-105.06 264.18-106.42 261.80-104.38C257.38-99.96 254.32-89.76 253.30-83.64C252.62-78.88 252.96-74.12 249.22-70.38C249.22-70.04 248.88-70.04 248.88-69.70C248.20-67.66 248.88-65.96 250.58-65.28C252.62-64.60 253.64-65.62 254.66-67.32C255.34-68.68 256.36-70.38 257.04-72.08C263.50-71.40 269.28-73.78 275.06-75.82C280.16-77.86 285.60-79.90 291.04-81.60C293.76-82.62 296.48-82.96 299.20-83.30C301.24-80.24 300.90-77.52 300.56-75.14C299.88-70.72 299.20-65.96 297.84-61.88C292.74-46.24 287.64-30.60 282.54-15.30C278.80-3.40 274.72 8.16 273.36 20.40C273.02 22.78 272.68 25.16 273.02 27.54C274.04 31.96 277.44 33.66 281.52 31.62ZM297.16 46.92C297.84 46.24 298.18 44.88 298.52 43.86C307.70 21.08 316.88-1.70 327.76-23.80C328.44-25.84 329.12-27.88 331.50-27.88C332.18-28.22 333.20-29.24 333.20-29.92C333.88-34 336.60-37.06 338.64-40.12C339.66-42.16 341.36-42.50 343.74-42.50C350.20-41.82 356.66-41.48 363.12-41.48C390.66-42.16 420.24-45.56 443.70-60.86C445.40-61.88 446.76-63.58 448.12-65.28C448.46-65.96 448.46-67.66 447.78-68.34C447.10-69.02 445.40-69.02 444.38-69.02C443.70-69.02 443.36-68.34 442.68-68C434.86-61.54 425.34-57.12 415.48-54.40C394.74-48.62 373.32-46.24 351.90-47.26C350.54-47.26 349.52-47.60 347.82-47.94C349.52-49.30 350.54-50.32 351.56-51.00C364.14-62.56 376.72-74.12 387.94-87.04C391-90.10 393.72-93.50 396.44-97.24C397.46-98.26 398.14-99.62 398.82-101.32C399.50-102.68 399.84-104.38 398.14-106.08C396.78-107.44 395.08-107.44 393.38-106.76C392.36-106.42 391.34-105.74 390.32-105.40C388.96-104.38 387.60-103.02 385.90-102.00C376.72-94.52 368.56-85.68 360.40-76.84C356.66-72.42 352.58-67.66 348.84-63.24C348.50-63.58 348.50-63.58 348.16-63.58C348.84-64.60 349.18-65.62 349.86-66.64C361.76-90.10 373.66-113.22 385.56-136.34C386.58-138.38 387.94-140.42 389.30-142.12C408.68-167.28 427.04-194.82 441.32-223.38C442-225.08 442.68-226.78 442.68-228.48C442.68-231.54 439.96-233.24 437.24-231.54C435.88-231.20 434.86-230.18 433.84-228.82C432.14-226.78 430.44-224.40 428.74-221.68C412.42-198.90 398.48-174.76 386.58-149.60C384.88-146.54 383.18-143.48 381.14-141.10C371.96-129.54 362.78-118.66 353.26-107.44C352.58-106.08 351.22-105.06 350.54-103.70C349.52-102.34 349.86-100.64 351.22-99.62C352.58-98.60 353.94-98.94 355.30-100.30C355.98-100.98 356.32-101.66 357-102.34C361.42-107.44 365.84-112.54 370.26-117.64C370.26-115.94 369.58-114.58 368.90-113.22C358.36-93.16 348.16-73.44 337.96-53.38C336.26-50.32 334.56-48.28 330.82-47.26C326.40-45.90 322.66-43.18 319.94-39.10C318.92-37.74 318.58-36.04 319.60-34.68C320.62-33.66 322.32-33.32 323.68-32.98C324.70-32.64 325.72-33.32 327.42-33.66C326.40-31.62 325.72-30.26 325.04-28.90C314.50-4.76 303.62 19.38 293.08 43.86C292.74 44.20 292.40 44.54 292.40 44.88C293.08 45.90 293.08 47.60 294.10 47.94C295.12 48.96 296.48 48.28 297.16 46.92ZM419.90-198.90C419.90-197.54 419.22-196.18 418.54-195.16C418.54-195.50 418.20-195.50 417.86-195.50ZM415.48-192.10C415.82-192.10 416.16-191.76 416.16-191.42C415.48-190.40 414.80-189.38 413.78-188.70ZM385.22-91.80C379.44-85.68 373.32-79.56 367.54-73.44C368.56-77.52 380.12-89.42 385.22-91.80ZM440.30-31.28C443.70-32.30 446.76-33.66 449.48-36.04C455.26-40.46 460.70-45.56 466.14-50.32C471.24-55.42 476.34-60.52 481.44-65.62C482.46-66.30 483.14-66.98 484.16-67.66C484.16-62.90 483.82-58.48 484.16-54.40C485.52-45.22 491.98-39.78 499.46-39.78C505.24-39.78 513.06-44.54 516.46-49.30C521.90-55.08 526.66-61.20 531.76-67.32C532.44-68 533.12-69.02 533.12-69.70C533.12-71.06 532.78-72.42 532.10-73.10C531.08-74.46 529.72-74.12 528.70-73.10C527.68-72.42 527-71.40 526.32-70.38C522.58-65.96 519.18-60.86 515.10-56.44C511.70-52.36 504.56-45.90 498.78-45.90C494.02-45.90 490.28-49.64 489.94-55.76C489.60-59.50 489.94-63.24 490.28-66.64C490.62-69.02 491.30-71.40 491.64-73.78C491.98-75.48 491.64-77.18 489.94-77.86C488.58-78.88 486.88-78.20 485.86-77.18C484.16-76.16 482.46-74.80 481.10-73.44C473.96-66.30 467.16-59.16 460.02-52.36C454.92-47.60 449.48-43.18 444.04-38.76C442.34-37.40 440.30-36.04 437.92-36.38C436.56-38.42 436.90-40.46 437.58-42.84C439.28-49.98 442.34-56.78 445.74-63.58C446.76-65.28 447.44-66.64 449.82-67.32C450.50-67.32 451.52-69.02 452.20-70.04C453.22-72.76 452.88-75.14 451.18-76.16C449.48-77.18 447.44-76.50 445.74-73.44C439.28-63.92 434.86-53.72 432.14-42.50C431.80-40.46 431.80-38.42 432.14-36.38C432.82-31.96 436.22-29.92 440.30-31.28ZM524.28-30.60C525.64-31.28 526.66-31.96 527.68-32.98C531.42-36.72 534.82-40.80 538.22-44.88L545.70-54.06C548.76-57.46 551.82-60.86 554.88-64.26C556.24-61.88 557.26-59.84 558.28-58.14C561-53.38 563.38-51.34 567.12-51.34C568.82-51.34 570.52-51.68 572.90-52.70C579.70-55.42 586.16-59.16 592.96-62.56C593.30-62.90 593.98-63.24 594.32-63.92C595.68-64.94 596.02-66.30 595.34-67.66C594.32-69.36 592.62-69.02 591.26-68.68C590.24-68 589.56-67.32 588.54-66.64C582.76-63.58 576.98-60.52 571.20-57.80C566.78-55.76 565.42-56.44 563.38-60.52C562.02-62.56 561.34-64.94 559.98-66.64C557.60-70.04 554.88-70.72 551.48-68.34C549.10-66.30 546.72-63.92 544.68-61.54C539.92-55.76 535.16-49.98 530.74-44.20C529.04-42.16 527.34-40.12 525.64-38.08C525.30-38.08 524.96-38.42 524.62-38.42C527.34-50.66 530.40-62.90 535.16-74.80C535.50-75.82 536.86-76.50 537.54-77.18C538.22-78.20 539.24-79.22 538.90-79.90C538.90-80.92 537.88-81.94 536.86-82.62C535.50-83.30 533.46-82.96 532.44-81.26C531.76-80.24 531.42-79.22 530.74-77.86C525.98-65.28 522.92-52.02 519.86-38.42C519.52-37.06 519.18-35.02 519.52-33.32C519.86-30.60 521.90-29.58 524.28-30.60ZM788.12 70.38C854.08 59.16 940.10-1.02 983.96-54.40C985.32-55.76 986.68-57.80 987.36-59.50C988.38-61.88 987.36-64.26 985.66-65.28C983.62-66.30 981.58-65.96 979.88-63.92C979.20-63.58 978.86-62.90 978.18-62.22C976.82-60.18 975.12-57.80 973.76-56.10C930.92-4.42 861.22 47.94 794.24 63.58C781.66 66.30 769.42 67.66 756.84 65.62C735.08 61.88 727.26 47.26 725.22 27.54C724.54 16.66 726.24 6.12 729.30-4.08C749.36-80.92 810.56-157.08 869.04-207.74C894.54-229.84 930.92-255.00 964.58-262.82C972.74-264.52 980.90-265.88 989.06-264.18C998.58-262.48 1003-257.04 1003-247.18C1003-204.34 931.26-128.52 902.02-101.32C896.58-96.22 890.46-91.80 885.02-87.38C884-86.36 882.64-85.68 881.96-84.66C880.94-82.96 881.28-81.26 882.30-79.90C883.66-78.20 885.36-77.52 887.40-78.54C911.54-90.78 970.36-163.20 987.02-188.70C996.54-204.00 1009.12-227.12 1010.14-245.48C1010.82-260.10 1003-269.62 988.72-272C979.20-273.36 970.02-271.66 961.18-269.62C921.40-259.42 877.54-224.74 848.64-196.86C795.60-145.86 744.94-77.18 724.88-5.10C721.48 7.82 719.44 20.74 721.14 34.34C723.18 52.36 734.40 65.62 752.08 70.04C757.86 71.40 763.64 71.74 769.08 72.42C775.88 71.74 782 71.40 788.12 70.38ZM997.90-29.58C998.92-31.62 998.24-34.34 996.20-35.70C993.82-37.40 991.78-38.08 990.42-38.08C987.36-38.08 985.66-36.04 984.30-31.62C983.96-30.94 983.96-30.26 983.96-29.58C983.62-26.18 986.00-23.80 989.40-23.80C993.14-24.48 995.86-26.18 997.90-29.58Z" fill="#000000"/>
  </g>
</svg>