<svg width="510" height="259" viewBox="0 0 510 259" xmlns="http://www.w3.org/2000/svg">
  <g transform="translate(31.19881807057449, 168.35)">
    <path d="M123.27-52.43C122.11-55.59 120.70-58.67 118.97-61.57C117.23-64.46 115.15-67.18 112.63-69.48C110.12-71.77 107.15-73.61 103.89-74.66C103.33-74.84 102.76-74.99 102.19-75.13C102.19-75.54 102.18-75.95 102.17-76.36C102.09-79.79 101.73-83.23 100.91-86.62C100.50-88.32 99.98-90.00 99.29-91.63C98.60-93.26 97.76-94.85 96.70-96.33C96.18-97.06 95.61-97.78 94.97-98.44C94.66-98.77 94.32-99.08 93.99-99.40C93.64-99.70 93.29-100.01 92.92-100.28C92.19-100.85 91.40-101.35 90.57-101.77C89.75-102.20 88.89-102.57 88.01-102.84C87.12-103.12 86.22-103.33 85.31-103.45C84.86-103.53 84.40-103.56 83.95-103.60C83.49-103.62 83.04-103.65 82.58-103.64C80.77-103.64 78.99-103.40 77.27-102.99C73.82-102.17 70.62-100.76 67.62-99.08C66.11-98.24 64.67-97.34 63.25-96.37C61.82-95.40 60.45-94.34 59.15-93.22C56.55-90.96 54.20-88.45 52.05-85.80C47.78-80.47 44.34-74.58 41.46-68.47C38.58-62.36 36.26-56.01 34.36-49.56C30.57-36.65 28.38-23.32 27.53-9.92C27.12-3.22 27.05 3.50 27.39 10.21C27.73 16.92 28.46 23.61 29.72 30.23C30.39 33.75 31.21 37.25 32.22 40.70C24.73 47.28 16.87 53.44 8.72 59.19L8.71 59.20C7.74 59.90 7.51 61.26 8.21 62.23C8.90 63.21 10.26 63.43 11.23 62.74C18.97 57.21 26.45 51.31 33.61 45.04C34.14 46.58 34.73 48.12 35.35 49.63C36.65 52.76 38.17 55.80 39.96 58.70C41.75 61.59 43.81 64.34 46.23 66.78C48.64 69.22 51.41 71.35 54.48 72.94C57.55 74.53 60.92 75.57 64.34 75.99C67.77 76.43 71.24 76.25 74.60 75.68C76.29 75.39 77.95 74.99 79.59 74.50C81.22 74.01 82.82 73.40 84.39 72.72C90.64 69.97 96.15 65.79 100.86 60.95C105.57 56.09 109.54 50.59 112.93 44.79C116.32 38.98 119.15 32.86 121.48 26.57C123.81 20.28 125.66 13.81 126.93 7.21C127.56 3.92 128.01 0.57 128.29-2.77C128.59-6.10 128.77-9.45 128.85-12.80C129.00-19.49 128.70-26.21 127.85-32.86C126.99-39.50 125.59-46.11 123.27-52.43ZM32.10 29.78C30.90 23.29 30.22 16.69 29.92 10.09C29.62 3.48 29.72-3.15 30.17-9.75C31.07-22.96 33.30-36.09 37.09-48.75C39.00-55.07 41.30-61.27 44.14-67.20C46.97-73.13 50.34-78.81 54.44-83.87C56.50-86.39 58.73-88.75 61.18-90.85C62.41-91.90 63.69-92.88 65.02-93.77C66.35-94.67 67.74-95.53 69.15-96.31C71.98-97.87 74.95-99.14 78.00-99.84C81.04-100.56 84.19-100.63 87.01-99.72C87.72-99.50 88.39-99.20 89.05-98.86C89.70-98.52 90.32-98.12 90.91-97.66C91.21-97.44 91.48-97.19 91.76-96.95C92.03-96.69 92.31-96.44 92.56-96.16C93.08-95.62 93.55-95.02 93.99-94.40C94.87-93.16 95.59-91.78 96.19-90.34C96.79-88.90 97.25-87.38 97.62-85.84C98.35-82.74 98.68-79.52 98.74-76.28C98.74-76.09 98.74-75.89 98.74-75.70C97.09-75.84 95.43-75.82 93.79-75.65C90.41-75.30 87.13-74.36 84.01-73.10C80.88-71.84 77.91-70.24 75.06-68.47C74.84-68.34 74.78-68.05 74.91-67.83C75.05-67.61 75.34-67.54 75.56-67.67L75.56-67.67C78.38-69.41 81.31-70.96 84.38-72.18C87.44-73.40 90.64-74.29 93.89-74.61C95.51-74.77 97.13-74.78 98.74-74.62C98.72-71.93 98.52-69.24 98.20-66.55C97.41-60.07 95.88-53.66 93.89-47.39C91.88-41.13 89.42-35.01 86.59-29.05C83.77-23.10 80.59-17.30 77.13-11.68C73.67-6.06 69.92-0.61 65.94 4.66C57.96 15.20 49.05 25.02 39.44 34.11C37.72 35.75 35.96 37.35 34.19 38.93C33.36 35.92 32.67 32.86 32.10 29.78ZM127.38-12.84C127.29-9.52 127.08-6.21 126.78-2.91C126.48 0.40 126.02 3.66 125.38 6.91C124.10 13.40 122.24 19.79 119.91 25.98C117.57 32.17 114.75 38.19 111.39 43.88C108.02 49.56 104.11 54.93 99.50 59.62C94.91 64.31 89.56 68.29 83.58 70.89C82.09 71.53 80.56 72.10 79.01 72.56C77.45 73.02 75.86 73.38 74.26 73.66C71.06 74.18 67.80 74.33 64.61 73.90C61.42 73.49 58.32 72.52 55.48 71.02C52.64 69.53 50.07 67.54 47.81 65.23C45.54 62.92 43.59 60.30 41.89 57.51C40.19 54.73 38.74 51.78 37.50 48.74C36.77 46.97 36.12 45.17 35.52 43.35C37.81 41.31 40.07 39.23 42.29 37.11C52.00 27.82 61.01 17.78 69.07 7.01C73.09 1.63 76.88-3.94 80.38-9.69C83.88-15.44 87.09-21.37 89.94-27.47C92.80-33.58 95.29-39.86 97.32-46.31C99.33-52.76 100.87-59.38 101.67-66.14C101.97-68.75 102.15-71.37 102.19-74.01C102.64-73.89 103.10-73.76 103.55-73.61C106.64-72.60 109.45-70.84 111.85-68.63C114.25-66.41 116.25-63.78 117.93-60.95C119.61-58.12 120.96-55.10 122.09-52.00C124.33-45.79 125.69-39.26 126.50-32.69C127.30-26.11 127.56-19.46 127.38-12.84ZM177.58-17.33L177.58-17.32C175.71-16.29 173.80-15.33 171.84-14.56C170.86-14.18 169.86-13.84 168.85-13.59C167.85-13.33 166.83-13.15 165.83-13.11C164.83-13.07 163.85-13.17 162.96-13.48C162.06-13.77 161.27-14.27 160.59-14.93C159.91-15.58 159.34-16.39 158.81-17.26C158.28-18.14 157.80-19.08 157.16-20.07C156.83-20.57 156.46-21.08 155.90-21.56C155.63-21.80 155.29-22.03 154.91-22.20C154.53-22.37 154.09-22.47 153.68-22.49C153.28-22.52 152.80-22.47 152.41-22.34C152.00-22.22 151.66-22.05 151.35-21.86C150.74-21.48 150.26-21.04 149.83-20.59C148.97-19.70 148.32-18.75 147.71-17.78C147.10-16.82 146.56-15.84 146.05-14.85C145.07-12.91 144.20-10.94 143.40-8.94C143.54-10.24 143.71-11.54 143.88-12.83C144.07-14.18 144.26-15.54 144.47-16.87L144.47-16.89C144.49-17.00 144.50-17.11 144.50-17.23C144.49-18.43 143.50-19.40 142.30-19.39C141.10-19.38 140.13-18.40 140.14-17.19C140.15-15.79 140.18-14.41 140.22-13.03C140.26-11.64 140.31-10.25 140.38-8.87C140.46-7.48 140.55-6.09 140.68-4.69C140.75-3.99 140.83-3.29 140.95-2.57C140.96-2.48 140.98-2.39 141.00-2.30C140.90-1.64 141.11-0.98 141.54-0.51C141.54-0.51 141.54-0.51 141.54-0.50C141.64-0.36 141.72-0.18 142.06 0.01C142.20 0.09 142.36 0.12 142.51 0.11C142.55 0.12 142.58 0.13 142.62 0.14C143.78 0.43 144.96-0.28 145.25-1.44L145.26-1.47C145.76-3.47 146.35-5.52 146.99-7.52C147.63-9.52 148.33-11.50 149.13-13.41C149.53-14.37 149.97-15.30 150.44-16.20C150.91-17.08 151.43-17.94 152.00-18.64C152.29-18.99 152.59-19.30 152.88-19.51C153.02-19.61 153.15-19.69 153.26-19.73C153.38-19.78 153.44-19.80 153.58-19.81C153.80-19.81 154.00-19.76 154.28-19.57C154.56-19.36 154.86-19.03 155.15-18.65C156.31-17.09 157.39-14.97 159.25-13.42C160.17-12.64 161.28-12.05 162.45-11.75C163.62-11.45 164.82-11.42 165.95-11.54C167.09-11.67 168.18-11.94 169.23-12.29C170.29-12.63 171.30-13.06 172.29-13.52C174.26-14.46 176.12-15.56 177.93-16.74C178.08-16.84 178.13-17.03 178.05-17.19C177.95-17.36 177.75-17.42 177.58-17.33ZM213.40-17.73L213.37-17.71L211.37-16.21L210.87-15.83C210.71-15.71 210.54-15.59 210.36-15.48L209.31-14.79L208.27-14.11L207.74-13.77L207.20-13.46L205.03-12.22C202.09-10.66 199.07-9.24 195.95-8.04C192.84-6.84 189.68-5.79 186.48-4.88C184.88-4.43 183.27-4.01 181.65-3.63L180.43-3.35L180.35-3.34C180.29-4.34 180.25-5.35 180.21-6.35C180.40-6.59 180.60-6.83 180.80-7.07L182.07-8.59L183.38-10.07L184.68-11.55L186.04-12.97C187.82-14.89 189.72-16.68 191.69-18.27C192.19-18.66 192.68-19.06 193.19-19.38L193.95-19.89L194.71-20.32C194.97-20.48 195.21-20.57 195.46-20.68C195.58-20.73 195.70-20.80 195.82-20.84L196.16-20.94C196.27-20.97 196.38-21.01 196.46-21.01C196.51-21.01 196.57-21.02 196.63-21.03C197.59-20.67 198.70-21.02 199.25-21.93C199.87-22.96 199.55-24.29 198.52-24.92C198.40-24.99 198.27-25.05 198.14-25.10C198.07-25.13 198.02-25.14 197.95-25.16C197.83-25.20 197.71-25.23 197.59-25.25C197.39-25.28 197.22-25.29 197.04-25.30C196.84-25.32 196.72-25.30 196.57-25.29C196.42-25.27 196.28-25.25 196.13-25.24C195.86-25.19 195.65-25.12 195.41-25.05C195.16-24.99 194.96-24.91 194.76-24.82L194.17-24.56C193.99-24.47 193.82-24.37 193.65-24.27C193.31-24.07 192.95-23.88 192.67-23.65L191.76-23.00L190.94-22.31C190.37-21.85 189.88-21.36 189.38-20.87C187.42-18.90 185.67-16.83 184.05-14.67L182.83-13.07L181.67-11.42L180.51-9.79L180.11-9.19C180.10-9.52 180.09-9.84 180.09-10.17C179.94-16.79 180.02-23.44 180.20-30.07C180.39-36.71 180.69-43.35 181.12-49.97C181.34-53.28 181.59-56.59 181.90-59.88C182.06-61.52 182.24-63.15 182.46-64.76C182.57-65.56 182.69-66.36 182.83-67.12C182.91-67.50 182.99-67.87 183.07-68.18C183.08-68.23 183.10-68.28 183.11-68.33C183.47-68.72 183.69-69.23 183.69-69.80C183.69-71.00 182.72-71.97 181.52-71.97C181.31-71.97 181.09-71.94 180.88-71.88C180.78-71.85 180.68-71.81 180.58-71.77C180.49-71.73 180.46-71.71 180.39-71.67C180.28-71.61 180.16-71.53 180.06-71.45C180.01-71.41 179.95-71.36 179.92-71.33L179.84-71.25C179.75-71.15 179.63-71.02 179.57-70.93C179.52-70.86 179.47-70.78 179.43-70.71C179.38-70.62 179.36-70.58 179.33-70.52L179.25-70.36L179.14-70.09C179.02-69.77 178.95-69.51 178.89-69.26C178.77-68.77 178.68-68.33 178.61-67.88C178.46-67.00 178.34-66.15 178.25-65.30C178.05-63.60 177.90-61.92 177.76-60.24C177.50-56.89 177.31-53.54 177.15-50.20C176.84-43.51 176.66-36.83 176.60-30.14C176.54-23.46 176.58-16.77 176.85-10.07C176.92-8.25 177.02-6.44 177.14-4.63C176.45-3.54 175.78-2.45 175.10-1.38C175.04-1.27 175.02-1.15 175.05-1.04C174.96-0.70 174.95-0.34 175.04 0.02C175.33 1.19 176.50 1.90 177.67 1.61C177.68 1.61 177.69 1.61 177.70 1.61C177.84 2.76 178.00 3.91 178.22 5.08C178.39 5.93 178.58 6.79 178.86 7.68C179.00 8.13 179.16 8.58 179.42 9.07C179.54 9.31 179.70 9.57 179.91 9.85C180.14 10.11 180.45 10.44 181.01 10.67C181.75 10.95 182.58 10.57 182.86 9.83C183.12 9.14 182.81 8.38 182.17 8.05C182.17 8.04 182.16 8.04 182.16 8.03C182.12 7.97 182.05 7.88 181.99 7.75C181.87 7.50 181.75 7.16 181.64 6.81C181.43 6.11 181.27 5.34 181.14 4.55C180.93 3.33 180.78 2.07 180.66 0.80L181.46 0.57L182.69 0.18C184.34-0.33 185.97-0.89 187.58-1.48C190.81-2.66 193.98-3.99 197.08-5.46C200.18-6.94 203.18-8.63 206.08-10.46C208.96-12.32 211.68-14.44 214.22-16.75C214.46-16.97 214.50-17.34 214.30-17.61C214.09-17.89 213.69-17.95 213.40-17.73ZM196.70-21.04C196.72-21.03 196.74-21.03 196.77-21.03C196.78-21.03 196.82-21.03 196.79-21.02C196.77-21.01 196.76-21.02 196.73-21.02C196.71-21.02 196.69-21.03 196.66-21.03C196.68-21.04 196.69-21.04 196.70-21.04ZM183.19-68.55C183.19-68.55 183.20-68.57 183.20-68.57C183.19-68.56 183.19-68.55 183.19-68.55L183.18-68.54C183.18-68.54 183.19-68.55 183.19-68.55ZM182.15 8.04C182.11 8.02 182.07 8.00 182.03 7.98C182.09 8.01 182.13 8.03 182.15 8.04ZM246.71-17.86C246.48-18.02 246.16-17.97 246.01-17.74L246.00-17.73C243.85-14.61 241.54-11.58 239.05-8.77C237.79-7.37 236.49-6.02 235.10-4.83C234.40-4.24 233.68-3.70 232.94-3.27C232.21-2.85 231.44-2.53 230.86-2.55C230.22-2.56 229.78-2.79 229.36-3.29C228.94-3.78 228.62-4.52 228.39-5.32C227.93-6.94 227.78-8.77 227.74-10.59C227.71-12.41 227.80-14.27 227.96-16.12C228.04-17.04 228.14-17.97 228.25-18.89C228.37-19.81 228.50-20.75 228.65-21.62L228.66-21.64C228.66-21.68 228.67-21.72 228.67-21.77C228.79-22.87 227.99-23.86 226.89-23.97C225.79-24.09 224.80-23.29 224.68-22.19C224.66-21.99 224.65-21.80 224.63-21.61C223.87-19.03 223.03-16.47 222.08-13.98C221.53-12.55 220.96-11.15 220.31-9.79C219.67-8.43 218.96-7.10 218.13-5.98C217.72-5.43 217.25-4.91 216.83-4.65C216.38-4.39 216.30-4.49 216.14-4.60C216.06-4.66 215.94-4.80 215.83-5.00C215.71-5.21 215.59-5.47 215.50-5.75C215.30-6.33 215.17-7.00 215.07-7.69C214.89-9.07 214.85-10.54 214.88-12.01C214.92-13.48 215.02-14.96 215.20-16.41C215.20-16.48 215.21-16.57 215.21-16.64C215.23-17.85 214.26-18.83 213.06-18.84C211.86-18.86 210.88-17.90 210.86-16.69L210.86-16.69C210.84-15.07 210.91-13.48 211.04-11.88C211.18-10.28 211.39-8.67 211.79-7.04C212.00-6.23 212.25-5.40 212.64-4.56C212.84-4.14 213.08-3.71 213.41-3.29C213.73-2.87 214.16-2.43 214.75-2.12C215.05-1.96 215.38-1.85 215.72-1.80C216.06-1.74 216.38-1.75 216.74-1.79C217.43-1.92 217.96-2.23 218.37-2.55C219.19-3.21 219.67-3.94 220.12-4.65C220.98-6.10 221.56-7.57 222.10-9.05C222.63-10.53 223.08-12.02 223.50-13.51C223.80-14.64 224.08-15.77 224.35-16.90C224.34-16.70 224.33-16.51 224.33-16.31C224.29-14.35 224.32-12.39 224.49-10.41C224.57-9.42 224.69-8.43 224.87-7.43C225.05-6.43 225.29-5.43 225.65-4.42C226.02-3.42 226.50-2.38 227.38-1.46C227.81-1.01 228.37-0.60 229.00-0.34C229.64-0.09 230.33-0.00 230.96-0.05C231.12-0.05 231.28-0.07 231.44-0.11C231.60-0.14 231.76-0.16 231.91-0.20C232.19-0.30 232.49-0.38 232.75-0.50C233.00-0.62 233.27-0.74 233.49-0.88C233.73-1.02 233.97-1.15 234.18-1.30C235.05-1.90 235.81-2.56 236.53-3.25C237.95-4.63 239.21-6.12 240.40-7.64C242.77-10.70 244.88-13.89 246.86-17.19C246.99-17.42 246.93-17.71 246.71-17.86ZM283.84-17.13C283.72-17.27 283.50-17.28 283.36-17.16C281.46-15.48 279.51-13.86 277.48-12.36C275.45-10.88 273.34-9.50 271.10-8.49C269.99-7.99 268.84-7.58 267.70-7.41C266.56-7.22 265.44-7.31 264.52-7.74C263.59-8.16 262.86-8.94 262.30-9.91C261.74-10.87 261.35-11.99 261.03-13.15C260.72-14.32 260.49-15.53 260.26-16.78C260.14-17.41 260.03-18.04 259.88-18.70C259.81-19.03 259.72-19.38 259.61-19.73C259.50-20.10 259.37-20.47 259.09-20.95C258.95-21.17 258.72-21.47 258.36-21.73C258.14-21.86 257.93-21.99 257.64-22.04C257.35-22.12 257.10-22.11 256.84-22.08C256.70-22.06 256.62-22.03 256.51-22.00C256.42-21.98 256.29-21.93 256.23-21.90L255.94-21.77C255.75-21.67 255.55-21.58 255.38-21.46C254.67-21.03 254.13-20.53 253.61-20.01C252.61-18.97 251.80-17.86 251.08-16.73C249.64-14.46 248.48-12.11 247.42-9.73C247.02-8.83 246.64-7.92 246.27-7.01C246.31-7.67 246.36-8.34 246.42-9.01C246.54-10.39 246.70-11.78 246.89-13.16C247.08-14.54 247.29-15.95 247.53-17.29L247.53-17.32C247.55-17.40 247.55-17.49 247.56-17.58C247.61-18.78 246.69-19.80 245.49-19.85C244.28-19.91 243.27-18.98 243.21-17.78C243.14-16.30 243.11-14.88 243.10-13.43C243.09-11.98 243.11-10.54 243.16-9.08C243.22-7.63 243.31-6.17 243.50-4.69C243.60-3.96 243.73-3.21 243.92-2.44C244.02-2.06 244.14-1.66 244.30-1.26C244.35-1.16 244.40-1.05 244.45-0.95C244.50-0.84 244.55-0.74 244.63-0.62C244.71-0.51 244.76-0.40 244.86-0.29C244.96-0.17 245.07-0.05 245.18 0.06C245.40 0.26 245.70 0.37 246.00 0.34C246.01 0.34 246.02 0.34 246.04 0.35C247.19 0.67 248.39-0.01 248.71-1.17L248.71-1.19C249.03-2.35 249.40-3.56 249.78-4.74C250.17-5.92 250.58-7.09 251.01-8.26C251.88-10.57 252.85-12.86 254.01-14.96C254.60-16.01 255.24-17.00 255.95-17.83C256.25-18.17 256.57-18.49 256.88-18.74C256.96-18.51 257.04-18.26 257.11-18.00C257.28-17.43 257.43-16.82 257.58-16.20C257.89-14.97 258.20-13.70 258.63-12.43C259.05-11.16 259.58-9.89 260.37-8.69C260.76-8.10 261.23-7.53 261.79-7.03C262.35-6.54 263.01-6.12 263.72-5.84C265.15-5.29 266.69-5.31 268.03-5.61C269.40-5.90 270.63-6.45 271.80-7.05C274.14-8.28 276.21-9.83 278.19-11.47C280.16-13.11 282.02-14.86 283.83-16.66C283.95-16.79 283.96-16.99 283.84-17.13ZM256.60-19.32C256.61-19.31 256.61-19.30 256.62-19.30C256.58-19.33 256.58-19.35 256.60-19.32ZM431.14-18.62C429.68-16.84 428.51-14.96 427.38-13.06C426.26-11.16 425.20-9.23 424.18-7.30C422.13-3.42 420.18 0.49 418.24 4.40C414.36 12.22 410.52 20.05 406.45 27.74C402.38 35.42 398.11 43.01 393.28 50.19C390.87 53.78 388.31 57.27 385.51 60.52C382.71 63.76 379.66 66.80 376.22 69.19C374.50 70.37 372.67 71.37 370.76 72.06C370.28 72.22 369.80 72.38 369.31 72.50C369.07 72.57 368.82 72.62 368.58 72.67C368.33 72.72 368.06 72.77 367.80 72.82C367.28 72.92 366.76 73.00 366.24 73.08C365.72 73.17 365.20 73.22 364.68 73.28C360.49 73.72 356.25 73.46 352.26 72.28C350.27 71.71 348.36 70.88 346.55 69.88C344.74 68.86 343.05 67.63 341.49 66.26C338.37 63.49 335.82 60.08 333.77 56.39C331.73 52.69 330.17 48.71 328.97 44.61C327.77 40.51 326.92 36.29 326.33 32.04C325.15 23.52 324.97 14.85 325.34 6.21C325.53 1.89 325.87-2.43 326.33-6.73C326.79-11.04 327.34-15.34 328.05-19.60C329.48-28.12 331.49-36.56 334.05-44.81C336.62-53.06 339.76-61.13 343.67-68.79C345.62-72.62 347.79-76.32 350.20-79.85C352.61-83.36 355.28-86.69 358.28-89.66C361.27-92.61 364.60-95.20 368.26-97.11C371.91-99.04 375.91-100.19 379.98-100.43C380.49-100.47 381.00-100.46 381.51-100.48C382.01-100.48 382.49-100.46 382.97-100.42C383.94-100.34 384.89-100.18 385.80-99.91C387.62-99.39 389.30-98.45 390.75-97.20C392.20-95.94 393.42-94.37 394.45-92.64C395.47-90.91 396.30-89.02 396.99-87.06C398.35-83.13 399.16-78.95 399.68-74.72C400.19-70.49 400.41-66.20 400.44-61.90C400.48-57.60 400.32-53.29 400.02-48.99C399.86-46.84 399.68-44.69 399.45-42.54C399.23-40.41 398.97-38.24 398.66-36.16L398.65-36.13L398.65-36.12C398.48-34.93 399.30-33.83 400.49-33.66C401.67-33.49 402.77-34.31 402.95-35.50C403.27-37.74 403.51-39.90 403.74-42.11C403.95-44.30 404.13-46.50 404.28-48.70C404.56-53.10 404.70-57.52 404.65-61.94C404.59-66.37 404.34-70.81 403.78-75.24C403.21-79.66 402.34-84.09 400.82-88.41C400.05-90.56 399.12-92.68 397.91-94.70C396.70-96.71 395.21-98.63 393.35-100.22C391.50-101.82 389.27-103.05 386.89-103.71C385.70-104.06 384.49-104.25 383.28-104.35C382.68-104.40 382.07-104.42 381.48-104.41C380.90-104.38 380.32-104.39 379.74-104.34C375.09-104.05 370.53-102.70 366.47-100.54C362.40-98.39 358.78-95.54 355.59-92.36C352.39-89.17 349.60-85.65 347.09-81.96C344.59-78.27 342.37-74.42 340.37-70.47C336.38-62.56 333.21-54.29 330.63-45.87C328.05-37.45 326.05-28.85 324.63-20.17C323.92-15.82 323.38-11.45 322.94-7.08C322.50-2.71 322.19 1.68 322.01 6.07C321.69 14.87 321.92 23.72 323.19 32.48C323.82 36.87 324.72 41.22 326.00 45.49C327.27 49.76 328.93 53.94 331.13 57.87C333.34 61.78 336.11 65.45 339.54 68.47C341.26 69.97 343.12 71.31 345.13 72.42C347.14 73.52 349.26 74.42 351.46 75.04C355.86 76.32 360.50 76.56 364.98 76.06C365.54 75.99 366.10 75.93 366.65 75.83C367.21 75.75 367.77 75.66 368.32 75.55C368.60 75.49 368.87 75.45 369.15 75.38C369.44 75.32 369.73 75.26 370.01 75.18C370.58 75.03 371.14 74.85 371.69 74.65C373.88 73.85 375.91 72.72 377.77 71.43C381.49 68.82 384.65 65.61 387.53 62.25C390.40 58.87 392.99 55.29 395.43 51.63C400.30 44.30 404.56 36.63 408.62 28.88C412.67 21.12 416.48 13.25 420.31 5.42C422.23 1.51 424.15-2.40 426.16-6.25C427.16-8.18 428.19-10.08 429.28-11.94C430.37-13.80 431.50-15.64 432.81-17.24L432.81-17.25C433.19-17.71 433.13-18.39 432.66-18.77C432.20-19.15 431.52-19.08 431.14-18.62ZM437.38-4.64C436.20-4.64 435.24-3.69 435.24-2.50C435.24-1.32 436.20-0.36 437.38-0.36C438.57-0.36 439.52-1.32 439.52-2.50C439.52-3.69 438.57-4.64 437.38-4.64Z" fill="#000000"/>
  </g>
</svg>