<svg width="842" height="385" viewBox="0 0 842 385" xmlns="http://www.w3.org/2000/svg">
  <g transform="translate(30.308089708357357, 250.25)">
    <path d="M175.76-63.70C198.90-99.06 219.44-141.18 225.16-183.56C226.20-191.88 226.46-200.46 224.12-208.78C219.44-225.42 207.22-234 190.58-234C160.42-234 128.44-203.84 109.72-182.78C108.94-182 108.16-181.22 107.12-180.18C106.34-180.96 105.56-181.48 105.04-182C102.96-183.82 100.88-184.60 99.06-184.60C94.90-184.60 91-180.44 88.66-177.58C84.76-172.38 80.60-167.18 77.22-161.98C47.32-115.18 17.68-44.72 10.14 10.66C8.84 21.58 8.06 32.24 9.36 43.16C10.66 58.24 16.90 72.80 34.32 72.80C79.82 72.80 152.88-28.86 175.76-63.70ZM13.78 42.38C12.22 29.38 13.52 16.90 15.60 4.16C23.92-47.84 51.74-111.02 79.82-155.22C83.20-160.42 87.10-165.62 90.74-170.82C92.30-172.90 94.38-174.72 96.46-176.54C98.54-178.62 99.06-178.36 101.14-176.28C101.66-175.76 101.92-175.24 102.44-174.46C71.50-135.72 47.58-90.48 39.52-41.34C37.96-30.42 37.18-19.50 39.26-8.58C41.60 4.94 49.66 17.94 64.74 17.94C88.92 17.94 112.84-14.82 123.24-34.06C124.80-36.92 126.10-39.78 127.14-42.90C127.40-44.20 127.40-46.02 127.14-47.32C126.62-49.40 124.80-50.18 122.98-50.18C121.42-49.92 120.12-48.88 119.86-46.80C118.82-31.46 86.84 10.92 66.56 12.22C59.54 13 53.82 10.40 49.66 4.68C45.76-1.04 43.94-7.54 43.16-14.30C41.60-27.30 43.42-40.30 46.28-52.78C55.90-97.50 76.70-133.38 104.26-168.74C105.04-169.78 106.34-170.56 107.64-171.34C108.94-171.86 109.46-172.64 109.98-174.20C110.24-175.24 110.50-176.28 111.28-177.06C127.92-195.52 155.22-221.78 180.44-227.50C186.16-228.80 191.62-229.06 197.34-228.28C208.52-226.20 215.54-219.44 218.92-208.78C221-202.02 221.26-195 220.74-187.98C214.50-115.44 153.14-32.76 105.04 19.76C89.96 36.40 57.98 67.86 33.54 67.86C19.50 67.34 15.34 54.08 13.78 42.38ZM215.28 24.18C221.00 20.80 226.20 14.30 230.10 9.10C241.28-5.98 258.70-35.88 268.32-51.74C269.62-53.82 269.36-55.38 268.32-56.16C267.02-56.94 265.46-56.42 264.16-54.34C251.68-33.28 238.94-12.74 225.42 7.54C222.82 11.18 219.44 14.30 216.32 17.68C215.54 18.72 214.50 19.24 212.94 20.28C213.98 11.96 215.54 4.16 218.40-3.90L224.12-21.84C227.76-32.24 230.88-42.64 233.74-53.30C234.26-56.16 234.52-59.28 234.26-62.14C233.74-66.82 231.14-68.38 226.72-67.86C226.20-67.86 225.42-67.86 224.90-67.60C220.74-66.30 216.84-65 212.68-63.70C209.56-62.66 206.18-61.10 203.06-60.06C202.02-59.54 200.98-59.54 199.42-59.28C200.20-60.84 200.72-61.62 201.24-62.40C203.06-66.56 204.36-70.72 204.88-75.14C204.88-76.18 204.88-77.22 204.62-78.26C204.10-80.34 202.02-81.38 200.20-79.82C196.82-76.44 194.48-68.64 193.70-63.96C193.18-60.32 193.44-56.68 190.58-53.82C190.58-53.56 190.32-53.56 190.32-53.30C189.80-51.74 190.32-50.44 191.62-49.92C193.18-49.40 193.96-50.18 194.74-51.48C195.26-52.52 196.04-53.82 196.56-55.12C201.50-54.60 205.92-56.42 210.34-57.98C214.24-59.54 218.40-61.10 222.56-62.40C224.64-63.18 226.72-63.44 228.80-63.70C230.36-61.36 230.10-59.28 229.84-57.46C229.32-54.08 228.80-50.44 227.76-47.32C223.86-35.36 219.96-23.40 216.06-11.70C213.20-2.60 210.08 6.24 209.04 15.60C208.78 17.42 208.52 19.24 208.78 21.06C209.56 24.44 212.16 25.74 215.28 24.18ZM227.24 35.88C227.76 35.36 228.02 34.32 228.28 33.54C235.30 16.12 242.32-1.30 250.64-18.20C251.16-19.76 251.68-21.32 253.50-21.32C254.02-21.58 254.80-22.36 254.80-22.88C255.32-26 257.40-28.34 258.96-30.68C259.74-32.24 261.04-32.50 262.86-32.50C267.80-31.98 272.74-31.72 277.68-31.72C298.74-32.24 321.36-34.84 339.30-46.54C340.60-47.32 341.64-48.62 342.68-49.92C342.94-50.44 342.94-51.74 342.42-52.26C341.90-52.78 340.60-52.78 339.82-52.78C339.30-52.78 339.04-52.26 338.52-52C332.54-47.06 325.26-43.68 317.72-41.60C301.86-37.18 285.48-35.36 269.10-36.14C268.06-36.14 267.28-36.40 265.98-36.66C267.28-37.70 268.06-38.48 268.84-39C278.46-47.84 288.08-56.68 296.66-66.56C299.00-68.90 301.08-71.50 303.16-74.36C303.94-75.14 304.46-76.18 304.98-77.48C305.50-78.52 305.76-79.82 304.46-81.12C303.42-82.16 302.12-82.16 300.82-81.64C300.04-81.38 299.26-80.86 298.48-80.60C297.44-79.82 296.40-78.78 295.10-78C288.08-72.28 281.84-65.52 275.60-58.76C272.74-55.38 269.62-51.74 266.76-48.36C266.50-48.62 266.50-48.62 266.24-48.62C266.76-49.40 267.02-50.18 267.54-50.96C276.64-68.90 285.74-86.58 294.84-104.26C295.62-105.82 296.66-107.38 297.70-108.68C312.52-127.92 326.56-148.98 337.48-170.82C338.00-172.12 338.52-173.42 338.52-174.72C338.52-177.06 336.44-178.36 334.36-177.06C333.32-176.80 332.54-176.02 331.76-174.98C330.46-173.42 329.16-171.60 327.86-169.52C315.38-152.10 304.72-133.64 295.62-114.40C294.32-112.06 293.02-109.72 291.46-107.90C284.44-99.06 277.42-90.74 270.14-82.16C269.62-81.12 268.58-80.34 268.06-79.30C267.28-78.26 267.54-76.96 268.58-76.18C269.62-75.40 270.66-75.66 271.70-76.70C272.22-77.22 272.48-77.74 273.00-78.26C276.38-82.16 279.76-86.06 283.14-89.96C283.14-88.66 282.62-87.62 282.10-86.58C274.04-71.24 266.24-56.16 258.44-40.82C257.14-38.48 255.84-36.92 252.98-36.14C249.60-35.10 246.74-33.02 244.66-29.90C243.88-28.86 243.62-27.56 244.40-26.52C245.18-25.74 246.48-25.48 247.52-25.22C248.30-24.96 249.08-25.48 250.38-25.74C249.60-24.18 249.08-23.14 248.56-22.10C240.50-3.64 232.18 14.82 224.12 33.54C223.86 33.80 223.60 34.06 223.60 34.32C224.12 35.10 224.12 36.40 224.90 36.66C225.68 37.44 226.72 36.92 227.24 35.88ZM321.10-152.10C321.10-151.06 320.58-150.02 320.06-149.24C320.06-149.50 319.80-149.50 319.54-149.50ZM317.72-146.90C317.98-146.90 318.24-146.64 318.24-146.38C317.72-145.60 317.20-144.82 316.42-144.30ZM294.58-70.20C290.16-65.52 285.48-60.84 281.06-56.16C281.84-59.28 290.68-68.38 294.58-70.20ZM336.70-23.92C339.30-24.70 341.64-25.74 343.72-27.56C348.14-30.94 352.30-34.84 356.46-38.48C360.36-42.38 364.26-46.28 368.16-50.18C368.94-50.70 369.46-51.22 370.24-51.74C370.24-48.10 369.98-44.72 370.24-41.60C371.28-34.58 376.22-30.42 381.94-30.42C386.36-30.42 392.34-34.06 394.94-37.70C399.10-42.12 402.74-46.80 406.64-51.48C407.16-52 407.68-52.78 407.68-53.30C407.68-54.34 407.42-55.38 406.90-55.90C406.12-56.94 405.08-56.68 404.30-55.90C403.52-55.38 403-54.60 402.48-53.82C399.62-50.44 397.02-46.54 393.90-43.16C391.30-40.04 385.84-35.10 381.42-35.10C377.78-35.10 374.92-37.96 374.66-42.64C374.40-45.50 374.66-48.36 374.92-50.96C375.18-52.78 375.70-54.60 375.96-56.42C376.22-57.72 375.96-59.02 374.66-59.54C373.62-60.32 372.32-59.80 371.54-59.02C370.24-58.24 368.94-57.20 367.90-56.16C362.44-50.70 357.24-45.24 351.78-40.04C347.88-36.40 343.72-33.02 339.56-29.64C338.26-28.60 336.70-27.56 334.88-27.82C333.84-29.38 334.10-30.94 334.62-32.76C335.92-38.22 338.26-43.42 340.86-48.62C341.64-49.92 342.16-50.96 343.98-51.48C344.50-51.48 345.28-52.78 345.80-53.56C346.58-55.64 346.32-57.46 345.02-58.24C343.72-59.02 342.16-58.50 340.86-56.16C335.92-48.88 332.54-41.08 330.46-32.50C330.20-30.94 330.20-29.38 330.46-27.82C330.98-24.44 333.58-22.88 336.70-23.92ZM400.92-23.40C401.96-23.92 402.74-24.44 403.52-25.22C406.38-28.08 408.98-31.20 411.58-34.32L417.30-41.34C419.64-43.94 421.98-46.54 424.32-49.14C425.36-47.32 426.14-45.76 426.92-44.46C429-40.82 430.82-39.26 433.68-39.26C434.98-39.26 436.28-39.52 438.10-40.30C443.30-42.38 448.24-45.24 453.44-47.84C453.70-48.10 454.22-48.36 454.48-48.88C455.52-49.66 455.78-50.70 455.26-51.74C454.48-53.04 453.18-52.78 452.14-52.52C451.36-52 450.84-51.48 450.06-50.96C445.64-48.62 441.22-46.28 436.80-44.20C433.42-42.64 432.38-43.16 430.82-46.28C429.78-47.84 429.26-49.66 428.22-50.96C426.40-53.56 424.32-54.08 421.72-52.26C419.90-50.70 418.08-48.88 416.52-47.06C412.88-42.64 409.24-38.22 405.86-33.80C404.56-32.24 403.26-30.68 401.96-29.12C401.70-29.12 401.44-29.38 401.18-29.38C403.26-38.74 405.60-48.10 409.24-57.20C409.50-57.98 410.54-58.50 411.06-59.02C411.58-59.80 412.36-60.58 412.10-61.10C412.10-61.88 411.32-62.66 410.54-63.18C409.50-63.70 407.94-63.44 407.16-62.14C406.64-61.36 406.38-60.58 405.86-59.54C402.22-49.92 399.88-39.78 397.54-29.38C397.28-28.34 397.02-26.78 397.28-25.48C397.54-23.40 399.10-22.62 400.92-23.40ZM602.68 53.82C653.12 45.24 718.90-0.78 752.44-41.60C753.48-42.64 754.52-44.20 755.04-45.50C755.82-47.32 755.04-49.14 753.74-49.92C752.18-50.70 750.62-50.44 749.32-48.88C748.80-48.62 748.54-48.10 748.02-47.58C746.98-46.02 745.68-44.20 744.64-42.90C711.88-3.38 658.58 36.66 607.36 48.62C597.74 50.70 588.38 51.74 578.76 50.18C562.12 47.32 556.14 36.14 554.58 21.06C554.06 12.74 555.36 4.68 557.70-3.12C573.04-61.88 619.84-120.12 664.56-158.86C684.06-175.76 711.88-195 737.62-200.98C743.86-202.28 750.10-203.32 756.34-202.02C763.62-200.72 767-196.56 767-189.02C767-156.26 712.14-98.28 689.78-77.48C685.62-73.58 680.94-70.20 676.78-66.82C676-66.04 674.96-65.52 674.44-64.74C673.66-63.44 673.92-62.14 674.70-61.10C675.74-59.80 677.04-59.28 678.60-60.06C697.06-69.42 742.04-124.80 754.78-144.30C762.06-156 771.68-173.68 772.46-187.72C772.98-198.90 767-206.18 756.08-208C748.80-209.04 741.78-207.74 735.02-206.18C704.60-198.38 671.06-171.86 648.96-150.54C608.40-111.54 569.66-59.02 554.32-3.90C551.72 5.98 550.16 15.86 551.46 26.26C553.02 40.04 561.60 50.18 575.12 53.56C579.54 54.60 583.96 54.86 588.12 55.38C593.32 54.86 598 54.60 602.68 53.82Z" fill="#000000"/>
  </g>
</svg>