<svg width="688" height="296" viewBox="0 0 688 296" xmlns="http://www.w3.org/2000/svg">
  <g transform="translate(21.152785289345594, 192.4)">
    <path d="M8.50-48.96C8.16-44.88-4.08-5.44 13.60 12.24C17.34 15.98 21.76 17.68 26.52 17.68C61.54 17.68 120.36-73.78 137.70-108.46C152.66-138.04 170-179.86 142.12-197.88C135.66-201.96 128.52-204.00 120.70-204.00C69.02-204.00-3.74-117.30-8.84-76.84C-11.90-52.36 8.50-50.32 8.50-48.96ZM125.12-198.22C126.82-198.22 128.86-198.22 130.56-197.88C199.24-187 61.20 11.90 21.08 11.90C20.06 11.90 19.38 11.90 18.36 11.56C14.96 10.54 12.24 2.04 11.56-9.18C10.88-21.08 14.28-37.06 17.34-48.96C46.92-50.66 69.36-58.48 83.64-67.32C85.34-68.34 86.36-69.02 86.36-69.36C86.70-69.70 85.34-72.08 84.32-72.76C82.96-73.78 80.92-74.46 80.24-74.46C78.54-74.46 59.16-59.50 19.38-55.42C38.08-110.84 63.24-152.66 72.42-162.52C73.44-163.54 73.78-163.88 73.44-164.56C73.10-166.26 69.36-168.98 67.32-168.98C63.92-168.98 29.24-119.00 11.22-58.14C10.54-55.76 10.54-55.42 9.86-55.42L8.84-55.42C-36.72-55.42 64.26-198.22 125.12-198.22ZM167.28-86.02C167.28-86.70 169.66-93.16 171.70-98.60C174.42-105.06 177.48-110.50 172.72-115.26C171.02-116.96 168.98-117.64 167.28-117.64C161.84-117.64 157.08-111.86 156.40-111.86C156.40-111.86 156.40-112.54 157.08-113.56C157.76-114.92 157.76-115.26 157.42-115.94C157.08-117.98 153.68-120.36 151.98-120.36C151.30-120.36 117.64-59.50 116.62-57.80C117.64-56.10 119.34-53.04 121.38-52.70C122.06-52.70 123.76-52.70 123.76-53.04C126.82-57.12 134.64-80.92 160.14-103.70C162.52-106.42 167.28-109.82 167.62-109.82C168.30-109.82 160.14-94.18 159.80-87.38C159.80-84.66 161.84-78.20 167.96-78.20C173.74-78.20 195.50-91.46 200.94-94.52C202.30-95.20 205.36-99.62 198.22-102.00C197.88-102.00 167.28-84.32 167.28-86.02ZM199.92-81.94C200.60-82.62 200.60-82.96 200.94-82.96C200.94-72.08 201.28-54.40 213.86-49.98C214.54-49.64 215.56-49.64 216.24-49.64C231.54-49.64 266.90-76.50 280.50-91.46C286.96-98.60 283.56-100.64 278.46-102.00C268.60-91.46 255-77.52 232.56-64.60C224.40-59.84 214.88-55.76 212.50-55.76C208.08-55.76 208.76-80.58 208.08-85C207.74-86.70 207.06-86.02 211.14-88.06C234.26-97.92 257.04-108.46 253.98-119.34C252.62-124.10 248.20-126.82 243.78-126.82C235.62-126.82 218.62-113.22 212.84-108.12L211.14-106.42C210.46-106.42 218.28-117.98 240.72-164.22C248.54-180.88 248.20-178.84 248.20-180.20C248.20-182.24 245.14-185.30 242.76-185.64C240.72-185.98 240.04-179.18 189.38-85.68C181.56-71.74 178.50-65.62 178.50-65.28C178.50-64.60 181.90-60.86 184.28-60.86C185.30-60.86 185.98-61.20 186.66-62.22C191.08-69.70 196.18-77.52 199.92-81.94ZM216.92-99.62C216.58-99.62 217.26-99.96 218.28-100.98C226.44-108.80 243.10-120.70 246.50-120.70C247.52-120.70 247.18-119.34 244.46-116.28C241.74-112.88 220.32-99.62 216.92-99.62ZM270.30-75.82C271.66-71.06 275.06-68 278.46-68C279.48-68 280.50-68.34 281.52-68.68C290.70-73.10 318.24-106.76 318.58-106.42C318.58-106.08 304.30-76.84 306.68-63.92C307.70-59.16 311.44-53.04 316.88-53.04C328.44-53.04 348.16-81.60 358.70-93.50C360.74-95.88 363.46-100.30 354.96-102.00C348.50-94.18 329.46-71.40 321.64-64.94C320.28-63.58 313.48-58.14 312.80-59.84C311.44-64.26 317.90-83.98 319.60-88.06C328.44-110.50 343.06-131.58 343.74-136.34C344.42-139.40 339.66-143.82 337.96-143.14C335.92-142.80 314.16-112.88 291.72-89.42C284.92-82.28 277.44-75.48 276.76-75.82C274.38-75.82 283.22-94.86 288.66-102.34C290.02-104.72 290.02-104.72 290.02-105.74C289.34-108.12 285.94-110.50 284.92-110.50C282.88-110.50 267.24-86.36 270.30-75.82ZM405.96-73.44C405.62-73.44 406.30-78.88 407.32-83.64C411.74-103.36 426.02-134.98 422.62-142.80C421.26-145.86 417.86-148.24 415.14-148.58C404.94-149.26 359.38-91.46 359.04-91.80C359.04-92.14 361.42-96.56 364.48-102.00C366.86-106.08 366.86-106.42 366.52-107.10C366.18-109.14 363.12-111.52 361.08-111.52C359.04-111.52 343.06-81.26 342.72-75.14C342.72-72.76 346.46-69.02 348.84-69.02C352.24-69.02 355.98-73.78 364.82-85C392.70-120.36 415.82-141.10 415.48-139.74C415.14-133.28 401.54-98.94 399.16-82.62C398.48-77.18 398.82-72.08 403.24-68.34C404.60-67.32 406.30-66.64 408.00-66.64C414.12-66.64 423.98-74.12 454.92-94.18C457.30-95.54 460.70-99.62 453.22-102.00C446.76-97.92 408.00-73.44 405.96-73.44ZM524.28-88.74C543.32-129.20 589.22-192.10 633.76-192.10C639.20-192.10 646-191.08 647.02-185.98C650.76-163.88 615.40-130.90 607.58-130.90C604.52-130.90 614.04-158.44 622.88-167.28C624.92-168.98 624.92-169.66 623.90-171.36C622.88-172.72 620.84-173.74 619.14-174.08C614.72-174.42 603.50-152.32 601.12-143.14C600.10-140.42 600.44-139.06 600.44-133.62C601.80-130.90 603.16-127.16 606.90-125.46C607.92-124.78 608.26-124.78 610.98-124.78C614.04-124.78 614.38-124.78 616.42-125.46C627.30-130.22 649.40-152.32 653.48-171.36C656.88-187.68 644.98-198.56 627.98-198.56C625.60-198.56 623.22-198.22 620.50-197.88C545.36-183.60 468.86-25.50 504.22 10.54C508.30 14.62 512.04 15.98 516.12 15.98C541.96 15.98 615.06-73.44 632.06-94.18C633.76-96.56 633.76-100.30 627.98-102.00C612.34-79.22 530.40 11.22 512.04 11.22C511.36 11.22 511.02 10.88 510.68 10.88C505.24 8.50 492.32-20.74 524.28-88.74ZM635.46-55.76C636.14-55.42 636.82-55.42 637.50-55.42C644.30-55.42 647.02-65.62 642.94-68.68C642.26-69.02 641.92-69.36 640.90-69.36C640.22-69.36 639.54-69.02 638.18-69.02C629-68 630.36-57.46 635.46-55.76Z" fill="#000000"/>
  </g>
</svg>