<svg width="649" height="280" viewBox="0 0 649 280" xmlns="http://www.w3.org/2000/svg">
  <g transform="translate(20.614386154678204, 182)">
    <path d="M8-46.08C7.68-42.24-3.84-5.12 12.80 11.52C16.32 15.04 20.48 16.64 24.96 16.64C57.92 16.64 113.28-69.44 129.60-102.08C143.68-129.92 160-169.28 133.76-186.24C127.68-190.08 120.96-192 113.60-192C64.96-192-3.52-110.40-8.32-72.32C-11.20-49.28 8-47.36 8-46.08ZM117.76-186.56C119.36-186.56 121.28-186.56 122.88-186.24C187.52-176 57.60 11.20 19.84 11.20C18.88 11.20 18.24 11.20 17.28 10.88C14.08 9.92 11.52 1.92 10.88-8.64C10.24-19.84 13.44-34.88 16.32-46.08C44.16-47.68 65.28-55.04 78.72-63.36C80.32-64.32 81.28-64.96 81.28-65.28C81.60-65.60 80.32-67.84 79.36-68.48C78.08-69.44 76.16-70.08 75.52-70.08C73.92-70.08 55.68-56 18.24-52.16C35.84-104.32 59.52-143.68 68.16-152.96C69.12-153.92 69.44-154.24 69.12-154.88C68.80-156.48 65.28-159.04 63.36-159.04C60.16-159.04 27.52-112 10.56-54.72C9.92-52.48 9.92-52.16 9.28-52.16L8.32-52.16C-34.56-52.16 60.48-186.56 117.76-186.56ZM157.44-80.96C157.44-81.60 159.68-87.68 161.60-92.80C164.16-98.88 167.04-104 162.56-108.48C160.96-110.08 159.04-110.72 157.44-110.72C152.32-110.72 147.84-105.28 147.20-105.28C147.20-105.28 147.20-105.92 147.84-106.88C148.48-108.16 148.48-108.48 148.16-109.12C147.84-111.04 144.64-113.28 143.04-113.28C142.40-113.28 110.72-56 109.76-54.40C110.72-52.80 112.32-49.92 114.24-49.60C114.88-49.60 116.48-49.60 116.48-49.92C119.36-53.76 126.72-76.16 150.72-97.60C152.96-100.16 157.44-103.36 157.76-103.36C158.40-103.36 150.72-88.64 150.40-82.24C150.40-79.68 152.32-73.60 158.08-73.60C163.52-73.60 184-86.08 189.12-88.96C190.40-89.60 193.28-93.76 186.56-96C186.24-96 157.44-79.36 157.44-80.96ZM188.16-77.12C188.80-77.76 188.80-78.08 189.12-78.08C189.12-67.84 189.44-51.20 201.28-47.04C201.92-46.72 202.88-46.72 203.52-46.72C217.92-46.72 251.20-72 264-86.08C270.08-92.80 266.88-94.72 262.08-96C252.80-86.08 240-72.96 218.88-60.80C211.20-56.32 202.24-52.48 200-52.48C195.84-52.48 196.48-75.84 195.84-80C195.52-81.60 194.88-80.96 198.72-82.88C220.48-92.16 241.92-102.08 239.04-112.32C237.76-116.80 233.60-119.36 229.44-119.36C221.76-119.36 205.76-106.56 200.32-101.76L198.72-100.16C198.08-100.16 205.44-111.04 226.56-154.56C233.92-170.24 233.60-168.32 233.60-169.60C233.60-171.52 230.72-174.40 228.48-174.72C226.56-175.04 225.92-168.64 178.24-80.64C170.88-67.52 168-61.76 168-61.44C168-60.80 171.20-57.28 173.44-57.28C174.40-57.28 175.04-57.60 175.68-58.56C179.84-65.60 184.64-72.96 188.16-77.12ZM204.16-93.76C203.84-93.76 204.48-94.08 205.44-95.04C213.12-102.40 228.80-113.60 232-113.60C232.96-113.60 232.64-112.32 230.08-109.44C227.52-106.24 207.36-93.76 204.16-93.76ZM254.40-71.36C255.68-66.88 258.88-64 262.08-64C263.04-64 264-64.32 264.96-64.64C273.60-68.80 299.52-100.48 299.84-100.16C299.84-99.84 286.40-72.32 288.64-60.16C289.60-55.68 293.12-49.92 298.24-49.92C309.12-49.92 327.68-76.80 337.60-88C339.52-90.24 342.08-94.40 334.08-96C328-88.64 310.08-67.20 302.72-61.12C301.44-59.84 295.04-54.72 294.40-56.32C293.12-60.48 299.20-79.04 300.80-82.88C309.12-104 322.88-123.84 323.52-128.32C324.16-131.20 319.68-135.36 318.08-134.72C316.16-134.40 295.68-106.24 274.56-84.16C268.16-77.44 261.12-71.04 260.48-71.36C258.24-71.36 266.56-89.28 271.68-96.32C272.96-98.56 272.96-98.56 272.96-99.52C272.32-101.76 269.12-104 268.16-104C266.24-104 251.52-81.28 254.40-71.36ZM382.08-69.12C381.76-69.12 382.40-74.24 383.36-78.72C387.52-97.28 400.96-127.04 397.76-134.40C396.48-137.28 393.28-139.52 390.72-139.84C381.12-140.48 338.24-86.08 337.92-86.40C337.92-86.72 340.16-90.88 343.04-96C345.28-99.84 345.28-100.16 344.96-100.80C344.64-102.72 341.76-104.96 339.84-104.96C337.92-104.96 322.88-76.48 322.56-70.72C322.56-68.48 326.08-64.96 328.32-64.96C331.52-64.96 335.04-69.44 343.36-80C369.60-113.28 391.36-132.80 391.04-131.52C390.72-125.44 377.92-93.12 375.68-77.76C375.04-72.64 375.36-67.84 379.52-64.32C380.80-63.36 382.40-62.72 384-62.72C389.76-62.72 399.04-69.76 428.16-88.64C430.40-89.92 433.60-93.76 426.56-96C420.48-92.16 384-69.12 382.08-69.12ZM493.44-83.52C511.36-121.60 554.56-180.80 596.48-180.80C601.60-180.80 608-179.84 608.96-175.04C612.48-154.24 579.20-123.20 571.84-123.20C568.96-123.20 577.92-149.12 586.24-157.44C588.16-159.04 588.16-159.68 587.20-161.28C586.24-162.56 584.32-163.52 582.72-163.84C578.56-164.16 568-143.36 565.76-134.72C564.80-132.16 565.12-130.88 565.12-125.76C566.40-123.20 567.68-119.68 571.20-118.08C572.16-117.44 572.48-117.44 575.04-117.44C577.92-117.44 578.24-117.44 580.16-118.08C590.40-122.56 611.20-143.36 615.04-161.28C618.24-176.64 607.04-186.88 591.04-186.88C588.80-186.88 586.56-186.56 584-186.24C513.28-172.80 441.28-24 474.56 9.92C478.40 13.76 481.92 15.04 485.76 15.04C510.08 15.04 578.88-69.12 594.88-88.64C596.48-90.88 596.48-94.40 591.04-96C576.32-74.56 499.20 10.56 481.92 10.56C481.28 10.56 480.96 10.24 480.64 10.24C475.52 8 463.36-19.52 493.44-83.52ZM598.08-52.48C598.72-52.16 599.36-52.16 600-52.16C606.40-52.16 608.96-61.76 605.12-64.64C604.48-64.96 604.16-65.28 603.20-65.28C602.56-65.28 601.92-64.96 600.64-64.96C592-64 593.28-54.08 598.08-52.48Z" fill="#000000"/>
  </g>
</svg>