<svg width="753" height="372" viewBox="0 0 753 372" xmlns="http://www.w3.org/2000/svg">
  <g transform="translate(14.4, 241.8)">
    <path d="M119.52-121.44C120.96-130.56 121.44-138.24 121.44-144.48C121.44-147.84 121.44-150.72 121.92-152.16L121.92-159.84L121.92-166.08L121.92-172.80C119.52-200.64 114.24-224.64 105.12-245.28C96.96-264 85.92-276.48 72.48-283.68C67.68-286.08 62.40-287.52 57.12-287.52C51.84-287.52 48-286.56 44.64-284.64C30.72-279.84 20.16-271.20 12.96-258.24C7.68-249.12 3.84-235.68 0.48-218.88L-1.92-204.48C-2.40-201.60-2.40-194.88-2.40-184.80C-0.48-161.76 2.88-146.88 13.92-131.04C14.40-130.08 15.36-128.64 17.76-126.24L18.72-123.84C18.24-121.44 18.24-116.16 18.24-107.52C18.24-95.52 18.24-87.36 18.72-84C21.12-58.56 24.96-38.40 31.20-24C32.64-19.68 34.56-15.84 36.96-12.96C42.72-2.88 53.28 2.88 62.88 2.88C65.28 2.88 67.20 2.88 68.16 2.40C75.84 0.96 83.04-4.80 89.28-14.88C96.96-25.92 106.08-48.48 113.28-76.80L114.72-85.92L116.16-94.56C116.16-95.04 116.64-97.44 117.60-102.24C117.60-103.68 118.08-107.04 118.56-111.36ZM110.88-125.76C110.40-123.84 110.40-120.96 110.40-117.60L109.44-109.92C108.96-106.08 108.48-103.20 108.48-101.28L107.04-93.12L105.60-84.96C101.76-63.36 97.44-48.96 87.36-28.32C81.60-17.28 79.68-15.36 73.44-9.60C70.56-6.72 67.20-5.28 63.84-5.28C57.60-5.28 51.84-9.12 46.56-17.28C42.24-23.52 38.88-33.12 36.48-46.08L33.60-60.48C32.16-72.48 31.20-82.56 31.20-90.24C30.72-94.08 30.72-98.88 30.72-104.64L30.72-108.48C30.72-110.40 30.72-111.36 31.20-111.84L33.60-109.92C33.60-109.44 37.44-106.56 41.76-104.64C45.12-103.20 47.04-104.64 47.04-108.96C47.04-110.40 46.56-111.36 45.60-111.84C42.72-113.28 40.80-114.72 39.36-116.16L34.08-121.92L32.64-123.36C31.68-124.80 31.20-126.24 31.20-127.68L31.20-130.08C31.20-132 31.68-136.32 32.16-143.52L33.60-159.84C34.08-169.92 35.04-177.60 36.48-183.36C36.96-188.64 37.92-192.48 38.40-194.40C39.84-203.52 41.28-208.80 41.76-210.72C43.68-219.84 46.56-229.92 49.92-240L52.32-247.68C53.76-249.12 54.24-249.60 54.24-249.60C58.08-251.52 54.24-256.80 50.40-256.80C48.96-256.80 48-256.32 47.52-255.84C45.12-253.44 43.20-250.08 41.76-245.28L38.88-239.04C34.08-225.60 30.72-214.56 29.28-205.92L25.44-187.20C24-180.48 22.56-173.28 22.08-165.12L20.64-155.04L19.68-144.96L19.68-143.52L19.68-142.08L19.20-142.08L18.72-142.08L18.72-142.56L18.24-143.52C12-153.60 9.12-168.96 9.12-189.12L10.08-210.72C14.40-238.08 19.68-252 29.76-263.04C40.80-274.08 51.36-278.88 62.40-277.44C70.56-275.04 78.72-269.28 86.40-259.20C97.92-242.40 108-214.08 111.84-181.44L112.80-157.44C112.80-149.28 112.80-144 112.32-141.60C112.32-137.76 112.32-134.88 111.84-133.44C111.36-130.08 110.88-127.68 110.88-125.76ZM165.12-111.84C165.12-117.12 164.64-123.84 163.20-131.04L162.24-134.40C161.76-136.32 161.28-137.76 161.28-138.24L159.84-141.60L158.88-144.48C156.48-149.76 148.80-155.52 139.68-157.44C139.20-157.92 138.24-157.92 136.80-157.92C134.40-158.88 132.96-158.40 132.96-156.48C132.96-154.08 133.92-152.16 136.32-150.72L138.24-149.28C137.76-147.84 137.76-143.52 137.76-137.28L136.80-115.68L136.80-95.04C136.80-83.52 136.80-76.32 137.28-72.96C138.72-71.04 140.16-70.08 140.64-70.08C142.56-70.08 143.52-71.04 144-73.44L144-74.88L144-77.28L144-84.96L144-92.64L144-106.08L144-119.52L143.52-128.64L144-137.76C144-139.68 144-141.12 144.48-142.08L144.48-146.88L145.44-146.40C146.88-145.44 148.32-144 149.76-141.60C149.76-141.12 150.24-139.20 151.20-135.36C152.16-131.04 152.64-126.72 152.64-122.40C152.64-115.68 153.12-104.64 153.60-89.28C154.08-75.36 156-63.84 159.36-55.20C161.28-48.96 168.96-41.76 175.20-43.68C175.68-43.68 176.64-44.16 178.56-44.64C181.44-46.08 183.84-48 185.76-50.40C194.40-60.48 203.52-79.68 213.12-108C213.60-110.40 214.56-113.28 216-116.64L216-119.04C215.52-121.44 214.56-121.92 212.16-121.44C210.72-120 209.76-119.04 209.76-118.08L206.40-109.92L203.52-101.76L198.72-89.28C197.76-86.40 195.84-82.56 193.44-77.28C189.60-69.60 185.28-62.88 180.96-57.12C178.56-53.76 175.68-52.32 173.28-51.84C170.88-50.40 170.88-53.28 169.44-57.12C168.48-60.48 168-63.84 168-66.72L167.04-74.40C166.56-75.84 166.56-78.72 166.56-82.56C166.08-88.80 165.12-98.40 165.12-111.84ZM208.32-79.68C208.80-69.60 209.28-62.40 209.28-58.08L210.24-48.48C210.24-43.20 210.72-37.44 211.68-31.68C213.12-27.36 212.16-24 216.96-24C218.88-24 220.32-24.96 220.80-26.40L221.28-26.88L221.76-27.84C222.72-28.80 223.20-29.76 223.20-31.20C222.72-31.68 222.72-33.12 222.72-34.56C222.72-50.40 224.64-60.48 231.84-81.12L232.80-84.48L234.24-87.84C234.72-88.80 235.20-88.80 236.16-87.84C244.32-76.80 252.96-71.52 261.60-71.52C270.72-70.08 275.04-73.44 284.16-82.56C286.56-84.96 290.40-90.24 294.72-98.40C299.52-106.56 302.88-112.32 304.80-116.64L304.80-119.04C304.80-124.32 299.52-121.92 299.04-119.52C299.52-120 299.04-119.04 298.08-117.12C288.48-100.80 281.76-91.20 278.40-87.84C272.64-82.08 267.36-79.20 263.04-79.20C259.68-79.20 256.80-80.16 254.40-82.56C252.48-83.04 248.64-85.92 246.72-89.28L242.40-93.60C241.92-94.08 241.92-94.56 242.88-94.56C242.40-94.08 243.36-94.56 245.28-95.52C248.16-96 251.04-97.44 253.92-98.88C259.20-101.76 262.08-107.04 262.08-115.20C262.08-117.60 262.08-119.52 261.60-120.96C261.60-124.32 258.72-128.64 254.88-128.64C254.40-128.64 253.44-128.16 252-127.68L250.56-126.72L249.60-126.24L247.20-123.84C244.32-120.48 242.40-117.60 241.44-115.20L234.72-103.20C234.72-103.20 234.24-102.72 232.80-101.28C231.36-100.80 230.40-99.36 230.40-97.44L230.40-96C230.88-95.04 230.88-94.08 230.40-93.12C226.56-83.04 223.68-74.40 221.76-67.20L220.32-64.32L220.32-65.76L220.32-67.68L220.32-68.16C220.32-81.60 220.80-93.60 221.28-103.68C221.28-107.04 221.28-109.92 221.76-111.36C221.76-117.60 222.24-121.92 223.68-124.32C226.56-128.64 229.92-133.92 233.76-141.12L238.56-151.20C239.52-153.60 241.44-156.96 243.84-161.28C248.64-170.88 252.96-180.48 256.80-190.08L265.44-212.64C267.84-218.88 271.20-229.92 275.52-246.72L278.40-257.28C279.36-261.12 279.84-264.96 279.84-269.28L279.84-273.60C278.88-275.52 277.92-284.64 271.68-284.64L269.28-284.16L264.96-282.72L259.20-277.92C247.68-264 243.36-254.40 235.68-234.72C228.48-216.48 223.20-198.72 219.36-181.44C216-168.48 213.12-153.60 211.68-136.80L210.72-128.64C210.24-126.72 210.24-123.84 210.24-120.48L209.28-110.88C209.28-105.60 209.28-101.76 208.80-100.32C208.32-97.44 208.32-90.72 208.32-79.68ZM273.60-274.08C273.60-272.64 273.60-272.16 274.08-271.68C274.08-268.32 274.08-265.44 273.60-264C273.12-260.64 272.64-258.72 272.64-257.76C268.80-240.96 264-225.60 258.72-211.68L253.92-199.68L249.12-188.16C242.88-173.28 234.72-157.44 225.60-140.64L224.64-138.72L224.16-138.24L224.16-138.72L224.16-139.20C226.08-165.60 234.24-193.92 250.08-245.28C252.48-252 256.80-260.64 263.52-271.20C265.44-274.56 267.84-276.48 271.20-277.92C271.68-278.40 273.12-276 273.60-274.08ZM254.40-121.44C254.88-120.96 254.88-120.48 254.88-119.52C254.88-116.16 254.40-112.80 253.44-109.92C251.04-105.60 247.20-103.68 241.92-103.20L241.44-103.20L241.44-103.68L241.44-104.16C244.80-110.88 248.16-116.16 252-120L253.92-121.92ZM354.24-146.40C354.72-147.84 355.20-146.40 355.20-144C354.72-139.68 354.24-136.80 354.24-135.84L354.24-128.64C353.76-127.20 353.76-124.32 353.76-120.96C353.76-110.88 353.76-104.64 354.24-101.76C354.24-93.60 356.64-83.52 359.04-79.20C359.52-77.76 360.48-75.84 361.92-74.40C363.36-72.48 365.28-71.52 366.72-71.52C368.16-71.52 369.60-72 370.56-72.48L371.52-72.96L372.96-73.92C376.32-77.28 377.76-78.72 377.76-78.72C379.68-82.08 386.40-93.60 390.24-102.72L397.44-117.60L397.92-119.04C398.40-120.48 398.40-121.44 396.96-121.92C395.04-122.40 393.12-121.44 392.64-120C391.20-118.56 390.72-117.12 390.24-115.68C388.80-113.28 384.96-102.72 379.20-92.64L372.96-83.04L370.08-79.68C370.08-79.20 369.60-78.72 368.64-78.72C368.16-78.24 367.68-78.24 367.68-79.20L366.72-81.12L365.76-84C365.28-84.48 365.28-85.44 365.28-86.88C363.84-94.56 363.36-104.64 363.84-117.60C363.84-129.12 364.32-138.24 365.28-144.96C365.28-150.72 365.76-155.52 366.72-159.84C366.72-161.28 366.72-162.24 367.20-163.20L367.20-167.04L367.20-168.48L367.20-170.40C366.24-172.80 364.32-174.24 361.92-174.24C360.48-174.24 359.52-173.76 359.04-172.32L358.08-171.36L357.60-170.40L355.20-164.64L347.04-146.40C334.08-117.12 322.56-96 312.96-83.04C310.08-78.72 307.68-76.80 305.76-76.80C303.84-76.80 302.88-78.24 302.40-81.60C301.92-83.52 301.44-84.96 301.44-86.40L301.92-89.76L305.28-111.36L306.24-119.52L306.24-122.40C305.76-124.32 304.80-125.28 302.88-125.28L300.96-124.80C299.52-123.36 298.08-121.44 297.60-118.56L296.64-115.20C296.16-109.44 293.28-98.88 293.28-85.92C294.24-80.64 295.68-75.84 298.08-72.48C300-70.56 301.92-69.60 304.32-69.60C306.72-69.60 310.08-71.52 313.44-75.36C321.60-84 332.16-101.28 345.12-127.68ZM393.12-123.84C392.64-122.40 392.64-119.04 392.64-113.76L392.64-112.32L392.64-110.88L392.64-102.72L392.64-95.04L392.64-92.16L392.64-88.80C392.64-87.36 393.12-85.92 393.60-85.44C396-82.08 397.92-82.56 400.32-86.40L401.28-88.32L404.16-96.48C405.60-101.76 408-108 411.36-114.24C417.12-125.28 424.32-136.32 432.48-148.32C440.64-159.36 447.84-166.08 454.08-168.48C456-168.96 456.96-169.44 457.44-169.44C461.28-169.44 460.80-166.56 462.72-164.64C464.16-162.24 464.64-159.36 465.12-156C466.56-148.80 467.04-138.72 467.04-125.76C467.52-112.80 469.92-92.16 473.28-84.96C473.76-82.56 474.72-81.12 475.68-80.16C477.12-76.80 480-74.40 484.32-74.40C485.76-74.40 486.72-74.40 487.20-74.88C492.96-76.80 497.28-81.12 502.56-86.88C504-89.28 505.92-91.68 507.36-93.12C511.20-98.40 516-106.08 521.28-115.68C522.24-116.64 522.72-118.08 522.72-119.52C521.28-123.36 519.36-122.88 516.48-118.08C516-117.60 514.08-114.72 511.68-110.40L497.76-91.68L491.04-84.48L489.60-83.52C489.12-83.04 488.64-83.04 488.16-83.04C485.76-82.08 483.84-84 482.88-89.28C480.96-98.88 478.08-119.52 477.60-130.56C477.12-138.72 476.16-146.88 474.72-154.56C474.24-157.92 473.28-162.24 471.84-166.56L468.48-172.32C466.08-175.20 463.20-176.64 459.84-176.64C458.40-176.64 456.48-176.16 454.08-175.68L450.24-173.76C445.92-171.36 443.04-168.96 440.64-166.56C434.40-160.32 428.16-152.64 421.92-142.56L413.76-130.56C408.48-122.40 404.16-114.72 401.28-107.52L400.80-119.52L400.80-121.44L400.80-123.84C400.80-126.72 399.36-128.16 396.96-128.16C395.52-128.16 394.56-127.20 393.60-125.76ZM599.52-70.08C599.04-80.16 598.56-88.32 598.56-93.60C598.56-97.92 599.04-104.16 599.52-112.32C599.52-117.60 599.52-121.44 600-123.84L600.96-135.84C602.88-147.84 604.32-157.44 605.76-163.68C610.08-183.84 616.32-202.08 623.52-218.88C627.84-228.96 632.16-238.56 637.44-247.20C645.60-260.16 648.48-262.08 654.72-266.40C655.68-266.40 656.16-266.40 656.64-266.88C657.12-267.36 658.56-267.36 659.04-267.84C661.92-268.80 663.84-267.36 665.28-263.52C665.76-263.04 665.76-262.56 665.76-261.12C666.24-259.68 667.68-258.72 669.12-258.72C670.56-258.72 671.52-259.68 672-261.60C672.48-264.96 671.52-268.80 670.08-272.16C667.68-276 663.84-277.92 658.08-277.92C655.68-277.92 653.28-277.44 651.36-276.48C648.96-275.52 647.52-274.56 647.04-274.08C638.88-269.76 630.24-259.68 622.08-243.84C614.88-230.88 608.64-216.96 603.84-203.04C594.72-179.52 589.44-154.08 587.52-125.76L586.56-105.60C586.56-98.40 586.56-92.64 587.04-89.28C587.04-78.24 587.52-69.60 588.48-62.88C588.96-60.48 588.96-57.12 588.96-52.80C592.80-30.24 598.08-14.88 610.08-3.84C617.28 4.32 626.88 8.16 632.64 6.24C640.32 4.32 644.64 0.96 654.72-10.56C660.96-18.72 666.72-30.72 671.04-41.76L677.76-57.60L684-72.96C685.92-77.28 688.32-84 691.68-93.60C693.12-97.44 696.96-110.40 700.80-116.16C702.24-120 700.32-121.92 698.40-121.92C696.96-121.92 696-121.44 695.52-120.48L694.56-119.04C694.08-118.56 694.08-118.08 694.08-117.60C692.64-115.20 691.20-110.88 689.28-105.12C685.44-96 682.56-89.28 681.12-84.96L672.48-64.80C662.40-41.28 652.32-24 642.24-12.48C638.88-9.12 636.48-6.72 635.52-6.24C633.12-5.28 631.20-4.80 629.76-4.80C627.84-4.80 625.44-5.76 622.08-7.68C619.20-9.60 616.80-12.48 614.88-15.84C609.60-22.08 606.24-30.24 604.32-39.36C601.92-46.56 600-57.12 599.52-70.08ZM719.04-13.44C715.68-13.44 713.28-11.04 713.28-6.72C713.28-2.40 715.20-0.48 719.04-0.48C723.36-0.48 725.76-2.40 725.76-6.72C725.76-11.04 722.40-13.44 719.04-13.44Z" fill="#000000"/>
  </g>
</svg>