<svg width="824" height="448" viewBox="0 0 824 448" xmlns="http://www.w3.org/2000/svg">
  <g transform="translate(7.040000000000001, 291.2)">
    <path d="M246.24-204.96C245.28-214.56 245.28-222.72 244.32-230.88C242.40-247.68 237.60-263.52 228.48-277.92C223.20-287.04 216-294.72 206.88-299.52C177.60-315.84 146.88-320.16 114.72-308.16C64.32-288.96 31.20-252 11.04-203.04C5.76-190.56 3.84-177.60 5.28-164.16C6.24-150.72 12.96-140.64 24.48-133.44C26.40-132 29.28-131.04 31.68-130.08C34.56-128.64 35.04-127.20 34.56-124.32C34.08-120 33.60-115.20 33.12-110.88C30.24-82.56 36-56.64 53.76-34.08C65.76-19.20 81.12-10.08 100.32-7.20C112.80-5.76 125.28-6.72 137.76-10.08C165.60-18.24 186.72-36 202.08-60C230.88-104.64 243.36-154.08 246.24-204.96ZM66.72-126.72C62.40-127.68 58.56-128.64 54.72-129.12C50.88-129.60 50.40-131.52 51.36-134.88C57.12-158.40 65.76-180.96 81.60-200.16C89.76-209.76 98.40-217.92 108-225.60C111.36-228 114.24-230.40 116.64-234.24C110.88-237.60 106.56-235.20 102.24-232.80C83.04-220.80 67.20-205.44 55.68-185.76C48.48-173.28 43.20-159.84 39.36-145.92C38.88-143.52 37.92-141.60 37.44-139.20C36.96-136.32 35.52-135.84 33.12-136.80C27.84-139.68 23.04-142.56 20.16-147.84C15.36-156.96 13.44-166.56 15.36-176.64C21.60-206.88 35.52-232.80 55.20-256.32C72.96-276.96 94.08-293.28 120-302.88C150.24-313.92 178.56-309.60 205.92-294.24C216.48-288.48 223.68-279.36 228.96-268.80C236.16-254.40 239.52-238.56 240.96-222.72C243.36-188.16 237.12-154.56 225.60-122.40C219.84-104.64 212.16-87.36 203.04-71.52C192.96-54.24 180-39.84 163.68-28.80C144.48-16.32 123.84-11.52 100.80-15.84C87.36-18.72 76.32-24.96 67.20-35.52C55.20-49.92 48-66.72 46.56-85.92C46.08-97.44 46.56-108.96 48.48-120C48.96-123.84 50.40-125.28 54.24-124.80C58.08-124.32 62.40-123.84 66.72-126.72ZM264.48-162.72C264.48-164.64 264.48-166.56 264.96-168.96C264.96-171.36 265.44-173.76 265.44-176.16C265.92-181.92 264-185.76 261.12-185.28C256.80-184.80 257.28-180.96 255.84-178.08C255.84-177.12 255.36-176.16 255.36-175.20C253.44-162.72 251.52-150.24 250.08-137.76C249.60-135.84 249.60-134.40 249.60-132.48C249.60-129.60 250.56-127.68 253.44-127.20C255.84-126.72 257.28-128.16 258.24-130.08C259.20-131.52 259.68-133.44 260.16-134.88C264.48-144.96 270.24-154.08 276.96-162.72C282.72-169.92 288.48-176.64 297.12-180C299.04-180.48 300.96-180.48 300-183.36C299.52-185.28 297.60-185.28 295.68-184.80C290.88-184.32 286.56-181.92 282.72-179.04C276.48-174.24 271.20-168 264.48-162.72ZM319.68-140.64C321.60-144.48 324.48-145.44 326.88-147.36C331.20-151.68 335.04-156 338.40-161.28C340.32-164.64 341.28-168.48 340.32-172.32C339.36-177.60 336-179.52 331.20-176.64C327.84-175.20 325.92-172.32 323.04-169.92C321.60-168 321.12-164.64 318.24-163.68C318.24-164.16 317.76-164.64 317.76-164.64C322.56-198.72 326.88-232.80 331.68-267.36C331.68-268.80 331.68-270.72 334.56-270.72C338.88-271.68 336.48-275.04 336.48-277.44C336-279.36 335.04-282.24 332.64-282.72C329.76-283.20 327.84-281.28 326.88-278.88C324.48-273.60 323.04-268.32 322.08-262.56C316.80-227.04 311.52-191.52 306.24-156C305.28-150.24 305.76-144 301.44-139.20C300.48-137.76 300.48-136.80 300.96-135.84C303.36-132 301.92-128.64 301.44-125.28C300-118.56 299.04-111.84 297.60-105.12C297.60-103.20 297.60-101.76 299.04-101.28C300.96-100.32 301.92-101.76 302.88-103.20C303.36-104.64 304.32-106.08 304.80-108C306.72-114.72 309.12-120.96 310.56-127.68C311.52-131.52 313.44-132.96 317.28-133.44C329.76-134.40 341.76-136.80 352.80-142.08C354.72-143.04 357.12-143.04 357.60-146.40C345.12-144.48 333.12-138.72 319.68-140.64ZM324-156.96C325.44-162.24 326.88-168 333.60-170.40C332.16-163.68 328.80-159.84 324-156.96ZM381.60-148.80C393.12-134.88 410.88-133.92 421.44-145.92C415.68-144.48 409.92-142.56 403.68-143.04C396.48-143.52 392.64-146.40 391.20-153.60C390.72-155.52 390.72-156.96 390.24-158.88C389.76-160.80 389.28-163.20 386.88-163.20C384-163.68 383.04-162.24 382.08-159.84C379.20-153.60 375.36-148.80 370.56-144C369.60-142.56 368.16-140.16 365.28-141.60C365.76-147.36 366.72-152.64 366.72-158.40C366.24-161.76 365.76-164.64 361.92-165.12C358.08-165.12 356.16-163.20 355.20-159.84C353.76-154.56 352.32-149.28 352.32-144C352.32-138.72 355.20-133.92 359.52-132.48C364.32-130.56 368.16-132.48 371.52-136.32C374.88-140.16 377.76-144.48 381.60-148.80ZM428.16-144C428.64-147.84 428.64-150.72 428.64-153.12C428.64-156 428.16-158.88 424.80-159.36C421.92-159.84 420.48-157.44 420.00-155.04C418.08-147.36 415.68-139.68 414.72-131.52C414.72-128.16 414.72-125.28 418.56-124.32C421.92-123.36 423.36-125.76 424.80-128.16C428.64-133.92 432.48-139.68 436.80-144.96C443.04-152.64 450.72-159.36 460.80-164.16C460.80-158.88 460.32-155.04 460.80-151.20C461.76-143.52 465.12-137.76 472.80-134.88C485.28-131.04 503.52-135.36 513.12-145.44C510.72-144.48 508.32-143.52 505.92-142.56C498.72-140.64 491.52-137.76 483.36-139.68C477.12-141.12 472.80-144 472.32-150.72C471.84-153.60 471.84-156 471.36-158.88C468.96-170.40 464.64-172.32 454.56-166.08C447.84-162.24 443.04-156.96 437.28-151.68C434.88-149.28 432.96-146.40 428.16-144ZM772.80-110.88C797.28-146.88 789.12-144.48 789.12-144.48C794.40-155.04 755.04-94.56 735.36-75.84C717.12-58.08 696.96-43.68 673.92-34.08C664.32-29.76 654.72-26.88 644.16-26.40C616.80-25.92 581.76-39.36 577.44-82.56C576-93.12 575.52-103.20 576.96-113.28C583.20-168 602.40-216.96 634.08-262.08C642.72-274.08 652.80-284.64 664.32-293.76C673.44-300.96 683.52-306.24 694.56-308.64C719.52-314.88 740.16-302.40 746.88-277.44C748.32-271.68 748.80-265.92 748.80-259.68C748.80-257.28 748.32-254.88 749.76-251.52C751.20-252.96 751.68-253.92 752.16-254.40C763.20-286.56 737.28-321.12 703.20-319.68C686.40-318.72 671.04-313.92 657.60-303.36C642.24-292.32 629.76-278.88 619.20-263.52C590.88-223.68 572.16-180 564-132C560.16-110.88 559.20-89.76 564.96-68.64C570.24-49.44 580.80-35.52 598.56-26.40C625.92-12.96 652.32-14.40 679.20-27.36C718.56-46.08 748.32-75.36 772.80-110.88ZM799.68-149.76C795.36-149.76 791.52-146.88 791.52-143.52C791.52-140.16 795.36-136.80 798.72-137.28C802.08-137.76 804.96-141.60 804.48-144.96C804-148.32 802.08-149.76 799.68-149.76Z" fill="#000000"/>
  </g>
</svg>