<svg width="2424" height="574" viewBox="0 0 2424 574" xmlns="http://www.w3.org/2000/svg">
  <g transform="translate(-11.4375, 373.1)">
    <path d="M54.84-282.42L54.84-282.42L54.84-282.42Q55.55-283.36 55.78-283.83Q56.02-284.30 56.25-284.77L56.25-284.77Q56.48-285 56.72-285.35Q56.95-285.70 57.19-286.41L57.19-286.41Q57.89-288.05 59.30-289.69L59.30-289.69Q61.17-292.03 61.88-294.61L61.88-294.61Q62.34-297.66 63.98-300.47L63.98-300.47Q65.16-303.05 65.86-305.63L65.86-305.63Q66.09-306.33 67.03-307.97L67.03-307.97Q67.97-309.38 68.44-310.55L68.44-310.55Q68.67-311.25 69.02-311.72Q69.38-312.19 69.61-312.42L69.61-312.42Q69.84-312.66 70.08-313.01Q70.31-313.36 70.31-313.59L70.31-313.59Q70.31-314.06 70.90-315Q71.48-315.94 72.19-316.88Q72.89-317.81 73.36-318.28L73.36-318.28Q73.36-318.28 73.36-318.52L73.36-318.52Q73.59-318.75 73.83-318.98L73.83-318.98Q75.23-322.03 85.55-330L85.55-330Q86.95-330.94 89.06-331.17L89.06-331.17Q90.94-331.41 92.11-331.88L92.11-331.88Q93.28-332.58 97.62-332.93Q101.95-333.28 107.58-333.16Q113.20-333.05 117.89-332.34L117.89-332.34Q125.63-331.17 133.13-326.02L133.13-326.02Q133.83-325.55 134.30-325.08L134.30-325.08Q135.47-324.38 136.52-323.55Q137.58-322.73 139.10-320.98Q140.63-319.22 143.20-315.70L143.20-315.70Q145.55-312.66 146.95-310.66Q148.36-308.67 149.06-307.62Q149.77-306.56 150-306.09Q150.23-305.63 150.47-305.16L150.47-305.16Q150.47-304.92 150.59-304.69Q150.70-304.45 150.94-304.22L150.94-304.22Q151.88-302.81 152.11-301.88L152.11-301.88Q152.58-300.70 153.52-299.53L153.52-299.53Q153.98-298.59 154.45-297.54Q154.92-296.48 155.39-294.14L155.39-294.14Q155.63-293.20 155.98-292.38Q156.33-291.56 156.56-291.33L156.56-291.33Q156.80-291.09 156.91-290.74Q157.03-290.39 157.03-290.16L157.03-290.16Q156.80-289.92 156.91-289.80Q157.03-289.69 157.03-289.69L157.03-289.69Q157.27-289.69 157.38-289.45Q157.50-289.22 157.50-288.75L157.50-288.75Q157.50-287.81 158.44-285.23Q159.38-282.66 160.31-280.78L160.31-280.78Q162.42-276.56 163.36-272.11L163.36-272.11Q163.83-270 164.30-268.13L164.30-268.13Q164.77-266.72 164.77-265.78L164.77-265.78Q165-264.84 165.47-263.67L165.47-263.67Q165.70-262.27 165.70-261.33L165.70-261.33Q165.94-260.63 166.17-258.98L166.17-258.98Q168.05-251.72 168.52-248.91L168.52-248.91Q168.75-247.27 169.22-245.39L169.22-245.39Q169.22-244.92 169.45-243.40Q169.69-241.88 169.92-240L169.92-240Q170.16-237.19 170.51-234.84Q170.86-232.50 170.86-232.03L170.86-232.03Q171.09-231.33 171.56-227.81Q172.03-224.30 172.50-219.49Q172.97-214.69 173.32-210.47Q173.67-206.25 173.67-204.14L173.67-204.14Q173.91-202.50 174.02-201.09Q174.14-199.69 174.14-199.45L174.14-199.45Q174.61-197.58 174.84-193.83Q175.08-190.08 175.08-186.33L175.08-186.33Q175.31-182.34 175.31-181.17L175.31-181.17Q175.55-180.23 175.55-179.77Q175.55-179.30 175.31-178.83L175.31-178.83Q175.31-178.36 175.31-177.89Q175.31-177.42 175.55-176.72L175.55-176.72Q175.78-176.25 176.02-174.49Q176.25-172.73 176.13-170.98Q176.02-169.22 175.78-168.05L175.78-168.05Q175.78-167.58 175.78-166.99Q175.78-166.41 175.78-166.17L175.78-166.17Q176.25-164.30 176.48-163.48Q176.72-162.66 176.60-162.30Q176.48-161.95 176.48-161.48L176.48-161.48Q176.25-161.25 176.13-160.55Q176.02-159.84 176.02-158.44Q176.02-157.03 176.25-154.45L176.25-154.45Q176.25-154.45 176.25-154.22L176.25-154.22Q176.72-151.88 176.02-147.89L176.02-147.89Q175.78-147.66 175.90-147.30Q176.02-146.95 176.02-146.72L176.02-146.72Q176.48-146.02 176.25-144.14L176.25-144.14Q176.25-143.44 176.25-142.97Q176.25-142.50 176.25-142.27Q176.25-142.03 176.48-141.80L176.48-141.80Q176.48-141.56 176.60-141.33Q176.72-141.09 176.84-140.39Q176.95-139.69 176.95-138.52L176.95-138.52Q176.72-136.41 176.72-133.83L176.72-133.83Q176.48-131.48 176.48-129.61Q176.48-127.73 176.25-127.27L176.25-127.27Q176.02-126.80 175.90-125.98Q175.78-125.16 176.02-124.22L176.02-124.22Q176.02-123.52 175.90-122.81Q175.78-122.11 175.78-122.11L175.78-122.11Q175.55-121.88 175.55-121.41Q175.55-120.94 175.55-120.47L175.55-120.47Q175.55-120 175.31-119.18Q175.08-118.36 175.08-117.66L175.08-117.66Q174.61-115.78 174.61-114.14L174.61-114.14Q174.61-112.50 174.14-110.63L174.14-110.63Q173.67-109.69 173.67-109.22Q173.67-108.75 173.67-108.28L173.67-108.28Q173.67-107.81 173.67-106.76Q173.67-105.70 173.20-103.83L173.20-103.83Q172.73-102.42 172.62-101.48Q172.50-100.55 172.50-100.31L172.50-100.31Q172.50-100.31 172.50-99.96Q172.50-99.61 172.27-99.38L172.27-99.38Q172.03-99.14 172.03-98.79Q172.03-98.44 172.27-97.73L172.27-97.73Q172.50-97.27 172.38-96.68Q172.27-96.09 172.03-95.16L172.03-95.16Q171.56-94.22 171.56-93.63Q171.56-93.05 171.56-92.58L171.56-92.58Q171.56-92.11 171.56-91.64Q171.56-91.17 171.33-90.23L171.33-90.23Q170.63-88.36 170.63-87.42L170.63-87.42Q170.63-86.25 170.39-85.08L170.39-85.08Q170.16-84.61 169.92-84.02Q169.69-83.44 169.69-82.97L169.69-82.97Q169.69-82.27 169.45-81.80Q169.22-81.33 169.22-81.09L169.22-81.09Q168.98-80.86 168.98-80.63Q168.98-80.39 168.98-80.16L168.98-80.16Q168.98-79.92 168.87-79.45Q168.75-78.98 168.28-78.28L168.28-78.28Q167.81-77.11 167.70-76.41Q167.58-75.70 167.58-75.23L167.58-75.23Q167.58-74.30 167.11-72.66L167.11-72.66Q166.88-71.95 166.88-71.60Q166.88-71.25 166.88-71.02L166.88-71.02Q166.88-70.78 166.88-70.55Q166.88-70.31 166.64-69.61L166.64-69.61Q166.17-68.44 165.94-66.80L165.94-66.80Q165.70-64.92 165-63.52L165-63.52Q164.77-63.05 164.65-62.70Q164.53-62.34 164.53-61.88L164.53-61.88Q164.30-61.17 163.83-59.77L163.83-59.77Q163.13-57.89 162.66-56.25L162.66-56.25Q162.42-55.08 161.84-53.32Q161.25-51.56 160.08-48.52L160.08-48.52Q159.38-47.11 158.91-45.94Q158.44-44.77 158.67-44.53L158.67-44.53Q158.67-44.53 158.55-44.18Q158.44-43.83 157.97-43.36L157.97-43.36Q157.73-42.89 157.38-42.07Q157.03-41.25 156.80-40.55L156.80-40.55Q156.56-39.84 156.45-39.38Q156.33-38.91 156.21-38.79Q156.09-38.67 155.86-38.67L155.86-38.67Q155.86-38.44 155.74-38.32Q155.63-38.20 155.39-37.85Q155.16-37.50 154.92-36.80L154.92-36.80Q153.98-34.22 152.81-32.11L152.81-32.11Q151.88-30.47 151.41-29.06L151.41-29.06Q151.17-28.59 151.05-28.36Q150.94-28.13 150.82-28.01Q150.70-27.89 150.47-27.89L150.47-27.89Q150.47-27.66 150.23-27.54Q150-27.42 149.77-26.72L149.77-26.72Q149.53-26.25 148.24-24.26Q146.95-22.27 145.20-19.80Q143.44-17.34 142.03-15.47Q140.63-13.59 140.39-13.59L140.39-13.59Q140.39-13.59 140.27-13.48Q140.16-13.36 140.16-13.13L140.16-13.13Q140.16-12.89 139.92-12.54Q139.69-12.19 139.45-11.95L139.45-11.95Q138.98-11.72 138.75-11.48Q138.52-11.25 138.52-11.25L138.52-11.25Q138.52-11.02 138.40-10.90Q138.28-10.78 138.05-10.78L138.05-10.78Q138.05-10.78 137.81-10.55Q137.58-10.31 137.34-10.08L137.34-10.08Q137.11-9.61 136.64-9.14Q136.17-8.67 135.70-8.44L135.70-8.44Q135.23-7.97 134.88-7.62Q134.53-7.27 134.53-7.27L134.53-7.27Q134.53-7.03 134.41-7.03Q134.30-7.03 134.30-7.03L134.30-7.03Q134.06-7.03 133.83-7.03Q133.59-7.03 133.36-6.56L133.36-6.56Q133.13-6.33 132.66-5.98Q132.19-5.63 131.72-5.39L131.72-5.39Q130.78-4.92 130.43-4.69Q130.08-4.45 129.61-4.22L129.61-4.22Q129.38-3.98 129.14-3.75Q128.91-3.52 128.20-3.28L128.20-3.28Q127.73-3.05 127.50-2.81Q127.27-2.58 127.27-2.58L127.27-2.58Q127.27-2.34 127.15-2.23Q127.03-2.11 126.80-1.99Q126.56-1.88 126.33-1.88L126.33-1.88Q125.86-1.88 125.39-1.64Q124.92-1.41 124.45-1.17L124.45-1.17Q123.05 0 116.02 1.41L116.02 1.41Q113.91 1.88 110.86 2.11Q107.81 2.34 101.02 2.34L101.02 2.34Q96.09 2.58 92.70 2.46Q89.30 2.34 88.83 2.34L88.83 2.34L88.83 2.34Q88.13 2.11 85.78 1.88L85.78 1.88Q83.44 1.64 80.86 1.29Q78.28 0.94 76.88 0.23L76.88 0.23Q74.06-1.17 72.89-1.64L72.89-1.64Q72.19-2.11 71.60-2.34Q71.02-2.58 70.31-3.28L70.31-3.28Q69.84-3.52 69.14-3.98Q68.44-4.45 67.97-4.69L67.97-4.69Q67.73-4.92 67.38-5.16Q67.03-5.39 67.03-5.63L67.03-5.63Q67.03-5.86 66.45-6.33Q65.86-6.80 65.04-7.38Q64.22-7.97 63.75-8.20L63.75-8.20Q63.75-8.20 63.52-8.20L63.52-8.20Q63.28-8.67 63.05-8.91Q62.81-9.14 62.81-9.38L62.81-9.38Q62.81-9.84 62.58-10.20Q62.34-10.55 61.88-10.78L61.88-10.78Q61.41-11.02 61.17-11.25Q60.94-11.48 60.70-11.72L60.70-11.72Q60.70-11.95 60.59-11.95Q60.47-11.95 60.23-11.95L60.23-11.95Q60-11.95 59.88-12.30Q59.77-12.66 59.77-12.89L59.77-12.89Q59.53-14.06 58.59-14.06L58.59-14.06Q58.36-14.06 58.13-14.18Q57.89-14.30 58.13-14.30L58.13-14.30Q58.13-14.77 57.77-15.59Q57.42-16.41 56.84-17.11Q56.25-17.81 55.78-18.05L55.78-18.05Q55.55-18.05 55.43-18.16Q55.31-18.28 55.31-18.52L55.31-18.52Q55.31-18.75 55.08-19.34Q54.84-19.92 54.49-20.27Q54.14-20.63 53.91-20.63L53.91-20.63Q53.67-20.63 53.55-20.86Q53.44-21.09 53.44-21.33L53.44-21.33Q53.44-21.56 53.32-21.80Q53.20-22.03 53.20-22.03L53.20-22.03Q52.73-22.03 52.38-22.38Q52.03-22.73 51.68-23.20Q51.33-23.67 51.56-23.91L51.56-23.91Q51.56-24.14 51.45-24.26Q51.33-24.38 51.09-24.38L51.09-24.38Q50.63-24.38 50.86-25.08L50.86-25.08Q50.86-25.55 50.74-26.25Q50.63-26.95 50.27-27.42Q49.92-27.89 49.45-27.89L49.45-27.89Q48.75-27.89 48.28-28.83Q47.81-29.77 47.81-30.94L47.81-30.94Q47.81-32.34 47.46-33.05Q47.11-33.75 46.41-33.75L46.41-33.75Q46.17-33.75 45.94-33.98Q45.70-34.22 45.70-34.69L45.70-34.69Q45.70-34.92 45.47-35.16Q45.23-35.39 45.23-35.39L45.23-35.39Q44.77-35.39 45-36.09L45-36.09Q45-36.56 44.53-36.80L44.53-36.80Q43.83-37.03 43.83-37.73L43.83-37.73Q44.06-37.97 43.95-38.09Q43.83-38.20 43.83-38.20L43.83-38.20Q43.59-38.20 43.36-39.26Q43.13-40.31 42.89-41.95L42.89-41.95Q42.89-43.83 41.95-43.83L41.95-43.83Q41.72-43.83 41.48-44.18Q41.25-44.53 41.02-45Q40.78-45.47 40.78-45.70L40.78-45.70Q40.78-45.94 40.66-46.05Q40.55-46.17 40.55-46.41L40.55-46.41Q40.31-46.41 40.31-46.76Q40.31-47.11 40.55-47.58L40.55-47.58Q40.55-48.28 39.84-49.45L39.84-49.45Q39.38-49.92 39.14-50.39Q38.91-50.86 38.91-50.86L38.91-50.86Q38.91-51.09 38.79-51.21Q38.67-51.33 38.67-51.33L38.67-51.33Q38.20-51.33 37.97-52.38Q37.73-53.44 37.73-55.08L37.73-55.08Q37.73-56.25 37.50-56.84Q37.27-57.42 36.80-57.66L36.80-57.66Q36.56-57.89 36.21-58.71Q35.86-59.53 35.86-60.47Q35.86-61.41 36.09-61.88L36.09-61.88Q36.09-62.11 36.09-62.23Q36.09-62.34 35.86-62.34L35.86-62.34Q35.63-62.34 35.63-62.58Q35.63-62.81 35.63-63.28L35.63-63.28Q35.39-63.52 35.39-63.75Q35.39-63.98 35.16-64.22L35.16-64.22Q35.16-64.22 35.04-64.45Q34.92-64.69 34.92-65.16L34.92-65.16Q34.92-65.39 34.80-65.74Q34.69-66.09 34.45-66.09L34.45-66.09Q34.22-66.33 34.10-66.45Q33.98-66.56 33.98-67.03L33.98-67.03Q33.75-67.50 33.52-68.20L33.52-68.20Q33.52-68.67 33.40-69.38Q33.28-70.08 33.28-70.55L33.28-70.55Q33.28-71.02 33.05-71.60Q32.81-72.19 32.81-72.42L32.81-72.42Q32.58-72.66 32.46-72.89Q32.34-73.13 32.34-73.36L32.34-73.36Q32.34-73.59 32.34-73.83Q32.34-74.06 32.34-74.30L32.34-74.30Q32.11-74.77 31.99-75.70Q31.88-76.64 31.88-77.34L31.88-77.34Q31.64-77.81 31.64-78.28L31.64-78.28Q31.64-78.52 31.52-78.75Q31.41-78.98 31.41-78.98L31.41-78.98Q31.41-79.22 31.29-79.45Q31.17-79.69 31.17-80.39Q31.17-81.09 30.94-82.50L30.94-82.50Q30.70-85.31 30.47-86.60Q30.23-87.89 30-88.59L30-88.59Q29.77-89.30 29.65-90.12Q29.53-90.94 29.30-92.81L29.30-92.81Q29.30-93.98 29.18-94.80Q29.06-95.63 28.83-95.86L28.83-95.86Q28.83-96.09 28.71-96.33Q28.59-96.56 28.83-96.80L28.83-96.80Q28.83-97.03 28.83-97.27Q28.83-97.50 28.59-97.73L28.59-97.73Q28.13-98.91 27.89-103.13L27.89-103.13Q27.89-104.06 27.89-104.53Q27.89-105 27.77-105.35Q27.66-105.70 27.66-105.94L27.66-105.94Q27.66-106.17 27.54-106.52Q27.42-106.88 27.42-107.81L27.42-107.81Q27.42-108.75 27.30-109.34Q27.19-109.92 26.95-110.39L26.95-110.39Q26.95-111.09 26.84-111.91Q26.72-112.73 26.48-114.38L26.48-114.38Q26.25-119.06 25.78-119.53L25.78-119.53Q25.55-120 25.43-120.59Q25.31-121.17 25.31-121.76Q25.31-122.34 25.55-122.34L25.55-122.34Q25.55-122.34 25.55-122.93Q25.55-123.52 25.55-124.34Q25.55-125.16 25.55-125.98Q25.55-126.80 25.55-127.03L25.55-127.03Q25.31-127.03 25.31-127.38Q25.31-127.73 25.55-127.97L25.55-127.97Q25.55-128.44 25.43-129.26Q25.31-130.08 25.08-131.02L25.08-131.02Q24.84-131.95 24.73-132.42Q24.61-132.89 24.73-133.13Q24.84-133.36 25.08-133.59L25.08-133.59Q25.08-133.83 25.20-133.95Q25.31-134.06 25.31-134.30L25.31-134.30Q25.08-134.30 25.08-134.77Q25.08-135.23 24.84-135.70L24.84-135.70Q24.84-136.88 24.73-137.46Q24.61-138.05 24.38-138.28Q24.14-138.52 24.02-138.63Q23.91-138.75 23.91-138.75L23.91-138.75Q23.91-138.75 23.79-138.87Q23.67-138.98 23.55-139.22Q23.44-139.45 23.44-139.92Q23.44-140.39 23.44-141.21Q23.44-142.03 23.44-143.20L23.44-143.20Q23.67-150.23 24.02-155.74Q24.38-161.25 24.84-162.89L24.84-162.89Q24.84-163.13 24.96-163.71Q25.08-164.30 24.84-164.77L24.84-164.77Q24.84-165.47 24.96-165.94Q25.08-166.41 25.31-166.88L25.31-166.88Q25.55-167.58 25.55-168.98L25.55-168.98Q25.78-170.39 26.02-172.03L26.02-172.03Q26.48-173.91 26.48-176.48L26.48-176.48Q26.48-177.66 26.60-178.13Q26.72-178.59 26.72-178.83L26.72-178.83Q26.72-178.83 26.84-179.06Q26.95-179.30 26.95-179.77Q26.95-180.23 26.72-180.94L26.72-180.94Q26.72-181.88 26.84-182.58Q26.95-183.28 26.95-183.52L26.95-183.52Q27.19-183.75 27.19-184.10Q27.19-184.45 27.19-184.69L27.19-184.69Q27.19-185.16 27.42-185.98Q27.66-186.80 27.89-187.73L27.89-187.73Q28.36-188.91 28.59-190.31Q28.83-191.72 29.06-194.53L29.06-194.53Q29.53-197.81 29.77-199.22Q30-200.63 30.23-201.09L30.23-201.09Q30.23-201.56 30.35-202.03Q30.47-202.50 30.70-203.44L30.70-203.44Q30.70-204.14 30.82-204.61Q30.94-205.08 30.94-205.31L30.94-205.31Q31.17-205.55 31.17-205.90Q31.17-206.25 31.41-207.19L31.41-207.19Q31.64-209.53 32.70-214.22Q33.75-218.91 34.69-222.89L34.69-222.89Q35.63-226.64 35.86-227.81L35.86-227.81Q36.33-230.39 37.50-233.44L37.50-233.44Q38.20-235.55 38.44-236.95L38.44-236.95Q38.91-239.06 39.61-240.70L39.61-240.70Q40.08-242.11 40.31-243.52L40.31-243.52Q40.55-244.45 40.78-245.16L40.78-245.16Q41.48-246.33 41.72-248.67L41.72-248.67Q41.72-249.38 41.95-250.20Q42.19-251.02 42.42-251.25L42.42-251.25Q42.89-251.72 43.36-253.24Q43.83-254.77 44.30-256.29Q44.77-257.81 44.77-258.28L44.77-258.28Q44.77-258.52 44.88-258.87Q45-259.22 45-259.45L45-259.45Q45.23-259.69 45.47-260.16Q45.70-260.63 45.70-261.09L45.70-261.09Q45.94-262.03 46.29-263.32Q46.64-264.61 47.23-265.78Q47.81-266.95 48.05-267.42L48.05-267.42Q48.28-267.42 48.40-267.89Q48.52-268.36 48.52-268.83L48.52-268.83Q48.52-269.06 48.75-269.77Q48.98-270.47 49.45-271.17L49.45-271.17Q49.92-271.88 50.39-272.70Q50.86-273.52 51.09-273.98L51.09-273.98Q51.09-274.45 51.33-274.92Q51.56-275.39 51.56-275.39L51.56-275.39Q51.80-275.39 51.91-275.63Q52.03-275.86 52.03-276.09L52.03-276.09Q52.03-276.56 52.15-277.15Q52.27-277.73 52.73-278.20L52.73-278.20Q52.97-278.91 53.20-279.38Q53.44-279.84 53.44-280.08L53.44-280.08Q53.44-280.31 53.55-280.43Q53.67-280.55 53.67-280.55L53.67-280.55Q53.91-280.55 54.26-281.02Q54.61-281.48 54.84-282.42ZM64.45-160.55L64.45-160.55L64.45-160.55Q64.22-160.08 64.10-159.84Q63.98-159.61 63.98-159.38Q63.98-159.14 64.22-158.67L64.22-158.67Q64.22-158.20 64.22-156.80Q64.22-155.39 64.22-152.58L64.22-152.58Q64.22-152.34 64.22-152.11L64.22-152.11Q63.75-149.06 65.63-129.84L65.63-129.84Q65.86-128.44 65.86-127.38Q65.86-126.33 65.86-126.09L65.86-126.09Q65.86-125.86 66.09-124.10Q66.33-122.34 66.91-120.12Q67.50-117.89 67.97-115.55L67.97-115.55Q68.67-113.67 68.91-112.15Q69.14-110.63 69.14-110.39L69.14-110.39Q69.14-109.92 69.38-109.34Q69.61-108.75 69.84-108.28L69.84-108.28Q70.08-107.81 70.20-106.99Q70.31-106.17 70.55-105.70L70.55-105.70Q70.55-104.30 71.13-102.19Q71.72-100.08 72.42-97.97L72.42-97.97Q72.66-97.27 72.89-96.56Q73.13-95.86 73.13-95.39L73.13-95.39Q73.13-94.92 73.36-94.10Q73.59-93.28 74.06-92.58L74.06-92.58Q74.77-91.41 74.77-90.70L74.77-90.70Q75-89.77 75.47-88.13Q75.94-86.48 76.64-85.08L76.64-85.08Q76.88-84.14 77.11-83.44Q77.34-82.73 77.34-82.73L77.34-82.73Q77.34-82.50 77.46-82.03Q77.58-81.56 77.81-80.98Q78.05-80.39 78.28-79.92Q78.52-79.45 78.75-79.45L78.75-79.45Q78.75-79.45 79.22-78.63Q79.69-77.81 80.16-76.64Q80.63-75.47 80.86-74.65Q81.09-73.83 81.09-73.83L81.09-73.83Q80.86-73.83 80.98-73.71Q81.09-73.59 81.09-73.36L81.09-73.36Q81.33-73.13 81.45-72.89Q81.56-72.66 81.33-72.66L81.33-72.66Q81.33-72.42 81.68-71.84Q82.03-71.25 82.50-70.55L82.50-70.55Q83.20-69.61 83.67-68.67Q84.14-67.73 84.38-67.27L84.38-67.27Q84.61-66.80 84.96-66.09Q85.31-65.39 85.55-65.16L85.55-65.16Q86.02-64.69 86.48-63.63Q86.95-62.58 87.66-61.41L87.66-61.41Q88.13-60.47 88.48-59.65Q88.83-58.83 89.06-58.59L89.06-58.59Q89.30-58.36 89.53-58.01Q89.77-57.66 89.77-57.42L89.77-57.42Q89.77-56.95 91.52-54.84Q93.28-52.73 95.63-50.16Q97.97-47.58 100.20-45.59Q102.42-43.59 103.59-43.36L103.59-43.36Q103.83-43.13 104.30-43.36Q104.77-43.59 105.70-44.18Q106.64-44.77 108.28-46.17L108.28-46.17L108.28-46.17Q109.22-46.88 110.27-47.70Q111.33-48.52 112.03-49.22L112.03-49.22Q112.73-49.92 113.32-50.39Q113.91-50.86 113.91-50.86L113.91-50.86Q114.14-50.86 115.20-52.15Q116.25-53.44 117.66-55.20Q119.06-56.95 120-58.48Q120.94-60 120.94-60.23L120.94-60.23Q120.94-60.47 121.17-60.70Q121.41-60.94 121.64-61.17L121.64-61.17Q121.88-61.41 121.99-61.64Q122.11-61.88 122.11-62.11L122.11-62.11Q122.11-62.34 122.46-62.81Q122.81-63.28 123.28-63.98L123.28-63.98Q124.69-65.63 125.16-67.03L125.16-67.03Q125.39-67.97 126.33-69.38L126.33-69.38Q126.80-70.08 126.91-70.43Q127.03-70.78 127.03-71.02L127.03-71.02Q127.03-71.25 127.15-71.48Q127.27-71.72 127.50-72.19Q127.73-72.66 128.20-73.36L128.20-73.36Q128.91-74.53 129.14-75.23Q129.38-75.94 129.61-76.64L129.61-76.64Q129.84-77.34 130.31-78.63Q130.78-79.92 131.95-82.27L131.95-82.27Q132.66-83.91 132.89-84.73Q133.13-85.55 133.36-86.02L133.36-86.02Q133.36-86.48 133.48-87.07Q133.59-87.66 134.06-88.36L134.06-88.36Q134.30-89.30 134.53-90Q134.77-90.70 134.77-91.17L134.77-91.17Q134.77-91.41 134.88-91.76Q135-92.11 135-92.34L135-92.34Q136.17-93.98 137.34-99.14Q138.52-104.30 139.69-109.45L139.69-109.45Q140.16-112.03 140.63-113.91L140.63-113.91Q141.56-118.59 142.50-125.39L142.50-125.39Q143.20-130.08 143.91-134.30L143.91-134.30Q144.14-134.77 144.26-136.99Q144.38-139.22 144.61-142.03Q144.84-144.84 144.96-147.07Q145.08-149.30 145.08-149.77L145.08-149.77Q144.84-150.23 144.96-150.70Q145.08-151.17 145.31-151.64L145.31-151.64Q145.55-152.34 145.31-153.05L145.31-153.05Q144.84-153.52 145.31-155.16L145.31-155.16Q145.55-155.86 145.66-156.45Q145.78-157.03 145.55-157.27L145.55-157.27Q145.55-157.50 145.43-158.79Q145.31-160.08 145.31-161.60Q145.31-163.13 145.43-164.41Q145.55-165.70 145.55-165.94L145.55-165.94Q145.78-166.64 145.55-167.34L145.55-167.34Q145.31-167.81 145.31-168.16Q145.31-168.52 145.31-169.22L145.31-169.22Q145.55-169.92 145.55-170.39Q145.55-170.86 145.31-171.09L145.31-171.09Q145.08-171.56 144.96-172.03Q144.84-172.50 145.31-173.20L145.31-173.20Q145.55-173.67 145.55-173.91Q145.55-174.14 145.55-174.26Q145.55-174.38 145.31-174.38L145.31-174.38Q145.31-174.38 145.20-174.49Q145.08-174.61 145.08-175.08Q145.08-175.55 145.31-176.25L145.31-176.25Q145.31-176.95 145.31-177.30Q145.31-177.66 145.31-177.89Q145.31-178.13 145.31-178.36L145.31-178.36Q145.08-178.59 144.96-179.06Q144.84-179.53 144.84-180.47L144.84-180.47Q144.84-185.16 144.73-187.03Q144.61-188.91 144.61-189.38L144.61-189.38Q144.61-189.61 144.61-189.73Q144.61-189.84 144.61-189.96Q144.61-190.08 144.61-190.31L144.61-190.31Q144.61-190.55 144.61-191.02L144.61-191.02Q144.84-191.72 144.61-194.06Q144.38-196.41 143.91-199.45L143.91-199.45Q143.67-202.73 143.44-205.55Q143.20-208.36 143.20-209.30L143.20-209.30Q143.20-209.77 143.20-210.23Q143.20-210.70 142.97-211.17L142.97-211.17Q142.73-211.41 142.62-212.58Q142.50-213.75 142.27-215.04Q142.03-216.33 141.91-217.38Q141.80-218.44 142.03-218.67L142.03-218.67Q142.03-218.67 141.91-218.91Q141.80-219.14 141.80-219.14L141.80-219.14Q141.56-219.38 141.45-220.08Q141.33-220.78 141.33-221.72L141.33-221.72Q141.09-222.66 141.09-223.24Q141.09-223.83 140.98-224.06Q140.86-224.30 140.86-224.53L140.86-224.53Q140.86-224.77 140.74-225.12Q140.63-225.47 140.51-225.94Q140.39-226.41 140.39-227.58L140.39-227.58Q139.92-230.63 139.45-232.97L139.45-232.97Q139.22-233.67 139.10-234.38Q138.98-235.08 138.98-235.55L138.98-235.55Q138.98-236.02 138.87-236.60Q138.75-237.19 138.52-237.42L138.52-237.42Q138.28-237.89 137.93-239.30Q137.58-240.70 137.11-242.34L137.11-242.34Q136.88-243.75 136.64-244.69Q136.41-245.63 136.41-245.86L136.41-245.86Q136.17-246.09 136.17-246.21Q136.17-246.33 136.17-246.33L136.17-246.33Q136.41-246.33 136.29-246.45Q136.17-246.56 135.94-246.80L135.94-246.80Q135.70-247.27 135.23-248.55Q134.77-249.84 134.77-251.72L134.77-251.72Q134.30-255.47 133.36-258.05Q132.42-260.63 131.72-260.63L131.72-260.63Q131.72-260.63 131.60-260.98Q131.48-261.33 131.48-261.80L131.48-261.80Q131.25-262.50 131.02-263.32Q130.78-264.14 130.55-264.73Q130.31-265.31 130.08-265.31L130.08-265.31Q130.08-265.31 129.84-265.66Q129.61-266.02 129.61-266.25L129.61-266.25Q129.61-266.72 129.38-267.07Q129.14-267.42 128.67-267.66L128.67-267.66Q128.44-267.66 128.20-267.89Q127.97-268.13 127.97-268.59L127.97-268.59Q127.97-268.83 127.85-269.06Q127.73-269.30 127.50-269.30L127.50-269.30Q127.50-269.30 127.38-269.77Q127.27-270.23 127.27-270.94L127.27-270.94Q127.03-272.34 126.33-272.81L126.33-272.81Q126.09-272.81 125.86-273.05Q125.63-273.28 125.63-273.52L125.63-273.52Q125.63-273.52 125.39-273.98Q125.16-274.45 124.92-274.92L124.92-274.92Q124.45-275.39 124.22-275.98Q123.98-276.56 123.98-276.80L123.98-276.80Q123.98-277.03 123.98-277.15Q123.98-277.27 123.75-277.27L123.75-277.27Q123.28-277.27 122.93-277.85Q122.58-278.44 122.34-279.14L122.34-279.14Q122.34-279.61 121.99-280.20Q121.64-280.78 121.41-281.02L121.41-281.02Q120.94-281.25 120.70-281.48Q120.47-281.72 120.47-282.19L120.47-282.19Q120.47-282.42 120.23-282.66Q120-282.89 119.77-283.13L119.77-283.13Q119.30-283.13 119.18-283.36Q119.06-283.59 119.06-283.83L119.06-283.83Q119.06-284.06 118.83-284.30Q118.59-284.53 118.13-285L118.13-285Q117.89-285.47 117.54-285.82Q117.19-286.17 117.19-286.41L117.19-286.41Q117.19-286.64 116.72-286.99Q116.25-287.34 115.55-287.58L115.55-287.58Q114.84-288.05 114.38-288.40Q113.91-288.75 113.91-288.75L113.91-288.75Q113.91-289.22 113.44-289.45Q112.97-289.69 112.27-290.16L112.27-290.16Q111.56-290.39 111.09-290.74Q110.63-291.09 110.63-291.33L110.63-291.33Q110.63-291.33 110.39-291.45Q110.16-291.56 109.69-291.56L109.69-291.56Q108.98-291.56 107.34-289.80Q105.70-288.05 104.30-285.94L104.30-285.94Q103.83-285.23 103.24-284.41Q102.66-283.59 102.42-283.36L102.42-283.36Q102.19-283.13 101.95-282.77Q101.72-282.42 101.72-282.42L101.72-282.42Q101.72-282.19 101.48-281.72Q101.25-281.25 101.02-280.78L101.02-280.78Q100.55-280.55 100.31-279.96Q100.08-279.38 99.84-278.67L99.84-278.67Q99.38-277.50 98.67-276.56L98.67-276.56Q97.97-275.39 97.03-272.81L97.03-272.81Q97.03-272.81 96.80-272.58L96.80-272.58Q96.56-271.64 96.21-270.47Q95.86-269.30 95.51-268.24Q95.16-267.19 95.16-266.95L95.16-266.95Q95.16-266.95 95.04-266.72Q94.92-266.48 94.69-266.25L94.69-266.25Q94.45-266.02 93.98-264.84Q93.52-263.67 92.81-260.86L92.81-260.86Q92.58-259.92 92.46-259.45Q92.34-258.98 92.11-258.75L92.11-258.75Q91.88-258.52 91.76-258.05Q91.64-257.58 91.64-256.88L91.64-256.88Q91.64-256.41 91.41-255.23Q91.17-254.06 90.70-252.89L90.70-252.89Q90.23-251.72 90-250.90Q89.77-250.08 89.77-249.84L89.77-249.84Q89.77-249.61 89.65-249.38Q89.53-249.14 89.53-248.91L89.53-248.91Q89.30-248.67 89.18-247.97Q89.06-247.27 89.06-246.80Q89.06-246.33 89.06-246.09L89.06-246.09Q89.53-245.86 89.06-244.92L89.06-244.92Q88.83-244.45 88.71-243.87Q88.59-243.28 88.83-242.34L88.83-242.34Q89.06-240.94 88.95-240.23Q88.83-239.53 88.59-238.83L88.59-238.83Q88.13-238.13 87.89-236.84Q87.66-235.55 87.66-233.20L87.66-233.20Q87.89-229.92 87.42-229.22L87.42-229.22Q87.19-228.75 87.07-228.40Q86.95-228.05 86.95-228.05L86.95-228.05Q87.19-227.81 87.66-218.20L87.66-218.20Q87.66-216.56 87.89-215.16Q88.13-213.75 88.13-213.28L88.13-213.28Q88.59-211.88 88.59-210.70L88.59-210.70Q88.83-209.77 89.06-208.48Q89.30-207.19 90-205.31L90-205.31Q90.23-203.91 90.47-202.73L90.47-202.73Q90.47-201.80 90.70-201.09L90.70-201.09Q90.94-200.63 91.05-199.92Q91.17-199.22 91.41-198.52L91.41-198.52Q91.88-195 93.28-191.25L93.28-191.25Q94.45-187.97 95.16-184.92Q95.86-181.88 94.92-179.53L94.92-179.53Q94.92-179.30 94.92-179.30L94.92-179.30Q94.45-177.89 94.22-177.19Q93.98-176.48 93.98-176.13Q93.98-175.78 94.22-175.08L94.22-175.08Q94.45-174.38 94.92-172.73L94.92-172.73Q95.16-171.80 95.51-170.86Q95.86-169.92 96.09-169.45L96.09-169.45Q96.80-168.05 96.56-167.23Q96.33-166.41 95.86-166.17L95.86-166.17Q95.63-165.94 95.51-165.70Q95.39-165.47 95.39-165L95.39-165Q95.39-163.83 92.81-162.42L92.81-162.42Q92.11-161.95 91.88-161.72L91.88-161.72Q91.17-161.48 90.59-161.25Q90-161.02 88.71-160.90Q87.42-160.78 84.96-160.78Q82.50-160.78 77.81-160.78L77.81-160.78Q75.94-160.78 73.59-161.02L73.59-161.02Q73.59-161.02 73.59-161.02L73.59-161.02Q73.36-161.48 72.77-162.19Q72.19-162.89 71.72-163.48Q71.25-164.06 71.25-164.30L71.25-164.30Q71.48-164.53 71.25-164.77Q71.02-165 70.78-165.23L70.78-165.23Q70.31-165.70 69.73-166.64Q69.14-167.58 68.67-168.40Q68.20-169.22 67.97-169.45L67.97-169.45Q67.97-170.16 67.50-171.21Q67.03-172.27 66.33-172.73L66.33-172.73Q66.09-172.97 65.98-173.32Q65.86-173.67 65.86-173.91L65.86-173.91Q65.86-174.14 65.74-174.38Q65.63-174.61 65.39-174.61L65.39-174.61Q65.16-174.61 65.04-174.02Q64.92-173.44 64.80-172.62Q64.69-171.80 64.69-170.98Q64.69-170.16 64.92-169.92L64.92-169.92Q65.16-169.45 65.16-168.40Q65.16-167.34 65.16-166.29Q65.16-165.23 64.92-164.77L64.92-164.77Q64.69-164.77 64.69-164.30Q64.69-163.83 64.69-163.13L64.69-163.13Q64.69-162.66 64.57-161.84Q64.45-161.02 64.45-160.55ZM318.75-128.67L318.75-128.67L318.75-128.67Q318.52-128.44 316.99-127.85Q315.47-127.27 313.59-126.68Q311.72-126.09 310.78-125.86L310.78-125.86Q310.55-125.63 310.55-125.63L310.55-125.63Q304.69-123.75 290.86-123.28L290.86-123.28Q280.78-122.81 276.09-123.98Q271.41-125.16 267.19-128.91L267.19-128.91Q265.31-130.31 263.91-131.48L263.91-131.48Q261.80-132.89 260.74-133.95Q259.69-135 258.98-136.64Q258.28-138.28 257.11-141.80L257.11-141.80Q256.88-142.27 256.64-142.50L256.64-142.50Q250.31-157.50 249.84-174.14L249.84-174.14Q249.61-182.58 251.95-187.38Q254.30-192.19 260.86-196.88L260.86-196.88Q265.78-200.86 269.06-200.86Q272.34-200.86 277.03-197.34L277.03-197.34Q283.59-192.66 285.94-188.44Q288.28-184.22 289.92-178.13L289.92-178.13Q291.09-173.20 290.27-168.63Q289.45-164.06 287.81-162.19L287.81-162.19Q287.58-161.72 287.34-161.48Q287.11-161.25 287.11-161.02L287.11-161.02Q287.11-161.02 286.64-160.20Q286.17-159.38 285.47-158.44L285.47-158.44Q284.77-157.03 284.41-156.45Q284.06-155.86 283.83-155.63L283.83-155.63Q283.83-155.39 283.71-155.27Q283.59-155.16 283.36-154.80Q283.13-154.45 282.66-153.98L282.66-153.98Q281.95-153.28 281.72-152.81Q281.48-152.34 281.60-151.99Q281.72-151.64 281.95-151.17L281.95-151.17Q282.42-150.47 282.89-149.88Q283.36-149.30 283.83-149.06L283.83-149.06Q284.53-148.59 284.77-148.36Q285-148.13 285-148.13L285-148.13Q285.23-147.89 285.35-147.77Q285.47-147.66 285.82-147.42Q286.17-147.19 286.64-146.95L286.64-146.95Q288.28-146.02 289.80-146.25Q291.33-146.48 293.91-147.66L293.91-147.66Q295.08-148.13 296.72-148.59L296.72-148.59Q297.42-149.06 300-150.35Q302.58-151.64 305.63-153.40Q308.67-155.16 310.78-156.56L310.78-156.56Q311.95-157.27 312.66-157.73Q313.36-158.20 313.71-158.44Q314.06-158.67 314.30-158.67Q314.53-158.67 314.77-158.91L314.77-158.91Q314.77-158.91 314.88-158.91Q315-158.91 315.35-159.14Q315.70-159.38 316.17-159.73Q316.64-160.08 317.58-160.78L317.58-160.78Q318.75-161.95 321.09-163.59L321.09-163.59Q332.58-171.33 355.31-193.83L355.31-193.83Q357.19-195.70 358.24-196.64Q359.30-197.58 361.29-197.70Q363.28-197.81 367.27-197.58L367.27-197.58Q371.48-197.58 373.71-197.23Q375.94-196.88 376.76-196.29Q377.58-195.70 377.81-194.30L377.81-194.30Q378.52-191.02 377.81-188.20L377.81-188.20Q377.58-186.56 377.58-185.16Q377.58-183.75 378.52-182.34L378.52-182.34Q379.22-181.41 379.22-180.82Q379.22-180.23 378.98-179.06L378.98-179.06Q378.28-177.66 377.58-173.44L377.58-173.44Q377.34-172.27 376.64-169.45L376.64-169.45Q375.23-163.83 373.71-155.74Q372.19-147.66 373.36-141.80L373.36-141.80Q373.36-141.33 373.71-140.27Q374.06-139.22 374.30-137.81L374.30-137.81Q375-135.47 375.47-133.83L375.47-133.83Q376.88-129.14 388.95-120.47Q401.02-111.80 418.59-107.58L418.59-107.58Q420.70-107.11 421.88-106.88Q423.05-106.64 423.52-106.41L423.52-106.41Q423.98-106.17 424.57-106.05Q425.16-105.94 426.09-105.82Q427.03-105.70 428.67-105.70L428.67-105.70Q459.84-103.13 474.96-103.48Q490.08-103.83 498.05-105L498.05-105Q502.03-105.23 505.55-105.70L505.55-105.70Q514.45-106.41 526.76-108.98Q539.06-111.56 548.79-114.14Q558.52-116.72 559.92-117.19L559.92-117.19Q561.33-117.89 562.15-118.24Q562.97-118.59 563.55-118.71Q564.14-118.83 564.84-119.06L564.84-119.06Q565.78-119.06 566.25-119.18Q566.72-119.30 566.95-119.53L566.95-119.53Q567.19-119.77 567.54-119.88Q567.89-120 568.83-120L568.83-120Q569.30-120.23 570.35-120.59Q571.41-120.94 572.11-121.41L572.11-121.41Q573.05-121.88 573.87-122.11Q574.69-122.34 575.16-122.34L575.16-122.34Q575.86-122.34 576.33-122.58Q576.80-122.81 577.50-123.05L577.50-123.05Q577.97-123.52 578.55-123.75Q579.14-123.98 579.38-123.98L579.38-123.98Q579.84-123.98 581.13-124.45Q582.42-124.92 583.83-125.51Q585.23-126.09 586.17-126.33L586.17-126.33Q587.11-127.03 588.28-127.27L588.28-127.27Q589.69-127.50 591.33-128.20L591.33-128.20Q592.97-129.14 595.78-130.08L595.78-130.08Q597.89-130.78 600-131.72L600-131.72Q600.94-132.19 601.52-132.42Q602.11-132.66 602.34-132.66L602.34-132.66Q602.58-132.66 604.57-133.48Q606.56-134.30 609.38-135.59Q612.19-136.88 614.65-138.16Q617.11-139.45 618.05-140.16L618.05-140.16Q618.98-140.63 619.34-140.74Q619.69-140.86 619.92-140.86L619.92-140.86Q620.39-141.09 621.09-141.33Q621.80-141.56 623.20-142.03L623.20-142.03Q637.73-149.30 642.42-152.11L642.42-152.11Q644.77-153.28 645.94-153.87Q647.11-154.45 647.93-154.34Q648.75-154.22 649.92-153.75L649.92-153.75Q650.63-153.28 652.15-151.76Q653.67-150.23 655.08-148.59Q656.48-146.95 657.19-146.02L657.19-146.02Q657.89-142.03 634.92-128.20Q611.95-114.38 575.27-100.90Q538.59-87.42 498.52-84.38L498.52-84.38Q492.42-84.14 488.44-83.91Q484.45-83.67 482.23-83.44Q480-83.20 478.83-82.97Q477.66-82.73 477.19-82.62Q476.72-82.50 476.25-82.27L476.25-82.27Q476.02-82.03 475.55-81.80Q475.08-81.56 473.91-81.33Q472.73-81.09 470.74-80.74Q468.75-80.39 465.23-80.16L465.23-80.16Q462.19-79.69 455.63-79.45Q449.06-79.22 442.85-79.22Q436.64-79.22 435.23-79.45L435.23-79.45L435.23-79.45Q434.77-79.45 432.89-79.69Q431.02-79.92 428.67-79.92L428.67-79.92Q425.16-80.16 421.99-80.39Q418.83-80.63 418.13-80.86L418.13-80.86Q417.66-80.86 416.25-81.09Q414.84-81.33 413.20-81.56L413.20-81.56Q412.03-81.56 410.98-81.80Q409.92-82.03 409.45-82.03L409.45-82.03Q403.59-83.44 401.02-84.14L401.02-84.14Q399.14-84.61 397.97-84.84Q396.80-85.08 395.86-85.78L395.86-85.78Q395.16-86.02 394.45-86.25Q393.75-86.48 393.28-86.48L393.28-86.48Q391.41-86.72 387.66-88.48Q383.91-90.23 380.39-92.11Q376.88-93.98 375.70-94.92L375.70-94.92Q375-95.39 374.18-95.86Q373.36-96.33 372.89-96.56L372.89-96.56Q371.72-97.27 368.91-99.14L368.91-99.14Q367.50-100.31 365.39-101.95L365.39-101.95Q360.70-105.70 358.01-110.27Q355.31-114.84 355.31-115.78L355.31-115.78Q355.31-116.02 355.08-116.37Q354.84-116.72 354.61-116.95L354.61-116.95Q354.14-117.19 353.79-117.89Q353.44-118.59 353.20-119.30L353.20-119.30Q353.20-120 352.85-120.59Q352.50-121.17 352.50-121.17L352.50-121.17Q352.27-121.17 352.15-121.52Q352.03-121.88 352.03-122.34L352.03-122.34Q352.03-122.81 352.03-123.05Q352.03-123.28 351.91-123.40Q351.80-123.52 351.80-123.75L351.80-123.75Q351.80-123.75 351.68-123.87Q351.56-123.98 351.56-124.45L351.56-124.45Q348.75-136.17 348.52-144.61L348.52-144.61Q348.28-145.78 348.16-146.60Q348.05-147.42 348.05-147.66L348.05-147.66Q347.81-147.66 347.58-147.42Q347.34-147.19 346.88-146.95L346.88-146.95Q344.53-144.38 339.02-140.51Q333.52-136.64 328.13-133.36Q322.73-130.08 320.63-129.38L320.63-129.38Q319.92-129.14 319.45-129.02Q318.98-128.91 318.75-128.67ZM634.22-190.78L634.22-190.78L634.22-190.78Q633.52-194.06 633.16-203.20Q632.81-212.34 632.58-223.01Q632.34-233.67 632.34-241.64Q632.34-249.61 632.34-249.61L632.34-249.61Q632.58-249.61 632.58-250.78Q632.58-251.95 632.58-253.59L632.58-253.59Q632.58-255.47 632.58-257.11Q632.58-258.75 632.81-259.92L632.81-259.92Q633.05-262.03 632.81-262.97L632.81-262.97Q632.34-263.91 632.81-264.84L632.81-264.84Q633.05-265.08 633.05-265.31Q633.05-265.55 632.93-265.66Q632.81-265.78 632.81-266.02L632.81-266.02Q632.58-266.02 632.46-266.13Q632.34-266.25 632.34-266.48Q632.34-266.72 632.58-267.19L632.58-267.19Q632.81-267.42 633.05-268.13Q633.28-268.83 633.28-269.53L633.28-269.53Q633.28-270.70 633.40-271.17Q633.52-271.64 633.75-271.88L633.75-271.88Q633.98-272.11 634.10-272.34Q634.22-272.58 634.22-273.05Q634.22-273.52 633.98-274.22L633.98-274.22Q633.75-274.69 633.75-275.04Q633.75-275.39 633.75-275.63Q633.75-275.86 633.98-276.09L633.98-276.09Q633.98-276.33 634.22-276.91Q634.45-277.50 634.45-278.67L634.45-278.67Q634.69-279.61 634.80-280.31Q634.92-281.02 635.16-281.25L635.16-281.25Q635.39-281.25 635.51-281.60Q635.63-281.95 635.63-282.42L635.63-282.42Q635.63-282.89 636.21-284.18Q636.80-285.47 637.73-287.11L637.73-287.11Q638.44-288.52 639.02-289.69Q639.61-290.86 639.61-291.56L639.61-291.56Q639.84-292.03 640.20-292.85Q640.55-293.67 641.02-294.61L641.02-294.61Q641.25-295.08 641.25-295.43Q641.25-295.78 641.25-295.78L641.25-295.78Q641.25-295.78 641.37-296.02Q641.48-296.25 641.72-296.48L641.72-296.48Q641.95-296.72 642.07-296.95Q642.19-297.19 642.19-297.42L642.19-297.42Q642.19-297.66 642.42-297.89Q642.66-298.13 642.89-298.13L642.89-298.13Q643.36-298.13 643.83-298.36Q644.30-298.59 644.53-298.83L644.53-298.83Q645.23-299.30 646.29-299.30Q647.34-299.30 648.98-299.06L648.98-299.06Q651.09-298.59 654.84-298.36L654.84-298.36Q655.55-298.36 656.02-298.24Q656.48-298.13 656.72-298.13Q656.95-298.13 657.19-297.89L657.19-297.89Q657.42-297.89 658.13-297.66Q658.83-297.42 660.47-297.19L660.47-297.19Q660.94-297.19 661.64-296.95L661.64-296.95Q663.28-296.95 664.57-296.60Q665.86-296.25 666.56-296.02L666.56-296.02Q666.80-295.78 667.38-295.78Q667.97-295.78 668.20-295.78L668.20-295.78Q670.78-295.78 674.18-293.91Q677.58-292.03 678.75-290.16L678.75-290.16Q679.22-288.98 679.45-286.52Q679.69-284.06 679.69-281.60Q679.69-279.14 679.22-278.20L679.22-278.20Q678.98-277.73 678.87-276.80Q678.75-275.86 678.75-274.92L678.75-274.92Q678.75-273.75 678.63-271.99Q678.52-270.23 678.28-268.36L678.28-268.36Q677.81-264.38 678.28-263.91L678.28-263.91Q678.52-263.44 678.52-261.91Q678.52-260.39 678.40-258.98Q678.28-257.58 678.05-257.11L678.05-257.11Q677.81-256.88 677.70-256.41Q677.58-255.94 677.58-254.77Q677.58-253.59 677.81-251.48L677.81-251.48Q677.81-248.44 677.34-244.45L677.34-244.45Q676.64-239.30 676.64-232.27L676.64-232.27Q676.64-229.45 676.76-226.29Q676.88-223.13 676.88-220.55L676.88-220.55Q676.88-219.84 676.88-219.38L676.88-219.38Q677.58-220.31 678.05-220.90Q678.52-221.48 678.75-221.72Q678.98-221.95 679.10-222.19Q679.22-222.42 679.22-222.42L679.22-222.42Q679.22-222.66 679.22-222.77Q679.22-222.89 679.45-223.13Q679.69-223.36 680.04-223.83Q680.39-224.30 680.86-225L680.86-225Q681.09-225.23 681.33-225.47L681.33-225.47Q681.80-225.94 682.50-226.88Q683.20-227.81 683.79-228.63Q684.38-229.45 684.38-229.69L684.38-229.69Q684.38-229.92 684.49-230.04Q684.61-230.16 684.61-230.16L684.61-230.16Q684.84-230.16 685.08-230.51Q685.31-230.86 685.55-231.33L685.55-231.33Q686.25-232.27 689.53-235.66Q692.81-239.06 696.45-242.58Q700.08-246.09 701.48-247.03L701.48-247.03Q701.72-247.27 702.19-247.50L702.19-247.50Q703.83-248.67 707.58-251.13Q711.33-253.59 715.20-255.70Q719.06-257.81 720.94-258.05L720.94-258.05Q722.81-258.05 724.69-258.75L724.69-258.75Q727.27-259.69 731.84-260.27Q736.41-260.86 744.61-259.69L744.61-259.69Q760.55-257.58 768.28-251.72Q776.02-245.86 774.61-230.39L774.61-230.39Q774.38-228.98 774.26-228.05Q774.14-227.11 773.91-226.64L773.91-226.64Q773.67-226.17 773.67-225.70Q773.67-225.23 773.67-224.53Q773.67-223.83 773.91-222.42L773.91-222.42Q774.14-220.78 774.14-219.73Q774.14-218.67 773.91-218.44L773.91-218.44Q773.67-217.73 773.55-216.80Q773.44-215.86 773.67-215.16L773.67-215.16Q773.91-214.45 773.55-213.52Q773.20-212.58 772.73-211.41L772.73-211.41Q772.03-210.47 771.68-209.41Q771.33-208.36 771.33-207.66L771.33-207.66Q771.56-206.95 771.33-206.48Q771.09-206.02 770.63-205.55L770.63-205.55Q770.16-205.08 769.92-204.49Q769.69-203.91 769.69-203.20L769.69-203.20Q769.69-202.50 769.45-202.03Q769.22-201.56 768.98-201.33L768.98-201.33Q768.75-201.33 768.16-200.51Q767.58-199.69 767.23-198.87Q766.88-198.05 766.88-197.81L766.88-197.81Q766.88-197.58 766.41-196.88Q765.94-196.17 765.47-195.47L765.47-195.47Q764.77-194.53 764.41-193.71Q764.06-192.89 764.06-192.66L764.06-192.66Q764.06-192.19 763.83-191.84Q763.59-191.48 763.13-191.25L763.13-191.25Q762.89-191.02 762.66-190.78Q762.42-190.55 762.42-190.31L762.42-190.31Q762.42-190.08 761.95-189.38Q761.48-188.67 760.78-187.97L760.78-187.97Q760.31-187.27 759.84-186.56Q759.38-185.86 759.38-185.63L759.38-185.63Q759.38-185.39 759.02-185.04Q758.67-184.69 757.97-183.87Q757.27-183.05 756.09-181.41L756.09-181.41Q755.16-180.23 754.22-179.06L754.22-179.06Q753.28-177.66 752.81-177.19L752.81-177.19Q752.58-176.95 752.34-176.60Q752.11-176.25 752.11-176.25L752.11-176.25Q752.11-176.02 750.70-174.38Q749.30-172.73 747.30-170.63Q745.31-168.52 743.20-166.41L743.20-166.41Q741.09-164.06 739.57-162.42Q738.05-160.78 738.05-160.55L738.05-160.55Q738.05-160.55 737.93-160.31Q737.81-160.08 737.58-159.84L737.58-159.84Q736.64-159.14 740.51-157.97Q744.38-156.80 750.82-155.63Q757.27-154.45 764.06-153.28L764.06-153.28Q775.08-151.64 779.77-150.47L779.77-150.47Q781.88-149.77 785.63-148.83L785.63-148.83Q791.48-147.42 798.52-145.43Q805.55-143.44 810.23-141.56L810.23-141.56Q812.11-140.86 813.28-140.51Q814.45-140.16 815.86-139.69L815.86-139.69Q817.73-139.22 822.19-137.81L822.19-137.81Q826.41-136.64 828.63-135.82Q830.86-135 831.91-134.65Q832.97-134.30 833.44-134.30L833.44-134.30Q833.91-134.06 834.61-133.83Q835.31-133.59 837.07-133.01Q838.83-132.42 842.34-131.37Q845.86-130.31 851.95-128.67L851.95-128.67Q869.53-123.52 882.66-120.82Q895.78-118.13 898.13-118.36L898.13-118.36Q898.36-118.36 898.71-118.24Q899.06-118.13 899.53-118.13L899.53-118.13Q902.11-117.19 913.48-116.60Q924.84-116.02 938.44-116.48Q952.03-116.95 961.64-119.06L961.64-119.06Q962.81-119.30 964.34-119.53Q965.86-119.77 967.03-120L967.03-120Q968.20-120.23 968.91-120.35Q969.61-120.47 969.96-120.59Q970.31-120.70 970.55-120.94L970.55-120.94Q970.78-120.94 971.37-121.17Q971.95-121.41 973.13-121.64L973.13-121.64Q975-121.88 976.64-122.58L976.64-122.58Q978.98-123.28 979.45-123.28L979.45-123.28Q980.16-123.28 980.39-123.40Q980.63-123.52 980.86-123.52L980.86-123.52Q981.09-123.75 981.21-123.87Q981.33-123.98 981.80-123.98L981.80-123.98Q982.03-123.98 983.44-124.45Q984.84-124.92 986.72-125.63Q988.59-126.33 990.12-126.80Q991.64-127.27 991.88-127.50L991.88-127.50Q992.11-127.73 992.46-127.85Q992.81-127.97 993.28-128.20L993.28-128.20Q994.22-128.20 995.51-128.79Q996.80-129.38 998.20-130.08L998.20-130.08Q999.14-130.31 999.84-130.78L999.84-130.78Q1001.72-131.48 1004.65-133.01Q1007.58-134.53 1010.51-136.17Q1013.44-137.81 1015.43-138.87Q1017.42-139.92 1017.42-139.92L1017.42-139.92Q1018.13-140.16 1019.53-141.09L1019.53-141.09Q1020.70-141.80 1021.76-142.38Q1022.81-142.97 1023.28-142.97L1023.28-142.97Q1023.75-142.97 1024.92-143.67Q1026.09-144.38 1027.38-145.31Q1028.67-146.25 1029.38-146.72L1029.38-146.72Q1029.84-146.95 1029.84-146.95L1029.84-146.95L1031.48-145.55Q1033.36-143.67 1035-142.73L1035-142.73Q1037.34-141.33 1038.28-139.69L1038.28-139.69Q1038.75-138.52 1038.98-137.81Q1039.22-137.11 1039.10-136.76Q1038.98-136.41 1038.52-136.17L1038.52-136.17Q1037.11-134.77 1032.66-131.60Q1028.20-128.44 1023.05-124.69L1023.05-124.69Q1012.27-117.42 1006.29-113.67Q1000.31-109.92 996.68-108.16Q993.05-106.41 989.30-105L989.30-105Q986.48-103.83 982.03-101.95L982.03-101.95Q971.48-97.73 958.01-94.80Q944.53-91.88 936.56-91.17L936.56-91.17Q928.36-90.23 919.80-90.23Q911.25-90.23 905.27-90.59Q899.30-90.94 898.36-91.41L898.36-91.41Q898.13-91.41 897.07-91.52Q896.02-91.64 894.61-91.64L894.61-91.64Q892.27-91.88 889.10-92.46Q885.94-93.05 883.13-93.52L883.13-93.52Q880.08-94.22 878.44-94.45L878.44-94.45Q871.41-95.39 857.93-99.14Q844.45-102.89 831.09-106.99Q817.73-111.09 810.70-113.44L810.70-113.44Q809.53-113.91 808.36-114.14L808.36-114.14Q804.84-115.55 802.97-115.55L802.97-115.55Q801.56-115.55 799.22-116.72L799.22-116.72Q797.58-117.19 795.47-117.89L795.47-117.89Q794.53-118.13 790.31-119.18Q786.09-120.23 781.41-121.41Q776.72-122.58 774.38-123.28L774.38-123.28Q769.22-124.69 759.61-125.86Q750-127.03 739.80-127.97Q729.61-128.91 722.23-129.38Q714.84-129.84 714.84-129.84L714.84-129.84Q714.61-129.84 714.02-129.96Q713.44-130.08 712.73-130.08L712.73-130.08Q711.56-130.31 710.04-130.55Q708.52-130.78 705.47-131.72L705.47-131.72Q704.06-132.19 703.36-132.66Q702.66-133.13 702.19-133.36L702.19-133.36Q701.72-133.83 700.90-134.30Q700.08-134.77 698.20-135L698.20-135Q694.69-135.23 691.64-136.17Q688.59-137.11 687.89-138.05L687.89-138.05Q687.66-138.28 687.66-139.34Q687.66-140.39 687.66-141.56L687.66-141.56Q687.66-143.20 687.66-144.49Q687.66-145.78 687.42-145.78L687.42-145.78Q687.19-145.78 686.95-144.84Q686.72-143.91 686.95-142.73L686.95-142.73Q686.95-142.03 686.84-141.68Q686.72-141.33 686.48-141.09L686.48-141.09Q686.25-140.86 686.13-140.39Q686.02-139.92 686.02-138.52L686.02-138.52Q686.02-137.81 685.90-137.23Q685.78-136.64 685.55-136.41L685.55-136.41Q685.31-136.41 685.08-135.35Q684.84-134.30 684.73-133.01Q684.61-131.72 684.61-130.78L684.61-130.78Q684.61-129.84 684.14-128.20L684.14-128.20Q683.67-126.33 683.44-124.92L683.44-124.92Q683.20-123.28 682.73-122.11L682.73-122.11Q682.27-121.64 682.15-120.94Q682.03-120.23 682.03-119.30L682.03-119.30Q682.27-117.42 681.80-114.84L681.80-114.84Q681.33-112.50 681.33-110.39L681.33-110.39Q681.33-109.69 681.21-108.87Q681.09-108.05 680.86-107.58L680.86-107.58Q680.39-105.94 680.04-104.41Q679.69-102.89 679.92-102.42L679.92-102.42Q680.16-102.19 680.16-101.95Q680.16-101.72 679.92-101.48L679.92-101.48Q679.92-101.25 679.80-100.66Q679.69-100.08 679.69-99.61L679.69-99.61Q679.92-99.14 679.69-98.09Q679.45-97.03 679.22-95.86L679.22-95.86Q678.98-94.69 678.87-94.10Q678.75-93.52 678.87-93.16Q678.98-92.81 678.98-92.58L678.98-92.58Q679.22-92.34 679.22-92.23Q679.22-92.11 679.22-91.76Q679.22-91.41 678.98-90.70L678.98-90.70Q678.75-90 678.63-89.30Q678.52-88.59 678.28-87.89L678.28-87.89Q678.28-87.19 678.05-86.84Q677.81-86.48 677.34-86.48L677.34-86.48Q677.11-86.48 676.76-86.13Q676.41-85.78 675.94-85.08L675.94-85.08Q675-83.20 672.66-83.20L672.66-83.20Q672.19-83.20 671.84-82.97Q671.48-82.73 671.25-82.50L671.25-82.50Q671.02-82.27 670.66-82.15Q670.31-82.03 669.84-82.03L669.84-82.03Q669.38-82.03 669.14-81.91Q668.91-81.80 669.14-81.56L669.14-81.56Q669.14-81.33 668.32-81.21Q667.50-81.09 666.21-81.21Q664.92-81.33 663.52-81.56Q662.11-81.80 661.17-81.80L661.17-81.80Q660.47-82.03 660.23-82.03L660.23-82.03Q654.14-82.97 650.39-83.44L650.39-83.44Q645.70-83.91 643.71-84.38Q641.72-84.84 641.13-85.78Q640.55-86.72 640.55-88.83L640.55-88.83Q640.55-89.53 640.55-90.47L640.55-90.47Q640.55-90.47 640.55-91.17L640.55-91.17Q640.31-91.88 640.31-93.16Q640.31-94.45 640.20-95.63Q640.08-96.80 639.96-97.73Q639.84-98.67 639.84-98.67L639.84-98.67Q639.84-98.67 639.73-99.38Q639.61-100.08 639.84-101.02L639.84-101.02Q639.84-101.95 639.84-102.42Q639.84-102.89 639.73-103.24Q639.61-103.59 639.61-103.83L639.61-103.83Q639.61-104.06 639.49-105Q639.38-105.94 639.38-107.81L639.38-107.81Q639.14-108.28 638.91-113.67L638.91-113.67Q637.97-123.98 637.03-139.34Q636.09-154.69 635.86-162.19L635.86-162.19Q635.63-164.06 635.63-165.23Q635.63-166.41 635.39-166.64L635.39-166.64Q635.16-167.11 635.16-168.98Q635.16-170.86 635.16-173.44L635.16-173.44Q634.92-177.19 634.80-180.47Q634.69-183.75 634.45-184.45L634.45-184.45Q633.98-184.92 633.98-185.86Q633.98-186.80 634.45-187.97L634.45-187.97Q634.69-189.14 634.22-190.78ZM694.69-168.28L694.69-168.28L694.69-168.28Q693.75-167.11 694.22-167.11Q694.69-167.11 695.86-168.28L695.86-168.28L695.86-168.28Q696.33-168.75 696.68-169.22Q697.03-169.69 697.27-169.92L697.27-169.92Q697.50-170.39 699.73-172.50Q701.95-174.61 704.88-177.19Q707.81-179.77 710.04-181.76Q712.27-183.75 712.73-183.98L712.73-183.98Q714.38-185.39 714.96-185.98Q715.55-186.56 715.55-186.80L715.55-186.80Q715.55-186.80 716.60-187.97Q717.66-189.14 719.30-190.55L719.30-190.55Q720.70-192.42 722.34-194.18Q723.98-195.94 725.16-197.23Q726.33-198.52 726.33-198.75L726.33-198.75Q726.33-198.75 726.91-199.45Q727.50-200.16 728.44-201.09L728.44-201.09Q729.84-202.50 731.25-204.14Q732.66-205.78 732.66-206.25L732.66-206.25Q732.66-206.48 732.77-206.72Q732.89-206.95 733.13-206.95L733.13-206.95Q733.13-206.95 733.36-207.07Q733.59-207.19 733.59-207.66L733.59-207.66Q733.83-207.89 734.30-208.59Q734.77-209.30 735.47-210L735.47-210Q736.17-210.70 736.88-211.76Q737.58-212.81 738.05-213.75L738.05-213.75Q738.52-214.69 739.10-215.51Q739.69-216.33 740.16-216.80L740.16-216.80Q740.39-217.03 740.51-217.27Q740.63-217.50 740.86-217.85Q741.09-218.20 741.33-218.67L741.33-218.67Q741.56-219.38 742.50-221.48L742.50-221.48Q743.67-223.83 743.55-225.12Q743.44-226.41 742.27-226.88L742.27-226.88Q741.09-226.88 738.28-225.47Q735.47-224.06 732.66-222.30Q729.84-220.55 728.91-220.08L728.91-220.08Q728.67-219.84 728.20-219.38L728.20-219.38Q726.80-217.97 723.98-215.39Q721.17-212.81 718.59-210.23Q716.02-207.66 715.08-205.78L715.08-205.78Q714.84-205.31 714.49-204.84Q714.14-204.38 713.67-203.91L713.67-203.91Q713.20-203.67 713.09-203.32Q712.97-202.97 712.97-202.73L712.97-202.73Q712.73-202.50 712.62-202.27Q712.50-202.03 712.03-201.80L712.03-201.80Q711.80-201.56 711.56-201.33Q711.33-201.09 711.33-200.86L711.33-200.86Q711.33-200.63 710.51-199.34Q709.69-198.05 708.52-196.41L708.52-196.41Q707.58-195 706.88-193.95Q706.17-192.89 706.17-192.66L706.17-192.66Q706.17-192.42 705.82-191.84Q705.47-191.25 705-190.55L705-190.55Q702.89-187.97 702.42-185.63L702.42-185.63Q702.19-185.16 702.07-184.69Q701.95-184.22 701.72-183.98L701.72-183.98Q701.25-183.52 701.02-183.05Q700.78-182.58 700.78-181.88L700.78-181.88Q700.55-181.17 700.31-180.59Q700.08-180 699.61-179.53L699.61-179.53Q699.38-178.83 699.26-178.48Q699.14-178.13 698.91-177.66L698.91-177.66Q698.91-177.42 698.79-176.95Q698.67-176.48 697.97-176.02L697.97-176.02Q697.50-175.31 697.27-174.84Q697.03-174.38 697.03-173.91L697.03-173.91Q697.03-173.44 696.80-172.97Q696.56-172.50 696.09-171.80L696.09-171.80Q695.86-171.09 695.63-170.74Q695.39-170.39 695.39-170.16L695.39-170.16Q695.39-169.69 695.27-169.34Q695.16-168.98 694.69-168.28ZM1128.28-92.11L1128.28-92.11L1128.28-92.11Q1127.11-92.81 1125.94-93.52Q1124.77-94.22 1124.06-94.45L1124.06-94.45Q1123.36-94.69 1122.54-95.27Q1121.72-95.86 1120.55-96.80L1120.55-96.80Q1119.61-97.50 1118.20-98.67L1118.20-98.67Q1117.97-98.91 1117.03-99.61L1117.03-99.61Q1115.86-100.55 1114.45-101.60Q1113.05-102.66 1112.58-102.89L1112.58-102.89Q1112.34-103.13 1112.11-103.24Q1111.88-103.36 1111.88-103.59L1111.88-103.59Q1111.88-103.83 1111.17-104.65Q1110.47-105.47 1109.53-106.52Q1108.59-107.58 1107.89-108.28L1107.89-108.28Q1107.42-108.75 1107.19-108.98L1107.19-108.98Q1106.48-109.92 1106.02-110.39L1106.02-110.39Q1105.31-111.09 1104.96-111.56Q1104.61-112.03 1104.61-112.50L1104.61-112.50Q1104.61-112.97 1104.49-113.32Q1104.38-113.67 1104.14-113.91L1104.14-113.91Q1103.91-113.91 1103.91-114.14Q1103.91-114.38 1103.91-114.38L1103.91-114.38Q1104.14-114.38 1104.02-114.61Q1103.91-114.84 1103.67-115.31Q1103.44-115.78 1103.20-116.25L1103.20-116.25Q1102.73-116.72 1102.50-117.19Q1102.27-117.66 1102.27-117.89L1102.27-117.89Q1102.27-118.13 1101.91-118.95Q1101.56-119.77 1101.21-120.35Q1100.86-120.94 1100.63-120.94L1100.63-120.94Q1100.39-120.94 1100.39-121.05Q1100.39-121.17 1100.39-121.41L1100.39-121.41Q1100.63-121.64 1100.39-122.23Q1100.16-122.81 1099.92-123.52L1099.92-123.52Q1099.45-124.22 1099.22-124.92Q1098.98-125.63 1098.98-126.09L1098.98-126.09Q1098.52-128.91 1098.05-131.25L1098.05-131.25Q1097.34-134.77 1096.88-138.28L1096.88-138.28Q1096.88-140.16 1096.52-139.80Q1096.17-139.45 1095.47-138.05L1095.47-138.05Q1095-136.64 1094.18-135.23Q1093.36-133.83 1092.42-132.89L1092.42-132.89Q1091.72-132.42 1091.48-131.95Q1091.25-131.48 1091.25-131.25L1091.25-131.25Q1091.25-131.02 1090.31-129.61Q1089.38-128.20 1088.20-126.80L1088.20-126.80Q1087.73-126.09 1087.27-125.51Q1086.80-124.92 1086.80-124.92L1086.80-124.92Q1086.80-124.69 1086.45-124.34Q1086.09-123.98 1085.63-123.52L1085.63-123.52Q1082.11-120 1080.94-118.36L1080.94-118.36Q1080.23-117.42 1079.41-116.60Q1078.59-115.78 1077.07-114.61Q1075.55-113.44 1072.73-111.33L1072.73-111.33Q1062.66-104.30 1052.11-104.30L1052.11-104.30Q1050.47-104.30 1046.13-105.12Q1041.80-105.94 1037.11-106.99Q1032.42-108.05 1030.08-108.75L1030.08-108.75Q1024.45-110.63 1022.23-112.73Q1020-114.84 1019.30-116.48L1019.30-116.48Q1018.59-117.66 1017.66-118.36L1017.66-118.36Q1016.95-118.83 1016.84-119.18Q1016.72-119.53 1016.72-120L1016.72-120Q1016.48-120.23 1016.37-120.47Q1016.25-120.70 1016.02-120.94L1016.02-120.94Q1015.78-121.41 1015.43-121.88Q1015.08-122.34 1014.84-122.93Q1014.61-123.52 1014.61-123.75L1014.61-123.75Q1014.61-123.75 1014.49-124.10Q1014.38-124.45 1014.14-124.92L1014.14-124.92Q1013.91-125.39 1013.79-125.74Q1013.67-126.09 1013.67-126.56L1013.67-126.56Q1013.67-126.80 1013.67-127.15Q1013.67-127.50 1013.20-127.73L1013.20-127.73Q1012.73-128.20 1012.62-129.02Q1012.50-129.84 1012.50-130.55L1012.50-130.55Q1012.27-131.95 1011.80-132.66L1011.80-132.66Q1011.56-133.13 1011.45-133.95Q1011.33-134.77 1011.33-135.70L1011.33-135.70Q1011.09-136.88 1010.86-137.58L1010.86-137.58Q1010.16-140.39 1010.16-146.37Q1010.16-152.34 1010.63-157.97Q1011.09-163.59 1011.33-165.70L1011.33-165.70Q1011.80-169.45 1011.80-170.86L1011.80-170.86Q1012.03-172.03 1012.03-172.73Q1012.03-173.44 1012.38-174.38Q1012.73-175.31 1013.20-176.95L1013.20-176.95Q1013.91-179.30 1015.31-183.75L1015.31-183.75Q1015.55-185.16 1015.90-185.86Q1016.25-186.56 1016.72-187.27L1016.72-187.27Q1017.42-188.20 1018.36-190.08L1018.36-190.08Q1018.83-191.02 1019.30-191.72Q1019.77-192.42 1020-192.89L1020-192.89Q1020.23-193.13 1020.47-193.36Q1020.70-193.59 1020.70-193.83L1020.70-193.83Q1020.70-194.30 1021.64-195.47Q1022.58-196.64 1023.63-197.81Q1024.69-198.98 1025.39-199.22L1025.39-199.22Q1026.09-199.69 1026.56-199.80Q1027.03-199.92 1027.85-199.92Q1028.67-199.92 1030.08-199.45L1030.08-199.45Q1033.36-198.98 1036.88-197.93Q1040.39-196.88 1041.56-196.17L1041.56-196.17Q1043.67-194.30 1044.49-191.60Q1045.31-188.91 1044.38-187.03L1044.38-187.03Q1043.91-186.56 1043.79-185.86Q1043.67-185.16 1043.67-183.98L1043.67-183.98Q1043.91-181.88 1043.44-181.17L1043.44-181.17Q1042.97-180.70 1041.68-180.35Q1040.39-180 1038.98-180L1038.98-180Q1038.28-180 1037.93-179.88Q1037.58-179.77 1037.34-179.18Q1037.11-178.59 1036.88-177.42L1036.88-177.42Q1036.17-174.61 1035.94-169.69Q1035.70-164.77 1036.05-159.73Q1036.41-154.69 1037.11-152.11L1037.11-152.11Q1037.34-151.41 1037.58-150.47L1037.58-150.47Q1037.81-148.83 1038.28-147.42Q1038.75-146.02 1038.98-145.08L1038.98-145.08Q1039.22-144.61 1039.45-144.14Q1039.69-143.67 1039.69-143.44L1039.69-143.44Q1039.69-142.97 1040.74-140.98Q1041.80-138.98 1042.97-137.11Q1044.14-135.23 1044.61-134.77L1044.61-134.77Q1045.08-133.83 1045.55-133.71Q1046.02-133.59 1046.72-134.06L1046.72-134.06Q1048.59-134.77 1050.47-135.70Q1052.34-136.64 1053.52-137.23Q1054.69-137.81 1054.69-138.05L1054.69-138.05Q1054.69-138.28 1054.92-138.40Q1055.16-138.52 1055.39-138.52L1055.39-138.52Q1055.63-138.52 1056.21-138.87Q1056.80-139.22 1057.27-139.92L1057.27-139.92Q1057.97-140.39 1059.02-141.33Q1060.08-142.27 1061.25-142.97L1061.25-142.97Q1062.66-144.14 1063.59-145.08Q1064.53-146.02 1065-146.95L1065-146.95Q1065.70-147.89 1066.88-149.06L1066.88-149.06Q1067.34-149.53 1068.05-150.35Q1068.75-151.17 1069.45-152.11L1069.45-152.11Q1070.16-153.05 1070.51-153.40Q1070.86-153.75 1071.09-153.98L1071.09-153.98Q1071.09-153.98 1071.21-154.22Q1071.33-154.45 1071.56-154.80Q1071.80-155.16 1072.27-155.86L1072.27-155.86Q1072.73-156.56 1073.44-157.62Q1074.14-158.67 1074.61-159.38L1074.61-159.38Q1077.42-163.36 1082.46-172.85Q1087.50-182.34 1091.48-190.55L1091.48-190.55Q1095-197.34 1095.70-198.52L1095.70-198.52Q1097.34-200.86 1097.81-202.03L1097.81-202.03Q1098.05-202.97 1098.52-203.55Q1098.98-204.14 1099.92-204.73Q1100.86-205.31 1102.50-206.25L1102.50-206.25Q1103.91-206.02 1105.31-205.78L1105.31-205.78Q1113.28-204.14 1116.80-202.62Q1120.31-201.09 1121.13-197.58Q1121.95-194.06 1121.95-186.33L1121.95-186.33Q1121.95-176.95 1123.59-157.73L1123.59-157.73Q1124.30-151.64 1125.23-148.36Q1126.17-145.08 1126.88-143.20L1126.88-143.20Q1127.58-141.80 1127.81-140.39L1127.81-140.39Q1129.45-135.23 1131.09-132.89L1131.09-132.89Q1132.73-130.31 1134.96-127.73Q1137.19-125.16 1138.83-123.75L1138.83-123.75Q1140.70-122.34 1141.64-121.17L1141.64-121.17Q1142.58-120.23 1143.63-119.41Q1144.69-118.59 1146.56-117.54Q1148.44-116.48 1151.95-115.08L1151.95-115.08Q1159.69-112.03 1167.54-109.80Q1175.39-107.58 1180.78-106.88L1180.78-106.88Q1183.13-106.64 1184.18-106.41Q1185.23-106.17 1185.70-105.82Q1186.17-105.47 1186.41-105.23L1186.41-105.23Q1186.64-105 1187.11-104.88Q1187.58-104.77 1188.63-104.53Q1189.69-104.30 1191.80-104.30L1191.80-104.30Q1193.67-104.06 1195.78-103.83Q1197.89-103.59 1199.53-103.36L1199.53-103.36Q1202.34-102.89 1210.20-102.66Q1218.05-102.42 1226.48-102.30Q1234.92-102.19 1240.08-102.42L1240.08-102.42Q1291.17-107.11 1294.92-108.98L1294.92-108.98Q1294.69-108.75 1304.41-110.74Q1314.14-112.73 1328.20-116.13Q1342.27-119.53 1354.45-123.28L1354.45-123.28Q1379.77-131.25 1399.22-138.40Q1418.67-145.55 1420.08-146.95L1420.08-146.95Q1420.31-146.95 1420.55-147.07Q1420.78-147.19 1421.25-147.19L1421.25-147.19Q1421.48-147.19 1422.30-147.42Q1423.13-147.66 1423.83-148.13L1423.83-148.13Q1428.75-150.70 1432.03-151.64L1432.03-151.64Q1432.73-151.88 1433.32-152.11Q1433.91-152.34 1434.14-152.58L1434.14-152.58Q1434.38-152.81 1434.61-152.93Q1434.84-153.05 1435.08-153.05L1435.08-153.05Q1435.08-153.05 1436.25-153.63Q1437.42-154.22 1439.06-154.92L1439.06-154.92Q1442.11-156.33 1443.63-156.56Q1445.16-156.80 1446.33-155.86L1446.33-155.86Q1446.80-155.63 1448.09-153.98Q1449.38-152.34 1450.55-150.47Q1451.72-148.59 1452.19-147.42L1452.19-147.42Q1452.19-146.95 1451.02-145.31Q1449.84-143.67 1447.97-141.91Q1446.09-140.16 1444.45-138.98L1444.45-138.98Q1420.55-124.22 1380.35-109.34Q1340.16-94.45 1318.13-90L1318.13-90Q1316.95-89.77 1315.43-89.41Q1313.91-89.06 1312.73-88.83Q1311.56-88.59 1311.33-88.36L1311.33-88.36Q1310.86-88.13 1307.93-87.42Q1305-86.72 1300.66-85.90Q1296.33-85.08 1292.34-84.38L1292.34-84.38Q1289.06-83.67 1286.84-83.20Q1284.61-82.73 1284.14-82.50L1284.14-82.50Q1283.91-82.50 1283.09-82.38Q1282.27-82.27 1281.09-82.03L1281.09-82.03Q1279.22-81.80 1277.46-81.56Q1275.70-81.33 1274.53-81.09L1274.53-81.09Q1267.73-79.92 1259.41-78.87Q1251.09-77.81 1244.30-77.11L1244.30-77.11Q1237.97-76.64 1229.30-76.29Q1220.63-75.94 1213.13-75.94Q1205.63-75.94 1203.05-76.17L1203.05-76.17L1203.05-76.17Q1202.11-76.17 1200.70-76.29Q1199.30-76.41 1197.66-76.41L1197.66-76.41Q1196.02-76.41 1193.67-76.52Q1191.33-76.64 1189.22-77.11L1189.22-77.11Q1186.17-77.58 1185-77.58Q1183.83-77.58 1183.36-77.58L1183.36-77.58Q1182.89-77.58 1182.54-77.58Q1182.19-77.58 1181.60-77.70Q1181.02-77.81 1180.08-78.05L1180.08-78.05Q1177.03-78.52 1173.28-78.75L1173.28-78.75Q1168.36-78.98 1163.44-80.39L1163.44-80.39Q1162.73-80.63 1161.91-80.74Q1161.09-80.86 1160.63-80.86L1160.63-80.86Q1158.28-80.86 1153.13-82.73L1153.13-82.73Q1150.31-83.67 1147.73-84.38L1147.73-84.38Q1144.69-85.08 1142.34-85.90Q1140-86.72 1136.02-88.59L1136.02-88.59Q1133.91-89.30 1132.62-89.88Q1131.33-90.47 1131.09-90.47L1131.09-90.47Q1131.09-90.47 1130.16-90.94Q1129.22-91.41 1128.28-92.11ZM1851.80-146.48L1851.80-146.48L1851.80-146.48Q1852.50-146.72 1853.20-147.19L1853.20-147.19Q1854.38-147.89 1855.43-148.13Q1856.48-148.36 1857.54-147.07Q1858.59-145.78 1859.53-142.03L1859.53-142.03Q1860.23-139.45 1860.35-138.05Q1860.47-136.64 1860.23-135.82Q1860-135 1859.06-134.30L1859.06-134.30Q1842.89-121.17 1812.54-105.23Q1782.19-89.30 1760.86-82.50L1760.86-82.50Q1757.58-81.33 1756.41-80.86L1756.41-80.86Q1755.70-80.63 1755-80.39Q1754.30-80.16 1753.36-79.92L1753.36-79.92Q1750.78-79.45 1746.80-78.28L1746.80-78.28Q1738.36-75.47 1723.59-73.36L1723.59-73.36Q1722.66-73.13 1721.95-73.01Q1721.25-72.89 1721.02-72.66L1721.02-72.66Q1720.55-72.42 1715.86-71.95Q1711.17-71.48 1704.61-71.02Q1698.05-70.55 1692.30-70.31Q1686.56-70.08 1683.98-70.08L1683.98-70.08Q1682.58-70.08 1680-70.20Q1677.42-70.31 1675.08-70.55L1675.08-70.55L1675.08-70.55Q1651.41-71.95 1637.70-75Q1623.98-78.05 1618.59-79.92L1618.59-79.92Q1616.02-80.63 1614.84-80.86L1614.84-80.86Q1614.38-81.09 1613.91-81.21Q1613.44-81.33 1613.20-81.56L1613.20-81.56Q1612.73-81.80 1611.45-82.27Q1610.16-82.73 1608.52-83.20L1608.52-83.20Q1607.11-83.67 1605.94-84.02Q1604.77-84.38 1604.30-84.84L1604.30-84.84Q1603.83-85.08 1603.36-85.20Q1602.89-85.31 1602.42-85.31L1602.42-85.31Q1601.95-85.31 1601.37-85.55Q1600.78-85.78 1600.08-86.25L1600.08-86.25Q1599.61-86.48 1599.14-86.72Q1598.67-86.95 1598.44-86.95L1598.44-86.95Q1598.20-86.95 1597.50-87.30Q1596.80-87.66 1596.09-88.13L1596.09-88.13Q1595.39-88.59 1594.45-89.06Q1593.52-89.53 1592.81-89.77L1592.81-89.77Q1590.94-90.47 1588.83-91.64L1588.83-91.64Q1587.19-92.81 1585.55-93.28L1585.55-93.28Q1583.91-93.75 1582.27-94.92L1582.27-94.92Q1580.86-95.86 1578.52-97.03L1578.52-97.03Q1576.41-98.20 1575.47-98.91L1575.47-98.91Q1575-99.14 1574.53-99.49Q1574.06-99.84 1573.36-100.08L1573.36-100.08Q1572.42-100.31 1570.66-101.48Q1568.91-102.66 1567.03-103.83L1567.03-103.83Q1564.92-105.47 1563.98-105.94L1563.98-105.94Q1562.81-106.64 1560.12-108.98Q1557.42-111.33 1554.49-114.02Q1551.56-116.72 1549.34-118.71Q1547.11-120.70 1547.11-120.70L1547.11-120.70Q1547.11-120.70 1546.88-120.47Q1546.64-120.23 1546.64-120L1546.64-120Q1546.41-119.30 1545.94-119.41Q1545.47-119.53 1544.06-120.94Q1542.66-122.34 1540.08-125.16L1540.08-125.16Q1533.98-131.95 1530.12-137.34Q1526.25-142.73 1526.25-144.38L1526.25-144.38Q1526.25-144.61 1526.02-144.73Q1525.78-144.84 1525.55-145.08L1525.55-145.08Q1525.31-145.31 1524.73-146.02Q1524.14-146.72 1523.79-147.66Q1523.44-148.59 1523.44-149.06L1523.44-149.06Q1523.44-149.53 1523.09-150Q1522.73-150.47 1522.27-150.70L1522.27-150.70Q1521.80-151.17 1521.45-151.52Q1521.09-151.88 1521.09-152.11L1521.09-152.11Q1521.09-152.34 1520.86-152.70Q1520.63-153.05 1520.39-153.28L1520.39-153.28Q1520.16-153.52 1520.04-153.75Q1519.92-153.98 1519.92-154.22L1519.92-154.22Q1520.16-154.45 1519.57-155.39Q1518.98-156.33 1518.52-157.03L1518.52-157.03Q1517.81-158.20 1517.58-158.67L1517.58-158.67Q1517.34-158.91 1516.99-159.61Q1516.64-160.31 1516.29-160.78Q1515.94-161.25 1515.94-161.25L1515.94-161.25Q1515.70-161.25 1515.59-161.37Q1515.47-161.48 1515.47-161.95L1515.47-161.95Q1515.47-162.19 1515.23-162.66Q1515-163.13 1514.53-163.59L1514.53-163.59Q1514.06-163.83 1513.83-164.30Q1513.59-164.77 1513.59-165L1513.59-165Q1513.59-165.23 1513.36-165.70Q1513.13-166.17 1512.89-166.41L1512.89-166.41Q1511.95-167.34 1511.48-167.81Q1511.02-168.28 1511.02-168.75L1511.02-168.75Q1510.78-168.98 1510.55-169.34Q1510.31-169.69 1509.61-170.39L1509.61-170.39Q1509.14-170.86 1508.67-171.45Q1508.20-172.03 1508.20-172.27L1508.20-172.27Q1507.97-172.50 1507.85-172.73Q1507.73-172.97 1507.73-172.97L1507.73-172.97Q1507.50-172.97 1507.03-173.32Q1506.56-173.67 1505.86-174.14L1505.86-174.14Q1504.45-175.78 1502.93-175.66Q1501.41-175.55 1498.48-173.20Q1495.55-170.86 1490.16-165.70L1490.16-165.70Q1489.69-165 1489.22-164.65Q1488.75-164.30 1488.75-164.30L1488.75-164.30Q1488.52-164.30 1487.70-163.36Q1486.88-162.42 1486.05-161.13Q1485.23-159.84 1484.53-158.67L1484.53-158.67Q1484.53-158.20 1484.18-157.85Q1483.83-157.50 1483.59-157.27L1483.59-157.27Q1483.36-157.03 1483.13-156.80Q1482.89-156.56 1482.89-156.33L1482.89-156.33Q1482.89-156.09 1482.42-155.39Q1481.95-154.69 1481.25-153.75L1481.25-153.75Q1480.55-152.81 1479.96-151.88Q1479.38-150.94 1479.38-150.70L1479.38-150.70Q1479.38-150.47 1479.26-150.23Q1479.14-150 1479.14-150L1479.14-150Q1478.91-149.77 1478.44-149.06Q1477.97-148.36 1477.50-147.42L1477.50-147.42Q1477.03-146.48 1476.33-145.08Q1475.63-143.67 1474.92-142.50L1474.92-142.50Q1474.45-141.56 1473.98-140.74Q1473.52-139.92 1473.52-139.69L1473.52-139.69Q1473.52-139.45 1473.28-139.10Q1473.05-138.75 1472.81-138.52L1472.81-138.52Q1472.58-138.28 1472.46-138.05Q1472.34-137.81 1472.34-137.34L1472.34-137.34Q1472.34-137.11 1472.11-136.64Q1471.88-136.17 1471.41-135.70L1471.41-135.70Q1471.17-135.23 1470.70-134.18Q1470.23-133.13 1469.65-131.84Q1469.06-130.55 1468.71-129.61Q1468.36-128.67 1468.36-128.44L1468.36-128.44Q1468.36-128.20 1468.13-127.97Q1467.89-127.73 1467.66-127.50L1467.66-127.50Q1467.42-127.27 1467.30-127.03Q1467.19-126.80 1467.19-126.33L1467.19-126.33Q1467.19-125.86 1466.37-124.10Q1465.55-122.34 1464.61-120.70L1464.61-120.70Q1464.61-120.23 1464.49-120Q1464.38-119.77 1464.38-119.53L1464.38-119.53Q1464.38-119.30 1464.14-118.71Q1463.91-118.13 1463.44-117.07Q1462.97-116.02 1461.80-114.38L1461.80-114.38Q1461.33-113.67 1461.09-112.97Q1460.86-112.27 1460.86-111.80L1460.86-111.80Q1460.86-111.33 1460.04-110.16Q1459.22-108.98 1458.28-107.70Q1457.34-106.41 1456.41-105.47L1456.41-105.47Q1455-104.30 1453.36-103.59Q1451.72-102.89 1450.08-102.66L1450.08-102.66Q1449.84-102.42 1449.61-102.42L1449.61-102.42Q1449.14-102.42 1448.44-102.42L1448.44-102.42Q1446.33-102.66 1443.16-103.13Q1440-103.59 1437.30-103.95Q1434.61-104.30 1433.91-104.77L1433.91-104.77Q1429.45-108.98 1427.11-130.90Q1424.77-152.81 1423.83-175.66Q1422.89-198.52 1422.89-205.78L1422.89-205.78Q1423.36-206.72 1423.83-207.42L1423.83-207.42Q1424.77-209.30 1425.23-210.12Q1425.70-210.94 1426.05-211.17Q1426.41-211.41 1427.11-211.41L1427.11-211.41Q1428.28-211.41 1430.16-211.17Q1432.03-210.94 1433.79-210.47Q1435.55-210 1436.25-209.53L1436.25-209.53Q1440.70-205.08 1443.52-173.91L1443.52-173.91Q1444.45-165.94 1445.63-156.56L1445.63-156.56Q1445.63-156.33 1445.86-155.63L1445.86-155.63Q1445.86-154.69 1445.98-153.52Q1446.09-152.34 1446.33-151.05Q1446.56-149.77 1446.68-148.95Q1446.80-148.13 1446.80-148.36L1446.80-148.36Q1447.03-148.59 1447.97-150.70Q1448.91-152.81 1450.31-155.86L1450.31-155.86Q1451.72-159.14 1453.24-162.66Q1454.77-166.17 1455.94-168.52Q1457.11-170.86 1457.58-171.33L1457.58-171.33Q1457.81-171.33 1458.16-171.91Q1458.52-172.50 1458.75-173.44L1458.75-173.44Q1459.22-173.91 1459.45-174.38Q1459.69-174.84 1459.92-175.08L1459.92-175.08Q1460.16-175.31 1460.27-175.55Q1460.39-175.78 1460.39-176.02L1460.39-176.02Q1460.39-176.48 1461.33-177.89Q1462.27-179.30 1463.20-180.59Q1464.14-181.88 1464.61-182.11L1464.61-182.11Q1465.08-182.34 1465.31-182.70Q1465.55-183.05 1465.55-183.28L1465.55-183.28Q1465.55-183.28 1465.66-183.52Q1465.78-183.75 1466.02-183.98L1466.02-183.98Q1466.25-183.98 1466.72-184.69Q1467.19-185.39 1467.66-186.33L1467.66-186.33Q1469.06-188.91 1472.11-191.84Q1475.16-194.77 1478.09-196.99Q1481.02-199.22 1481.72-199.22L1481.72-199.22Q1481.95-199.22 1482.66-199.69Q1483.36-200.16 1484.30-200.63L1484.30-200.63Q1490.86-204.84 1500.23-204.49Q1509.61-204.14 1517.81-201.68Q1526.02-199.22 1529.06-196.64L1529.06-196.64Q1530.47-195.47 1532.46-193.59Q1534.45-191.72 1535.98-190.20Q1537.50-188.67 1537.73-188.20L1537.73-188.20Q1537.73-187.97 1538.32-187.27Q1538.91-186.56 1539.61-185.63L1539.61-185.63Q1541.48-183.28 1543.24-180.82Q1545-178.36 1545.70-176.95L1545.70-176.95Q1546.17-176.48 1546.64-175.78Q1547.11-175.08 1547.34-174.84L1547.34-174.84Q1548.75-173.20 1549.45-171.33L1549.45-171.33Q1550.39-169.45 1552.03-167.11L1552.03-167.11Q1552.73-166.41 1553.55-165.23Q1554.38-164.06 1555.08-162.89L1555.08-162.89Q1555.55-161.95 1556.13-161.13Q1556.72-160.31 1556.95-160.31L1556.95-160.31Q1557.19-160.31 1557.42-160.20Q1557.66-160.08 1557.66-159.84L1557.66-159.84Q1557.66-159.61 1558.24-158.67Q1558.83-157.73 1559.77-156.56L1559.77-156.56Q1560.70-155.16 1561.88-153.52L1561.88-153.52Q1564.22-149.30 1572.19-140.39L1572.19-140.39Q1575.23-136.64 1580.39-132.19Q1585.55-127.73 1594.45-123.52L1594.45-123.52Q1596.80-122.34 1598.91-121.17L1598.91-121.17Q1602.66-119.06 1607.34-117.42L1607.34-117.42Q1611.80-115.78 1617.66-112.97L1617.66-112.97Q1618.59-112.50 1619.77-112.03L1619.77-112.03Q1620-112.03 1621.76-111.45Q1623.52-110.86 1625.86-110.04Q1628.20-109.22 1630.31-108.52L1630.31-108.52Q1632.66-107.81 1633.13-107.58L1633.13-107.58Q1645.08-103.59 1656.68-101.48Q1668.28-99.38 1676.02-98.67Q1683.75-97.97 1683.75-97.97L1683.75-97.97Q1683.98-97.73 1687.97-97.62Q1691.95-97.50 1697.11-97.50Q1702.27-97.50 1706.13-97.50Q1710-97.50 1710.23-97.73L1710.23-97.73Q1710.47-97.73 1711.29-97.85Q1712.11-97.97 1713.52-97.97L1713.52-97.97Q1714.69-97.97 1716.21-98.20Q1717.73-98.44 1718.67-98.67L1718.67-98.67Q1719.61-98.67 1720.55-98.79Q1721.48-98.91 1721.95-98.91L1721.95-98.91Q1723.36-98.67 1726.29-99.02Q1729.22-99.38 1732.03-100.08L1732.03-100.08Q1734.61-100.55 1736.02-100.78L1736.02-100.78Q1737.66-100.78 1738.48-100.90Q1739.30-101.02 1739.77-101.13Q1740.23-101.25 1740.47-101.25Q1740.70-101.25 1740.94-101.48L1740.94-101.48Q1741.17-101.48 1741.52-101.60Q1741.88-101.72 1742.70-101.84Q1743.52-101.95 1744.92-102.19L1744.92-102.19Q1745.39-102.42 1746.33-102.66L1746.33-102.66Q1747.73-102.89 1749.38-103.13Q1751.02-103.36 1752.30-103.71Q1753.59-104.06 1753.83-104.30L1753.83-104.30Q1754.06-104.53 1754.77-104.77Q1755.47-105 1756.41-105L1756.41-105Q1759.45-105.47 1763.44-106.88L1763.44-106.88Q1766.48-107.81 1770.47-108.75L1770.47-108.75Q1771.17-108.98 1771.88-109.34Q1772.58-109.69 1772.81-109.92L1772.81-109.92Q1773.28-110.16 1773.75-110.27Q1774.22-110.39 1774.92-110.39L1774.92-110.39Q1775.39-110.39 1775.74-110.39Q1776.09-110.39 1776.09-110.63L1776.09-110.63Q1776.33-110.86 1777.38-111.33Q1778.44-111.80 1779.38-112.03Q1780.31-112.27 1780.78-112.27L1780.78-112.27Q1781.72-112.50 1788.98-115.55Q1796.25-118.59 1806.68-123.28Q1817.11-127.97 1827.42-133.36L1827.42-133.36Q1840.31-140.39 1843.83-142.27L1843.83-142.27Q1845.94-143.67 1847.58-144.49Q1849.22-145.31 1851.80-146.48ZM2081.25-51.56L2081.25-51.56L2081.25-51.56Q2081.48-52.03 2081.37-53.20Q2081.25-54.38 2081.02-55.78L2081.02-55.78Q2080.78-57.19 2080.78-58.13L2080.78-58.13Q2081.02-60.47 2081.02-61.88L2081.02-61.88Q2081.25-63.52 2081.25-64.45Q2081.25-65.39 2081.25-65.86Q2081.25-66.33 2081.02-66.56L2081.02-66.56Q2080.78-67.27 2081.02-67.27L2081.02-67.27Q2081.48-67.27 2081.48-70.31L2081.48-70.31Q2081.48-73.83 2081.72-77.70Q2081.95-81.56 2082.42-82.97L2082.42-82.97Q2082.66-83.20 2082.77-84.14Q2082.89-85.08 2082.89-86.02L2082.89-86.02Q2083.13-93.98 2083.83-96.33L2083.83-96.33Q2084.06-97.27 2084.06-97.85Q2084.06-98.44 2084.06-98.67L2084.06-98.67Q2084.06-98.91 2084.06-99.38Q2084.06-99.84 2084.30-100.08L2084.30-100.08Q2084.53-101.02 2084.77-102.89L2084.77-102.89Q2085-104.06 2085.23-105.47L2085.23-105.47Q2085.47-106.88 2085.70-108.75L2085.70-108.75Q2085.70-109.92 2085.94-110.86Q2086.17-111.80 2086.17-112.03L2086.17-112.03Q2086.17-112.03 2086.64-114.61Q2087.11-117.19 2087.81-120.47Q2088.52-123.75 2088.98-126.33Q2089.45-128.91 2089.45-128.91L2089.45-128.91Q2089.22-129.14 2089.57-130.90Q2089.92-132.66 2090.39-134.41Q2090.86-136.17 2091.33-136.88L2091.33-136.88Q2091.33-137.11 2091.33-137.23Q2091.33-137.34 2091.33-137.58L2091.33-137.58Q2091.33-137.81 2091.68-139.92Q2092.03-142.03 2092.62-144.49Q2093.20-146.95 2093.67-148.36L2093.67-148.36Q2093.91-149.06 2094.38-151.17L2094.38-151.17Q2094.84-153.28 2095.31-155.39Q2095.78-157.50 2096.25-158.20L2096.25-158.20Q2096.48-158.44 2096.48-158.79Q2096.48-159.14 2096.48-159.61L2096.48-159.61Q2096.48-160.08 2096.60-160.43Q2096.72-160.78 2096.95-160.78L2096.95-160.78Q2096.95-160.78 2097.07-161.02Q2097.19-161.25 2097.19-161.48L2097.19-161.48Q2097.19-161.72 2097.30-162.07Q2097.42-162.42 2097.42-162.66L2097.42-162.66Q2098.13-164.53 2098.83-167.34L2098.83-167.34Q2099.30-170.39 2100.47-173.67L2100.47-173.67Q2100.70-174.14 2100.82-174.73Q2100.94-175.31 2100.94-175.55L2100.94-175.55Q2100.94-176.02 2101.29-177.07Q2101.64-178.13 2102.11-179.30L2102.11-179.30Q2102.58-180.23 2102.93-181.17Q2103.28-182.11 2103.28-182.34L2103.28-182.34Q2103.28-182.58 2103.40-183.05Q2103.52-183.52 2103.52-183.98L2103.52-183.98Q2104.45-186.09 2104.80-187.15Q2105.16-188.20 2105.27-188.67Q2105.39-189.14 2105.39-189.61L2105.39-189.61Q2105.39-189.84 2105.51-190.55Q2105.63-191.25 2106.09-192.54Q2106.56-193.83 2107.73-196.41L2107.73-196.41Q2108.44-198.52 2108.91-199.92Q2109.38-201.33 2109.38-201.80L2109.38-201.80Q2109.38-202.03 2109.61-202.50Q2109.84-202.97 2110.31-203.67L2110.31-203.67Q2111.48-205.55 2112.30-208.01Q2113.13-210.47 2112.89-211.41L2112.89-211.41Q2112.89-211.41 2113.01-211.64Q2113.13-211.88 2113.13-211.88L2113.13-211.88Q2113.59-212.34 2113.83-213.05Q2114.06-213.75 2114.53-214.45L2114.53-214.45Q2114.77-215.63 2115.23-216.33L2115.23-216.33Q2115.47-216.56 2115.59-217.03Q2115.70-217.50 2115.94-217.97L2115.94-217.97Q2115.94-218.67 2116.29-219.38Q2116.64-220.08 2116.99-220.78Q2117.34-221.48 2117.81-221.95L2117.81-221.95Q2118.05-222.19 2118.40-223.13Q2118.75-224.06 2118.98-225Q2119.22-225.94 2118.98-226.41L2118.98-226.41Q2118.98-226.64 2119.34-227.23Q2119.69-227.81 2120.16-228.52L2120.16-228.52Q2121.09-229.69 2121.33-230.39Q2121.56-231.09 2121.56-231.80L2121.56-231.80Q2121.56-232.50 2122.03-233.55Q2122.50-234.61 2123.20-235.31L2123.20-235.31Q2123.44-235.78 2123.91-236.60Q2124.38-237.42 2124.61-238.59L2124.61-238.59Q2124.84-239.53 2125.20-240.23Q2125.55-240.94 2125.78-241.17L2125.78-241.17Q2126.02-241.64 2126.72-242.70Q2127.42-243.75 2128.01-244.92Q2128.59-246.09 2128.59-246.33L2128.59-246.33Q2128.59-246.56 2128.95-247.03Q2129.30-247.50 2129.53-247.97L2129.53-247.97Q2129.77-248.44 2130-248.79Q2130.23-249.14 2130.23-249.38L2130.23-249.38Q2130.23-249.84 2130.82-251.13Q2131.41-252.42 2131.99-253.83Q2132.58-255.23 2133.05-255.70L2133.05-255.70Q2133.52-256.41 2133.75-256.88Q2133.98-257.34 2133.98-257.58L2133.98-257.58Q2133.98-258.05 2134.92-259.34Q2135.86-260.63 2137.03-262.27L2137.03-262.27Q2138.20-263.91 2139.26-265.43Q2140.31-266.95 2140.31-267.42L2140.31-267.42Q2140.08-267.66 2140.20-267.89Q2140.31-268.13 2140.55-268.13L2140.55-268.13Q2140.78-268.13 2140.90-268.48Q2141.02-268.83 2141.25-269.30L2141.25-269.30Q2141.25-269.53 2141.72-270.23Q2142.19-270.94 2142.66-271.64L2142.66-271.64Q2144.06-273.52 2144.77-275.16L2144.77-275.16Q2145.47-276.56 2146.64-277.97L2146.64-277.97Q2147.11-278.44 2147.46-279.02Q2147.81-279.61 2148.05-280.08L2148.05-280.08Q2148.52-280.78 2150.27-283.13Q2152.03-285.47 2153.91-287.93Q2155.78-290.39 2156.95-291.33L2156.95-291.33Q2157.42-291.80 2157.89-292.38Q2158.36-292.97 2158.59-293.20L2158.59-293.20Q2158.59-293.91 2159.30-294.38L2159.30-294.38Q2159.77-294.61 2160-294.96Q2160.23-295.31 2160.47-295.78L2160.47-295.78Q2160.47-296.48 2161.88-298.01Q2163.28-299.53 2166.56-302.58L2166.56-302.58Q2169.84-305.86 2171.02-307.27L2171.02-307.27Q2171.72-308.20 2172.42-308.79Q2173.13-309.38 2173.83-309.84L2173.83-309.84Q2174.53-310.31 2175.12-310.78Q2175.70-311.25 2175.94-311.48L2175.94-311.48Q2176.41-311.95 2176.76-312.07Q2177.11-312.19 2177.34-312.19L2177.34-312.19Q2177.58-312.19 2177.81-312.30Q2178.05-312.42 2178.05-312.66L2178.05-312.66Q2178.28-312.89 2179.10-313.59Q2179.92-314.30 2181.09-315.12Q2182.27-315.94 2183.20-316.52Q2184.14-317.11 2184.38-317.11L2184.38-317.11Q2184.38-317.11 2185.31-317.58Q2186.25-318.05 2187.19-318.75L2187.19-318.75Q2188.36-319.22 2189.18-319.69Q2190-320.16 2190-320.16L2190-320.16Q2190.23-320.16 2191.05-320.63Q2191.88-321.09 2192.81-321.56L2192.81-321.56Q2196.33-323.20 2201.72-323.79Q2207.11-324.38 2212.27-324.26Q2217.42-324.14 2219.77-323.91L2219.77-323.91Q2224.69-322.97 2229.96-320.63Q2235.23-318.28 2237.58-315.70L2237.58-315.70Q2238.05-315 2238.63-314.30Q2239.22-313.59 2239.69-313.36L2239.69-313.36Q2246.25-306.09 2248.24-296.72Q2250.23-287.34 2250.47-279.38L2250.47-279.38Q2250.70-277.27 2250.94-275.63L2250.94-275.63Q2251.17-262.97 2249.30-256.17L2249.30-256.17Q2248.83-253.83 2248.83-252.89L2248.83-252.89Q2248.83-251.95 2248.01-251.02Q2247.19-250.08 2246.25-249.84L2246.25-249.84Q2245.78-249.84 2244.84-249.73Q2243.91-249.61 2243.20-249.61L2243.20-249.61Q2242.73-249.84 2242.50-249.84L2242.50-249.84Q2241.80-249.61 2241.33-249.96Q2240.86-250.31 2240.74-251.48Q2240.63-252.66 2240.39-255.47L2240.39-255.47Q2239.22-265.55 2236.17-270.94L2236.17-270.94Q2235.47-272.34 2235.23-273.28L2235.23-273.28Q2234.77-274.45 2233.71-276.33Q2232.66-278.20 2231.25-280.20Q2229.84-282.19 2228.79-283.48Q2227.73-284.77 2227.27-285L2227.27-285Q2227.27-285 2226.91-285.23Q2226.56-285.47 2226.33-285.94L2226.33-285.94Q2225.86-286.41 2225.39-286.88Q2224.92-287.34 2224.69-287.34L2224.69-287.34Q2224.69-287.34 2224.45-287.58Q2224.22-287.81 2223.98-288.05L2223.98-288.05Q2223.75-288.28 2223.16-288.75Q2222.58-289.22 2222.11-289.45L2222.11-289.45Q2221.41-289.69 2221.05-290.04Q2220.70-290.39 2220.70-290.39L2220.70-290.39Q2220.70-290.63 2220-290.98Q2219.30-291.33 2218.36-291.68Q2217.42-292.03 2216.60-292.27Q2215.78-292.50 2215.78-292.50L2215.78-292.50Q2215.08-292.50 2212.85-291.33Q2210.63-290.16 2207.81-288.40Q2205-286.64 2202.89-284.53L2202.89-284.53Q2201.95-283.59 2201.48-283.36Q2201.02-283.13 2200.78-282.89L2200.78-282.89Q2200.78-282.89 2200.55-282.77Q2200.31-282.66 2200.08-282.42Q2199.84-282.19 2199.38-281.48L2199.38-281.48Q2198.20-280.31 2196.09-277.97L2196.09-277.97Q2194.22-275.86 2192.46-273.98Q2190.70-272.11 2189.77-270.94L2189.77-270.94Q2188.13-268.59 2186.72-266.95L2186.72-266.95Q2185.31-265.78 2183.91-264.02Q2182.50-262.27 2180.63-259.22L2180.63-259.22Q2179.45-257.34 2178.28-255.35Q2177.11-253.36 2176.41-252.42L2176.41-252.42Q2176.17-251.95 2175.70-251.37Q2175.23-250.78 2175-250.08L2175-250.08Q2174.77-249.61 2174.65-249.38Q2174.53-249.14 2174.41-249.02Q2174.30-248.91 2174.06-248.91L2174.06-248.91Q2174.06-248.91 2173.83-248.67Q2173.59-248.44 2173.48-248.09Q2173.36-247.73 2172.89-247.27L2172.89-247.27Q2171.72-244.92 2169.84-241.88L2169.84-241.88Q2168.20-239.53 2166.91-237.30Q2165.63-235.08 2164.92-233.20L2164.92-233.20Q2164.69-232.27 2164.45-231.80Q2164.22-231.33 2163.98-231.09L2163.98-231.09Q2163.75-230.63 2163.40-230.16Q2163.05-229.69 2162.81-228.98L2162.81-228.98Q2162.11-227.11 2159.77-223.36L2159.77-223.36Q2158.13-220.31 2156.60-217.50Q2155.08-214.69 2155.08-213.52L2155.08-213.52Q2155.08-213.28 2154.84-212.81Q2154.61-212.34 2154.38-211.64L2154.38-211.64Q2154.14-210.94 2153.67-209.88Q2153.20-208.83 2152.73-207.66L2152.73-207.66Q2152.27-206.25 2152.03-205.55Q2151.80-204.84 2151.56-204.38L2151.56-204.38Q2151.33-204.14 2151.09-203.55Q2150.86-202.97 2150.63-201.80L2150.63-201.80Q2150.39-200.63 2150.16-200.04Q2149.92-199.45 2149.69-198.98L2149.69-198.98Q2149.45-198.75 2149.22-198.28Q2148.98-197.81 2148.52-196.88L2148.52-196.88Q2148.28-195.94 2147.81-195.23L2147.81-195.23Q2146.88-193.36 2146.88-192.42L2146.88-192.42Q2146.88-192.19 2146.64-191.37Q2146.41-190.55 2146.17-189.84L2146.17-189.84Q2145.94-189.14 2145.70-188.44Q2145.47-187.73 2145.47-187.50L2145.47-187.50Q2145.47-187.27 2145.23-186.80Q2145-186.33 2144.77-185.63L2144.77-185.63Q2144.53-185.16 2144.30-184.69Q2144.06-184.22 2144.06-183.98L2144.06-183.98Q2144.06-183.75 2143.95-183.28Q2143.83-182.81 2143.59-182.34L2143.59-182.34Q2143.13-181.41 2142.66-180Q2142.19-178.59 2141.72-177.19Q2141.25-175.78 2141.25-175.31L2141.25-175.31Q2141.25-174.84 2141.13-174.38Q2141.02-173.91 2140.78-173.44L2140.78-173.44Q2140.55-173.20 2140.43-172.62Q2140.31-172.03 2140.08-171.33L2140.08-171.33Q2140.08-170.86 2139.96-170.39Q2139.84-169.92 2139.61-169.22L2139.61-169.22Q2139.14-168.28 2138.67-165.94L2138.67-165.94Q2138.44-164.77 2137.97-163.59Q2137.50-162.42 2137.27-161.48L2137.27-161.48Q2136.56-160.31 2136.45-159.73Q2136.33-159.14 2136.33-158.67L2136.33-158.67Q2136.33-158.20 2136.21-157.85Q2136.09-157.50 2135.86-156.80L2135.86-156.80Q2134.92-154.22 2134.57-152.93Q2134.22-151.64 2134.22-150.47L2134.22-150.47Q2133.98-148.36 2133.28-146.48L2133.28-146.48Q2132.58-144.84 2132.58-143.91L2132.58-143.91Q2132.58-142.73 2131.88-141.33L2131.88-141.33Q2131.17-139.92 2131.17-138.52L2131.17-138.52Q2131.17-137.81 2131.05-137.34Q2130.94-136.88 2130.70-136.41L2130.70-136.41Q2130.70-135.94 2130.59-135.47Q2130.47-135 2130.23-134.30L2130.23-134.30Q2130.23-133.59 2130.12-133.13Q2130-132.66 2130-132.42L2130-132.42Q2129.77-132.19 2129.77-131.84Q2129.77-131.48 2129.77-131.25L2129.77-131.25Q2129.77-131.02 2129.77-130.78Q2129.77-130.55 2129.53-130.31L2129.53-130.31Q2129.30-130.08 2129.18-129.14Q2129.06-128.20 2129.06-127.03L2129.06-127.03Q2129.06-125.16 2128.71-123.63Q2128.36-122.11 2127.66-120.47L2127.66-120.47Q2127.42-120 2127.30-119.41Q2127.19-118.83 2127.19-118.36L2127.19-118.36Q2127.42-117.66 2127.30-117.42Q2127.19-117.19 2127.19-116.95L2127.19-116.95Q2126.95-116.72 2126.95-116.37Q2126.95-116.02 2126.95-115.55L2126.95-115.55Q2127.19-114.61 2127.07-114.02Q2126.95-113.44 2126.72-112.97L2126.72-112.97Q2126.48-112.50 2126.25-111.91Q2126.02-111.33 2126.02-110.16L2126.02-110.16Q2126.02-108.52 2125.31-107.58L2125.31-107.58Q2124.84-106.88 2124.73-106.29Q2124.61-105.70 2124.84-105.70L2124.84-105.70Q2125.08-105.70 2125.08-105.12Q2125.08-104.53 2125.08-103.71Q2125.08-102.89 2124.96-102.19Q2124.84-101.48 2124.61-101.25L2124.61-101.25Q2124.14-100.55 2124.14-96.56L2124.14-96.56Q2124.14-94.92 2124.14-93.98Q2124.14-93.05 2123.91-92.58Q2123.67-92.11 2123.44-91.41L2123.44-91.41Q2122.97-90.94 2122.85-90.47Q2122.73-90 2122.97-89.77L2122.97-89.77Q2123.20-89.30 2123.09-88.24Q2122.97-87.19 2122.73-86.25L2122.73-86.25Q2122.27-85.55 2122.50-83.91L2122.50-83.91Q2122.73-83.20 2122.73-82.73Q2122.73-82.27 2122.73-82.03Q2122.73-81.80 2122.50-81.80L2122.50-81.80Q2122.50-81.56 2122.38-81.21Q2122.27-80.86 2122.15-80.04Q2122.03-79.22 2122.27-78.05L2122.27-78.05Q2122.27-76.64 2122.27-75.94Q2122.27-75.23 2122.03-74.88Q2121.80-74.53 2121.80-74.06L2121.80-74.06Q2121.56-73.83 2121.33-73.24Q2121.09-72.66 2121.09-71.25L2121.09-71.25Q2121.09-70.55 2121.09-69.61Q2121.09-68.67 2120.86-68.20L2120.86-68.20Q2120.63-67.27 2120.63-66.91Q2120.63-66.56 2120.86-66.33L2120.86-66.33Q2121.09-65.86 2121.21-64.45Q2121.33-63.05 2121.21-61.29Q2121.09-59.53 2120.86-58.59L2120.86-58.59Q2120.86-57.89 2120.86-57.19Q2120.86-56.48 2120.86-56.25L2120.86-56.25Q2121.09-55.08 2121.09-54.14L2121.09-54.14Q2121.09-52.50 2121.56-50.39L2121.56-50.39Q2122.03-49.22 2122.03-48.05L2122.03-48.05Q2122.27-47.11 2122.50-46.29Q2122.73-45.47 2123.20-44.77L2123.20-44.77Q2123.67-44.30 2124.02-43.71Q2124.38-43.13 2124.61-42.66L2124.61-42.66Q2124.84-42.19 2125.55-41.25Q2126.25-40.31 2127.07-39.26Q2127.89-38.20 2128.48-37.50Q2129.06-36.80 2129.30-36.80L2129.30-36.80Q2129.30-36.80 2129.53-36.56Q2129.77-36.33 2130-36.09L2130-36.09Q2130.47-35.39 2131.52-35.16Q2132.58-34.92 2133.75-35.39L2133.75-35.39Q2134.22-35.39 2134.92-35.63Q2135.63-35.86 2136.33-35.86L2136.33-35.86Q2137.27-35.86 2138.67-36.21Q2140.08-36.56 2141.25-37.03Q2142.42-37.50 2142.42-37.97L2142.42-37.97Q2142.66-37.97 2142.77-38.09Q2142.89-38.20 2143.13-38.20L2143.13-38.20Q2143.36-38.20 2143.95-38.55Q2144.53-38.91 2145.47-39.38L2145.47-39.38Q2146.17-39.84 2146.64-39.96Q2147.11-40.08 2147.34-40.31L2147.34-40.31Q2147.81-40.31 2148.05-40.43Q2148.28-40.55 2148.87-40.90Q2149.45-41.25 2150.39-41.95L2150.39-41.95Q2155.78-45.47 2156.48-45.47L2156.48-45.47Q2156.72-45.47 2156.95-45.59Q2157.19-45.70 2157.19-45.94L2157.19-45.94Q2157.42-46.17 2158.13-46.64Q2158.83-47.11 2159.53-47.46Q2160.23-47.81 2160.70-47.81L2160.70-47.81Q2161.17-47.81 2161.64-48.16Q2162.11-48.52 2162.58-48.98L2162.58-48.98Q2163.28-49.45 2164.10-50.16Q2164.92-50.86 2165.86-51.33L2165.86-51.33Q2166.80-52.03 2167.50-52.50Q2168.20-52.97 2168.44-53.20L2168.44-53.20Q2168.67-53.44 2169.14-53.91Q2169.61-54.38 2170.31-54.61L2170.31-54.61Q2171.25-55.31 2171.95-55.78L2171.95-55.78Q2172.42-56.25 2172.89-56.48L2172.89-56.48Q2173.59-57.19 2174.18-57.66Q2174.77-58.13 2175.70-58.83Q2176.64-59.53 2178.28-60.70L2178.28-60.70Q2178.98-61.17 2180.16-62.11L2180.16-62.11Q2181.80-63.52 2183.20-64.69L2183.20-64.69Q2184.38-65.63 2185.78-67.03L2185.78-67.03Q2187.42-68.91 2190-71.02L2190-71.02Q2193.05-73.36 2195.63-76.41L2195.63-76.41Q2198.44-79.69 2201.02-81.56L2201.02-81.56Q2201.95-82.03 2202.54-82.50Q2203.13-82.97 2203.13-83.20L2203.13-83.20Q2203.13-83.44 2203.24-83.67Q2203.36-83.91 2203.71-84.38Q2204.06-84.84 2204.77-85.78Q2205.47-86.72 2206.64-88.36L2206.64-88.36Q2208.05-90 2208.87-90.82Q2209.69-91.64 2210.39-92.11L2210.39-92.11Q2210.86-92.58 2211.56-93.28Q2212.27-93.98 2213.44-95.63L2213.44-95.63Q2213.67-95.86 2214.84-97.50L2214.84-97.50Q2216.48-99.61 2218.95-102.66Q2221.41-105.70 2223.16-108.05Q2224.92-110.39 2225.16-110.86L2225.16-110.86Q2225.16-110.86 2225.74-111.68Q2226.33-112.50 2227.03-113.67L2227.03-113.67Q2227.97-114.84 2228.79-115.90Q2229.61-116.95 2229.61-117.42L2229.61-117.42Q2229.61-117.42 2230.08-118.24Q2230.55-119.06 2231.25-120L2231.25-120Q2232.42-121.41 2232.89-122.34Q2233.36-123.28 2233.83-123.75L2233.83-123.75Q2234.30-124.69 2235.12-125.86Q2235.94-127.03 2237.81-129.61L2237.81-129.61Q2245.78-129.61 2249.30-129.14Q2252.81-128.67 2253.87-127.62Q2254.92-126.56 2255.16-124.45L2255.16-124.45Q2255.39-123.98 2255.39-123.75L2255.39-123.75Q2255.63-122.81 2255.39-121.64Q2255.16-120.47 2254.69-119.30L2254.69-119.30Q2254.45-118.13 2254.22-117.19Q2253.98-116.25 2254.45-115.78L2254.45-115.78Q2254.69-115.78 2254.69-115.31Q2254.69-114.84 2254.69-114.38L2254.69-114.38Q2254.45-113.44 2254.80-112.62Q2255.16-111.80 2256.09-110.39L2256.09-110.39Q2257.03-108.98 2254.69-104.30L2254.69-104.30Q2253.75-102.42 2252.81-99.84L2252.81-99.84Q2251.88-97.97 2250.82-95.74Q2249.77-93.52 2249.06-92.58L2249.06-92.58Q2249.06-92.34 2248.95-92.11Q2248.83-91.88 2248.83-91.64L2248.83-91.64Q2248.83-91.41 2248.59-91.05Q2248.36-90.70 2248.13-90.23L2248.13-90.23Q2246.48-87.89 2244.38-83.91L2244.38-83.91Q2240.86-76.88 2236.64-71.48L2236.64-71.48Q2234.06-67.97 2232.89-65.39L2232.89-65.39Q2231.72-63.05 2230.08-60.94L2230.08-60.94Q2225.39-55.31 2223.75-52.03L2223.75-52.03Q2222.81-50.39 2221.64-48.75Q2220.47-47.11 2218.36-45L2218.36-45Q2217.89-44.53 2217.42-43.95Q2216.95-43.36 2216.95-43.36L2216.95-43.36Q2216.95-43.13 2216.13-41.95Q2215.31-40.78 2214.14-39.49Q2212.97-38.20 2212.03-37.03Q2211.09-35.86 2210.39-35.39L2210.39-35.39Q2206.88-31.88 2203.36-27.66L2203.36-27.66Q2199.61-22.97 2195.63-19.45L2195.63-19.45Q2194.92-18.98 2194.34-18.52Q2193.75-18.05 2193.52-17.58L2193.52-17.58Q2193.52-17.58 2192.93-16.99Q2192.34-16.41 2191.64-15.59Q2190.94-14.77 2190.23-14.18Q2189.53-13.59 2189.53-13.59L2189.53-13.59Q2189.30-13.59 2188.59-13.01Q2187.89-12.42 2187.19-11.72Q2186.48-11.02 2185.90-10.31Q2185.31-9.61 2185.31-9.61L2185.31-9.61Q2185.31-9.38 2185.31-9.38Q2185.31-9.38 2185.08-9.38L2185.08-9.38Q2184.84-9.38 2184.38-9.02Q2183.91-8.67 2183.44-8.20L2183.44-8.20Q2182.97-7.73 2182.50-7.38Q2182.03-7.03 2181.80-7.03L2181.80-7.03Q2181.56-7.03 2181.45-6.91Q2181.33-6.80 2181.33-6.56L2181.33-6.56Q2181.33-6.33 2181.21-6.21Q2181.09-6.09 2180.86-6.09L2180.86-6.09Q2180.86-6.09 2180.39-5.86Q2179.92-5.63 2179.45-5.16L2179.45-5.16Q2178.75-4.69 2178.05-4.22Q2177.34-3.75 2177.11-3.75L2177.11-3.75Q2176.88-3.75 2176.76-3.63Q2176.64-3.52 2176.64-3.28L2176.64-3.28Q2176.64-3.28 2176.52-3.16Q2176.41-3.05 2176.17-3.05L2176.17-3.05Q2175.94-3.05 2175-2.46Q2174.06-1.88 2173.01-1.17Q2171.95-0.47 2171.02 0.23L2171.02 0.23Q2170.31 0.47 2169.96 0.70Q2169.61 0.94 2169.61 0.94L2169.61 0.94Q2169.61 0.94 2167.97 1.88Q2166.33 2.81 2164.45 3.87Q2162.58 4.92 2161.05 5.86Q2159.53 6.80 2159.53 7.03L2159.53 7.03Q2159.53 7.03 2159.30 7.15Q2159.06 7.27 2158.83 7.27L2158.83 7.27Q2158.59 7.27 2157.77 7.50Q2156.95 7.73 2156.25 8.20L2156.25 8.20Q2155.31 8.44 2154.02 8.79Q2152.73 9.14 2151.56 9.38L2151.56 9.38Q2150.39 9.61 2149.69 9.73Q2148.98 9.84 2148.28 10.08L2148.28 10.08Q2147.58 10.31 2146.64 10.55Q2145.70 10.78 2143.71 10.90Q2141.72 11.02 2138.09 11.13Q2134.45 11.25 2128.36 11.48L2128.36 11.48Q2123.20 11.48 2119.10 11.37Q2115 11.25 2114.06 11.25L2114.06 11.25L2114.06 11.25Q2111.95 11.02 2109.38 10.31Q2106.80 9.61 2104.69 8.91Q2102.58 8.20 2102.11 7.73L2102.11 7.73Q2101.88 7.50 2101.64 7.38Q2101.41 7.27 2101.17 7.27L2101.17 7.27Q2100.94 7.27 2100.82 7.15Q2100.70 7.03 2100.70 7.03L2100.70 7.03Q2100.70 6.80 2100.59 6.68Q2100.47 6.56 2100.23 6.56L2100.23 6.56Q2100 6.56 2099.88 6.33Q2099.77 6.09 2099.77 5.86L2099.77 5.86Q2099.77 5.63 2099.65 5.51Q2099.53 5.39 2099.30 5.39L2099.30 5.39Q2099.06 5.39 2098.71 5.16Q2098.36 4.92 2097.89 4.22L2097.89 4.22Q2097.42 3.75 2097.07 3.63Q2096.72 3.52 2096.72 3.28L2096.72 3.28Q2096.25 3.28 2096.02 3.05Q2095.78 2.81 2095.55 2.11L2095.55 2.11Q2094.84 0.94 2094.38 0.94L2094.38 0.94Q2093.91 0.94 2093.91 0.94Q2093.91 0.94 2093.91 0.82Q2093.91 0.70 2093.91 0.47L2093.91 0.47Q2093.91 0.23 2093.91 0.12Q2093.91 0 2093.79-0.12Q2093.67-0.23 2093.20-0.47L2093.20-0.47Q2092.97-0.47 2092.73-0.70Q2092.50-0.94 2092.73-0.94L2092.73-0.94Q2092.73-1.17 2092.38-1.64Q2092.03-2.11 2091.80-2.81L2091.80-2.81Q2091.33-3.28 2091.09-3.63Q2090.86-3.98 2090.86-4.22L2090.86-4.22Q2090.86-4.45 2090.74-4.45Q2090.63-4.45 2090.63-4.69L2090.63-4.69Q2090.39-4.69 2090.27-4.69Q2090.16-4.69 2090.39-5.16L2090.39-5.16Q2090.39-5.16 2090.27-5.51Q2090.16-5.86 2089.92-6.33L2089.92-6.33Q2089.69-6.56 2089.45-7.15Q2089.22-7.73 2089.22-8.20L2089.22-8.20Q2089.22-8.67 2089.10-9.02Q2088.98-9.38 2088.75-9.61L2088.75-9.61Q2088.52-9.84 2088.52-9.96Q2088.52-10.08 2088.28-10.31L2088.28-10.31Q2088.28-10.55 2088.16-10.78Q2088.05-11.02 2087.81-11.25L2087.81-11.25Q2087.58-11.25 2087.46-11.60Q2087.34-11.95 2087.34-12.19L2087.34-12.19Q2087.34-12.42 2087.23-12.77Q2087.11-13.13 2086.88-13.13L2086.88-13.13Q2086.64-13.36 2086.64-13.59Q2086.64-13.83 2086.64-14.06L2086.64-14.06Q2086.64-14.30 2086.52-14.65Q2086.41-15 2086.17-15.47L2086.17-15.47Q2085.94-15.70 2085.70-16.17Q2085.47-16.64 2085.47-17.11L2085.47-17.11Q2085.47-17.58 2085.35-17.81Q2085.23-18.05 2085.23-18.28L2085.23-18.28Q2085-18.28 2085-18.63Q2085-18.98 2085-19.22L2085-19.22Q2085.23-19.45 2085.12-20.04Q2085-20.63 2084.77-21.09L2084.77-21.09Q2084.30-22.97 2084.06-25.55Q2083.83-28.13 2083.59-30.70L2083.59-30.70Q2083.36-33.75 2082.89-35.63L2082.89-35.63Q2082.89-36.33 2082.77-37.03Q2082.66-37.73 2082.66-37.97L2082.66-37.97Q2082.66-38.20 2082.66-38.55Q2082.66-38.91 2082.42-39.14L2082.42-39.14Q2082.42-39.61 2082.19-41.02Q2081.95-42.42 2081.95-43.83L2081.95-43.83Q2081.95-44.53 2081.95-45Q2081.95-45.47 2081.72-45.70L2081.72-45.70Q2081.48-45.94 2081.37-46.64Q2081.25-47.34 2081.25-48.05Q2081.25-48.75 2081.48-48.98L2081.48-48.98Q2081.72-49.22 2081.60-49.57Q2081.48-49.92 2081.25-50.16L2081.25-50.16Q2081.25-50.63 2081.13-50.98Q2081.02-51.33 2081.25-51.56ZM2418.52-108.75L2418.52-108.75L2418.52-108.75Q2418.98-107.81 2419.45-105.94Q2419.92-104.06 2420.27-102.07Q2420.63-100.08 2420.63-98.91L2420.63-98.91Q2420.63-96.09 2419.45-94.22L2419.45-94.22Q2418.75-92.81 2418.40-91.41Q2418.05-90 2418.75-88.36L2418.75-88.36Q2420.16-85.78 2421.09-84.61L2421.09-84.61Q2421.80-83.91 2422.15-82.27Q2422.50-80.63 2422.50-79.10Q2422.50-77.58 2422.03-77.11L2422.03-77.11Q2421.80-77.11 2421.21-76.29Q2420.63-75.47 2420.16-74.53L2420.16-74.53Q2419.22-72.89 2418.05-72.07Q2416.88-71.25 2414.06-70.08L2414.06-70.08Q2412.66-69.61 2408.55-69.38Q2404.45-69.14 2399.41-69.14Q2394.38-69.14 2390.39-69.26Q2386.41-69.38 2385.47-69.61L2385.47-69.61L2385.47-69.61Q2383.13-70.31 2382.66-71.02Q2382.19-71.72 2382.19-73.83L2382.19-73.83Q2382.19-75.70 2381.48-79.45L2381.48-79.45Q2381.25-80.86 2381.25-82.50L2381.25-82.50Q2381.02-84.14 2380.78-85.66Q2380.55-87.19 2380.08-87.66L2380.08-87.66Q2379.84-88.13 2379.61-88.59Q2379.38-89.06 2379.38-90.12Q2379.38-91.17 2379.61-93.52L2379.61-93.52Q2379.61-95.63 2379.73-96.91Q2379.84-98.20 2380.08-99.02Q2380.31-99.84 2381.02-100.78L2381.02-100.78Q2382.42-104.53 2382.66-107.11L2382.66-107.11Q2383.13-108.52 2383.48-109.80Q2383.83-111.09 2385-112.27L2385-112.27Q2385.47-112.73 2386.29-113.20Q2387.11-113.67 2387.81-113.67L2387.81-113.67Q2388.75-113.91 2392.85-113.79Q2396.95-113.67 2401.52-113.55Q2406.09-113.44 2408.67-112.97L2408.67-112.97Q2416.17-112.03 2418.52-108.75Z" fill="#000000"/>
  </g>
</svg>