<svg width="1061" height="672" viewBox="0 0 1061 672" xmlns="http://www.w3.org/2000/svg">
  <g transform="translate(36.96015601318829, 436.8)">
    <path d="M197.84-335.33C180.29-366.30 146.79-395.52 108.24-413.48C106.79-414.15 105.09-413.52 104.42-412.08C103.75-410.64 104.37-408.93 105.81-408.26C143.32-390.79 175.85-362.46 192.84-332.49C220.73-283.26 215.24-220.20 206.19-165.01C191.42-74.98 162.02-16.65 116.30 13.32C97.51 25.63 76.73 29.47 56.23 24.44C32.56 18.63 11.17 1.32-2.45-23.07C-32.66-77.16-14.70-162.66-5.58-196.91C3.34-230.40 17.14-264.73 36.59-301.85L37.24-303.09C52.72-332.64 67.35-360.55 97.25-377.48C98.64-378.26 99.12-380.02 98.34-381.40C97.56-382.79 95.80-383.28 94.42-382.49C63.04-364.71 48.03-336.08 32.15-305.76L31.50-304.52C11.84-267.01-2.10-232.30-11.14-198.39C-20.44-163.46-38.70-76.20-7.47-20.26C6.93 5.51 29.64 23.84 54.86 30.03C61.19 31.58 67.53 32.35 73.83 32.35C89.56 32.35 105.06 27.56 119.45 18.13C166.60-12.77 196.82-72.37 211.87-164.07C221.07-220.26 226.61-284.54 197.84-335.33ZM328.49-161.56C329.53-162.76 329.41-164.58 328.21-165.62C327.01-166.67 325.19-166.54 324.15-165.34C295.23-132.13 287.69-129.30 286.09-129.19C285.03-131.11 285.42-139.87 288.23-149.06C289.22-152.30 290.34-154.84 291.33-157.09C293.12-161.16 294.67-164.67 292.42-167.89C289.82-171.61 284.66-171.54 274.35-171.42C273.59-171.43 272.70-171.47 271.66-171.52C270.85-171.57 269.96-171.61 268.99-171.64C269.13-174.49 268.80-177.20 268.16-182.37C268.11-182.78 267.97-183.88 267.48-185.20C267.08-186.24 266.54-187.20 265.83-188.15C264.61-189.77 262.87-190.71 261.04-190.71C258.50-190.70 256.01-189.33 253.85-186.72C251.33-183.70 249.16-178.66 249.86-174.87C250.27-172.67 251.53-170.59 253.41-169.03C255.77-167.07 258.90-165.96 262.35-165.86C262.06-164.49 261.33-161.23 260.27-158.13C258.92-154.22 253.32-143.56 241.74-131.23C240.65-130.08 240.71-128.26 241.87-127.17C243.02-126.08 244.85-126.13 245.93-127.30C258.16-140.31 264.12-151.63 265.71-156.27C267.24-160.71 268.10-165.27 268.14-165.46C268.17-165.61 268.20-165.76 268.23-165.91C269.39-165.88 270.43-165.83 271.36-165.78C272.54-165.72 273.55-165.67 274.42-165.67C281.08-165.75 286.85-165.83 287.71-164.60C288.11-164.03 287.03-161.58 286.07-159.41C285.07-157.14 283.82-154.31 282.73-150.74C282.46-149.85 276.09-128.72 282.98-124.26C283.77-123.75 284.69-123.36 285.90-123.36C290.88-123.36 300.92-129.91 328.49-161.56ZM261.24-184.69C261.61-184.19 261.90-183.69 262.10-183.16C262.35-182.50 262.42-181.93 262.45-181.65C263.07-176.61 263.39-174.08 263.22-171.62C263.22-171.61 263.22-171.61 263.22-171.61C260.80-171.53 258.60-172.19 257.09-173.45C256.25-174.15 255.68-175.05 255.51-175.92C255.24-177.39 256.36-180.75 258.27-183.05C259.25-184.22 260.31-184.96 260.93-184.97C260.97-184.96 261.11-184.87 261.24-184.69ZM394.17-166.17C392.64-166.58 391.06-165.69 390.63-164.15C388.88-157.74 385.87-152.00 381.68-147.09C377.26-141.92 372.25-136.07 364.56-135.58C353.36-134.86 345.79-146.48 344.76-148.79C344.27-149.91 344.33-150.23 344.34-150.25C344.44-150.57 345.60-151.22 346.17-151.55C356.73-157.55 364.95-167.09 369.32-178.43C369.60-179.18 369.57-180.01 369.22-180.73C368.86-181.45 368.22-181.99 367.46-182.22C359.15-184.70 351.88-176.88 349.49-174.32C340.06-164.18 331.60-153.22 324.21-141.56L332.72-172.77C360.13-200.38 381.08-234.45 393.33-271.38C395.41-277.65 397.46-284.93 395.50-292.05C394.30-296.38 391.11-300.39 387.18-302.51C384.00-304.22 380.51-304.61 377.35-303.59C372.42-302.00 369.43-297.69 366.93-293.26C352.80-268.24 345.18-240.31 337.82-213.30L327.56-175.70C327.08-175.08 326.88-174.32 326.98-173.58L312.58-120.81C312.19-119.39 312.95-117.90 314.33-117.37C314.67-117.24 315.01-117.18 315.36-117.18C316.42-117.18 317.43-117.77 317.93-118.77C327.33-137.62 339.36-154.98 353.70-170.40C356.93-173.87 359.76-175.95 362.27-176.66C358.13-168.32 351.39-161.13 343.32-156.55C341.76-155.66 339.64-154.46 338.85-151.98C338.19-149.88 338.86-147.93 339.51-146.46C341.16-142.72 350.23-128.94 364.93-129.84C375.05-130.48 381.41-137.92 386.05-143.36C390.80-148.91 394.20-155.40 396.19-162.64C396.60-164.16 395.70-165.75 394.17-166.17ZM343.36-211.79C350.64-238.46 358.16-266.04 371.94-290.44C373.87-293.84 376.07-297.13 379.11-298.12C379.74-298.32 380.35-298.40 380.93-298.40C382.32-298.40 383.56-297.93 384.46-297.44C387.05-296.04 389.16-293.39 389.95-290.52C391.49-284.95 389.68-278.65 387.86-273.19C377.01-240.44 359.14-209.99 335.91-184.47ZM402.73-115.56C407.32-115.77 411.85-120.53 414.89-124.13C418.33-128.21 421.26-133.29 423.82-139.65C424.05-140.21 424.27-140.79 424.49-141.36C424.74-138.85 425.14-136.33 425.89-133.85C426.36-132.32 427.19-130.10 428.97-128.46C434.26-123.62 442.61-126.94 446.17-128.35C460.74-134.14 467.44-151.04 470.13-160.59C470.56-162.12 469.67-163.71 468.14-164.14C466.62-164.56 465.03-163.68 464.60-162.15C462.66-155.28 456.78-138.76 444.05-133.70C441.49-132.68 435.49-130.29 432.86-132.70C432.11-133.39 431.67-134.64 431.40-135.53C430.23-139.37 430.04-143.68 429.85-147.85L429.79-149.12C429.56-153.97 429.80-158.92 430.06-163.58C430.15-165.10 429.04-166.42 427.54-166.60C426.02-166.79 424.64-165.76 424.36-164.27L423.84-161.37C423.36-158.62 422.86-155.78 422.16-153.10C421.07-148.93 419.87-145.23 418.49-141.79C416.15-136.01 413.54-131.44 410.49-127.83C405.52-121.94 403.19-121.30 402.42-121.30C402.23-121.30 402.04-121.28 401.86-121.24C398.40-120.55 394.57-121.44 392.32-123.45C389.13-126.31 389.09-131.41 389.42-139.47C389.63-144.38 390.61-152.27 394.16-161.96C394.71-163.45 393.94-165.10 392.45-165.64C390.95-166.19 389.31-165.42 388.76-163.93C384.96-153.56 383.89-145.03 383.68-139.70C383.34-131.65 383.03-124.04 388.48-119.16C391.28-116.66 395.35-115.26 399.49-115.26C400.57-115.26 401.66-115.36 402.73-115.56ZM543.43-165.89C542.01-166.62 540.28-166.06 539.55-164.65C518.14-123.28 509.82-121.82 507.78-122.33C506.26-122.73 503.94-125.02 501.60-133.68C498.89-143.68 499.60-154.45 503.60-164.00C504.04-165.07 503.80-166.31 502.99-167.13C502.17-167.96 500.93-168.21 499.87-167.78C490.92-164.17 478.05-156.97 467.48-143.19C466.10-141.39 464.85-139.58 463.70-137.78C466.36-148.79 469.75-159.62 473.84-170.19C474.41-171.68 473.68-173.34 472.20-173.91C470.72-174.49 469.05-173.75 468.48-172.27C460.59-151.92 455.27-130.60 452.66-108.92C452.48-107.37 453.56-105.96 455.11-105.73C455.25-105.72 455.39-105.71 455.52-105.71C456.91-105.71 458.12-106.70 458.35-108.11C459.70-116.11 463.16-128.08 472.05-139.69C479.66-149.63 488.58-155.87 496.07-159.72C493.64-150.75 493.61-141.19 496.05-132.19C497.78-125.80 500.51-118.28 506.34-116.76C512.44-115.18 522.34-118.88 544.66-162.01C545.39-163.42 544.84-165.15 543.43-165.89ZM992.65-167.83C991.18-168.42 989.51-167.71 988.92-166.24C964.14-104.79 936.05-35.15 880.46 9.20C847.13 35.78 793.86 52.88 755.63 27.61C722.48 5.69 714.42-38.29 712.57-62.55C707.77-125.56 727.18-187.72 744.61-234.84C772.83-311.08 804.15-365.55 843.17-406.23C861.17-424.99 877.42-436.73 894.30-443.15C915.55-451.24 937.97-450.04 954.27-439.95C972.28-428.82 981.24-405.32 974.26-387.58C973.68-386.10 974.40-384.43 975.88-383.85C977.36-383.26 979.03-383.99 979.61-385.47C987.71-406.02 977.90-432.10 957.30-444.84C939.48-455.86 915.16-457.24 892.26-448.53C874.54-441.79 857.63-429.61 839.02-410.21C787.01-355.99 757.15-285.29 739.22-236.83C721.58-189.17 701.95-126.24 706.84-62.12C708.77-36.80 717.26 9.14 752.46 32.40C766.86 41.93 782.99 45.99 799.41 45.98C829.55 45.98 860.70 32.32 884.04 13.69C940.82-31.59 969.21-101.98 994.24-164.09C994.84-165.56 994.13-167.23 992.65-167.83ZM1005.33-125.56C1008.62-125.56 1011.29-128.23 1011.29-131.53C1011.29-134.82 1008.62-137.49 1005.33-137.49C1002.03-137.49 999.36-134.82 999.36-131.53C999.36-128.23 1002.03-125.56 1005.33-125.56Z" fill="#000000"/>
  </g>
</svg>