<svg width="917" height="672" viewBox="0 0 917 672" xmlns="http://www.w3.org/2000/svg">
  <g transform="translate(67.2938713239879, 436.8)">
    <path d="M-4.49 159.64C25.83 170.46 69.64 147.39 110.14 99.28C145.81 56.92 172.15 8.17 194.76-57.35C233.03-168.23 232.40-236.65 192.70-280.09C179.88-293.52 163.24-302.67 145.04-306.31C101.35-312.32 51.81-263.54 43.41-206.23C42.28-198.52 39.33-192.99 29.22-179.75C-14.86-121.99-46.91-39.00-54.21 36.26C-58.07 76.13-51.57 110.66-35.74 134.37C-28.52 146.13-17.48 155.05-4.47 159.64ZM19.15 140.63C2.39 146.52-6.94 145.77-14.78 137.92C-22.27 130.40-28.94 113.96-31.89 95.82C-41.96 33.72-11.43-83.16 32.53-150.75L41.02-163.80L43.67-145.80C48.63-112.11 59.82-88.73 76.88-76.37C92.96-64.72 95.53-70.57 80.63-84.96C64.16-100.85 57.09-126.98 58.91-165.31L59.95-187.21L67.71-195.18C73.77-200.80 80.58-205.56 87.95-209.29C103.50-216.98 108.95-216.09 114.65-204.91C116.90-200.52 119.56-196.91 120.58-196.91C127.14-196.91 122.61-210.71 113.08-219.67C104.34-227.08 92.16-228.91 81.63-224.39C76.58-222.64 72.46-221.88 72.46-222.64C72.53-227.45 87.20-248.20 98.63-259.65C130.31-291.38 165.35-294.22 187.02-266.82C215.52-230.75 209.13-152.79 169.33-51.32C132.91 41.53 69.10 123.09 19.13 140.65ZM302.25-48.40C299.50-50.65 292.12-37.64 288.12-32.58C273.61-14.13 244.96 22.59 240.83 25.28L236.08 28.41L239.52 20.47C256.72-19.94 257.66-27.01 247.46-39.14L242.33-45.21L247.21-52.91C257.34-69.17 259.03-80.49 252.53-88.75C246.58-96.31 238.52-95.88 230.20-87.56C218.12-75.49 215.50-63.54 222.13-51.22L226.01-43.90C229.12-40.53 231.71-36.71 233.70-32.58C236.54-27.22 237.26-20.99 235.70-15.13C235.45-14.50 235.26-13.81 234.95-13.19C234.64-12.56 234.45-12.00 234.26-11.56C233.26-9.25 232.20-6.74 231.07-4.30C226.12 5.61 222.62 16.18 220.69 27.10C219.81 36.79 220.25 38.17 226.07 43.98C233.95 51.93 238.02 50.99 251.28 38.10C261.85 27.85 305.44-38.96 305.44-43.15C305.03-45.22 303.90-47.08 302.25-48.40ZM230.38-58.66C231.03-66.46 234.68-73.71 240.58-78.86L245.15-82.93L243.71-76.86C242.14-71.73 239.98-66.79 237.27-62.16C231.39-52.15 230.38-51.59 230.38-58.64ZM412.58-44.67C411.53-46.16 410.08-47.32 408.40-48.00C402.28-44.38 396.42-40.31 390.89-35.84C374.45-23.43 349.82-9.57 339.50-9.28C332.14-9.08 324.36-16.23 319.32-27.86C315.21-37.32 315.56-42.25 320.36-42.25C326.94-44.30 333.30-47.01 339.36-50.32C368.38-64.85 394.00-93.03 388.21-104.05C381.77-116.30 367.17-112.68 345.79-93.56C332.60-81.76 326.58-77.07 328.14-79.80C331.55-85.76 374.32-212.01 376.31-219.47C378.25-226.83 378.11-229.08 375.42-233.18C373.65-235.88 370.89-238.08 369.28-238.08C365.42-238.08 361.51-230.58 362.81-225.64C363.43-223.32 287.67-25.07 284.32-11.10C283.34-7.40 284.03-3.47 286.19-0.32C290.72 6.60 295.42 4.89 298.28-4.70C299.87-9.81 301.86-14.79 304.22-19.59L307.75-26.36L313.49-17.31C319.60-6.09 330.49 1.74 343.08 3.95C356.22 5.43 380.26-8.93 400.14-27.32C413.57-39.69 415.02-41.72 412.58-44.67ZM343.67-74.90C358.26-88.77 372.55-99.62 374.13-98.05C375.71-96.47 360.58-81.32 347.33-71.43C330.41-58.78 328.57-60.52 343.67-74.90ZM510.24-45.31C506.59-51.34 500.18-46.34 491.67-39.30C483.16-32.27 474.37-21.90 472.90-21.89C469.86-21.89 470.73-28.44 475.98-44.92C479.73-56.80 477.53-63.68 469.26-65.76C464.77-66.89 463.07-66.10 459.56-61.28C449.55-47.67 438.20-35.10 425.68-23.75L417.27-17.09L418.77-24.05C419.59-27.87 423.33-39.63 427.09-50.18C433.44-68.02 433.68-69.60 430.59-73.01C422.27-82.20 414.01-75.22 403.92-50.50C396.89-33.26 395.99-19.65 401.33-11.02C403.72-7.12 407.15-3.96 411.23-1.90C422.26 2.14 425.89 0.55 442.62-15.51C449.87-22.49 452.26-23.87 452.26-21.11C452.26-15.08 465.19-3.59 472.00-3.59C478.32-3.59 491.04-22.85 504.39-34.50C511.22-40.50 512.14-42.18 510.24-45.31ZM598.01-44.58C596.97-46.22 595.38-47.43 593.53-48.00C586.91-43.80 580.56-39.20 574.49-34.24C565.93-27.79 553.74-18.13 553.30-18.60C554.65-25.63 556.63-32.52 559.24-39.18C565.29-56.90 565.71-59.35 563.31-63.57C558.88-71.36 551.65-69.57 538.24-57.32C531.64-51.30 522.86-42.63 518.73-38.05L511.23-29.72L515.44-38.05C524.83-56.61 525.12-57.76 521.58-62.09C520.31-63.94 518.50-65.36 516.41-66.17C511.21-60.12 506.78-53.46 503.23-46.33C490.22-23.55 486.23-8.72 491.53-2.91C497.53 3.66 502.86 0.22 523.04-23.09C529.28-30.77 535.96-38.08 543.05-44.98C542.22-40.26 540.94-35.64 539.23-31.17C535.21-19.11 535.08-17.41 537.65-10.80C541.25-1.58 547.54 1.09 555.44-3.29C558.68-5.09 573.58-17.58 582.58-25.22C597.09-37.51 600.25-41.56 598.01-44.58ZM675.17 164.14C700.64 167.21 730.67 156.68 755.15 136.08C760.74 132.03 765.59 127.04 769.47 121.33C767.33 116.13 762.64 112.41 757.09 111.53C752.05 113.61 747.40 116.53 743.33 120.15C720.38 138.56 694.32 148.83 670.77 144.62C644.94 140.00 627.68 101.63 627.99 64.12C628.29 26.62 662.65-100.04 721.18-199.57C744.09-238.51 775.07-277.35 791.56-287.80C805.32-296.55 818.10-298.99 820.96-293.36C824.42-286.58 820.31-262.93 810.36-232.52C800.23-201.53 799.54-192.60 807.35-193.43C812.28-193.96 829.46-230.88 835.34-253.57C839.78-270.73 837.43-292.82 830.13-302.36C818.65-316.50 798.69-320.35 782.77-311.52C741.68-288.30 677.34-190.18 643.56-99.16C621.63-40.09 547.67 134.65 675.15 164.18ZM736.55-18.18C731.24-22.27 729.15-21.94 723.65-16.22C717.04-9.34 717.22-2.67 724.16 2.35C730.20 6.73 731.10 6.86 736.36 4.23C745.38-0.38 745.47-11.31 736.55-18.18Z" fill="#000000"/>
  </g>
</svg>