<svg width="822" height="358" viewBox="0 0 822 358" xmlns="http://www.w3.org/2000/svg">
  <g transform="translate(-2.402182023554788, 232.70000000000002)">
    <path d="M227.58-96.80C225.43-102.62 222.84-108.31 219.63-113.66C216.42-119.01 212.58-124.03 207.93-128.27C203.29-132.49 197.81-135.89 191.79-137.83C190.76-138.17 189.71-138.45 188.66-138.71C188.65-139.46 188.64-140.22 188.63-140.97C188.47-147.30 187.80-153.66 186.29-159.92C185.53-163.05 184.58-166.15 183.30-169.17C182.04-172.18 180.48-175.11 178.53-177.84C177.56-179.19 176.51-180.51 175.33-181.73C174.76-182.35 174.13-182.92 173.52-183.51C172.87-184.06 172.23-184.63 171.54-185.14C170.19-186.18 168.74-187.11 167.21-187.89C165.70-188.68 164.11-189.36 162.48-189.86C160.84-190.37 159.18-190.76 157.50-190.99C156.66-191.13 155.82-191.18 154.98-191.27C154.14-191.29 153.30-191.36 152.46-191.34C149.12-191.33 145.82-190.89 142.65-190.13C136.28-188.62 130.37-186.01 124.83-182.92C122.05-181.37 119.39-179.71 116.76-177.92C114.12-176.12 111.60-174.17 109.20-172.09C104.40-167.93 100.06-163.30 96.10-158.40C88.21-148.56 81.86-137.68 76.54-126.41C71.23-115.12 66.95-103.41 63.43-91.50C56.43-67.66 52.39-43.05 50.83-18.32C50.06-5.95 49.94 6.46 50.57 18.84C51.19 31.23 52.54 43.59 54.86 55.80C56.10 62.30 57.61 68.76 59.48 75.13C45.65 87.28 31.14 98.66 16.10 109.28L16.08 109.30C14.28 110.58 13.86 113.09 15.15 114.89C16.43 116.69 18.94 117.11 20.74 115.82C35.03 105.61 48.83 94.72 62.04 83.15C63.03 86.00 64.11 88.83 65.27 91.63C67.67 97.40 70.46 103.02 73.77 108.37C77.07 113.71 80.88 118.78 85.34 123.29C89.79 127.80 94.91 131.72 100.58 134.65C106.25 137.60 112.46 139.51 118.78 140.29C125.11 141.10 131.52 140.76 137.73 139.72C140.84 139.18 143.91 138.45 146.93 137.54C149.95 136.63 152.90 135.51 155.79 134.26C167.33 129.17 177.51 121.45 186.20 112.52C194.90 103.56 202.22 93.39 208.49 82.68C214.75 71.96 219.96 60.67 224.28 49.06C228.57 37.44 231.99 25.49 234.33 13.31C235.50 7.23 236.33 1.05 236.85-5.11C237.39-11.27 237.73-17.45 237.87-23.63C238.15-35.99 237.60-48.38 236.04-60.66C234.45-72.93 231.86-85.13 227.58-96.80ZM59.26 54.97C57.05 42.99 55.79 30.82 55.24 18.62C54.69 6.42 54.87-5.81 55.69-18.00C57.36-42.38 61.48-66.63 68.48-90.00C72.00-101.66 76.25-113.11 81.48-124.07C86.71-135.01 92.93-145.49 100.50-154.84C104.30-159.49 108.43-163.85 112.95-167.73C115.22-169.66 117.58-171.47 120.03-173.12C122.50-174.78 125.06-176.36 127.67-177.80C132.88-180.68 138.36-183.03 144.00-184.32C149.61-185.64 155.42-185.77 160.63-184.09C161.94-183.69 163.19-183.14 164.40-182.51C165.60-181.88 166.75-181.14 167.83-180.29C168.38-179.89 168.89-179.42 169.41-178.98C169.90-178.50 170.41-178.04 170.88-177.52C171.84-176.52 172.70-175.42 173.52-174.27C175.14-171.98 176.47-169.44 177.58-166.78C178.69-164.12 179.54-161.32 180.22-158.47C181.56-152.76 182.17-146.80 182.28-140.83C182.29-140.47 182.28-140.11 182.29-139.75C179.25-140.02 176.17-139.98 173.15-139.66C166.91-139.02 160.85-137.28 155.09-134.96C149.32-132.63 143.84-129.68 138.58-126.41C138.17-126.16 138.05-125.63 138.30-125.22C138.55-124.81 139.08-124.68 139.49-124.93L139.49-124.93C144.70-128.14 150.12-131.01 155.77-133.26C161.42-135.50 167.33-137.16 173.34-137.74C176.32-138.03 179.32-138.05 182.29-137.76C182.25-132.80 181.89-127.82 181.29-122.87C179.83-110.89 177.00-99.06 173.33-87.49C169.63-75.94 165.08-64.63 159.86-53.64C154.65-42.64 148.79-31.94 142.39-21.57C136.00-11.19 129.08-1.13 121.73 8.60C107.01 28.06 90.55 46.20 72.82 62.98C69.63 66.00 66.38 68.95 63.12 71.88C61.59 66.31 60.32 60.66 59.26 54.97ZM235.16-23.70C234.99-17.58 234.61-11.46 234.05-5.37C233.50 0.74 232.66 6.76 231.47 12.76C229.10 24.74 225.67 36.53 221.37 47.97C217.05 59.40 211.85 70.51 205.64 81.01C199.43 91.50 192.20 101.41 183.70 110.07C175.21 118.72 165.35 126.08 154.31 130.87C151.55 132.06 148.73 133.11 145.86 133.96C142.98 134.81 140.05 135.48 137.10 135.98C131.18 136.94 125.16 137.22 119.28 136.44C113.39 135.68 107.67 133.88 102.43 131.12C97.18 128.37 92.43 124.69 88.26 120.42C84.08 116.16 80.47 111.32 77.33 106.18C74.19 101.04 71.52 95.60 69.23 89.99C67.89 86.72 66.68 83.39 65.58 80.03C69.80 76.26 73.97 72.42 78.07 68.51C96.00 51.36 112.63 32.83 127.51 12.95C134.94 3.00 141.93-7.28 148.39-17.89C154.85-28.50 160.78-39.45 166.05-50.72C171.32-61.99 175.92-73.59 179.66-85.50C183.37-97.40 186.23-109.63 187.69-122.10C188.25-126.92 188.59-131.76 188.65-136.64C189.49-136.42 190.33-136.18 191.16-135.90C196.87-134.03 202.07-130.78 206.49-126.70C210.93-122.61 214.62-117.74 217.71-112.53C220.81-107.30 223.32-101.73 225.39-96.00C229.54-84.53 232.04-72.48 233.53-60.35C235.02-48.21 235.49-35.93 235.16-23.70ZM327.84-31.99L327.84-31.98C324.39-30.07 320.87-28.30 317.24-26.88C315.43-26.17 313.59-25.55 311.73-25.08C309.88-24.60 308.00-24.28 306.15-24.21C304.31-24.13 302.49-24.32 300.84-24.88C299.19-25.43 297.73-26.35 296.48-27.56C295.22-28.77 294.17-30.25 293.19-31.86C292.21-33.48 291.33-35.23 290.15-37.06C289.54-37.97 288.84-38.92 287.82-39.81C287.31-40.25 286.69-40.67 285.98-40.98C285.28-41.29 284.48-41.48 283.71-41.52C282.97-41.57 282.09-41.48 281.37-41.25C280.62-41.03 279.99-40.70 279.42-40.36C278.28-39.66 277.40-38.85 276.60-38.02C275.03-36.36 273.82-34.61 272.69-32.83C271.57-31.05 270.58-29.25 269.64-27.42C267.82-23.84 266.21-20.19 264.73-16.51C265.00-18.91 265.31-21.30 265.63-23.69C265.97-26.18 266.33-28.69 266.71-31.15L266.72-31.18C266.75-31.38 266.76-31.59 266.76-31.81C266.75-34.03 264.93-35.82 262.71-35.80C260.49-35.78 258.70-33.96 258.72-31.74C258.74-29.15 258.80-26.61 258.87-24.05C258.95-21.49 259.04-18.93 259.17-16.37C259.31-13.80 259.47-11.24 259.72-8.66C259.85-7.36 260.00-6.07 260.22-4.75C260.24-4.58 260.28-4.42 260.30-4.25C260.12-3.02 260.51-1.81 261.30-0.94C261.30-0.94 261.30-0.94 261.30-0.93C261.49-0.67 261.64-0.34 262.27 0.02C262.53 0.17 262.82 0.22 263.10 0.20C263.16 0.22 263.23 0.24 263.30 0.25C265.44 0.79 267.62-0.51 268.16-2.66L268.17-2.71C269.09-6.40 270.18-10.20 271.36-13.88C272.54-17.58 273.84-21.24 275.32-24.76C276.06-26.52 276.86-28.25 277.73-29.90C278.60-31.54 279.56-33.12 280.62-34.42C281.15-35.06 281.71-35.64 282.24-36.01C282.49-36.20 282.74-36.35 282.95-36.43C283.16-36.51 283.27-36.55 283.53-36.57C283.94-36.58 284.30-36.48 284.83-36.12C285.34-35.75 285.89-35.14 286.43-34.44C288.58-31.56 290.57-27.63 294-24.77C295.70-23.34 297.75-22.25 299.91-21.70C302.07-21.13 304.28-21.08 306.37-21.31C308.47-21.54 310.49-22.04 312.43-22.68C314.38-23.32 316.25-24.11 318.07-24.96C321.71-26.69 325.15-28.73 328.49-30.90C328.77-31.08 328.86-31.44 328.70-31.74C328.53-32.04 328.15-32.16 327.84-31.99ZM393.97-32.74L393.92-32.70L390.23-29.93L389.30-29.23C389.00-29.00 388.69-28.78 388.36-28.57L386.42-27.31L384.49-26.05L383.52-25.43L382.52-24.85L378.52-22.56C373.08-19.68 367.51-17.06 361.76-14.85C356.02-12.63 350.18-10.68 344.27-9.01C341.31-8.18 338.34-7.40 335.35-6.71L333.11-6.19L332.95-6.16C332.85-8.01 332.76-9.87 332.69-11.73C333.05-12.17 333.41-12.61 333.79-13.05L336.12-15.86L338.54-18.59L340.95-21.32L343.45-23.95C346.75-27.48 350.26-30.80 353.89-33.72C354.81-34.44 355.71-35.18 356.66-35.78L358.06-36.72L359.47-37.52C359.94-37.81 360.39-37.98 360.84-38.18C361.07-38.28 361.30-38.40 361.52-38.47L362.14-38.65C362.34-38.72 362.55-38.79 362.69-38.78C362.79-38.79 362.90-38.81 363.00-38.83C364.78-38.16 366.83-38.81 367.85-40.49C369.00-42.38 368.40-44.85 366.50-46.00C366.28-46.13 366.04-46.24 365.80-46.33C365.66-46.39 365.57-46.41 365.45-46.45C365.23-46.52 365.00-46.57 364.78-46.62C364.42-46.67 364.10-46.69 363.76-46.71C363.39-46.74 363.17-46.70 362.89-46.68C362.62-46.66 362.36-46.62 362.09-46.59C361.59-46.50 361.20-46.37 360.75-46.25C360.29-46.14 359.93-45.98 359.56-45.82L358.47-45.35C358.13-45.17 357.83-44.99 357.50-44.80C356.88-44.44 356.22-44.08 355.69-43.67L354.01-42.46L352.50-41.18C351.46-40.34 350.55-39.43 349.63-38.52C346.00-34.89 342.77-31.07 339.78-27.09L337.53-24.12L335.39-21.09L333.24-18.07L332.52-16.97C332.50-17.57 332.48-18.17 332.47-18.77C332.20-31.00 332.35-43.27 332.68-55.52C333.03-67.78 333.58-80.04 334.37-92.26C334.78-98.37 335.24-104.48 335.82-110.54C336.12-113.57 336.45-116.59 336.85-119.56C337.05-121.04 337.28-122.51 337.54-123.91C337.68-124.61 337.82-125.29 337.98-125.88C338.00-125.97 338.03-126.06 338.05-126.15C338.71-126.86 339.12-127.81 339.12-128.86C339.12-131.07 337.32-132.87 335.11-132.87C334.73-132.86 334.32-132.81 333.94-132.70C333.75-132.64 333.56-132.58 333.38-132.50C333.22-132.43 333.15-132.38 333.03-132.32C332.82-132.20 332.61-132.06 332.42-131.91C332.33-131.84 332.22-131.74 332.16-131.68L332.02-131.54C331.84-131.36 331.63-131.11 331.52-130.95C331.43-130.81 331.33-130.68 331.25-130.54C331.16-130.38 331.12-130.30 331.07-130.19L330.92-129.89L330.72-129.39C330.50-128.80 330.37-128.33 330.25-127.87C330.03-126.96 329.88-126.14 329.74-125.32C329.46-123.69 329.25-122.12 329.07-120.55C328.70-117.41 328.43-114.31 328.18-111.21C327.69-105.02 327.34-98.85 327.05-92.67C326.47-80.33 326.15-67.99 326.03-55.65C325.92-43.31 326.00-30.96 326.49-18.59C326.63-15.24 326.80-11.89 327.02-8.54C325.76-6.54 324.52-4.53 323.27-2.54C323.15-2.35 323.12-2.13 323.17-1.92C323.01-1.30 322.99-0.63 323.16 0.04C323.68 2.19 325.85 3.51 328.01 2.98C328.02 2.98 328.04 2.98 328.06 2.97C328.32 5.09 328.62 7.22 329.03 9.37C329.33 10.95 329.68 12.54 330.20 14.18C330.46 15.00 330.76 15.84 331.23 16.74C331.45 17.19 331.75 17.67 332.15 18.18C332.56 18.66 333.13 19.28 334.18 19.69C335.54 20.21 337.08 19.52 337.59 18.14C338.07 16.87 337.50 15.47 336.32 14.86C336.31 14.85 336.30 14.84 336.29 14.82C336.22 14.72 336.10 14.55 335.99 14.30C335.76 13.84 335.53 13.22 335.34 12.58C334.95 11.28 334.66 9.85 334.41 8.40C334.03 6.14 333.75 3.82 333.52 1.48L335.00 1.05L337.28 0.34C340.32-0.61 343.32-1.64 346.30-2.73C352.26-4.91 358.11-7.36 363.84-10.08C369.56-12.81 375.10-15.93 380.45-19.31C385.78-22.75 390.80-26.65 395.48-30.92C395.93-31.32 396-32.01 395.63-32.51C395.24-33.03 394.50-33.13 393.97-32.74ZM363.14-38.84C363.18-38.83 363.22-38.82 363.26-38.82C363.29-38.82 363.36-38.83 363.31-38.81C363.27-38.79 363.25-38.80 363.20-38.81C363.16-38.81 363.12-38.83 363.07-38.83C363.10-38.84 363.12-38.84 363.14-38.84ZM338.19-126.55C338.20-126.56 338.21-126.59 338.21-126.59C338.20-126.58 338.20-126.56 338.19-126.55L338.18-126.54C338.18-126.54 338.19-126.55 338.19-126.55ZM336.28 14.84C336.20 14.81 336.13 14.76 336.05 14.73C336.17 14.78 336.24 14.82 336.28 14.84ZM455.46-32.98C455.04-33.27 454.46-33.17 454.16-32.74L454.15-32.73C450.19-26.98 445.92-21.39 441.31-16.19C439.01-13.60 436.59-11.11 434.03-8.92C432.74-7.84 431.40-6.83 430.04-6.04C428.70-5.26 427.28-4.66 426.20-4.71C425.01-4.73 424.21-5.15 423.44-6.07C422.67-6.98 422.07-8.35 421.64-9.83C420.79-12.81 420.52-16.19 420.45-19.54C420.38-22.92 420.55-26.34 420.84-29.75C420.99-31.46 421.18-33.17 421.39-34.87C421.60-36.56 421.85-38.31 422.13-39.91L422.13-39.95C422.15-40.03 422.16-40.11 422.17-40.18C422.38-42.22 420.91-44.04 418.87-44.26C416.84-44.47 415.02-43.00 414.80-40.96C414.76-40.60 414.73-40.25 414.70-39.89C413.30-35.13 411.74-30.41 409.99-25.80C408.99-23.17 407.92-20.58 406.73-18.07C405.54-15.57 404.24-13.11 402.70-11.04C401.95-10.02 401.08-9.07 400.30-8.59C399.47-8.11 399.32-8.29 399.03-8.49C398.89-8.61 398.67-8.86 398.45-9.23C398.23-9.61 398.02-10.09 397.84-10.62C397.48-11.69 397.23-12.92 397.06-14.20C396.71-16.75 396.65-19.46 396.70-22.17C396.77-24.88 396.96-27.63 397.28-30.29C397.30-30.43 397.31-30.58 397.31-30.73C397.34-32.94 395.56-34.76 393.35-34.79C391.13-34.81 389.31-33.04 389.29-30.82L389.29-30.81C389.25-27.82 389.36-24.89 389.62-21.93C389.88-18.97 390.26-16.01 391.01-13.00C391.38-11.49 391.85-9.97 392.57-8.42C392.94-7.64 393.38-6.85 393.98-6.07C394.58-5.29 395.37-4.49 396.47-3.91C397.01-3.63 397.63-3.42 398.25-3.32C398.88-3.22 399.48-3.22 400.14-3.31C401.40-3.54 402.39-4.12 403.15-4.71C404.65-5.93 405.54-7.27 406.37-8.59C407.95-11.26 409.04-13.97 410.04-16.70C411.02-19.43 411.85-22.18 412.61-24.95C413.17-27.03 413.69-29.11 414.18-31.20C414.17-30.84 414.15-30.47 414.15-30.11C414.07-26.50 414.13-22.87 414.44-19.22C414.59-17.39 414.81-15.56 415.15-13.71C415.48-11.87 415.92-10.02 416.59-8.15C417.27-6.31 418.16-4.39 419.77-2.70C420.58-1.86 421.60-1.11 422.77-0.63C423.95-0.16 425.23-0.00 426.39-0.08C426.68-0.09 426.98-0.13 427.27-0.20C427.56-0.25 427.86-0.30 428.14-0.37C428.66-0.55 429.22-0.70 429.68-0.93C430.16-1.15 430.65-1.36 431.07-1.62C431.50-1.88 431.94-2.13 432.33-2.41C433.94-3.50 435.34-4.72 436.67-5.99C439.30-8.55 441.61-11.29 443.81-14.11C448.18-19.75 452.09-25.64 455.73-31.73C455.98-32.15 455.87-32.70 455.46-32.98ZM524.02-31.62C523.78-31.88 523.38-31.91 523.12-31.68C519.62-28.57 516.02-25.59 512.28-22.82C508.53-20.08 504.63-17.53 500.50-15.67C498.44-14.75 496.32-13.99 494.21-13.68C492.11-13.33 490.04-13.49 488.34-14.28C486.63-15.07 485.28-16.51 484.25-18.29C483.21-20.07 482.48-22.14 481.90-24.29C481.32-26.44 480.90-28.68 480.48-30.98C480.27-32.13 480.06-33.31 479.78-34.53C479.65-35.14 479.49-35.77 479.29-36.43C479.07-37.10 478.84-37.80 478.31-38.67C478.06-39.09 477.64-39.63 476.98-40.11C476.57-40.36 476.17-40.59 475.64-40.70C475.12-40.83 474.64-40.82 474.16-40.76C473.90-40.73 473.76-40.67 473.56-40.62C473.39-40.57 473.15-40.49 473.04-40.44L472.50-40.18C472.15-40.01 471.78-39.83 471.48-39.62C470.17-38.83 469.16-37.89 468.20-36.94C466.35-35.02 464.87-32.97 463.53-30.88C460.87-26.69 458.73-22.35 456.77-17.96C456.03-16.30 455.33-14.62 454.65-12.94C454.72-14.17 454.81-15.40 454.92-16.63C455.15-19.18 455.45-21.74 455.80-24.30C456.15-26.85 456.54-29.44 456.97-31.93L456.98-31.97C457.01-32.13 457.02-32.29 457.03-32.45C457.13-34.67 455.42-36.55 453.20-36.65C450.99-36.75 449.11-35.04 449.01-32.82C448.88-30.10 448.83-27.47 448.80-24.79C448.79-22.12 448.82-19.45 448.92-16.77C449.02-14.09 449.19-11.40 449.55-8.67C449.73-7.30 449.96-5.93 450.32-4.51C450.49-3.80 450.72-3.07 451.02-2.33C451.10-2.14 451.21-1.94 451.30-1.75C451.39-1.55 451.48-1.36 451.63-1.15C451.77-0.94 451.87-0.75 452.05-0.53C452.24-0.31 452.44-0.10 452.65 0.10C453.04 0.49 453.59 0.68 454.15 0.62C454.17 0.63 454.20 0.64 454.22 0.64C456.36 1.23 458.57-0.03 459.15-2.16L459.16-2.20C459.75-4.33 460.43-6.57 461.14-8.74C461.85-10.93 462.60-13.10 463.41-15.24C465.02-19.52 466.80-23.74 468.95-27.62C470.02-29.55 471.22-31.38 472.53-32.92C473.08-33.55 473.66-34.14 474.24-34.59C474.39-34.17 474.54-33.72 474.67-33.23C474.98-32.18 475.25-31.05 475.53-29.92C476.10-27.63 476.68-25.28 477.47-22.94C478.25-20.61 479.22-18.25 480.68-16.05C481.41-14.95 482.28-13.90 483.31-12.98C484.35-12.07 485.56-11.30 486.87-10.79C489.52-9.76 492.35-9.80 494.83-10.37C497.35-10.90 499.63-11.90 501.79-13.01C506.10-15.28 509.93-18.15 513.58-21.17C517.21-24.20 520.66-27.43 523.99-30.76C524.22-30.99 524.24-31.37 524.02-31.62ZM473.72-35.67C473.73-35.66 473.74-35.64 473.75-35.62C473.69-35.69 473.69-35.73 473.72-35.67ZM795.95-34.38C793.26-31.09 791.10-27.61 789.01-24.11C786.94-20.60 784.99-17.04 783.10-13.47C779.31-6.31 775.72 0.91 772.13 8.13C764.98 22.56 757.89 37.01 750.37 51.21C742.85 65.40 734.97 79.40 726.06 92.66C721.60 99.29 716.88 105.72 711.71 111.73C706.54 117.71 700.92 123.33 694.56 127.73C691.38 129.92 688.00 131.76 684.48 133.03C683.59 133.33 682.70 133.62 681.80 133.84C681.36 133.97 680.90 134.06 680.45 134.16C679.99 134.26 679.50 134.34 679.02 134.43C678.06 134.63 677.10 134.77 676.14 134.91C675.18 135.08 674.21 135.17 673.25 135.28C665.52 136.10 657.69 135.62 650.33 133.44C646.65 132.39 643.12 130.85 639.78 129.00C636.44 127.13 633.32 124.86 630.44 122.32C624.69 117.21 619.98 110.92 616.20 104.11C612.42 97.28 609.54 89.92 607.33 82.35C605.11 74.78 603.55 67.00 602.46 59.15C600.27 43.42 599.94 27.41 600.62 11.47C600.98 3.49 601.61-4.48 602.45-12.43C603.30-20.39 604.32-28.32 605.64-36.18C608.28-51.92 611.98-67.50 616.71-82.73C621.46-97.95 627.24-112.86 634.46-126.99C638.07-134.06 642.07-140.90 646.52-147.41C650.97-153.90 655.90-160.05 661.44-165.52C666.96-170.98 673.11-175.76 679.87-179.28C686.61-182.84 693.99-184.96 701.50-185.40C702.44-185.48 703.38-185.46 704.32-185.50C705.24-185.51 706.13-185.47 707.03-185.40C708.81-185.24 710.56-184.95 712.24-184.45C715.61-183.48 718.70-181.76 721.38-179.44C724.06-177.12 726.32-174.22 728.21-171.03C730.10-167.83 731.64-164.34 732.90-160.73C735.41-153.48 736.91-145.75 737.87-137.95C738.82-130.14 739.22-122.22 739.28-114.28C739.34-106.34 739.05-98.39 738.49-90.44C738.21-86.47 737.87-82.50 737.45-78.54C737.04-74.60 736.56-70.59 735.98-66.76L735.97-66.71L735.97-66.68C735.65-64.49 737.17-62.46 739.36-62.14C741.55-61.82 743.58-63.34 743.90-65.53C744.50-69.67 744.95-73.67 745.36-77.74C745.76-81.79 746.09-85.84 746.36-89.91C746.88-98.04 747.14-106.19 747.04-114.36C746.93-122.53 746.47-130.72 745.44-138.90C744.38-147.07 742.78-155.25 739.97-163.21C738.56-167.19 736.83-171.11 734.60-174.84C732.37-178.55 729.62-182.09 726.18-185.03C722.76-187.97 718.65-190.25 714.26-191.47C712.07-192.11 709.83-192.47 707.60-192.65C706.49-192.73 705.36-192.77 704.28-192.75C703.20-192.71 702.13-192.72 701.06-192.63C692.48-192.10 684.05-189.60 676.56-185.61C669.04-181.65 662.37-176.39 656.48-170.51C650.57-164.63 645.42-158.12 640.79-151.32C636.17-144.50 632.06-137.39 628.38-130.09C621.00-115.49 615.16-100.23 610.39-84.68C605.63-69.13 601.94-53.27 599.31-37.23C598.00-29.20 597.01-21.14 596.20-13.08C595.39-5.00 594.81 3.10 594.48 11.21C593.88 27.45 594.31 43.79 596.65 59.97C597.82 68.06 599.49 76.10 601.84 83.98C604.20 91.86 607.25 99.58 611.32 106.83C615.39 114.06 620.51 120.83 626.84 126.40C630.01 129.17 633.46 131.65 637.16 133.69C640.87 135.72 644.78 137.39 648.85 138.53C656.98 140.89 665.53 141.35 673.80 140.41C674.84 140.28 675.87 140.18 676.90 140.00C677.93 139.85 678.96 139.68 679.97 139.47C680.49 139.37 680.99 139.29 681.51 139.17C682.04 139.05 682.57 138.94 683.10 138.79C684.15 138.52 685.18 138.18 686.19 137.82C690.24 136.34 693.98 134.26 697.42 131.87C704.29 127.05 710.12 121.13 715.44 114.92C720.74 108.68 725.52 102.08 730.03 95.32C739.01 81.78 746.88 67.62 754.37 53.31C761.85 38.99 768.88 24.47 775.95 10.01C779.50 2.78 783.04-4.44 786.75-11.54C788.61-15.10 790.51-18.61 792.51-22.05C794.52-25.47 796.62-28.87 799.03-31.82L799.04-31.84C799.74-32.69 799.62-33.96 798.76-34.66C797.91-35.36 796.65-35.23 795.95-34.38ZM807.47-8.57C805.29-8.57 803.52-6.80 803.52-4.62C803.52-2.44 805.29-0.67 807.47-0.67C809.66-0.67 811.43-2.44 811.43-4.62C811.43-6.80 809.66-8.57 807.47-8.57Z" fill="#000000"/>
  </g>
</svg>