<svg width="1000" height="424" viewBox="0 0 1000 424" xmlns="http://www.w3.org/2000/svg">
  <g transform="translate(25.459978366684695, 275.6)">
    <path d="M12.50-72C12-66-6-8 20 18C25.50 23.50 32 26 39 26C90.50 26 177-108.50 202.50-159.50C224.50-203 250-264.50 209-291C199.50-297 189-300 177.50-300C101.50-300-5.50-172.50-13-113C-17.50-77 12.50-74 12.50-72ZM184-291.50C186.50-291.50 189.50-291.50 192-291C293-275 90 17.50 31 17.50C29.50 17.50 28.50 17.50 27 17C22 15.50 18 3 17-13.50C16-31 21-54.50 25.50-72C69-74.50 102-86 123-99C125.50-100.50 127-101.50 127-102C127.50-102.50 125.50-106 124-107C122-108.50 119-109.50 118-109.50C115.50-109.50 87-87.50 28.50-81.50C56-163 93-224.50 106.50-239C108-240.50 108.50-241 108-242C107.50-244.50 102-248.50 99-248.50C94-248.50 43-175 16.50-85.50C15.50-82 15.50-81.50 14.50-81.50L13-81.50C-54-81.50 94.50-291.50 184-291.50ZM246-126.50C246-127.50 249.50-137 252.50-145C256.50-154.50 261-162.50 254-169.50C251.50-172 248.50-173 246-173C238-173 231-164.50 230-164.50C230-164.50 230-165.50 231-167C232-169 232-169.50 231.50-170.50C231-173.50 226-177 223.50-177C222.50-177 173-87.50 171.50-85C173-82.50 175.50-78 178.50-77.50C179.50-77.50 182-77.50 182-78C186.50-84 198-119 235.50-152.50C239-156.50 246-161.50 246.50-161.50C247.50-161.50 235.50-138.50 235-128.50C235-124.50 238-115 247-115C255.50-115 287.50-134.50 295.50-139C297.50-140 302-146.50 291.50-150C291-150 246-124 246-126.50ZM294-120.50C295-121.50 295-122 295.50-122C295.50-106 296-80 314.50-73.50C315.50-73 317-73 318-73C340.50-73 392.50-112.50 412.50-134.50C422-145 417-148 409.50-150C395-134.50 375-114 342-95C330-88 316-82 312.50-82C306-82 307-118.50 306-125C305.50-127.50 304.50-126.50 310.50-129.50C344.50-144 378-159.50 373.50-175.50C371.50-182.50 365-186.50 358.50-186.50C346.50-186.50 321.50-166.50 313-159L310.50-156.50C309.50-156.50 321-173.50 354-241.50C365.50-266 365-263 365-265C365-268 360.50-272.50 357-273C354-273.50 353-263.50 278.50-126C267-105.50 262.50-96.50 262.50-96C262.50-95 267.50-89.50 271-89.50C272.50-89.50 273.50-90 274.50-91.50C281-102.50 288.50-114 294-120.50ZM319-146.50C318.50-146.50 319.50-147 321-148.50C333-160 357.50-177.50 362.50-177.50C364-177.50 363.50-175.50 359.50-171C355.50-166 324-146.50 319-146.50ZM397.50-111.50C399.50-104.50 404.50-100 409.50-100C411-100 412.50-100.50 414-101C427.50-107.50 468-157 468.50-156.50C468.50-156 447.50-113 451-94C452.50-87 458-78 466-78C483-78 512-120 527.50-137.50C530.50-141 534.50-147.50 522-150C512.50-138.50 484.50-105 473-95.50C471-93.50 461-85.50 460-88C458-94.50 467.50-123.50 470-129.50C483-162.50 504.50-193.50 505.50-200.50C506.50-205 499.50-211.50 497-210.50C494-210 462-166 429-131.50C419-121 408-111 407-111.50C403.50-111.50 416.50-139.50 424.50-150.50C426.50-154 426.50-154 426.50-155.50C425.50-159 420.50-162.50 419-162.50C416-162.50 393-127 397.50-111.50ZM597-108C596.50-108 597.50-116 599-123C605.50-152 626.50-198.50 621.50-210C619.50-214.50 614.50-218 610.50-218.50C595.50-219.50 528.50-134.50 528-135C528-135.50 531.50-142 536-150C539.50-156 539.50-156.50 539-157.50C538.50-160.50 534-164 531-164C528-164 504.50-119.50 504-110.50C504-107 509.50-101.50 513-101.50C518-101.50 523.50-108.50 536.50-125C577.50-177 611.50-207.50 611-205.50C610.50-196 590.50-145.50 587-121.50C586-113.50 586.50-106 593-100.50C595-99 597.50-98 600-98C609-98 623.50-109 669-138.50C672.50-140.50 677.50-146.50 666.50-150C657-144 600-108 597-108ZM771-130.50C799-190 866.50-282.50 932-282.50C940-282.50 950-281 951.50-273.50C957-241 905-192.50 893.50-192.50C889-192.50 903-233 916-246C919-248.50 919-249.50 917.50-252C916-254 913-255.50 910.50-256C904-256.50 887.50-224 884-210.50C882.50-206.50 883-204.50 883-196.50C885-192.50 887-187 892.50-184.50C894-183.50 894.50-183.50 898.50-183.50C903-183.50 903.50-183.50 906.50-184.50C922.50-191.50 955-224 961-252C966-276 948.50-292 923.50-292C920-292 916.50-291.50 912.50-291C802-270 689.50-37.50 741.50 15.50C747.50 21.50 753 23.50 759 23.50C797 23.50 904.50-108 929.50-138.50C932-142 932-147.50 923.50-150C900.50-116.50 780 16.50 753 16.50C752 16.50 751.50 16 751 16C743 12.50 724-30.50 771-130.50ZM934.50-82C935.50-81.50 936.50-81.50 937.50-81.50C947.50-81.50 951.50-96.50 945.50-101C944.50-101.50 944-102 942.50-102C941.50-102 940.50-101.50 938.50-101.50C925-100 927-84.50 934.50-82Z" fill="#000000"/>
  </g>
</svg>