<svg width="640" height="429" viewBox="0 0 640 429" xmlns="http://www.w3.org/2000/svg">
  <g transform="translate(52.52008450714366, 278.85)">
    <path d="M107.16-181.64C97.66-198.41 79.51-214.24 58.63-223.97C57.84-224.33 56.92-223.99 56.56-223.21C56.20-222.43 56.53-221.50 57.31-221.14C77.63-211.68 95.25-196.33 104.45-180.10C119.56-153.43 116.59-119.28 111.69-89.38C103.69-40.61 87.76-9.02 63.00 7.21C52.82 13.88 41.56 15.96 30.46 13.24C17.64 10.09 6.05 0.71-1.33-12.50C-17.69-41.80-7.96-88.11-3.02-106.66C1.81-124.80 9.28-143.40 19.82-163.50L20.17-164.17C28.56-180.18 36.48-195.30 52.68-204.47C53.43-204.89 53.69-205.84 53.27-206.59C52.85-207.34 51.89-207.61 51.14-207.18C34.15-197.55 26.02-182.04 17.41-165.62L17.06-164.95C6.41-144.63-1.14-125.83-6.03-107.46C-11.07-88.54-20.96-41.27-4.05-10.97C3.75 2.98 16.06 12.91 29.72 16.27C33.14 17.11 36.58 17.52 39.99 17.52C48.51 17.52 56.91 14.93 64.70 9.82C90.24-6.92 106.61-39.20 114.76-88.87C119.75-119.31 122.75-154.13 107.16-181.64ZM177.93-87.51C178.50-88.16 178.43-89.15 177.78-89.71C177.13-90.28 176.15-90.21 175.58-89.56C159.92-71.57 155.83-70.04 154.97-69.98C154.39-71.02 154.60-75.76 156.13-80.74C156.66-82.50 157.27-83.87 157.80-85.09C158.77-87.29 159.61-89.20 158.39-90.94C156.99-92.96 154.19-92.92 148.61-92.85C148.20-92.86 147.71-92.88 147.15-92.91C146.71-92.93 146.23-92.96 145.70-92.97C145.78-94.52 145.60-95.98 145.25-98.78C145.23-99.01 145.15-99.60 144.88-100.32C144.67-100.88 144.38-101.40 143.99-101.91C143.33-102.79 142.39-103.30 141.40-103.30C140.02-103.30 138.67-102.55 137.50-101.14C136.14-99.50 134.96-96.77 135.34-94.72C135.56-93.53 136.25-92.40 137.26-91.56C138.54-90.50 140.24-89.90 142.11-89.84C141.95-89.10 141.55-87.33 140.98-85.65C140.25-83.54 137.22-77.76 130.94-71.08C130.35-70.46 130.38-69.47 131.01-68.88C131.64-68.29 132.63-68.32 133.21-68.95C139.84-76.00 143.06-82.13 143.93-84.65C144.75-87.05 145.22-89.52 145.24-89.62C145.26-89.71 145.28-89.79 145.29-89.87C145.92-89.85 146.48-89.82 146.99-89.80C147.63-89.76 148.17-89.74 148.64-89.74C152.25-89.78 155.38-89.82 155.84-89.16C156.06-88.85 155.47-87.52 154.96-86.35C154.41-85.12 153.74-83.58 153.15-81.65C153.00-81.17 149.55-69.72 153.28-67.31C153.71-67.03 154.21-66.82 154.86-66.82C157.56-66.82 163.00-70.37 177.93-87.51ZM141.50-100.04C141.71-99.77 141.86-99.50 141.97-99.21C142.11-98.85 142.14-98.55 142.16-98.39C142.50-95.66 142.67-94.29 142.58-92.96C142.58-92.96 142.58-92.96 142.58-92.96C141.27-92.91 140.08-93.27 139.26-93.95C138.80-94.33 138.49-94.82 138.40-95.29C138.26-96.09 138.86-97.91 139.90-99.15C140.43-99.79 141.00-100.19 141.34-100.19C141.36-100.19 141.43-100.14 141.50-100.04ZM213.51-90.01C212.68-90.23 211.82-89.75 211.59-88.91C210.64-85.44 209.01-82.33 206.74-79.67C204.35-76.87 201.64-73.70 197.47-73.44C191.40-73.05 187.30-79.34 186.75-80.59C186.48-81.20 186.51-81.37 186.52-81.39C186.57-81.56 187.20-81.91 187.51-82.09C193.23-85.34 197.68-90.51 200.05-96.65C200.20-97.06 200.18-97.51 199.99-97.90C199.80-98.29 199.45-98.58 199.04-98.70C194.54-100.05 190.60-95.81 189.31-94.42C184.20-88.93 179.62-82.99 175.61-76.68L180.22-93.58C195.07-108.54 206.42-126.99 213.05-147.00C214.18-150.39 215.29-154.34 214.23-158.19C213.58-160.54 211.85-162.71 209.72-163.86C208.00-164.79 206.11-165.00 204.40-164.44C201.73-163.58 200.11-161.25 198.75-158.85C191.10-145.30 186.97-130.17 182.99-115.54L177.43-95.17C177.17-94.84 177.06-94.42 177.11-94.02L169.31-65.44C169.10-64.67 169.51-63.86 170.26-63.58C170.45-63.50 170.63-63.47 170.82-63.47C171.39-63.47 171.94-63.79 172.21-64.33C177.30-74.54 183.82-83.95 191.59-92.30C193.34-94.18 194.87-95.31 196.23-95.69C193.99-91.17 190.34-87.28 185.96-84.80C185.12-84.32 183.97-83.67 183.54-82.32C183.19-81.18 183.55-80.13 183.90-79.33C184.80-77.31 189.71-69.84 197.67-70.33C203.15-70.68 206.60-74.71 209.11-77.65C211.68-80.66 213.53-84.17 214.60-88.10C214.83-88.92 214.34-89.78 213.51-90.01ZM185.99-114.72C189.93-129.17 194.00-144.10 201.47-157.32C202.51-159.16 203.70-160.95 205.35-161.48C205.69-161.59 206.02-161.63 206.34-161.63C207.09-161.63 207.76-161.38 208.25-161.11C209.65-160.36 210.79-158.92 211.22-157.36C212.06-154.35 211.08-150.94 210.09-147.98C204.21-130.24 194.53-113.74 181.95-99.92ZM218.15-62.60C220.63-62.71 223.09-65.29 224.73-67.24C226.60-69.45 228.18-72.20 229.57-75.64C229.69-75.95 229.81-76.26 229.93-76.57C230.07-75.21 230.28-73.85 230.69-72.50C230.94-71.68 231.39-70.47 232.36-69.58C235.23-66.96 239.75-68.76 241.67-69.52C249.57-72.66 253.20-81.81 254.65-86.99C254.89-87.82 254.41-88.68 253.58-88.91C252.75-89.14 251.89-88.66 251.66-87.83C250.61-84.11 247.43-75.16 240.52-72.42C239.14-71.87 235.89-70.58 234.47-71.88C234.06-72.25 233.82-72.93 233.67-73.41C233.04-75.49 232.94-77.83 232.83-80.08L232.80-80.77C232.68-83.40 232.81-86.08 232.95-88.61C233.00-89.43 232.40-90.14 231.58-90.24C230.76-90.34 230.01-89.79 229.86-88.98L229.58-87.41C229.32-85.92 229.05-84.38 228.67-82.93C228.08-80.67 227.43-78.67 226.68-76.81C225.42-73.67 224.00-71.20 222.35-69.24C219.66-66.05 218.40-65.71 217.98-65.71C217.88-65.71 217.77-65.69 217.67-65.67C215.80-65.30 213.72-65.78 212.51-66.87C210.78-68.42 210.76-71.18 210.94-75.55C211.05-78.21 211.58-82.48 213.50-87.73C213.80-88.53 213.39-89.43 212.58-89.72C211.77-90.02 210.87-89.60 210.58-88.80C208.52-83.18 207.94-78.56 207.82-75.67C207.65-71.31 207.48-67.19 210.43-64.55C211.94-63.19 214.15-62.43 216.39-62.43C216.98-62.43 217.57-62.49 218.15-62.60ZM294.36-89.86C293.59-90.25 292.65-89.95 292.26-89.19C280.66-66.78 276.15-65.99 275.05-66.26C274.22-66.48 272.97-67.72 271.70-72.41C270.23-77.83 270.62-83.66 272.78-88.83C273.02-89.41 272.89-90.08 272.45-90.53C272.01-90.98 271.34-91.11 270.76-90.88C265.91-88.93 258.94-85.03 253.22-77.56C252.47-76.59 251.79-75.61 251.17-74.63C252.61-80.59 254.45-86.46 256.66-92.19C256.97-92.99 256.58-93.89 255.77-94.20C254.97-94.52 254.07-94.11 253.76-93.31C249.49-82.29 246.60-70.74 245.19-59.00C245.09-58.16 245.68-57.39 246.52-57.27C246.59-57.26 246.67-57.26 246.74-57.26C247.49-57.26 248.15-57.80 248.27-58.56C249.00-62.89 250.88-69.38 255.69-75.67C259.82-81.05 264.65-84.43 268.70-86.51C267.39-81.66 267.37-76.48 268.69-71.60C269.63-68.14 271.11-64.07 274.27-63.25C277.57-62.39 282.93-64.39 295.02-87.76C295.42-88.52 295.12-89.46 294.36-89.86ZM537.69-90.91C536.89-91.23 535.98-90.84 535.66-90.05C522.24-56.76 507.03-19.04 476.92 4.98C458.86 19.38 430.01 28.64 409.30 14.96C391.34 3.08 386.98-20.74 385.98-33.88C383.38-68.01 393.89-101.68 403.33-127.20C418.62-168.50 435.58-198.01 456.72-220.04C466.47-230.20 475.27-236.56 484.41-240.04C495.92-244.42 508.07-243.77 516.90-238.31C526.65-232.28 531.51-219.55 527.72-209.94C527.41-209.14 527.80-208.23 528.60-207.92C529.40-207.60 530.31-207.99 530.62-208.80C535.01-219.93 529.70-234.05 518.54-240.96C508.88-246.92 495.71-247.67 483.31-242.95C473.71-239.30 464.55-232.71 454.47-222.20C426.30-192.83 410.12-154.53 400.41-128.28C390.86-102.47 380.22-68.38 382.87-33.65C383.92-19.93 388.52 4.95 407.58 17.55C415.38 22.71 424.12 24.91 433.01 24.91C449.34 24.91 466.21 17.51 478.86 7.42C509.61-17.11 524.99-55.24 538.55-88.88C538.87-89.68 538.49-90.58 537.69-90.91ZM544.55-68.01C546.34-68.01 547.78-69.46 547.78-71.24C547.78-73.03 546.34-74.48 544.55-74.48C542.77-74.48 541.32-73.03 541.32-71.24C541.32-69.46 542.77-68.01 544.55-68.01Z" fill="#000000"/>
  </g>
</svg>