<svg width="1497" height="552" viewBox="0 0 1497 552" xmlns="http://www.w3.org/2000/svg">
  <g transform="translate(13.42173685925453, 358.8)">
    <path d="M277.57-155.17C261.54-193.32 234.69-220.87 196.87-237.75C170.92-249.35 143.91-253.52 115.92-248.22C75.79-240.61 45.46-218.62 24.85-183.48C11.25-160.30 3.61-135.04 0.10-108.44C-3.24-83.16-1.27-58.53 7.81-34.56C12.70-21.69 18.46-9.30 26.92 1.63C28.92 4.24 29.48 6.70 29.22 9.84C27.88 26.31 28.45 42.70 31.72 58.93C35.20 76.21 41.27 92.45 51.63 106.85C63.10 122.77 78.25 133.23 97.72 136.82C112.68 139.57 127.22 137.32 141.44 132.35C156.40 127.12 169.78 119.03 182.32 109.46C199.66 96.23 214.73 80.72 228.11 63.56C248.74 37.11 266.12 8.74 278.61-22.49C286.82-43.03 291.85-64.23 291.72-86.49C291.58-110.32 286.80-133.21 277.57-155.17ZM41.97 16.96C44.69 18.72 47.35 20.58 50.15 22.19C53.36 24.05 56.14 23.65 57.86 21.36C59.62 19.02 59.09 15.98 56.21 13.47C52.09 9.87 47.93 6.28 43.61 2.92C40.94 0.84 40.16-1.48 40.73-4.81C45.04-29.86 51.78-54.14 63.68-76.73C66.74-82.54 70.60-87.94 74.33-93.37C75.69-95.35 77.74-96.84 79.61-98.70C80.48-97.56 80.97-96.85 81.52-96.20C83.90-93.43 87.16-92.58 90.25-93.88C93.38-95.20 95.23-98.53 94.80-102.10C94.49-104.70 93.24-106.80 91.36-108.56C87.05-112.58 80.39-113.47 75.07-110.21C72.26-108.49 69.66-106.18 67.47-103.70C61.05-96.46 56.68-87.89 52.53-79.23C42.83-58.99 36.72-37.61 32.49-15.65C32.33-14.79 32.19-13.93 31.99-13.09C31.90-12.74 31.67-12.42 31.34-11.75C30.57-12.77 29.86-13.57 29.31-14.48C18.82-31.70 11.70-50.22 8.72-70.16C6.68-83.78 7.32-97.49 9.23-111.12C12.76-136.32 20.32-160.20 33.65-181.95C52.97-213.45 80.84-233.16 117.24-240.02C143.88-245.04 169.51-240.94 194.12-229.75C231.65-212.69 257.33-184.65 271.81-146.17C278.71-127.82 282.51-108.88 282.89-89.26C283.28-68.66 279.17-48.94 271.83-29.78C260.18 0.59 243.57 28.12 223.96 53.92C209.49 72.96 193.12 90.13 173.75 104.29C161.72 113.09 148.89 120.39 134.55 124.79C122.33 128.54 109.91 129.90 97.32 127.12C80.39 123.39 67.59 113.60 58.03 99.41C48.84 85.75 43.58 70.52 40.71 54.42C38.60 42.60 38.05 30.67 38.51 18.69C38.55 17.61 38.74 16.55 38.91 14.96C40.19 15.80 41.07 16.39 41.97 16.96ZM409.27-93.24C408.77-96.34 406.11-98.78 402.66-98.69C400.48-98.63 398.16-98.16 396.17-97.28C387.72-93.55 379.65-89.14 372.54-83.15C359.48-72.16 349.44-58.78 341.86-43.58C338.32-36.49 335.54-29.01 332.25-21.30C332.16-22.03 332.05-22.52 332.06-23.00C332.19-31.46 332.30-39.92 332.51-48.38C332.55-49.71 333.17-51.02 333.37-52.35C333.63-54.04 334.24-55.89 333.80-57.42C332.88-60.64 333.00-63.82 333.18-67.05C333.54-73.26 334.08-79.47 334.28-85.68C334.43-90.55 332.05-93.47 328.28-93.65C324.49-93.83 321.98-91.11 321.51-86.32C321.07-81.86 320.63-77.40 320.18-72.94C319.67-67.87 318.98-62.80 318.71-57.71C318.60-55.70 319.07-53.47 319.92-51.64C320.69-49.98 321.04-48.43 321.02-46.66C320.97-38.70 320.68-30.72 321.02-22.77C321.34-15.33 322.20-7.90 323.14-0.50C323.46 2.03 324.56 4.52 325.65 6.88C326.82 9.42 328.95 10.99 331.91 10.71C334.70 10.44 336.38 8.63 337.20 6.07C337.84 4.06 338.26 1.98 338.80-0.06C340.80-7.76 342.41-15.60 344.90-23.14C351.24-42.39 361.52-59.33 376.60-73.00C384.27-79.96 392.46-86.27 403.78-86.24C407.58-86.24 409.85-89.67 409.27-93.24ZM579.86-65.23C578.99-67.91 576.45-69.23 572.88-68.85C572.38-68.80 571.89-68.71 571.40-68.60C567.41-67.64 563.31-66.99 559.46-65.64C550.06-62.35 540.62-59.09 531.48-55.18C504.01-43.44 476.66-31.39 449.27-19.46C447.24-18.58 445.22-17.70 442.98-16.72C442.82-17.58 442.66-18.04 442.66-18.50C442.75-26.73 442.79-34.95 443.05-43.16C443.10-44.63 443.89-46.29 444.81-47.49C452.68-57.67 461.35-67.14 471.29-75.32C475.58-78.86 480.42-81.77 485.10-84.83C486.28-85.61 487.79-85.91 489.18-86.44C489.66-85.77 489.95-85.38 490.21-84.98C490.56-84.46 490.83-83.89 491.23-83.41C493.33-80.89 495.99-79.85 499.22-80.66C502.32-81.45 504.49-84.10 504.87-87.38C505.43-92.38 501.98-97.40 496.60-99.41C492.26-101.03 488.03-100.40 483.87-98.68C478.18-96.32 473.15-92.88 468.37-89.05C460.48-82.72 453.29-75.64 446.60-68.07C445.83-67.19 444.96-66.41 443.54-64.99C443.54-67.58 443.49-69.28 443.54-70.98C444.23-94.27 444.90-117.55 445.62-140.84C445.88-149.43 446.25-158.01 446.57-166.60C446.63-168.24 446.63-169.70 448.60-170.56C452.12-172.08 453.20-175.10 453.15-178.80C453.11-181.39 453.31-184.03 453.77-186.58C455.59-196.76 457.69-206.88 459.42-217.07C460.72-224.70 461.38-232.43 459.81-240.11C459.32-242.49 458.53-245.01 457.18-246.98C454.61-250.72 449.57-250.31 447.26-246.40C446.57-245.24 446.02-243.92 445.74-242.60C444.19-235.31 442.34-228.04 441.32-220.67C438.53-200.53 437.55-180.24 436.95-159.95C435.95-125.58 435.26-91.20 434.52-56.83C434.47-54.34 433.84-52.32 432.35-50.31C424.78-40.08 418.04-29.32 412.38-17.91C411.23-15.59 410.25-13.10 409.68-10.58C407.98-3.01 412.60 2.29 420.36 1.52C423.79 1.18 427.15 0.06 430.54-0.70C431.46-0.90 432.38-1.10 433.62-1.37C433.62 0.45 433.63 1.94 433.62 3.42C433.41 26.59 433.11 49.77 434.66 72.91C435.26 81.84 436.49 90.73 437.56 99.63C437.80 101.57 438.45 103.54 439.26 105.33C440.46 108.00 442.60 109.64 445.68 109.68C448.77 109.71 450.85 108.08 452.23 105.49C452.81 104.40 453.24 103.20 453.55 102.01C454.93 96.84 453.36 94.35 448.08 93.21C447.87 93.16 447.69 92.93 447.00 92.41C446.14 85.32 445.03 77.81 444.36 70.26C442.22 46.03 442.15 21.74 442.39-2.56C442.41-4.57 443.02-5.72 444.95-6.51C449.21-8.26 453.36-10.26 457.56-12.16C494.68-28.94 532.19-44.71 571.27-56.46C572.93-56.96 574.57-57.61 576.13-58.38C579.36-59.97 580.72-62.57 579.86-65.23ZM433.72-12.74C429.61-11.44 425.55-10.16 420.76-8.64C421.42-12.29 423.03-14.58 424.34-16.98C425.71-19.47 427.14-21.94 428.62-24.37C430.07-26.73 431.61-29.04 433.11-31.37C433.31-31.29 433.52-31.21 433.72-31.12C433.72-25.15 433.72-19.17 433.72-12.74ZM742.04-69.11C738.99-69.98 735.74-68.70 733.89-65.32C732.53-62.84 731.69-60.06 730.83-57.35C729.52-53.20 728.73-48.86 727.13-44.85C715.89-16.73 713.87-7.39 699.49 19.26C695.24 27.14 690.39 34.70 685.55 42.24C683.69 45.14 681.29 47.77 678.83 50.21C674.74 54.25 671.97 54.22 668.08 49.92C666.03 47.65 664.29 44.95 663.01 42.17C661.40 38.69 660.16 34.99 659.20 31.27C655.06 15.30 653.45-1.08 651.69-17.42C649.57-37.10 647.59-56.80 645.47-76.48C645.20-78.94 644.73-81.46 643.81-83.73C641.94-88.29 636.75-89.02 633.53-85.26C632.33-83.87 631.41-82.18 630.61-80.51C625.40-69.62 620.28-58.67 615.07-47.78C613.09-43.63 611.01-39.51 608.82-35.47C608.05-34.05 606.79-32.90 605.42-31.23C604.07-34.75 603.69-37.70 603.81-40.66C604.13-48.74 604.61-56.81 605.06-64.89C605.21-67.52 605.93-69.93 607.35-72.27C609.60-76.02 608.14-80.57 604.44-82.55C600.64-84.59 595.84-83.14 593.94-79.17C593.21-77.64 592.77-75.84 592.71-74.14C592.30-63.57 591.95-52.99 591.78-42.42C591.73-39.32 592.02-36.16 592.70-33.15C593.38-30.16 594.33-27.07 595.90-24.48C599.31-18.84 605.74-17.51 611.09-21.38C613.75-23.30 616.07-25.92 617.97-28.62C620.10-31.65 621.71-35.08 623.31-38.44C626.85-45.86 630.24-53.35 633.70-60.80C634.21-61.88 634.83-62.91 635.73-64.57C636.10-62.94 636.41-62.02 636.51-61.08C637.60-50.55 638.71-40.03 639.72-29.49C641.46-11.27 643.06 6.97 646.53 24.97C648.20 33.67 650.29 42.25 654.54 50.14C656.87 54.47 659.78 58.31 663.87 61.15C670.49 65.74 677.52 65.79 683.96 60.94C686.62 58.93 689.03 56.52 691.23 54.00C698.73 45.40 704.38 35.56 709.79 25.59C726.32-4.85 730.35-18.06 743.83-49.96C745.36-53.56 746.15-57.58 746.66-61.49C747.17-65.37 745.06-68.26 742.04-69.11ZM925.38-75.22C923.19-77.49 919.67-77.82 916.46-75.74C914.70-74.61 913.09-73.16 911.66-71.63C900.54-59.67 888.76-48.39 876.63-37.47C870.05-31.55 863.37-25.76 855.74-21.19C850.67-18.15 845.38-15.77 839.37-15.33C830.23-14.66 822.30-18.96 818.37-27.23C816.67-30.80 815.28-34.60 814.35-38.45C811.93-48.49 809.93-58.63 807.58-68.68C806.76-72.18 805.79-75.73 804.20-78.92C801.60-84.16 796.35-85.74 791.26-82.87C788.26-81.18 785.40-79.00 782.99-76.55C779.17-72.65 775.58-68.47 772.22-64.16C762.99-52.34 755.40-39.48 748.32-26.29C747.71-25.16 747.05-24.04 746.41-22.92C745.70-23.61 745.60-24.05 745.62-24.49C746.10-33.94 746.62-43.40 747.05-52.85C747.13-54.56 747.81-55.54 749.36-56.26C751.65-57.33 753.09-59.32 753.39-61.78C754.07-67.29 752.47-72.25 748.41-76.03C744.45-79.71 738.50-78.23 736.36-73.22C735.68-71.65 735.30-69.89 735.12-68.17C734.72-64.46 734.43-60.73 734.30-57.00C733.88-45.05 733.49-33.10 733.21-21.15C733.12-17.54 733.23-13.91 733.55-10.33C733.75-8.13 734.33-5.91 735.07-3.82C736.07-0.98 737.88 1.20 741.12 1.62C744.50 2.07 746.88 0.37 748.66-2.25C749.91-4.10 750.94-6.10 752.01-8.07C756.92-17.16 761.65-26.36 766.76-35.34C772.86-46.07 779.92-56.19 788.15-65.43C790.03-67.54 792.18-69.41 794.89-72.07C795.54-69.61 795.98-68.22 796.27-66.79C797.55-60.57 798.71-54.32 800.06-48.12C801.97-39.36 803.96-30.62 807.71-22.40C813.11-10.57 822.70-4.84 835.29-3.68C843.91-2.88 851.75-5.52 859.21-9.63C869.57-15.33 878.25-23.20 886.97-31.00C898.76-41.55 910.50-52.14 922.24-62.74C923.34-63.73 924.43-64.79 925.31-65.99C927.72-69.25 927.69-72.84 925.38-75.22ZM1081.30 31.38C1082.99 50.44 1086.91 69.04 1093.73 86.98C1100.47 104.73 1109.45 121.17 1122.89 134.80C1138.66 150.81 1157.71 159.39 1180.41 159.01C1192.63 158.82 1204.32 155.88 1215.64 151.42C1231.95 145.00 1246.99 136.23 1261.54 126.56C1282.15 112.85 1300.79 96.73 1318.74 79.77C1338.04 61.54 1356.92 42.92 1373.50 22.10C1388.15 3.68 1403.18-14.44 1416.81-33.67C1421.99-40.97 1427.69-47.93 1434.44-53.93C1435.18-54.58 1435.85-55.35 1436.41-56.16C1438.15-58.69 1438.73-61.41 1437.25-64.25C1436.24-66.20 1434.43-67.14 1432.29-66.96C1429.11-66.69 1427.26-64.64 1425.98-61.83C1425.17-60.06 1424.15-58.33 1422.96-56.79C1416.74-48.69 1410.35-40.73 1404.17-32.60C1395.36-20.99 1386.89-9.13 1377.90 2.33C1369.14 13.50 1360.25 24.61 1350.82 35.21C1335.83 52.07 1319.49 67.62 1302.88 82.88C1282.45 101.65 1260.67 118.60 1236.41 132.20C1224.11 139.10 1211.43 145.14 1197.60 148.40C1172.93 154.23 1150.93 149.12 1131.93 132.13C1123.38 124.49 1116.83 115.26 1111.27 105.31C1098.53 82.52 1092.28 57.79 1089.60 32.03C1087.04 7.39 1087.87-17.24 1090.49-41.82C1093.15-66.76 1098.23-91.24 1105.21-115.34C1115.34-150.37 1129.74-183.48 1149.59-214.13C1156.45-224.72 1164.11-234.69 1173.64-243.08C1177.86-246.81 1182.40-250.07 1187.59-252.35C1194.90-255.56 1201.86-255.01 1208.43-250.29C1211.92-247.78 1215.03-244.85 1216.98-241.04C1219.30-236.52 1221.58-231.90 1223.11-227.07C1227.22-214.12 1227.43-200.78 1225.25-187.50C1221.36-163.96 1215.01-141.08 1205.81-119.03C1204.43-115.70 1203.08-112.46 1200.17-109.95C1197.83-107.95 1197.43-104.99 1198.62-102.03C1199.75-99.23 1201.95-97.68 1204.92-97.46C1208.04-97.24 1210.48-98.62 1212.09-101.31C1212.59-102.15 1212.89-103.13 1213.20-104.07C1213.85-105.95 1214.39-107.87 1215.07-109.74C1222.90-131.32 1229.16-153.32 1233.44-175.88C1236.27-190.81 1237.42-205.76 1234.49-220.80C1232.64-230.29 1229.58-239.35 1223.95-247.33C1222.23-249.75 1220.28-252.07 1218.13-254.11C1207.54-264.15 1195.07-265.97 1181.99-259.49C1174.53-255.79 1168.25-250.51 1162.47-244.61C1154.06-236.02 1146.99-226.39 1140.61-216.24C1121.46-185.78 1107.36-153.07 1097.34-118.55C1086.13-79.92 1080.05-40.56 1079.42-0.29C1080.03 10.27 1080.37 20.86 1081.30 31.38ZM1460.64-23.63C1455.41-23.61 1451.92-19.53 1452.00-13.55C1452.08-7.89 1456.50-3.52 1462.00-3.67C1467.17-3.80 1471.48-8.47 1471.41-13.85C1471.34-19.08 1466.31-23.66 1460.64-23.63Z" fill="#000000"/>
  </g>
</svg>