<svg width="1401" height="853" viewBox="0 0 1401 853" xmlns="http://www.w3.org/2000/svg">
  <g transform="translate(6.125639734944913, 554.45)">
    <path d="M180.90-372.06C169.02-385.56 157.68-390.96 139.86-391.50C93.96-394.20 62.64-374.22 36.72-326.16C27-307.26 14.58-272.16 10.80-250.56C5.94-224.10 4.32-179.82 7.56-162C8.10-159.30 8.64-155.52 9.18-153.90C10.80-144.18 16.20-125.82 19.44-118.26C28.08-98.82 45.36-78.30 61.02-69.12C68.04-65.34 69.12-63.72 69.66-58.86C73.44-18.90 79.38 11.34 86.94 32.40C92.88 48.60 97.20 55.62 105.30 61.56L105.30 61.56C110.70 65.34 112.86 65.88 123.66 65.88C139.32 65.88 144.72 63.72 154.98 51.84C174.96 29.70 192.24-20.52 204.12-90.18C226.80-227.34 218.16-331.56 180.90-372.06ZM23.22-185.76C22.68-183.06 22.68-185.76 22.68-192.24C22.68-198.72 22.68-200.88 23.22-197.64L23.22-197.64C23.22-194.40 23.22-189 23.22-185.76ZM23.76-224.10C23.76-226.26 24.30-226.80 24.84-225.18L24.84-225.18C25.38-224.10 25.38-222.48 24.84-221.94C24.30-221.40 23.76-222.48 23.76-224.10ZM24.84-158.22C24.30-156.60 23.76-158.76 23.76-162C23.76-165.78 24.30-166.86 24.84-165.24L24.84-165.24C25.38-163.08 25.38-159.84 24.84-158.22ZM26.46-147.42C25.92-146.34 25.38-147.96 25.38-150.66C25.38-153.36 25.92-154.44 26.46-152.82L26.46-152.82C27-151.20 27-148.50 26.46-147.42ZM28.08-139.86C27.54-139.32 27-140.40 27-142.02C27-144.18 27.54-144.72 28.08-143.10L28.08-143.10C28.62-142.02 28.62-140.40 28.08-139.86ZM29.70-133.38C29.16-132.84 28.62-133.92 28.62-135.54C28.62-137.70 29.16-137.70 29.70-136.62L29.70-136.62C30.24-135.54 30.24-133.92 29.70-133.38ZM72.90-84.78C72.36-84.24 71.82-85.32 72.36-86.94C72.36-89.10 72.36-89.64 72.90-88.02L72.90-88.02C73.44-86.94 73.44-85.32 72.90-84.78ZM72.90-165.78C72.36-164.70 72.36-166.32 72.36-169.02C72.36-171.72 72.90-172.80 72.90-170.64L72.90-170.64C73.44-169.02 73.44-166.86 72.90-165.78ZM72.90-95.58C72.90-93.42 72.36-95.58 72.36-100.44C72.36-104.76 72.90-106.38 73.44-104.22L73.44-104.22C73.44-101.52 73.44-97.74 72.90-95.58ZM73.44-207.90C73.44-213.84 74.52-214.92 75.60-210.06L75.60-210.06C76.14-208.44 76.14-205.74 75.06-204.66C73.98-203.04 73.44-204.12 73.44-207.90ZM76.14-191.70C75.60-191.16 75.60-192.24 75.60-193.86C75.60-196.02 76.14-196.56 76.68-194.94L76.68-194.94C77.22-193.86 76.68-192.24 76.14-191.70ZM79.38-248.40C78.84-247.32 78.30-246.78 77.76-246.78C77.22-246.78 77.22-247.32 77.22-248.40C77.22-248.94 77.76-250.02 78.84-250.02C79.92-250.02 79.92-248.94 79.38-248.40ZM80.46-152.28C80.46-154.44 81-154.44 81.54-153.36L81.54-153.36C82.08-152.28 82.08-150.66 81.54-150.12C81-149.58 80.46-150.66 80.46-152.28ZM80.46-158.76C80.46-160.92 81-161.46 81.54-159.84L81.54-159.84C82.08-158.76 82.08-157.14 81.54-156.60C81-156.06 80.46-157.14 80.46-158.76ZM81.54-115.56C81-111.78 81-115.02 81-123.12C81-130.68 81-133.92 81.54-130.14C82.08-125.82 82.08-119.88 81.54-115.56ZM84.78-49.68C84.24-49.14 83.70-50.22 83.70-51.84C83.70-54 84.24-54.54 84.78-52.92L84.78-52.92C85.32-51.84 85.32-50.22 84.78-49.68ZM88.02-90.18C87.48-89.64 86.94-90.18 87.48-91.80C87.48-93.96 87.48-94.50 88.02-92.88L88.02-92.88C88.56-91.80 88.56-90.72 88.02-90.18ZM88.56-101.52C88.02-98.28 87.48-101.52 87.48-108.54C87.48-116.10 88.02-118.80 88.56-115.02L88.56-115.02C88.56-111.24 88.56-104.76 88.56-101.52ZM88.02-158.22C88.02-177.66 88.02-185.76 88.56-176.04L88.56-176.04C88.56-165.78 88.56-150.12 88.56-139.86C88.02-130.14 88.02-138.24 88.02-158.22ZM89.64-68.04C89.10-67.50 88.56-68.58 89.10-70.20C89.10-72.36 89.10-72.90 89.64-71.28L89.64-71.28C90.18-70.20 90.18-68.58 89.64-68.04ZM90.18-77.22C89.64-75.06 89.10-77.22 89.10-81C89.10-85.32 89.64-86.94 90.18-84.78C90.18-82.62 90.18-79.38 90.18-77.22ZM90.18-206.82C89.64-203.58 89.10-206.28 89.10-213.30C89.10-220.32 89.64-223.02 90.18-219.24L90.18-219.24C90.18-216 90.18-210.60 90.18-206.82ZM91.80-49.14C91.26-46.98 90.72-49.14 90.72-53.46C90.72-58.32 91.26-59.94 91.80-57.24L91.80-57.24C91.80-54.54 91.80-50.76 91.80-49.14ZM90.72-243.00C90.72-247.32 91.26-248.94 91.80-246.78C91.80-245.16 91.80-241.38 91.80-239.22C91.26-237.60 90.72-239.22 90.72-243.00ZM93.42-259.74C92.88-258.66 92.34-259.20 92.34-261.36C92.34-264.06 92.88-264.60 93.42-263.52L93.42-263.52C93.42-262.44 93.42-260.82 93.42-259.74ZM93.42-35.64C92.88-34.56 92.34-35.10 92.34-37.80C92.34-39.96 92.88-41.04 93.42-39.96L93.42-39.96C93.42-38.34 93.42-36.72 93.42-35.64ZM95.04-22.14C94.50-21.06 93.96-22.14 93.96-24.30C93.96-26.46 94.50-27.54 95.04-26.46C95.58-25.38 95.58-23.22 95.04-22.14ZM183.60-118.80C179.28-85.32 177.12-71.28 174.96-62.64C174.42-62.10 173.88-58.86 173.34-55.08C172.26-51.30 170.10-41.58 167.94-32.40C165.78-23.76 163.08-14.58 162.54-11.88C157.68 6.48 145.80 33.48 136.08 46.44L136.08 46.44C132.84 50.76 129.60 54 129.06 54C126.36 54 119.34 41.04 115.56 29.70C107.46 7.02 98.82-38.88 98.82-56.70C98.82-62.64 99.36-63.72 105.30-66.42C112.86-70.20 118.26-73.98 116.64-75.60C116.10-76.14 111.78-74.52 107.46-71.82C102.60-69.12 98.28-67.50 97.74-68.04C96.12-70.20 96.12-195.48 97.74-237.60L99.36-271.62L91.80-271.08C82.62-270 78.84-268.92 77.76-267.84C76.68-266.76 73.98-251.64 71.82-233.28C69.12-204.66 68.04-172.80 68.04-123.66L68.04-77.22L59.40-86.94C42.66-105.30 33.48-131.76 30.24-169.56C27.54-208.44 32.94-253.80 44.28-287.82C62.64-341.28 92.34-375.84 126.36-382.32C131.76-382.86 137.70-383.40 139.86-382.86C144.72-381.78 159.84-368.28 165.24-359.64C170.64-351.54 179.28-330.48 183.06-315.90C194.40-272.16 194.94-201.96 183.60-118.80ZM193.32-164.16C192.78-163.08 192.78-164.16 192.78-166.32C192.78-168.48 192.78-169.56 193.32-168.48C193.86-167.40 193.86-165.24 193.32-164.16ZM194.94-262.98C194.94-261.90 194.40-262.98 194.40-265.68C194.40-268.38 194.94-269.46 195.48-267.84L195.48-267.84C195.48-266.22 195.48-264.06 194.94-262.98ZM198.72-207.90C198.18-206.28 197.64-207.90 197.64-210.60C197.64-213.30 198.18-214.38 198.72-212.76L198.72-212.76C199.26-211.14 198.72-208.98 198.72-207.90ZM201.96-277.02C201.42-276.48 200.88-277.56 200.88-279.18C200.88-281.34 201.42-281.88 201.96-280.26L201.96-280.26C202.50-279.18 202.50-277.56 201.96-277.02ZM203.58-258.12C203.04-256.50 202.50-257.58 202.50-259.74C202.50-262.44 203.04-262.98 203.58-261.90C204.12-260.82 204.12-259.20 203.58-258.12ZM206.82-281.34C206.28-280.26 205.74-281.34 206.28-284.04C206.28-286.74 206.28-287.82 206.82-286.20L206.82-286.20C207.36-284.58 207.36-282.42 206.82-281.34ZM208.44-180.36C207.90-178.74 207.90-180.36 207.90-184.14C207.90-187.38 207.90-189 208.44-186.84L208.44-186.84C208.98-184.68 208.98-181.98 208.44-180.36ZM208.44-263.52C208.44-261.36 207.90-262.98 207.90-268.38C207.90-273.24 208.44-275.40 208.44-272.70C208.98-270.54 208.98-266.22 208.44-263.52ZM209.52-228.96C209.52-244.62 210.06-251.10 210.06-243.54L210.06-243.54C210.60-235.98 210.60-223.56 210.06-215.46C210.06-207.36 209.52-213.30 209.52-228.96ZM242.46-49.68C243-49.14 245.70-48.60 248.40-49.14C254.34-49.14 254.88-52.38 254.88-88.02C255.42-122.58 256.50-131.22 266.22-151.74C275.40-171.72 298.08-192.24 320.22-200.34C333.18-205.20 330.48-207.36 315.90-204.66C301.86-201.42 277.56-189 266.76-179.28L258.12-171.72L258.66-194.94L259.20-218.16L250.56-218.16C239.76-218.70 239.22-218.16 237.60-198.72C235.98-178.74 234.90-166.86 234.36-159.30C233.82-156.06 232.74-130.14 232.20-102.60L231.12-51.84L234.90-51.30C240.30-51.30 241.38-50.76 242.46-49.68ZM249.48-115.56C250.02-114.48 250.02-112.86 249.48-112.32C248.94-111.78 248.40-112.86 248.40-114.48C248.94-116.64 248.94-117.18 249.48-115.56ZM238.68-146.88C239.22-145.26 239.22-143.10 238.14-142.56C237.60-142.02 236.52-143.64 236.52-146.34C236.52-151.20 237.60-151.74 238.68-146.88ZM251.10-165.78C251.64-164.70 251.64-163.08 251.10-162.54C250.56-162 250.02-163.08 250.02-164.70C250.56-166.86 250.56-166.86 251.10-165.78ZM239.76-173.88C240.30-172.80 239.76-171.72 239.22-170.64C238.68-170.10 238.68-171.18 238.68-173.34C238.68-174.96 239.22-175.50 239.76-173.88ZM252.72-185.76C253.26-184.68 253.26-183.06 252.72-181.98C252.72-180.36 252.18-181.44 252.18-183.60C252.18-186.30 252.72-186.84 252.72-185.76ZM241.38-196.02C241.92-194.40 241.92-193.32 240.84-192.78C240.30-192.24 240.30-192.78 240.30-194.94C240.30-196.56 240.84-197.10 241.38-196.02ZM254.88-208.44C254.88-206.82 254.88-204.12 254.88-202.50C254.34-200.88 253.80-202.50 253.80-205.74C253.80-208.98 254.34-210.06 254.88-208.44ZM568.62-171.72C566.46-172.26 560.52-172.26 561.06-171.72C561.60-171.18 561.06-170.10 559.98-169.02C558.90-167.94 547.56-152.28 535.14-133.92C515.70-104.22 496.26-76.68 493.56-74.52C493.02-73.98 490.86-70.74 488.16-66.96C473.58-48.06 454.14-31.32 442.26-27.54C437.94-26.46 435.78-27 429.30-31.32C413.64-41.58 401.76-63.72 392.04-102.06C388.26-115.56 384.48-128.52 384.48-129.60C383.40-131.76 384.48-132.84 391.50-133.38C424.44-138.24 500.58-201.96 500.58-225.18C500.58-233.28 496.80-234.90 482.22-235.98C468.18-237.06 458.46-233.28 435.24-219.24C412.02-204.66 375.84-172.26 362.88-153.90C361.26-151.74 359.64-151.20 359.10-151.74C358.02-152.28 358.56-152.82 359.64-152.82C360.72-152.82 361.80-153.90 361.80-154.44C361.80-157.14 359.10-156.60 355.86-153.90C351.54-149.58 352.62-152.28 359.10-162.54C367.20-176.04 396.90-236.52 408.78-262.44C432.54-316.44 440.64-354.78 430.38-366.66C427.14-370.98 409.86-374.76 403.38-373.14C398.52-372.06 385.02-359.10 385.02-355.86C385.02-354.24 384.48-353.70 383.40-353.70C381.24-353.70 366.66-320.22 359.10-297.54C355.86-287.28 345.60-249.48 344.52-241.38C343.98-238.14 342.90-233.82 342.36-231.66C340.20-222.48 338.04-208.44 337.50-203.04C336.96-199.80 336.42-196.02 335.88-193.86C335.34-192.24 334.80-185.22 334.26-178.74C333.18-172.26 332.64-166.32 332.10-164.70C332.10-163.08 331.56-156.60 330.48-149.58C329.94-142.56 328.86-135.54 328.86-133.92C326.70-124.20 326.70-50.76 328.86-33.48C333.18-0.54 336.96 21.06 338.58 21.06C339.66 21.06 339.66 22.14 339.12 23.22C338.58 24.84 339.66 26.46 341.28 27.54L341.28 27.54C342.90 28.08 344.52 29.16 345.06 29.16C345.60 29.16 345.60 21.06 345.06 11.34C345.06 1.08 346.14-30.24 347.76-59.40L350.46-111.78L356.94-121.50C360.72-126.90 364.50-131.22 365.04-131.22C365.58-131.22 370.44-111.78 372.60-99.36C376.38-76.14 388.26-49.14 399.60-37.80C412.02-25.92 434.70-15.66 449.82-15.66C467.64-16.20 485.46-28.08 501.12-50.22C517.32-73.44 571.32-170.64 568.62-171.72ZM409.32-318.60C408.78-319.68 408.24-320.76 408.78-321.30C409.32-321.30 410.40-320.76 410.94-319.14L410.94-319.14C412.02-316.44 410.94-315.90 409.32-318.60ZM424.98-331.02C425.52-333.18 425.52-333.72 426.06-332.10L426.06-332.10C426.60-331.02 426.60-329.40 426.06-328.86C425.52-328.32 424.98-329.40 424.98-331.02ZM423.36-324.54C423.90-326.16 423.90-326.70 424.44-325.62L424.44-325.62C424.98-324 424.98-322.92 424.44-322.38C423.90-321.84 423.36-322.92 423.36-324.54ZM421.74-317.52C422.82-319.68 423.36-320.22 423.36-318.60C423.36-316.98 422.28-314.28 421.74-312.66C420.66-310.50 420.12-309.96 420.12-311.58C420.12-313.20 421.20-315.90 421.74-317.52ZM415.26-296.46C415.80-298.08 416.88-298.62 416.88-297.54L416.88-297.54C416.88-296.46 415.80-294.84 415.26-293.22C414.18-292.14 413.64-291.60 413.64-292.68C413.64-293.22 414.18-295.38 415.26-296.46ZM381.78-316.98C382.86-318.06 383.40-318.60 383.40-317.52L383.40-317.52C383.40-316.44 382.86-314.82 381.78-313.20C380.70-312.12 380.16-311.58 380.16-312.66C380.16-313.20 380.70-315.36 381.78-316.98ZM374.22-297C374.76-298.62 375.84-299.70 376.38-299.16L376.38-299.16C376.92-298.62 376.38-297.54 375.30-296.46C373.68-294.84 373.14-294.84 374.22-297ZM369.90-282.42C370.44-284.58 370.44-285.12 370.98-283.50L370.98-283.50C371.52-282.42 371.52-280.80 370.98-280.26C370.44-279.72 369.90-280.80 369.90-282.42ZM365.04-264.06C365.04-266.22 365.58-266.76 366.12-265.14L366.12-265.14C366.66-264.06 366.66-262.44 366.12-261.90C365.58-261.36 365.04-262.44 365.04-264.06ZM363.42-257.58C363.42-259.74 363.96-259.74 364.50-258.66L364.50-258.66C365.04-257.58 365.04-255.96 364.50-255.42C363.96-254.88 363.42-255.96 363.42-257.58ZM368.82-250.02C378.54-293.76 394.74-336.96 407.70-352.62L411.48-357.48L410.94-348.30C408.78-328.32 400.14-302.94 381.24-258.12L381.24-258.12C360.72-210.60 359.64-210.06 368.82-250.02ZM361.80-251.10C361.80-252.72 362.34-253.26 362.88-251.64L362.88-251.64C363.42-250.56 363.42-249.48 362.34-248.40C361.80-247.86 361.80-248.94 361.80-251.10ZM360.18-242.46C360.18-244.62 360.72-244.62 361.26-243.54L361.26-243.54C361.80-242.46 361.26-240.84 360.72-240.30C360.18-239.76 360.18-240.84 360.18-242.46ZM331.02-95.04C330.48-94.50 329.94-95.58 329.94-97.20C329.94-99.36 330.48-99.36 331.02-98.28L331.02-98.28C331.56-97.20 331.56-95.58 331.02-95.04ZM356.94-227.34C356.94-229.50 356.94-230.04 357.48-228.42L357.48-228.42C358.02-227.34 358.02-225.72 357.48-225.18C356.94-224.64 356.40-225.72 356.94-227.34ZM354.78-217.62C355.32-219.24 355.32-219.78 355.86-218.70L355.86-218.70C356.40-217.08 356.40-216 355.86-215.46C355.32-214.92 354.78-215.46 354.78-217.62ZM353.16-205.74C353.16-207.90 353.70-207.90 354.24-206.82L354.24-206.82C354.78-205.74 354.78-204.12 354.24-203.58C353.70-203.04 353.16-204.12 353.16-205.74ZM377.46-140.94L373.68-144.18L390.96-162.54C414.18-187.38 434.70-203.58 459-217.08C468.72-222.48 483.84-228.42 483.84-226.80C483.84-224.10 474.12-209.52 466.02-200.88C449.82-181.98 413.64-152.82 394.20-143.10L394.20-143.10C383.94-138.24 381.24-137.70 377.46-140.94ZM756.00-164.16C753.84-164.70 751.14-164.16 749.52-162.54C743.58-159.30 720.90-130.14 721.98-128.52C722.52-127.98 722.52-127.98 721.44-127.98C719.82-128.52 712.26-120.96 702.00-106.92C675.54-73.44 675.00-72.90 673.92-72.90C673.38-72.90 671.22-77.76 669.60-84.78C664.20-106.38 663.66-145.80 667.44-192.24C669.60-214.92 668.52-225.72 664.74-227.88C663.66-228.96 658.26-229.50 654.48-228.96L646.38-227.88L640.98-218.16C638.28-212.76 632.34-194.94 626.94-178.74C617.22-147.96 616.14-145.26 612.90-129.60C606.42-104.76 593.46-72.90 585.36-63.72C582.66-60.48 582.66-60.48 579.96-63.72C578.88-66.42 576.72-72.90 575.10-85.32C571.86-108 572.94-132.84 579.96-167.94C582.12-181.98 583.74-193.32 582.66-193.86C581.58-193.32 580.50-194.94 580.50-195.48C580.50-198.18 572.40-204.12 570.24-203.58C569.16-203.58 567.00-201.42 565.92-197.64C562.68-185.22 558.90-172.26 556.74-161.46C556.20-154.98 554.04-146.88 553.50-142.56C546.48-122.58 546.48-86.40 553.50-69.12C557.28-58.32 561.06-55.08 572.94-51.30C586.44-46.44 591.84-46.44 598.86-50.76C612.36-59.94 622.62-83.16 636.12-136.08C642.60-159.84 644.22-165.78 643.14-157.68C640.98-137.70 645.30-88.56 650.16-75.06C652.86-65.88 656.64-62.64 667.98-58.86L667.98-58.86C683.10-53.46 688.50-57.78 704.70-84.24C710.64-93.42 721.98-111.78 730.08-124.20C740.88-140.94 758.16-164.16 756.00-164.16ZM966.06-167.94C961.74-167.94 956.88-163.62 956.88-159.84C957.42-158.22 957.42-157.14 956.34-157.68C955.80-158.22 954.72-157.14 954.18-155.52C948.24-144.18 904.50-83.16 890.46-68.58C887.76-65.34 887.22-65.34 885.60-68.04C881.82-78.30 878.58-101.52 876.42-135C874.80-172.26 871.56-187.38 864.00-195.48C859.68-200.34 840.24-203.04 833.22-199.80C826.20-197.10 817.56-187.92 806.22-172.26C794.34-154.44 785.70-138.78 772.20-108C767.34-98.28 765.72-95.58 765.72-99.36C766.80-109.62 765.18-161.46 764.64-173.34L764.10-184.68L755.46-184.68L747.36-184.68L745.20-148.50C741.96-86.94 741.96-71.28 744.66-59.94C745.74-55.08 746.82-54 753.30-51.84L753.30-51.84C757.62-50.22 763.56-48.60 766.26-48.60C773.28-48.06 774.90-50.22 785.70-78.84C797.58-108 810.54-136.62 820.26-152.82C828.90-166.32 844.02-186.84 846.72-188.46C849.96-190.08 852.66-177.12 853.20-157.68C853.74-153.90 853.74-149.58 854.28-147.42C854.82-145.80 854.82-138.78 854.82-131.76C854.82-120.96 855.90-102.60 857.52-82.08C858.06-75.06 864.00-59.94 866.16-57.24C869.40-54.54 885.60-48.60 891.54-48.06C899.64-47.52 909.90-58.86 926.64-86.94C944.46-115.02 957.96-140.94 964.98-156.06C969.84-168.48 969.84-167.40 966.06-167.94ZM748.98-158.76C748.98-159.84 749.52-160.38 750.60-160.38C751.14-160.38 752.22-159.30 752.22-158.22C752.22-157.14 751.14-157.14 750.60-157.14C749.52-157.14 748.98-157.68 748.98-158.76ZM746.82-98.82C746.28-98.28 745.74-99.36 745.74-100.98C746.28-103.14 746.82-103.68 746.82-102.06L746.82-102.06C747.36-100.98 747.36-99.36 746.82-98.82ZM748.44-107.46C746.82-104.22 746.28-104.76 746.28-108.54C746.82-110.70 747.36-111.78 748.44-111.24C748.98-110.70 748.98-109.08 748.44-107.46ZM754.38-113.40C753.84-112.86 753.30-113.94 753.84-115.56C753.84-117.72 754.38-118.26 754.92-116.64L754.92-116.64C754.92-115.56 754.92-113.94 754.38-113.40ZM760.32-163.08C759.78-162.54 759.24-163.62 759.24-165.24C759.24-167.40 759.78-167.40 760.32-166.32L760.32-166.32C760.86-165.24 760.86-163.62 760.32-163.08ZM760.32-143.10C759.24-141.48 759.78-143.10 759.78-146.88C760.32-150.66 760.86-151.74 760.86-149.58L760.86-149.58C760.86-147.42 760.86-144.72 760.32-143.10ZM759.24-114.48C759.24-111.78 758.70-113.94 759.24-119.34C759.78-124.20 760.32-126.36 760.32-123.66L760.32-123.66C760.32-121.50 760.32-117.18 759.24-114.48ZM759.24-94.50C759.24-92.88 758.70-94.50 759.24-98.28C759.78-102.06 760.32-103.14 760.32-100.98L760.32-100.98C760.32-99.36 760.32-96.12 759.24-94.50ZM1318.14-165.78C1315.98-165.78 1315.44-164.70 1315.44-161.46C1315.98-159.30 1315.44-156.60 1314.36-156.06C1313.82-155.52 1313.28-154.44 1313.28-152.82C1313.28-151.20 1309.50-141.48 1305.72-131.22C1301.40-120.42 1298.70-111.24 1299.24-110.16C1299.78-109.08 1299.78-108.54 1298.70-109.08C1297.62-109.62 1293.84-102.60 1289.52-93.42C1275.48-59.40 1270.62-48.60 1252.80-14.04C1234.44 21.60 1222.02 43.74 1212.84 57.78C1204.74 69.12 1193.40 82.62 1188.54 85.86C1184.76 88.56 1183.68 88.56 1178.82 85.86C1169.64 81.54 1158.30 68.04 1151.82 54.54C1130.22 8.10 1122.66-66.42 1131.84-155.52C1141.02-245.70 1175.58-360.18 1207.98-408.24C1214.46-417.96 1222.56-426.60 1222.56-423.36C1222.56-422.28 1223.64-420.66 1224.72-419.58C1227.96-416.34 1234.44-395.28 1237.14-379.62C1238.22-372.60 1239.84-365.04 1240.38-362.34C1240.92-359.64 1241.46-351.54 1242.00-343.98C1242.54-336.42 1243.62-328.86 1243.62-327.78C1244.16-326.16 1244.70-317.52 1245.78-307.80C1246.32-298.08 1246.86-288.36 1247.40-285.66C1247.40-283.50 1248.48-271.08 1249.02-258.12C1249.56-245.70 1250.64-234.36 1251.18-233.82C1251.72-233.28 1253.88-232.20 1256.04-232.20C1258.74-231.66 1260.90-231.12 1261.44-230.04C1264.14-226.26 1266.84-239.22 1267.38-260.28C1267.92-272.16 1267.38-297 1266.30-315.90C1260.90-414.18 1248.48-441.72 1212.30-435.78C1203.12-434.16 1197.72-429.84 1188.54-417.42C1158.84-375.84 1130.22-292.14 1111.86-193.32C1111.32-190.08 1109.16-174.96 1106.46-151.74C1101.60-108.54 1102.68-36.72 1108.62-4.32C1110.24 6.48 1118.34 36.18 1119.96 38.88C1120.50 41.04 1121.58 43.74 1122.12 45.90C1123.20 52.92 1135.62 76.68 1142.10 83.16C1149.66 91.80 1156.14 95.04 1167.48 96.66L1167.48 96.66C1194.48 100.44 1204.74 97.74 1219.86 84.24C1240.92 64.26 1260.36 25.38 1291.14-57.24C1321.92-139.32 1328.40-165.78 1318.14-165.78ZM1262.52-249.48C1263.06-247.32 1263.06-244.08 1262.52-241.92C1261.98-240.30 1261.98-241.92 1261.98-245.70C1261.98-250.02 1261.98-251.64 1262.52-249.48ZM1252.80-260.82C1253.34-260.82 1253.88-259.20 1253.88-257.58C1253.88-255.42 1253.34-254.34 1252.80-254.34C1251.72-254.34 1251.18-255.42 1251.18-257.58C1251.18-259.20 1251.72-260.82 1252.80-260.82ZM1111.86-157.68C1111.32-157.14 1110.78-158.22 1110.78-159.84C1111.32-162 1111.32-162 1111.86-160.92L1111.86-160.92C1112.40-159.84 1112.40-158.22 1111.86-157.68ZM1113.48-171.18C1112.94-170.64 1112.40-171.72 1112.94-173.34C1112.94-175.50 1112.94-175.50 1113.48-174.42L1113.48-174.42C1114.02-173.34 1114.02-171.72 1113.48-171.18ZM1116.72-125.82C1116.18-125.28 1116.18-126.36 1116.18-127.98C1116.18-130.14 1116.72-130.68 1117.26-129.06L1117.26-129.06C1117.80-127.98 1117.26-126.36 1116.72-125.82ZM1149.66-283.50C1149.66-285.66 1150.20-285.66 1150.74-284.58L1150.74-284.58C1150.74-283.50 1150.74-281.88 1150.20-281.34C1149.66-280.80 1149.66-281.88 1149.66-283.50ZM1144.26-265.14C1144.80-267.30 1144.80-267.30 1145.34-266.22L1145.34-266.22C1145.88-265.14 1145.88-263.52 1145.34-262.98C1144.80-262.44 1144.26-263.52 1144.26-265.14ZM1141.02-251.64C1141.02-253.80 1141.56-254.34 1142.10-252.72L1142.10-252.72C1142.64-251.64 1142.64-250.02 1142.10-249.48C1141.56-248.94 1141.02-250.02 1141.02-251.64ZM1138.86-239.76C1139.40-238.68 1139.40-236.52 1138.86-235.44C1138.32-234.36 1137.78-235.44 1137.78-237.60C1137.78-239.76 1138.32-240.84 1138.86-239.76ZM1136.16-228.42C1136.16-230.58 1136.70-230.58 1137.24-229.50L1137.24-229.50C1137.78-228.42 1137.78-226.80 1136.70-226.26C1136.16-225.72 1136.16-226.80 1136.16-228.42ZM1135.62-222.48C1135.62-220.86 1134.54-215.46 1133.46-210.06C1132.38-204.66 1131.30-201.96 1131.30-204.12C1131.30-208.98 1135.62-226.26 1135.62-222.48ZM1129.68-260.28C1130.22-260.82 1130.76-259.74 1131.30-258.66C1132.38-255.42 1131.84-254.88 1130.22-257.58C1129.14-258.66 1129.14-259.74 1129.68-260.28ZM1122.12-104.76C1121.58-102.06 1121.58-104.76 1121.58-111.24C1121.58-117.72 1121.58-119.88 1122.12-116.64L1122.12-116.64C1122.66-113.40 1122.66-108 1122.12-104.76ZM1123.74-131.76C1123.20-130.68 1122.66-131.76 1122.66-134.46C1122.66-137.70 1123.20-138.24 1123.74-136.62L1123.74-136.62C1124.28-135 1124.28-132.84 1123.74-131.76ZM1123.74-140.94C1123.20-140.40 1122.66-141.48 1122.66-143.10C1122.66-145.26 1123.20-145.80 1123.74-144.18L1123.74-144.18C1124.28-143.10 1124.28-141.48 1123.74-140.94ZM1125.36-151.74C1124.82-149.58 1124.82-151.20 1124.82-155.52C1124.82-159.84 1124.82-161.46 1125.36-159.30L1125.36-159.30C1125.90-157.14 1125.90-153.90 1125.36-151.74ZM1126.98-167.94C1126.44-166.32 1126.44-167.94 1126.44-171.72C1126.44-174.96 1126.44-176.58 1126.98-174.42L1126.98-174.42C1127.52-172.26 1127.52-169.56 1126.98-167.94ZM1128.06-182.52C1128.06-184.68 1128.60-189.54 1129.14-193.32C1130.22-197.64 1130.76-198.18 1130.76-195.48C1130.76-193.32 1130.22-188.46 1129.14-184.68C1128.60-180.36 1128.06-179.82 1128.06-182.52ZM1361.34 2.70C1371.60 5.40 1374.84 4.86 1378.62 0C1385.10-8.10 1382.94-12.96 1369.98-14.58C1359.18-16.20 1355.40-14.04 1355.40-5.40C1355.40 0.54 1355.94 1.08 1361.34 2.70Z" fill="#000000"/>
  </g>
</svg>