<svg width="1532" height="883" viewBox="0 0 1532 883" xmlns="http://www.w3.org/2000/svg">
  <g transform="translate(11.52, 573.95)">
    <path d="M306.24-96.96L306.24-97.92C306.24-99.36 306.72-100.80 307.68-101.76C322.56-137.28 333.60-173.28 340.32-211.20C343.68-230.40 345.60-249.60 345.60-268.80C345.60-282.72 344.64-296.16 342.72-309.60C340.80-324.96 336-339.84 328.80-353.76C318.24-373.44 301.92-386.88 282.72-397.44C280.32-398.40 278.88-399.36 277.92-401.76C276.96-405.60 274.08-408.48 271.20-410.88C266.40-414.24 262.56-418.08 258.24-421.92C252.48-426.24 246.72-428.64 240.48-428.64C238.08-428.64 235.68-428.16 233.28-427.68C221.76-424.80 212.16-419.04 203.04-412.32C180-396 160.32-376.80 142.56-355.68C120.96-330.72 101.28-303.84 84-276C60.96-239.52 42.24-200.64 27.84-159.84C14.88-121.44 5.28-82.56 1.92-42.24C1.44-35.04 0.48-27.84 0.48-20.64C0.48-17.28 0.48-14.40 0.96-11.52C1.92-2.40 1.92 6.24 2.88 15.36C4.80 35.52 8.64 55.20 16.80 73.92C23.52 88.32 32.16 101.28 46.56 109.44C59.52 116.64 73.92 119.04 88.80 120.48C91.20 120.96 93.60 120.96 96 120.96C108.96 120.96 120.96 117.12 132.48 111.36C153.60 101.28 171.84 87.36 188.64 72C219.84 43.20 245.28 10.08 267.84-25.92C277.92-42.24 287.52-58.56 295.68-76.32C297.12-78.72 298.08-80.64 301.44-81.60C321.60-87.84 340.80-95.52 360.48-102.72C372-106.56 383.04-110.88 394.56-114.72C396.48-115.68 398.88-116.64 400.80-118.08C401.76-118.56 402.24-119.04 402.24-119.52C402.24-120 401.76-120.48 401.28-120.96C398.88-122.40 396.48-123.36 394.08-123.36C393.12-123.36 392.16-123.36 391.20-122.88C366.24-114.24 340.80-106.56 315.36-98.88C312.48-97.92 309.60-96.96 306.24-96.96ZM324.96-283.68C324.96-250.56 319.20-217.92 311.04-185.76C302.88-155.52 292.80-126.72 280.32-98.40C280.32-97.92 279.84-97.44 279.84-96.96C277.92-91.20 274.08-88.80 268.32-88.32C261.12-87.36 254.40-86.88 247.20-86.88C221.28-86.88 196.32-92.64 172.32-104.64C139.68-120.48 121.44-146.88 116.64-182.88C115.20-191.04 115.20-199.20 115.20-207.36C115.20-211.20 116.16-215.04 118.08-218.88C130.56-240.96 144-263.04 158.40-283.68C173.76-306.24 190.08-327.84 208.32-348C218.40-359.52 228.96-371.04 240.48-381.12C244.80-384.96 249.12-386.88 254.40-387.36C256.80-387.84 258.72-387.84 261.12-387.84L262.56-387.84C264.48-387.84 265.44-387.36 266.40-384.96C266.40-384.48 266.88-383.52 267.84-382.56C269.28-381.12 270.24-379.68 272.16-379.68L273.12-379.68C275.52-380.16 275.04-382.56 275.52-384C276-386.88 276.48-387.36 277.92-387.36L279.84-387.36C289.92-385.44 298.08-381.12 303.84-372.48C312.96-358.56 318.24-343.20 321.12-326.88C324-312.48 324.96-298.08 324.96-283.68ZM97.92-178.08C99.84-177.12 99.84-175.68 100.32-174.24C108-144 126.72-122.40 153.12-107.52C178.08-93.60 204.96-83.52 233.28-78.72C242.88-77.28 252.96-76.32 262.56-76.32L264.48-76.32C264.96-76.32 265.92-76.32 266.40-75.84C267.84-75.84 268.32-75.36 268.32-73.92L268.32-72.96C267.84-71.52 266.88-70.56 266.40-69.60C247.20-33.60 225.12 0 198.24 30.72C177.60 54.72 154.56 75.84 127.20 91.68C113.28 99.84 98.88 106.56 82.56 109.44C81.12 109.92 79.68 109.92 78.72 109.92C74.88 109.92 72 108.48 68.64 105.60C61.44 97.92 56.64 89.28 53.28 79.68C48.48 66.72 46.08 53.76 45.12 40.32C44.64 34.08 44.64 28.32 44.64 22.08C44.64-14.40 51.36-49.44 61.44-84.48C70.08-114.72 81.60-144 94.56-172.32C95.52-174.72 96-176.64 97.92-178.08ZM468.96-170.88C468.48-168 468.00-166.08 467.52-164.64C466.08-160.32 465.60-156 465.60-151.20C466.56-143.52 469.44-137.28 477.12-133.92C479.52-132.48 481.44-131.04 483.84-130.08C487.68-128.16 491.04-126.72 494.88-126.72C496.80-126.72 499.20-127.20 501.60-128.16C509.28-131.52 516.96-133.44 525.12-135.36C526.56-135.84 527.52-135.84 528.96-136.80C529.92-137.28 530.40-137.76 530.40-138.24C530.40-138.72 529.92-139.68 528.96-140.16C527.52-141.60 525.12-142.56 522.72-142.56L521.28-142.56C516.48-142.08 511.68-141.60 506.40-141.12C501.60-140.64 496.32-139.20 491.04-139.20C487.68-139.20 486.72-139.68 486.72-142.08L486.72-144C487.20-146.88 487.68-149.28 488.16-151.68C489.60-157.44 491.04-163.68 492.48-169.44C492.96-171.36 492.96-172.80 492.96-174.24C492.96-181.44 490.08-186.72 482.88-190.08C480.96-191.04 479.04-191.52 477.60-191.52C476.16-191.52 474.72-191.04 473.28-190.08C471.84-189.12 470.40-188.16 469.44-187.20C461.76-181.44 456.00-173.76 449.76-166.08C448.32-164.16 447.36-161.76 444.96-160.32C444.48-160.80 444.48-161.28 444.48-161.76C444.48-162.24 444.96-163.20 445.44-163.68C446.40-167.04 447.84-170.88 448.32-174.24C448.80-175.68 448.80-177.12 448.80-178.08C448.80-183.84 445.92-187.20 440.64-190.56C436.80-192.48 433.44-194.88 429.60-196.80C426.24-199.20 423.36-200.64 420.96-200.64C417.60-200.64 414.72-198.24 410.88-194.40C406.08-188.64 401.76-182.88 398.40-176.64C383.52-151.20 372.96-124.32 366.24-95.52C364.32-87.84 363.36-80.16 363.36-72.48C363.36-69.60 363.36-67.20 363.84-64.32C364.80-55.20 366.72-52.80 375.84-50.88L377.76-50.88C380.16-50.40 382.08-49.92 383.04-49.92C385.92-49.92 387.36-51.36 390.24-56.16C399.36-71.04 408.48-86.40 418.08-101.28C431.52-122.88 445.44-144 462.24-163.68C463.68-166.08 465.60-168.48 468.96-170.88ZM570.24-140.16L569.28-141.12L577.92-159.84C584.16-173.76 590.40-187.68 597.12-201.60C598.08-204.96 600-206.40 603.84-206.88C609.12-207.36 614.40-208.32 619.68-209.28C651.84-216.96 680.16-231.84 707.04-250.08C721.92-260.64 735.84-271.68 749.28-283.68C768.48-301.44 785.28-320.64 798.24-343.20C804.96-354.24 809.76-365.76 811.68-378.72C812.16-381.12 812.16-384 812.16-386.40C812.16-398.40 808.32-408.96 798.72-417.60C794.88-420.96 791.04-423.84 787.68-427.68C777.12-437.28 764.16-442.56 749.76-442.56C736.80-442.56 723.84-439.68 711.84-434.88C688.32-425.76 668.64-411.36 650.88-394.08C634.56-378.72 621.12-360.96 608.16-342.72C588.96-315.36 573.12-286.56 558.24-256.80C529.44-198.72 509.28-137.76 501.12-73.44C500.16-65.76 499.68-57.60 499.68-49.92L499.68-44.64C500.16-38.40 502.08-36 508.32-35.52C511.20-35.52 513.60-35.04 516.48-34.56C517.92-34.56 519.36-34.08 520.32-34.08C524.16-34.08 525.60-36 527.52-41.28C528-42.24 528.96-43.68 528.96-44.64C534.72-61.44 543.36-76.32 552.96-91.20C553.92-92.64 554.40-94.56 556.80-94.56C558.24-92.16 558.72-89.76 559.20-87.36C563.52-75.84 570.24-66.24 580.32-59.52C586.56-55.20 593.28-53.28 600.48-50.88C604.80-49.44 608.64-48.96 612.96-48.96C618.72-48.96 624.48-50.40 630.24-52.80C635.52-55.68 640.32-58.56 644.64-61.92C651.36-66.72 657.12-72.96 662.88-78.72C670.56-85.44 677.28-92.64 684-99.84C690.72-108 699.36-113.76 707.04-120.96C712.80-126.72 719.52-131.04 726.72-135.36C728.16-135.84 729.60-136.80 731.04-137.76C731.52-138.24 732-138.72 732-139.20C732-140.16 731.52-140.64 730.56-141.12C729.60-142.08 728.16-142.08 726.72-142.08C724.80-142.08 722.88-141.60 720.96-140.64C702.72-132.48 685.44-121.92 671.52-106.56C664.32-98.88 657.12-91.68 648.96-84.48C640.80-77.28 632.16-70.56 622.56-64.80C616.32-60.96 610.08-58.08 602.88-58.08L601.44-58.08C597.60-58.08 594.72-59.52 591.84-62.40C586.56-69.12 582.72-76.32 580.32-84.48C578.88-89.76 576.96-95.04 575.52-100.32C575.04-101.76 575.04-102.72 575.04-103.20C575.04-104.64 576-105.12 578.40-105.60C605.28-113.28 629.76-125.76 651.36-142.56C657.12-147.36 662.40-152.64 666.24-158.88C668.64-162.72 669.60-167.04 669.60-170.88C669.60-179.04 664.80-186.24 655.68-189.12C654.24-190.08 652.32-190.56 650.88-191.52C647.52-193.44 644.16-193.92 641.28-193.92C638.88-193.92 636.48-193.44 634.08-192.96C627.36-191.04 621.60-187.68 616.32-183.84C600.96-173.28 588.48-160.32 576-146.40C574.08-144.48 572.16-142.08 570.24-140.16ZM790.56-403.68L790.56-399.36C790.08-381.60 784.32-365.28 776.16-349.44C762.72-325.92 744.96-305.76 724.80-287.52C713.76-277.44 702.24-268.32 690.24-259.68C668.16-242.88 643.68-229.92 617.76-220.80C614.88-219.84 612-218.88 609.12-218.40L607.68-218.40C606.72-218.40 606.24-218.88 606.24-219.36C606.24-219.84 606.24-220.32 606.72-221.28C608.64-225.12 610.56-228.96 612-232.80C626.88-263.04 642.24-292.32 659.52-321.12C673.44-344.16 689.28-365.76 708.96-384C720.48-395.04 733.44-404.64 747.84-411.36C756.96-415.68 766.56-418.56 776.64-418.56L779.04-418.56C786.72-418.08 788.16-416.64 789.60-409.44C790.08-407.52 790.08-405.60 790.56-403.68ZM575.04-121.92C577.92-126.24 581.28-129.60 584.64-133.44C597.12-148.32 610.08-162.72 626.40-173.76C632.16-177.60 637.92-181.44 644.64-183.36C645.60-183.36 646.08-183.84 647.04-183.84C648.48-183.84 649.44-182.88 649.44-180.48L649.44-179.04C648.96-174.72 647.52-170.40 644.64-166.56C641.28-162.24 637.44-158.40 633.12-155.04C616.32-141.60 597.60-131.04 577.92-121.92C577.44-121.92 576.96-121.44 576.48-121.44C576-121.44 575.52-121.44 575.04-121.92ZM741.60-83.04C741.12-84 741.12-84.48 741.12-84.96C741.12-85.92 741.12-86.40 741.60-86.88C744.00-95.04 746.88-103.20 750.24-110.88C757.92-128.16 766.56-144.96 775.20-161.76C777.12-165.12 778.08-168 778.08-169.92C778.08-173.28 775.68-175.68 771.36-179.52C770.40-180 769.92-180.96 768.96-180.96C764.64-183.36 761.28-186.24 757.92-189.60C753.60-193.92 749.76-195.84 746.40-195.84C742.56-195.84 739.20-192.96 734.88-187.20C729.60-179.52 724.80-171.84 721.44-163.20C714.24-144.48 709.92-125.76 708.48-106.08L708.48-100.32C708.48-92.64 708.96-84.96 711.84-78.24C714.72-71.52 719.04-67.68 726.24-67.20C728.16-66.72 730.56-66.24 732.96-65.76C734.88-65.28 736.80-64.80 738.72-64.80C743.04-64.80 746.88-66.72 750.24-70.08L761.76-81.60C773.76-94.56 784.32-108.96 795.84-122.40C799.68-127.20 804.00-132.48 809.28-137.76C806.88-130.08 804.96-123.36 804.48-116.16C804.48-114.72 804.00-113.28 804.00-111.84C804.00-106.56 805.44-101.76 809.76-98.40C815.52-93.12 822.72-89.76 830.88-89.76L831.36-89.76C832.32-89.76 833.28-90.24 834.24-90.24C837.60-91.20 840.00-93.12 842.88-94.56C850.56-99.84 857.28-106.08 864.00-112.80C872.64-121.44 881.28-130.56 891.36-137.28L892.32-138.24C893.28-139.20 893.76-139.68 893.76-140.64C893.76-141.12 893.28-141.60 892.32-142.08C890.40-143.04 888.96-144 887.04-144C885.60-144 884.64-143.52 883.20-143.04C876.48-139.20 870.24-134.40 864.48-129.60C854.88-121.92 845.76-114.24 836.16-107.04C833.28-104.64 830.88-102.72 827.52-101.76C827.04-102.72 826.56-103.20 826.56-104.16C826.56-104.64 827.04-105.60 827.04-106.08L831.36-117.60C837.60-134.40 845.76-150.24 852.48-166.56C853.92-170.40 855.84-174.24 856.80-178.56C857.28-179.52 857.76-180.48 857.76-181.92C857.76-183.84 856.80-185.76 854.88-187.20C852.96-188.64 850.56-190.56 848.64-192.48C847.68-192.96 846.72-193.44 846.24-193.44C845.28-193.44 844.32-192.96 843.36-192C840.48-189.12 837.60-186.24 835.20-182.88L823.68-169.92C812.64-157.44 801.60-145.44 790.56-132.96C777.12-117.60 763.20-102.24 748.32-87.84C746.40-86.40 744.48-84 741.60-83.04ZM982.08-166.08C982.08-166.08 982.56-165.60 982.56-165.12C981.12-162.72 979.68-159.84 978.72-156.96C974.88-148.80 971.04-141.12 969.12-132.48C968.16-128.64 967.68-124.80 967.68-120.96C967.68-119.04 967.68-116.64 968.16-114.72C969.12-109.44 972.00-105.60 976.80-103.20C979.20-101.76 982.08-100.32 984.96-98.40C987.84-96.48 990.72-95.52 993.60-95.52C996.48-95.52 998.88-96 1001.76-97.44C1008.00-100.80 1013.76-104.64 1019.04-108.96C1027.68-116.64 1036.80-123.84 1046.40-130.08C1050.24-132.48 1053.60-134.88 1057.44-137.28C1059.36-138.24 1060.32-139.20 1060.32-139.68C1060.32-140.64 1059.36-141.60 1057.44-143.04C1055.52-144 1054.08-144.48 1052.16-144.48C1051.20-144.48 1049.76-144.48 1048.32-144C1043.52-141.60 1039.20-139.20 1034.40-136.80C1022.88-130.08 1010.88-122.88 998.88-116.16C996.96-115.20 995.52-113.76 993.12-113.76C993.12-114.24 992.64-114.72 992.64-115.20C992.64-117.12 993.60-118.56 994.08-120C997.44-130.08 1000.80-140.16 1003.68-150.72C1005.12-154.08 1005.60-157.92 1005.60-161.28L1005.60-162.72C1005.60-168.48 1002.72-173.28 997.92-176.16C996.00-177.12 994.56-178.08 993.12-179.52C990.72-181.44 988.32-182.40 985.92-182.40C983.52-182.40 981.60-181.92 979.20-180.48C977.76-179.52 975.84-178.56 974.40-177.12C961.92-168.48 949.44-158.88 938.40-148.80C935.04-145.44 931.20-142.56 927.84-139.68C927.84-141.60 928.80-142.56 929.28-144C933.12-151.68 937.44-159.36 940.80-167.52C942.24-170.40 942.72-172.80 942.72-174.72C942.72-178.08 940.80-180.48 936.00-183.84C932.16-186.24 928.32-189.12 924.96-192C921.12-195.36 917.28-196.80 913.92-196.80C909.60-196.80 905.28-193.92 902.40-190.08C899.04-186.24 896.16-181.92 893.28-177.60C882.24-158.40 873.60-137.76 867.84-115.68C865.92-108.96 864.96-102.24 864.96-95.04C865.44-89.76 867.36-85.92 872.16-84L883.68-79.68C885.60-78.72 887.04-78.24 888.00-78.24C889.44-78.24 890.40-79.68 892.32-82.08C909.12-104.64 929.28-123.84 949.92-142.56C957.60-149.28 965.28-155.52 973.44-161.28C976.32-163.20 978.72-165.12 982.08-166.08ZM1166.40 56.16L1166.40 47.04C1166.40 39.84 1166.88 33.12 1167.84 25.44C1171.68-1.44 1177.92-27.36 1186.08-53.28C1197.12-88.32 1211.52-121.44 1229.28-153.60C1256.64-203.04 1290.72-247.20 1332.96-284.64C1363.68-312.48 1398.24-334.56 1436.64-350.40C1453.92-357.60 1471.68-363.84 1490.40-367.20C1491.84-367.68 1493.76-367.68 1495.20-367.68C1497.60-367.68 1500.48-367.20 1502.40-364.32C1503.36-363.36 1503.84-363.36 1504.80-363.36C1505.76-363.36 1506.72-363.84 1507.68-365.76C1507.68-366.72 1508.16-367.20 1508.16-368.16C1508.16-369.12 1507.68-370.08 1507.20-371.04C1506.24-373.92 1504.80-376.32 1502.40-378.24C1498.56-382.08 1495.20-386.40 1491.84-390.72C1483.20-401.28 1472.16-406.56 1459.20-408.48C1455.84-408.96 1452.96-409.44 1450.08-409.44C1444.80-409.44 1439.52-408.48 1434.24-408C1405.44-403.68 1378.56-392.64 1353.12-378.24C1314.24-356.16 1281.60-326.40 1252.32-292.32C1231.20-267.84 1212.00-240.96 1196.16-212.16C1175.04-175.20 1158.72-136.80 1146.72-96C1139.04-69.60 1133.76-43.20 1130.88-16.32C1129.44-4.32 1128.48 7.68 1128.48 19.20C1128.48 28.80 1128.96 37.92 1130.40 47.52C1132.80 64.32 1137.60 80.16 1147.20 94.08C1155.84 106.56 1167.36 115.20 1182.72 117.12C1184.16 117.12 1185.12 117.60 1186.56 117.60C1190.88 118.56 1195.20 119.52 1199.52 119.52C1205.76 119.52 1212.00 118.08 1217.76 116.16C1232.64 111.36 1245.60 103.20 1258.08 94.56C1281.60 77.76 1302.72 58.56 1323.84 38.88C1341.60 21.60 1358.88 3.36 1375.68-14.88C1380.96-20.64 1385.76-26.40 1391.52-31.68C1411.68-50.40 1432.80-68.16 1456.80-83.04C1463.04-86.40 1468.32-91.20 1476.00-91.68C1476.96-92.16 1477.44-92.64 1477.44-93.12C1477.44-93.60 1477.44-93.60 1476.96-94.08C1476.48-95.04 1475.52-95.52 1474.56-95.52C1472.16-96.96 1470.24-97.44 1467.84-97.44C1464.96-97.44 1462.08-96.48 1459.20-95.04C1440.48-86.88 1422.72-76.80 1407.36-63.36C1393.92-51.36 1380.00-40.32 1368.00-26.40C1356.48-12.96 1343.52-0.48 1331.52 12.96C1315.68 29.76 1298.40 45.60 1280.64 60.48C1263.84 74.40 1247.04 87.84 1227.36 97.92C1217.28 103.68 1206.24 108 1194.72 110.40C1193.28 110.88 1191.84 110.88 1190.40 110.88C1186.56 110.88 1183.20 109.44 1180.32 106.08C1176.48 101.28 1174.08 96.48 1171.68 90.72C1167.84 79.68 1166.40 68.64 1166.40 56.16ZM1476.96 23.52L1481.28 23.52C1482.72 23.52 1485.12 23.52 1488.00 23.04C1491.36 22.56 1494.24 21.12 1496.64 18.72C1500.00 15.84 1501.44 12 1501.44 8.16C1501.44 2.88 1499.04-1.92 1494.24-4.80C1491.84-6.24 1489.44-7.20 1487.52-8.64C1485.12-10.56 1482.72-11.52 1480.32-11.52C1477.92-11.52 1475.52-10.56 1473.12-9.12C1466.40-5.76 1463.04 0 1460.64 6.72C1460.16 8.16 1459.68 10.08 1459.68 12C1459.68 13.92 1460.16 15.36 1461.12 16.80C1464.48 20.16 1468.80 24 1473.60 24C1474.56 24 1476.00 24 1476.96 23.52Z" fill="#000000"/>
  </g>
</svg>