<svg width="1492" height="613" viewBox="0 0 1492 613" xmlns="http://www.w3.org/2000/svg">
  <g transform="translate(7.131078406426767, 398.45)">
    <path d="M37.44 19.20C64.32 27.84 108.48 1.44 141.60-42.72C177.12-89.76 190.08-135.36 169.92-142.08C162.24-144.96 152.64-144.48 151.20-141.12C148.80-136.80 151.68-134.88 159.84-134.88C168.96-134.88 171.36-132 170.88-121.92C170.88-112.32 163.68-94.08 153.12-76.32C124.80-27.84 86.40 5.28 53.28 11.04C38.40 13.44 24 3.36 18.72-13.44C13.92-26.40 14.40-61.44 19.20-82.56C26.88-118.08 36-144 53.28-179.52C82.56-238.56 114.72-284.64 155.04-324.96C178.56-348.48 191.52-358.56 208.80-367.68C233.28-379.68 245.28-372 240-348C236.16-331.68 221.28-302.40 204.48-280.32C190.08-260.64 166.56-236.16 157.44-230.88C149.28-226.56 147.36-223.20 151.20-219.84C156.48-214.56 166.08-220.80 186.24-242.88C205.44-263.52 216.48-277.44 228-297.12C247.68-331.68 254.88-356.64 247.68-370.56C240.96-383.52 224.64-386.40 205.92-377.28C166.08-358.56 109.92-298.08 70.08-232.32C32.16-169.44 11.04-111.84 5.76-57.60C1.44-15.84 12.96 12 37.44 19.20ZM338.88-144C336-144 331.20-140.64 320.16-130.08C277.44-88.32 283.68-101.76 288-140.16C289.44-152.16 290.40-163.68 289.92-166.08C287.52-175.20 276-173.28 262.56-159.84L252.48-150.24L250.56-156.48C246.24-171.84 233.76-176.16 222.24-166.08C206.40-152.64 187.20-119.52 183.84-93.12C182.88-84.48 186.72-75.84 191.04-72.96C192.96-71.52 195.84-71.52 200.16-73.92C206.40-77.28 214.08-86.40 227.04-104.64C242.88-127.20 252.48-138.72 254.88-138.72C255.84-138.72 257.28-140.64 257.76-142.56C258.72-146.40 270.72-160.80 276.48-164.16C280.80-166.56 281.28-163.20 278.88-145.44C273.60-110.88 277.92-94.08 292.32-97.92C294.24-98.40 304.80-107.04 315.84-117.60C329.76-131.04 336.48-136.32 339.36-136.32C342.24-136.32 342.72-137.28 342.72-140.16C342.72-143.52 342.24-144 338.88-144ZM237.60-131.52L218.88-105.60C213.60-98.40 206.40-89.28 202.56-84.96C193.92-75.84 191.52-75.84 191.52-85.92C191.52-113.28 219.84-165.60 234.24-165.60C239.52-165.60 242.40-161.28 244.80-151.20L246.72-143.04ZM455.52-142.08C455.04-148.32 451.20-152.16 445.44-152.16C438.24-152.16 421.44-133.44 402.24-105.12L386.88-81.60L387.84-90.24C390.24-107.04 400.32-134.40 417.12-168.48C426.72-187.68 428.64-196.80 424.32-198.72C418.56-200.64 407.52-191.52 392.16-171.84C382.08-159.36 382.08-159.36 381.60-164.16C380.64-170.40 374.88-174.72 366.24-174.72C360-174.72 358.56-174.24 352.32-167.52C343.68-157.92 336-143.52 330.72-126.72C324-105.60 325.44-96 334.08-96C342.24-96 350.40-104.64 375.36-137.76C401.28-172.32 418.56-192.48 416.64-185.28C416.16-183.36 411.84-174.24 407.04-165.12C389.76-130.08 380.64-101.28 381.12-82.08C381.60-71.52 381.60-71.04 373.44-57.12C356.16-25.92 333.60 26.40 321.12 65.28C310.08 99.36 305.76 120 305.76 139.68C305.28 153.12 307.68 157.92 314.88 161.76C327.36 168 355.20 156.48 372.96 137.76C425.28 83.04 457.44-2.88 439.20-38.40C434.88-46.08 420.48-57.60 406.08-64.32C399.36-67.68 393.12-71.04 392.16-72.48C390.72-73.92 392.64-77.76 399.84-88.80C418.56-118.56 439.68-144.48 444.96-144.48C446.40-144.48 447.84-143.04 448.32-140.64C448.80-137.76 450.24-136.80 452.64-137.28C455.52-137.76 456-138.72 455.52-142.08ZM400.32-60.48C431.52-44.16 437.76-36.96 437.76-12.48C437.76 17.76 423.36 56.16 398.88 94.08C378.24 125.28 357.12 146.40 339.84 152.64C324 158.88 315.84 157.92 312.96 150.72C304.32 127.20 333.60 33.60 374.40-44.64C381.12-57.12 386.40-66.72 386.40-67.20C386.40-67.20 392.64-64.32 400.32-60.48ZM369.12-141.60C357.12-125.28 351.36-117.60 345.60-111.36C343.20-108.96 339.36-105.60 336.96-104.16C333.12-102.24 332.64-102.24 332.64-105.60C332.64-110.88 338.40-129.60 342.72-139.20C347.52-150.72 357.60-165.12 362.40-167.04C367.68-169.44 371.04-167.04 371.04-161.76C371.52-158.88 372.48-156.96 374.40-156C377.76-154.08 377.76-154.08 369.12-141.60ZM442.08 7.68C452.16 12.48 463.68 1.92 477.60-24.96C482.40-34.56 492-54.24 498.24-68.16C504.96-82.56 515.52-104.64 522.24-117.60C534.24-141.12 538.56-145.92 532.80-145.92C530.40-145.92 527.52-141.12 518.88-123.84C513.12-112.32 500.64-92.64 494.88-80.64C469.44-22.56 455.52 1.92 447.84 1.92C445.92 1.92 443.52-0.48 442.08-3.36C439.68-7.20 439.20-11.52 439.68-28.32C440.64-94.56 466.56-193.44 509.76-288.96C522.24-316.80 525.12-322.56 528.96-323.52C534.72-324.96 533.76-341.76 528-340.80C520.80-339.36 484.32-254.88 464.16-193.92C443.04-130.56 429.12-65.28 430.56-24C431.52-1.92 435.36 4.32 442.08 7.68ZM665.28-144C662.40-144 657.60-140.64 646.56-130.08C603.84-88.32 610.08-101.76 614.40-140.16C615.84-152.16 616.80-163.68 616.32-166.08C613.92-175.20 602.40-173.28 588.96-159.84L578.88-150.24L576.96-156.48C572.64-171.84 560.16-176.16 548.64-166.08C532.80-152.64 513.60-119.52 510.24-93.12C509.28-84.48 513.12-75.84 517.44-72.96C519.36-71.52 522.24-71.52 526.56-73.92C532.80-77.28 540.48-86.40 553.44-104.64C569.28-127.20 578.88-138.72 581.28-138.72C582.24-138.72 583.68-140.64 584.16-142.56C585.12-146.40 597.12-160.80 602.88-164.16C607.20-166.56 607.68-163.20 605.28-145.44C600-110.88 604.32-94.08 618.72-97.92C620.64-98.40 631.20-107.04 642.24-117.60C656.16-131.04 662.88-136.32 665.76-136.32C668.64-136.32 669.12-137.28 669.12-140.16C669.12-143.52 668.64-144 665.28-144ZM564-131.52L545.28-105.60C540-98.40 532.80-89.28 528.96-84.96C520.32-75.84 517.92-75.84 517.92-85.92C517.92-113.28 546.24-165.60 560.64-165.60C565.92-165.60 568.80-161.28 571.20-151.20L573.12-143.04ZM642.24-46.08C643.20-42.72 648.48-43.20 651.36-47.04L658.56-64.80C679.68-122.88 709.92-178.56 717.60-172.80C726.72-166.08 728.64-165.60 736.80-165.60C749.28-165.60 766.56-175.20 766.56-182.40C766.56-186.72 763.20-186.72 756.96-181.92C750.24-177.12 740.16-172.32 735.84-172.32C733.92-172.32 729.60-174.24 726.24-176.64C717.60-183.36 711.36-182.88 704.16-175.68C696.48-167.52 682.56-144 672-119.52C666.72-108.48 661.44-96 660-92.16C658.08-88.32 656.64-86.40 656.64-87.84C656.64-92.16 674.40-152.64 679.20-163.68C684.96-176.64 692.64-199.20 692.64-202.56C692.64-205.92 688.32-207.36 685.92-204.96C684.96-204 680.16-194.88 675.36-184.80C669.60-171.84 667.20-164.64 667.68-162.24C668.16-159.84 665.76-149.28 661.92-136.32C648.48-92.64 639.84-52.32 642.24-46.08ZM970.08 29.76C977.76 41.76 996.96 28.32 1029.60-12.48C1068-60 1093.44-108.96 1093.44-134.40C1093.44-143.04 1088.64-153.12 1082.40-156.48C1074.72-161.28 1066.56-163.20 1051.20-163.20C1025.28-162.72 1002.72-156.48 944.16-132.96C881.28-108 876.96-108.48 893.28-135.84C912.48-168.96 972.96-239.52 1015.20-279.36C1060.80-321.60 1098.72-350.40 1130.40-366.24C1147.68-374.88 1158.72-378.72 1166.88-378.72C1172.64-378.72 1174.08-378.24 1175.04-374.88C1176-372.48 1176.48-368.64 1175.52-365.76C1174.56-360 1166.40-343.68 1158.72-332.16C1152.96-323.04 1093.44-239.52 1073.76-212.64C1058.88-192.48 1057.92-190.56 1060.32-187.68C1063.68-183.84 1067.52-185.28 1070.40-191.04C1073.28-196.32 1112.16-252.96 1140.48-292.32C1175.04-339.84 1186.56-363.36 1182.72-376.32C1180.32-383.52 1176-386.40 1166.40-386.40C1137.60-386.40 1076.16-347.52 1014.24-289.92C956.64-236.64 886.08-150.72 877.92-123.84C872.16-105.12 888.48-101.76 920.64-114.72C979.20-138.72 991.68-143.52 1008.48-148.32C1040.16-157.44 1062.24-158.40 1076.16-152.16C1079.52-150.24 1083.36-147.36 1084.32-145.44C1086.72-139.20 1086.24-124.80 1082.88-113.28C1072.32-79.68 1029.60-15.36 997.44 15.84C977.76 34.56 971.52 33.60 973.44 12C975.36-16.32 994.08-71.04 1008.48-89.76C1010.40-92.64 1011.84-96 1011.36-96.96C1007.52-107.52 989.76-75.36 977.76-36.48C967.68-2.88 964.80 21.60 970.08 29.76ZM1232.16-143.52C1212.96-143.52 1211.52-144 1212.48-149.76C1212.96-152.64 1212-155.52 1210.56-158.40C1207.68-162.24 1206.24-163.20 1199.04-164.16C1191.36-165.60 1187.52-165.12 1170.24-160.32C1146.24-153.60 1117.92-141.60 1117.44-137.28C1116.48-133.44 1122.24-132 1133.28-133.44L1142.40-134.88L1140.48-132C1134.24-119.04 1133.28-103.20 1138.56-97.92C1143.36-93.60 1151.52-92.64 1159.20-96C1173.12-101.76 1200-123.84 1205.28-133.44C1206.72-135.84 1209.12-136.80 1214.40-136.32C1244.64-133.92 1248-133.92 1248.96-139.68C1249.92-143.04 1248.48-143.52 1232.16-143.52ZM1190.40-130.56C1182.72-121.92 1166.88-110.40 1157.76-105.60C1144.32-99.36 1140.48-105.12 1148.16-120.96C1154.88-137.28 1154.88-137.76 1165.44-138.72C1175.04-139.68 1195.20-139.20 1196.64-137.76C1196.16-137.28 1193.76-133.92 1190.40-130.56ZM1188-146.88C1180.80-147.36 1172.64-147.84 1169.76-147.84C1161.12-147.36 1164-148.80 1178.40-153.12C1188-155.52 1193.28-156 1197.12-155.52C1202.40-154.08 1203.36-153.12 1202.40-149.76C1201.92-146.40 1200.96-146.40 1188-146.88ZM1236.00 7.68C1246.08 12.48 1257.60 1.92 1271.52-24.96C1276.32-34.56 1285.92-54.24 1292.16-68.16C1298.88-82.56 1309.44-104.64 1316.16-117.60C1328.16-141.12 1332.48-145.92 1326.72-145.92C1324.32-145.92 1321.44-141.12 1312.80-123.84C1307.04-112.32 1294.56-92.64 1288.80-80.64C1263.36-22.56 1249.44 1.92 1241.76 1.92C1239.84 1.92 1237.44-0.48 1236.00-3.36C1233.60-7.20 1233.12-11.52 1233.60-28.32C1234.56-94.56 1260.48-193.44 1303.68-288.96C1316.16-316.80 1319.04-322.56 1322.88-323.52C1328.64-324.96 1327.68-341.76 1321.92-340.80C1314.72-339.36 1278.24-254.88 1258.08-193.92C1236.96-130.56 1223.04-65.28 1224.48-24C1225.44-1.92 1229.28 4.32 1236.00 7.68ZM1382.40-144C1381.44-147.36 1377.12-146.88 1376.16-143.52C1367.04-119.04 1345.92-88.32 1334.40-84C1326.72-81.12 1320.00-99.36 1325.76-124.32C1329.12-139.68 1329.12-140.16 1335.84-139.20C1343.04-138.24 1347.36-140.64 1351.20-146.88C1360.80-161.76 1346.40-173.28 1334.40-160.32C1327.68-153.12 1324.80-147.84 1320.96-133.92C1314.72-110.88 1315.68-89.76 1323.36-82.08C1332.48-72.96 1346.88-81.12 1363.20-104.64C1372.32-118.08 1383.36-141.12 1382.40-144ZM1345.92-159.36C1348.80-158.40 1348.80-155.04 1344.96-150.24C1341.60-145.92 1336.80-144.96 1335.36-148.80C1334.40-152.16 1342.56-160.80 1345.92-159.36ZM1371.36-81.60C1374.72-79.20 1375.20-79.20 1378.08-81.12C1381.92-83.52 1384.80-87.84 1396.32-108.96C1405.92-127.20 1417.44-141.60 1418.88-137.76L1422.72-126.72C1429.92-106.08 1442.88-99.84 1460.16-108.48C1470.24-113.28 1473.60-117.12 1471.20-120.48C1468.80-123.36 1468.32-123.36 1458.24-117.12C1453.44-114.24 1447.68-111.84 1445.28-111.84C1440-111.84 1432.80-120 1429.44-130.56C1425.12-144 1423.20-146.88 1418.40-146.88C1416.48-146.88 1413.12-145.92 1411.20-144.48C1406.40-141.12 1395.84-125.76 1385.76-107.52C1381.44-98.88 1376.64-91.20 1375.68-90.24C1373.76-88.32 1375.20-105.12 1378.56-130.08C1380.96-144.96 1381.44-147.36 1384.32-148.32C1389.12-150.24 1389.60-153.12 1387.68-159.84C1384.80-168.48 1379.04-169.92 1376.16-162.72C1373.76-156 1368-114.24 1368-99.36C1367.52-85.44 1368-84.48 1371.36-81.60Z" fill="#000000"/>
  </g>
</svg>