<svg width="696" height="613" viewBox="0 0 696 613" xmlns="http://www.w3.org/2000/svg">
  <g transform="translate(7.054975482120319, 398.45)">
    <path d="M350.88-351.36C341.76-381.12 324-384.48 291.84-362.40C253.92-336 208.32-279.36 168.96-208.80C157.44-188.16 136.80-147.36 130.56-132.96C128.16-127.68 125.76-123.84 121.44-121.44C118.08-119.04 115.68-118.08 115.68-119.04L123.36-143.04C135.36-179.52 164.16-249.60 187.68-299.52C194.88-315.36 197.76-319.68 200.16-320.16C206.40-321.12 205.44-335.04 199.20-335.04C194.88-335.04 193.92-334.08 177.60-299.52C145.44-232.32 120.48-168.96 106.08-119.52C103.20-108.48 102.24-107.04 95.04-101.28C81.60-90.72 53.76-62.40 41.28-46.56C11.04-8.16-0.96 22.56 7.68 40.32C11.52 48 17.28 52.80 26.40 55.68C49.92 62.88 91.68 50.88 127.20 27.36C209.28-27.84 298.08-131.52 333.12-214.08C355.20-266.40 361.44-314.88 350.88-351.36ZM334.08-239.52C309.12-166.08 233.76-67.68 151.20-1.44C118.56 24.96 90.72 39.84 62.40 46.56C41.76 51.36 22.08 48.48 16.32 39.36C12.96 34.08 12 25.92 13.92 17.76C16.80 6.24 29.76-17.28 42.72-34.56C54.72-50.40 79.68-77.76 92.64-88.80L99.36-94.56L96-79.68C91.20-60.48 89.76-45.60 92.64-42.72C95.04-39.36 98.88-39.84 102.24-42.72C103.20-44.16 111.36-62.40 119.52-82.56C132-112.32 135.84-120.48 139.68-123.84C146.40-129.60 180.96-146.40 197.76-151.68C218.40-158.88 233.76-161.28 245.28-160.32C253.44-159.36 255.36-159.84 257.28-161.76C258.72-163.68 258.72-164.64 257.28-166.56C255.84-168 252-168.48 242.88-168.48C219.84-168.48 192-160.32 160.80-144.96C150.72-140.16 142.56-136.32 142.56-136.32C142.56-138.72 177.12-204.96 187.20-222.24C230.40-293.28 276.96-346.56 310.56-362.88C328.80-371.52 335.52-369.12 341.28-351.36C351.36-321.12 348.96-282.72 334.08-239.52ZM110.88-99.36C111.84-102.72 113.76-106.08 116.64-108.48L121.44-111.84L119.04-105.60L110.88-86.88C102.72-66.24 102.72-67.68 110.88-99.36ZM675.36-376.80C670.56-385.92 639.36-386.88 606.72-378.24C532.32-359.52 439.68-312 372.96-257.28C358.08-244.80 352.32-237.60 352.32-231.36C352.32-222.24 366.72-220.80 398.88-226.56C415.20-229.44 438.24-229.44 444.96-226.56C447.36-225.60 451.20-223.20 452.64-221.28C456.96-216.48 455.52-203.52 448.32-189.60C442.56-177.12 441.60-173.76 445.44-171.36C449.28-169.44 451.20-170.88 455.04-178.08C463.20-193.44 466.56-205.44 465.60-218.88C465.60-225.12 456-233.76 445.92-237.12C435.84-240 414.72-240 397.92-237.12C391.20-235.68 380.16-234.72 373.92-234.24L361.92-233.28L371.04-241.44C380.64-250.56 412.32-275.04 428.64-285.60C499.68-333.60 592.80-371.52 644.64-374.40C663.36-375.84 667.68-373.92 666.72-365.76C666.24-359.04 670.56-355.68 674.88-359.52C677.28-362.40 677.76-372.48 675.36-376.80ZM566.88-319.20C533.28-265.92 501.12-199.68 480.48-144L474.24-126.72L457.92-120C434.88-110.40 401.28-93.12 397.44-88.80C392.16-82.08 397.92-76.80 404.64-83.04C413.76-90.72 467.04-117.12 469.44-115.20C469.44-114.72 465.60-100.80 459.84-84C437.76-14.40 422.88 61.44 429.60 68.64C433.92 72.96 439.20 68.64 445.44 56.16C450.72 43.68 451.68 37.44 448.32 36C444.96 35.04 443.04 37.44 438.72 47.04C434.88 58.08 434.40 54.72 438.24 32.64C444.48-5.28 452.16-35.04 468-84L479.52-120L490.56-123.84C507.84-130.08 540.96-138.24 554.40-139.20C566.40-140.16 566.88-140.16 566.40-136.80C565.92-134.40 566.88-132.48 568.80-131.52C570.72-130.08 572.16-130.56 575.04-133.92C579.36-138.72 578.40-142.56 572.64-145.92C565.44-149.76 528-144 497.28-134.40C490.56-132 484.80-130.56 484.32-131.04C483.36-131.52 498.72-169.92 509.28-194.88C534.72-252.96 584.16-338.40 593.76-340.32C598.08-341.28 599.52-345.60 597.12-348.96C591.84-355.20 584.64-348.48 566.88-319.20Z" fill="#000000"/>
  </g>
</svg>