<svg width="979" height="613" viewBox="0 0 979 613" xmlns="http://www.w3.org/2000/svg">
  <g transform="translate(7.054975482120319, 398.45)">
    <path d="M350.88-351.36C341.76-381.12 324-384.48 291.84-362.40C253.92-336 208.32-279.36 168.96-208.80C157.44-188.16 136.80-147.36 130.56-132.96C128.16-127.68 125.76-123.84 121.44-121.44C118.08-119.04 115.68-118.08 115.68-119.04L123.36-143.04C135.36-179.52 164.16-249.60 187.68-299.52C194.88-315.36 197.76-319.68 200.16-320.16C206.40-321.12 205.44-335.04 199.20-335.04C194.88-335.04 193.92-334.08 177.60-299.52C145.44-232.32 120.48-168.96 106.08-119.52C103.20-108.48 102.24-107.04 95.04-101.28C81.60-90.72 53.76-62.40 41.28-46.56C11.04-8.16-0.96 22.56 7.68 40.32C11.52 48 17.28 52.80 26.40 55.68C49.92 62.88 91.68 50.88 127.20 27.36C209.28-27.84 298.08-131.52 333.12-214.08C355.20-266.40 361.44-314.88 350.88-351.36ZM334.08-239.52C309.12-166.08 233.76-67.68 151.20-1.44C118.56 24.96 90.72 39.84 62.40 46.56C41.76 51.36 22.08 48.48 16.32 39.36C12.96 34.08 12 25.92 13.92 17.76C16.80 6.24 29.76-17.28 42.72-34.56C54.72-50.40 79.68-77.76 92.64-88.80L99.36-94.56L96-79.68C91.20-60.48 89.76-45.60 92.64-42.72C95.04-39.36 98.88-39.84 102.24-42.72C103.20-44.16 111.36-62.40 119.52-82.56C132-112.32 135.84-120.48 139.68-123.84C146.40-129.60 180.96-146.40 197.76-151.68C218.40-158.88 233.76-161.28 245.28-160.32C253.44-159.36 255.36-159.84 257.28-161.76C258.72-163.68 258.72-164.64 257.28-166.56C255.84-168 252-168.48 242.88-168.48C219.84-168.48 192-160.32 160.80-144.96C150.72-140.16 142.56-136.32 142.56-136.32C142.56-138.72 177.12-204.96 187.20-222.24C230.40-293.28 276.96-346.56 310.56-362.88C328.80-371.52 335.52-369.12 341.28-351.36C351.36-321.12 348.96-282.72 334.08-239.52ZM110.88-99.36C111.84-102.72 113.76-106.08 116.64-108.48L121.44-111.84L119.04-105.60L110.88-86.88C102.72-66.24 102.72-67.68 110.88-99.36ZM415.68-95.04C418.56-91.68 425.28-91.68 431.04-96C437.76-100.32 470.40-142.08 469.92-144.96C469.92-146.40 468.48-147.84 467.04-147.84C465.12-148.32 460.32-143.04 451.20-130.56C430.08-101.76 422.88-95.52 419.52-102.72C419.04-104.16 418.08-118.08 417.60-133.44C416.64-164.16 415.68-166.56 408-166.56C400.80-166.56 387.84-152.16 358.56-113.76C354.24-108 349.92-103.20 349.44-103.20C346.56-103.20 348-114.72 352.32-132.96C358.08-156.96 360.48-164.64 364.80-167.52C369.12-171.36 367.20-175.68 361.44-175.68C358.56-175.68 356.16-174.24 354.72-171.84C351.84-167.52 342.72-132.48 340.32-115.20C338.40-103.68 338.40-102.72 341.28-98.88C348.48-89.76 353.28-93.12 372.96-119.52C380.64-129.12 391.20-142.08 396.96-148.32L407.52-159.36L408.48-132.96C409.44-107.04 410.88-100.32 415.68-95.04ZM520.80-144C519.84-147.36 515.52-146.88 514.56-143.52C505.44-119.04 484.32-88.32 472.80-84C465.12-81.12 458.40-99.36 464.16-124.32C467.52-139.68 467.52-140.16 474.24-139.20C481.44-138.24 485.76-140.64 489.60-146.88C499.20-161.76 484.80-173.28 472.80-160.32C466.08-153.12 463.20-147.84 459.36-133.92C453.12-110.88 454.08-89.76 461.76-82.08C470.88-72.96 485.28-81.12 501.60-104.64C510.72-118.08 521.76-141.12 520.80-144ZM484.32-159.36C487.20-158.40 487.20-155.04 483.36-150.24C480-145.92 475.20-144.96 473.76-148.80C472.80-152.16 480.96-160.80 484.32-159.36ZM958.08-376.80C953.28-385.92 922.08-386.88 889.44-378.24C815.04-359.52 722.40-312 655.68-257.28C640.80-244.80 635.04-237.60 635.04-231.36C635.04-222.24 649.44-220.80 681.60-226.56C697.92-229.44 720.96-229.44 727.68-226.56C730.08-225.60 733.92-223.20 735.36-221.28C739.68-216.48 738.24-203.52 731.04-189.60C725.28-177.12 724.32-173.76 728.16-171.36C732.00-169.44 733.92-170.88 737.76-178.08C745.92-193.44 749.28-205.44 748.32-218.88C748.32-225.12 738.72-233.76 728.64-237.12C718.56-240 697.44-240 680.64-237.12C673.92-235.68 662.88-234.72 656.64-234.24L644.64-233.28L653.76-241.44C663.36-250.56 695.04-275.04 711.36-285.60C782.40-333.60 875.52-371.52 927.36-374.40C946.08-375.84 950.40-373.92 949.44-365.76C948.96-359.04 953.28-355.68 957.60-359.52C960.00-362.40 960.48-372.48 958.08-376.80ZM849.60-319.20C816.00-265.92 783.84-199.68 763.20-144L756.96-126.72L740.64-120C717.60-110.40 684.00-93.12 680.16-88.80C674.88-82.08 680.64-76.80 687.36-83.04C696.48-90.72 749.76-117.12 752.16-115.20C752.16-114.72 748.32-100.80 742.56-84C720.48-14.40 705.60 61.44 712.32 68.64C716.64 72.96 721.92 68.64 728.16 56.16C733.44 43.68 734.40 37.44 731.04 36C727.68 35.04 725.76 37.44 721.44 47.04C717.60 58.08 717.12 54.72 720.96 32.64C727.20-5.28 734.88-35.04 750.72-84L762.24-120L773.28-123.84C790.56-130.08 823.68-138.24 837.12-139.20C849.12-140.16 849.60-140.16 849.12-136.80C848.64-134.40 849.60-132.48 851.52-131.52C853.44-130.08 854.88-130.56 857.76-133.92C862.08-138.72 861.12-142.56 855.36-145.92C848.16-149.76 810.72-144 780.00-134.40C773.28-132 767.52-130.56 767.04-131.04C766.08-131.52 781.44-169.92 792.00-194.88C817.44-252.96 866.88-338.40 876.48-340.32C880.80-341.28 882.24-345.60 879.84-348.96C874.56-355.20 867.36-348.48 849.60-319.20ZM872.16-68.16C876.00-64.32 879.36-64.32 883.20-67.68C887.04-71.04 886.56-75.36 881.28-80.64C875.52-85.44 875.52-85.44 872.16-82.08C868.32-78.72 868.32-72 872.16-68.16Z" fill="#000000"/>
  </g>
</svg>