<svg width="1199" height="613" viewBox="0 0 1199 613" xmlns="http://www.w3.org/2000/svg">
  <g transform="translate(7.2, 398.45)">
    <path d="M327.84-376.80C323.04-385.92 291.84-386.88 259.20-378.24C184.80-359.52 92.16-312 25.44-257.28C10.56-244.80 4.80-237.60 4.80-231.36C4.80-222.24 19.20-220.80 51.36-226.56C67.68-229.44 90.72-229.44 97.44-226.56C99.84-225.60 103.68-223.20 105.12-221.28C109.44-216.48 108-203.52 100.80-189.60C95.04-177.12 94.08-173.76 97.92-171.36C101.76-169.44 103.68-170.88 107.52-178.08C115.68-193.44 119.04-205.44 118.08-218.88C118.08-225.12 108.48-233.76 98.40-237.12C88.32-240 67.20-240 50.40-237.12C43.68-235.68 32.64-234.72 26.40-234.24L14.40-233.28L23.52-241.44C33.12-250.56 64.80-275.04 81.12-285.60C152.16-333.60 245.28-371.52 297.12-374.40C315.84-375.84 320.16-373.92 319.20-365.76C318.72-359.04 323.04-355.68 327.36-359.52C329.76-362.40 330.24-372.48 327.84-376.80ZM219.36-319.20C185.76-265.92 153.60-199.68 132.96-144L126.72-126.72L110.40-120C87.36-110.40 53.76-93.12 49.92-88.80C44.64-82.08 50.40-76.80 57.12-83.04C66.24-90.72 119.52-117.12 121.92-115.20C121.92-114.72 118.08-100.80 112.32-84C90.24-14.40 75.36 61.44 82.08 68.64C86.40 72.96 91.68 68.64 97.92 56.16C103.20 43.68 104.16 37.44 100.80 36C97.44 35.04 95.52 37.44 91.20 47.04C87.36 58.08 86.88 54.72 90.72 32.64C96.96-5.28 104.64-35.04 120.48-84L132-120L143.04-123.84C160.32-130.08 193.44-138.24 206.88-139.20C218.88-140.16 219.36-140.16 218.88-136.80C218.40-134.40 219.36-132.48 221.28-131.52C223.20-130.08 224.64-130.56 227.52-133.92C231.84-138.72 230.88-142.56 225.12-145.92C217.92-149.76 180.48-144 149.76-134.40C143.04-132 137.28-130.56 136.80-131.04C135.84-131.52 151.20-169.92 161.76-194.88C187.20-252.96 236.64-338.40 246.24-340.32C250.56-341.28 252-345.60 249.60-348.96C244.32-355.20 237.12-348.48 219.36-319.20ZM291.84-144C290.88-147.36 286.56-146.88 285.60-143.52C276.48-119.04 255.36-88.32 243.84-84C236.16-81.12 229.44-99.36 235.20-124.32C238.56-139.68 238.56-140.16 245.28-139.20C252.48-138.24 256.80-140.64 260.64-146.88C270.24-161.76 255.84-173.28 243.84-160.32C237.12-153.12 234.24-147.84 230.40-133.92C224.16-110.88 225.12-89.76 232.80-82.08C241.92-72.96 256.32-81.12 272.64-104.64C281.76-118.08 292.80-141.12 291.84-144ZM255.36-159.36C258.24-158.40 258.24-155.04 254.40-150.24C251.04-145.92 246.24-144.96 244.80-148.80C243.84-152.16 252.00-160.80 255.36-159.36ZM465.12-128.16C463.68-128.64 454.56-122.88 444.48-115.68C410.88-92.16 400.32-88.32 393.12-96L389.28-99.84L393.60-122.88C403.68-183.36 407.04-228.48 401.76-231.84C393.60-237.12 383.04-215.52 378.24-183.84C375.36-164.16 375.36-119.04 378.24-108C380.16-101.28 380.16-98.88 377.76-89.76C373.44-74.40 369.12-63.36 364.32-57.60C360.96-53.28 360.00-52.80 357.12-54.72C351.84-57.12 342.24-78.72 337.92-96.96C332.64-118.08 330.72-131.52 329.76-153.60C328.80-171.84 328.80-171.84 324.96-171.84C319.68-171.84 316.32-164.64 303.84-126.72C298.08-110.40 292.80-97.44 292.32-98.40C291.84-99.36 291.36-116.64 291.84-137.28C292.32-172.80 291.84-174.72 289.44-175.20C283.20-176.64 282.72-172.32 282.72-137.28C282.72-96.48 284.16-84 288.96-79.68C294.72-74.88 297.60-78.72 306.24-106.08C310.56-120 315.36-135.84 317.76-141.60L321.60-152.16L322.56-137.28C323.52-119.52 329.28-88.80 334.56-73.92C339.84-60.96 344.16-53.76 350.40-48C353.28-46.08 356.64-44.16 358.56-44.16C368.16-44.16 377.76-56.64 384.00-77.28C386.88-88.80 387.36-89.28 390.24-87.36C395.52-83.52 407.52-84.48 416.64-88.32C420.48-90.72 433.92-98.40 445.92-106.56C462.72-118.08 466.56-121.92 466.56-124.32C466.56-125.76 466.56-128.16 465.12-128.16ZM384.00-122.88C382.56-120.96 385.44-176.64 387.36-188.16C389.28-199.20 395.52-219.84 396.48-218.88C397.44-217.92 394.08-186.72 389.76-156C386.88-138.24 384.48-122.88 384.00-122.88ZM932.16-351.36C923.04-381.12 905.28-384.48 873.12-362.40C835.20-336 789.60-279.36 750.24-208.80C738.72-188.16 718.08-147.36 711.84-132.96C709.44-127.68 707.04-123.84 702.72-121.44C699.36-119.04 696.96-118.08 696.96-119.04L704.64-143.04C716.64-179.52 745.44-249.60 768.96-299.52C776.16-315.36 779.04-319.68 781.44-320.16C787.68-321.12 786.72-335.04 780.48-335.04C776.16-335.04 775.20-334.08 758.88-299.52C726.72-232.32 701.76-168.96 687.36-119.52C684.48-108.48 683.52-107.04 676.32-101.28C662.88-90.72 635.04-62.40 622.56-46.56C592.32-8.16 580.32 22.56 588.96 40.32C592.80 48 598.56 52.80 607.68 55.68C631.20 62.88 672.96 50.88 708.48 27.36C790.56-27.84 879.36-131.52 914.40-214.08C936.48-266.40 942.72-314.88 932.16-351.36ZM915.36-239.52C890.40-166.08 815.04-67.68 732.48-1.44C699.84 24.96 672 39.84 643.68 46.56C623.04 51.36 603.36 48.48 597.60 39.36C594.24 34.08 593.28 25.92 595.20 17.76C598.08 6.24 611.04-17.28 624-34.56C636-50.40 660.96-77.76 673.92-88.80L680.64-94.56L677.28-79.68C672.48-60.48 671.04-45.60 673.92-42.72C676.32-39.36 680.16-39.84 683.52-42.72C684.48-44.16 692.64-62.40 700.80-82.56C713.28-112.32 717.12-120.48 720.96-123.84C727.68-129.60 762.24-146.40 779.04-151.68C799.68-158.88 815.04-161.28 826.56-160.32C834.72-159.36 836.64-159.84 838.56-161.76C840-163.68 840-164.64 838.56-166.56C837.12-168 833.28-168.48 824.16-168.48C801.12-168.48 773.28-160.32 742.08-144.96C732-140.16 723.84-136.32 723.84-136.32C723.84-138.72 758.40-204.96 768.48-222.24C811.68-293.28 858.24-346.56 891.84-362.88C910.08-371.52 916.80-369.12 922.56-351.36C932.64-321.12 930.24-282.72 915.36-239.52ZM692.16-99.36C693.12-102.72 695.04-106.08 697.92-108.48L702.72-111.84L700.32-105.60L692.16-86.88C684-66.24 684-67.68 692.16-99.36ZM990.72-144C988.80-146.40 989.76-147.36 976.32-128.64C972-122.40 964.80-114.72 960.48-110.88C947.04-99.84 938.88-102.72 934.08-120C930.72-130.56 931.20-134.88 934.56-138.24C936.96-140.16 937.44-141.60 936-144C934.08-147.36 929.76-147.84 926.88-144.48C924.48-141.12 925.92-122.88 929.76-114.24C931.68-110.88 934.56-106.08 936.96-103.68C941.76-98.88 951.36-98.40 958.56-103.20C966.24-108 984.48-127.20 988.80-135.36C992.16-141.12 992.16-142.56 990.72-144ZM929.76-174.72C934.08-171.36 936.96-172.80 937.44-179.04C937.92-185.76 934.56-187.68 930.24-183.84C926.40-180.48 926.40-177.12 929.76-174.72ZM1045.92-144C1044.96-147.36 1040.64-146.88 1039.68-143.52C1030.56-119.04 1009.44-88.32 997.92-84C990.24-81.12 983.52-99.36 989.28-124.32C992.64-139.68 992.64-140.16 999.36-139.20C1006.56-138.24 1010.88-140.64 1014.72-146.88C1024.32-161.76 1009.92-173.28 997.92-160.32C991.20-153.12 988.32-147.84 984.48-133.92C978.24-110.88 979.20-89.76 986.88-82.08C996.00-72.96 1010.40-81.12 1026.72-104.64C1035.84-118.08 1046.88-141.12 1045.92-144ZM1009.44-159.36C1012.32-158.40 1012.32-155.04 1008.48-150.24C1005.12-145.92 1000.32-144.96 998.88-148.80C997.92-152.16 1006.08-160.80 1009.44-159.36ZM1171.20-15.36C1166.88-11.52 1156.32-7.68 1150.08-7.68C1132.32-7.68 1123.68-24.96 1122.24-66.72C1119.84-122.88 1131.84-188.64 1161.60-282.24C1176.00-327.36 1176.96-334.08 1170.24-334.08C1165.92-334.08 1158.24-324 1143.84-301.44C1122.72-266.88 1096.80-218.40 1079.52-179.04L1073.76-165.60L1066.56-166.08C1059.84-166.56 1059.36-166.08 1051.68-157.92C1038.72-144.96 1029.60-122.88 1032.96-110.88C1034.40-105.12 1037.76-103.68 1043.04-106.56C1048.80-109.44 1056.00-119.04 1064.64-135.36C1070.88-146.88 1070.88-147.36 1071.84-142.56C1073.28-136.32 1074.72-134.40 1077.60-134.40C1084.32-134.40 1084.80-140.16 1080.00-155.04L1078.08-161.76L1087.68-183.36C1099.20-208.32 1120.32-249.60 1133.28-271.20C1143.84-289.92 1164.00-321.12 1164.48-320.16C1164.96-319.68 1160.16-303.36 1154.40-283.68C1128.48-201.60 1117.92-147.36 1116.00-90.24C1114.56-37.44 1122.72-9.60 1142.40-3.36C1145.28-2.40 1151.04-1.92 1154.88-2.40C1163.52-3.36 1177.92-10.56 1178.88-13.92C1179.36-18.24 1175.04-19.20 1171.20-15.36ZM1058.88-137.28C1047.84-118.08 1039.20-108 1037.76-112.32C1035.36-119.04 1044.00-140.16 1055.04-151.20C1061.28-158.40 1068.96-161.28 1068.96-156.48C1068.96-155.52 1064.16-146.88 1058.88-137.28Z" fill="#000000"/>
  </g>
</svg>