<svg width="1093" height="456" viewBox="0 0 1093 456" xmlns="http://www.w3.org/2000/svg">
  <g transform="translate(0.72226984775061, 296.40000000000003)">
    <path d="M134.40-238.56C130.08-236.64 130.08-233.28 125.28-219.36C103.20-158.40 101.28-145.44 100.32-144.48C99.36-144 84.48-143.04 70.08-139.20C57.60-136.32 13.44-121.92 14.88-108.96C15.36-105.12 18.72-102.24 22.56-102.24C24.48-102.24 26.40-103.20 28.32-104.64C35.52-110.88 78.72-126.24 94.08-126.24C95.52-126.24 95.52-127.68 93.60-119.52C84.96-88.80 64.80-4.80 62.40 27.36C61.44 40.80 67.20 46.56 72.48 46.56C75.36 46.56 78.24 45.12 79.68 41.76C83.04 34.08 68.64 44.16 108-107.52C113.76-129.12 113.28-128.64 114.24-128.64C114.72-128.64 119.52-129.12 124.32-129.60C138.24-130.56 150.24-131.04 159.84-131.04C203.52-131.04 208.80-122.40 214.56-122.40C221.76-122.40 228-132.96 212.16-140.64C200.16-146.40 179.04-147.84 159.84-147.84C138.24-147.84 119.52-145.92 119.04-146.40C118.56-147.36 138.24-204.48 144-227.04C146.40-235.68 141.60-239.04 137.28-239.04C136.32-239.04 135.36-239.04 134.40-238.56ZM286.56-264C305.28-264 323.52-263.04 324.96-258.72C325.92-254.88 328.80-252.96 332.16-252.96C335.04-252.96 337.92-254.40 339.84-258.24C342.24-263.04 340.80-268.32 335.52-271.68C326.40-278.40 308.64-281.28 286.08-281.28C192.96-281.28 17.28-233.76 16.80-233.28C12.48-231.36 10.56-227.04 11.52-223.68C12.96-219.36 15.84-217.92 19.68-217.92C22.08-217.92 25.44-218.88 28.32-219.36C36-221.28 186.72-257.76 249.60-263.04C253.44-263.04 270.24-264 286.56-264ZM309.12-187.68C304.32-187.68 298.56-185.76 291.36-180.96C256.80-157.92 236.16-86.40 277.92-78.24C279.36-77.76 281.28-77.76 282.72-77.76C305.28-77.76 341.76-109.92 358.56-126.72C365.76-133.44 366.72-140.64 352.80-144C328.32-122.88 306.72-102.24 290.40-96C288.48-95.52 286.08-95.04 284.16-95.04C279.36-95.04 275.04-96.96 273.12-100.80C270.72-107.52 273.12-125.28 273.60-125.28C273.60-125.28 275.04-124.80 276-123.84C277.92-122.88 279.84-122.40 281.76-122.40C296.16-122.40 318.24-140.64 324-159.84C327.84-172.32 323.04-187.68 309.12-187.68ZM308.16-168C308.16-158.40 289.92-138.24 282.24-138.24C281.76-138.24 281.28-138.72 280.80-138.72C280.32-139.20 279.36-139.68 279.36-139.68C279.36-140.64 283.68-147.36 287.04-152.64C297.60-167.04 307.68-170.40 308.16-170.40ZM371.52-73.92C376.80-81.60 404.64-134.40 405.12-134.40C405.60-133.92 405.12-119.52 406.08-97.92C406.56-85.92 408-65.76 419.52-62.40C420.48-62.40 421.44-61.92 422.40-61.92C436.80-61.92 444.48-89.76 452.64-114.24C464.16-149.76 487.68-194.88 495.84-206.88C501.12-215.04 501.12-218.88 497.28-222.24C495.84-223.68 493.92-224.16 492.48-224.16C476.16-224.16 442.08-138.24 435.84-118.08C431.04-103.68 424.80-86.88 424.32-86.88C421.92-86.88 423.36-159.36 420.96-166.08C419.52-169.44 415.20-172.32 411.84-172.32C404.16-172.32 400.32-161.76 381.60-127.20C372.96-111.36 364.80-96.96 364.80-97.44C364.80-99.84 370.08-160.32 370.08-160.32C371.52-165.12 367.20-168.96 362.88-168.96C361.92-168.96 360.96-168.96 360-168.48C353.76-165.60 354.72-161.76 350.88-134.88C348.96-120 347.04-94.08 347.52-82.56C347.52-74.88 348.48-63.84 358.56-63.84C363.36-63.84 368.16-68.16 371.52-73.92ZM752.64-282.24C675.36-282.24 567.36-209.76 573.12-157.44C574.56-141.60 585.12-133.44 600.48-133.44C610.08-133.44 624.96-136.80 629.76-140.16C633.60-143.04 634.08-148.32 630.24-151.68C629.28-153.12 627.84-153.60 625.92-153.60C624-153.60 621.60-153.12 617.76-151.68C612.48-150.24 605.76-149.76 600.48-149.76C584.64-151.68 588.48-167.04 596.16-180C623.52-226.56 701.28-264.96 754.56-264.96C800.64-263.52 827.04-226.56 788.64-157.44C748.80-85.44 642.72-5.76 646.08-8.16C646.08-8.16 605.76 24.96 598.08 25.44C590.40 25.92 587.04 33.12 591.84 38.88C594.24 42.24 597.12 43.20 600.48 43.20C612 43.20 626.88 29.28 631.20 25.92C684.96-14.40 740.64-60.48 776.16-108.96C804.48-147.36 838.08-203.04 818.40-245.76C806.40-271.68 781.44-282.24 752.64-282.24ZM656.16-52.32C659.52-67.68 663.36-83.04 668.16-102.24C685.44-173.28 692.64-202.08 690.72-205.44C689.28-207.84 686.88-209.28 684.48-209.28C683.04-209.28 682.08-208.80 680.64-208.32C678.24-206.88 677.28-205.44 675.84-198.24C675.84-198.24 653.76-117.60 639.36-56.64C637.44-48.96 642.24-44.64 647.04-44.64C650.88-44.64 655.20-47.04 656.16-52.32ZM904.32-144C894.72-131.52 847.68-71.04 833.76-71.04C832.80-71.04 832.32-72 831.36-74.40C824.64-91.68 834.24-138.24 839.04-156C841.92-168.96 844.32-172.32 839.52-176.16C838.08-177.12 836.16-177.60 834.72-177.60C831.84-177.60 829.44-176.16 828.00-173.28C816.96-150.72 806.40-91.20 815.52-67.68C819.36-57.60 825.60-53.76 832.32-53.76C855.36-53.76 889.92-97.92 910.08-126.72C916.80-135.84 918.24-140.16 904.32-144ZM851.04-201.60C851.04-207.36 855.36-214.08 852.96-218.88C851.52-221.28 848.64-222.24 846.24-222.24C844.32-222.24 842.88-221.76 841.44-220.80C839.04-218.88 832.32-202.56 834.72-197.76C836.16-194.40 839.52-192.48 842.40-192.48C846.72-192.48 850.56-195.84 851.04-201.60ZM950.88-187.68C946.08-187.68 940.32-185.76 933.12-180.96C898.56-157.92 877.92-86.40 919.68-78.24C921.12-77.76 923.04-77.76 924.48-77.76C947.04-77.76 983.52-109.92 1000.32-126.72C1007.52-133.44 1008.48-140.64 994.56-144C970.08-122.88 948.48-102.24 932.16-96C930.24-95.52 927.84-95.04 925.92-95.04C921.12-95.04 916.80-96.96 914.88-100.80C912.48-107.52 914.88-125.28 915.36-125.28C915.36-125.28 916.80-124.80 917.76-123.84C919.68-122.88 921.60-122.40 923.52-122.40C937.92-122.40 960.00-140.64 965.76-159.84C969.60-172.32 964.80-187.68 950.88-187.68ZM949.92-168C949.92-158.40 931.68-138.24 924.00-138.24C923.52-138.24 923.04-138.72 922.56-138.72C922.08-139.20 921.12-139.68 921.12-139.68C921.12-140.64 925.44-147.36 928.80-152.64C939.36-167.04 949.44-170.40 949.92-170.40ZM1026.72-102.72C1027.68-105.12 1028.64-107.04 1029.12-107.04C1029.12-107.04 1028.16-103.20 1025.76-90.72C1020-60 1018.56-52.80 1020-48.48C1021.44-44.16 1024.80-41.28 1028.64-41.28C1029.60-41.28 1031.04-41.76 1032-42.24C1037.28-45.12 1034.40-45.60 1041.60-80.64C1069.92-221.76 1081.44-232.80 1079.04-240.96C1078.08-244.80 1074.24-247.68 1070.40-247.68C1067.04-247.68 1063.68-245.28 1061.28-239.52C1058.88-233.28 1050.72-210.72 1046.40-197.28C1038.72-174.24 1037.28-169.44 1035.84-169.44C1035.36-169.44 1034.88-170.40 1034.40-170.88C1032.48-173.28 1028.64-175.20 1024.32-175.20C1017.12-175.20 1007.52-169.92 997.92-152.16C986.40-131.04 973.92-74.88 1001.76-74.88C1014.72-74.88 1020.96-89.76 1026.72-102.72ZM1021.44-156C1021.92-156.48 1022.40-156.96 1022.88-156.96C1023.84-156.96 1023.84-155.04 1023.84-146.88C1023.84-135.36 1024.80-139.68 1019.52-127.68C1007.04-99.36 1003.68-93.60 1002.72-93.60C1002.24-93.60 1002.24-95.04 1002.24-96C1000.32-111.84 1009.44-146.40 1021.44-156Z" fill="#000000"/>
  </g>
</svg>