<svg width="1856" height="613" viewBox="0 0 1856 613" xmlns="http://www.w3.org/2000/svg">
  <g transform="translate(7.2, 398.45)">
    <path d="M327.84-376.80C323.04-385.92 291.84-386.88 259.20-378.24C184.80-359.52 92.16-312 25.44-257.28C10.56-244.80 4.80-237.60 4.80-231.36C4.80-222.24 19.20-220.80 51.36-226.56C67.68-229.44 90.72-229.44 97.44-226.56C99.84-225.60 103.68-223.20 105.12-221.28C109.44-216.48 108-203.52 100.80-189.60C95.04-177.12 94.08-173.76 97.92-171.36C101.76-169.44 103.68-170.88 107.52-178.08C115.68-193.44 119.04-205.44 118.08-218.88C118.08-225.12 108.48-233.76 98.40-237.12C88.32-240 67.20-240 50.40-237.12C43.68-235.68 32.64-234.72 26.40-234.24L14.40-233.28L23.52-241.44C33.12-250.56 64.80-275.04 81.12-285.60C152.16-333.60 245.28-371.52 297.12-374.40C315.84-375.84 320.16-373.92 319.20-365.76C318.72-359.04 323.04-355.68 327.36-359.52C329.76-362.40 330.24-372.48 327.84-376.80ZM219.36-319.20C185.76-265.92 153.60-199.68 132.96-144L126.72-126.72L110.40-120C87.36-110.40 53.76-93.12 49.92-88.80C44.64-82.08 50.40-76.80 57.12-83.04C66.24-90.72 119.52-117.12 121.92-115.20C121.92-114.72 118.08-100.80 112.32-84C90.24-14.40 75.36 61.44 82.08 68.64C86.40 72.96 91.68 68.64 97.92 56.16C103.20 43.68 104.16 37.44 100.80 36C97.44 35.04 95.52 37.44 91.20 47.04C87.36 58.08 86.88 54.72 90.72 32.64C96.96-5.28 104.64-35.04 120.48-84L132-120L143.04-123.84C160.32-130.08 193.44-138.24 206.88-139.20C218.88-140.16 219.36-140.16 218.88-136.80C218.40-134.40 219.36-132.48 221.28-131.52C223.20-130.08 224.64-130.56 227.52-133.92C231.84-138.72 230.88-142.56 225.12-145.92C217.92-149.76 180.48-144 149.76-134.40C143.04-132 137.28-130.56 136.80-131.04C135.84-131.52 151.20-169.92 161.76-194.88C187.20-252.96 236.64-338.40 246.24-340.32C250.56-341.28 252-345.60 249.60-348.96C244.32-355.20 237.12-348.48 219.36-319.20ZM291.84-144C290.88-147.36 286.56-146.88 285.60-143.52C276.48-119.04 255.36-88.32 243.84-84C236.16-81.12 229.44-99.36 235.20-124.32C238.56-139.68 238.56-140.16 245.28-139.20C252.48-138.24 256.80-140.64 260.64-146.88C270.24-161.76 255.84-173.28 243.84-160.32C237.12-153.12 234.24-147.84 230.40-133.92C224.16-110.88 225.12-89.76 232.80-82.08C241.92-72.96 256.32-81.12 272.64-104.64C281.76-118.08 292.80-141.12 291.84-144ZM255.36-159.36C258.24-158.40 258.24-155.04 254.40-150.24C251.04-145.92 246.24-144.96 244.80-148.80C243.84-152.16 252.00-160.80 255.36-159.36ZM465.12-128.16C463.68-128.64 454.56-122.88 444.48-115.68C410.88-92.16 400.32-88.32 393.12-96L389.28-99.84L393.60-122.88C403.68-183.36 407.04-228.48 401.76-231.84C393.60-237.12 383.04-215.52 378.24-183.84C375.36-164.16 375.36-119.04 378.24-108C380.16-101.28 380.16-98.88 377.76-89.76C373.44-74.40 369.12-63.36 364.32-57.60C360.96-53.28 360.00-52.80 357.12-54.72C351.84-57.12 342.24-78.72 337.92-96.96C332.64-118.08 330.72-131.52 329.76-153.60C328.80-171.84 328.80-171.84 324.96-171.84C319.68-171.84 316.32-164.64 303.84-126.72C298.08-110.40 292.80-97.44 292.32-98.40C291.84-99.36 291.36-116.64 291.84-137.28C292.32-172.80 291.84-174.72 289.44-175.20C283.20-176.64 282.72-172.32 282.72-137.28C282.72-96.48 284.16-84 288.96-79.68C294.72-74.88 297.60-78.72 306.24-106.08C310.56-120 315.36-135.84 317.76-141.60L321.60-152.16L322.56-137.28C323.52-119.52 329.28-88.80 334.56-73.92C339.84-60.96 344.16-53.76 350.40-48C353.28-46.08 356.64-44.16 358.56-44.16C368.16-44.16 377.76-56.64 384.00-77.28C386.88-88.80 387.36-89.28 390.24-87.36C395.52-83.52 407.52-84.48 416.64-88.32C420.48-90.72 433.92-98.40 445.92-106.56C462.72-118.08 466.56-121.92 466.56-124.32C466.56-125.76 466.56-128.16 465.12-128.16ZM384.00-122.88C382.56-120.96 385.44-176.64 387.36-188.16C389.28-199.20 395.52-219.84 396.48-218.88C397.44-217.92 394.08-186.72 389.76-156C386.88-138.24 384.48-122.88 384.00-122.88ZM909.12-376.80C904.32-385.92 873.12-386.88 840.48-378.24C766.08-359.52 673.44-312 606.72-257.28C591.84-244.80 586.08-237.60 586.08-231.36C586.08-222.24 600.48-220.80 632.64-226.56C648.96-229.44 672-229.44 678.72-226.56C681.12-225.60 684.96-223.20 686.40-221.28C690.72-216.48 689.28-203.52 682.08-189.60C676.32-177.12 675.36-173.76 679.20-171.36C683.04-169.44 684.96-170.88 688.80-178.08C696.96-193.44 700.32-205.44 699.36-218.88C699.36-225.12 689.76-233.76 679.68-237.12C669.60-240 648.48-240 631.68-237.12C624.96-235.68 613.92-234.72 607.68-234.24L595.68-233.28L604.80-241.44C614.40-250.56 646.08-275.04 662.40-285.60C733.44-333.60 826.56-371.52 878.40-374.40C897.12-375.84 901.44-373.92 900.48-365.76C900-359.04 904.32-355.68 908.64-359.52C911.04-362.40 911.52-372.48 909.12-376.80ZM800.64-319.20C767.04-265.92 734.88-199.68 714.24-144L708-126.72L691.68-120C668.64-110.40 635.04-93.12 631.20-88.80C625.92-82.08 631.68-76.80 638.40-83.04C647.52-90.72 700.80-117.12 703.20-115.20C703.20-114.72 699.36-100.80 693.60-84C671.52-14.40 656.64 61.44 663.36 68.64C667.68 72.96 672.96 68.64 679.20 56.16C684.48 43.68 685.44 37.44 682.08 36C678.72 35.04 676.80 37.44 672.48 47.04C668.64 58.08 668.16 54.72 672 32.64C678.24-5.28 685.92-35.04 701.76-84L713.28-120L724.32-123.84C741.60-130.08 774.72-138.24 788.16-139.20C800.16-140.16 800.64-140.16 800.16-136.80C799.68-134.40 800.64-132.48 802.56-131.52C804.48-130.08 805.92-130.56 808.80-133.92C813.12-138.72 812.16-142.56 806.40-145.92C799.20-149.76 761.76-144 731.04-134.40C724.32-132 718.56-130.56 718.08-131.04C717.12-131.52 732.48-169.92 743.04-194.88C768.48-252.96 817.92-338.40 827.52-340.32C831.84-341.28 833.28-345.60 830.88-348.96C825.60-355.20 818.40-348.48 800.64-319.20ZM873.12-144C872.16-147.36 867.84-146.88 866.88-143.52C857.76-119.04 836.64-88.32 825.12-84C817.44-81.12 810.72-99.36 816.48-124.32C819.84-139.68 819.84-140.16 826.56-139.20C833.76-138.24 838.08-140.64 841.92-146.88C851.52-161.76 837.12-173.28 825.12-160.32C818.40-153.12 815.52-147.84 811.68-133.92C805.44-110.88 806.40-89.76 814.08-82.08C823.20-72.96 837.60-81.12 853.92-104.64C863.04-118.08 874.08-141.12 873.12-144ZM836.64-159.36C839.52-158.40 839.52-155.04 835.68-150.24C832.32-145.92 827.52-144.96 826.08-148.80C825.12-152.16 833.28-160.80 836.64-159.36ZM1046.40-128.16C1044.96-128.64 1035.84-122.88 1025.76-115.68C992.16-92.16 981.60-88.32 974.40-96L970.56-99.84L974.88-122.88C984.96-183.36 988.32-228.48 983.04-231.84C974.88-237.12 964.32-215.52 959.52-183.84C956.64-164.16 956.64-119.04 959.52-108C961.44-101.28 961.44-98.88 959.04-89.76C954.72-74.40 950.40-63.36 945.60-57.60C942.24-53.28 941.28-52.80 938.40-54.72C933.12-57.12 923.52-78.72 919.20-96.96C913.92-118.08 912-131.52 911.04-153.60C910.08-171.84 910.08-171.84 906.24-171.84C900.96-171.84 897.60-164.64 885.12-126.72C879.36-110.40 874.08-97.44 873.60-98.40C873.12-99.36 872.64-116.64 873.12-137.28C873.60-172.80 873.12-174.72 870.72-175.20C864.48-176.64 864-172.32 864-137.28C864-96.48 865.44-84 870.24-79.68C876-74.88 878.88-78.72 887.52-106.08C891.84-120 896.64-135.84 899.04-141.60L902.88-152.16L903.84-137.28C904.80-119.52 910.56-88.80 915.84-73.92C921.12-60.96 925.44-53.76 931.68-48C934.56-46.08 937.92-44.16 939.84-44.16C949.44-44.16 959.04-56.64 965.28-77.28C968.16-88.80 968.64-89.28 971.52-87.36C976.80-83.52 988.80-84.48 997.92-88.32C1001.76-90.72 1015.20-98.40 1027.20-106.56C1044-118.08 1047.84-121.92 1047.84-124.32C1047.84-125.76 1047.84-128.16 1046.40-128.16ZM965.28-122.88C963.84-120.96 966.72-176.64 968.64-188.16C970.56-199.20 976.80-219.84 977.76-218.88C978.72-217.92 975.36-186.72 971.04-156C968.16-138.24 965.76-122.88 965.28-122.88ZM1513.44-351.36C1504.32-381.12 1486.56-384.48 1454.40-362.40C1416.48-336 1370.88-279.36 1331.52-208.80C1320.00-188.16 1299.36-147.36 1293.12-132.96C1290.72-127.68 1288.32-123.84 1284.00-121.44C1280.64-119.04 1278.24-118.08 1278.24-119.04L1285.92-143.04C1297.92-179.52 1326.72-249.60 1350.24-299.52C1357.44-315.36 1360.32-319.68 1362.72-320.16C1368.96-321.12 1368.00-335.04 1361.76-335.04C1357.44-335.04 1356.48-334.08 1340.16-299.52C1308.00-232.32 1283.04-168.96 1268.64-119.52C1265.76-108.48 1264.80-107.04 1257.60-101.28C1244.16-90.72 1216.32-62.40 1203.84-46.56C1173.60-8.16 1161.60 22.56 1170.24 40.32C1174.08 48 1179.84 52.80 1188.96 55.68C1212.48 62.88 1254.24 50.88 1289.76 27.36C1371.84-27.84 1460.64-131.52 1495.68-214.08C1517.76-266.40 1524.00-314.88 1513.44-351.36ZM1496.64-239.52C1471.68-166.08 1396.32-67.68 1313.76-1.44C1281.12 24.96 1253.28 39.84 1224.96 46.56C1204.32 51.36 1184.64 48.48 1178.88 39.36C1175.52 34.08 1174.56 25.92 1176.48 17.76C1179.36 6.24 1192.32-17.28 1205.28-34.56C1217.28-50.40 1242.24-77.76 1255.20-88.80L1261.92-94.56L1258.56-79.68C1253.76-60.48 1252.32-45.60 1255.20-42.72C1257.60-39.36 1261.44-39.84 1264.80-42.72C1265.76-44.16 1273.92-62.40 1282.08-82.56C1294.56-112.32 1298.40-120.48 1302.24-123.84C1308.96-129.60 1343.52-146.40 1360.32-151.68C1380.96-158.88 1396.32-161.28 1407.84-160.32C1416.00-159.36 1417.92-159.84 1419.84-161.76C1421.28-163.68 1421.28-164.64 1419.84-166.56C1418.40-168 1414.56-168.48 1405.44-168.48C1382.40-168.48 1354.56-160.32 1323.36-144.96C1313.28-140.16 1305.12-136.32 1305.12-136.32C1305.12-138.72 1339.68-204.96 1349.76-222.24C1392.96-293.28 1439.52-346.56 1473.12-362.88C1491.36-371.52 1498.08-369.12 1503.84-351.36C1513.92-321.12 1511.52-282.72 1496.64-239.52ZM1273.44-99.36C1274.40-102.72 1276.32-106.08 1279.20-108.48L1284.00-111.84L1281.60-105.60L1273.44-86.88C1265.28-66.24 1265.28-67.68 1273.44-99.36ZM1689.60-128.16C1688.16-128.64 1679.04-122.88 1668.96-115.68C1635.36-92.16 1624.80-88.32 1617.60-96L1613.76-99.84L1618.08-122.88C1628.16-183.36 1631.52-228.48 1626.24-231.84C1618.08-237.12 1607.52-215.52 1602.72-183.84C1599.84-164.16 1599.84-119.04 1602.72-108C1604.64-101.28 1604.64-98.88 1602.24-89.76C1597.92-74.40 1593.60-63.36 1588.80-57.60C1585.44-53.28 1584.48-52.80 1581.60-54.72C1576.32-57.12 1566.72-78.72 1562.40-96.96C1557.12-118.08 1555.20-131.52 1554.24-153.60C1553.28-171.84 1553.28-171.84 1549.44-171.84C1544.16-171.84 1540.80-164.64 1528.32-126.72C1522.56-110.40 1517.28-97.44 1516.80-98.40C1516.32-99.36 1515.84-116.64 1516.32-137.28C1516.80-172.80 1516.32-174.72 1513.92-175.20C1507.68-176.64 1507.20-172.32 1507.20-137.28C1507.20-96.48 1508.64-84 1513.44-79.68C1519.20-74.88 1522.08-78.72 1530.72-106.08C1535.04-120 1539.84-135.84 1542.24-141.60L1546.08-152.16L1547.04-137.28C1548.00-119.52 1553.76-88.80 1559.04-73.92C1564.32-60.96 1568.64-53.76 1574.88-48C1577.76-46.08 1581.12-44.16 1583.04-44.16C1592.64-44.16 1602.24-56.64 1608.48-77.28C1611.36-88.80 1611.84-89.28 1614.72-87.36C1620.00-83.52 1632.00-84.48 1641.12-88.32C1644.96-90.72 1658.40-98.40 1670.40-106.56C1687.20-118.08 1691.04-121.92 1691.04-124.32C1691.04-125.76 1691.04-128.16 1689.60-128.16ZM1608.48-122.88C1607.04-120.96 1609.92-176.64 1611.84-188.16C1613.76-199.20 1620.00-219.84 1620.96-218.88C1621.92-217.92 1618.56-186.72 1614.24-156C1611.36-138.24 1608.96-122.88 1608.48-122.88ZM1823.52 30.24C1809.12 19.20 1780.32 15.36 1747.20 20.16C1731.84 22.08 1709.76 26.40 1701.12 29.28C1698.72 29.76 1698.72 28.80 1701.12 17.28C1715.04-47.04 1737.60-110.40 1769.28-175.20C1776.48-190.56 1782.72-204 1782.72-204.96C1782.72-205.92 1781.76-207.84 1780.32-208.80C1777.44-211.20 1773.60-208.32 1757.28-190.08L1743.36-174.72L1735.68-176.64C1723.20-180.48 1711.20-174.72 1695.84-156.96C1687.68-147.84 1676.16-126.24 1674.24-116.64C1672.32-108.48 1674.72-103.20 1680.48-103.20C1686.72-103.20 1702.08-116.16 1722.24-138.24C1732.32-149.28 1741.44-158.88 1742.40-158.88C1742.88-158.88 1743.36-156.96 1743.36-154.56C1743.36-152.16 1743.84-149.76 1744.80-149.28C1745.28-148.80 1742.40-140.16 1738.08-129.60C1720.80-88.80 1702.56-33.60 1692.96 10.08C1688.16 32.64 1688.16 33.12 1683.84 34.08C1664.16 37.92 1615.20 56.16 1591.68 67.68C1557.12 84.96 1540.80 98.88 1547.04 106.08C1552.80 113.28 1593.12 102.72 1668.96 73.92C1679.52 70.08 1681.44 69.60 1681.44 71.52C1681.44 72.96 1680.48 82.56 1679.04 93.12C1675.20 120.48 1675.20 153.12 1679.04 159.36C1680.48 161.76 1682.40 164.64 1683.36 165.12C1684.32 165.12 1687.20 165.60 1690.08 165.60C1701.12 166.08 1720.32 140.64 1738.08 103.68C1753.92 70.08 1752.00 57.12 1730.40 52.32C1722.24 50.40 1704.00 51.84 1696.32 55.20C1693.92 55.68 1693.44 55.68 1693.92 53.28L1695.84 44.64C1696.80 39.36 1697.28 38.88 1704.96 36.96C1719.36 32.64 1741.92 28.32 1760.16 26.40C1782.24 24.48 1797.12 26.40 1811.04 33.12C1820.64 37.92 1824.48 41.76 1827.36 51.84C1828.80 56.64 1829.76 58.08 1832.64 58.08C1841.28 58.08 1835.04 39.36 1823.52 30.24ZM1693.92 65.76C1696.80 63.84 1715.52 60 1721.28 60C1728.48 60 1736.64 63.36 1738.56 67.20C1741.44 72 1738.08 83.04 1727.04 105.12C1715.52 128.16 1703.52 146.88 1696.32 153.12C1690.08 158.40 1687.68 157.92 1685.76 150.24C1682.88 139.20 1689.60 68.64 1693.92 65.76ZM1673.28 61.92C1667.52 64.32 1648.80 71.04 1631.52 77.28C1614.24 83.52 1592.16 90.72 1582.08 93.60L1561.92 98.88C1556.64 100.32 1559.52 97.44 1572.00 89.28C1586.88 79.68 1613.76 66.72 1634.40 59.04C1655.52 51.36 1684.80 41.76 1685.76 42.72C1685.76 42.72 1685.76 46.56 1685.28 50.88L1684.32 58.56ZM1715.04-143.04C1704.00-131.52 1692.00-119.52 1688.16-116.64C1681.44-111.84 1681.44-111.84 1682.40-115.20C1682.88-117.12 1685.76-123.36 1688.16-128.64C1700.16-151.68 1717.44-168.48 1728.96-167.52C1732.32-167.52 1734.72-166.56 1734.72-165.60ZM1755.84-175.68C1759.20-179.52 1762.08-182.88 1762.56-182.88C1763.04-182.88 1761.12-179.04 1758.24-173.76C1752.48-162.24 1753.44-162.72 1751.04-165.60C1749.60-167.52 1750.08-168.96 1755.84-175.68Z" fill="#000000"/>
  </g>
</svg>