<svg width="526" height="308" viewBox="0 0 526 308" xmlns="http://www.w3.org/2000/svg">
  <g transform="translate(36.31530099968544, 200.20000000000002)">
    <path d="M146.64-165.88C148.72-172.38 147.68-174.98 142.74-177.32C139.88-178.62 137.02-179.40 133.90-179.66C125.06-180.44 115.96-179.66 107.12-178.88C91.26-177.32 75.66-174.72 60.06-172.12C42.38-169.52 24.96-169.52 7.80-174.72C7.80-174.72 7.54-174.72 7.28-174.98C5.98-175.24 4.42-175.76 3.38-174.46C2.08-173.16 2.86-171.60 3.64-170.56C5.46-167.18 7.54-164.06 9.36-160.94C13.78-153.92 17.94-147.16 21.32-139.62C30.42-118.82 35.62-96.98 37.96-74.36C39.52-56.68 39.78-39 40.56-21.32C40.56-20.02 40.82-18.72 40.82-17.42C40.82-16.12 41.60-15.34 42.90-15.08C44.20-14.82 45.24-15.60 45.76-16.90C46.02-17.68 46.28-18.46 46.54-19.50C47.32-22.10 48.10-24.96 48.62-27.56C53.30-54.34 60.32-80.86 65-107.64C65.26-109.72 65.52-111.54 67.86-112.06C83.46-114.66 98.54-119.86 114.66-117.26C115.96-117 117.26-117.78 117.52-119.08C118.04-120.64 117.52-121.68 116.22-122.46C114.92-123.24 113.36-123.76 111.54-123.76C109.46-123.76 107.38-123.76 105.30-123.50C93.60-122.72 82.16-120.38 70.72-117.52C69.68-117.26 68.38-116.48 66.82-117.52C67.08-121.42 67.86-125.06 68.64-128.96C70.20-138.84 72.02-148.72 72.54-158.86C72.54-160.68 73.06-163.28 70.98-163.54C68.90-163.80 69.16-160.94 68.90-159.38C66.56-147.68 64.22-135.72 61.88-124.02C61.36-120.90 61.10-117.52 59.80-115.18C57.98-112.32 53.82-112.58 51.22-111.02C49.40-110.24 47.32-109.98 46.54-107.38C50.70-106.60 54.34-108.94 58.50-108.94C57.20-100.88 55.12-93.34 53.56-85.80C51.74-78.26 50.18-70.72 48.36-63.18C46.54-55.64 45.76-48.10 43.42-41.08C42.90-42.90 42.64-44.98 42.64-46.80C41.86-61.36 41.08-75.92 39-90.48C34.58-117.52 26.78-143 10.66-165.36C10.14-166.14 9.10-167.18 9.62-168.48C27.04-163.80 44.46-164.06 61.88-166.40C78.26-168.74 94.64-171.60 111.28-173.16C118.04-173.68 125.06-174.46 132.08-174.46C138.06-174.20 143.78-172.90 146.64-165.88ZM113.36-88.92C111.80-88.92 110.50-88.66 109.20-87.62C106.60-85.54 105.04-83.20 105.56-79.82C106.08-75.92 108.68-73.84 111.80-72.54C118.56-69.68 130-73.06 133.38-79.30C126.10-76.96 119.86-72.28 112.58-77.22C114.14-79.56 116.22-81.38 117-83.72C118.04-87.10 116.74-88.92 113.36-88.92ZM111.28-80.60C111.02-83.98 111.80-85.80 113.62-85.80C114.40-86.06 114.66-85.54 114.66-85.28C114.66-82.68 113.36-81.38 111.28-80.60ZM145.86-69.94C150.80-64.48 157.04-64.74 161.98-70.20C163.02-71.50 164.06-73.06 164.84-74.62C165.62-76.18 166.40-76.70 168.22-75.92C171.34-74.10 174.72-74.10 178.36-74.62C180.96-75.14 184.08-75.40 185.90-78C184.34-79.04 183.04-78 182-77.74C178.10-77.22 174.20-76.96 170.56-78.78C168.22-79.56 166.92-80.86 167.96-83.46C168.74-85.28 168.48-87.10 168.48-88.92C168.22-89.96 167.96-91.26 166.66-91.52C165.62-92.04 164.58-91.26 163.80-90.48C161.46-88.40 160.42-85.02 162.24-81.90C164.58-78.26 162.76-75.92 160.68-73.32C156.52-68.12 151.06-68.64 148.20-74.62C147.42-76.18 147.16-77.74 146.38-79.30C145.60-80.86 144.30-80.86 143.52-79.56L139.10-72.54C138.32-71.50 138.06-70.46 136.50-70.72C135.98-73.32 137.02-75.66 137.28-78L137.28-82.94C137.28-83.98 136.50-84.50 135.46-84.76C134.42-85.02 133.64-84.50 133.12-83.72C130.52-78.78 129.48-73.58 130.78-68.12C131.82-64.22 135.20-63.96 137.80-67.08C139.62-69.16 140.92-71.50 142.74-74.10ZM165.88-88.40C166.40-87.10 166.66-85.54 165.62-85.28C164.32-85.02 164.84-86.58 165.10-87.36C165.10-87.62 165.36-87.88 165.88-88.40ZM257.14-157.30C258.18-155.74 257.14-154.44 256.88-153.40C250.12-123.50 245.70-93.34 240.76-63.18C239.98-58.24 240.50-53.82 242.06-48.88C244.66-55.90 246.74-62.66 248.04-69.68C253.24-99.32 258.44-128.70 263.90-158.34C264.16-160.16 264.68-161.98 266.76-163.02C280.80-170.04 295.62-174.72 311.74-172.64C325.26-171.08 334.36-163.80 339.82-151.58C342.42-145.86 343.46-139.62 343.46-133.12C343.98-97.76 332.02-67.34 307.84-41.60C295.62-28.60 280.54-20.02 263.12-16.12C243.10-11.70 224.38-21.58 216.84-40.82C215.28-44.46 214.24-48.36 213.98-52.52C213.98-55.38 213.98-58.24 213.98-61.10C211.90-55.90 212.16-50.70 212.68-45.50C213.72-32.50 219.70-22.62 230.62-15.86C241.54-8.84 253.50-6.76 266.24-9.36C283.14-13 297.96-21.06 310.18-33.02C337.22-59.80 350.48-92.30 351-130C351-139.62 348.92-148.46 344.76-156.78C339.56-166.40 332.02-173.42 321.36-176.28C315.12-178.10 308.62-178.36 302.12-178.10C291.20-177.32 280.80-174.20 270.66-169.78C269.10-169 267.80-167.70 265.72-167.96C265.46-169.78 265.20-171.60 264.94-173.16C264.68-173.94 264.42-174.46 263.64-174.46C262.86-174.46 262.34-173.94 262.08-173.42C261.30-171.34 260.52-169.26 260-166.92C259.74-164.32 258.18-162.76 256.10-161.20C250.90-158.08 245.96-154.44 241.28-150.80C232.18-143.52 223.86-135.46 216.58-126.10C214.76-123.76 212.94-121.42 212.16-118.30C225.68-133.12 239.72-147.16 257.14-157.30ZM373.88-80.08C373.10-79.56 372.58-79.04 372.06-78.26C369.20-75.92 366.60-73.32 363.48-71.24C361.92-70.20 359.84-69.42 358.02-70.46C356.20-71.50 356.20-73.58 356.46-75.66C356.72-76.44 356.98-77.22 356.98-78C357.24-80.08 357.50-81.90 357.50-83.72C357.76-85.02 356.98-86.06 355.68-86.32C354.64-86.32 353.86-85.80 353.34-84.76C351.78-81.38 350.22-77.74 350.74-73.58C351.52-68.38 355.42-65.78 360.62-67.08C362.96-67.60 365.04-68.90 366.60-70.72C369.46-73.58 372.06-76.44 373.88-80.08ZM360.10-110.24C355.94-110.24 353.34-107.64 353.08-103.74C353.08-102.44 353.08-101.40 352.30-100.36C351.52-98.80 351.26-96.98 352.82-95.42C354.12-94.12 356.20-93.60 358.02-94.12C361.92-95.42 364.78-97.76 366.08-101.40C368.16-106.08 365.04-110.24 360.10-110.24ZM361.40-106.34C363.22-106.34 364.26-105.30 364.26-103.22C364-100.10 360.10-96.46 356.98-96.46C356.20-96.46 355.16-96.72 354.90-97.50C354.64-98.80 355.16-99.58 356.20-99.58C358.02-99.84 358.28-100.36 357.76-102.18C357.24-104.52 359.06-106.34 361.40-106.34ZM378.82-88.92C377.26-88.92 375.96-88.66 374.66-87.62C372.06-85.54 370.50-83.20 371.02-79.82C371.54-75.92 374.14-73.84 377.26-72.54C384.02-69.68 395.46-73.06 398.84-79.30C391.56-76.96 385.32-72.28 378.04-77.22C379.60-79.56 381.68-81.38 382.46-83.72C383.50-87.10 382.20-88.92 378.82-88.92ZM376.74-80.60C376.48-83.98 377.26-85.80 379.08-85.80C379.86-86.06 380.12-85.54 380.12-85.28C380.12-82.68 378.82-81.38 376.74-80.60ZM431.86-122.20C431.08-117 430.30-112.32 429.52-107.38C428.48-100.88 427.96-94.38 427.44-87.62C427.18-83.72 427.44-79.82 429.26-76.18C431.08-72.54 433.94-69.42 438.62-69.42C442.52-69.42 447.98-73.84 450.32-78C449.54-78.52 445.64-74.10 443.30-73.06C437.84-70.46 434.72-71.76 432.90-77.48C432.12-79.30 431.86-80.86 431.86-82.68C431.86-86.32 432.12-89.96 432.38-93.34C434.46-109.98 437.58-126.10 440.44-142.48C440.70-144.30 440.96-146.38 441.22-148.20C441.22-148.98 441.22-149.50 440.44-149.76C439.40-150.28 439.14-149.24 438.88-148.72C437.58-145.08 436.28-141.70 434.98-138.06C429.78-124.28 424.58-110.50 419.12-96.72C418.34-94.64 417.82-92.04 416-90.48C411.32-94.12 408.46-94.12 404.04-90.74C400.14-87.62 397.28-83.72 396.24-78.78C395.46-74.36 397.02-70.20 400.40-68.64C403.26-67.34 406.64-68.64 409.50-72.28C412.62-76.44 414.96-80.86 417.04-85.54C421.46-96.20 425.10-106.86 429.26-117.78C430.04-119.08 430.04-120.90 431.86-122.20ZM401.18-75.66C401.70-80.86 404.56-85.02 408.72-88.14C410.28-89.18 411.84-89.18 413.14-87.88C414.70-86.58 413.92-85.28 413.40-83.98C411.58-80.08 409.76-76.44 406.38-73.58C405.34-72.54 404.30-71.24 402.48-72.28C401.18-72.80 401.44-74.36 401.18-75.66Z" fill="#000000"/>
  </g>
</svg>