<svg width="1488" height="552" viewBox="0 0 1488 552" xmlns="http://www.w3.org/2000/svg">
  <g transform="translate(84.80635197476347, 358.8)">
    <path d="M-57.03-176.49C-60.17-182.05-66.86-182.37-70.38-177.06C-72.14-174.40-72.96-171.40-72.78-168.20C-72.54-163.82-69.48-160.67-65.10-160.61C-62.90-160.59-60.63-160.99-58.49-161.58C-39.42-166.89-20.53-172.80-1.94-179.62C18.51-187.12 38.95-194.66 59.40-202.17C60.75-202.66 62.14-203.05 64.04-203.64C66.76-155.39 70.06-107.74 71.90-60.07C70.87-59.58 70.21-59.24 69.53-58.95C57.22-53.55 44.77-48.45 32.64-42.68C22.08-37.66 11.85-31.94 1.56-26.38C-0.48-25.28-2.40-23.72-3.94-21.98C-7.59-17.85-7.04-11.39-2.94-7.88C-0.36-5.67 2.61-5.02 5.76-6.46C8.93-7.90 10.53-10.56 10.14-13.98C9.91-16.05 10.45-17.29 12.21-18.22C13.09-18.68 13.87-19.32 14.73-19.83C32.29-30.32 50.55-39.43 69.50-47.14C70.34-47.48 71.26-47.64 72.38-47.95C72.47-46.46 72.57-45.36 72.62-44.25C73.33-28.07 74.00-11.89 74.75 4.28C76.23 36.38 77.64 68.49 79.31 100.58C79.90 111.76 81.10 122.92 82.19 134.07C82.43 136.51 83.08 139.02 84.10 141.24C85.80 144.95 89.83 146.19 93.21 144.44C97.65 142.14 98.76 135.47 95.11 132.07C93.89 130.94 93.37 129.77 93.16 128.24C92.24 121.71 90.95 115.21 90.40 108.64C88.76 88.91 87.06 69.17 86.00 49.41C84.26 16.82 83.00-15.79 81.54-48.39C81.49-49.50 81.53-50.61 81.53-51.91C82.83-52.47 84.05-53.05 85.31-53.54C92.73-56.43 100.15-59.34 107.59-62.20C139.70-74.54 172.30-85.28 206.09-92.09C210.09-92.89 214.11-93.55 218.27-94.30C218.61-93.20 218.78-92.49 219.05-91.83C221.06-86.90 226.65-85.93 230.22-89.91C230.87-90.64 231.27-91.60 231.89-92.37C233.09-93.92 234.22-95.57 235.63-96.90C238.15-99.25 238.96-101.60 237.78-104.15C236.55-106.80 233.82-107.95 230.52-107.22C228.94-106.87 227.38-106.38 225.79-106.15C205.41-103.28 185.44-98.50 165.67-92.89C138.33-85.13 111.72-75.26 85.25-65.02C84.01-64.54 82.73-64.16 81.00-63.58C78.81-111.74 76.65-159.46 74.48-207.23C75.72-207.72 76.61-208.14 77.54-208.44C83.93-210.51 90.31-212.63 96.73-214.61C129.27-224.63 162.25-232.69 196.28-235.63C206.22-236.49 216.18-236.95 226.14-236.02C229.74-235.68 233.33-235.18 236.52-233.26C238.57-232.03 238.82-231.26 237.48-229.37C236.34-227.76 235.01-226.23 233.54-224.91C231.23-222.83 228.76-220.93 226.31-219.00C222.69-216.16 218.95-213.45 215.40-210.52C212.73-208.30 212.19-205.60 213.59-203.25C214.99-200.87 217.71-200.01 220.82-201.37C230.02-205.40 238.57-210.49 245.26-218.15C247.03-220.18 248.58-222.55 249.68-225.01C252.74-231.91 250.50-238.46 244.04-242.38C240.89-244.30 237.43-245.26 233.82-245.75C222.25-247.34 210.67-246.43 199.15-245.43C177.77-243.58 156.72-239.72 135.85-234.81C116.45-230.24 97.33-224.72 78.36-218.61C77.01-218.18 75.64-217.83 74.10-217.38C73.96-218.63 73.86-219.37 73.79-220.10C73.51-223.21 73.37-226.33 72.91-229.40C72.28-233.55 69.67-236.03 66.14-236.21C62.72-236.39 60.01-234.37 58.77-230.53C58.20-228.76 57.86-226.91 57.54-225.07C56.74-220.54 57.69-216.65 61.83-214.01C61.96-213.93 61.92-213.57 61.98-213.19C61.21-212.88 60.43-212.54 59.62-212.25C47.89-208.07 36.17-203.89 24.45-199.71C2.65-191.92-19.10-183.98-41.53-178.10C-46.32-176.84-51.15-175.72-55.99-174.53C-56.45-175.39-56.72-175.93-57.03-176.49ZM375.07-77.46C372.78-78.64 370.52-78.39 368.25-77.32C362.74-74.72 357.27-72.03 351.70-69.58C334.15-61.88 316.50-54.40 297.92-49.42C289.13-47.07 280.29-45.08 271.11-44.95C266.31-44.89 262.01-46.14 258.09-48.81C254.46-51.29 252.84-54.65 253.70-59.47C259.13-59.32 264.14-60.13 268.97-61.89C276.24-64.56 282.66-68.53 287.31-74.85C290.99-79.85 289.67-85.39 284.29-88.47C281.38-90.13 278.22-90.63 274.92-90.46C268.46-90.15 262.86-87.56 257.76-83.81C251.43-79.15 246.25-73.59 243.69-65.90C241.22-58.47 242.14-46.78 252.29-40.30C259.73-35.54 267.71-34.38 276.25-35.24C291.11-36.72 305.33-40.85 319.22-46.02C333.80-51.43 348.11-57.55 362.53-63.37C365.87-64.71 369.08-66.19 372.90-66.02C375.84-65.89 377.96-68.01 378.47-70.62C379.02-73.40 377.67-76.12 375.07-77.46ZM272.16-78.49C270.55-75.98 269.70-75.55 265.26-75.34C267.56-76.39 269.87-77.44 272.16-78.49ZM556.84-63.37C555.65-66.02 552.48-67.65 549.31-66.78C547.19-66.19 545.24-64.99 543.25-64.00C541.14-62.95 539.18-61.44 536.97-60.78C525.89-57.43 514.75-54.28 503.62-51.11C502.49-50.79 501.27-50.79 500.09-50.64C499.31-54.19 498.76-57.38 497.90-60.48C496.69-64.85 494.78-68.89 491.42-72.08C486.56-76.71 480.89-77.26 475.52-73.22C473.49-71.70 471.66-69.62 470.42-67.42C467.83-62.81 467.34-57.70 468.31-52.54C469.27-47.40 472.17-43.62 477.10-41.75C479.76-40.75 482.59-40.18 485.37-39.55C487.02-39.17 488.73-39.05 490.45-38.81C490.45-37.72 490.56-36.97 490.44-36.26C489.16-28.33 486.90-20.72 482.80-13.76C481.62-11.73 480.16-9.82 478.60-8.06C475.23-4.25 470.85-2.14 465.85-1.74C459.19-1.20 454.13-4.42 450.99-9.94C448.24-14.77 446.08-20.01 444.28-25.28C441.12-34.52 439.76-44.15 438.89-53.85C438.56-57.57 438.15-61.29 437.43-64.95C436.92-67.62 434.72-69.00 432.24-68.82C429.80-68.64 428.04-66.88 427.67-64.18C427.58-63.57 427.57-62.94 427.61-62.32C428.54-48.01 425.45-34.33 420.90-20.92C418.02-12.42 414.75-4.05 410.02 3.62C406.20 9.83 403.78 9.99 398.98 4.59C395.19 0.31 392.89-4.81 391.13-10.16C387.27-21.81 385.50-33.88 384.28-46.04C384.17-47.16 384.52-48.55 385.15-49.49C386.66-51.73 386.86-54.06 386.53-56.62C386.16-59.45 386.03-62.32 385.74-65.16C385.29-69.61 385.02-74.10 384.25-78.50C383.51-82.72 380.60-84.94 377.05-84.69C373.66-84.45 371.30-81.98 370.89-77.86C370.61-75.14 370.43-72.37 370.65-69.66C371.44-59.98 372.17-50.29 373.39-40.66C374.81-29.42 376.84-18.26 380.55-7.49C382.67-1.32 385.46 4.49 389.46 9.68C391.92 12.88 394.84 15.56 398.43 17.44C402.90 19.77 407.41 19.76 411.49 16.80C413.76 15.15 415.97 13.07 417.42 10.71C420.21 6.17 422.77 1.42 424.84-3.49C427.98-10.93 430.62-18.58 433.69-26.73C434.80-23.51 435.72-20.71 436.73-17.93C438.78-12.29 441.23-6.85 445.01-2.12C451.95 6.58 462.64 9.69 473.18 6.19C480.11 3.89 485.31-0.51 489.21-6.58C494.75-15.21 497.85-24.74 499.47-34.81C499.72-36.37 499.97-37.93 500.21-39.40C501.42-39.67 502.26-39.87 503.11-40.04C517.77-42.98 532.13-47.09 546.37-51.62C549.18-52.52 551.90-53.91 554.41-55.49C557.23-57.28 558.06-60.66 556.84-63.37ZM481.05-51.21C479.92-51.71 478.66-52.86 478.29-53.98C477.15-57.43 477.58-60.93 479.46-64.05C481.39-67.27 484.10-67.36 486.26-64.28C489.20-60.07 490.09-55.21 490.68-49.83C486.95-49.41 483.90-49.97 481.05-51.21ZM787.28-219.49C787.23-222.73 787.39-225.98 787.15-229.20C786.87-233.05 786.42-236.89 785.74-240.68C785.06-244.51 782.87-246.45 779.91-246.39C776.94-246.32 774.92-244.22 774.42-240.39C774.14-238.30 774.04-236.17 774.09-234.06C774.24-227.83 774.51-221.61 774.72-215.39C774.85-211.81 774.86-211.78 771.67-210.43C746.30-199.73 722.67-185.98 700.55-169.63C684.89-158.05 670.11-145.47 656.97-131.04C652.69-126.33 648.53-121.48 645.77-115.70C644.57-113.16 643.64-110.33 643.36-107.55C642.94-103.46 644.51-99.86 648.32-97.83C652.27-95.72 656.32-96.05 660.02-98.50C664.03-101.14 664.70-106.10 661.78-109.92C661.27-110.58 660.71-111.22 660.15-111.91C663.60-117.84 668.03-122.74 672.60-127.48C700.97-156.90 734.09-179.54 771.17-196.52C772.03-196.91 772.94-197.14 774.16-197.57C774.10-196.46 774.10-195.74 774.03-195.02C772.75-180.01 771.43-165.00 770.18-149.98C770.00-147.72 769.64-145.66 768.53-143.59C766.22-139.27 768.08-134.46 772.56-132.34C773.42-131.92 774.32-131.57 775.23-131.17C775.23-129.58 775.27-128.21 775.22-126.85C774.22-97.85 773.27-68.84 772.18-39.84C771.10-10.97 769.84 17.90 768.74 46.78C768.66 48.74 767.98 49.89 766.47 51.09C759.43 56.63 752.19 61.99 745.62 68.05C727.92 84.36 714.58 103.68 706.99 126.70C703.22 138.16 701.13 149.90 702.82 162.01C705.03 177.77 712.23 190.23 726.97 197.48C733.78 200.82 741.09 202.31 748.60 202.78C762.88 203.68 776.60 200.74 790.09 196.46C813.09 189.15 834.03 177.70 853.74 163.98C904.58 128.58 944.85 83.51 975.37 29.69C986.02 10.90 994.84-8.74 1001.49-29.31C1002.15-31.35 1003.05-32.60 1005.23-32.81C1005.96-32.88 1006.67-33.17 1007.40-33.35C1025.96-38.16 1044.60-42.67 1063.05-47.86C1077.47-51.91 1091.87-55.65 1106.93-56.34C1111.75-56.56 1114.20-61.17 1112.06-65.60C1110.51-68.82 1107.70-70.47 1104.30-70.65C1100.71-70.84 1097.01-70.97 1093.52-70.30C1087.30-69.10 1081.10-67.59 1075.07-65.65C1053.61-58.74 1031.96-52.53 1010.03-47.28C1009.00-47.04 1007.94-46.90 1006.56-46.65C1006.80-48.17 1006.91-49.26 1007.16-50.32C1011.52-69.55 1012.61-88.98 1010.89-108.61C1009.26-127.13 1005.14-145.01 997.32-161.92C981.69-195.69 956.21-218.23 920.44-228.98C896.18-236.26 871.59-236.34 846.81-232.56C827.78-229.67 809.32-224.61 791.24-218.09C790.10-217.68 788.93-217.39 787.53-216.97C787.41-218.08 787.29-218.79 787.28-219.49ZM777.74 23.06C778.76-0.20 780.16-23.45 781.04-46.71C782.37-81.55 783.42-116.40 784.49-151.25C784.82-161.95 784.70-172.66 785.00-183.37C785.17-189.09 785.84-194.79 786.17-200.51C786.29-202.39 787.10-203.30 788.87-203.97C811.87-212.72 835.37-219.40 859.97-221.91C878.61-223.81 897.01-223.14 915.14-218.08C949.94-208.37 974.18-186.60 988.44-153.59C997.58-132.41 1000.77-110.11 1000.44-87.20C1000.23-73.31 998.11-59.69 994.88-46.21C994.32-43.84 993.16-42.77 990.80-42.15C939.99-28.87 890.79-10.96 842.62 9.85C821.23 19.10 800.45 29.56 780.54 41.71C779.72 42.22 778.86 42.67 777.70 43.33C777.70 36.22 777.46 29.63 777.74 23.06ZM779.17 109.61C777.24 93.50 777.25 77.30 777.00 61.11C776.96 58.85 778.05 57.77 779.72 56.69C795.51 46.41 812.07 37.51 829.15 29.59C878.83 6.56 930.02-12.42 982.85-26.94C984.75-27.46 986.68-27.90 988.72-28.41C989.51-26.63 988.49-25.32 988.03-24.03C982.04-7.21 974.53 8.92 965.78 24.46C940.49 69.38 907.82 108.07 867.55 140.31C848.23 155.79 827.62 169.24 804.89 179.23C791.62 185.07 777.91 189.53 763.45 191.31C756.63 192.14 749.78 192.20 742.97 190.97C724.29 187.58 715.16 175.29 714.01 157.62C713.17 144.75 716.61 132.68 721.72 121.05C730.55 100.90 744.15 84.41 761.00 70.46C762.92 68.87 764.89 67.36 766.86 65.82C767.14 65.60 767.50 65.47 767.97 65.22C769.05 66.24 768.52 67.55 768.56 68.69C769.09 83.37 769.48 98.06 770.13 112.74C770.48 120.86 772.06 128.81 774.68 136.52C775.51 138.97 776.53 141.47 777.97 143.59C781.86 149.27 789.18 148.60 792.05 142.34C792.91 140.47 793.36 138.28 793.45 136.21C793.64 131.89 790.63 129.67 786.34 130.69C785.86 130.81 785.40 130.97 784.60 131.22C781.58 124.06 780.04 116.90 779.17 109.61ZM1229.11-75.26C1226.94-75.25 1224.63-74.66 1222.64-73.77C1217.65-71.53 1212.64-69.25 1207.95-66.46C1195.11-58.81 1182.47-50.86 1169.70-43.11C1158.20-36.14 1146.59-29.33 1134.09-24.27C1129.85-22.55 1125.42-21.01 1120.93-20.26C1111.16-18.62 1106.37-23.76 1108.29-33.43C1109.02-37.08 1115.21-61.47 1116.19-65.08C1117.04-68.19 1117.95-71.10 1120.69-73.40C1123.39-75.65 1123.46-79.85 1121.65-83.06C1119.96-86.09 1116.81-87.72 1113.55-87.26C1110.23-86.80 1107.76-84.26 1106.99-80.51C1106.91-80.14 1106.87-79.77 1106.80-79.40C1106.22-76.22 1105.61-73.05 1105.06-69.86C1104.02-63.86 1097.30-37.08 1096.98-31.04C1096.31-18.54 1105.17-9.72 1117.69-9.52C1119.54-9.74 1121.40-9.87 1123.23-10.21C1132.65-11.93 1141.33-15.75 1149.67-20.22C1164.81-28.32 1179.70-36.89 1194.78-45.11C1201.88-48.98 1209.12-52.59 1216.37-56.18C1220.27-58.10 1224.35-59.68 1228.30-61.50C1230.71-62.61 1232.86-64.10 1234.14-66.53C1236.36-70.76 1233.89-75.26 1229.11-75.26ZM1114.96-127.70C1117.79-128.07 1119.32-130.01 1119.90-132.61C1120.51-135.39 1121.01-138.22 1121.26-141.05C1121.59-144.76 1118.94-147.91 1115.36-148.46C1111.77-149.02 1108.36-146.79 1107.47-143.18C1107.15-141.87 1107.17-140.48 1107.04-139.12C1106.91-139.07 1106.78-139.02 1106.65-138.97C1107.41-136.39 1107.91-133.70 1108.99-131.26C1110.04-128.85 1112.12-127.34 1114.96-127.70ZM1350.91-77.46C1348.62-78.64 1346.36-78.39 1344.09-77.32C1338.58-74.72 1333.11-72.03 1327.54-69.58C1309.99-61.88 1292.34-54.40 1273.76-49.42C1264.97-47.07 1256.13-45.08 1246.95-44.95C1242.15-44.89 1237.85-46.14 1233.93-48.81C1230.30-51.29 1228.68-54.65 1229.54-59.47C1234.97-59.32 1239.98-60.13 1244.81-61.89C1252.08-64.56 1258.50-68.53 1263.15-74.85C1266.83-79.85 1265.51-85.39 1260.13-88.47C1257.22-90.13 1254.06-90.63 1250.76-90.46C1244.30-90.15 1238.70-87.56 1233.60-83.81C1227.27-79.15 1222.09-73.59 1219.53-65.90C1217.06-58.47 1217.98-46.78 1228.13-40.30C1235.57-35.54 1243.55-34.38 1252.09-35.24C1266.95-36.72 1281.17-40.85 1295.06-46.02C1309.64-51.43 1323.95-57.55 1338.37-63.37C1341.71-64.71 1344.92-66.19 1348.74-66.02C1351.68-65.89 1353.80-68.01 1354.31-70.62C1354.86-73.40 1353.51-76.12 1350.91-77.46ZM1248.00-78.49C1246.39-75.98 1245.54-75.55 1241.10-75.34C1243.40-76.39 1245.71-77.44 1248.00-78.49ZM1387.69-172.09C1388.80-177.71 1389.67-183.37 1390.48-189.04C1390.96-192.37 1389.16-195.00 1386.33-195.64C1383.57-196.26 1380.83-194.50 1379.87-191.30C1379.37-189.64 1379.13-187.90 1378.83-186.18C1375.60-167.67 1372.56-149.12 1369.10-130.65C1365.74-112.66 1361.82-94.79 1356.20-77.34C1355.67-75.70 1355.07-74.09 1354.59-72.69C1354.07-72.55 1353.95-72.47 1353.83-72.48C1353.23-72.58 1352.61-72.65 1352.03-72.82C1348.20-73.99 1344.60-73.38 1341.30-71.26C1339.53-70.13 1337.82-68.84 1336.30-67.38C1326.46-57.92 1319.33-46.54 1313.85-34.17C1311.24-28.29 1309.36-22.05 1307.54-15.86C1306.37-11.87 1306.60-7.69 1308.00-3.71C1310.42 3.10 1317.02 5.74 1323.40 2.33C1325.45 1.23 1327.52-0.17 1329.01-1.92C1332.38-5.89 1335.81-9.92 1338.47-14.37C1350.09-33.76 1359.58-54.15 1366.62-75.67C1366.91-76.53 1367.33-77.35 1367.69-78.19C1368.10-77.30 1368.14-76.56 1368.10-75.82C1366.79-52.45 1365.79-29.06 1365.87-5.63C1365.94 14.93 1366.95 35.44 1369.97 55.81C1370.55 59.72 1371.48 63.64 1372.77 67.38C1373.46 69.38 1375.03 71.24 1376.62 72.70C1378.39 74.32 1380.72 74.50 1382.86 73.11C1384.98 71.73 1385.65 69.67 1385.21 67.25C1385.04 66.28 1384.61 65.36 1384.35 64.40C1383.23 60.33 1381.81 56.31 1381.09 52.17C1376.97 28.42 1375.31 4.48 1375.54-19.61C1375.82-47.64 1377.44-75.61 1379.35-103.57C1380.92-126.56 1383.19-149.46 1387.69-172.09ZM1347.44-54.47C1341.59-41.82 1335.64-29.23 1328.00-17.54C1326.51-15.26 1324.82-13.08 1323.05-11.00C1321.87-9.62 1320.39-8.50 1318.61-6.87C1317.32-10.00 1317.85-12.40 1318.50-14.57C1323.35-30.71 1331.60-44.85 1343.68-56.68C1344.29-57.28 1345.05-57.72 1345.70-58.22C1348.41-56.79 1348.49-56.75 1347.44-54.47Z" fill="#000000"/>
  </g>
</svg>