<svg width="1226" height="654" viewBox="0 0 1226 654" xmlns="http://www.w3.org/2000/svg">
  <g transform="translate(12, 425.1)">
    <path d="M56.25 96.80C62.34 96.56 65.39 95.63 65.39 93.98C65.39 93.05 63.52 91.64 59.53 90C53.67 87.66 52.03 85.31 51.33 78.98L51.33 76.17C51.33 63.52 56.95 41.25 71.95-5.39C77.81-22.97 88.36-53.67 89.30-54.61C90.23-55.78 96.33-57.42 107.58-59.06C115.78-60.23 116.72-60.47 116.72-61.88C116.72-63.98 106.88-67.97 99.84-68.67C96.80-68.91 94.92-69.61 94.92-70.08C94.92-72.42 112.27-116.95 123.98-144.84C140.86-184.69 176.02-258.75 178.36-258.75C179.06-258.75 189.14-259.69 200.86-261.09C236.72-265.08 262.73-267.19 277.97-267.19C284.77-267.19 289.45-266.72 292.03-266.02C294.61-265.08 296.02-264.14 296.02-262.03C296.02-260.39 295.31-258.05 293.67-254.53C292.50-251.48 291.80-249.38 291.80-248.44C291.80-247.27 292.27-247.03 293.20-247.03C294.84-247.03 303.52-256.64 304.92-259.92C305.63-261.80 306.09-264.14 306.09-266.48C306.09-268.83 305.63-271.17 304.92-272.58C300.94-280.08 288.98-285.23 267.66-288.05C260.86-288.98 246.56-289.45 232.03-289.45C220.31-289.45 208.59-289.22 200.39-288.52C162.89-285.47 112.03-278.44 80.16-271.88C43.83-264.14 22.27-253.83 18.98-242.34C18.75-241.17 18.52-240.23 18.52-239.06C18.52-233.44 22.97-228.98 28.13-228.98C30-228.98 31.64-229.45 33.52-230.63C38.91-233.67 60.23-239.30 85.55-244.22C105.70-247.97 134.30-252.66 137.34-252.66L137.58-252.66C137.58-251.95 135.23-248.20 132.66-243.75C124.22-230.39 115.08-214.22 108.28-200.63C93.05-170.39 72.19-120.70 53.91-66.09L43.13-63.05C25.78-58.36 11.48-52.50 5.16-47.81C2.34-45.47 0-41.25 0-38.20C0-37.03 0.94-34.92 2.34-33.28C3.75-31.64 5.16-30.70 7.73-30.70C11.25-30.70 16.88-32.58 28.36-36.33C37.27-39.38 44.77-41.72 45.70-41.72L45.70-41.48C45.70-40.55 45.23-38.20 44.53-35.39C39.14-17.34 33.52 9.38 31.17 25.78C30.47 31.41 30 40.08 30 48.75C30 59.06 30.70 69.38 31.64 73.36C34.45 84.84 39.14 91.88 46.64 95.63C48.52 96.56 51.09 96.80 56.25 96.80ZM168.05 48.52C174.84 48.52 183.05 47.81 188.20 46.41C205.31 42.19 224.53 28.36 252.66-0.23C259.92-7.27 267.42-15.47 269.30-18.28C271.41-21.09 273.52-23.67 273.98-23.91C274.69-24.38 274.92-25.08 274.92-25.78C274.92-27.19 273.98-28.83 272.34-29.77C271.41-30.23 270.70-30.47 270-30.47C267.89-30.47 265.78-28.13 260.63-21.33C254.06-12.42 240 1.88 230.39 9.61C221.48 16.64 207.66 25.55 202.27 27.66C195.47 30.23 188.20 31.41 181.41 31.41L177.89 31.41C163.83 30.70 159.84 27.89 156.56 17.58C154.69 11.72 153.75 6.09 153.75 0C153.75-5.39 154.45-10.78 156.09-16.41C156.56-18.52 157.03-19.22 157.73-19.22L158.44-18.98C159.14-18.75 162.19-18.28 165.23-18.05L167.11-18.05C176.72-18.05 188.44-22.97 198.28-31.17C204.14-36.09 215.39-48.75 219.84-55.78C225.70-64.69 231.56-75.94 234.38-84.61C236.25-90.23 236.72-92.34 236.72-95.63L236.72-98.20C236.25-105 234.14-109.69 229.45-114.38C225.47-118.13 220.31-120 214.45-120C207.42-120 199.45-117.42 191.48-111.80C161.95-91.41 138.28-58.59 128.91-25.55C127.03-18.28 126.80-15.94 126.80-3.75C126.80 7.97 127.03 10.55 128.67 16.41C133.83 34.45 145.55 46.17 160.31 48.05C162.42 48.28 165.23 48.52 168.05 48.52ZM170.63-29.53C168.52-29.53 166.64-30 165-30.70C163.13-31.41 161.72-32.34 161.72-33.05C161.72-33.52 164.06-38.20 166.64-43.59C179.77-69.84 203.91-97.73 218.67-103.83C220.08-104.53 220.78-104.77 221.48-104.77C222.42-104.77 223.13-104.53 224.30-103.83C226.64-102.66 228.52-100.08 228.52-97.27L228.52-96.80C228.52-95.86 228.05-92.34 227.34-89.30C223.36-70.31 201.56-41.95 184.92-33.52C179.30-30.94 174.61-29.53 170.63-29.53ZM364.92 58.36C369.14 58.36 375 57.89 378.28 56.95C384.61 55.55 394.92 49.92 401.95 44.53C415.31 33.75 434.53 9.84 447.89-12.66C451.17-18.05 453.75-22.73 453.98-22.73C454.45-22.73 456.33-21.80 458.67-20.63C468.05-15.23 478.36-12.42 489.14-12.42C496.64-12.42 504.38-13.83 512.34-16.41C520.78-19.22 525.23-22.27 525.23-25.31C525.23-27.42 524.06-28.36 520.31-28.36C517.50-28.36 513.52-27.89 507.42-26.72C503.20-26.02 499.45-25.55 495.70-25.55C491.95-25.55 488.20-26.02 484.22-26.72C477.42-28.13 465.47-33.28 462.89-36.09C462.42-36.80 461.95-37.03 461.95-37.97C461.95-39.14 462.89-41.48 465.47-47.11C473.44-65.63 477.19-81.09 477.19-94.92L477.19-98.44C476.72-105.94 476.48-107.58 474.38-111.80C471.33-117.42 466.64-120.47 461.02-120.47C458.67-120.47 456.33-119.77 453.75-118.59C444.61-114.14 433.83-97.27 430.78-82.50C430.08-78.98 429.61-75.23 429.61-71.48C429.61-53.20 435.47-42.19 445.55-30L443.20-25.55C433.83-7.73 412.27 20.16 399.84 30.47C391.41 37.50 380.86 42.19 373.36 42.19C368.67 42.19 362.34 40.08 360 37.50C356.48 33.75 354.84 26.95 354.84 14.30C354.84 1.41 355.78-2.34 361.41-17.11C368.20-34.22 378.28-52.03 396.33-78.52C407.34-94.92 408.75-97.73 408.75-103.13L408.75-103.59C408.75-111.33 403.36-116.48 395.86-116.48C394.22-116.48 392.58-116.25 390.94-115.78C387.19-114.61 385.31-113.44 380.86-108.98C371.95-99.84 360.94-82.97 348.05-58.83C341.02-45.47 335.16-36.33 318.52-14.30C305.16 3.52 299.06 8.91 290.63 9.84L288.98 9.84C287.11 9.84 286.17 9.38 284.06 7.73C280.78 4.69 279.61 2.11 279.61-2.81L279.61-5.86C279.84-11.25 280.55-13.36 286.64-26.02C294.14-41.72 301.17-54.38 313.59-74.06C325.08-91.88 326.72-95.39 326.72-100.78C326.72-110.39 319.69-116.25 311.72-116.25C307.03-116.25 302.11-114.14 298.36-109.69C285.94-95.63 265.08-53.91 257.58-28.36C255.70-22.03 254.77-15.94 254.77-10.31C254.77-3.28 256.41 3.28 259.22 8.44C262.50 13.83 269.77 21.09 274.22 23.20C277.50 24.84 279.38 25.31 284.77 25.31C290.39 25.31 292.03 24.84 296.25 22.97C303.05 19.69 312.89 9.61 322.27-3.75L330-14.77L330-14.53L329.06-8.67C328.13-4.45 327.89 1.17 327.89 6.80C327.89 13.36 328.36 20.16 329.53 24.84C334.45 45.47 344.30 55.55 361.41 58.13ZM453.52-46.88C452.58-46.88 450.23-52.50 448.83-57.66C448.13-60.70 447.89-64.92 447.89-69.14C447.89-73.59 448.13-78.05 448.83-81.33C451.17-90.94 459.38-106.17 462.19-106.17C462.89-106.17 463.83-105 464.53-103.59C465.70-100.55 466.17-97.03 466.17-92.81C466.17-83.20 463.36-70.78 457.73-56.48C455.63-51.09 453.75-46.88 453.52-46.88ZM732.42 96.80C738.52 96.56 741.56 95.63 741.56 93.98C741.56 93.05 739.69 91.64 735.70 90C729.84 87.66 728.20 85.31 727.50 78.98L727.50 76.17C727.50 63.52 733.13 41.25 748.13-5.39C753.98-22.97 764.53-53.67 765.47-54.61C766.41-55.78 772.50-57.42 783.75-59.06C791.95-60.23 792.89-60.47 792.89-61.88C792.89-63.98 783.05-67.97 776.02-68.67C772.97-68.91 771.09-69.61 771.09-70.08C771.09-72.42 788.44-116.95 800.16-144.84C817.03-184.69 852.19-258.75 854.53-258.75C855.23-258.75 865.31-259.69 877.03-261.09C912.89-265.08 938.91-267.19 954.14-267.19C960.94-267.19 965.63-266.72 968.20-266.02C970.78-265.08 972.19-264.14 972.19-262.03C972.19-260.39 971.48-258.05 969.84-254.53C968.67-251.48 967.97-249.38 967.97-248.44C967.97-247.27 968.44-247.03 969.38-247.03C971.02-247.03 979.69-256.64 981.09-259.92C981.80-261.80 982.27-264.14 982.27-266.48C982.27-268.83 981.80-271.17 981.09-272.58C977.11-280.08 965.16-285.23 943.83-288.05C937.03-288.98 922.73-289.45 908.20-289.45C896.48-289.45 884.77-289.22 876.56-288.52C839.06-285.47 788.20-278.44 756.33-271.88C720-264.14 698.44-253.83 695.16-242.34C694.92-241.17 694.69-240.23 694.69-239.06C694.69-233.44 699.14-228.98 704.30-228.98C706.17-228.98 707.81-229.45 709.69-230.63C715.08-233.67 736.41-239.30 761.72-244.22C781.88-247.97 810.47-252.66 813.52-252.66L813.75-252.66C813.75-251.95 811.41-248.20 808.83-243.75C800.39-230.39 791.25-214.22 784.45-200.63C769.22-170.39 748.36-120.70 730.08-66.09L719.30-63.05C701.95-58.36 687.66-52.50 681.33-47.81C678.52-45.47 676.17-41.25 676.17-38.20C676.17-37.03 677.11-34.92 678.52-33.28C679.92-31.64 681.33-30.70 683.91-30.70C687.42-30.70 693.05-32.58 704.53-36.33C713.44-39.38 720.94-41.72 721.88-41.72L721.88-41.48C721.88-40.55 721.41-38.20 720.70-35.39C715.31-17.34 709.69 9.38 707.34 25.78C706.64 31.41 706.17 40.08 706.17 48.75C706.17 59.06 706.88 69.38 707.81 73.36C710.63 84.84 715.31 91.88 722.81 95.63C724.69 96.56 727.27 96.80 732.42 96.80ZM844.22 48.52C851.02 48.52 859.22 47.81 864.38 46.41C881.48 42.19 900.70 28.36 928.83-0.23C936.09-7.27 943.59-15.47 945.47-18.28C947.58-21.09 949.69-23.67 950.16-23.91C950.86-24.38 951.09-25.08 951.09-25.78C951.09-27.19 950.16-28.83 948.52-29.77C947.58-30.23 946.88-30.47 946.17-30.47C944.06-30.47 941.95-28.13 936.80-21.33C930.23-12.42 916.17 1.88 906.56 9.61C897.66 16.64 883.83 25.55 878.44 27.66C871.64 30.23 864.38 31.41 857.58 31.41L854.06 31.41C840 30.70 836.02 27.89 832.73 17.58C830.86 11.72 829.92 6.09 829.92 0C829.92-5.39 830.63-10.78 832.27-16.41C832.73-18.52 833.20-19.22 833.91-19.22L834.61-18.98C835.31-18.75 838.36-18.28 841.41-18.05L843.28-18.05C852.89-18.05 864.61-22.97 874.45-31.17C880.31-36.09 891.56-48.75 896.02-55.78C901.88-64.69 907.73-75.94 910.55-84.61C912.42-90.23 912.89-92.34 912.89-95.63L912.89-98.20C912.42-105 910.31-109.69 905.63-114.38C901.64-118.13 896.48-120 890.63-120C883.59-120 875.63-117.42 867.66-111.80C838.13-91.41 814.45-58.59 805.08-25.55C803.20-18.28 802.97-15.94 802.97-3.75C802.97 7.97 803.20 10.55 804.84 16.41C810 34.45 821.72 46.17 836.48 48.05C838.59 48.28 841.41 48.52 844.22 48.52ZM846.80-29.53C844.69-29.53 842.81-30 841.17-30.70C839.30-31.41 837.89-32.34 837.89-33.05C837.89-33.52 840.23-38.20 842.81-43.59C855.94-69.84 880.08-97.73 894.84-103.83C896.25-104.53 896.95-104.77 897.66-104.77C898.59-104.77 899.30-104.53 900.47-103.83C902.81-102.66 904.69-100.08 904.69-97.27L904.69-96.80C904.69-95.86 904.22-92.34 903.52-89.30C899.53-70.31 877.73-41.95 861.09-33.52C855.47-30.94 850.78-29.53 846.80-29.53ZM1041.09 58.36C1045.31 58.36 1051.17 57.89 1054.45 56.95C1060.78 55.55 1071.09 49.92 1078.13 44.53C1091.48 33.75 1110.70 9.84 1124.06-12.66C1127.34-18.05 1129.92-22.73 1130.16-22.73C1130.63-22.73 1132.50-21.80 1134.84-20.63C1144.22-15.23 1154.53-12.42 1165.31-12.42C1172.81-12.42 1180.55-13.83 1188.52-16.41C1196.95-19.22 1201.41-22.27 1201.41-25.31C1201.41-27.42 1200.23-28.36 1196.48-28.36C1193.67-28.36 1189.69-27.89 1183.59-26.72C1179.38-26.02 1175.63-25.55 1171.88-25.55C1168.13-25.55 1164.38-26.02 1160.39-26.72C1153.59-28.13 1141.64-33.28 1139.06-36.09C1138.59-36.80 1138.13-37.03 1138.13-37.97C1138.13-39.14 1139.06-41.48 1141.64-47.11C1149.61-65.63 1153.36-81.09 1153.36-94.92L1153.36-98.44C1152.89-105.94 1152.66-107.58 1150.55-111.80C1147.50-117.42 1142.81-120.47 1137.19-120.47C1134.84-120.47 1132.50-119.77 1129.92-118.59C1120.78-114.14 1110-97.27 1106.95-82.50C1106.25-78.98 1105.78-75.23 1105.78-71.48C1105.78-53.20 1111.64-42.19 1121.72-30L1119.38-25.55C1110-7.73 1088.44 20.16 1076.02 30.47C1067.58 37.50 1057.03 42.19 1049.53 42.19C1044.84 42.19 1038.52 40.08 1036.17 37.50C1032.66 33.75 1031.02 26.95 1031.02 14.30C1031.02 1.41 1031.95-2.34 1037.58-17.11C1044.38-34.22 1054.45-52.03 1072.50-78.52C1083.52-94.92 1084.92-97.73 1084.92-103.13L1084.92-103.59C1084.92-111.33 1079.53-116.48 1072.03-116.48C1070.39-116.48 1068.75-116.25 1067.11-115.78C1063.36-114.61 1061.48-113.44 1057.03-108.98C1048.13-99.84 1037.11-82.97 1024.22-58.83C1017.19-45.47 1011.33-36.33 994.69-14.30C981.33 3.52 975.23 8.91 966.80 9.84L965.16 9.84C963.28 9.84 962.34 9.38 960.23 7.73C956.95 4.69 955.78 2.11 955.78-2.81L955.78-5.86C956.02-11.25 956.72-13.36 962.81-26.02C970.31-41.72 977.34-54.38 989.77-74.06C1001.25-91.88 1002.89-95.39 1002.89-100.78C1002.89-110.39 995.86-116.25 987.89-116.25C983.20-116.25 978.28-114.14 974.53-109.69C962.11-95.63 941.25-53.91 933.75-28.36C931.88-22.03 930.94-15.94 930.94-10.31C930.94-3.28 932.58 3.28 935.39 8.44C938.67 13.83 945.94 21.09 950.39 23.20C953.67 24.84 955.55 25.31 960.94 25.31C966.56 25.31 968.20 24.84 972.42 22.97C979.22 19.69 989.06 9.61 998.44-3.75L1006.17-14.77L1006.17-14.53L1005.23-8.67C1004.30-4.45 1004.06 1.17 1004.06 6.80C1004.06 13.36 1004.53 20.16 1005.70 24.84C1010.63 45.47 1020.47 55.55 1037.58 58.13ZM1129.69-46.88C1128.75-46.88 1126.41-52.50 1125-57.66C1124.30-60.70 1124.06-64.92 1124.06-69.14C1124.06-73.59 1124.30-78.05 1125-81.33C1127.34-90.94 1135.55-106.17 1138.36-106.17C1139.06-106.17 1140-105 1140.70-103.59C1141.88-100.55 1142.34-97.03 1142.34-92.81C1142.34-83.20 1139.53-70.78 1133.91-56.48C1131.80-51.09 1129.92-46.88 1129.69-46.88Z" fill="#000000"/>
  </g>
</svg>