<svg width="1931" height="1105" viewBox="0 0 1931 1105" xmlns="http://www.w3.org/2000/svg">
  <g transform="translate(11.47050471510594, 718.25)">
    <path d="M31.68-307.68C34.56-320.64 34.56-373.92 137.28-423.84C183.84-446.40 321.12-503.52 407.52-508.32C367.68-473.28 288.96-396.48 211.68-273.60C155.52-269.76 20.64-255.84 35.52-229.44C35.52-229.44 42.72-215.52 56.16-219.84C65.76-222.72 113.28-239.52 194.88-245.76C182.40-224.16 169.92-201.60 157.44-177.60C70.08-6.24 72.96 99.84 83.04 100.32C83.04 100.32 92.64 107.52 92.64 95.04C92.64 95.04 115.20-4.32 140.16-64.32C163.68-120.48 196.32-182.40 238.08-247.20C259.20-247.68 282.24-247.20 307.20-245.76C307.20-245.76 312.96-252.48 303.36-262.56C296.16-270.24 277.92-274.08 256.32-275.04C308.64-351.84 374.40-432 454.56-510.24C454.56-510.24 464.64-532.80 452.16-536.64L452.16-536.64C452.16-536.64 452.16-536.64 451.68-536.64C448.80-537.12 445.44-537.12 440.64-536.64C398.88-535.68 305.76-532.80 119.04-450.72C-19.20-389.76-13.92-341.28 22.56-303.36C22.56-303.36 28.80-294.24 31.68-307.68ZM406.56-139.68C406.56-139.68 406.08-148.32 399.36-144.48C393.60-141.60 338.40-77.76 294.24-60.48C280.32-54.72 275.52-53.76 263.04-55.20C253.92-56.64 253.92-67.20 253.92-71.04C253.92-72.96 253.44-80.64 260.64-91.68C264.48-85.44 272.16-78.24 288.96-78.24C317.76-78.24 345.60-120.96 345.60-139.20C345.60-157.44 328.80-165.12 316.32-165.12C303.36-165.12 225.60-132 225.60-69.12C225.60-6.24 294.72-36.96 301.44-39.84L301.44-39.84C321.12-47.52 355.68-71.52 406.56-139.68ZM316.32-134.88C316.32-134.88 298.08-92.16 267.84-101.28C276.96-111.36 291.84-122.88 316.32-134.88ZM560.16-162.72C560.16-162.72 564-174.24 477.60-72C478.08-75.84 478.56-80.16 480-84.48C483.36-100.32 494.88-122.88 499.20-133.44C503.04-143.52 488.16-148.32 480.96-148.32C474.72-148.32 423.84-98.40 395.52-72C400.80-85.92 413.28-113.76 438.24-148.32C438.24-148.32 433.44-165.60 418.08-165.60C411.36-165.60 361.44-92.16 361.44-64.80C361.44-47.04 386.40-38.88 393.60-38.88C399.84-38.88 448.80-96.48 466.08-112.80C459.36-101.28 447.36-78.72 447.36-65.28C447.36-54.24 464.64-38.88 478.08-38.88C491.04-38.88 537.12-95.52 579.84-144.48C579.84-144.48 574.56-162.72 560.16-162.72ZM934.08 127.20C952.32 127.68 950.88 117.12 951.36 113.76C951.84 110.40 942.72 112.32 942.72 112.32C946.08 104.16 949.44 95.52 953.28 86.88C1129.92 36.96 1304.64-132.96 1380-208.80C1468.32-298.08 1596-531.36 1304.16-531.36C1012.32-531.36 842.88-355.68 843.36-289.92C844.32-224.16 951.36-175.68 946.08-193.92C944.64-198.72 938.88-203.52 938.88-203.52C888.48-228.48 869.76-257.28 874.56-286.08C889.44-379.20 1062.72-464.16 1144.80-485.76C1232.16-508.80 1460.16-531.36 1457.76-426.24C1453.92-289.92 1239.36-117.12 1141.92-43.68C1083.36 0.96 1024.80 35.04 967.68 55.20C1071.84-159.36 1306.56-450.72 1306.56-450.72C1306.56-450.72 1311.84-464.16 1304.16-470.40C1289.28-481.92 1272.48-461.76 1272.48-461.76C1092-260.64 955.68 0 924.48 68.16C901.92 73.44 879.84 76.32 858.72 76.80C770.88 77.76 784.32 43.68 780.48 35.52C777.12 26.88 770.40 32.16 770.40 32.16C770.40 32.16 727.20 100.80 858.72 100.80C877.92 100.80 897.12 98.88 915.84 95.52C915.36 110.40 919.68 126.72 934.08 127.20ZM1511.04-144C1504.80-140.64 1440.48-65.76 1395.36-56.64C1395.36-57.12 1393.44-69.12 1434.24-144.96C1434.24-144.96 1443.84-164.64 1415.52-168.96C1415.52-168.96 1361.28-90.24 1363.68-61.44C1363.68-61.44 1370.88-35.52 1394.88-35.52L1394.88-35.52C1403.52-35.04 1443.36-38.40 1518.24-139.20C1518.24-139.20 1517.76-147.84 1511.04-144ZM1442.88-209.28C1452-203.52 1465.44-207.84 1472.16-218.88C1479.36-229.92 1477.44-243.36 1468.32-249.12C1459.20-254.88 1445.76-250.56 1439.04-239.52C1431.84-228.48 1433.76-215.04 1442.88-209.28ZM1646.40-139.68C1646.40-139.68 1645.92-148.32 1639.20-144.48C1633.44-141.60 1578.24-77.76 1534.08-60.48C1520.16-54.72 1515.36-53.76 1502.88-55.20C1493.76-56.64 1493.76-67.20 1493.76-71.04C1493.76-72.96 1493.28-80.64 1500.48-91.68C1504.32-85.44 1512-78.24 1528.80-78.24C1557.60-78.24 1585.44-120.96 1585.44-139.20C1585.44-157.44 1568.64-165.12 1556.16-165.12C1543.20-165.12 1465.44-132 1465.44-69.12C1465.44-6.24 1534.56-36.96 1541.28-39.84L1541.28-39.84C1560.96-47.52 1595.52-71.52 1646.40-139.68ZM1556.16-134.88C1556.16-134.88 1537.92-92.16 1507.68-101.28C1516.80-111.36 1531.68-122.88 1556.16-134.88ZM1855.68-144C1849.44-140.64 1791.36-68.64 1746.72-55.68C1716-55.68 1721.76-94.56 1743.36-145.92C1759.68-156 1907.52-253.44 1907.52-341.76C1907.52-384.48 1882.08-388.32 1872.48-388.32C1857.60-388.32 1758.72-254.88 1716-151.20C1705.92-157.44 1689.60-165.12 1673.76-165.12C1658.40-165.12 1603.68-122.40 1603.68-71.04C1603.68-45.60 1630.56-31.68 1644-31.68C1652.64-31.68 1675.20-51.84 1696.32-79.20C1694.88-50.40 1706.40-31.68 1738.08-31.68C1738.08-31.68 1777.44-24 1862.88-139.20C1862.88-139.20 1862.40-147.84 1855.68-144ZM1882.08-362.88C1882.08-362.88 1897.44-288 1758.24-177.60C1792.32-245.28 1845.12-323.52 1882.08-362.88ZM1634.40-55.68C1620-55.68 1658.88-139.20 1696.32-139.20C1696.32-139.20 1703.04-134.88 1707.84-129.60C1707.84-129.60 1707.84-129.12 1707.36-129.12C1688.64-106.08 1645.44-55.68 1634.40-55.68Z" fill="#000000"/>
  </g>
</svg>