<svg width="1519" height="654" viewBox="0 0 1519 654" xmlns="http://www.w3.org/2000/svg">
  <g transform="translate(12, 425.1)">
    <path d="M56.25 96.80C62.34 96.56 65.39 95.63 65.39 93.98C65.39 93.05 63.52 91.64 59.53 90C53.67 87.66 52.03 85.31 51.33 78.98L51.33 76.17C51.33 63.52 56.95 41.25 71.95-5.39C77.81-22.97 88.36-53.67 89.30-54.61C90.23-55.78 96.33-57.42 107.58-59.06C115.78-60.23 116.72-60.47 116.72-61.88C116.72-63.98 106.88-67.97 99.84-68.67C96.80-68.91 94.92-69.61 94.92-70.08C94.92-72.42 112.27-116.95 123.98-144.84C140.86-184.69 176.02-258.75 178.36-258.75C179.06-258.75 189.14-259.69 200.86-261.09C236.72-265.08 262.73-267.19 277.97-267.19C284.77-267.19 289.45-266.72 292.03-266.02C294.61-265.08 296.02-264.14 296.02-262.03C296.02-260.39 295.31-258.05 293.67-254.53C292.50-251.48 291.80-249.38 291.80-248.44C291.80-247.27 292.27-247.03 293.20-247.03C294.84-247.03 303.52-256.64 304.92-259.92C305.63-261.80 306.09-264.14 306.09-266.48C306.09-268.83 305.63-271.17 304.92-272.58C300.94-280.08 288.98-285.23 267.66-288.05C260.86-288.98 246.56-289.45 232.03-289.45C220.31-289.45 208.59-289.22 200.39-288.52C162.89-285.47 112.03-278.44 80.16-271.88C43.83-264.14 22.27-253.83 18.98-242.34C18.75-241.17 18.52-240.23 18.52-239.06C18.52-233.44 22.97-228.98 28.13-228.98C30-228.98 31.64-229.45 33.52-230.63C38.91-233.67 60.23-239.30 85.55-244.22C105.70-247.97 134.30-252.66 137.34-252.66L137.58-252.66C137.58-251.95 135.23-248.20 132.66-243.75C124.22-230.39 115.08-214.22 108.28-200.63C93.05-170.39 72.19-120.70 53.91-66.09L43.13-63.05C25.78-58.36 11.48-52.50 5.16-47.81C2.34-45.47 0-41.25 0-38.20C0-37.03 0.94-34.92 2.34-33.28C3.75-31.64 5.16-30.70 7.73-30.70C11.25-30.70 16.88-32.58 28.36-36.33C37.27-39.38 44.77-41.72 45.70-41.72L45.70-41.48C45.70-40.55 45.23-38.20 44.53-35.39C39.14-17.34 33.52 9.38 31.17 25.78C30.47 31.41 30 40.08 30 48.75C30 59.06 30.70 69.38 31.64 73.36C34.45 84.84 39.14 91.88 46.64 95.63C48.52 96.56 51.09 96.80 56.25 96.80ZM168.05 48.52C174.84 48.52 183.05 47.81 188.20 46.41C205.31 42.19 224.53 28.36 252.66-0.23C259.92-7.27 267.42-15.47 269.30-18.28C271.41-21.09 273.52-23.67 273.98-23.91C274.69-24.38 274.92-25.08 274.92-25.78C274.92-27.19 273.98-28.83 272.34-29.77C271.41-30.23 270.70-30.47 270-30.47C267.89-30.47 265.78-28.13 260.63-21.33C254.06-12.42 240 1.88 230.39 9.61C221.48 16.64 207.66 25.55 202.27 27.66C195.47 30.23 188.20 31.41 181.41 31.41L177.89 31.41C163.83 30.70 159.84 27.89 156.56 17.58C154.69 11.72 153.75 6.09 153.75 0C153.75-5.39 154.45-10.78 156.09-16.41C156.56-18.52 157.03-19.22 157.73-19.22L158.44-18.98C159.14-18.75 162.19-18.28 165.23-18.05L167.11-18.05C176.72-18.05 188.44-22.97 198.28-31.17C204.14-36.09 215.39-48.75 219.84-55.78C225.70-64.69 231.56-75.94 234.38-84.61C236.25-90.23 236.72-92.34 236.72-95.63L236.72-98.20C236.25-105 234.14-109.69 229.45-114.38C225.47-118.13 220.31-120 214.45-120C207.42-120 199.45-117.42 191.48-111.80C161.95-91.41 138.28-58.59 128.91-25.55C127.03-18.28 126.80-15.94 126.80-3.75C126.80 7.97 127.03 10.55 128.67 16.41C133.83 34.45 145.55 46.17 160.31 48.05C162.42 48.28 165.23 48.52 168.05 48.52ZM170.63-29.53C168.52-29.53 166.64-30 165-30.70C163.13-31.41 161.72-32.34 161.72-33.05C161.72-33.52 164.06-38.20 166.64-43.59C179.77-69.84 203.91-97.73 218.67-103.83C220.08-104.53 220.78-104.77 221.48-104.77C222.42-104.77 223.13-104.53 224.30-103.83C226.64-102.66 228.52-100.08 228.52-97.27L228.52-96.80C228.52-95.86 228.05-92.34 227.34-89.30C223.36-70.31 201.56-41.95 184.92-33.52C179.30-30.94 174.61-29.53 170.63-29.53ZM364.92 58.36C369.14 58.36 375 57.89 378.28 56.95C384.61 55.55 394.92 49.92 401.95 44.53C415.31 33.75 434.53 9.84 447.89-12.66C451.17-18.05 453.75-22.73 453.98-22.73C454.45-22.73 456.33-21.80 458.67-20.63C468.05-15.23 478.36-12.42 489.14-12.42C496.64-12.42 504.38-13.83 512.34-16.41C520.78-19.22 525.23-22.27 525.23-25.31C525.23-27.42 524.06-28.36 520.31-28.36C517.50-28.36 513.52-27.89 507.42-26.72C503.20-26.02 499.45-25.55 495.70-25.55C491.95-25.55 488.20-26.02 484.22-26.72C477.42-28.13 465.47-33.28 462.89-36.09C462.42-36.80 461.95-37.03 461.95-37.97C461.95-39.14 462.89-41.48 465.47-47.11C473.44-65.63 477.19-81.09 477.19-94.92L477.19-98.44C476.72-105.94 476.48-107.58 474.38-111.80C471.33-117.42 466.64-120.47 461.02-120.47C458.67-120.47 456.33-119.77 453.75-118.59C444.61-114.14 433.83-97.27 430.78-82.50C430.08-78.98 429.61-75.23 429.61-71.48C429.61-53.20 435.47-42.19 445.55-30L443.20-25.55C433.83-7.73 412.27 20.16 399.84 30.47C391.41 37.50 380.86 42.19 373.36 42.19C368.67 42.19 362.34 40.08 360 37.50C356.48 33.75 354.84 26.95 354.84 14.30C354.84 1.41 355.78-2.34 361.41-17.11C368.20-34.22 378.28-52.03 396.33-78.52C407.34-94.92 408.75-97.73 408.75-103.13L408.75-103.59C408.75-111.33 403.36-116.48 395.86-116.48C394.22-116.48 392.58-116.25 390.94-115.78C387.19-114.61 385.31-113.44 380.86-108.98C371.95-99.84 360.94-82.97 348.05-58.83C341.02-45.47 335.16-36.33 318.52-14.30C305.16 3.52 299.06 8.91 290.63 9.84L288.98 9.84C287.11 9.84 286.17 9.38 284.06 7.73C280.78 4.69 279.61 2.11 279.61-2.81L279.61-5.86C279.84-11.25 280.55-13.36 286.64-26.02C294.14-41.72 301.17-54.38 313.59-74.06C325.08-91.88 326.72-95.39 326.72-100.78C326.72-110.39 319.69-116.25 311.72-116.25C307.03-116.25 302.11-114.14 298.36-109.69C285.94-95.63 265.08-53.91 257.58-28.36C255.70-22.03 254.77-15.94 254.77-10.31C254.77-3.28 256.41 3.28 259.22 8.44C262.50 13.83 269.77 21.09 274.22 23.20C277.50 24.84 279.38 25.31 284.77 25.31C290.39 25.31 292.03 24.84 296.25 22.97C303.05 19.69 312.89 9.61 322.27-3.75L330-14.77L330-14.53L329.06-8.67C328.13-4.45 327.89 1.17 327.89 6.80C327.89 13.36 328.36 20.16 329.53 24.84C334.45 45.47 344.30 55.55 361.41 58.13ZM453.52-46.88C452.58-46.88 450.23-52.50 448.83-57.66C448.13-60.70 447.89-64.92 447.89-69.14C447.89-73.59 448.13-78.05 448.83-81.33C451.17-90.94 459.38-106.17 462.19-106.17C462.89-106.17 463.83-105 464.53-103.59C465.70-100.55 466.17-97.03 466.17-92.81C466.17-83.20 463.36-70.78 457.73-56.48C455.63-51.09 453.75-46.88 453.52-46.88ZM762.42 20.63C768.75 20.63 776.95 18.05 777.42 15.47L777.42 15C777.42 13.83 776.48 13.59 772.73 13.13C765.94 12.42 763.36 11.25 762.19 7.97C761.48 6.09 761.02 3.52 761.02 0.23C761.02-11.72 766.41-32.81 776.48-60.23C780.94-72.42 785.16-81.80 795.94-102.42C815.86-141.09 824.77-157.27 832.50-168.75C851.72-196.41 852.42-198.05 852.42-205.31C852.42-216.09 843.98-223.13 834.84-223.13C830.16-223.13 825.23-221.25 821.25-217.27C813.05-209.06 783.98-155.86 770.86-125.39C755.39-88.83 744.84-54.84 742.03-31.88C741.56-27.19 741.33-22.73 741.33-18.75C741.33 2.11 747.89 17.34 758.91 20.16ZM766.41 92.34C776.95 92.34 791.72 89.77 806.02 84.84C876.33 60.94 944.53 4.92 987.19-63.28C1006.88-95.16 1021.41-132.66 1026.09-164.53C1027.03-170.39 1027.50-178.36 1027.50-186.33C1027.50-194.06 1027.03-201.80 1026.09-207.19C1020.47-241.88 1000.08-268.36 969.61-280.78C960.94-284.30 948.75-287.58 938.67-289.22C933.75-289.92 926.02-290.39 917.58-290.39C906.09-290.39 893.44-289.69 884.77-288.52C824.30-279.38 766.88-249.84 723.75-205.31C694.69-175.55 677.34-145.55 676.17-123.75L676.17-120C676.17-113.91 677.11-110.63 679.92-108.52C681.09-107.58 682.97-106.88 684.61-106.88C685.78-106.88 686.72-107.34 687.19-108.05C687.66-108.52 687.89-111.56 688.13-114.84C688.36-126.56 697.27-145.78 710.39-163.59C724.45-181.88 746.95-203.91 767.34-218.67C809.30-248.67 862.50-266.95 908.91-266.95C930-266.95 944.30-264.14 958.83-257.34C986.25-244.45 1000.55-221.72 1001.48-188.91L1001.72-183.05C1001.72-163.36 997.27-143.91 987.19-118.83C970.31-75.94 943.83-37.73 914.30-6.56L911.25-9.61C907.27-13.59 901.41-15.47 892.27-15.47C877.03-15.23 854.77-9.38 829.22 1.17C796.17 15 760.31 37.50 748.83 51.33C742.50 58.83 739.69 66.09 739.69 72.42C739.69 81.80 745.78 88.83 757.73 91.64C760.08 92.11 763.13 92.34 766.41 92.34ZM766.64 75.94C763.59 75.94 761.25 75.70 759.84 75.23C758.44 74.77 757.50 73.83 757.50 72.42C757.50 70.08 760.08 66.56 765.23 61.64C788.67 38.91 866.72-1.88 894.84-6.33L900.94-6.80L903.98-6.56C907.27-5.86 910.31-3.98 910.31-2.58C910.31-1.41 891.56 15.94 881.48 23.91C852.42 47.34 817.03 65.86 787.27 73.36C780.94 75 772.73 75.94 766.64 75.94ZM1083.98-150.70C1086.33-150.70 1095.47-156.80 1099.69-161.25C1105.08-166.88 1107.66-172.97 1107.66-178.13C1107.66-182.34 1105.78-186.09 1101.80-188.67C1100.16-189.61 1097.34-190.31 1095-190.31C1092.66-190.31 1090.55-189.84 1088.91-188.91C1085.63-187.27 1080.70-181.64 1078.59-177.19C1077.19-174.14 1076.25-168.52 1076.25-163.83L1076.72-159.38C1076.95-157.73 1078.36-154.92 1079.77-153.52C1081.17-151.88 1083.05-150.70 1083.98-150.70ZM1062.42 37.50C1074.38 37.50 1087.73 32.81 1099.92 23.67C1106.72 18.52 1110 15.23 1121.95 0L1134.14-15C1138.59-20.39 1140.23-23.20 1140.23-25.55C1140.23-26.72 1140-27.66 1139.30-28.83C1138.13-30.70 1136.72-31.64 1134.61-32.11L1132.50-32.34C1129.45-32.34 1127.11-29.53 1122.89-21.09C1116.09-7.50 1101.56 9.14 1091.72 15.23C1083.75 19.92 1077.19 21.80 1068.52 21.80C1059.61 21.80 1056.09 20.39 1050 13.83C1044.61 7.97 1042.03 2.58 1041.09-6.33C1040.86-8.91 1040.63-11.48 1040.63-14.06C1040.63-25.08 1043.44-36.80 1048.83-50.86C1053.52-62.81 1056.56-68.44 1066.64-83.44C1076.95-99.38 1079.77-104.30 1079.77-108.75C1079.77-116.72 1072.97-123.05 1065.70-123.05C1064.77-123.05 1063.59-122.81 1062.42-122.58C1057.50-121.17 1053.52-117.19 1046.48-106.64C1033.13-86.02 1021.17-58.13 1017.19-38.91C1016.25-33.98 1015.78-26.48 1015.78-19.22C1015.78-11.95 1016.25-5.16 1017.19-1.17C1019.30 7.50 1023.75 15.23 1030.31 22.03C1037.11 29.30 1042.50 33.05 1050 35.63C1053.98 37.03 1058.20 37.50 1062.42 37.50ZM1160.16 48.52C1166.95 48.52 1175.16 47.81 1180.31 46.41C1197.42 42.19 1216.64 28.36 1244.77-0.23C1252.03-7.27 1259.53-15.47 1261.41-18.28C1263.52-21.09 1265.63-23.67 1266.09-23.91C1266.80-24.38 1267.03-25.08 1267.03-25.78C1267.03-27.19 1266.09-28.83 1264.45-29.77C1263.52-30.23 1262.81-30.47 1262.11-30.47C1260-30.47 1257.89-28.13 1252.73-21.33C1246.17-12.42 1232.11 1.88 1222.50 9.61C1213.59 16.64 1199.77 25.55 1194.38 27.66C1187.58 30.23 1180.31 31.41 1173.52 31.41L1170 31.41C1155.94 30.70 1151.95 27.89 1148.67 17.58C1146.80 11.72 1145.86 6.09 1145.86 0C1145.86-5.39 1146.56-10.78 1148.20-16.41C1148.67-18.52 1149.14-19.22 1149.84-19.22L1150.55-18.98C1151.25-18.75 1154.30-18.28 1157.34-18.05L1159.22-18.05C1168.83-18.05 1180.55-22.97 1190.39-31.17C1196.25-36.09 1207.50-48.75 1211.95-55.78C1217.81-64.69 1223.67-75.94 1226.48-84.61C1228.36-90.23 1228.83-92.34 1228.83-95.63L1228.83-98.20C1228.36-105 1226.25-109.69 1221.56-114.38C1217.58-118.13 1212.42-120 1206.56-120C1199.53-120 1191.56-117.42 1183.59-111.80C1154.06-91.41 1130.39-58.59 1121.02-25.55C1119.14-18.28 1118.91-15.94 1118.91-3.75C1118.91 7.97 1119.14 10.55 1120.78 16.41C1125.94 34.45 1137.66 46.17 1152.42 48.05C1154.53 48.28 1157.34 48.52 1160.16 48.52ZM1162.73-29.53C1160.63-29.53 1158.75-30 1157.11-30.70C1155.23-31.41 1153.83-32.34 1153.83-33.05C1153.83-33.52 1156.17-38.20 1158.75-43.59C1171.88-69.84 1196.02-97.73 1210.78-103.83C1212.19-104.53 1212.89-104.77 1213.59-104.77C1214.53-104.77 1215.23-104.53 1216.41-103.83C1218.75-102.66 1220.63-100.08 1220.63-97.27L1220.63-96.80C1220.63-95.86 1220.16-92.34 1219.45-89.30C1215.47-70.31 1193.67-41.95 1177.03-33.52C1171.41-30.94 1166.72-29.53 1162.73-29.53ZM1377.19 59.06C1387.50 59.06 1401.33 54.61 1411.41 47.34C1421.25 40.08 1429.92 29.30 1443.28 7.73C1454.77-10.78 1458.75-17.58 1458.75-21.33C1458.75-22.50 1458.28-23.44 1457.34-24.38C1456.41-25.31 1455-26.02 1454.30-26.02C1451.48-26.02 1447.50-20.86 1445.63-15C1441.41-1.88 1427.81 20.39 1417.97 30.70C1407.89 41.25 1396.88 46.64 1385.39 46.64L1383.98 46.64C1377.19 46.64 1374.14 45 1369.22 39.84C1362.19 31.88 1359.61 23.67 1359.61 9.14L1359.61 7.27C1359.61-10.08 1364.06-30 1375.08-62.81C1382.11-84.14 1388.67-99.84 1400.39-124.22C1424.53-175.08 1440.70-205.08 1467.66-248.91C1487.34-280.55 1493.44-290.86 1493.91-293.91C1494.14-294.84 1494.14-295.78 1494.14-296.72C1494.14-300 1492.97-303.05 1490.63-305.39C1488.28-307.97 1487.34-308.44 1483.36-308.91L1481.25-308.91C1478.91-308.91 1477.50-308.44 1475.16-307.03C1470.94-304.45 1468.36-301.17 1455.70-281.72C1432.27-245.39 1419.38-223.36 1405.31-195.23C1388.67-162.42 1367.11-114.84 1360.31-96.33C1358.44-91.88 1357.03-88.36 1356.80-88.36C1356.56-88.59 1355.39-91.17 1354.45-94.22C1352.11-100.78 1346.72-109.22 1342.27-113.20C1340.39-114.84 1336.88-117.19 1334.30-118.36C1330.08-120.23 1328.91-120.47 1319.30-120.47C1308.05-120.47 1305-119.53 1295.39-113.67C1277.58-102.42 1256.02-66.80 1249.92-37.97C1249.45-35.16 1248.98-27.42 1248.98-19.45C1248.98-7.50 1249.22-5.16 1250.86-0.47C1254.61 9.84 1261.88 18.75 1269.84 22.50C1273.59 24.14 1275.70 24.61 1281.09 24.61C1292.81 24.61 1298.20 21.09 1313.44 2.81C1324.22-10.08 1333.59-23.91 1339.45-35.86C1341.80-40.78 1343.91-44.53 1344.14-44.53L1342.50-37.73C1338.98-23.91 1337.34-8.67 1337.34 4.22C1337.34 11.25 1337.81 17.58 1338.98 22.27C1344.14 41.48 1356.56 55.31 1371.33 58.59C1373.20 59.06 1375.08 59.06 1377.19 59.06ZM1286.25 2.81C1281.09 2.81 1277.34-2.34 1277.34-11.25L1277.58-14.30C1278.75-27.89 1283.44-43.13 1292.11-60.23C1303.36-82.73 1312.03-94.45 1320.47-98.67C1323.75-100.31 1326.80-101.25 1329.38-101.25C1333.36-101.25 1336.64-99.38 1339.92-95.63C1343.91-91.17 1345.78-86.02 1345.78-80.39C1345.78-76.17 1344.61-71.48 1342.50-66.56C1340.86-62.81 1340.16-60.70 1340.16-58.83L1340.63-55.55C1340.63-53.67 1339.45-52.03 1335-45.94C1320.70-27.19 1299.84-3.98 1293.05 0.47C1290.70 2.11 1288.36 2.81 1286.25 2.81Z" fill="#000000"/>
  </g>
</svg>