<svg width="1935" height="613" viewBox="0 0 1935 613" xmlns="http://www.w3.org/2000/svg">
  <g transform="translate(7.2, 398.45)">
    <path d="M250.08 95.52C259.20 101.28 272.16 97.92 278.40 88.32C281.28 83.52 281.28 83.52 278.88 82.56C276.96 81.60 275.04 83.04 272.16 86.40C260.16 100.80 245.76 92.64 233.76 64.32C216 22.56 204.48-44.16 203.04-110.40C202.08-163.68 204.96-196.80 215.04-246.72C220.80-274.56 220.80-278.40 217.44-278.40C215.04-278.40 212.16-273.12 204.48-255.84C184.32-209.76 144-132 123.84-99.36C115.20-85.44 101.28-67.20 100.32-68.16C99.36-69.12 122.40-137.76 131.52-159.84C143.04-189.12 153.60-212.64 166.08-237.60C186.24-277.92 195.36-293.28 243.36-362.88C252.96-377.28 255.36-382.08 254.88-384.48C252.48-391.20 247.20-388.32 233.28-372.96C156.96-289.92 75.36-164.16 31.20-62.88C25.92-51.36 22.08-42.24 21.60-42.72C20.64-43.20 30.72-78.72 40.32-109.44C61.44-176.16 96.48-249.60 129.60-296.64C136.80-307.20 140.64-311.04 143.04-311.04C148.80-311.04 152.16-318.24 147.84-322.56C143.04-327.36 137.28-322.08 119.04-295.68C89.28-252 56.64-184.32 36.48-123.84C22.08-79.68 4.80-14.40 4.80-3.36C4.80 2.40 7.68 5.28 12.48 4.80C16.32 3.84 16.32 3.84 23.52-17.76C47.52-90.24 117.60-212.16 188.16-303.36C205.92-326.40 207.36-327.84 196.80-311.04C166.08-261.60 135.36-196.32 114.72-133.92C100.32-93.12 90.72-60.96 91.20-58.08C91.68-55.68 92.64-54.72 95.52-54.72C98.40-54.72 101.76-57.60 111.36-68.64C128.16-88.32 147.84-122.88 183.84-194.88C194.88-217.44 204-235.20 204-234.24C204-233.76 202.56-224.16 201.12-213.12C190.56-142.08 194.88-56.64 213.12 16.32C224.16 60.96 236.64 87.36 250.08 95.52ZM313.92-144C312.96-147.36 308.64-146.88 307.68-143.52C298.56-119.04 277.44-88.32 265.92-84C258.24-81.12 251.52-99.36 257.28-124.32C260.64-139.68 260.64-140.16 267.36-139.20C274.56-138.24 278.88-140.64 282.72-146.88C292.32-161.76 277.92-173.28 265.92-160.32C259.20-153.12 256.32-147.84 252.48-133.92C246.24-110.88 247.20-89.76 254.88-82.08C264-72.96 278.40-81.12 294.72-104.64C303.84-118.08 314.88-141.12 313.92-144ZM277.44-159.36C280.32-158.40 280.32-155.04 276.48-150.24C273.12-145.92 268.32-144.96 266.88-148.80C265.92-152.16 274.08-160.80 277.44-159.36ZM288.96-34.08C289.92-31.68 293.76-31.20 295.20-33.12L300.48-49.44C305.28-66.24 319.68-101.28 324.96-110.88C331.68-121.92 332.64-121.92 339.84-115.20C346.08-108.96 353.76-104.16 358.56-104.16C362.88-104.16 370.56-108.48 378.24-114.72C386.88-121.92 404.64-142.08 404.64-144.96C404.64-149.28 398.88-145.92 393.12-138.24C385.92-127.68 370.56-113.28 364.32-110.40C357.12-107.52 352.32-109.44 343.20-119.04C335.52-126.72 334.56-127.20 330.72-126.24C324.96-123.84 317.28-112.32 308.64-91.20C304.32-80.64 300.48-72.48 300.48-73.44C300.48-74.40 302.40-84.48 304.32-96.96C312-142.08 326.88-198.72 342.24-240.48C354.72-276.48 372.96-318.72 375.84-320.16C380.64-323.04 384-342.24 379.68-343.68C376.32-345.12 372.96-341.76 370.56-334.08C369.60-330.24 362.88-313.44 355.68-296.16C332.16-240 317.28-193.92 305.76-140.16C297.12-101.28 287.04-38.88 288.96-34.08ZM381.12-45.60C383.52-36 389.76-42.72 399.84-64.80C416.64-103.20 436.80-138.24 448.32-150.24L456.48-158.40L458.40-154.08C459.36-151.68 460.80-145.44 461.28-140.64C462.72-126.24 464.64-121.44 468.48-121.44C472.80-121.44 476.64-125.76 482.40-135.36C484.80-139.68 488.64-144.96 491.04-147.36C495.36-152.16 495.36-152.16 498.24-149.28C503.04-144.96 509.28-135.36 513.12-126.24C520.32-108.96 528.48-106.08 538.56-117.12C547.20-127.20 555.84-140.64 555.36-143.52C553.92-150.24 549.12-146.40 539.52-132.96C534.24-125.28 529.44-119.04 528-118.56C526.08-118.56 523.68-121.92 519.36-131.52C516-138.72 510.72-147.84 507.36-151.68C502.08-157.92 500.16-159.36 495.84-159.36C489.60-159.36 484.80-155.04 476.64-143.04C470.40-133.44 470.40-133.44 469.92-137.28C468-156 463.68-165.60 455.52-165.60C452.16-165.60 449.28-163.68 443.04-157.44C433.44-147.84 422.88-129.60 403.68-91.20C396-75.36 389.76-62.88 389.76-64.80C389.76-68.16 401.28-124.32 407.04-148.32C414.24-179.52 423.84-214.08 425.76-216C426.72-216.48 427.20-220.80 427.20-224.64C427.20-230.40 426.72-231.84 424.32-232.32C419.52-234.24 417.12-230.88 415.68-222.24C415.20-217.92 410.88-198.72 406.08-180C391.20-120 378.72-54.72 381.12-45.60ZM607.68-144C606.72-147.36 602.40-146.88 601.44-143.52C592.32-119.04 571.20-88.32 559.68-84C552-81.12 545.28-99.36 551.04-124.32C554.40-139.68 554.40-140.16 561.12-139.20C568.32-138.24 572.64-140.64 576.48-146.88C586.08-161.76 571.68-173.28 559.68-160.32C552.96-153.12 550.08-147.84 546.24-133.92C540-110.88 540.96-89.76 548.64-82.08C557.76-72.96 572.16-81.12 588.48-104.64C597.60-118.08 608.64-141.12 607.68-144ZM571.20-159.36C574.08-158.40 574.08-155.04 570.24-150.24C566.88-145.92 562.08-144.96 560.64-148.80C559.68-152.16 567.84-160.80 571.20-159.36ZM617.76 13.92C628.32 23.04 639.36 21.12 652.80 6.24C661.92-4.32 672.96-25.92 689.76-69.12C696.96-87.36 702.24-98.88 708.48-113.76C715.68-129.12 720.48-142.56 720.48-144C719.52-148.32 713.76-148.32 708.96-144C706.08-141.12 705.60-139.20 706.56-137.28C708-135.36 707.04-132 703.68-124.32L687.36-84.96C660.96-19.20 651.36-1.44 638.88 7.20C632.16 12 627.36 11.52 621.60 5.28C610.56-7.68 606.72-32.16 606.72-87.36C606.72-133.44 609.60-158.40 617.76-200.64C622.56-223.20 632.64-263.04 634.56-264.96C635.04-265.44 643.20-267.36 652.80-269.28C666.72-271.68 674.40-272.16 692.16-271.68C714.72-271.20 717.60-271.68 714.72-276.48C711.84-281.76 683.04-282.72 656.16-278.88C647.04-277.44 638.88-276.48 638.40-276.96C637.92-277.44 640.32-286.08 644.16-296.16C649.44-311.04 650.88-314.40 653.28-314.88C656.16-315.36 656.64-316.32 657.12-322.08C658.08-336.48 649.44-337.92 645.60-324C644.64-320.16 640.32-307.20 636.48-295.68L629.28-274.56L598.56-267.84C581.76-264.48 563.04-260.64 557.28-258.72C551.04-257.28 544.32-256.32 541.92-256.80C537.12-257.76 523.68-252 522.24-248.16C520.80-245.28 524.16-240.48 527.52-240.48C528.96-240.48 539.04-242.88 549.12-245.76C565.44-250.08 576-252.96 616.32-262.08L625.92-264.48L624.96-261.12L617.76-231.36C604.32-180.96 600-148.32 599.04-96.96C597.60-31.20 602.88 0 617.76 13.92ZM1148.16-365.28C1148.16-373.44 1145.76-377.28 1140.48-377.28C1134.72-377.28 1127.52-372.48 1115.04-359.52C1075.68-319.20 1029.60-251.52 986.40-170.40C971.52-143.04 944.64-85.92 934.08-60.96L926.40-43.20L910.56-30.24C892.32-14.88 848.16 27.84 839.52 38.88C832.80 47.04 832.32 49.44 836.64 51.84C839.04 53.28 843.84 48.96 874.56 18.24C894.24-1.44 912-18.72 914.40-20.16L919.20-23.52L909.12 6.72C894.72 49.44 885.60 86.88 881.76 119.52C879.84 135.84 880.80 144 884.16 147.84C885.60 148.80 888 149.76 888.96 149.76C899.52 149.76 919.68 125.28 940.80 86.40C946.08 76.80 950.88 69.12 951.36 68.64C953.76 67.68 953.28 59.52 950.40 58.56C946.56 57.12 942.24 59.04 942.24 62.40C942.24 66.72 921.60 104.16 911.52 118.08C901.44 131.52 891.84 142.08 889.92 140.16C888.48 138.72 889.44 119.52 891.84 103.20C897.12 71.52 907.68 32.64 922.08-8.16C929.76-29.76 931.20-32.64 936.96-37.92C945.12-45.60 973.44-65.76 997.92-81.60C1017.60-94.08 1061.76-117.60 1065.60-117.60C1068.48-117.60 1068.96-119.52 1061.28-86.88C1044.96-17.28 1039.68 35.52 1047.36 50.88C1053.12 63.36 1062.72 61.92 1077.12 47.52C1087.68 36.96 1089.12 34.08 1084.80 32.64C1083.36 32.16 1079.52 35.04 1072.32 42.24C1061.28 54.24 1057.44 55.68 1053.12 49.44C1044 35.52 1053.12-31.20 1075.68-116.16C1076.64-120.96 1077.60-121.44 1084.80-123.36C1089.12-124.32 1096.32-124.80 1100.16-124.80C1106.88-124.32 1107.84-123.36 1109.76-120C1111.20-117.12 1112.64-115.68 1115.04-116.16C1119.84-116.64 1120.32-123.36 1116-128.64C1111.20-134.40 1103.04-136.32 1090.56-133.92C1085.28-132.96 1080.48-132.48 1080.48-132.96C1078.56-134.88 1099.68-204.96 1126.08-285.60C1145.28-345.60 1148.16-355.68 1148.16-365.28ZM1071.36-129.60L1060.80-125.76C1048.80-120.96 1022.40-107.52 1005.12-96.96C990.24-88.32 954.24-64.32 946.56-58.08C937.44-50.88 936.96-49.92 952.80-84.96C994.56-177.12 1048.32-267.36 1096.32-325.92C1110.72-343.68 1131.84-365.28 1136.64-367.68C1140-369.60 1140.48-369.60 1140.48-364.80C1140.48-357.12 1135.68-340.32 1119.84-291.84C1102.08-238.08 1086.24-186.72 1078.08-154.08ZM1116.96 7.68C1127.04 12.48 1138.56 1.92 1152.48-24.96C1157.28-34.56 1166.88-54.24 1173.12-68.16C1179.84-82.56 1190.40-104.64 1197.12-117.60C1209.12-141.12 1213.44-145.92 1207.68-145.92C1205.28-145.92 1202.40-141.12 1193.76-123.84C1188-112.32 1175.52-92.64 1169.76-80.64C1144.32-22.56 1130.40 1.92 1122.72 1.92C1120.80 1.92 1118.40-0.48 1116.96-3.36C1114.56-7.20 1114.08-11.52 1114.56-28.32C1115.52-94.56 1141.44-193.44 1184.64-288.96C1197.12-316.80 1200-322.56 1203.84-323.52C1209.60-324.96 1208.64-341.76 1202.88-340.80C1195.68-339.36 1159.20-254.88 1139.04-193.92C1117.92-130.56 1104-65.28 1105.44-24C1106.40-1.92 1110.24 4.32 1116.96 7.68ZM1267.68-144C1265.76-146.40 1266.72-147.36 1253.28-128.64C1248.96-122.40 1241.76-114.72 1237.44-110.88C1224-99.84 1215.84-102.72 1211.04-120C1207.68-130.56 1208.16-134.88 1211.52-138.24C1213.92-140.16 1214.40-141.60 1212.96-144C1211.04-147.36 1206.72-147.84 1203.84-144.48C1201.44-141.12 1202.88-122.88 1206.72-114.24C1208.64-110.88 1211.52-106.08 1213.92-103.68C1218.72-98.88 1228.32-98.40 1235.52-103.20C1243.20-108 1261.44-127.20 1265.76-135.36C1269.12-141.12 1269.12-142.56 1267.68-144ZM1206.72-174.72C1211.04-171.36 1213.92-172.80 1214.40-179.04C1214.88-185.76 1211.52-187.68 1207.20-183.84C1203.36-180.48 1203.36-177.12 1206.72-174.72ZM1418.40 19.20C1445.28 27.84 1489.44 1.44 1522.56-42.72C1558.08-89.76 1571.04-135.36 1550.88-142.08C1543.20-144.96 1533.60-144.48 1532.16-141.12C1529.76-136.80 1532.64-134.88 1540.80-134.88C1549.92-134.88 1552.32-132 1551.84-121.92C1551.84-112.32 1544.64-94.08 1534.08-76.32C1505.76-27.84 1467.36 5.28 1434.24 11.04C1419.36 13.44 1404.96 3.36 1399.68-13.44C1394.88-26.40 1395.36-61.44 1400.16-82.56C1407.84-118.08 1416.96-144 1434.24-179.52C1463.52-238.56 1495.68-284.64 1536-324.96C1559.52-348.48 1572.48-358.56 1589.76-367.68C1614.24-379.68 1626.24-372 1620.96-348C1617.12-331.68 1602.24-302.40 1585.44-280.32C1571.04-260.64 1547.52-236.16 1538.40-230.88C1530.24-226.56 1528.32-223.20 1532.16-219.84C1537.44-214.56 1547.04-220.80 1567.20-242.88C1586.40-263.52 1597.44-277.44 1608.96-297.12C1628.64-331.68 1635.84-356.64 1628.64-370.56C1621.92-383.52 1605.60-386.40 1586.88-377.28C1547.04-358.56 1490.88-298.08 1451.04-232.32C1413.12-169.44 1392-111.84 1386.72-57.60C1382.40-15.84 1393.92 12 1418.40 19.20ZM1643.04-144C1642.08-147.36 1637.76-146.88 1636.80-143.52C1627.68-119.04 1606.56-88.32 1595.04-84C1587.36-81.12 1580.64-99.36 1586.40-124.32C1589.76-139.68 1589.76-140.16 1596.48-139.20C1603.68-138.24 1608-140.64 1611.84-146.88C1621.44-161.76 1607.04-173.28 1595.04-160.32C1588.32-153.12 1585.44-147.84 1581.60-133.92C1575.36-110.88 1576.32-89.76 1584-82.08C1593.12-72.96 1607.52-81.12 1623.84-104.64C1632.96-118.08 1644-141.12 1643.04-144ZM1606.56-159.36C1609.44-158.40 1609.44-155.04 1605.60-150.24C1602.24-145.92 1597.44-144.96 1596-148.80C1595.04-152.16 1603.20-160.80 1606.56-159.36ZM1627.68 7.68C1637.76 12.48 1649.28 1.92 1663.20-24.96C1668-34.56 1677.60-54.24 1683.84-68.16C1690.56-82.56 1701.12-104.64 1707.84-117.60C1719.84-141.12 1724.16-145.92 1718.40-145.92C1716-145.92 1713.12-141.12 1704.48-123.84C1698.72-112.32 1686.24-92.64 1680.48-80.64C1655.04-22.56 1641.12 1.92 1633.44 1.92C1631.52 1.92 1629.12-0.48 1627.68-3.36C1625.28-7.20 1624.80-11.52 1625.28-28.32C1626.24-94.56 1652.16-193.44 1695.36-288.96C1707.84-316.80 1710.72-322.56 1714.56-323.52C1720.32-324.96 1719.36-341.76 1713.60-340.80C1706.40-339.36 1669.92-254.88 1649.76-193.92C1628.64-130.56 1614.72-65.28 1616.16-24C1617.12-1.92 1620.96 4.32 1627.68 7.68ZM1778.40-144C1776.48-146.40 1777.44-147.36 1764-128.64C1759.68-122.40 1752.48-114.72 1748.16-110.88C1734.72-99.84 1726.56-102.72 1721.76-120C1718.40-130.56 1718.88-134.88 1722.24-138.24C1724.64-140.16 1725.12-141.60 1723.68-144C1721.76-147.36 1717.44-147.84 1714.56-144.48C1712.16-141.12 1713.60-122.88 1717.44-114.24C1719.36-110.88 1722.24-106.08 1724.64-103.68C1729.44-98.88 1739.04-98.40 1746.24-103.20C1753.92-108 1772.16-127.20 1776.48-135.36C1779.84-141.12 1779.84-142.56 1778.40-144ZM1717.44-174.72C1721.76-171.36 1724.64-172.80 1725.12-179.04C1725.60-185.76 1722.24-187.68 1717.92-183.84C1714.08-180.48 1714.08-177.12 1717.44-174.72ZM1762.56 14.88C1765.92 19.20 1769.28 17.28 1773.12 10.08C1777.44 0.96 1776.96-2.88 1771.20-2.88L1766.88-2.88L1767.84-26.88C1769.28-64.80 1770.24-73.44 1773.12-72.48C1774.56-71.52 1780.80-70.08 1786.56-69.12C1796.64-66.72 1799.04-66.72 1810.08-69.12C1834.08-73.92 1852.80-85.92 1895.04-124.80C1907.52-135.84 1915.20-144 1915.20-145.44C1913.76-151.68 1908.96-148.32 1886.88-127.68C1850.88-94.56 1832.64-82.08 1812.48-76.80C1801.44-73.92 1788-74.40 1778.40-78.24L1771.68-81.12L1772.64-88.32C1773.12-92.16 1774.08-96.48 1774.56-98.40C1774.56-100.32 1786.08-113.76 1799.52-128.16C1824.96-155.04 1832.64-166.56 1829.76-170.88C1828.80-172.32 1826.88-173.76 1824.96-173.76C1821.12-173.76 1820.64-172.80 1816.80-163.68C1814.88-158.88 1780.80-120 1777.92-118.56C1777.44-118.56 1776.96-119.52 1777.44-120.96C1777.44-122.40 1779.84-134.40 1781.76-147.84C1788.96-190.08 1801.92-245.28 1817.28-296.64C1822.08-313.92 1826.88-330.24 1826.88-333.60C1826.88-339.36 1826.88-339.84 1823.52-339.84C1820.16-339.84 1819.20-338.88 1816.80-328.32C1815.36-322.08 1811.04-305.28 1806.72-290.88C1790.88-235.68 1778.40-179.52 1771.20-131.52C1768.32-112.80 1766.40-104.64 1764-101.28C1759.20-94.56 1758.24-89.28 1761.12-83.04C1763.52-78.24 1764-76.32 1762.56-64.32C1761.60-57.12 1761.12-36.96 1760.64-19.20C1760.64 5.76 1761.12 12.96 1762.56 14.88Z" fill="#000000"/>
  </g>
</svg>