<svg width="1268" height="847" viewBox="0 0 1268 847" xmlns="http://www.w3.org/2000/svg">
  <g transform="translate(-30.01516544117647, 550.5500000000001)">
    <path d="M271.64-89.53Q294.14-92.58 243.98-66.33L243.98-66.33Q235.78-62.58 231.09-54.84L231.09-54.84Q203.91-9.84 166.64 27.66L166.64 27.66Q145.78 48.75 119.77 63.05L119.77 63.05Q109.45 68.91 97.97 71.72L97.97 71.72Q62.81 78.75 47.81 46.17L47.81 46.17Q41.02 26.95 42.19 6.56L42.19 6.56Q43.59-29.53 55.31-63.98L55.31-63.98Q60.23-80.16 66.09-95.86L66.09-95.86Q67.97-100.78 66.56-105.94L66.56-105.94Q55.78-143.91 71.02-180.23L71.02-180.23Q102.19-256.41 180-283.83L180-283.83Q200.63-291.33 222.42-288.05L222.42-288.05Q276.09-278.20 283.13-223.13L283.13-223.13Q286.64-185.16 274.69-149.30L274.69-149.30Q265.08-118.36 250.55-89.53L250.55-89.53Q248.91-86.25 247.27-82.97L247.27-82.97Q246.56-81.56 245.86-79.92L245.86-79.92Q247.27-78.98 248.44-79.22Q249.61-79.45 250.20-79.80Q250.78-80.16 271.64-89.53L271.64-89.53ZM215.86-49.45L215.86-49.45L215.86-49.45Q216.33-49.92 216.56-50.39L216.56-50.39Q217.27-51.09 217.73-52.15Q218.20-53.20 217.73-54.38L217.73-54.38Q216.33-54.84 215.04-54.61Q213.75-54.38 212.34-53.67L212.34-53.67Q211.41-53.44 210.70-53.20L210.70-53.20Q181.41-43.83 150.70-45.23L150.70-45.23Q127.73-46.88 108.87-56.02Q90-65.16 76.41-84.61L76.41-84.61Q75.94-85.31 75.23-85.90Q74.53-86.48 73.36-86.25L73.36-86.25Q63.52-60.23 57.19-32.81L57.19-32.81Q51.09-7.27 52.27 19.22L52.27 19.22Q52.73 32.34 58.13 44.53L58.13 44.53Q69.38 67.03 94.22 62.34L94.22 62.34Q106.64 59.53 117.66 52.97L117.66 52.97Q138.52 41.02 155.63 24.38L155.63 24.38Q190.08-9.14 215.86-49.45ZM231.33-74.77L231.33-74.77L231.33-74.77Q245.86-100.55 256.88-127.85Q267.89-155.16 272.58-184.69L272.58-184.69Q277.50-211.88 269.77-238.36L269.77-238.36Q260.16-267.19 231.09-276.09L231.09-276.09Q210.70-282.42 190.55-276.56L190.55-276.56Q103.59-250.31 76.17-163.83L76.17-163.83Q69.61-143.20 73.59-120.23L73.59-120.23Q75.70-121.64 76.64-123.40Q77.58-125.16 78.05-126.80L78.05-126.80Q78.28-127.97 78.75-128.91L78.75-128.91Q90-157.27 105.23-183.52L105.23-183.52Q109.69-190.78 114.84-197.34L114.84-197.34Q116.72-199.92 119.06-201.56Q121.41-203.20 125.16-202.27L125.16-202.27Q130.31-200.16 128.67-190.78L128.67-190.78Q128.20-188.44 127.50-186.33L127.50-186.33Q126.80-184.69 125.63-183.87Q124.45-183.05 123.05-183.75L123.05-183.75Q119.30-186.09 117.42-184.69Q115.55-183.28 114.38-180.70L114.38-180.70Q114.14-179.77 113.67-179.06L113.67-179.06Q94.92-145.08 81.09-108.52L81.09-108.52Q78.05-100.55 82.50-93.75L82.50-93.75Q99.61-65.86 131.25-58.36L131.25-58.36Q155.63-52.50 179.18-56.13Q202.73-59.77 225.47-68.91L225.47-68.91Q229.45-70.78 231.33-74.77ZM398.44-86.25L398.44-86.25L398.44-86.25Q400.31-84.84 400.43-83.09Q400.55-81.33 399.61-79.45L399.61-79.45Q398.20-77.11 396.33-75L396.33-75Q370.55-45.70 341.95-19.45L341.95-19.45Q334.45-12.89 326.02-7.73L326.02-7.73Q325.78-7.73 325.78-7.50L325.78-7.50Q321.80-5.16 317.81-3.52L317.81-3.52Q313.36-1.88 309.02-1.88Q304.69-1.88 300.94-4.92L300.94-4.92Q297.19-8.44 296.84-12.77Q296.48-17.11 297.89-21.56L297.89-21.56Q300.23-29.30 304.45-36.09L304.45-36.09Q307.27-40.55 310.08-45L310.08-45Q314.06-51.56 318.28-58.36L318.28-58.36Q321.09-63.05 323.20-68.44L323.20-68.44Q325.55-74.77 318.75-75.70L318.75-75.70Q312.89-76.41 307.27-75.47L307.27-75.47Q306.09-75.23 304.69-75.23L304.69-75.23Q302.81-75 300.94-74.77L300.94-74.77Q296.25-74.06 291.56-74.06L291.56-74.06Q281.02-74.06 280.08-84.61L280.08-84.61Q279.84-90.47 282.42-95.39L282.42-95.39Q291.33-112.97 310.08-119.53L310.08-119.53Q313.36-120.94 316.76-120.70Q320.16-120.47 322.97-117.42L322.97-117.42Q325.55-114.38 325.20-110.98Q324.84-107.58 323.44-104.30L323.44-104.30Q320.86-98.91 317.11-94.45L317.11-94.45Q317.11-94.22 316.88-93.98L316.88-93.98Q316.17-93.05 315.23-92.34L315.23-92.34Q314.06-91.17 313.24-90Q312.42-88.83 312.19-87.19L312.19-87.19Q315-85.78 318.28-85.78L318.28-85.78Q320.16-85.78 322.27-85.31L322.27-85.31Q337.03-80.86 333.05-66.09L333.05-66.09Q330.47-58.83 326.25-52.50L326.25-52.50Q323.67-48.28 320.86-43.83L320.86-43.83Q317.34-38.44 314.06-32.81L314.06-32.81Q310.78-27.42 308.67-21.80L308.67-21.80Q308.20-21.09 307.97-20.39L307.97-20.39Q307.03-18.52 306.68-16.64Q306.33-14.77 307.73-13.13L307.73-13.13Q309.84-11.25 311.95-11.84Q314.06-12.42 316.17-13.59L316.17-13.59Q316.64-13.83 317.34-14.06L317.34-14.06Q330-21.33 340.55-31.41L340.55-31.41Q365.39-54.84 388.13-80.63L388.13-80.63Q388.36-80.86 388.83-81.33L388.83-81.33Q390.70-83.44 392.58-85.31L392.58-85.31Q395.39-88.13 398.44-86.25ZM290.86-85.55L290.86-85.55L290.86-85.55Q306.09-91.17 314.77-109.69L314.77-109.69Q293.44-103.83 290.86-85.55ZM508.36-85.08L508.36-85.08L508.36-85.08Q512.81-81.80 505.78-74.77L505.78-74.77Q482.11-50.39 452.58-33.52L452.58-33.52Q440.39-26.48 426.09-25.31L426.09-25.31Q401.25-23.91 396.09-48.28L396.09-48.28Q396.09-49.22 396.09-49.92L396.09-49.92Q396.09-50.86 395.86-51.80Q395.63-52.73 394.69-53.67L394.69-53.67Q391.88-49.45 390.94-44.53L390.94-44.53Q390.47-42.89 390-41.48L390-41.48Q380.39-10.78 370.55 19.92L370.55 19.92Q360.70 51.33 350.63 82.73L350.63 82.73Q348.52 89.30 345.70 95.63L345.70 95.63Q344.06 99.14 340.08 98.20L340.08 98.20Q338.44 97.50 337.85 95.98Q337.27 94.45 337.50 92.81L337.50 92.81Q337.97 90 338.91 87.19L338.91 87.19Q351.09 49.69 362.81 11.95L362.81 11.95Q401.25-114.14 446.02-238.36L446.02-238.36Q456.80-267.89 468.05-297.19L468.05-297.19Q468.28-297.89 468.52-298.83L468.52-298.83Q469.92-302.34 471.80-305.39L471.80-305.39Q473.91-307.73 476.95-306.33L476.95-306.33Q479.30-304.92 478.83-302.34L478.83-302.34Q477.66-297.42 476.02-292.50L476.02-292.50Q474.61-288.75 473.20-285L473.20-285Q438.75-191.72 407.81-97.27L407.81-97.27Q406.64-93.75 405.70-90L405.70-90Q405.23-88.36 404.53-86.72L404.53-86.72Q405.47-86.48 406.41-86.25L406.41-86.25Q414.14-97.03 423.98-105.70L423.98-105.70Q431.95-112.73 442.03-117.19L442.03-117.19Q448.13-119.77 454.92-119.30L454.92-119.30Q465.94-117.19 464.30-105.94L464.30-105.94Q461.48-96.09 453.98-89.53L453.98-89.53Q439.45-75.70 421.17-67.97L421.17-67.97Q418.59-67.03 416.02-65.86L416.02-65.86Q408.98-63.28 406.99-60.35Q405-57.42 405.94-51.09L405.94-51.09Q407.58-37.03 420.23-35.16L420.23-35.16Q429.38-34.45 437.81-37.73L437.81-37.73Q453.28-43.59 466.17-53.67L466.17-53.67Q483.52-66.56 498.98-81.80L498.98-81.80Q499.45-82.27 500.16-82.97L500.16-82.97Q501.80-84.84 503.67-85.78Q505.55-86.72 508.36-85.08ZM445.08-107.58L445.08-107.58L445.08-107.58Q423.75-97.50 413.67-75.94L413.67-75.94Q434.30-82.97 448.83-98.44L448.83-98.44Q451.64-101.72 453.52-105.47L453.52-105.47Q455.16-109.69 450.47-109.22L450.47-109.22Q447.66-108.75 445.08-107.58ZM649.22-86.72L649.22-86.72L649.22-86.72Q651.80-88.36 654.38-86.02L654.38-86.02Q656.48-83.67 655.08-80.86L655.08-80.86Q653.20-78.05 651.09-75.70L651.09-75.70Q631.64-56.02 610.78-37.73L610.78-37.73Q603.28-30.70 593.44-26.95L593.44-26.95Q575.63-21.56 570.94-39.61L570.94-39.61Q569.30-50.86 572.34-61.88L572.34-61.88Q573.28-66.09 574.22-69.61L574.22-69.61Q574.69-71.25 574.92-72.42L574.92-72.42Q571.41-69.38 567.89-66.09L567.89-66.09Q559.69-58.83 551.48-51.33L551.48-51.33Q551.02-50.86 550.55-50.39L550.55-50.39Q541.88-41.95 532.50-34.69L532.50-34.69Q525.47-29.06 517.03-25.78L517.03-25.78Q497.11-19.22 494.06-40.08L494.06-40.08Q492.89-50.16 495.23-59.77L495.23-59.77Q499.92-80.86 508.83-100.55L508.83-100.55Q508.83-101.02 509.06-101.48L509.06-101.48Q509.06-101.48 509.06-101.48L509.06-101.48Q509.53-101.95 509.77-102.66L509.77-102.66Q510.70-105.23 512.34-106.88Q513.98-108.52 517.03-107.11L517.03-107.11Q519.61-105.70 519.38-103.59Q519.14-101.48 517.97-99.38L517.97-99.38Q517.73-98.67 517.50-98.20L517.50-98.20Q509.30-79.22 504.84-59.06L504.84-59.06Q502.73-49.69 503.91-40.31L503.91-40.31Q504.84-32.34 512.34-34.92L512.34-34.92Q522.19-38.20 530.16-45.23L530.16-45.23Q548.20-60.70 564.14-78.75L564.14-78.75Q568.83-83.91 573.52-89.30L573.52-89.30Q577.50-93.75 581.48-98.44L581.48-98.44Q581.72-98.44 581.95-98.67L581.95-98.67Q584.30-101.48 587.11-103.36L587.11-103.36Q590.39-105.23 592.85-103.59Q595.31-101.95 595.08-98.20L595.08-98.20Q594.38-94.92 592.97-91.88L592.97-91.88Q592.73-91.17 592.50-90.23L592.50-90.23Q591.56-87.89 590.63-85.31L590.63-85.31Q585.23-72.66 581.95-59.30L581.95-59.30Q580.31-52.73 580.31-46.17L580.31-46.17Q580.31-30.23 594.61-38.20L594.61-38.20Q602.34-42.89 608.91-48.98L608.91-48.98Q618.52-58.13 628.13-67.27L628.13-67.27Q635.39-74.30 642.66-81.33L642.66-81.33Q645.70-84.38 649.22-86.72ZM794.53-85.31L794.53-85.31L794.53-85.31Q797.34-87.89 800.39-85.31L800.39-85.31Q801.80-84.14 801.91-82.62Q802.03-81.09 801.09-79.45L801.09-79.45Q799.22-75.70 795.94-72.89L795.94-72.89Q791.72-69.14 787.50-65.39L787.50-65.39Q765.94-45.94 744.38-26.48L744.38-26.48Q737.11-19.69 727.97-15.94L727.97-15.94Q714.14-11.25 711.80-25.31L711.80-25.31Q710.63-34.69 712.97-43.83L712.97-43.83Q717.42-62.11 723.75-79.45L723.75-79.45Q725.86-85.78 727.97-92.34L727.97-92.34Q728.20-93.28 728.67-94.45L728.67-94.45Q732.19-103.83 733.36-113.91L733.36-113.91Q734.53-123.98 725.86-118.59L725.86-118.59Q719.53-115.55 714.14-111.09L714.14-111.09Q669.38-72.89 641.95-20.86L641.95-20.86Q641.48-20.16 641.25-19.22L641.25-19.22Q641.02-18.98 641.02-18.52L641.02-18.52Q640.31-16.41 639.14-14.77Q637.97-13.13 635.16-13.59L635.16-13.59Q632.11-14.06 630-16.99Q627.89-19.92 628.13-23.20L628.13-23.20Q629.06-27.89 630.47-32.34L630.47-32.34Q645.47-86.02 665.39-138.05L665.39-138.05Q666.80-142.03 668.91-145.78L668.91-145.78Q669.84-147.89 671.60-148.95Q673.36-150 675.70-148.59L675.70-148.59Q677.58-147.42 677.81-145.66Q678.05-143.91 676.88-142.03L676.88-142.03Q676.41-141.09 675.94-140.16L675.94-140.16Q675.94-139.69 675.70-139.45L675.70-139.45Q661.64-103.13 650.86-65.86L650.86-65.86Q648.75-59.06 646.64-52.50L646.64-52.50Q646.64-52.03 646.64-51.09L646.64-51.09Q646.88-50.63 646.88-49.69L646.88-49.69Q650.39-52.27 651.80-55.55L651.80-55.55Q652.50-56.48 653.20-57.42L653.20-57.42Q672.42-86.25 697.73-110.16L697.73-110.16Q707.34-119.30 718.59-126.09L718.59-126.09Q723.75-129.61 729.84-130.55L729.84-130.55Q739.69-131.95 742.73-122.58L742.73-122.58Q744.14-116.95 743.20-111.33L743.20-111.33Q740.63-97.97 735.94-85.31L735.94-85.31Q735.70-84.38 735.47-83.44L735.47-83.44Q734.06-79.22 732.66-75L732.66-75Q726.56-58.13 722.34-40.55L722.34-40.55Q722.11-39.38 721.88-37.97L721.88-37.97Q720.94-34.45 720.70-31.29Q720.47-28.13 722.58-26.48L722.58-26.48Q725.39-24.61 728.09-26.25Q730.78-27.89 733.13-30.23L733.13-30.23Q734.30-31.17 735.23-32.11L735.23-32.11Q755.16-48.75 773.91-66.33L773.91-66.33Q782.11-73.83 790.31-81.56L790.31-81.56Q791.25-82.27 791.95-82.97L791.95-82.97Q793.13-84.38 794.53-85.31ZM1258.59-77.11L1258.59-77.11L1258.59-77.11Q1251.56-71.48 1244.06-66.56L1244.06-66.56Q1189.69-30 1132.73 2.58L1132.73 2.58Q1096.64 24.38 1058.67 43.13L1058.67 43.13Q1025.16 60 988.13 67.27L988.13 67.27Q972.89 70.31 957.42 68.91L957.42 68.91Q919.69 63.75 915.94 25.78L915.94 25.78Q914.53 1.17 922.50-22.03L922.50-22.03Q936.80-65.16 962.11-102.66L962.11-102.66Q1005.47-170.16 1069.45-219.14L1069.45-219.14Q1094.77-238.83 1124.30-251.25L1124.30-251.25Q1139.30-257.11 1155-259.22L1155-259.22Q1166.72-260.86 1178.20-257.81L1178.20-257.81Q1192.03-253.59 1198.83-242.46Q1205.63-231.33 1203.05-217.27L1203.05-217.27Q1200.70-206.72 1195.78-197.11L1195.78-197.11Q1194.84-195 1193.44-193.59Q1192.03-192.19 1189.45-193.13L1189.45-193.13Q1186.88-194.30 1186.88-196.52Q1186.88-198.75 1187.81-201.09L1187.81-201.09Q1188.75-203.44 1189.69-205.78L1189.69-205.78Q1191.80-210.70 1193.20-215.86L1193.20-215.86Q1196.48-228.28 1190.98-237.19Q1185.47-246.09 1173.05-248.67L1173.05-248.67Q1155.47-251.48 1138.83-245.63L1138.83-245.63Q1116.56-239.06 1097.34-226.17L1097.34-226.17Q988.59-153.98 937.27-33.98L937.27-33.98Q929.06-14.53 926.25 6.56L926.25 6.56Q924.38 18.52 926.72 30.70L926.72 30.70Q932.11 56.48 958.13 58.83L958.13 58.83Q961.64 59.30 965.39 59.06L965.39 59.06Q966.80 59.06 968.44 59.06L968.44 59.06Q997.73 57.89 1024.92 46.64L1024.92 46.64Q1062.66 32.11 1097.34 11.48L1097.34 11.48Q1173.52-30.94 1245.70-79.45L1245.70-79.45Q1249.69-82.03 1253.67-84.38L1253.67-84.38Q1257.19-86.48 1259.77-83.67L1259.77-83.67Q1261.17-81.56 1260.70-79.92Q1260.23-78.28 1258.59-77.11ZM1285.55-34.45L1285.55-34.45L1285.55-34.45Q1285.31-41.48 1278.28-42.42L1278.28-42.42Q1274.06-42.66 1271.13-40.31Q1268.20-37.97 1267.97-33.75L1267.97-33.75Q1267.73-29.77 1269.96-27.19Q1272.19-24.61 1276.17-24.61L1276.17-24.61Q1279.92-24.84 1282.62-27.66Q1285.31-30.47 1285.55-34.45Z" fill="#000000"/>
  </g>
</svg>