<svg width="629" height="399" viewBox="0 0 629 399" xmlns="http://www.w3.org/2000/svg">
  <g transform="translate(-7.3203125000000036, 259.35)">
    <path d="M191.60-214.40C185.20-224.40 174.80-230 162-230C156.80-230 150.80-228.80 144.80-226.80C91.20-208 29.20-114.40 20-38.80C18.40-23.20 19.60-7.20 23.60 1.20C24.40 3.20 24.40 4.40 24.40 14.40C24 23.60 24.40 26.40 25.20 29.60C27.60 40.40 32.80 47.20 41.20 50.80C44.40 52 45.20 52 49.60 51.60C52 52 55.60 51.60 57.20 51.20C61.20 50.40 69.20 46.40 74 43.60C108.80 22.40 149.20-31.60 176.40-92.80C201.20-147.60 206.80-192.80 191.60-214.40ZM147.60-48.40C130.40-19.60 83.60 48.40 45.20 48.40C42.40 48.40 41.60 48.40 38.80 46.40C36.40 45.20 35.20 44.40 34 41.60C30 35.20 28.40 25.60 29.20 12.80L29.60 10.80L31.20 12.80C35.60 16.80 40.80 18.40 46.80 18.40C72.40 18.40 113.60-22 128.80-42C134-48.80 135.20-52.40 135.20-56.40C136-58.80 135.60-59.20 134.40-60.40C132.40-62.40 131.60-62.40 132-60C132.40-58.40 132.40-57.60 131.60-55.60C125.20-35.60 70.40 15.20 44.80 15.20C42 15.20 39.60 14.80 37.60 13.60C34 12.40 32.40 10.40 30.80 8C29.60 6 29.60 6 30.80 0.80C37.60-41.60 66.80-98.40 94-123.60C99.60-128.40 104-131.60 107.60-132.40C112.40-134 114.40-132 116-125.20C116.80-122 116.80-119.20 116-104.80C115.60-88.40 115.60-87.60 116-86.80C118-84.80 118.40-86 119.20-97.20C121.60-121.20 119.60-131.60 112-135.60C107.60-138 101.20-135.60 92-128C63.20-102 36-47.20 27.60-10C26.80-7.20 26.40-4.40 26-4C25.60-3.20 25.20-4.80 24.40-10.40C23.60-16.40 24-35.60 25.60-43.20C30.80-73.60 42.40-104.80 58.80-133.60C91.20-189.60 134.40-226.80 166.40-226C168.80-225.60 172.40-225.20 174-224.80C186.40-221.60 194-210.40 195.60-192.40C196.40-186.80 195.60-171.60 194-164.40C189.20-131.20 172-88.80 147.60-48.40ZM218.00-42C217.20-44 216.00-44 214.00-42.40C207.60-37.20 200.00-31.60 198.80-31.60C198.40-31.60 198.40-33.20 198.40-34.80C198.40-38 200.00-46.40 202.40-53.60C204.40-60 204.40-62 202.40-63.60C201.60-64.40 200.40-64.80 200.40-64.80C196.40-64.80 172.40-28.40 169.60-24.40C167.20-20.80 165.20-17.60 164.80-17.60C163.60-16 171.20-34.40 178.40-48.80C182.00-56.40 184.80-63.20 184.80-64C184.80-65.60 182.40-68 182.00-67.20C178.80-64 160.40-21.20 158.40-14.80C156.40-7.60 156.00-5.60 158.00-4C159.60-2.80 160.80-3.20 162.00-4.80C162.80-5.60 167.60-12.40 172.40-20C177.20-27.60 183.60-37.20 186.40-41.20C192.00-48.80 198.80-58 199.20-57.60C199.20-57.60 198.80-55.60 198.00-53.20C195.20-44 194.40-35.20 195.60-32C196.40-29.60 198.40-27.60 199.60-27.60C201.60-27.60 205.20-29.60 210.80-34C218.80-40.40 218.80-40.40 218.00-42ZM251.20-115.20C248.00-115.20 224.80-70.80 213.60-42.80C210.40-35.20 205.60-21.20 204.00-14.80C202.40-8.40 202.40-6 204.00-4.40C206.00-2.80 206.80-2.80 206.80-5.20C206.80-7.20 208.00-12.40 210.40-18.80L211.20-22L212.40-21.20C215.20-18.40 217.20-18.40 222.00-20.80C228.80-24 249.60-38.40 249.60-39.60C249.60-40.40 247.60-42.40 247.20-42.40C246.80-42.40 244.80-40.80 242.40-39.20C231.20-30.80 218.00-23.20 215.20-23.20C214.40-23.20 214.40-23.20 214.40-24.80C214.80-27.20 218.40-34 221.20-38.40C224.80-43.20 233.60-52.40 237.20-54.40C241.60-57.20 241.60-57.20 241.60-54.80C241.60-52.40 242.80-50.40 244.40-50.80C245.20-51.20 245.20-55.60 244.40-57.60C243.20-59.60 240.80-60.80 238.80-60.40C235.60-60 229.20-54.80 223.60-48.80C221.60-46.40 220.00-44.80 220.00-44.80C220.00-48.40 245.20-97.60 248.00-102.80L250.80-107.20L251.60-106C252.00-104.40 253.20-104.40 253.60-105.60C254.00-106 254.00-107.60 254.00-109.20C254.00-112.80 252.80-115.20 251.20-115.20ZM298.40-41.60C298.40-41.60 296.80-39.60 294.80-37.20C287.20-26.40 273.20-10.40 269.60-8.40C267.20-6.80 266.80-7.20 267.60-12.80C269.60-26.40 275.60-41.60 284.80-55.20C287.60-59.60 290-63.60 290-64C290-64.40 289.60-65.60 288.80-66L287.20-67.20L285.60-65.20C284.80-64.40 282.80-61.20 280.80-58.40C275.60-50.40 262.40-32 257.60-25.60C251.20-17.60 243.60-10.40 242.40-11.60C242.00-12 244.00-20.80 245.60-26.80C250.80-42 260.40-61.20 262.80-60.40C263.20-60.40 263.60-60.40 264-60.40C264.80-61.20 263.60-63.60 262-64.40C260.80-65.20 260.40-65.20 259.20-64.40C256-62.80 249.20-49.20 248.00-46C239.60-28.80 236.40-15.20 238.80-10.40C239.60-8.80 242.40-6.80 244.00-6.80C247.60-6.80 254.40-13.20 262.40-23.60C264.80-26.40 266.80-29.20 266.80-28.80C266.80-28.80 266-26.40 265.20-23.60C264-18.40 263.20-10.80 264-8.80C264.40-7.20 266.40-4.40 268-3.60C269.20-3.20 269.60-3.20 272-4.40C277.20-6 301.20-37.20 301.20-38.80C301.20-39.60 299.20-41.60 298.40-41.60ZM368.80-41.20C368.40-41.20 363.20-36.80 356.00-31.20C343.60-21.60 337.20-16.80 336.80-17.60C336.00-18.40 340.00-30.80 345.60-43.20C351.20-56 351.60-57.60 348.80-60.40C348.00-61.60 346.80-62 345.60-62C343.60-62 341.20-60.80 336.80-58C329.20-52.80 317.60-42.40 300.00-24.40C295.60-19.60 292.00-16 291.60-16.40C290.80-16.80 311.60-57.60 313.60-60C314.00-60.40 314.40-60.80 314.00-61.60C313.60-62.80 312.00-64.80 311.20-64.80C309.60-64.80 290.00-27.20 285.60-15.60C283.60-10.40 283.60-9.20 285.60-7.20C286.40-6.80 287.20-5.60 288.00-5.60C289.20-5.60 293.20-9.60 303.20-20C314.40-31.60 322.00-38.80 329.60-45.60C338.00-52.80 346.80-58.40 346.80-56.80C346.80-56.40 344.80-53.60 343.60-49.60C334.00-29.20 331.60-20.40 334.00-15.60C334.80-14 336.00-12.80 337.60-12.80C339.20-12.80 341.60-14 344.40-16.40C348.80-19.20 370.80-37.20 371.20-38C371.20-38.80 369.60-41.20 368.80-41.20ZM607.20-203.60C604.80-212 600.80-217.60 594.40-220.80C590.00-222.80 583.60-223.20 578.00-222C538.00-212.80 494.80-156 475.60-122.40C451.60-81.60 432.80-32 427.60 4C426.40 13.20 426.00 25.60 427.20 31.20C430.40 46.80 441.20 58 454.80 60C462.80 61.20 472.40 58.80 482.80 52.40C488.40 49.20 498.00 41.60 498.00 40.40C498.00 40 497.20 39.60 496.40 38.80L494.40 38L490.80 41.20C479.20 50.80 466.00 57.20 456.40 57.20C444.80 57.20 435.60 48 432.40 32.80C430.80 26 431.60 11.60 434.00-0.80C445.60-62 482.00-135.60 526.00-180.80C548.40-204.40 572.00-218.40 587.20-218.40C591.20-218.40 594.40-217.60 596.80-216C607.20-209.20 607.60-183.20 597.20-151.60C590.40-130 575.60-99.60 563.20-80.80C561.20-77.60 559.60-74.80 559.60-74.40C559.60-73.60 560.80-72.40 562.00-72.40C567.60-72.40 592.80-127.60 595.60-134.80C600.80-148.40 604.80-162.40 607.20-174.40C608.80-183.60 608.80-197.60 607.20-203.60ZM623.20-14.80C622.40-15.60 621.60-16.80 620.80-17.20C619.60-18 619.20-18 618.00-17.20C612.80-15.60 610.40-14.40 607.20-8.80C606.00-6.40 606.40-3.60 608.00-2C609.60 0 611.60 0 614.40-1.60C617.20-3.60 622.40-9.20 623.20-11.20C624.00-12.80 624.00-13.20 623.20-14.80Z" fill="#000000"/>
  </g>
</svg>