<svg width="1322" height="910" viewBox="0 0 1322 910" xmlns="http://www.w3.org/2000/svg">
  <g transform="translate(6.6, 591.5)">
    <path d="M213.84-252.72C209.52-315.90 197.10-356.40 175.50-376.38C166.32-385.02 158.76-387.72 145.80-387.72C132.84-388.26 123.12-382.86 111.24-370.98C102.60-362.34 101.52-361.80 98.28-363.42C92.34-366.66 79.38-365.58 72.90-360.72C64.26-355.32 53.46-340.20 43.20-319.68C18.90-270 5.40-202.50 5.40-129.60C5.40-24.30 36.18 70.74 73.98 82.62L73.98 82.62C78.30 83.70 81.54 84.78 82.08 84.78C82.08 85.32 87.48 84.24 93.96 82.62C109.08 79.92 120.96 73.98 131.22 64.26C182.52 15.66 222.48-136.62 213.84-252.72ZM21.06-197.10C20.52-196.56 19.98-197.64 19.98-199.26C19.98-200.88 20.52-201.42 21.06-200.34L21.06-200.34C21.60-198.72 21.60-197.64 21.06-197.10ZM159.84-34.02C144.18 12.42 128.52 43.20 111.78 61.02L111.78 61.02C103.68 69.66 101.52 70.74 96.12 70.74C90.72 70.74 89.10 69.66 79.38 59.94C70.74 51.30 66.96 45.90 61.02 34.02C27-37.26 18.36-159.30 39.96-254.88C49.14-293.76 65.88-334.26 79.92-349.92C87.48-358.56 91.80-360.18 95.04-356.40C96.66-354.24 96.12-352.62 88.56-339.12C75.60-317.52 59.94-267.30 54-228.42C49.68-200.34 50.22-143.64 54.54-122.58C62.64-88.56 75.60-56.70 86.94-44.28C95.04-35.64 99.90-33.48 110.70-35.10C120.96-36.72 127.98-40.50 128.52-45.90C129.06-48.60 128.52-49.14 124.74-48.60C122.04-48.60 118.80-47.52 116.64-46.98C113.94-46.44 112.32-46.98 109.08-51.30C99.36-64.26 90.72-88.02 83.70-118.26C80.46-133.38 80.46-139.86 79.92-176.04C79.92-211.14 80.46-219.78 83.70-239.76C96.12-317.52 122.58-369.36 153.36-376.38C162.54-379.08 173.34-362.34 180.90-334.26C201.96-253.26 193.86-136.62 159.84-34.02ZM240.84-13.50C241.38-11.34 243.00-10.80 248.40-11.34C258.12-12.96 260.28-14.04 262.44-19.44C264.60-25.92 264.60-35.10 262.44-35.10C260.28-35.10 260.82-48.06 263.52-84.78C267.84-140.94 272.16-175.50 275.40-181.98C275.94-183.60 278.10-181.44 281.88-176.04C287.82-166.32 295.38-160.92 305.64-158.22C322.38-154.98 336.42-158.22 342.90-168.48C346.68-174.96 346.68-176.58 342.90-174.42C340.20-173.34 340.20-173.34 340.74-177.12C341.28-180.90 338.04-182.52 334.80-178.74C333.72-177.12 333.18-177.66 333.18-179.28C333.18-180.36 329.94-178.74 326.16-174.96C322.38-171.18 318.06-167.94 315.90-167.94C312.12-167.94 306.72-173.34 296.46-189C288.36-200.88 280.80-207.90 275.94-207.90C273.24-207.90 272.70-206.28 280.26-268.92C284.58-305.64 284.58-308.34 282.42-309.96C280.80-311.04 279.18-312.12 278.10-312.12C277.56-312.12 277.02-311.04 277.02-309.96C277.02-308.88 276.48-308.88 275.40-310.50C272.70-315.36 268.38-309.96 267.30-300.78C266.22-293.22 259.20-250.56 257.04-234.36C256.50-231.66 255.42-226.80 254.88-223.02C252.72-214.92 247.32-172.80 244.08-144.18C241.38-119.88 239.22-18.36 240.84-13.50ZM576.18-176.04C570.24-183.06 558.36-181.44 558.36-173.34C558.36-160.92 540.54-104.22 524.34-64.26C498.42-2.16 469.80 44.82 461.70 37.80C455.76 32.94 449.28 13.50 445.50-9.18C441.72-35.10 442.26-88.02 447.12-127.44L448.20-135.54L457.38-135.54C464.94-135.54 469.26-137.16 479.52-142.02C489.78-146.88 495.18-151.20 508.14-164.16C524.34-180.36 534.60-196.02 534.60-204.66C534.60-209.52 527.58-217.62 520.56-219.78C510.30-223.02 497.34-218.70 473.58-203.04C465.48-197.10 455.22-189.54 450.90-186.30C446.04-181.98 442.26-179.82 440.64-180.36C436.86-181.98 433.08-178.74 430.38-172.26C429.30-169.02 424.98-162.54 421.20-158.22C410.40-146.88 394.74-126.90 386.10-113.40C382.32-107.46 378.54-102.60 378.54-103.14C377.46-103.68 380.16-177.66 381.24-190.08C381.78-195.48 385.56-204.66 391.50-218.16C415.26-267.30 440.64-345.06 454.14-408.24C458.46-431.46 460.62-467.64 457.92-478.44C455.76-487.08 450.36-491.94 442.26-492.48C424.44-493.02 412.56-477.36 397.98-434.70C379.08-379.62 367.74-312.12 357.48-190.62C356.40-176.58 353.16-170.10 345.06-164.70C341.82-162.54 339.12-160.38 339.12-159.30C339.12-156.60 339.66-156.60 347.22-159.84C351.00-160.92 354.24-162 354.78-161.46C355.32-160.92 354.78-149.04 353.70-135.54C351.00-95.04 349.92-65.88 349.92 18.36C349.38 78.84 349.92 97.20 351.54 99.90L351.54 99.90C353.16 103.14 354.78 103.68 359.10 102.60C361.80 102.06 366.12 100.98 368.28 99.36L372.60 96.66L373.68 35.10C374.22 1.08 375.30-36.72 375.84-48.60C377.46-70.20 377.46-70.74 383.94-82.62C388.26-89.64 392.58-96.66 394.74-98.82C396.36-100.98 397.98-103.14 396.90-103.68C396.90-103.68 397.44-104.76 399.06-105.30C400.14-105.84 401.22-106.92 400.68-107.46C400.14-108.54 401.22-109.62 402.84-110.70C404.46-111.24 407.16-113.94 408.78-116.64C410.40-119.34 410.94-120.42 409.32-119.88C408.24-118.80 408.78-119.88 410.94-122.04C413.64-124.20 415.26-126.36 414.72-126.90C414.72-127.44 415.26-127.98 415.80-127.98C416.34-127.44 419.04-130.14 422.28-132.84C426.06-137.16 427.14-137.70 426.60-135.54C424.98-129.06 420.66-85.32 419.58-64.26C418.50-41.04 420.66-11.88 424.98 7.02C428.76 22.68 436.86 39.96 442.80 44.28C448.74 48.60 466.02 54 472.50 54C498.96 54 529.20 5.94 559.98-84.24C577.26-133.92 583.20-167.94 576.18-176.04ZM451.44-156.06C452.52-163.62 453.60-165.24 461.16-172.80C478.44-188.46 515.16-211.68 515.16-206.28C515.16-201.96 501.66-183.60 489.78-171.72C481.68-163.62 473.58-157.14 466.02-153.36L466.02-153.36C450.90-145.26 449.82-145.80 451.44-156.06ZM384.48-249.48C395.82-374.76 408.24-436.86 429.84-473.58C433.62-480.60 434.16-481.14 436.32-478.44C447.66-462.24 432.54-381.78 399.06-280.80C385.56-239.76 383.40-235.44 384.48-249.48ZM746.28-173.34C745.74-173.34 744.66-174.42 743.58-175.50C741.42-179.28 737.64-175.50 732.78-163.08C730.08-156.06 726.30-148.50 725.22-145.80C724.14-142.56 723.06-139.86 723.06-139.32C723.06-138.78 719.28-130.14 715.50-120.42C710.64-110.70 704.16-95.58 700.38-86.40C697.14-77.76 693.36-69.66 692.28-69.12C691.74-68.04 691.74-70.20 693.36-73.98C719.28-134.46 729.54-160.92 731.70-170.10L732.78-174.42L729.54-170.64C727.92-168.48 718.20-147.96 708.48-125.28C698.76-102.06 687.42-77.22 684.18-69.66L677.70-56.16L676.62-62.64C676.08-66.42 675.00-70.20 674.46-71.28C672.30-73.98 666.90-132.30 666.90-148.50C666.90-159.30 666.36-162 663.12-166.86C658.26-173.88 650.70-178.74 646.38-177.66C640.98-176.04 630.72-149.04 607.50-71.82C602.64-54 596.70-36.18 594.54-31.86C591.84-24.84 591.30-24.30 589.68-28.08C584.28-43.20 577.26-96.12 576.18-137.16C575.10-164.70 577.26-197.10 579.96-201.42C580.50-202.50 583.20-198.72 585.36-193.86L589.68-184.14L589.14-191.70C588.06-202.50 585.90-207.90 581.04-212.76C575.64-219.24 571.86-216.54 568.62-204.12C564.84-191.70 564.84-190.62 562.68-177.12C561.60-167.94 561.60-168.48 562.14-181.98C563.22-198.72 564.84-207.90 567.54-213.84L569.70-218.16L566.46-214.38C564.30-212.22 562.14-205.20 559.98-194.94C556.20-172.80 556.20-98.28 559.98-71.28C566.46-31.32 572.40-16.74 585.36-5.94L585.36-5.94C592.92-0.54 595.08 0.54 600.48 0C606.42 0 607.50-1.08 611.28-8.10C613.44-12.42 621.00-36.18 627.48-59.94C634.50-84.24 641.52-109.62 643.68-116.10L647.46-127.98L648.54-108.54C649.08-97.20 649.62-79.38 650.16-68.04C650.70-48.06 653.40-31.86 657.18-25.38C658.80-22.14 659.88-21.60 669.60-22.68C675.54-23.22 682.56-24.84 685.26-26.46C694.44-31.32 704.16-51.84 732.24-121.50C746.28-157.68 750.60-172.80 746.28-173.34ZM560.52-132.84C559.98-132.30 559.98-133.38 559.98-135C559.98-136.62 559.98-137.16 561.06-135.54L561.06-135.54C561.06-134.46 561.06-133.38 560.52-132.84ZM560.52-140.94C559.98-140.40 559.98-140.94 559.98-142.56C559.98-144.72 559.98-145.26 561.06-143.64L561.06-143.64C561.06-142.56 561.06-140.94 560.52-140.94ZM559.98-149.58C559.98-152.28 560.52-152.82 561.06-151.74C561.06-150.66 561.06-149.04 561.06-147.96C560.52-146.88 559.98-147.42 559.98-149.58ZM560.52-154.98C559.98-154.44 559.98-155.52 559.98-157.14C559.98-159.30 559.98-159.30 561.06-158.22L561.06-158.22C561.06-157.14 561.06-155.52 560.52-154.98ZM562.14-106.92C561.60-106.38 561.60-107.46 561.60-109.08C561.60-111.24 561.60-111.24 562.68-110.16L562.68-110.16C562.68-109.08 562.68-107.46 562.14-106.92ZM602.64-29.16C597.78-16.20 595.08-11.34 595.08-15.12C595.08-16.20 595.62-18.36 596.70-19.98C597.78-21.06 600.48-28.08 603.18-34.56C605.34-41.04 607.50-45.90 607.50-44.28C607.50-43.20 605.34-36.72 602.64-29.16ZM643.14-157.68C640.98-154.98 640.98-157.68 643.14-162C643.68-164.16 644.22-164.16 644.22-162.54C644.22-161.46 643.68-159.30 643.14-157.68ZM663.66-31.32C660.96-31.32 655.56-56.70 656.10-69.66C656.10-82.62 658.26-76.68 659.34-59.94C659.88-52.92 661.50-43.20 662.58-38.88L662.58-38.88C664.20-34.56 664.74-31.32 663.66-31.32ZM825.66-29.70C826.20-29.16 832.14-28.62 838.62-28.08C855.36-27.54 855.36-28.08 868.32-66.96C879.66-102.60 893.70-150.12 895.32-160.38C896.40-166.32 895.86-166.86 892.62-169.02C888.84-171.72 888.30-171.72 886.68-169.56C885.06-167.94 883.98-167.94 882.36-169.02C879.12-171.72 874.80-163.62 864.54-132.30C851.04-93.42 844.56-75.60 844.02-76.68C843.48-76.68 840.78-103.14 837.00-135.54C829.44-200.34 826.74-218.16 822.42-226.26C815.94-239.22 797.04-241.38 787.86-230.04C781.92-223.02 768.96-191.16 756.54-154.44C753.84-147.42 753.84-149.04 753.84-185.76C753.84-221.40 755.46-279.72 757.62-296.46C758.16-302.40 758.16-302.94 754.92-304.02C752.76-304.56 750.60-304.02 749.52-302.94C748.44-302.40 746.82-301.86 745.74-302.40C741.42-305.10 740.34-295.38 734.94-223.02C729.54-144.72 727.38-51.30 731.16-45.36C732.24-43.74 733.32-43.74 736.02-45.36C737.64-46.44 739.26-46.44 740.34-45.36C740.88-44.82 741.96-44.28 743.04-45.36C744.12-45.90 746.28-46.44 747.90-46.44C753.30-46.98 754.92-51.30 757.62-68.04C760.32-86.40 767.88-119.88 772.74-138.24C783.54-177.66 800.28-218.70 803.52-213.30C804.06-212.22 806.76-187.92 808.92-159.30C816.48-61.02 820.26-32.94 825.66-29.70ZM1061.64 51.84C1071.36 55.62 1086.48 55.08 1094.58 50.76C1111.86 42.12 1135.08 16.20 1203.66-69.12C1249.56-125.82 1270.08-154.44 1270.08-160.92C1270.08-163.62 1267.38-164.70 1259.28-164.70C1254.42-165.24 1253.34-163.62 1238.22-144.18C1219.86-119.34 1168.56-57.24 1124.82-7.02C1094.04 28.08 1078.38 43.74 1073.52 42.66C1069.20 42.12 1060.56 23.22 1056.24 5.94C1037.34-70.20 1042.20-205.20 1068.12-309.96C1087.56-388.26 1119.42-448.74 1145.34-456.84C1151.28-458.46 1151.82-458.46 1155.60-454.68C1165.86-445.50 1176.12-415.80 1182.60-378.54C1184.22-366.12 1186.38-356.40 1186.92-355.86C1187.46-355.86 1187.46-351.54 1186.92-346.68C1186.92-341.82 1187.46-338.04 1188-338.58C1188.54-339.12 1189.08-334.80 1189.08-328.86C1188.54-323.46 1189.08-318.06 1189.62-316.98C1190.70-315.90 1191.24-312.12 1190.70-308.88C1190.16-304.56 1190.70-302.94 1191.78-303.48C1192.32-304.02 1193.40-304.02 1193.40-302.94C1193.40-301.86 1192.32-301.32 1191.78-301.32C1190.70-301.32 1190.16-299.16 1190.16-297L1190.16-292.14L1191.78-296.46C1192.86-301.32 1194.48-289.44 1195.56-257.04C1196.64-232.74 1199.34-223.56 1199.88-243.54L1199.88-255.42L1201.50-244.08C1202.04-237.60 1202.58-232.20 1203.12-231.66C1203.66-231.12 1204.74-238.68 1205.82-248.40C1208.52-271.08 1207.44-332.10 1203.66-359.64C1193.94-433.08 1174.50-467.64 1142.64-468.18C1132.38-468.18 1124.82-464.94 1114.56-455.22C1077.30-420.12 1044.36-325.62 1029.78-211.68C1017.90-111.78 1023.84-5.40 1044.36 34.56C1049.76 45.36 1053 49.14 1061.64 51.84ZM1284.12 21.60C1291.68 24.84 1294.92 24.84 1299.24 21.06C1304.10 16.20 1304.10 14.58 1299.78 9.18C1298.16 7.02 1297.08 4.32 1297.62 3.78C1297.62 2.70 1296.54 1.08 1294.92-0.54C1291.68-3.24 1291.14-3.24 1283.58 1.08C1276.56 4.86 1276.02 4.86 1276.02 1.62C1276.02 0 1275.48-1.62 1274.40-1.62C1273.32-1.62 1272.78 2.16 1272.78 6.48C1272.78 15.12 1274.94 17.82 1284.12 21.60Z" fill="#000000"/>
  </g>
</svg>