<svg width="586" height="286" viewBox="0 0 586 286" xmlns="http://www.w3.org/2000/svg">
  <g transform="translate(45.99918875067604, 185.9)">
    <path d="M6.50-37.44C6.24-34.32-3.12-4.16 10.40 9.36C13.26 12.22 16.64 13.52 20.28 13.52C47.06 13.52 92.04-56.42 105.30-82.94C116.74-105.56 130-137.54 108.68-151.32C103.74-154.44 98.28-156 92.30-156C52.78-156-2.86-89.70-6.76-58.76C-9.10-40.04 6.50-38.48 6.50-37.44ZM95.68-151.58C96.98-151.58 98.54-151.58 99.84-151.32C152.36-143 46.80 9.10 16.12 9.10C15.34 9.10 14.82 9.10 14.04 8.84C11.44 8.06 9.36 1.56 8.84-7.02C8.32-16.12 10.92-28.34 13.26-37.44C35.88-38.74 53.04-44.72 63.96-51.48C65.26-52.26 66.04-52.78 66.04-53.04C66.30-53.30 65.26-55.12 64.48-55.64C63.44-56.42 61.88-56.94 61.36-56.94C60.06-56.94 45.24-45.50 14.82-42.38C29.12-84.76 48.36-116.74 55.38-124.28C56.16-125.06 56.42-125.32 56.16-125.84C55.90-127.14 53.04-129.22 51.48-129.22C48.88-129.22 22.36-91 8.58-44.46C8.06-42.64 8.06-42.38 7.54-42.38L6.76-42.38C-28.08-42.38 49.14-151.58 95.68-151.58ZM127.92-65.78C127.92-66.30 129.74-71.24 131.30-75.40C133.38-80.34 135.72-84.50 132.08-88.14C130.78-89.44 129.22-89.96 127.92-89.96C123.76-89.96 120.12-85.54 119.60-85.54C119.60-85.54 119.60-86.06 120.12-86.84C120.64-87.88 120.64-88.14 120.38-88.66C120.12-90.22 117.52-92.04 116.22-92.04C115.70-92.04 89.96-45.50 89.18-44.20C89.96-42.90 91.26-40.56 92.82-40.30C93.34-40.30 94.64-40.30 94.64-40.56C96.98-43.68 102.96-61.88 122.46-79.30C124.28-81.38 127.92-83.98 128.18-83.98C128.70-83.98 122.46-72.02 122.20-66.82C122.20-64.74 123.76-59.80 128.44-59.80C132.86-59.80 149.50-69.94 153.66-72.28C154.70-72.80 157.04-76.18 151.58-78C151.32-78 127.92-64.48 127.92-65.78ZM152.88-62.66C153.40-63.18 153.40-63.44 153.66-63.44C153.66-55.12 153.92-41.60 163.54-38.22C164.06-37.96 164.84-37.96 165.36-37.96C177.06-37.96 204.10-58.50 214.50-69.94C219.44-75.40 216.84-76.96 212.94-78C205.40-69.94 195-59.28 177.84-49.40C171.60-45.76 164.32-42.64 162.50-42.64C159.12-42.64 159.64-61.62 159.12-65C158.86-66.30 158.34-65.78 161.46-67.34C179.14-74.88 196.56-82.94 194.22-91.26C193.18-94.90 189.80-96.98 186.42-96.98C180.18-96.98 167.18-86.58 162.76-82.68L161.46-81.38C160.94-81.38 166.92-90.22 184.08-125.58C190.06-138.32 189.80-136.76 189.80-137.80C189.80-139.36 187.46-141.70 185.64-141.96C184.08-142.22 183.56-137.02 144.82-65.52C138.84-54.86 136.50-50.18 136.50-49.92C136.50-49.40 139.10-46.54 140.92-46.54C141.70-46.54 142.22-46.80 142.74-47.58C146.12-53.30 150.02-59.28 152.88-62.66ZM165.88-76.18C165.62-76.18 166.14-76.44 166.92-77.22C173.16-83.20 185.90-92.30 188.50-92.30C189.28-92.30 189.02-91.26 186.94-88.92C184.86-86.32 168.48-76.18 165.88-76.18ZM206.70-57.98C207.74-54.34 210.34-52 212.94-52C213.72-52 214.50-52.26 215.28-52.52C222.30-55.90 243.36-81.64 243.62-81.38C243.62-81.12 232.70-58.76 234.52-48.88C235.30-45.24 238.16-40.56 242.32-40.56C251.16-40.56 266.24-62.40 274.30-71.50C275.86-73.32 277.94-76.70 271.44-78C266.50-72.02 251.94-54.60 245.96-49.66C244.92-48.62 239.72-44.46 239.20-45.76C238.16-49.14 243.10-64.22 244.40-67.34C251.16-84.50 262.34-100.62 262.86-104.26C263.38-106.60 259.74-109.98 258.44-109.46C256.88-109.20 240.24-86.32 223.08-68.38C217.88-62.92 212.16-57.72 211.64-57.98C209.82-57.98 216.58-72.54 220.74-78.26C221.78-80.08 221.78-80.08 221.78-80.86C221.26-82.68 218.66-84.50 217.88-84.50C216.32-84.50 204.36-66.04 206.70-57.98ZM310.44-56.16C310.18-56.16 310.70-60.32 311.48-63.96C314.86-79.04 325.78-103.22 323.18-109.20C322.14-111.54 319.54-113.36 317.46-113.62C309.66-114.14 274.82-69.94 274.56-70.20C274.56-70.46 276.38-73.84 278.72-78C280.54-81.12 280.54-81.38 280.28-81.90C280.02-83.46 277.68-85.28 276.12-85.28C274.56-85.28 262.34-62.14 262.08-57.46C262.08-55.64 264.94-52.78 266.76-52.78C269.36-52.78 272.22-56.42 278.98-65C300.30-92.04 317.98-107.90 317.72-106.86C317.46-101.92 307.06-75.66 305.24-63.18C304.72-59.02 304.98-55.12 308.36-52.26C309.40-51.48 310.70-50.96 312-50.96C316.68-50.96 324.22-56.68 347.88-72.02C349.70-73.06 352.30-76.18 346.58-78C341.64-74.88 312-56.16 310.44-56.16ZM400.92-67.86C415.48-98.80 450.58-146.90 484.64-146.90C488.80-146.90 494-146.12 494.78-142.22C497.64-125.32 470.60-100.10 464.62-100.10C462.28-100.10 469.56-121.16 476.32-127.92C477.88-129.22 477.88-129.74 477.10-131.04C476.32-132.08 474.76-132.86 473.46-133.12C470.08-133.38 461.50-116.48 459.68-109.46C458.90-107.38 459.16-106.34 459.16-102.18C460.20-100.10 461.24-97.24 464.10-95.94C464.88-95.42 465.14-95.42 467.22-95.42C469.56-95.42 469.82-95.42 471.38-95.94C479.70-99.58 496.60-116.48 499.72-131.04C502.32-143.52 493.22-151.84 480.22-151.84C478.40-151.84 476.58-151.58 474.50-151.32C417.04-140.40 358.54-19.50 385.58 8.06C388.70 11.18 391.56 12.22 394.68 12.22C414.44 12.22 470.34-56.16 483.34-72.02C484.64-73.84 484.64-76.70 480.22-78C468.26-60.58 405.60 8.58 391.56 8.58C391.04 8.58 390.78 8.32 390.52 8.32C386.36 6.50 376.48-15.86 400.92-67.86Z" fill="#000000"/>
  </g>
</svg>