<svg width="1445" height="698" viewBox="0 0 1445 698" xmlns="http://www.w3.org/2000/svg">
  <g transform="translate(8.355633802816902, 453.7)">
    <path d="M590.16-130.55L590.16-130.55L590.16-130.55Q579.14-110.39 561.09-96.80Q543.05-83.20 521.25-76.41L521.25-76.41Q509.53-72.66 497.58-70.78L497.58-70.78Q500.63-56.02 501.09-41.48L501.09-41.48Q502.27-5.16 492.19 30L492.19 30Q471.56 97.50 420.70 146.95L420.70 146.95Q387.66 180.47 344.30 198.98L344.30 198.98Q310.55 212.81 274.22 216.09L274.22 216.09Q236.48 220.31 201.09 206.48L201.09 206.48Q164.30 190.08 146.95 153.75L146.95 153.75Q136.64 130.78 133.83 105.70L133.83 105.70Q129.14 69.38 134.06 33.05L134.06 33.05Q138.75-3.75 152.34-38.20L152.34-38.20Q161.25-60.23 172.50-81.09L172.50-81.09Q189.14-113.20 210-142.50L210-142.50Q165-158.20 117.42-160.31L117.42-160.31Q99.61-161.02 81.33-158.44Q63.05-155.86 47.34-146.48L47.34-146.48Q34.92-138.28 26.60-125.63Q18.28-112.97 14.53-98.44L14.53-98.44Q6.33-64.92 17.58-33.16Q28.83-1.41 51.09 23.91L51.09 23.91Q52.03 25.08 50.74 26.37Q49.45 27.66 47.58 28.24Q45.70 28.83 44.77 27.89L44.77 27.89Q22.97 3.52 11.25-26.95L11.25-26.95Q0-57.19 5.39-89.06L5.39-89.06Q11.02-119.06 32.81-140.39L32.81-140.39Q45.47-152.11 61.64-157.62Q77.81-163.13 94.69-164.30L94.69-164.30Q130.78-167.34 166.17-160.08L166.17-160.08Q190.55-155.39 213.98-147.66L213.98-147.66Q217.27-152.34 221.02-156.80L221.02-156.80Q258.28-203.91 308.20-237.19L308.20-237.19Q338.44-257.11 372.19-270.94Q405.94-284.77 441.80-290.16L441.80-290.16Q470.63-294.61 500.27-290.86Q529.92-287.11 555-271.17L555-271.17Q589.92-247.50 600.23-206.25L600.23-206.25Q608.91-166.64 590.16-130.55ZM493.83-29.77L493.83-29.77L493.83-29.77Q494.06-49.69 490.08-69.61L490.08-69.61Q464.30-66.33 438.40-68.79Q412.50-71.25 387.42-77.11L387.42-77.11Q355.78-84.84 325.55-96.80L325.55-96.80Q306.33-104.30 287.11-112.50L287.11-112.50Q273.05-118.59 258.75-124.22L258.75-124.22Q237.42-133.13 215.39-140.63L215.39-140.63Q209.77-133.13 204.61-125.16L204.61-125.16Q182.58-91.17 165.70-54.14L165.70-54.14Q135.23 13.13 139.69 86.72L139.69 86.72Q140.86 110.86 148.01 134.41Q155.16 157.97 171.33 176.48L171.33 176.48Q196.88 203.67 233.67 209.77L233.67 209.77Q269.53 215.39 304.92 206.95L304.92 206.95Q321.80 203.20 337.27 197.58L337.27 197.58Q344.53 194.77 351.80 191.48L351.80 191.48Q355.08 189.84 358.36 188.20L358.36 188.20Q360 187.50 361.05 186.91Q362.11 186.33 363.75 185.39L363.75 185.39Q387.42 171.80 407.58 153.05L407.58 153.05Q432.42 130.55 451.17 102.66L451.17 102.66Q492.19 42.66 493.83-29.77ZM482.58-108.28L482.58-108.28L482.58-108.28Q492.66-93.05 496.64-75L496.64-75Q523.59-78.75 547.27-92.11L547.27-92.11Q582.19-113.91 592.50-153.98L592.50-153.98Q601.64-192.66 583.59-228.28L583.59-228.28Q562.50-266.48 520.78-280.31L520.78-280.31Q490.31-289.45 458.44-287.34L458.44-287.34Q422.34-284.77 388.13-272.58L388.13-272.58Q324.38-249.61 273.28-205.08L273.28-205.08Q243.05-178.36 219.14-146.02L219.14-146.02Q256.41-132.89 292.73-117.19L292.73-117.19Q297.66-115.08 302.34-113.20L302.34-113.20Q332.34-100.08 363.52-89.77L363.52-89.77Q395.63-79.69 428.67-75.23L428.67-75.23Q458.67-71.02 488.91-74.06L488.91-74.06Q485.63-86.72 479.53-98.20L479.53-98.20Q471.80-112.03 458.67-121.52Q445.55-131.02 429.38-130.55L429.38-130.55Q428.20-130.55 427.38-130.90Q426.56-131.25 426.80-132.42L426.80-132.42Q427.50-133.83 428.91-134.53Q430.31-135.23 431.48-135.47L431.48-135.47Q447.19-135.94 460.43-128.44Q473.67-120.94 482.58-108.28ZM551.02-4.22L551.02-4.22L551.02-4.22L551.02-4.22Q551.02-4.45 550.90-4.45Q550.78-4.45 550.78-4.45Q550.78-4.45 550.78-4.45Q550.78-4.45 551.02-4.22ZM582.89-28.59L582.89-28.59L582.89-28.59Q584.30-28.36 584.65-27.54Q585-26.72 584.30-25.55L584.30-25.55Q583.59-24.84 582.89-23.91L582.89-23.91Q582.42-23.44 581.95-22.97L581.95-22.97Q581.72-22.73 581.48-22.50L581.48-22.50Q571.41-9.14 557.34-1.17L557.34-1.17Q553.83 0.47 550.08 1.05Q546.33 1.64 542.81 0L542.81 0Q539.53-1.64 537.89-4.92L537.89-4.92Q536.48-8.67 536.48-12.66L536.48-12.66Q536.72-15.47 536.95-18.05L536.95-18.05Q536.95-19.45 536.95-20.86L536.95-20.86Q537.42-24.84 536.48-28.36L536.48-28.36Q536.25-29.30 535.55-30L535.55-30Q535.55-30 535.43-30.12Q535.31-30.23 535.31-30.23Q535.31-30.23 535.31-30.23L535.31-30.23Q535.31-30.23 535.08-30.23L535.08-30.23Q535.08-30.23 535.08-30.23L535.08-30.23Q535.08-30.23 535.08-30.23L535.08-30.23Q535.08-30.23 534.96-30.23Q534.84-30.23 534.84-30.23Q534.84-30.23 534.84-30.23L534.84-30.23Q534.84-30.23 534.84-30.23L534.84-30.23Q534.84-30.23 534.61-30.23L534.61-30.23Q534.61-30.23 534.61-30.23L534.61-30.23Q534.61-30.23 534.61-30.23L534.61-30.23Q534.14-30 533.91-29.77L533.91-29.77Q533.44-29.53 532.97-29.06L532.97-29.06Q529.22-26.02 524.53-25.08L524.53-25.08Q522.19-24.84 520.08-25.55L520.08-25.55Q518.44-25.08 517.03-26.02L517.03-26.02Q516.33-26.48 516.56-27.19Q516.80-27.89 517.27-28.36L517.27-28.36Q517.03-29.06 517.03-29.77L517.03-29.77Q517.03-31.88 517.85-34.10Q518.67-36.33 519.84-38.20L519.84-38.20Q522.42-42.66 525.94-46.17L525.94-46.17Q529.92-50.39 535.31-52.27L535.31-52.27Q536.72-52.73 538.36-52.62Q540-52.50 540.94-51.33L540.94-51.33Q541.64-50.39 541.52-49.34Q541.41-48.28 541.17-47.11L541.17-47.11Q540.47-45.47 539.30-44.06L539.30-44.06Q539.06-43.59 538.59-43.13L538.59-43.13Q537.42-41.25 536.02-39.38L536.02-39.38Q533.20-35.86 530.16-32.81L530.16-32.81Q532.50-34.45 535.31-35.16L535.31-35.16Q537.89-35.86 540.35-35.51Q542.81-35.16 544.22-32.81L544.22-32.81Q544.92-31.17 545.16-29.18Q545.39-27.19 545.16-25.31L545.16-25.31Q545.16-22.97 544.92-20.39L544.92-20.39Q544.45-15.70 544.92-11.25L544.92-11.25Q545.39-8.20 547.50-6.09L547.50-6.09Q547.97-5.63 548.67-5.16L548.67-5.16Q548.91-5.16 549.14-4.92L549.14-4.92Q549.38-4.92 549.38-4.92L549.38-4.92Q549.84-4.69 550.55-4.45L550.55-4.45Q550.78-4.45 550.78-4.45L550.78-4.45Q551.02-4.45 551.25-4.22L551.25-4.22Q551.02-4.22 551.02-4.22L551.02-4.22Q551.02-4.22 551.02-4.22L551.02-4.22Q551.02-4.22 551.25-4.22L551.25-4.22Q551.25-4.22 551.48-4.22L551.48-4.22Q551.95-4.22 552.42-4.22L552.42-4.22Q552.42-4.22 552.42-4.22L552.42-4.22Q552.42-4.22 552.42-4.22L552.42-4.22Q552.66-4.22 552.89-4.45L552.89-4.45Q552.89-4.22 552.89-4.22L552.89-4.22Q552.89-4.22 552.89-4.22L552.89-4.22Q552.89-4.22 552.89-4.45L552.89-4.45Q553.13-4.45 553.13-4.45L553.13-4.45Q553.13-4.45 553.13-4.45L553.13-4.45Q553.13-4.45 553.36-4.45L553.36-4.45Q553.36-4.45 553.36-4.45L553.36-4.45Q553.36-4.45 553.59-4.45L553.59-4.45Q553.83-4.45 554.06-4.69L554.06-4.69Q554.06-4.69 554.06-4.69L554.06-4.69Q554.06-4.69 554.06-4.69L554.06-4.69Q554.06-4.69 554.06-4.69L554.06-4.69Q554.06-4.69 554.06-4.69L554.06-4.69Q554.06-4.69 554.06-4.69L554.06-4.69Q554.06-4.69 554.06-4.69L554.06-4.69Q554.30-4.69 554.53-4.92L554.53-4.92Q554.77-4.92 554.77-4.92L554.77-4.92Q555.23-5.16 555.47-5.16L555.47-5.16Q555.47-5.16 555.70-5.39L555.70-5.39Q555.70-5.39 555.70-5.39L555.70-5.39Q555.70-5.39 555.94-5.39L555.94-5.39Q555.94-5.39 555.94-5.39L555.94-5.39Q555.94-5.39 555.94-5.39L555.94-5.39Q555.94-5.63 555.94-5.63L555.94-5.63Q556.17-5.63 556.17-5.63L556.17-5.63Q556.17-5.63 556.17-5.63L556.17-5.63Q556.17-5.63 556.17-5.63L556.17-5.63Q557.34-6.33 558.75-7.27L558.75-7.27Q558.75-7.27 558.98-7.27L558.98-7.27Q559.22-7.50 559.45-7.73L559.45-7.73Q560.16-8.20 560.86-8.91L560.86-8.91Q562.27-10.08 563.44-11.25L563.44-11.25Q564.84-12.42 566.25-13.83L566.25-13.83Q566.48-14.06 566.72-14.30L566.72-14.30Q566.72-14.30 566.84-14.41Q566.95-14.53 566.95-14.53L566.95-14.53Q567.19-14.53 567.19-14.77L567.19-14.77Q567.66-15.23 568.36-15.94L568.36-15.94Q572.34-20.16 576.09-24.61L576.09-24.61Q576.80-25.31 577.27-26.02L577.27-26.02Q579.61-28.36 582.89-28.59ZM535.55-47.58L535.55-47.58L535.55-47.58Q535.55-47.58 535.55-47.58L535.55-47.58Q535.78-47.81 535.78-47.81L535.78-47.81Q535.55-47.81 535.55-47.58L535.55-47.58Q535.55-47.58 535.55-47.58ZM526.88-38.20L526.88-38.20L526.88-38.20Q526.41-37.03 525.94-35.86L525.94-35.86Q528.28-38.44 530.16-41.25L530.16-41.25Q530.39-41.48 530.63-41.72L530.63-41.72Q531.80-43.36 532.73-45L532.73-45Q532.73-45 532.73-45.12Q532.73-45.23 532.85-45.35Q532.97-45.47 532.97-45.47L532.97-45.47Q532.97-45.47 533.09-45.59Q533.20-45.70 533.20-45.70L533.20-45.70Q533.20-45.94 533.20-45.94L533.20-45.94Q533.20-45.94 533.20-45.94L533.20-45.94Q533.20-45.94 533.20-45.94L533.20-45.94Q532.97-45.70 532.97-45.70L532.97-45.70Q532.27-45.23 531.80-44.77L531.80-44.77Q531.80-44.77 531.80-44.77Q531.80-44.77 531.80-44.77L531.80-44.77Q531.56-44.53 531.56-44.41Q531.56-44.30 531.33-44.30L531.33-44.30Q528.75-41.48 526.88-38.20ZM534.84-30.47L534.84-30.47L534.84-30.47Q534.84-30.47 534.84-30.47L534.84-30.47Q534.84-30.47 534.84-30.47L534.84-30.47Q534.84-30.47 534.84-30.47ZM534.84-30.23L534.84-30.23L534.84-30.23Q534.84-30.23 534.84-30.47L534.84-30.47Q534.84-30.47 534.84-30.47L534.84-30.47Q534.61-30.23 534.61-30.23L534.61-30.23Q534.61-30.23 534.61-30.23L534.61-30.23Q534.61-30.23 534.84-30.23ZM549.14-4.92L549.14-4.92L549.14-4.92L549.14-4.92Q549.14-4.92 549.14-4.92Q549.14-4.92 549.14-4.92ZM554.53-4.92L554.53-4.92L554.53-4.92Q554.30-4.69 554.06-4.69L554.06-4.69Q554.06-4.69 554.06-4.69L554.06-4.69Q554.06-4.69 554.06-4.69L554.06-4.69Q554.30-4.92 554.41-4.92Q554.53-4.92 554.53-4.92Q554.53-4.92 554.53-4.92ZM556.17-5.63L556.17-5.63L556.17-5.63Q555.94-5.63 555.94-5.63L555.94-5.63Q555.94-5.63 555.94-5.39L555.94-5.39Q555.94-5.39 555.94-5.39L555.94-5.39Q555.94-5.39 555.70-5.39L555.70-5.39Q555.47-5.39 555.47-5.39Q555.47-5.39 555.59-5.39Q555.70-5.39 556.17-5.63ZM553.36-4.45L553.36-4.45L553.36-4.45Q553.13-4.45 553.13-4.45L553.13-4.45Q553.13-4.45 553.13-4.45L553.13-4.45Q552.89-4.45 552.89-4.45L552.89-4.45Q553.13-4.45 553.24-4.45Q553.36-4.45 553.36-4.45Q553.36-4.45 553.36-4.45ZM589.45-37.50L589.45-37.50L589.45-37.50Q589.22-37.50 589.22-37.50Q589.22-37.50 589.69-37.73L589.69-37.73Q589.45-37.50 589.45-37.50ZM669.14-195L669.14-195L669.14-195Q674.06-191.95 675.70-186.33L675.70-186.33Q678.05-176.48 675.94-166.64L675.94-166.64Q672.66-148.36 664.92-131.25L664.92-131.25Q656.95-113.20 645.94-96.33L645.94-96.33Q635.63-80.39 623.67-65.86L623.67-65.86Q613.59-53.44 601.88-42.66L601.88-42.66Q597.19-38.44 592.27-34.92L592.27-34.92Q589.22-32.58 585.70-30.94L585.70-30.94Q585.47-30.23 585.47-29.30L585.47-29.30Q585-26.95 584.53-24.38L584.53-24.38Q587.58-27.89 590.86-30.70L590.86-30.70Q594.84-34.22 599.30-37.03L599.30-37.03Q604.22-40.55 610.08-42.19L610.08-42.19Q611.48-42.66 613.13-42.42Q614.77-42.19 615.94-41.25L615.94-41.25Q617.11-40.31 617.34-39.02Q617.58-37.73 617.11-36.33L617.11-36.33Q615.47-31.64 611.95-28.13L611.95-28.13Q603.05-17.81 589.69-14.30L589.69-14.30Q591.33-14.06 593.20-13.59L593.20-13.59Q593.44-13.59 593.91-13.59L593.91-13.59Q593.91-13.59 594.14-13.36L594.14-13.36Q594.14-13.36 594.14-13.36Q594.14-13.36 594.14-13.36L594.14-13.36Q594.14-13.36 594.14-13.36L594.14-13.36Q594.14-13.36 594.38-13.36L594.38-13.36Q595.31-13.36 596.02-13.13L596.02-13.13Q597.89-12.89 599.53-12.89L599.53-12.89Q603.28-12.42 607.03-12.42L607.03-12.42Q607.97-12.42 609.14-12.42L609.14-12.42Q609.61-12.42 610.08-12.42L610.08-12.42Q610.08-12.42 610.31-12.42L610.31-12.42Q610.31-12.42 610.43-12.42Q610.55-12.42 610.55-12.42L610.55-12.42Q610.78-12.42 610.78-12.42L610.78-12.42Q610.78-12.42 610.90-12.42Q611.02-12.42 611.02-12.42L611.02-12.42Q611.25-12.42 611.48-12.66L611.48-12.66Q611.95-12.66 612.42-12.66L612.42-12.66Q613.36-12.66 614.30-12.66L614.30-12.66Q618.52-13.13 622.50-13.83L622.50-13.83Q622.97-14.06 623.67-14.06L623.67-14.06Q623.67-14.06 623.79-14.06Q623.91-14.06 624.14-14.06L624.14-14.06Q624.14-14.30 624.26-14.30Q624.38-14.30 624.38-14.30Q624.38-14.30 624.38-14.30L624.38-14.30Q624.38-14.30 624.61-14.30L624.61-14.30Q625.31-14.53 626.02-14.53L626.02-14.53Q628.13-15 630-15.70L630-15.70Q632.11-16.41 633.98-16.88L633.98-16.88Q634.22-17.11 634.22-17.11L634.22-17.11Q634.45-17.11 634.45-17.11L634.45-17.11Q634.92-17.34 635.39-17.58L635.39-17.58Q636.33-17.81 637.27-18.28L637.27-18.28Q639.38-19.22 641.25-20.16L641.25-20.16Q641.25-20.16 641.48-20.16L641.48-20.16Q641.48-20.39 641.48-20.39L641.48-20.39Q641.48-20.39 641.48-20.39L641.48-20.39Q641.72-20.39 641.72-20.39L641.72-20.39Q641.72-20.39 641.72-20.39L641.72-20.39Q642.19-20.63 642.42-20.86L642.42-20.86Q643.36-21.33 644.30-21.80L644.30-21.80Q646.17-22.97 648.05-24.38L648.05-24.38Q648.05-24.38 648.05-24.38L648.05-24.38Q648.05-24.38 648.05-24.38L648.05-24.38Q648.28-24.61 648.28-24.61L648.28-24.61Q648.75-25.08 649.22-25.31L649.22-25.31Q650.16-26.02 650.86-26.72L650.86-26.72Q652.03-27.42 653.55-28.01Q655.08-28.59 656.48-28.36L656.48-28.36Q657.66-27.66 657.30-26.72Q656.95-25.78 656.25-25.08L656.25-25.08Q647.58-17.81 637.27-13.83L637.27-13.83Q619.92-7.03 601.41-7.27L601.41-7.27Q591.56-7.50 582.19-10.08L582.19-10.08Q581.25-4.92 580.55 0.23L580.55 0.23Q580.31 1.41 579.14 2.11Q577.97 2.81 577.03 3.28L577.03 3.28Q576.56 3.28 575.74 3.40Q574.92 3.52 574.34 3.28Q573.75 3.05 573.75 2.11L573.75 2.11Q574.92-4.45 576.09-11.02L576.09-11.02Q575.63-11.48 575.86-12.19L575.86-12.19Q575.16-12.66 574.45-12.89L574.45-12.89Q573.98-13.36 574.10-13.95Q574.22-14.53 574.57-15.12Q574.92-15.70 575.39-15.94L575.39-15.94Q576.09-16.64 577.03-16.88L577.03-16.88Q581.02-41.25 586.17-65.39L586.17-65.39Q591.80-92.58 600.47-118.83L600.47-118.83Q607.97-143.67 621.09-165.94L621.09-165.94Q627.66-176.95 636.56-186.09L636.56-186.09Q645.47-195.94 658.59-197.34L658.59-197.34Q664.22-197.58 669.14-195ZM584.77-34.45L584.77-34.45L584.77-34.45L584.77-34.45Q585-34.69 585-34.69Q585-34.69 584.77-34.45ZM588.05-20.39L588.05-20.39L588.05-20.39Q587.11-19.22 586.41-18.05L586.41-18.05Q586.88-18.28 587.34-18.28L587.34-18.28Q587.34-18.28 587.46-18.28Q587.58-18.28 587.58-18.28L587.58-18.28Q587.81-18.52 587.81-18.52L587.81-18.52Q589.92-18.98 592.03-19.69L592.03-19.69Q592.03-19.69 592.15-19.69Q592.27-19.69 592.50-19.69L592.50-19.69Q592.50-19.69 592.62-19.80Q592.73-19.92 592.85-19.92Q592.97-19.92 592.97-19.92Q592.97-19.92 592.97-19.92L592.97-19.92Q592.97-19.92 592.97-19.92L592.97-19.92Q593.20-19.92 593.44-20.16L593.44-20.16Q594.38-20.39 595.55-20.86L595.55-20.86Q595.78-21.09 596.25-21.33L596.25-21.33Q596.48-21.56 596.72-21.56L596.72-21.56Q596.72-21.56 596.72-21.56L596.72-21.56Q596.72-21.56 596.72-21.56L596.72-21.56Q597.66-22.03 598.36-22.50L598.36-22.50Q599.06-22.97 599.77-23.44L599.77-23.44Q600-23.67 600.23-23.67L600.23-23.67Q600.47-23.91 600.47-23.91L600.47-23.91Q600.47-23.91 600.47-23.91Q600.47-23.91 600.70-24.14L600.70-24.14Q600.70-24.14 600.82-24.14Q600.94-24.14 600.94-24.14L600.94-24.14Q602.58-25.55 603.98-26.95L603.98-26.95Q604.22-26.95 604.22-26.95L604.22-26.95Q604.22-26.95 604.22-26.95L604.22-26.95Q604.22-26.95 604.22-26.95L604.22-26.95Q604.22-27.19 604.45-27.19L604.45-27.19Q604.45-27.19 604.45-27.42L604.45-27.42Q604.69-27.42 604.92-27.66L604.92-27.66Q605.39-28.36 606.09-29.30L606.09-29.30Q607.27-30.70 608.20-32.11L608.20-32.11Q608.44-32.34 608.44-32.58L608.44-32.58Q609.38-33.98 609.61-35.63L609.61-35.63Q609.84-36.56 609.14-37.03L609.14-37.03Q608.91-37.03 608.91-37.15Q608.91-37.27 608.91-37.27Q608.91-37.27 608.91-37.27L608.91-37.27Q608.91-37.27 608.91-37.27Q608.91-37.27 608.91-37.27Q608.91-37.27 608.79-37.27Q608.67-37.27 608.67-37.27L608.67-37.27Q608.67-37.27 608.67-37.27L608.67-37.27Q608.67-37.27 608.67-37.27L608.67-37.27Q608.67-37.27 608.67-37.27Q608.67-37.27 608.55-37.27Q608.44-37.27 608.44-37.27L608.44-37.27Q608.44-37.27 608.44-37.27L608.44-37.27Q608.44-37.27 608.44-37.27L608.44-37.27Q608.44-37.27 608.32-37.15Q608.20-37.03 608.09-37.03Q607.97-37.03 607.97-37.03L607.97-37.03Q607.73-36.80 607.27-36.80L607.27-36.80Q607.27-36.80 607.27-36.80L607.27-36.80Q607.03-36.56 607.03-36.56Q607.03-36.56 606.80-36.56L606.80-36.56Q606.80-36.33 606.68-36.33Q606.56-36.33 606.56-36.33L606.56-36.33Q599.30-32.34 593.20-26.48L593.20-26.48Q590.63-23.67 588.05-20.39ZM669.84-170.86L669.84-170.86L669.84-170.86Q670.55-175.78 669.84-181.17Q669.14-186.56 664.92-190.08L664.92-190.08Q661.17-193.13 656.02-193.13L656.02-193.13Q656.02-193.13 655.90-193.13Q655.78-193.13 655.66-193.13Q655.55-193.13 655.31-192.89L655.31-192.89Q654.61-192.89 653.91-192.89L653.91-192.89Q653.67-192.89 653.44-192.66L653.44-192.66Q653.44-192.66 653.32-192.66Q653.20-192.66 653.20-192.66L653.20-192.66Q653.20-192.66 653.20-192.66L653.20-192.66Q653.20-192.66 653.20-192.66Q653.20-192.66 653.20-192.66L653.20-192.66Q652.73-192.66 652.03-192.42L652.03-192.42Q652.03-192.42 652.03-192.42Q652.03-192.42 651.80-192.42L651.80-192.42Q651.80-192.42 651.68-192.30Q651.56-192.19 651.56-192.19L651.56-192.19Q651.56-192.19 651.45-192.19Q651.33-192.19 651.33-192.19Q651.33-192.19 651.33-192.19L651.33-192.19Q650.63-191.95 649.92-191.48L649.92-191.48Q649.45-191.25 649.10-191.13Q648.75-191.02 648.05-190.55L648.05-190.55Q646.88-189.84 645.94-189.14Q645-188.44 643.83-187.50L643.83-187.50Q641.72-185.63 639.84-183.52L639.84-183.52Q635.86-179.06 632.34-174.14L632.34-174.14Q625.31-164.06 619.92-153.05L619.92-153.05Q608.91-129.84 602.11-104.77L602.11-104.77Q594.61-78.98 589.69-52.73L589.69-52.73Q588.05-44.06 586.64-35.63L586.64-35.63Q587.81-36.33 589.22-37.27L589.22-37.27Q589.22-37.27 589.22-37.50L589.22-37.50Q589.45-37.50 589.69-37.73L589.69-37.73Q589.69-37.73 589.69-37.73L589.69-37.73Q589.69-37.73 589.69-37.73L589.69-37.73Q590.16-37.97 590.63-38.44L590.63-38.44Q591.56-39.14 592.73-40.08L592.73-40.08Q597.66-44.06 602.11-48.75L602.11-48.75Q602.81-49.22 603.52-49.92L603.52-49.92Q603.75-50.16 603.98-50.39L603.98-50.39Q603.98-50.39 603.98-50.39Q603.98-50.39 603.98-50.63L603.98-50.63Q604.22-50.63 604.22-50.74Q604.22-50.86 604.22-50.86L604.22-50.86Q605.63-52.27 606.80-53.44L606.80-53.44Q609.61-56.48 612.19-59.53L612.19-59.53Q618.05-65.86 623.20-72.66L623.20-72.66Q634.92-87.42 644.53-103.36L644.53-103.36Q654.38-119.53 661.41-137.34L661.41-137.34Q668.20-153.52 669.84-170.86ZM728.20-28.13L728.20-28.13L728.20-28.13Q728.67-28.13 729.61-28.24Q730.55-28.36 731.37-28.01Q732.19-27.66 732.19-26.72L732.19-26.72Q731.95-25.31 730.55-24.38Q729.14-23.44 727.73-22.97L727.73-22.97Q724.92-22.03 722.11-21.33L722.11-21.33Q710.39-17.58 698.20-18.28L698.20-18.28Q694.45-18.75 690.70-19.92L690.70-19.92Q687.42-15.70 683.67-11.95L683.67-11.95Q675.94-4.69 666.56-0.23L666.56-0.23Q663.52 1.17 660.12 1.76Q656.72 2.34 653.67 1.17L653.67 1.17Q648.98-1.17 647.81-6.33L647.81-6.33Q647.11-11.95 648.52-17.34L648.52-17.34Q649.69-22.73 651.80-27.66L651.80-27.66Q656.02-37.73 663.28-45.70L663.28-45.70Q665.63-48.28 669.14-48.28L669.14-48.28Q670.31-48.28 670.78-47.34Q671.25-46.41 670.31-45.47L670.31-45.47Q663.28-37.50 659.30-27.89L659.30-27.89Q657.42-23.20 656.72-18.52L656.72-18.52Q656.02-15.94 655.78-13.13Q655.55-10.31 656.48-7.97L656.48-7.97Q657.19-6.09 658.59-4.92L658.59-4.92Q660-3.75 661.41-3.75L661.41-3.75Q662.11-3.75 661.64-3.52L661.64-3.52Q662.11-3.52 662.58-3.75L662.58-3.75Q662.58-3.75 662.81-3.75L662.81-3.75Q662.81-3.75 663.05-3.75L663.05-3.75Q663.05-3.75 663.05-3.75L663.05-3.75Q663.28-3.98 663.40-3.98Q663.52-3.98 663.63-3.98Q663.75-3.98 663.75-4.10Q663.75-4.22 663.75-4.22L663.75-4.22Q663.75-4.22 663.98-4.22L663.98-4.22Q664.22-4.22 664.69-4.45L664.69-4.45Q665.16-4.69 665.86-5.16L665.86-5.16Q666.09-5.16 666.33-5.39L666.33-5.39Q666.56-5.39 666.56-5.39L666.56-5.39Q666.56-5.39 666.56-5.39L666.56-5.39Q666.80-5.39 666.80-5.63L666.80-5.63Q667.27-5.86 667.50-5.86L667.50-5.86Q669.38-7.03 671.25-8.20L671.25-8.20Q671.72-8.44 672.19-8.91L672.19-8.91Q672.19-8.91 672.19-8.91Q672.19-8.91 672.42-8.91L672.42-8.91Q672.42-9.14 672.66-9.14L672.66-9.14Q673.36-9.84 674.06-10.31L674.06-10.31Q675.70-11.72 677.34-13.13L677.34-13.13Q678.05-13.83 678.75-14.53L678.75-14.53Q678.75-14.53 678.87-14.65Q678.98-14.77 678.98-14.77L678.98-14.77Q679.22-15 679.69-15.47L679.69-15.47Q682.97-18.98 685.31-22.73L685.31-22.73Q683.44-24.38 682.50-26.48L682.50-26.48Q680.39-31.88 681.80-37.27L681.80-37.27Q682.73-42.42 685.55-46.64L685.55-46.64Q687.66-49.45 690.70-51.21Q693.75-52.97 697.27-52.97L697.27-52.97Q700.31-52.73 701.02-49.69L701.02-49.69Q701.25-47.58 701.02-45.23L701.02-45.23Q701.02-45.23 701.02-45.23L701.02-45.23Q699.61-34.92 694.69-26.02L694.69-26.02Q697.27-24.84 700.31-24.14L700.31-24.14Q701.72-23.91 704.06-23.67L704.06-23.67Q706.17-23.67 708.28-23.67L708.28-23.67Q710.86-23.91 713.67-24.38L713.67-24.38Q714.84-24.38 716.02-24.61L716.02-24.61Q716.72-24.84 717.19-24.84L717.19-24.84Q717.19-24.84 717.30-24.96Q717.42-25.08 717.66-25.08Q717.89-25.08 717.89-25.08Q717.89-25.08 717.89-25.08L717.89-25.08Q723.05-26.25 728.20-28.13ZM693.98-47.81L693.98-47.81L693.98-47.81Q693.98-47.81 694.22-47.81L694.22-47.81Q694.22-47.81 694.22-48.05L694.22-48.05Q694.22-47.81 693.98-47.81L693.98-47.81Q693.98-47.81 693.98-47.81L693.98-47.81Q693.98-47.81 693.98-47.81ZM692.34-47.58L692.34-47.58L692.34-47.58Q692.11-47.58 692.34-47.58L692.34-47.58Q692.34-47.58 692.34-47.58L692.34-47.58Q692.34-47.58 692.34-47.58ZM690.70-41.95L690.70-41.95L690.70-41.95Q689.30-37.50 689.53-33.05L689.53-33.05Q689.77-32.34 690-31.64L690-31.64Q692.11-37.27 692.58-43.36L692.58-43.36Q692.81-43.83 692.81-44.06L692.81-44.06Q693.05-45.47 692.81-46.64L692.81-46.64Q692.58-46.17 692.46-46.05Q692.34-45.94 692.11-45.47L692.11-45.47Q692.11-45.47 692.11-45.47L692.11-45.47Q691.17-43.59 690.70-41.95ZM778.83-20.39L778.83-20.39L778.83-20.39Q778.83-20.39 778.83-20.39L778.83-20.39Q778.83-20.39 778.83-20.39L778.83-20.39Q778.83-20.16 778.59-20.16L778.59-20.16Q778.59-20.16 778.59-20.16Q778.59-20.16 778.71-20.16Q778.83-20.16 778.83-20.39L778.83-20.39Q778.83-20.39 778.83-20.39L778.83-20.39Q778.83-20.39 778.83-20.39ZM733.59-51.80L733.59-51.80L733.59-51.80Q734.06-52.03 734.88-52.03Q735.70-52.03 736.41-51.80Q737.11-51.56 736.88-50.86L736.88-50.86Q735.47-41.72 733.59-32.81L733.59-32.81Q737.34-38.67 742.03-43.83L742.03-43.83Q747.19-50.39 755.16-51.09L755.16-51.09Q758.44-51.33 760.55-49.22L760.55-49.22Q762.66-46.64 762.66-43.59L762.66-43.59Q762.89-40.78 762.66-37.97L762.66-37.97Q762.66-34.69 762.89-31.64L762.89-31.64Q763.36-25.55 768.05-21.56L768.05-21.56Q769.69-20.16 771.80-19.45L771.80-19.45Q772.27-19.45 772.50-19.45Q772.73-19.45 772.97-19.34Q773.20-19.22 773.67-19.22L773.67-19.22Q773.91-19.22 774.14-19.22L774.14-19.22Q774.14-19.22 774.38-19.22L774.38-19.22Q774.38-19.22 774.38-19.22Q774.38-19.22 774.38-19.22L774.38-19.22Q774.38-19.22 774.38-19.22L774.38-19.22Q774.84-19.22 775.55-19.45L775.55-19.45Q775.55-19.45 775.66-19.45Q775.78-19.45 775.78-19.45L775.78-19.45Q776.02-19.45 776.13-19.45Q776.25-19.45 776.25-19.45L776.25-19.45Q776.72-19.69 777.19-19.69L777.19-19.69Q777.89-19.92 778.36-20.16L778.36-20.16Q778.59-20.16 778.59-20.16L778.59-20.16Q778.83-20.16 778.83-20.16Q778.83-20.16 778.83-20.39L778.83-20.39Q778.83-20.39 778.83-20.39L778.83-20.39Q779.06-20.39 779.06-20.39L779.06-20.39Q779.06-20.39 779.06-20.39L779.06-20.39Q778.83-20.39 778.83-20.39L778.83-20.39Q781.41-21.33 783.75-22.50L783.75-22.50Q784.22-22.73 784.45-22.97L784.45-22.97Q784.69-22.97 784.69-22.97Q784.69-22.97 784.92-22.97L784.92-22.97Q784.92-22.97 784.92-22.97L784.92-22.97Q785.16-23.20 785.27-23.32Q785.39-23.44 785.63-23.44L785.63-23.44Q786.56-23.91 787.73-24.61L787.73-24.61Q787.73-24.61 787.73-24.61L787.73-24.61Q790.55-26.25 793.13-27.66L793.13-27.66Q793.59-27.89 794.53-28.01Q795.47-28.13 796.17-28.01Q796.88-27.89 797.34-27.42L797.34-27.42Q797.58-26.48 797.11-25.90Q796.64-25.31 795.94-24.84Q795.23-24.38 794.77-24.14L794.77-24.14Q794.30-23.91 793.83-23.67L793.83-23.67Q793.83-23.67 793.83-23.67L793.83-23.67Q793.13-23.20 792.66-22.97L792.66-22.97Q791.72-22.50 791.02-22.03L791.02-22.03Q790.55-21.80 790.08-21.56L790.08-21.56Q787.27-19.92 784.45-18.52L784.45-18.52Q778.83-15.70 772.73-14.77L772.73-14.77Q767.58-14.06 762.89-16.88L762.89-16.88Q758.20-20.39 756.56-26.02L756.56-26.02Q755.39-30.94 755.86-36.33L755.86-36.33Q755.86-37.03 755.86-37.97L755.86-37.97Q755.86-38.20 755.86-38.44L755.86-38.44Q755.86-40.78 755.39-43.36Q754.92-45.94 752.34-46.64L752.34-46.64Q752.11-46.64 751.99-46.64Q751.88-46.64 751.64-46.64L751.64-46.64Q751.64-46.64 751.64-46.64L751.64-46.64Q751.64-46.64 751.64-46.64Q751.64-46.64 751.64-46.64Q751.64-46.64 751.52-46.52Q751.41-46.41 751.29-46.41Q751.17-46.41 751.17-46.41L751.17-46.41Q751.17-46.41 751.17-46.41L751.17-46.41Q751.17-46.41 751.17-46.41L751.17-46.41Q751.17-46.41 751.05-46.41Q750.94-46.41 750.94-46.17L750.94-46.17Q750.70-46.17 750.70-46.17L750.70-46.17Q750.70-46.17 750.70-46.17L750.70-46.17Q750.70-46.17 750.70-46.17L750.70-46.17Q750.70-46.17 750.59-46.17Q750.47-46.17 750.47-46.17L750.47-46.17Q750.23-45.94 750.23-45.70L750.23-45.70Q747.89-43.83 745.78-41.25L745.78-41.25Q741.56-36.33 738.52-30.70L738.52-30.70Q735.23-24.84 732.42-18.75L732.42-18.75Q729.61-12.66 727.97-6.33L727.97-6.33Q727.50-4.92 726.45-4.22Q725.39-3.52 724.22-3.28L724.22-3.28Q723.75-3.05 722.93-3.05Q722.11-3.05 721.52-3.28Q720.94-3.52 720.94-4.22L720.94-4.22Q726.33-26.48 730.08-48.75L730.08-48.75Q730.31-50.16 731.37-50.86Q732.42-51.56 733.59-51.80ZM793.83-23.67L793.83-23.67L793.83-23.67L793.83-23.67Q793.59-23.67 793.59-23.55Q793.59-23.44 793.59-23.44Q793.59-23.44 793.59-23.55Q793.59-23.67 793.71-23.67Q793.83-23.67 793.83-23.67ZM1216.88-4.22L1216.88-4.22L1216.88-4.22Q1217.34-4.22 1218.40-4.34Q1219.45-4.45 1220.16-4.10Q1220.86-3.75 1220.86-2.81L1220.86-2.81Q1215.94 15.94 1208.91 33.98L1208.91 33.98Q1194.14 71.48 1170.94 104.06L1170.94 104.06Q1147.97 136.64 1117.50 162.89L1117.50 162.89Q1086.09 190.31 1047.89 207.89L1047.89 207.89Q1029.38 216.33 1008.98 219.38Q988.59 222.42 968.67 216.33L968.67 216.33Q936.56 204.61 921.80 173.44L921.80 173.44Q912.66 153.28 911.13 131.13Q909.61 108.98 913.59 87.42L913.59 87.42Q921.33 49.69 939.14 15.47L939.14 15.47Q956.25-19.22 977.11-51.56L977.11-51.56Q998.67-85.08 1023.52-116.48L1023.52-116.48Q1023.52-116.72 1023.52-116.72L1023.52-116.72Q1023.52-116.72 1023.75-116.72L1023.75-116.72Q1013.20-125.63 1007.58-138.05L1007.58-138.05Q1000.31-157.97 1010.51-175.20Q1020.70-192.42 1038.98-200.86L1038.98-200.86Q1059.38-209.53 1081.88-209.53L1081.88-209.53Q1098.28-209.77 1114.92-208.36L1114.92-208.36Q1124.30-215.86 1133.91-222.66L1133.91-222.66Q1169.06-248.44 1208.67-266.02L1208.67-266.02Q1248.28-283.36 1290.94-288.28L1290.94-288.28Q1312.27-290.86 1333.95-287.93Q1355.63-285 1373.67-272.58L1373.67-272.58Q1381.88-266.72 1387.27-258.40Q1392.66-250.08 1393.13-239.77L1393.13-239.77Q1392.66-219.38 1377.89-205.08L1377.89-205.08Q1361.48-190.08 1339.69-185.63L1339.69-185.63Q1316.72-180.94 1293.52-180.94L1293.52-180.94Q1245.23-181.64 1197.66-190.78L1197.66-190.78Q1192.27-191.72 1186.64-192.66L1186.64-192.66Q1151.25-199.22 1115.39-202.73L1115.39-202.73Q1112.81-200.63 1110-198.52L1110-198.52Q1082.11-175.55 1057.73-148.83L1057.73-148.83Q1044.84-134.53 1032.89-119.53L1032.89-119.53Q1035.94-116.95 1039.22-114.61L1039.22-114.61Q1040.16-113.91 1039.57-112.85Q1038.98-111.80 1037.58-110.98Q1036.17-110.16 1034.65-109.80Q1033.13-109.45 1032.19-110.16L1032.19-110.16Q1030.08-111.56 1027.97-113.20L1027.97-113.20Q1019.30-102.19 1011.09-90.94L1011.09-90.94Q988.13-59.30 968.20-25.55L968.20-25.55Q949.92 5.16 936.09 38.20L936.09 38.20Q918.75 77.81 918.75 121.17L918.75 121.17Q919.22 139.92 924.96 158.20Q930.70 176.48 943.36 190.78L943.36 190.78Q966.80 215.39 1001.02 214.92L1001.02 214.92Q1022.58 214.22 1042.50 205.55Q1062.42 196.88 1080 185.16L1080 185.16Q1112.58 163.83 1138.83 135.23L1138.83 135.23Q1165.08 106.41 1183.83 72.19L1183.83 72.19Q1202.81 37.73 1212.66-0.47L1212.66-0.47Q1213.13-2.11 1214.30-2.93Q1215.47-3.75 1216.88-4.22ZM1179.84-246.80L1179.84-246.80L1179.84-246.80Q1149.38-229.45 1121.95-207.89L1121.95-207.89Q1125.23-207.66 1128.52-207.19L1128.52-207.19Q1159.92-203.44 1191.33-197.81L1191.33-197.81Q1207.03-195.23 1222.73-192.66L1222.73-192.66Q1269.38-184.45 1316.72-187.27L1316.72-187.27Q1338.52-188.20 1358.44-196.64L1358.44-196.64Q1376.48-205.55 1383.28-224.53L1383.28-224.53Q1389.14-244.92 1375.08-260.63L1375.08-260.63Q1360.31-275.63 1339.69-280.55L1339.69-280.55Q1319.30-285.70 1297.85-284.18Q1276.41-282.66 1256.25-277.50L1256.25-277.50Q1215.94-267.19 1179.84-246.80ZM1014.38-144.84L1014.38-144.84L1014.38-144.84Q1018.83-132.19 1028.67-123.05L1028.67-123.05Q1048.13-147.66 1070.63-169.92L1070.63-169.92Q1088.67-187.50 1108.36-203.44L1108.36-203.44Q1104.84-203.67 1101.33-203.67L1101.33-203.67Q1080-205.55 1057.97-202.15Q1035.94-198.75 1021.64-181.41L1021.64-181.41Q1008.98-164.77 1014.38-144.84ZM1421.72-22.73L1421.72-22.73L1421.72-22.73Q1423.13-21.56 1423.71-20.04Q1424.30-18.52 1423.83-16.88L1423.83-16.88Q1423.59-15.94 1423.13-15L1423.13-15Q1422.42-13.83 1421.25-12.89L1421.25-12.89Q1420.08-11.72 1418.44-11.02L1418.44-11.02Q1417.03-10.31 1415.39-10.08L1415.39-10.08Q1413.28-9.61 1411.17-10.31L1411.17-10.31Q1409.77-10.78 1408.59-11.72L1408.59-11.72Q1408.13-12.42 1407.66-13.13L1407.66-13.13Q1407.19-14.06 1407.19-15L1407.19-15Q1407.19-15.70 1407.19-16.17L1407.19-16.17Q1407.42-17.34 1407.89-18.05L1407.89-18.05Q1408.83-19.45 1410-20.63L1410-20.63Q1410.47-21.33 1411.17-21.80L1411.17-21.80Q1412.58-22.97 1414.22-23.44L1414.22-23.44Q1415.39-23.91 1416.80-23.67L1416.80-23.67Q1417.50-23.91 1417.97-23.91L1417.97-23.91Q1419.14-23.91 1419.84-23.20L1419.84-23.20Q1420.78-23.20 1421.72-22.73Z" fill="#000000"/>
  </g>
</svg>