<svg width="1374" height="587" viewBox="0 0 1374 587" xmlns="http://www.w3.org/2000/svg">
  <g transform="translate(-0.9599999999999991, 381.55)">
    <path d="M303.36-353.28L304.32-354.24C304.80-354.72 304.80-355.68 305.76-355.68C305.28-357.60 306.24-358.56 306.24-360.48C305.28-362.88 304.32-364.80 302.40-366.72L298.56-367.68C297.12-368.16 295.68-369.12 294.24-369.12C291.84-369.12 289.92-368.16 287.04-368.16C286.56-367.20 285.12-368.16 284.64-367.20C283.20-367.20 283.20-366.24 281.76-366.72C279.84-365.28 276.96-364.80 275.52-363.36C272.64-362.88 271.20-360.96 268.32-360.48C267.84-359.52 266.40-360 266.40-359.04C264.96-358.56 264.96-357.60 263.52-357.60L261.12-356.16C260.16-355.68 259.20-355.20 258.24-355.20C256.80-353.28 254.88-352.32 252.96-351.36C252.48-350.88 252.48-350.40 252-350.40C251.52-350.40 251.04-349.92 251.04-349.44L250.08-349.44L249.12-348.48C249.12-348.48 248.64-348.96 248.64-348.48C248.16-348 248.16-347.04 247.68-347.04C242.88-345.12 239.52-341.76 236.16-338.88C234.24-338.40 233.28-336.96 231.36-336C229.44-334.08 227.52-331.68 224.64-330.72L221.28-330.72C220.32-329.76 218.40-329.76 217.44-328.80C214.08-329.28 212.64-327.84 208.80-328.32C208.80-327.84 207.36-327.84 206.88-327.36C206.40-326.88 205.92-326.40 204.96-326.40C201.12-326.88 200.16-324.96 196.80-325.44C195.84-324.48 194.88-324.48 193.92-324C192.96-324 192.48-323.52 191.52-323.52L189.60-322.56C189.12-322.56 189.12-322.08 189.12-322.08L182.88-321.12C181.44-321.12 180.96-319.68 179.52-319.20C178.08-319.20 176.64-319.20 175.68-318.72L171.84-316.80C169.92-316.80 168.48-315.84 166.56-314.88C164.64-314.88 163.68-313.44 161.28-312.96C159.84-311.04 156.48-310.08 153.60-309.12C153.60-308.16 152.16-308.64 152.64-307.68L147.36-304.32C145.92-302.40 144.48-300.96 142.56-300C141.60-298.56 142.08-296.64 140.16-296.16C139.20-295.20 138.72-293.28 137.28-292.32C137.28-291.36 136.80-290.88 136.80-289.92C136.32-288.96 135.36-288.48 135.36-287.52C135.84-285.12 134.88-284.16 134.88-281.76C135.84-279.84 137.28-277.92 136.80-275.04C138.24-273.60 139.68-272.64 140.16-270.72C141.60-269.76 142.56-268.32 143.04-265.92C143.52-265.44 144.48-265.44 144.96-265.44C146.88-264.48 147.84-261.12 147.84-258.72C147.84-256.80 146.88-255.36 146.40-253.92C144.96-253.44 144.48-252 144-250.08C142.08-249.60 140.64-248.16 139.20-246.72L137.76-242.88L134.40-240.48C134.40-239.52 133.44-239.04 133.44-238.56L133.44-238.08C132.48-237.12 131.52-236.16 131.04-235.20C130.56-234.72 130.08-233.76 129.60-233.76C129.60-232.80 129.12-232.32 128.64-231.84C128.16-231.36 127.68-230.40 126.72-230.40L125.28-228C124.32-226.56 123.36-225.12 122.88-223.68C120.96-222.24 120-220.80 119.04-219.36C117.60-217.92 116.16-216.48 115.68-214.56C114.24-213.12 113.28-211.20 111.84-210.24C111.36-207.84 109.44-207.36 108.96-204.96C108-204.48 107.52-204 107.04-204C107.04-203.52 107.52-203.04 107.04-203.04L105.12-201.60L103.20-197.76C103.20-197.76 102.72-197.76 102.72-197.28C101.76-196.80 102.24-195.36 101.76-194.40C100.32-193.92 99.84-192.48 99.36-192C99.36-191.52 98.88-191.52 98.40-191.52L98.40-190.08L97.44-190.08C96.96-189.60 97.44-189.12 96.96-188.64C96.96-188.64 96.48-188.64 96.48-188.16C96-188.16 96-187.68 96-187.20C96-187.20 95.52-187.20 95.04-186.72C95.04-186.72 95.04-186.24 94.56-185.76C94.08-184.80 93.12-183.84 92.16-183.36C91.68-181.44 90.72-180.48 90.24-179.04C89.76-178.08 89.28-177.60 88.32-177.12C87.84-176.64 87.84-174.72 86.88-174.24C86.88-173.28 85.44-172.80 85.44-171.84C84.96-171.84 84.96-170.88 84.48-170.88C84-170.88 83.52-170.40 83.52-169.44C82.56-169.92 83.52-167.52 82.56-167.52C82.08-166.08 81.60-164.64 80.64-163.68L78.72-162.24C78.24-160.32 77.28-158.88 75.84-158.40C75.84-156.96 74.88-156.48 75.36-155.04C73.92-154.56 73.44-153.12 72.48-151.68L71.04-150.24C70.56-149.76 70.08-148.80 70.08-147.84C69.60-147.84 69.60-147.84 69.60-147.36C69.12-146.40 69.12-144.96 68.64-144.48C67.20-142.08 64.32-140.64 64.32-136.80C63.36-135.84 61.92-134.40 60.96-133.92C60.96-131.04 59.04-130.56 58.08-129.12C58.08-128.16 57.60-127.20 57.60-125.76C57.12-125.76 57.60-125.28 57.12-125.28L56.16-124.32C55.20-124.32 55.68-123.36 54.72-122.88C54.72-121.44 54.24-120.96 54.24-119.52C52.32-117.60 51.36-115.68 50.40-113.76L47.04-107.04C47.04-106.08 45.60-106.56 45.60-105.12C45.12-104.64 45.12-103.68 45.12-102.72C44.64-102.24 43.68-101.76 43.68-100.80C42.72-99.84 42.72-97.92 41.28-96.96C40.80-94.08 39.36-92.64 38.88-89.76C37.92-89.28 37.44-87.84 36.48-86.88C36-84.96 35.04-82.08 34.08-81.12L33.60-80.16C33.60-79.68 33.60-79.68 33.12-79.20C33.12-79.20 33.60-78.72 33.12-78.72C33.12-77.76 32.16-76.32 31.68-75.84L31.68-75.36C31.68-74.88 31.20-74.40 31.20-73.92C30.72-73.92 31.20-73.44 31.20-73.44C30.72-72.96 30.24-72.96 30.24-72.48C29.76-72.48 29.76-71.52 29.76-71.04C29.28-70.08 28.80-69.12 28.80-67.20C27.84-67.20 28.32-65.76 27.84-65.76C27.36-64.80 26.88-63.84 26.88-63.36C26.88-62.88 26.40-62.88 26.40-62.88C26.40-62.40 26.40-61.92 25.92-61.44C25.92-60.96 24.96-60.48 25.44-60C24.48-59.52 25.44-58.08 24.48-58.08L22.56-51.36C22.56-50.40 21.60-49.92 21.12-48.48C20.64-47.52 20.64-46.08 19.68-45.60C19.68-43.68 20.16-43.20 19.68-41.76C19.20-40.32 18.72-39.36 18.72-37.44C18.24-37.44 18.24-36.96 18.24-36.96C17.76-36 16.80-36 16.80-34.56C16.32-33.12 15.84-31.68 15.84-29.76C15.84-27.84 14.88-26.88 15.36-24.96C14.88-24.96 15.36-24 15.36-23.52C14.88-22.08 14.40-20.64 14.40-18.72C13.44-18.24 14.40-16.80 13.92-15.84C12.96-15.36 13.92-13.44 12.96-12.96C12.96-11.52 13.92-11.52 13.92-9.60C12.96-5.28 13.92-0.48 13.44 3.36C13.92 3.36 13.44 4.80 13.92 5.28C14.40 5.76 14.40 6.24 14.40 7.20C15.36 7.20 14.40 8.64 14.88 9.60C15.36 10.08 15.36 10.56 15.36 11.52L15.36 14.88L19.20 22.56C19.68 23.04 20.64 24 20.64 24.48C21.12 25.44 21.60 26.40 21.60 27.84C22.56 28.32 23.04 29.28 24.48 29.76C24.48 30.72 25.44 31.68 25.92 32.64C27.84 33.60 29.76 35.04 31.20 36.48C32.16 37.44 33.12 37.92 34.56 38.40C35.52 39.36 36.48 39.84 38.40 39.84C39.36 40.32 39.84 41.76 41.76 41.76L46.56 41.76C52.32 44.16 59.04 42.24 65.76 41.76C67.20 41.28 68.64 40.80 71.04 40.80L73.92 39.36L77.28 37.92C78.24 37.92 78.72 37.44 80.16 37.44L82.08 36.48C84.96 35.52 88.80 34.56 90.72 33.12C91.20 32.64 91.68 33.12 92.64 33.12C92.64 32.64 92.64 32.64 93.12 32.64L94.56 31.68L95.04 31.20C95.52 30.72 96 31.20 96.48 30.72C97.44 30.72 98.40 29.76 98.88 29.76L99.36 29.76L102.24 28.32L107.52 25.44C109.92 24.96 111.36 23.52 113.28 22.56L114.72 22.56L115.68 21.12C118.08 19.68 120 19.20 122.88 18.72L124.32 17.76C124.32 17.28 124.80 16.80 125.28 16.80C126.72 15.36 129.12 14.40 131.04 13.92C131.04 12.96 131.52 12.96 132.48 12.96C133.44 11.52 134.40 10.56 136.32 10.08C137.28 9.12 139.20 8.64 140.16 7.68C140.64 7.68 141.12 7.20 141.12 6.72L142.08 6.72C142.56 6.72 143.04 5.76 143.52 5.76C144 5.76 144 5.28 144.96 5.28C146.40 3.36 148.80 2.40 150.72 0.96L153.60-0.96L154.56-0.96C154.56-0.96 154.08-1.44 154.56-1.44L155.04-1.44L155.04-1.92C155.52-2.40 156.48-1.92 156.48-2.40C158.40-3.84 160.80-5.28 163.20-5.76C164.16-7.68 165.60-8.16 167.04-9.60C169.44-10.08 169.92-12 171.84-12.96C174.72-14.40 177.60-16.32 180-18.72L183.84-20.16C184.32-21.12 184.80-21.60 185.76-22.08C185.76-23.52 187.20-23.52 187.68-24C188.64-24.48 189.12-24.96 189.60-25.92C190.56-26.40 191.52-26.88 192.96-26.88C194.88-29.28 196.32-31.68 199.68-32.16C200.64-34.08 202.08-35.04 203.52-36.48C204.96-36.96 206.40-37.44 207.36-38.88C209.28-39.84 210.72-41.28 212.64-42.72L217.44-47.04C218.40-47.52 219.36-48.48 220.80-48.48C221.28-49.92 221.76-50.88 222.72-51.36C225.12-52.80 226.56-54.72 228.48-55.68C229.92-56.64 230.40-58.56 231.84-59.52L235.20-60.96C236.16-61.92 236.64-63.36 238.08-64.32C240.48-65.76 242.88-67.68 244.32-70.08C247.20-71.04 248.16-73.92 251.04-74.88C252.96-76.32 254.40-78.72 257.28-79.68C258.72-82.08 260.64-83.52 262.08-85.92C264.48-86.40 265.44-88.80 267.36-89.76C267.84-90.72 269.28-91.68 269.76-93.12C271.20-93.12 271.68-94.56 272.16-95.04C272.64-95.52 273.12-95.04 273.12-95.04L274.08-96.48C276-96.96 276.48-98.88 278.40-99.36C278.88-100.80 280.32-101.76 280.80-103.20C281.76-103.20 281.76-104.16 282.72-104.64C283.68-105.60 284.64-107.04 285.60-107.52C285.60-108 286.08-107.52 286.08-107.52C287.04-108 287.52-108.96 288-109.44L291.84-112.80L295.20-116.64C297.12-119.52 300.48-120.96 302.40-123.84C304.80-126.24 307.20-128.64 309.12-132C310.08-132 311.04-132.96 311.52-133.44C313.44-134.88 315.36-136.80 316.32-139.20C317.76-140.64 320.16-142.08 321.60-144L324-146.88C324.48-148.32 326.40-148.32 326.88-149.76C327.84-150.24 327.84-151.68 329.28-152.16C330.24-153.12 330.72-154.56 331.20-155.52L336-159.84C336-160.32 336.48-161.28 336.96-161.28C336.96-161.76 337.44-162.24 337.44-162.24L338.40-163.68C338.40-163.68 338.40-164.16 338.88-164.16C340.32-165.12 341.28-167.04 342.72-167.52C343.20-169.44 344.16-170.40 345.12-171.36C345.60-172.32 347.04-173.28 347.52-173.76L347.52-174.72L349.44-176.16L349.44-177.60C349.92-177.60 350.40-178.08 350.40-178.08C350.40-179.04 351.36-179.52 351.84-179.52L352.80-181.44L353.28-181.44C353.76-181.92 353.76-182.40 353.76-182.88C353.76-182.88 354.24-182.88 354.24-183.36C354.24-183.84 354.24-183.84 354.72-184.32C354.72-185.28 355.20-185.28 355.20-186.24C357.12-186.72 357.60-188.64 359.04-189.60C359.04-191.04 360-191.04 360-192C360.96-192.48 360.96-193.92 361.92-194.40C362.88-195.84 363.84-197.28 364.32-199.20C366.24-200.16 366.72-202.08 367.68-203.52C368.64-204.96 369.60-206.40 371.04-207.84C371.04-208.80 371.52-209.76 372-209.76L372-210.72L372.48-211.20C372.96-211.68 372.96-211.68 372.96-212.16L373.92-213.12C373.92-213.60 373.92-214.56 374.88-214.56L375.84-217.92C377.28-218.88 377.76-221.76 379.20-223.20C379.20-225.60 380.64-227.04 381.12-229.44C382.56-230.40 382.56-233.76 384-235.20C383.52-236.64 384.48-237.12 384.48-238.56C384.96-239.04 385.44-240.48 386.40-240.96C386.40-244.32 387.36-246.24 388.32-248.64C387.84-250.56 388.32-252 388.32-252.48C388.80-253.92 388.80-254.88 388.80-256.80L389.28-256.80C389.28-257.76 389.76-257.76 389.76-258.72L389.76-274.08C389.28-274.56 389.28-276 388.80-276.48C388.32-276.96 387.84-277.44 387.84-278.40C387.36-279.84 388.80-279.84 388.32-281.76C387.84-282.72 386.88-283.68 386.40-285.12C386.40-288.48 384.48-290.88 384-293.76C383.52-293.76 383.04-295.20 383.04-295.20C382.56-295.68 382.56-295.20 382.56-295.68C382.08-295.68 382.08-296.16 382.08-296.64C381.60-297.12 381.12-297.12 381.12-297.60L381.12-298.08C381.12-299.04 379.68-298.56 380.16-299.52C378.72-300.48 378.24-301.44 377.28-302.40C376.80-303.36 376.80-303.84 375.84-304.32C375.36-304.80 375.36-305.76 374.40-305.76L368.64-312C367.20-312.48 365.76-313.44 364.32-314.40C363.36-315.36 361.44-315.84 360.48-317.28C357.12-318.72 353.76-319.68 351.36-322.08C349.92-322.08 348.96-322.08 348-322.56C347.52-323.52 346.08-323.52 345.12-324C345.12-324 345.12-324.96 344.64-324.96C344.16-324.96 343.68-324.96 343.20-325.44C341.76-325.92 339.84-326.88 336.96-326.88C336-327.84 335.04-328.32 333.60-328.80C332.64-329.28 331.20-329.28 329.76-328.80C328.32-329.28 327.84-330.24 326.88-330.72C322.08-330.72 319.20-332.16 315.36-333.12C313.92-333.12 312.96-332.64 311.52-332.64L311.04-332.64C309.60-333.12 309.12-333.60 307.68-333.60L303.84-333.60L299.52-335.04C296.16-334.08 292.32-335.04 289.92-335.52C285.60-336 281.76-335.52 278.40-334.56C276.48-335.52 273.60-335.52 270.72-335.52C269.28-335.52 268.32-334.56 267.36-334.56C264.96-335.52 262.56-334.56 259.68-334.56C257.76-335.04 257.28-334.08 256.32-335.04C255.84-336.48 256.80-336.96 256.32-338.88C257.28-338.88 256.80-340.32 257.76-339.84C257.76-340.80 258.72-340.32 259.20-340.80L267.36-346.56C268.80-346.08 268.80-347.04 270.24-346.56C272.16-348.48 274.56-348.96 276.48-349.92C277.44-350.88 277.44-351.84 278.40-351.84C282.24-350.88 282.72-353.76 285.12-354.24C286.56-354.72 287.52-353.76 288.48-353.76C289.92-354.72 290.40-355.68 292.32-355.68C294.24-355.20 296.64-355.68 298.08-354.72C300.48-354.72 300.48-352.80 303.36-353.28ZM251.04-230.40L252.96-232.80C252.48-236.16 250.56-238.08 247.68-239.04C245.76-239.04 244.80-238.08 242.88-237.60C238.08-238.08 234.72-238.08 229.92-238.08C228.96-238.56 228.48-238.56 228-239.52C227.04-239.04 227.04-239.52 226.56-239.52C225.60-239.52 225.12-239.52 225.12-240C223.68-240 222.24-240 221.28-239.52C220.80-240.48 219.36-240 219.36-240.96C216.96-241.44 214.56-241.92 212.16-241.92C211.20-241.92 210.72-242.40 210.24-242.88C209.28-243.36 207.84-242.88 206.88-243.36C206.40-243.36 206.40-244.32 206.40-244.32C205.44-244.32 204.96-244.32 204.48-244.80C203.04-245.28 202.56-244.32 201.12-244.80C199.68-245.28 198.24-245.28 196.80-246.24C195.84-246.72 194.40-247.20 193.44-248.16C191.04-248.16 189.60-249.12 187.20-249.60C184.80-251.52 181.44-252.48 178.08-253.92C178.08-253.92 178.08-254.40 177.60-254.40L177.12-254.40C176.16-254.40 175.20-254.88 174.72-255.36C174.72-255.36 174.24-255.84 173.76-255.84C172.80-256.32 171.84-255.84 170.40-256.80C170.40-258.24 169.44-259.20 169.44-260.64C169.44-262.08 170.40-263.04 171.36-264C171.84-265.44 173.28-265.92 174.24-266.40C174.24-267.84 176.16-267.36 175.68-269.28C177.12-269.28 176.64-271.20 177.12-271.68C178.56-272.64 179.52-273.60 180.96-274.08C181.44-276 182.88-277.44 184.32-278.88C184.32-279.36 184.80-279.36 185.28-279.84L185.28-280.80C185.76-281.28 187.20-282.24 187.68-283.20C189.12-284.16 190.56-286.08 192.48-287.04L194.88-289.92C195.84-290.88 196.80-291.84 197.76-292.32C198.24-293.76 200.16-293.76 200.64-295.20L202.08-297.12L202.56-297.60L204-298.56C205.44-300 206.88-301.44 208.80-302.40C208.80-302.88 209.28-303.36 209.28-303.36L210.24-303.36C210.24-303.36 210.24-303.84 210.72-304.32L211.68-304.32C213.12-305.76 213.60-307.20 214.56-308.16C216.96-308.64 218.40-310.56 219.84-311.52L219.84-312.48C220.32-312.48 220.80-312.48 221.28-312.96L223.20-314.88C223.68-314.88 224.16-315.36 224.64-315.36C225.60-316.32 226.56-317.28 227.04-318.72C228.48-319.20 230.40-319.20 230.88-320.16C231.36-320.64 232.32-320.64 232.32-321.60C233.28-321.60 233.76-321.60 234.24-322.08C237.60-322.08 239.52-323.04 241.92-323.52C246.24-323.52 250.56-323.52 253.92-324.96C256.32-324 258.72-324.48 260.64-325.44C262.56-324.96 264.48-324.96 266.88-324.96C267.84-324.96 268.80-325.44 269.76-325.44C271.20-325.44 272.64-325.44 274.08-324.96C275.04-324.96 276-325.44 277.44-325.44C278.88-325.44 279.84-324.96 280.80-324.96C282.72-324.96 284.16-325.44 285.60-325.44L289.44-324.48C290.88-324.48 291.36-324.96 292.32-325.44C293.28-324.96 293.76-324.48 295.20-324.48L298.56-324.48C300.96-323.52 304.32-323.04 307.20-323.52C309.12-323.52 310.08-323.04 311.52-322.56C315.36-323.04 317.76-322.08 321.60-322.08C322.56-322.08 323.04-321.12 324-320.64C324.96-320.64 325.92-320.16 326.88-319.68L329.76-319.68C330.24-319.68 331.20-319.20 331.68-318.72C332.16-318.72 332.64-318.72 333.12-318.24L335.52-318.24L337.44-317.28C337.92-317.28 338.40-317.28 338.88-316.80C338.88-316.80 339.36-317.28 339.36-316.80L340.32-316.80C340.32-316.32 341.28-316.32 341.76-315.84C341.76-315.84 342.24-315.36 342.24-314.88C342.72-314.88 343.20-315.36 343.20-314.88L346.08-314.88C347.04-313.92 348-313.44 348.96-312.96C349.44-312.48 351.36-312.96 351.36-312C352.32-312.48 352.32-311.52 352.80-311.52C352.80-311.04 353.76-311.04 353.76-310.56C355.20-310.56 355.68-310.08 356.64-309.60C358.08-308.16 360.48-307.20 362.40-305.76C363.84-304.32 366.24-302.88 368.16-301.92C369.12-300.96 370.08-299.04 371.52-298.56C371.52-297.60 372.48-297.12 372.48-295.68C373.44-295.20 373.92-294.72 374.40-293.76C374.88-293.28 375.36-292.32 375.84-292.32C376.80-291.84 376.80-291.36 377.28-290.88C377.28-288.96 378.24-287.52 379.20-285.60C379.68-283.68 380.16-282.24 381.12-281.28C381.12-278.88 381.60-276.48 382.08-273.12L382.08-272.64C382.56-271.20 383.04-268.80 383.04-265.92L381.60-262.08L381.60-258.24C382.08-256.80 380.64-256.80 381.12-255.36C381.12-254.40 381.12-253.92 380.64-253.44C380.64-252.96 380.16-252 380.16-251.52C380.16-250.56 380.16-250.08 379.68-249.60C379.68-248.16 379.20-246.72 379.20-245.76C379.20-245.76 378.72-245.76 378.72-245.28C378.72-244.80 378.72-244.32 377.76-243.84C377.76-243.36 377.28-242.88 376.80-242.40C377.28-240 375.84-239.52 375.84-237.60L374.40-233.76C373.92-233.28 373.92-232.32 372.96-232.32C372.48-231.36 372.48-230.40 372-230.40C371.52-228.48 370.56-227.52 369.60-226.56C369.60-224.64 368.64-223.68 368.64-221.76C365.76-219.36 364.80-215.04 361.92-212.64C361.44-211.68 360.96-210.24 360-209.28C359.52-205.92 357.12-204.96 356.64-202.08L352.80-198.72L349.92-194.40C348.96-193.92 348.96-192.96 348.48-192L346.56-190.56C346.08-189.60 346.08-189.12 346.08-188.16C345.12-186.72 342.72-185.76 342.24-183.36L337.92-179.04L335.04-175.20C334.56-174.72 333.12-174.24 333.12-173.28C333.12-172.80 332.16-172.80 331.68-172.32C331.20-171.84 331.68-171.36 331.68-171.36C330.72-170.88 330.72-170.40 330.24-169.44C328.80-168 326.88-167.04 326.40-165.12C324.96-164.64 324.48-163.20 323.04-162.72C322.08-160.32 320.64-159.36 319.20-157.44C317.76-156 316.32-154.08 314.40-153.12C314.40-152.16 313.44-151.20 312.48-150.24C311.52-149.76 311.52-148.32 311.04-147.84L307.20-144.96C305.76-144 305.28-142.56 303.84-142.08C302.88-140.16 300.96-138.72 300-137.28C299.52-135.84 297.60-136.32 297.60-134.88C296.64-134.40 296.16-133.44 295.68-132.48C294.72-132 293.76-131.52 292.80-130.56C291.84-129.60 290.88-128.64 290.40-127.68C289.44-126.72 288.48-126.24 288-125.28C287.04-124.80 286.56-123.36 285.60-122.88L282.72-120.48C281.76-120 281.28-118.56 279.84-118.08C279.36-117.60 278.40-116.16 277.44-115.68C276-113.76 274.08-112.80 273.12-110.40C270.72-110.40 270.72-108 268.80-107.52C267.84-106.08 266.40-104.64 264.96-104.16L262.08-100.32C260.64-98.88 258.24-98.88 257.28-96.48C256.32-96 255.84-95.04 254.40-94.56C253.44-94.08 253.44-92.64 252.96-91.68C251.52-91.68 250.56-90.24 249.60-89.76L246.72-87.36C245.28-87.36 244.80-85.44 243.84-84.48C242.88-84.48 241.92-83.52 240.48-83.04C239.04-82.08 238.56-80.16 237.60-79.20L235.20-77.76C234.24-76.80 234.24-75.84 233.28-75.84C232.80-75.36 232.32-74.88 231.84-74.88C231.36-74.40 231.36-73.92 230.40-73.92C230.88-73.44 229.92-73.44 229.92-72.96C229.44-72.48 229.44-72 228.96-72C227.04-70.56 225.60-70.08 224.16-68.64L222.72-67.68L221.28-65.28C220.80-64.80 220.32-64.80 219.84-64.80C219.84-64.32 219.36-64.32 219.36-63.84C218.88-63.84 218.40-63.36 218.40-63.36C217.92-62.88 217.44-63.36 217.44-62.88L214.08-60C211.68-58.56 209.76-56.64 207.36-54.72L204.48-51.36C203.52-50.88 202.08-50.88 201.60-49.92C200.16-48.48 197.76-48 196.80-46.08C195.84-45.12 194.88-44.64 193.92-44.16C192.96-43.68 192.96-42.24 192-41.76C189.12-41.28 188.16-38.88 185.76-37.92C185.28-36.96 183.84-37.44 183.84-36.48C182.88-36 182.40-35.52 181.44-35.52C180.96-34.56 180.96-33.60 180-33.60C179.52-32.64 178.56-32.64 177.60-32.16C178.08-31.20 176.64-31.20 176.64-30.24C175.20-30.24 173.76-29.28 172.80-28.32C172.32-28.32 172.32-27.84 171.84-27.84C170.88-26.88 168.96-26.40 167.52-24.96C167.04-24.96 167.04-24.48 166.56-24.48L165.12-22.56C164.64-22.08 164.16-22.56 163.68-22.08C163.68-22.08 163.68-21.60 163.20-21.60C163.20-21.12 162.72-21.60 162.72-21.60C162.72-21.12 162.24-20.64 162.24-20.64C161.76-20.16 161.28-20.64 160.80-20.16L160.32-19.68L158.40-18.72C156.48-17.28 155.04-15.36 152.64-14.40C152.64-13.92 152.16-13.92 152.16-13.92L151.68-12.96C151.20-12.96 150.72-12.96 150.24-12.48C149.76-12.48 149.76-12 149.28-11.52L148.32-11.52L147.84-11.04C147.84-10.56 147.36-11.04 147.36-11.04C146.88-10.08 145.92-10.08 145.44-9.12C144.48-8.64 144-8.16 143.52-7.20C140.64-6.72 139.20-4.80 136.80-3.84C134.88-2.40 132.48-0.96 131.04 0.48C128.16 0.96 126.24 2.40 124.32 3.84C121.44 3.84 120.96 7.20 118.08 7.20C117.60 8.16 116.64 8.16 115.68 8.64C115.68 9.12 116.16 9.12 115.68 9.12C113.76 9.12 113.76 10.56 112.32 11.04C111.84 12.48 109.92 12 108.96 12.96L106.56 14.88C105.12 14.88 104.16 15.36 103.20 15.36C102.24 15.36 101.76 16.32 101.76 16.80L99.84 17.76C98.88 17.76 98.40 18.72 96.96 18.72C95.52 19.20 94.56 20.16 93.60 21.12C91.20 21.12 89.28 23.04 87.36 24C84.96 24.96 82.56 24.96 81.12 26.88C79.68 26.88 78.72 26.88 77.76 27.36C73.92 29.28 69.12 31.20 63.36 32.16L61.44 32.16L61.44 32.64C60.96 32.64 60.48 32.64 59.52 33.12C57.60 33.60 53.76 34.08 50.88 34.08C48 34.08 45.60 33.12 42.72 33.12C42.72 32.64 42.24 33.12 41.76 33.12C41.28 32.64 41.28 32.16 40.80 32.16L38.88 31.20L38.40 30.72L37.44 30.72L37.44 30.24C36.96 30.24 36 30.24 35.52 29.76C34.08 29.28 33.60 27.36 32.16 26.88C31.68 25.44 29.76 25.44 28.80 24.48C28.80 23.04 28.80 22.08 28.32 21.12L25.92 17.76C25.92 16.80 25.44 16.32 24.96 15.36C24.48 15.36 24.48 13.92 24 13.92C23.52 12.48 24.48 12 24.48 10.56C24 10.08 23.52 9.60 23.52 8.64L22.56 6.72C24 4.32 22.56 1.92 22.56-0.96L22.56-5.76C23.04-8.16 22.56-11.04 23.04-13.44C23.52-14.40 24-15.36 24-16.32C24-18.24 23.52-20.16 23.04-21.60C23.52-22.08 23.52-23.04 24.48-23.52L25.44-25.44C24.96-28.80 26.40-30.24 26.40-33.12C27.36-33.12 26.88-34.56 27.36-34.56C28.32-34.56 27.84-35.52 28.32-35.52L28.32-38.88C29.28-39.36 28.80-40.80 29.76-41.28C29.76-42.72 30.24-43.68 30.72-44.64C31.20-46.08 31.20-47.52 32.16-48L32.16-51.36C33.12-51.84 33.60-53.28 34.56-54.24C34.56-56.16 35.52-57.60 35.52-60L38.40-64.80C38.88-65.28 38.40-66.72 39.36-67.20C39.84-68.16 40.32-68.64 40.32-70.08C42.24-73.44 43.20-77.28 45.60-79.68C45.60-81.12 46.08-82.56 46.08-84C47.04-84 46.56-84.96 47.04-85.44C47.04-85.44 48-86.40 48-86.88C48-87.36 48.96-88.32 48.96-88.80L50.40-90.24C50.40-91.68 50.88-92.64 50.88-93.60C53.28-95.04 53.28-97.92 55.20-99.36C55.68-100.80 55.68-102.24 56.64-103.20L57.60-105.12L58.08-105.60L58.08-106.56L60.48-109.92C61.44-112.80 62.40-115.20 64.80-116.64C64.80-118.56 65.76-119.52 66.24-121.44C67.68-122.40 68.64-124.32 69.60-126.24C69.60-126.24 70.08-126.24 70.08-126.72C70.08-127.20 70.56-127.20 70.56-128.16C70.56-128.64 71.52-128.64 71.52-129.12C71.52-129.60 72.48-130.08 72-131.52C73.92-132.48 74.40-134.88 76.32-136.32L77.28-139.20C77.76-139.68 77.76-139.20 77.76-139.68C77.76-140.16 78.24-140.64 78.72-141.12L78.72-141.60C79.20-142.08 79.20-142.56 79.20-142.56C79.20-143.04 80.16-143.04 80.16-143.04C80.64-144 81.12-145.44 82.08-146.40C82.08-146.88 83.04-146.88 83.04-147.84L84.48-149.28C84.96-151.68 86.88-152.64 87.36-155.04C88.80-156 89.76-157.92 90.72-159.36C90.72-159.36 91.20-159.36 91.20-159.84C91.20-160.32 91.68-160.32 91.68-160.80C91.68-160.80 92.16-161.28 92.16-161.76C92.16-161.76 92.64-161.76 93.12-162.24C93.12-162.24 92.64-162.72 93.12-162.72C93.12-163.20 93.60-163.20 93.60-163.68L94.08-164.16C94.08-164.64 94.56-165.12 94.56-165.60C95.04-165.60 95.52-166.08 96-167.04C96-167.04 96.48-168 96.48-168.48C96.48-169.44 98.40-170.88 99.36-172.32C100.32-172.80 100.80-174.24 101.28-174.72C101.76-175.20 102.72-175.68 102.72-176.16C102.72-176.64 103.20-177.12 103.20-177.12C103.20-177.60 104.16-178.08 104.16-178.08L104.16-179.04C104.64-179.52 106.08-180.48 106.08-182.40C106.56-182.40 106.56-182.88 107.04-183.36C107.04-183.36 107.52-183.36 107.52-183.84C108-184.32 108.96-184.32 108.96-185.28C109.92-186.24 109.92-187.68 110.88-188.64C111.36-190.08 112.32-190.08 113.28-190.56C113.28-192 114.24-192.48 113.76-193.92C115.68-194.88 116.16-196.80 117.60-197.76C120-201.12 122.40-204.96 125.28-207.84C125.76-208.80 126.24-209.28 126.24-210.24C127.20-210.24 127.20-211.20 127.68-211.20C127.68-211.68 128.64-211.68 128.64-212.16C129.60-212.64 129.60-214.08 130.56-214.56C131.04-215.52 131.52-216.48 131.52-217.92C133.44-218.88 134.88-220.32 135.84-221.76C136.80-221.76 136.80-223.20 137.28-223.68C138.24-224.16 138.72-225.12 139.68-225.12C140.16-228.96 143.52-230.40 144.96-233.28C146.40-233.76 146.88-235.68 148.32-236.64C149.28-237.60 150.24-239.04 150.72-240.96C151.68-240.96 152.64-241.92 153.60-242.88C153.60-243.36 154.08-242.88 154.08-243.36C154.08-243.84 154.56-243.84 155.04-244.80L155.04-245.28C155.52-245.76 156-245.76 156-247.20C156.96-247.68 156.96-249.12 157.44-249.60C159.36-250.08 160.80-251.04 163.20-251.04C165.12-251.04 166.56-249.12 168.48-248.16C168.48-247.20 170.40-247.68 170.88-246.72C171.36-246.24 172.80-246.24 173.28-245.28C174.72-245.76 175.20-244.32 177.12-244.80C179.04-242.88 181.92-242.40 183.36-240.96C185.28-240.96 186.24-240 187.20-239.52C188.16-239.04 189.60-239.52 190.08-239.04C190.56-238.56 192-238.56 192.48-237.60C193.44-238.08 194.88-237.60 194.88-237.12C195.84-236.64 196.80-236.64 196.80-235.68C198.24-235.68 198.72-236.64 200.16-236.16C201.12-235.20 203.04-235.20 204-234.72C204.96-233.76 205.92-234.72 207.36-234.24C207.36-234.24 208.80-233.28 209.76-233.28C211.68-233.28 214.56-232.32 216.48-231.36L219.84-231.36C222.24-230.40 225.12-230.40 228-229.92L232.80-228.96L233.28-228.96C234.24-228.48 235.20-228.96 235.20-228.48C237.12-228.96 238.56-228 240.48-228C242.88-228 245.28-228.96 248.64-228.96C249.60-228.96 250.56-229.92 251.04-230.40ZM189.60-312.96C194.40-313.44 196.80-315.36 202.08-315.36C202.08-314.40 201.60-313.92 201.60-312.96C201.60-312.96 201.12-312.48 201.12-312C201.12-312 200.64-312 200.16-311.52L200.16-310.56L198.24-308.64L193.92-304.80C193.92-304.80 193.92-303.84 193.44-303.84C193.44-303.36 192.48-303.84 192.96-303.36C191.52-302.88 190.56-301.92 189.60-301.44C188.16-300 186.24-298.56 185.28-296.64C183.36-295.68 182.40-293.76 180.48-292.80L179.04-291.36C179.04-290.88 178.56-290.40 178.08-290.40C177.60-289.92 177.12-289.92 177.12-288.96C177.12-288.48 176.16-288 175.68-287.52C174.24-286.08 173.28-283.68 170.88-283.20C170.40-281.28 168.96-280.32 168.48-278.40C167.04-277.92 166.08-276.96 165.12-276C164.64-274.56 163.20-274.08 163.20-272.64C161.76-272.16 160.80-271.20 159.84-270.72C159.36-269.76 158.40-268.32 157.44-267.84C156-267.84 155.04-267.84 154.08-268.32C153.60-268.32 153.60-268.80 153.60-269.28C153.12-269.28 152.64-269.28 152.16-269.76C151.20-270.24 151.20-271.20 150.72-272.16L148.80-273.60C147.84-276.96 145.92-278.88 144.96-282.24C144.48-285.12 146.88-285.12 146.40-288.48C147.84-289.92 149.28-291.36 150.24-293.76L152.64-295.20C153.60-296.16 154.56-297.12 155.04-298.56C156-299.04 156.48-299.04 156.96-299.04C156.96-299.52 157.44-299.04 157.92-299.04C157.92-299.52 158.40-300.48 158.88-300.96C158.88-300.96 159.36-300.48 159.84-300.96C159.84-300.96 160.32-301.44 161.28-301.44C162.24-301.44 162.24-302.40 163.20-302.40C162.72-303.36 164.16-302.88 164.16-303.84C167.04-304.32 168.96-305.76 171.84-306.24C172.32-306.24 173.28-306.24 173.28-307.20C174.72-308.16 176.64-308.16 178.08-309.60L180.96-309.60L184.80-311.04C185.28-311.04 185.76-311.04 186.24-311.52L187.68-311.52L187.68-312.48C188.64-312.96 189.12-312.48 189.60-312.96ZM395.04-151.20C394.08-152.16 392.16-151.68 391.68-153.12L390.72-153.12L388.80-151.68C387.84-151.68 386.40-152.16 384.96-151.68L381.60-149.28C380.64-148.32 379.20-147.84 379.20-145.92C377.76-143.52 379.68-140.64 380.16-138.72C382.08-136.80 386.40-135.84 386.88-132.48C386.88-131.52 385.92-130.56 385.92-129.12C385.44-129.12 385.92-128.64 385.44-128.16L384.48-128.16C384-127.68 383.52-127.20 383.52-126.72C382.08-125.76 382.08-124.32 380.64-123.84L377.28-122.40L373.92-118.08C371.04-117.12 369.60-114.72 367.68-112.32C366.24-111.84 365.28-110.88 363.84-110.88C361.92-108.48 359.52-106.56 357.12-105.12C356.64-104.16 356.16-102.72 355.20-101.76C354.24-101.76 353.76-101.28 353.28-100.32C352.32-99.84 351.36-99.36 350.88-98.40C349.44-97.44 348.48-96 346.56-95.04C345.60-92.16 342.72-90.72 342.24-87.36C341.28-87.36 341.28-86.40 340.80-85.92C340.32-84.96 339.36-85.44 339.36-84.96L339.36-84.48L336.96-81.60C336.96-78.24 335.52-76.80 334.56-74.40C335.52-72.48 335.52-69.60 336-67.68C336.96-66.72 337.92-65.28 339.84-65.28C339.84-63.84 341.76-64.32 341.76-63.36C343.20-63.36 343.20-62.40 344.64-62.40C347.04-62.40 349.44-62.40 351.36-61.92C353.76-62.88 356.16-63.36 359.04-63.36C360-64.80 361.92-64.32 363.36-65.28C365.28-65.28 365.76-66.72 368.16-66.24C369.12-67.20 370.56-67.68 372-68.64L374.40-68.64C375.36-69.12 376.32-70.08 377.76-70.08L380.16-72L382.56-72C383.04-72.96 384.48-72.96 385.44-73.44L388.80-74.88C389.76-75.36 390.72-75.84 392.16-75.36C393.12-76.80 394.08-77.28 396-77.28C398.40-80.64 403.20-81.12 406.08-83.52C409.44-84 411.36-85.44 413.28-86.88C416.16-87.36 418.08-89.28 420.48-90.72C420.96-91.20 421.92-91.68 423.36-91.20C424.32-92.64 425.28-93.60 426.72-94.56C427.68-94.56 428.64-95.04 429.60-95.04L433.44-98.40C434.40-98.40 434.88-98.88 436.32-98.88C438.72-101.28 442.08-102.24 444.48-104.64C445.92-104.64 446.88-105.12 447.36-106.08C448.80-106.56 449.28-107.04 450.72-107.04C452.64-109.92 456.48-110.88 458.88-112.80C461.28-112.80 461.76-115.20 464.16-115.20C465.12-116.64 466.56-117.60 468.48-117.60L469.92-119.52C470.40-120 470.88-120 471.36-120L472.32-120.96C473.76-121.92 475.20-122.40 476.64-123.84C477.12-124.32 478.08-124.32 479.04-124.80C480.48-126.24 481.92-127.20 484.32-127.68C485.76-128.16 486.24-129.60 487.68-130.08L491.52-132C492.48-132.48 492.96-133.44 494.40-133.92C494.88-135.36 496.32-135.84 497.76-136.32C498.72-136.80 499.68-138.72 501.12-138.72C502.08-138.72 503.04-140.64 503.04-141.60C502.56-143.04 500.64-144.48 499.20-144C496.80-144 496.32-141.60 494.40-140.64C492.96-140.64 492.48-139.68 491.52-138.72C487.20-137.28 482.88-134.88 480-132C478.56-131.52 477.12-131.04 476.16-130.08C475.68-130.08 475.68-129.60 475.68-129.60C475.20-129.12 474.72-129.12 474.72-129.12C474.24-129.12 474.24-128.64 473.76-128.16L472.80-128.16C470.40-126.72 467.52-125.28 465.60-123.84C465.12-123.36 464.16-123.84 464.16-122.88C462.72-123.36 462.72-121.44 461.28-121.44C460.80-120.48 459.36-120.96 458.40-120C456.96-119.52 456.96-117.60 455.04-117.60L454.56-117.60C453.12-116.64 452.64-115.68 451.68-115.20C450.24-115.20 448.32-114.24 447.84-114.24C447.36-113.76 447.36-113.76 446.88-113.76L445.92-112.32L443.04-110.88C442.56-110.40 442.08-110.88 442.08-110.88L442.08-110.40L441.12-110.40C441.12-110.40 441.60-109.92 441.12-109.92L440.64-109.92L440.64-109.44L439.68-109.44L439.68-108.96C439.68-108.96 439.20-109.44 439.20-108.96C439.20-108.48 438.24-108.96 438.24-108.96L438.24-108.48L437.76-108.48C437.28-108.48 437.28-108 436.80-108C436.32-108 435.36-107.04 435.36-106.56C435.36-105.60 434.40-106.08 434.40-105.60C432.96-105.60 432-105.12 431.04-105.12L430.08-103.68C429.60-103.68 429.12-102.72 428.64-102.72L425.28-101.76C424.80-100.80 422.88-101.28 422.40-100.32C421.44-99.84 420.96-98.40 419.52-98.40C418.56-97.92 418.08-97.44 417.12-97.44L413.28-94.56C411.84-94.08 410.88-93.60 409.92-93.60C409.44-93.12 409.44-93.12 408.96-93.12C408.48-92.64 408.48-92.16 408-92.16C408-92.16 407.52-92.16 407.04-91.68C407.04-91.68 406.56-91.20 406.08-91.20L404.16-90.24C402.72-89.76 402.24-89.28 400.80-89.28L400.80-88.80C397.92-87.84 396-85.92 393.12-85.44C393.12-84.48 391.68-84.96 392.16-84.48C391.20-84 391.68-83.04 390.72-83.04L388.80-83.04C386.88-81.60 384.48-80.64 382.08-80.16C381.60-79.68 381.12-79.20 380.64-79.20C380.16-78.72 380.16-77.76 379.20-77.76C377.76-77.76 376.80-77.76 375.84-77.28C374.88-77.28 373.92-76.32 372.96-75.84C372-75.84 371.04-75.36 370.08-74.88C367.68-74.40 366.24-73.44 363.84-72.48C360.48-72.96 358.56-71.04 356.16-70.56C352.80-70.56 348.48-70.08 346.56-71.04L345.12-75.36C346.08-74.88 345.12-77.28 346.08-77.28C346.08-78.24 346.08-78.72 346.56-79.20C347.04-80.64 348.96-80.64 349.44-82.08C350.40-83.04 351.36-84 352.80-84.48L355.20-88.32C357.60-89.28 358.56-91.20 361.44-91.68C364.32-95.04 368.16-97.44 371.52-100.32C373.92-101.28 375.84-102.72 377.28-104.16C379.20-104.64 380.16-106.08 381.12-107.04L383.52-108.96C384.48-109.44 385.44-110.88 385.92-111.36C386.40-111.84 386.88-111.36 386.88-111.84C387.36-111.84 387.36-112.32 387.36-112.32C387.84-112.80 388.32-112.80 388.80-112.80C388.80-113.28 389.28-114.24 389.76-114.24L393.12-116.64C394.56-119.52 396.96-121.92 399.36-124.32C399.36-126.24 399.84-127.68 400.80-129.60C400.32-130.08 400.32-131.04 399.84-131.04L399.84-132C399.84-132.48 399.36-132.48 399.36-132.48C399.36-133.92 399.36-134.88 398.88-135.84L398.40-135.84L398.40-136.80C397.92-137.76 396.48-137.76 396-138.72L395.04-140.64C394.56-141.12 393.60-141.12 394.08-142.56C393.60-145.92 396-148.32 395.04-151.20ZM538.56-148.32C539.04-150.24 540.48-150.72 540.96-152.64C542.40-152.64 543.36-153.60 544.32-154.08C544.80-155.52 547.68-154.56 547.68-156C548.64-156.96 550.56-156.96 551.04-157.92L552.96-158.88C553.44-159.36 553.44-159.84 553.92-159.84C554.40-159.84 554.88-159.84 555.36-160.32L555.84-160.32C555.84-160.80 556.32-160.32 556.32-160.32C556.80-160.80 556.80-161.28 557.28-161.28C557.76-161.76 558.72-162.24 559.68-162.24C561.12-163.68 563.52-164.64 564.96-165.12C565.44-165.12 565.92-165.12 566.40-165.60L566.88-166.08C567.36-166.56 567.84-166.08 568.32-166.56C568.80-166.56 569.28-167.04 569.28-167.52C569.76-167.52 569.76-167.52 570.24-168C570.72-168.48 570.72-169.44 572.16-169.44C573.60-169.92 575.52-170.40 576.48-171.36C577.44-171.36 577.92-172.32 578.88-172.80L580.80-174.24C582.72-174.72 584.16-176.16 586.56-176.16C587.04-177.60 588.48-177.12 588.96-178.08C590.40-180 592.80-180.48 594.72-181.44C596.16-182.40 596.64-182.88 598.08-183.36L604.32-187.20C604.80-188.64 606.24-188.64 607.20-189.12C608.16-190.08 609.12-190.56 610.56-191.04C611.04-192 612-191.52 612.48-192C613.92-192.96 615.36-193.92 617.76-194.40C618.24-195.36 619.20-196.80 620.16-197.28L623.52-199.20C624.48-199.20 625.44-200.16 625.44-200.16L626.40-200.16L628.32-202.56C628.32-202.56 628.80-202.08 628.80-202.56C629.28-202.56 629.28-203.04 629.76-203.04C629.76-203.52 630.24-203.52 630.24-203.52C630.72-203.52 631.20-204.48 631.68-204.48L633.60-205.44L634.08-205.92C635.04-206.88 636.48-207.36 637.44-207.84C638.88-209.28 640.32-209.76 642.24-210.24C642.72-211.68 644.64-212.16 645.60-213.60C646.56-213.60 646.56-214.56 647.52-214.08C648.48-215.04 648.96-216 649.92-216.48C651.36-216.48 651.84-217.44 652.80-217.92C653.76-219.36 655.20-219.84 656.16-221.28C659.04-221.28 659.52-223.68 661.92-225.12C662.40-225.60 663.36-226.08 664.80-226.08L667.68-229.44C670.08-230.88 671.52-233.28 674.88-233.76L677.28-237.12L681.12-239.04C682.08-240 683.04-240.96 683.52-241.92C686.88-244.32 689.28-247.20 692.64-249.60L695.04-253.44L698.40-254.88C698.88-255.84 699.36-257.28 700.32-258.24C701.76-258.24 702.24-260.16 703.20-260.16C703.68-260.16 704.64-261.12 704.64-261.12C706.08-262.56 707.52-263.52 708.48-264.96C709.92-265.44 709.44-267.36 710.88-267.84C712.32-269.28 714.24-270.72 714.72-273.12C717.12-274.56 717.60-276.96 720-278.40C720-279.36 720.96-279.84 720.96-281.28C722.40-281.76 722.40-283.68 723.84-284.16C724.32-285.60 724.80-287.04 725.76-288C726.72-288.96 727.68-289.92 727.68-291.84C729.12-292.80 730.08-293.76 731.04-295.20C731.04-296.64 731.04-297.12 731.52-298.08C732.96-300 733.92-301.92 734.40-304.80C735.36-305.76 735.36-307.20 735.84-308.16C736.32-309.12 736.32-309.12 736.32-309.60C736.32-310.08 736.80-310.08 736.80-310.08C736.80-310.56 736.80-311.52 737.28-312C737.28-314.40 738.72-316.80 739.20-319.20C739.20-321.12 738.72-323.04 739.20-324.96C739.68-326.40 738.24-326.40 738.72-327.84L738.72-332.64L735.36-337.92C734.40-338.88 733.44-340.80 732-342.24C729.60-343.20 727.68-344.16 725.76-345.60C721.92-346.08 719.04-347.52 714.72-347.52C714.24-347.52 714.24-346.56 713.28-346.56C709.44-346.56 706.56-346.08 703.20-346.56C701.76-346.56 700.80-345.60 699.36-345.12C695.52-345.60 694.56-343.20 690.72-343.68C688.80-342.24 686.88-341.28 683.04-341.28L680.64-339.84C680.16-339.36 679.20-339.36 678.24-339.36C678.24-339.36 677.76-338.40 677.28-338.40L676.80-337.92L676.32-337.92C675.84-337.44 674.88-337.44 673.92-336.96C673.92-336.96 673.44-336.48 673.44-336C672.96-336 672.48-335.52 672.48-335.52C669.12-334.56 666.72-332.64 663.84-331.20L661.92-330.24C661.92-330.24 661.44-330.24 660.96-329.76C660.48-329.76 660.48-328.80 660-328.80L656.64-325.92C654.72-325.92 653.76-324.48 652.32-324C651.36-323.04 650.40-322.08 649.44-321.60C648.96-320.64 648-320.64 648-320.16C647.52-320.16 648-319.20 647.52-319.20C647.04-319.20 646.56-318.72 646.56-318.72C644.64-318.24 643.68-316.80 642.24-316.80C641.76-315.36 640.32-315.84 640.80-314.40L638.40-312.96C636.96-311.52 635.52-310.56 633.60-309.60C633.60-309.12 633.12-309.12 633.12-308.64C632.16-308.64 632.16-308.16 631.68-308.16L630.24-306.24C628.32-305.28 627.36-303.84 626.40-302.40C623.04-301.92 622.08-299.04 620.64-296.64C618.72-296.64 618.24-295.20 617.76-294.72C614.88-292.32 612-290.40 610.08-287.04L607.20-285.60C606.24-283.68 603.84-282.24 602.88-279.84C601.44-279.84 601.92-278.40 600.96-277.92C598.56-276.96 597.60-274.56 595.20-273.60C594.72-272.16 593.76-271.20 592.80-270.24L590.40-265.92C588.96-265.92 588.48-264.48 587.04-264C586.08-262.56 584.64-261.60 583.68-259.68C582.24-258.72 581.28-256.80 579.36-255.84C578.40-253.44 576.48-252 575.52-250.08C574.56-249.60 574.08-248.64 573.60-248.16C573.12-247.20 572.64-246.24 571.68-246.24C571.68-245.28 570.72-245.28 570.24-244.80C569.28-242.88 567.84-241.44 566.40-239.52C564.96-239.52 564.96-238.08 564.48-237.12C563.04-235.20 560.64-234.24 560.16-231.84C558.24-230.88 557.76-228 555.84-227.04C555.84-225.12 554.40-225.12 553.44-224.16C553.44-223.20 552.96-222.24 552.96-221.28L549.12-218.88C549.12-216.96 547.68-216.48 547.20-215.04C546.24-214.56 546.24-213.60 545.76-213.12C545.28-212.64 544.80-211.68 543.84-211.20C543.84-210.24 543.36-209.28 542.88-207.84C541.92-207.36 541.44-205.92 540-205.92C540-204.48 539.52-203.52 539.04-202.56C538.08-202.56 537.60-201.60 536.64-201.12C536.16-199.68 535.20-199.20 534.72-198.24C534.24-197.76 534.24-197.28 533.28-197.28C533.28-196.32 533.28-195.36 532.80-195.36C531.36-193.44 530.40-191.04 528-190.08C528-187.68 526.56-186.72 525.60-184.80C525.60-184.32 525.12-184.80 524.64-184.80L524.64-183.36C524.16-183.36 523.68-183.36 523.68-182.88C523.68-182.40 523.68-181.92 523.20-181.44C522.72-180.96 522.24-180.96 521.76-180C521.76-180 521.76-179.52 521.28-179.04C521.28-178.56 520.80-178.56 520.80-178.08C519.36-176.16 517.92-173.28 516-171.36C515.52-168.96 513.60-168 513.12-165.60L511.20-164.16C510.72-163.20 510.24-162.72 510.24-162.24C509.28-161.28 508.32-160.80 508.32-159.84C507.36-159.84 508.32-157.92 507.84-156.96C506.40-156.48 505.92-154.56 504.96-153.60C504.96-152.16 504.00-152.16 503.52-151.68C503.04-150.24 501.60-148.80 501.60-148.32C501.60-147.84 501.12-147.84 500.64-147.36C499.20-144.96 498.24-142.56 496.32-140.64C495.36-140.16 495.84-138.24 495.36-137.76C495.36-137.28 494.40-137.76 494.40-136.80C493.44-136.80 493.92-135.84 492.96-135.84C492.96-134.40 492.48-133.44 491.52-132.96C491.52-132 491.04-130.56 491.04-129.12C490.08-128.64 489.12-127.68 488.64-126.24C487.68-125.76 488.16-123.84 487.20-123.36C487.20-122.40 486.24-121.92 485.76-120.96L484.32-118.08C483.84-117.60 482.88-116.64 482.88-116.16C482.88-115.68 482.88-115.68 482.40-115.68C482.40-114.72 482.40-113.76 481.92-112.80L481.44-112.32C481.44-111.84 480.48-110.40 480.48-109.92C480.00-109.44 479.52-108.96 479.52-108.48C479.52-108 479.52-108.48 479.04-108L479.04-106.56C478.56-106.08 477.60-106.08 478.08-105.60C477.12-105.12 477.60-104.16 477.12-103.68C477.12-103.20 476.64-103.20 476.64-102.72L476.64-102.24C476.16-100.80 475.20-99.36 474.24-97.92C473.28-97.44 473.76-96 472.80-95.52C472.80-93.60 471.84-91.68 471.84-89.76C470.88-88.80 470.40-88.32 469.92-86.88L469.92-85.44C469.44-84.96 469.44-84.48 469.44-84.48C469.44-84 468.96-84 468.96-84C468.96-83.04 468.48-81.60 468.48-80.64C467.52-77.28 467.52-73.44 467.04-69.60C468.00-68.64 468.00-66.72 469.44-66.24C469.44-65.28 470.40-65.76 470.40-65.28C472.32-65.28 474.72-65.76 475.20-65.76L475.68-65.76C476.16-65.76 476.16-66.24 476.16-66.24C477.12-66.72 478.08-67.20 478.56-67.20L479.04-67.20C479.52-67.68 480.00-67.68 480.48-67.68C480.48-67.68 480.96-68.16 480.96-68.64C481.44-68.64 481.92-68.64 481.92-69.12C482.40-70.08 482.88-70.56 483.84-71.04L486.72-74.40C487.68-75.36 489.12-76.32 489.60-77.76C490.08-77.76 490.08-78.24 490.56-78.24C491.52-79.20 492.48-80.16 493.44-80.64C495.36-83.52 497.76-85.44 500.16-87.84C501.12-91.68 504.96-93.12 506.40-96.96C507.36-96.96 507.84-97.92 508.80-98.88L511.20-100.80C512.16-100.80 513.12-101.28 514.08-101.76C516.96-101.76 519.36-102.72 521.76-101.28C523.68-102.72 525.60-102.24 528.48-102.24C529.92-101.76 529.92-103.68 531.84-103.20C535.20-103.20 537.60-104.16 540.96-104.16C542.40-105.60 545.28-106.08 547.20-107.04C548.16-106.56 548.64-106.56 550.08-106.56L558.24-109.92L562.08-109.92C563.04-109.92 563.52-110.88 563.52-111.36C563.52-111.36 564.48-110.88 564.48-111.36L566.40-111.84C567.36-111.84 567.36-113.28 568.32-112.80C572.16-113.28 575.04-114.72 577.44-116.64C578.40-116.64 579.36-117.12 580.80-116.64C581.76-118.56 584.16-118.56 586.08-119.52C587.52-119.04 587.52-120 588.96-120C589.44-120.48 589.92-120.48 590.40-120.48L590.88-121.44C591.36-121.44 591.84-121.44 591.84-121.92L592.32-121.92C592.80-122.40 592.80-122.40 593.28-122.40L595.68-122.40C596.64-122.88 597.12-123.84 598.56-124.32C601.92-124.32 604.32-125.76 607.20-127.20C609.60-127.68 611.04-129.12 612.96-130.08C613.44-131.04 614.40-131.52 615.36-131.52C615.84-132 617.76-132 619.20-132C620.16-132.48 621.12-133.44 622.56-133.92C624-133.92 624.48-134.40 625.44-134.40C626.88-135.84 628.32-136.32 630.24-136.80C631.20-137.76 633.12-138.24 633.60-138.24C634.56-138.24 634.56-139.20 635.52-139.20C635.04-141.12 636.48-142.08 635.52-143.04C634.56-144 633.60-144 631.68-143.52C631.68-143.04 631.68-143.04 631.20-143.04C629.76-143.04 629.28-142.56 627.84-142.56L624.96-139.68C621.60-140.16 620.16-138.72 618.24-137.76C615.84-137.76 613.92-136.80 612.48-135.84C610.08-135.84 608.64-134.40 606.72-133.92C605.28-133.44 603.84-132.96 601.92-132.96C600.48-132 598.56-131.04 596.64-130.56C595.20-129.60 593.28-129.12 591.36-128.64L584.64-126.72L582.24-125.28C581.28-125.28 580.32-124.80 579.84-124.80C578.88-124.32 577.44-124.32 576-124.32C576-123.84 574.56-123.84 574.56-123.36C573.60-122.88 572.64-122.40 572.16-122.40L571.68-122.40C571.20-122.40 571.20-121.92 571.20-121.92C570.24-121.92 569.28-121.44 568.32-121.44L565.44-120C563.04-120 561.60-119.04 559.68-118.56L556.80-118.56C555.84-117.60 553.92-117.60 552.96-117.12C552-117.12 552-116.16 551.04-116.64L547.68-116.64C546.24-115.20 544.32-115.20 542.40-114.72C540-114.24 538.08-113.28 535.68-113.28C534.72-112.80 533.76-111.84 532.32-111.84L523.20-111.84C523.20-112.80 522.72-113.76 522.72-114.72C522.72-116.16 523.20-116.16 523.68-116.64C524.16-117.12 523.68-117.60 524.16-118.08L525.60-119.04C527.52-120.96 529.92-124.32 531.84-125.28C534.24-126.72 535.68-128.64 537.12-130.56C538.56-130.56 539.04-132 540-132.48C540.48-133.44 541.44-134.40 542.40-135.36C542.88-136.32 542.88-136.80 543.84-137.76C544.32-138.24 544.32-139.20 545.28-139.68C544.80-142.08 545.76-143.04 545.76-144.96C544.80-146.40 543.36-146.88 542.40-148.32C541.44-148.32 540.96-148.80 540.48-148.80C540-148.32 539.04-147.84 538.56-148.32ZM531.84-156.48C527.52-156 526.08-151.20 521.28-153.12C520.32-154.08 520.80-155.04 521.28-156.48C521.28-156.96 520.80-156.96 521.28-156.96C522.72-160.80 525.12-163.68 527.52-166.56L530.40-172.32C531.36-173.76 533.28-175.20 533.76-177.12C535.20-177.60 535.20-179.04 535.68-180.48L538.56-182.88C539.04-183.84 540-184.80 540-186.24C541.92-187.20 542.88-190.08 544.32-192C544.32-193.44 545.76-193.92 546.24-194.88C547.20-195.36 547.68-196.80 548.64-197.28C549.12-198.72 549.60-199.68 549.60-200.64C552-202.56 553.44-205.44 555.36-207.84C555.84-207.84 556.80-207.84 556.32-208.80C557.28-208.80 556.80-209.28 557.28-209.76C557.28-210.24 557.76-210.24 558.24-210.72C558.24-211.20 559.20-211.68 559.68-212.16C560.16-212.64 559.68-213.60 560.16-214.56L561.60-216C563.52-218.40 565.92-220.32 566.88-223.20C568.80-224.16 569.28-226.56 571.20-227.52L572.16-229.44C572.64-230.88 573.60-231.36 574.56-232.32C574.56-232.80 574.56-232.80 575.04-232.80C575.04-233.76 576-233.76 576.48-234.24L577.44-236.16L578.88-237.60C579.36-238.56 579.36-239.52 580.80-239.52L583.20-242.88C584.64-244.80 587.04-246.72 588-249.60C590.88-251.04 591.84-254.40 594.72-255.36C595.20-256.80 596.16-257.76 596.16-258.72C597.12-259.20 598.08-259.68 598.56-260.64C599.04-261.60 600-261.60 600-263.04C602.40-264 603.36-265.44 603.84-267.36C604.80-267.84 605.28-268.80 606.72-268.80C607.68-271.20 609.60-272.16 610.56-274.56C612.48-275.52 613.44-277.44 615.36-278.40L616.80-280.32C617.28-280.80 617.76-280.80 617.76-281.28C618.24-281.28 618.24-282.24 618.24-282.24C619.20-283.68 620.64-284.64 622.08-285.12C623.04-287.04 624.48-288 625.44-288.96C626.88-290.40 627.84-290.88 628.80-292.32C629.76-292.80 630.24-293.76 631.68-293.76C633.12-295.68 635.52-296.64 636.48-299.04L640.32-301.92L643.20-304.80L645.12-306.24C645.60-306.72 645.60-307.20 646.08-307.20C646.08-307.20 646.56-307.20 647.04-307.68L647.52-308.16C648-308.64 648.48-308.64 648.96-308.64C648.96-308.64 649.44-309.12 649.44-309.60C649.92-309.60 650.40-309.60 650.40-310.08C651.36-310.08 651.36-310.56 651.36-311.04C651.84-311.04 652.32-311.04 652.80-311.52C653.28-311.52 653.76-312.48 654.24-312.96C655.20-313.92 656.16-314.88 657.60-315.36C659.52-317.28 662.88-318.24 664.80-320.16C668.16-321.12 670.56-323.04 672.48-325.44L674.88-325.44C677.76-327.36 680.16-329.76 684.48-330.24C686.40-331.20 688.32-332.16 690.72-332.64C691.20-333.12 692.16-333.12 693.12-333.12C693.12-333.12 694.08-333.60 694.56-333.60C694.56-333.60 694.56-334.08 695.04-334.56C695.04-334.56 695.52-334.08 695.52-334.56C696-334.56 696-335.04 696-335.04C696.48-335.52 696.96-335.04 697.44-336C699.84-335.52 701.28-336.48 702.72-336.48C704.16-337.44 706.56-336.96 707.52-337.92C708-337.92 708.48-338.40 708.96-338.40C711.36-337.92 714.24-338.88 716.64-338.40C719.04-338.40 720.48-336.96 722.40-336.96C723.36-335.52 725.28-335.04 726.72-333.60C726.72-333.60 726.24-333.12 726.72-332.64L727.20-332.64L728.16-331.20L729.12-324.48C728.64-322.08 729.12-318.72 728.64-316.80C727.68-314.40 726.24-312 726.24-309.12C724.80-307.68 724.32-305.76 723.84-303.84C722.40-301.92 721.44-299.52 720.48-297.12C718.56-295.20 717.60-292.32 715.68-290.40C715.20-288.96 714.72-287.52 713.28-287.04L711.36-283.20L707.52-279.84C707.52-279.84 707.52-278.88 707.04-278.40L706.08-278.40L706.08-277.44L705.60-276.96C705.12-276.96 705.60-276.48 705.60-276.48C705.12-276 704.64-276 704.64-275.04C703.68-274.56 702.72-274.08 702.24-273.12C701.28-272.16 701.28-271.20 700.32-270.24C699.84-269.76 698.88-269.28 698.40-268.32C697.44-267.84 696.96-266.88 696.48-266.40C695.04-264.96 693.60-264.48 693.12-262.56C692.16-262.56 692.16-261.60 691.68-261.60C691.68-260.64 690.24-261.12 690.24-260.64L684-254.40C684-254.40 684-253.92 683.52-253.92C682.56-252 680.16-251.52 678.72-250.08C678.24-249.12 677.28-248.16 676.32-247.68C676.32-246.24 674.88-246.72 674.40-245.28C672.48-244.80 670.56-243.36 668.64-241.92C667.20-240.48 665.28-239.52 664.32-237.60C661.44-236.64 659.52-234.24 657.12-232.32C655.20-230.88 652.32-229.44 650.88-227.04C649.44-227.04 648.48-226.08 647.52-225.60C646.08-225.12 646.08-223.68 644.16-223.68C643.68-222.24 642.24-222.24 641.76-220.80C640.80-220.80 640.32-220.32 640.32-219.84C639.36-219.84 638.40-219.36 638.40-218.88C637.44-218.40 636.48-217.44 635.52-216.48C631.68-216 629.28-213.60 627.36-211.20L623.52-209.76C622.56-208.80 622.08-207.84 621.12-207.36C620.64-206.88 619.68-206.88 619.20-205.92C618.72-205.92 618.24-205.44 617.76-205.44L617.76-204.96C617.28-204.96 616.80-204.48 615.84-204.48L615.36-204C614.88-203.52 614.40-203.52 614.40-203.52C613.92-203.52 613.92-203.04 613.92-202.56L612-202.56C611.04-201.12 609.60-201.12 609.12-199.68L607.68-198.72L605.76-197.76C604.80-197.76 604.32-195.84 603.36-195.36C602.40-195.36 600.96-194.40 600-193.92C599.04-192.96 597.60-193.44 596.64-192.96L593.28-190.56L593.28-190.08L592.32-190.08L591.84-189.12C590.40-188.64 588.96-188.16 588-186.72C586.56-186.24 585.60-185.76 584.64-184.80C583.68-184.80 582.72-184.32 581.76-184.32C579.36-183.36 578.40-180.96 575.52-180.96L572.16-178.08C570.72-178.08 570.24-177.60 569.28-177.12L566.40-175.20C565.92-175.20 565.44-174.72 564.96-174.24C565.44-173.28 564-173.76 564-172.80C561.60-172.80 560.16-171.84 558.72-170.88C556.80-170.40 555.36-168.96 554.40-167.52C552.96-168 552.48-167.04 551.04-167.04L546.24-164.16C544.32-163.68 542.88-162.24 540.96-162.24C540-161.28 539.04-160.32 538.08-159.84C535.68-159.36 533.76-157.92 531.84-156.48ZM529.92-147.36C532.32-146.88 533.28-147.84 535.20-148.32C536.16-146.88 534.24-145.44 534.24-144C533.28-143.52 532.32-142.56 531.36-141.60C530.40-141.12 529.44-140.16 528.48-139.20L528-138.72C527.52-138.72 528-138.24 528-137.76L527.52-137.76L526.56-136.32L523.68-133.92C523.20-132 521.28-131.04 520.80-129.12C519.84-128.64 519.36-127.68 517.92-127.68L516-125.28L508.80-118.56C507.84-117.60 507.36-116.64 506.88-115.68C506.40-115.68 506.40-115.68 506.40-115.20C506.40-114.72 505.44-114.24 505.44-113.76C505.44-113.28 504.96-112.80 504.96-112.32C504.96-111.84 504.00-111.36 504.00-110.88C504.00-109.92 503.04-108.96 502.56-108.48C502.08-108 502.08-107.52 501.60-107.52C501.60-105.60 500.16-105.60 500.16-104.16C499.68-103.68 499.20-102.72 498.24-102.24C497.28-100.80 495.84-99.84 495.36-97.92L492.96-96C492.00-93.12 490.08-91.68 488.16-89.76C487.20-89.28 486.24-89.28 485.76-88.80C484.32-89.28 485.76-86.88 484.32-86.88C484.32-88.80 483.84-89.76 483.84-91.20C484.32-93.60 486.24-94.56 486.72-96.96L487.68-98.88C488.16-99.36 489.12-101.28 489.12-102.72C490.08-104.16 491.04-106.08 492.96-107.04C492.48-108.48 493.44-108.48 492.96-109.44L494.88-111.84C495.36-115.20 497.76-116.64 498.24-119.52C500.16-120.96 501.12-123.84 503.04-125.76C502.56-127.20 503.52-127.68 503.52-129.12C504.00-129.60 504.48-130.56 505.44-130.56C506.88-132.48 508.32-134.40 509.28-136.32C511.68-137.76 514.08-139.20 516-141.12C516.96-141.12 517.44-141.60 518.40-141.12C519.36-141.60 519.84-142.56 521.28-143.04C521.76-143.52 523.20-143.52 524.16-144.48C525.12-144.48 526.08-145.44 527.04-145.92C528-146.40 528.96-146.40 529.92-147.36ZM641.28-147.84C638.40-148.32 636.48-148.32 635.04-147.36C634.08-146.88 634.08-146.40 633.60-145.92C633.60-145.92 633.12-146.40 633.12-145.92C632.16-145.44 631.68-144.48 631.20-144L630.24-138.72C629.76-138.72 629.76-138.24 629.76-137.76L628.32-136.80L626.40-134.40C626.88-132.96 625.92-132 626.40-130.56C625.44-129.60 624.48-128.16 624.48-126.72C623.52-124.32 623.04-121.44 623.04-117.60C624-116.16 624.96-114.72 625.44-113.28C627.36-112.32 629.28-111.36 631.68-110.88C634.56-110.88 637.44-111.84 640.32-112.32C641.76-114.24 644.16-115.20 647.04-116.16C648-116.64 648.96-118.08 649.92-118.08C650.40-118.08 650.40-118.56 650.40-118.56C650.88-119.04 651.84-119.04 652.80-119.52L653.28-120C653.76-120.48 654.24-120 654.72-120.48C655.20-120.96 655.68-121.92 657.60-121.44C659.04-120 658.08-118.56 657.60-117.12C657.60-116.64 657.60-116.16 657.12-116.16C657.12-115.68 656.64-115.20 656.16-115.20C656.16-114.72 655.20-114.24 655.20-113.28C654.72-113.28 655.20-111.84 654.72-111.84C654.24-110.88 653.76-110.88 653.76-109.92C652.80-109.44 652.80-107.52 651.36-107.04C650.88-103.20 648.96-100.80 648-96.96C647.52-95.52 646.56-93.60 647.04-91.68L647.52-91.20C647.52-90.24 647.04-89.28 647.52-88.32C647.52-86.88 648.48-85.44 648.96-84.48C650.88-83.52 655.68-81.12 657.12-83.04L658.08-83.04C659.04-83.52 660.96-83.52 662.40-83.52C662.40-84 662.88-83.52 663.36-84C663.84-84 664.32-84.48 664.32-84.48C664.80-84.96 665.76-84.96 666.72-85.44C668.16-85.92 669.12-86.88 670.56-87.84L672.48-87.84C674.40-88.80 675.36-90.72 678.24-90.72C678.72-91.68 679.68-92.16 680.64-93.12C684-94.08 686.88-96 689.76-97.92C690.24-98.40 691.68-97.92 692.16-98.40L694.56-100.32C696-100.32 696.48-101.76 696.96-102.24C699.84-102.72 700.32-105.12 703.20-105.60C703.68-106.08 704.64-107.04 705.60-107.04C705.60-108 706.56-107.52 707.04-107.52C707.04-107.52 707.04-108.48 707.52-108.48L708-108.48C708.48-108.48 708.48-108.96 708.96-108.96C708.96-109.44 709.44-109.44 709.92-109.92L710.88-110.88L712.32-110.88C712.32-111.36 712.80-111.84 712.80-111.84C713.28-111.84 713.76-111.84 714.24-112.32C715.20-113.76 716.64-114.72 718.08-115.68C719.52-116.16 720.96-116.64 721.44-117.60C723.36-118.08 724.32-119.04 724.80-120C726.24-120.96 727.68-120.96 728.64-121.92C729.60-123.36 731.04-123.84 732-124.32C732.96-125.28 733.44-126.72 734.88-127.20C738.24-128.16 739.20-131.04 743.04-131.52C744.48-133.44 746.88-134.88 749.76-136.32C750.72-138.24 753.60-138.72 753.60-142.08L752.16-144C751.20-144.48 750.72-144 750.24-144C747.36-144.48 746.88-142.08 744.96-141.60C744-141.60 743.52-141.12 742.56-140.64L739.20-138.24C737.76-137.76 736.80-136.80 735.84-135.84L733.44-134.40C732-133.44 730.08-132.48 729.12-131.04C727.68-130.56 726.72-130.08 725.76-128.64L723.36-127.20C722.88-127.20 722.40-126.72 722.40-126.72C720.96-125.76 719.52-125.28 718.56-124.32L715.20-121.44C712.80-121.44 711.84-119.52 710.40-119.04C708-118.56 707.52-116.64 705.12-116.16L703.68-114.24C700.80-113.28 698.88-111.36 696-110.40L692.64-108C691.20-107.52 690.24-106.56 688.32-106.08C686.40-103.68 682.08-102.72 679.68-100.32C678.72-100.32 677.76-100.32 677.28-99.84C676.32-99.36 676.32-97.92 674.88-97.92L668.16-95.04C667.68-94.56 667.68-94.56 666.72-94.56L666.72-94.08L665.28-94.08C665.28-94.08 665.28-93.60 664.80-93.12C663.36-92.64 662.40-92.16 660-92.64C659.52-93.60 658.56-95.04 658.56-96.48C658.56-98.40 660.48-97.92 660.48-99.36C661.44-99.84 661.92-100.80 662.40-101.76C663.36-102.24 662.88-103.20 663.36-103.68L664.32-104.64C664.80-105.60 665.76-106.56 665.76-107.52L669.60-110.88C669.60-111.36 670.08-112.32 670.56-112.32C670.56-112.80 670.08-113.28 670.56-113.28C670.56-113.28 671.04-113.28 671.04-113.76C671.52-114.72 672-115.68 673.44-116.16C674.40-118.08 675.84-120 677.28-121.44C677.28-122.88 677.76-123.36 677.76-124.80C678.72-125.28 679.20-126.72 680.16-126.72C679.68-127.68 681.12-127.68 681.12-128.16C681.12-129.12 681.12-130.08 681.60-130.08C681.60-132.48 681.12-133.92 681.12-136.32C680.16-136.32 680.64-137.28 679.68-137.76C679.68-138.72 678.72-139.20 678.24-139.68C676.32-139.68 675.36-138.24 672.48-138.72C672.48-138.24 672-138.24 671.52-137.76L669.60-137.28C669.60-137.28 669.12-136.80 668.64-136.80C667.68-136.32 666.24-135.84 665.28-134.88C664.80-133.92 663.36-133.44 662.88-132.96C661.44-132.96 661.44-132.48 660.48-132.48C660.48-132 659.52-132 659.52-132C658.08-130.56 657.60-129.60 656.16-128.64L652.80-126.72C651.36-125.76 649.92-124.80 648-124.80C647.52-123.84 646.56-122.88 645.12-122.40L642.24-121.44C641.28-120.48 637.44-121.92 637.92-121.44C636.96-121.92 636.48-121.92 636.48-122.40C633.60-124.80 636.48-128.64 638.40-130.08C638.40-131.04 638.88-131.52 639.36-132.48C639.84-133.44 639.84-134.88 640.80-135.36C641.28-135.84 642.24-135.84 642.24-137.28C642.24-139.20 643.68-140.16 644.16-142.56C643.20-144.48 642.72-146.40 641.28-147.84ZM761.76-145.44C759.84-147.36 756.96-147.36 754.56-146.88L750.24-145.92C749.76-145.44 749.76-144.96 748.80-144.96C747.36-142.56 745.44-140.64 743.52-139.20C742.56-135.36 739.20-134.40 738.24-131.52C736.32-131.04 735.84-129.12 734.88-128.64C734.88-127.20 733.44-127.20 733.44-126.72C732.48-126.24 732.48-125.28 731.52-125.28C730.56-122.88 730.08-121.44 728.16-120.48C727.68-118.56 726.24-117.60 724.80-116.16C724.80-115.20 724.32-114.24 723.84-113.28C723.84-112.32 722.40-111.84 722.40-111.36C721.44-109.44 722.88-107.04 722.88-105.60C723.84-105.12 724.80-105.12 725.28-104.16C727.68-104.16 728.64-105.12 731.04-104.64L732.96-106.08C733.44-106.56 733.92-107.52 734.88-108C735.36-108.48 736.32-108.96 737.28-108.96C737.76-109.92 739.20-110.40 740.64-111.36C741.60-112.32 742.56-113.28 744-113.76C744.96-114.72 745.44-115.68 746.40-116.16C748.80-117.12 749.28-119.04 751.68-120C753.12-121.44 754.56-122.88 756.96-123.36C758.88-125.76 761.76-126.72 763.68-128.64L770.40-130.08C771.84-128.16 773.76-127.20 773.76-124.32C775.68-123.36 776.16-121.92 777.60-120.48C778.08-120 779.04-120 779.04-119.04C780-118.56 780-117.12 780.96-117.12C783.36-114.72 787.68-115.68 791.04-115.20C792.48-116.16 794.88-116.64 797.28-116.16C797.28-117.12 798.24-116.64 798.24-117.12C799.20-117.12 799.20-117.60 800.16-118.08L802.56-118.08C804.96-120 809.76-119.52 812.64-121.44L814.56-121.44C815.04-122.40 816-122.40 816.48-122.88C816.96-123.36 817.92-123.36 819.36-123.36C819.84-124.32 820.32-125.76 821.28-125.76C822.72-126.24 822.72-125.28 823.68-125.28C825.60-126.72 827.52-128.16 830.40-128.16C831.84-129.12 833.76-130.08 836.16-130.08C837.60-131.52 839.04-132.48 841.44-132.48C841.44-133.44 842.40-132.96 842.88-133.44C843.36-133.44 843.36-133.92 843.36-133.92C843.84-134.40 845.28-134.40 845.76-134.88C846.24-134.88 845.76-135.36 845.76-135.36L846.72-135.36C846.72-135.84 847.20-135.36 847.68-135.36L847.68-135.84C847.68-136.32 848.16-135.84 848.16-135.84L848.16-136.32L849.12-136.32L849.12-136.80L849.60-136.80L849.60-137.28L850.56-137.28C850.56-137.76 851.04-137.28 851.04-137.28C852-137.76 852.96-138.24 853.92-138.24C854.88-140.16 856.80-140.64 856.80-143.04C855.84-144.48 852.48-143.52 851.04-143.52L849.60-142.56C849.12-142.56 848.16-142.08 848.16-142.08C847.68-142.08 847.68-142.08 847.68-141.60L846.72-141.60C845.76-141.12 844.80-140.64 844.32-140.64C841.92-139.68 839.52-138.24 837.12-137.76L835.20-136.80C835.20-136.32 835.20-136.32 834.72-135.84C832.80-134.88 830.40-135.36 828.96-133.92C828.48-133.44 827.52-133.44 826.56-133.92C826.56-132.96 825.60-133.44 825.12-132.96C825.12-132.48 824.64-132 823.68-132C823.20-131.52 822.24-131.52 821.28-131.52C819.84-130.08 818.40-129.12 816-128.64C815.04-127.68 814.56-128.64 813.12-128.64C813.12-128.16 812.64-128.16 812.16-128.16C809.28-126.72 806.40-125.28 802.56-125.28C802.56-124.80 801.60-124.80 801.12-124.80L801.12-124.32L800.16-124.32C800.16-124.32 799.68-124.32 799.68-123.84C796.32-124.32 794.40-122.88 791.04-123.36C788.64-124.32 785.76-125.28 783.36-126.72C782.88-128.64 780.96-129.60 780.96-132L778.56-133.92L776.64-136.32C775.20-136.32 774.72-137.28 773.28-137.28C772.80-137.76 771.36-138.24 770.40-138.24C769.92-137.76 769.44-138.24 768.48-137.76L768.48-137.28C767.52-137.28 766.56-137.28 766.08-136.80C763.68-136.80 763.68-134.40 761.76-135.36C760.80-138.72 762.24-142.56 761.76-145.44ZM1151.52-91.68C1152-91.68 1152-91.20 1152.48-91.20L1152.96-91.20L1152.96-90.72L1153.92-90.72C1153.92-90.72 1153.92-90.24 1154.40-89.76C1155.84-89.28 1157.76-90.24 1160.16-90.24C1160.16-90.72 1161.12-90.72 1161.12-91.20C1161.12-91.68 1161.60-92.16 1162.08-92.16C1163.04-92.64 1164-93.12 1164.48-94.08C1165.44-94.08 1165.92-94.56 1166.88-94.56C1167.36-96.48 1169.76-96.48 1170.72-98.40C1172.16-99.36 1173.60-100.32 1175.04-101.76L1177.44-105.12C1178.40-105.60 1179.36-106.56 1180.80-107.04C1181.76-108.48 1183.20-109.44 1183.68-110.88L1186.56-112.80C1186.56-113.76 1188-114.24 1188-115.20C1188.48-116.16 1189.44-116.64 1189.44-118.08C1190.88-118.56 1191.84-119.52 1192.80-120C1193.76-122.40 1195.68-123.84 1197.12-124.80C1198.08-125.76 1198.56-126.24 1199.04-127.68C1200-128.16 1200.96-129.12 1201.92-130.08C1202.88-132 1203.84-133.44 1205.76-134.88C1207.20-136.80 1208.16-138.72 1210.08-140.16L1212-142.56C1212-143.52 1212.96-143.04 1212.96-144L1215.84-147.84C1215.84-148.32 1216.80-148.32 1217.28-148.80L1218.24-150.24C1218.72-152.16 1220.16-152.64 1221.12-154.08C1222.56-155.52 1223.04-156.96 1224.48-158.40C1224.96-158.88 1225.44-160.32 1226.88-160.32C1226.88-160.80 1227.36-161.28 1227.36-161.76L1227.84-162.24C1228.32-162.72 1228.32-163.20 1228.32-163.68L1229.76-165.60C1230.24-165.60 1230.24-166.08 1230.72-166.56C1230.72-166.56 1231.20-167.04 1231.68-167.04C1231.68-167.52 1231.68-168 1232.16-168.48L1235.04-172.32C1236-173.28 1236.96-174.72 1238.40-175.68C1238.40-176.16 1238.88-176.64 1238.88-177.60C1239.36-177.60 1239.36-178.08 1239.84-178.08C1239.84-178.56 1239.84-179.04 1240.32-179.52L1240.80-179.52C1241.28-180 1241.28-180.48 1241.28-180.96L1242.72-182.40C1244.16-184.32 1245.60-187.20 1248-188.64C1248.48-190.08 1249.44-191.04 1249.44-192.48C1250.40-192.96 1250.88-193.92 1252.32-193.92C1252.80-196.32 1253.76-197.76 1255.68-198.72C1256.16-201.12 1257.60-202.56 1259.52-204C1260.48-207.84 1263.84-209.28 1264.80-213.12C1266.72-215.04 1268.16-217.92 1270.08-219.36C1270.56-221.28 1272-221.76 1272-223.68C1274.40-225.60 1275.84-228 1277.28-230.88C1277.76-231.84 1278.24-232.32 1278.24-233.76L1279.20-235.20C1279.68-235.20 1279.68-235.68 1280.16-236.16C1281.12-236.64 1280.64-238.56 1281.12-239.04L1283.04-241.44L1284-242.40L1284.96-246.24C1285.44-247.68 1287.36-247.68 1287.84-249.60C1288.32-249.60 1287.84-250.08 1287.84-250.56C1287.84-251.52 1288.32-251.52 1288.32-252C1289.28-252.48 1289.28-253.44 1289.76-254.40C1290.72-254.88 1290.24-256.32 1291.20-256.80C1290.72-257.28 1291.68-257.28 1291.68-257.76C1292.16-258.24 1292.16-258.72 1292.64-258.72C1292.64-259.68 1293.12-260.64 1293.12-262.08L1295.52-265.44L1297.92-270.24C1297.44-271.68 1298.40-272.16 1298.40-273.60C1299.36-274.56 1299.36-276.48 1300.32-277.44C1300.32-278.40 1300.80-278.40 1300.80-279.36C1300.80-279.36 1301.28-279.36 1301.28-279.84C1301.28-280.32 1301.28-281.28 1301.76-281.76C1301.76-283.68 1302.72-284.16 1302.24-286.08L1303.68-288.48C1304.16-288.96 1303.68-289.92 1303.68-290.40C1303.68-290.88 1304.16-290.88 1304.16-290.88C1304.64-292.32 1304.64-293.28 1305.12-293.76C1305.60-296.16 1305.12-297.12 1305.60-299.04L1307.04-304.32C1307.04-304.80 1306.56-305.28 1306.56-305.76C1306.56-307.68 1307.04-308.64 1307.04-309.60L1306.56-309.60C1306.08-310.08 1307.04-312 1306.08-312.48C1307.04-313.44 1306.56-315.84 1306.56-317.28C1305.60-318.72 1305.12-320.16 1304.64-321.60C1304.16-324 1302.72-325.92 1302.72-328.80C1302.24-328.80 1302.24-328.80 1302.24-329.28C1301.28-329.76 1301.28-330.72 1300.80-331.20C1300.32-331.20 1300.32-332.16 1300.32-332.16C1297.92-333.12 1296.48-335.04 1295.52-336.96C1293.12-336.96 1292.16-338.88 1290.24-339.36C1289.76-339.84 1287.84-339.36 1287.84-340.32C1286.88-340.32 1286.88-340.80 1286.40-341.28C1285.92-341.28 1285.44-341.28 1285.44-341.76C1282.56-341.28 1282.08-343.20 1280.16-343.20C1276.32-344.16 1271.52-343.68 1268.16-344.64C1265.28-344.16 1261.44-345.12 1258.08-345.12L1255.20-344.16C1252.80-344.64 1250.40-344.16 1248.96-344.16C1248.48-344.16 1248.48-343.68 1248.48-343.68C1247.04-343.20 1244.64-343.20 1244.16-342.72C1244.16-342.72 1243.68-343.20 1243.20-342.72L1240.32-342.72C1239.36-342.24 1237.92-342.72 1236.96-342.72C1235.04-341.76 1232.16-341.28 1229.76-340.80C1228.32-340.32 1226.88-340.32 1226.40-339.36C1225.92-339.36 1225.44-339.84 1225.44-339.36C1225.44-338.88 1224.96-339.36 1224.48-339.36L1222.56-338.40C1221.12-338.88 1220.64-337.92 1219.20-337.92C1218.24-336.96 1216.32-336.96 1215.84-336.48C1214.88-336 1212.96-335.52 1212.48-335.52C1211.52-334.56 1209.60-334.56 1208.64-333.60C1208.64-333.12 1207.20-334.08 1207.20-333.12C1205.76-333.12 1204.80-332.16 1203.36-331.68L1200.48-331.68C1198.08-329.76 1195.20-328.32 1192.32-326.88C1189.44-326.88 1188-325.44 1186.08-324.96C1186.08-324 1185.12-324 1184.16-323.52C1183.20-323.52 1182.24-323.52 1181.76-323.04C1180.32-322.08 1179.36-321.12 1177.44-320.64C1176-320.16 1175.04-318.72 1173.12-318.72C1171.68-316.80 1169.28-315.84 1167.84-314.40C1166.40-314.40 1165.44-313.92 1164.96-313.92C1163.52-313.44 1163.04-312 1161.60-311.04C1158.72-311.04 1157.76-309.12 1155.84-308.16C1154.88-308.16 1153.92-307.20 1152.48-307.20C1151.52-305.76 1150.08-305.28 1148.64-304.32C1147.20-302.88 1145.76-301.92 1143.84-301.44C1142.88-300.48 1142.40-299.52 1141.44-299.04C1139.52-298.56 1138.08-297.60 1136.64-297.12C1136.64-296.16 1135.20-296.16 1134.72-295.68C1134.24-295.20 1134.24-294.72 1134.24-294.24C1133.76-294.24 1133.28-293.76 1133.28-293.76C1132.32-293.28 1131.36-293.28 1130.88-292.80C1130.40-292.80 1130.40-292.32 1129.92-291.84L1128.48-291.84C1128-291.36 1127.52-290.88 1127.52-290.40C1126.56-289.92 1126.08-289.44 1125.60-288.48C1125.60-288.48 1125.12-288.96 1124.64-288.48C1124.16-288.48 1124.16-287.04 1123.20-287.52C1122.24-287.04 1121.76-285.60 1120.80-285.12C1119.84-284.16 1119.36-284.64 1118.40-284.16C1117.92-284.16 1117.92-283.20 1117.44-283.20C1117.44-282.72 1116.96-283.20 1116.96-283.20C1116.96-282.72 1116.48-282.24 1116.48-282.24L1112.16-279.36C1111.20-278.40 1109.76-277.92 1109.28-276.96C1108.32-276.48 1107.84-275.04 1106.88-274.56C1105.92-274.56 1105.44-274.08 1104.48-274.08C1103.52-273.12 1103.04-271.68 1101.60-270.72C1101.60-271.20 1101.12-270.72 1101.12-270.72C1100.16-270.72 1100.16-269.76 1099.68-269.76C1099.20-269.76 1099.20-269.76 1099.20-269.28C1097.28-268.32 1095.84-266.88 1094.40-265.44L1089.12-260.64L1088.16-259.68L1083.36-255.84L1080-253.44C1078.56-252 1078.08-250.56 1077.12-249.60C1076.64-249.60 1075.68-249.60 1075.20-249.12C1074.72-248.64 1074.72-248.16 1074.24-248.16L1070.40-244.32C1070.40-243.84 1069.92-244.32 1069.92-244.32C1068.48-242.88 1067.52-240.48 1065.12-240L1063.68-237.12L1060.80-235.68C1060.32-234.24 1059.36-233.76 1058.40-232.80C1057.92-232.32 1056.96-231.84 1056.96-231.84L1056.96-230.88C1056.48-230.88 1056-230.88 1056-230.40L1053.12-228.48L1051.68-225.12L1045.92-219.84C1045.44-218.40 1044-217.44 1043.52-216C1042.56-215.04 1041.60-214.56 1040.64-214.08C1039.68-211.68 1038.24-210.72 1036.80-208.80C1036.80-208.32 1036.32-207.84 1035.84-207.36C1034.88-207.36 1035.36-206.40 1034.88-206.40C1033.92-204 1032-203.04 1031.04-200.64C1029.12-199.68 1028.64-197.76 1026.72-196.80C1026.72-195.84 1026.24-194.88 1026.24-193.44C1025.76-193.44 1025.76-192.96 1025.76-192.96C1025.28-192.48 1024.80-192.96 1024.32-192.48C1023.84-192 1023.84-191.52 1023.84-191.04L1022.88-190.56L1022.88-190.08C1022.88-189.60 1022.40-189.60 1022.40-189.60C1021.92-189.12 1021.92-188.64 1021.92-188.16C1021.92-187.68 1021.44-187.68 1021.44-187.68L1020.48-186.72L1020.48-185.28C1019.04-185.28 1019.52-183.36 1018.08-183.36C1017.60-182.40 1017.12-181.44 1017.12-180C1015.68-180 1015.20-178.56 1013.76-178.08C1013.76-177.12 1013.76-176.64 1013.28-175.68C1013.28-175.20 1012.32-175.20 1012.32-174.72L1012.32-174.24C1012.32-173.76 1011.84-173.76 1011.84-173.76C1011.36-173.28 1011.36-172.80 1011.36-172.32L1010.88-172.32C1010.88-171.84 1010.88-171.84 1010.40-171.36L1009.92-170.88C1009.44-170.40 1009.92-169.44 1008.96-169.44C1008.48-166.56 1006.56-165.12 1006.08-162.72C1005.12-162.24 1004.64-160.80 1003.20-160.32C1002.72-157.44 1000.80-155.52 999.36-153.12C998.88-150.24 996.48-148.80 996-145.44C994.56-144.48 994.08-141.60 992.64-140.64C992.64-137.76 990.72-137.28 990.72-134.88C989.76-134.40 989.28-133.44 988.80-132.96C988.80-132.48 988.32-132.48 988.32-132L988.32-131.04L987.36-130.08C987.36-129.60 986.88-129.12 986.40-128.64C985.92-127.20 985.92-124.80 984.48-124.32C984.96-121.92 983.04-120.96 983.04-119.04L981.60-117.60L979.20-114.24C978.72-113.28 978.72-111.84 978.72-110.40C976.32-108.48 976.32-103.68 973.92-101.76C974.40-98.88 972.96-97.44 972.48-95.52C972.48-94.08 971.04-94.56 971.52-93.12C970.08-92.16 970.08-90.24 968.64-88.80C968.16-84.96 966.72-82.56 966.24-79.20C965.28-78.24 964.80-76.32 963.84-75.84C964.32-72.48 962.40-72 962.88-68.64C961.44-68.16 961.44-66.24 960.96-65.28L959.04-56.64C958.56-55.68 958.56-54.72 958.08-54.72L958.08-53.76C958.08-52.32 957.60-51.36 957.60-50.40C957.12-49.92 957.12-49.44 957.12-48.96C957.12-48.48 956.64-48.48 956.64-48.48L955.68-44.16C955.68-43.20 955.20-42.72 955.20-42.24C954.72-41.28 954.72-40.32 954.72-39.84C954.72-38.88 954.72-38.40 954.24-37.44C953.76-35.04 953.76-33.12 952.80-31.20C952.80-25.44 951.84-20.16 951.84-14.40C951.84-13.44 952.80-12.96 952.32-11.52C952.32-10.08 951.36-9.60 951.36-7.68C951.36-1.44 952.32 4.32 952.32 10.56C953.28 11.52 953.28 12.96 953.76 13.92C953.76 15.36 954.24 16.80 954.24 17.76C954.72 20.16 955.68 22.56 955.68 25.44C956.64 25.92 956.64 26.88 957.12 27.84C957.12 28.32 957.60 29.28 957.60 29.76C957.60 30.24 958.08 30.72 958.56 31.20L959.04 31.68L959.04 32.16L960.48 34.56L960.96 35.04C961.44 35.52 961.44 36 961.44 36.96C961.44 36.96 961.92 37.44 962.40 37.44L963.84 39.36C964.80 40.32 965.28 41.76 965.76 43.20C967.68 44.64 969.12 46.56 970.08 48.96L972 49.92C973.44 49.44 972.96 51.36 973.92 51.36C974.40 52.80 976.80 52.80 977.28 54.24C978.24 54.72 979.68 55.20 980.16 55.20L980.64 55.20C981.12 55.20 981.12 55.68 981.60 56.16C982.56 56.16 983.52 57.12 983.52 57.12L984.48 57.12C984.48 57.12 984.96 57.60 985.44 57.60C985.44 58.08 985.92 57.60 986.40 57.60C986.40 58.08 986.88 58.56 987.36 58.56L990.72 59.52L991.20 60C992.16 60.48 993.12 60 993.60 60.96C997.44 60.48 1000.80 62.40 1004.64 61.44C1006.08 61.44 1007.04 61.92 1008.48 62.40C1009.92 61.44 1011.36 61.92 1013.28 61.92C1013.76 61.92 1013.76 61.44 1013.76 61.44C1015.68 61.44 1016.64 61.92 1018.08 61.44C1020 60.96 1021.92 60.48 1024.32 60.96C1025.76 60.48 1027.68 60 1029.60 60C1030.56 59.04 1032.48 59.52 1032.96 59.04L1036.32 57.60L1040.16 57.60C1041.12 57.12 1042.08 56.16 1043.52 55.68C1048.80 55.20 1053.60 54.24 1056.96 51.84C1058.88 51.36 1061.76 50.88 1062.72 49.92C1063.20 49.92 1063.20 49.44 1063.68 48.96L1064.64 48.96C1065.12 48.96 1065.12 48.48 1065.12 48.48L1066.08 48C1067.52 48.48 1067.52 47.52 1068.96 47.52C1069.44 47.04 1070.40 46.56 1070.88 46.56C1071.36 46.56 1070.88 46.08 1071.36 46.08C1072.32 45.60 1073.28 45.60 1074.72 45.60C1075.20 44.64 1076.16 44.16 1077.12 43.68C1077.60 42.72 1079.04 43.20 1079.52 43.20L1080.48 42.24C1080.96 42.24 1081.44 42.24 1081.92 41.76L1082.40 41.28L1083.36 41.28C1083.36 41.28 1083.36 40.80 1083.84 40.32L1084.80 40.32L1085.76 39.36L1089.60 38.40L1094.88 35.04C1095.84 34.56 1096.80 34.08 1097.76 34.08C1099.68 32.64 1101.60 31.20 1104.48 31.20C1105.44 29.76 1106.88 28.80 1108.32 28.32C1109.76 27.36 1111.20 26.88 1113.12 26.40C1113.12 25.92 1113.12 25.92 1113.60 25.92C1114.56 24.96 1115.04 24 1116.48 23.52C1117.92 23.04 1119.84 22.56 1120.80 21.12C1122.24 21.12 1122.24 20.64 1122.72 19.68C1124.16 19.68 1124.64 19.20 1126.08 19.20C1127.04 17.28 1129.44 16.32 1130.88 15.36C1134.72 14.40 1136.64 11.52 1140 10.56C1140.96 9.60 1140.96 8.64 1141.92 8.16L1144.80 6.72C1144.80 6.24 1145.76 6.24 1145.76 6.24C1146.24 5.76 1146.24 5.28 1147.20 5.28C1149.60 3.84 1152 1.44 1155.36 0.96C1156.32-0.48 1157.76-0.96 1158.72-1.92C1159.20-1.92 1159.68-2.88 1160.16-3.36L1162.08-4.80L1164.96-6.72C1166.40-7.20 1167.36-7.68 1168.32-9.12C1169.28-9.60 1171.20-9.60 1171.68-10.56C1172.64-11.52 1173.12-12.48 1175.04-12.48C1175.52-13.92 1176.96-14.40 1177.92-14.88C1178.40-16.32 1180.32-16.32 1180.80-17.28C1182.72-17.28 1182.72-19.20 1184.16-19.20C1185.12-20.16 1186.08-21.12 1187.04-21.60C1188-22.08 1189.44-23.04 1190.88-23.04C1191.84-24.48 1192.32-25.92 1193.76-26.40C1195.20-27.36 1196.64-28.80 1198.56-28.80C1200-30.72 1201.92-31.68 1203.84-33.12C1204.80-33.60 1205.76-34.08 1206.72-35.04C1207.20-36 1208.64-36 1210.08-36.48C1211.52-37.92 1212-39.36 1213.92-40.80C1214.40-41.28 1215.84-41.28 1216.80-41.76C1216.80-42.24 1217.76-42.24 1217.76-42.24L1218.72-43.68C1219.20-43.68 1219.68-43.68 1220.16-44.16C1220.64-44.16 1220.64-44.64 1221.12-44.64L1221.12-45.12C1222.08-45.60 1222.56-46.08 1223.04-46.08C1223.52-46.08 1223.52-46.56 1223.52-46.56C1224.48-47.04 1224.96-48 1226.40-48C1226.88-49.44 1227.84-49.92 1229.28-50.88C1230.24-51.36 1231.20-51.84 1232.16-51.84C1233.12-53.76 1235.04-54.24 1236.48-55.68C1237.92-56.64 1238.88-58.08 1241.28-58.56C1242.24-59.52 1242.24-60.96 1243.20-61.44C1244.16-61.44 1244.64-61.92 1246.08-61.92C1247.52-63.36 1248.96-64.80 1250.88-65.76C1252.32-67.68 1254.24-68.64 1256.16-70.08C1258.08-71.04 1260-72 1261.44-73.44C1262.40-74.40 1263.36-74.88 1264.32-75.36C1264.32-75.36 1264.32-75.84 1264.80-75.84C1265.76-75.84 1266.72-76.80 1267.20-76.80C1268.16-77.76 1269.12-79.20 1270.56-79.20C1270.56-80.16 1272-80.16 1272-81.12L1273.92-82.56C1274.88-82.56 1275.36-83.52 1276.32-83.52C1276.80-84.48 1277.28-85.44 1278.72-86.40C1279.68-86.40 1280.16-87.36 1281.12-87.84L1285.44-90.24C1285.92-90.72 1285.92-90.72 1285.92-91.20C1286.40-91.20 1287.36-91.20 1287.84-91.68C1288.32-92.16 1288.32-93.12 1289.76-93.12L1290.72-94.08C1292.16-95.52 1293.12-96 1294.56-96.96C1296.96-97.44 1297.92-99.84 1299.84-100.80C1300.80-100.80 1301.28-101.28 1301.76-101.28C1302.24-102.24 1302.72-102.24 1303.68-102.72L1305.12-104.16C1305.12-104.64 1305.60-104.64 1306.08-104.64C1306.56-104.64 1306.56-105.12 1307.04-105.60L1307.52-106.08C1308-106.56 1308.48-106.56 1308.96-106.56C1309.92-108 1311.84-108.48 1312.32-109.44C1313.76-110.40 1315.20-111.36 1316.64-111.84C1316.64-112.80 1317.60-112.80 1318.08-113.28L1318.08-114.24C1318.08-114.24 1319.04-113.76 1319.04-114.24L1319.52-114.72L1321.44-115.68C1321.44-115.68 1321.92-116.64 1322.40-116.64C1322.40-117.12 1323.36-116.64 1323.36-116.64L1323.84-117.60C1324.32-117.60 1324.80-117.60 1325.28-118.08C1326.24-119.04 1327.20-119.52 1328.16-120C1328.64-121.44 1329.60-121.92 1330.56-122.40C1332-122.88 1332.48-123.84 1333.92-123.84C1335.36-125.76 1337.28-126.72 1338.72-128.64C1340.16-128.64 1341.12-130.08 1342.56-130.08C1343.52-132 1345.44-133.44 1347.36-133.92C1347.84-135.84 1350.72-135.84 1352.16-137.28C1352.16-139.20 1353.60-140.64 1352.64-142.56C1351.20-143.04 1349.76-143.52 1348.32-142.56C1347.36-142.56 1347.36-141.60 1346.88-141.12C1345.92-141.12 1345.44-140.64 1344.96-140.16L1341.60-137.76C1340.16-137.28 1339.68-135.84 1338.72-135.36L1335.84-134.40C1335.84-133.44 1334.88-133.44 1334.40-133.44L1333.92-132.48L1333.44-132.48C1332.48-132.48 1332.96-130.56 1331.52-131.04L1329.60-129.60C1329.12-128.16 1327.20-128.16 1326.24-127.20C1325.76-127.20 1325.28-126.72 1324.80-126.24L1323.84-125.28C1323.36-125.28 1322.88-125.28 1322.88-124.80C1322.40-124.80 1322.40-124.32 1322.40-124.32C1321.92-123.84 1321.44-124.32 1321.44-123.84L1319.52-122.40C1319.52-122.40 1319.04-122.40 1319.04-121.92C1318.08-121.44 1317.60-120 1316.16-120C1316.16-119.52 1315.68-119.52 1315.20-119.52C1315.20-119.04 1314.72-118.56 1314.24-118.08C1313.28-118.56 1312.80-117.12 1312.32-116.64C1311.36-116.16 1310.88-116.16 1310.40-116.16C1309.92-116.16 1309.92-115.20 1309.92-115.20L1308.96-115.20L1308.96-114.24C1308-113.76 1307.52-114.24 1307.04-113.76C1306.56-113.76 1306.56-113.28 1306.56-112.80C1306.08-112.80 1305.60-112.32 1305.60-112.32C1303.68-111.36 1302.72-109.92 1300.32-109.44C1299.36-107.52 1296.48-106.56 1295.04-105.12L1295.04-103.68C1294.56-103.68 1293.60-103.68 1293.60-103.20C1290.24-102.72 1288.32-101.28 1286.40-98.88L1284.48-97.92C1284-97.92 1283.52-96.96 1283.04-96.96C1282.08-96.96 1281.60-96 1281.60-95.52C1281.12-95.52 1280.64-95.52 1280.64-95.04C1280.16-95.04 1280.16-94.56 1279.68-94.56C1279.20-94.56 1277.76-93.60 1277.28-93.12C1276.32-92.64 1275.84-91.20 1274.88-90.72C1273.92-89.76 1272-89.76 1271.52-88.32C1270.56-87.36 1269.12-86.88 1267.20-86.40C1266.24-84.48 1264.80-83.04 1262.40-82.56C1261.92-82.08 1261.44-80.64 1260.48-80.16C1257.60-79.68 1257.12-77.28 1254.24-76.80C1252.80-75.36 1250.88-73.92 1248.96-72.96C1247.52-71.04 1245.12-70.56 1243.68-68.64L1240.80-67.20L1239.36-65.76L1238.40-65.76C1237.92-65.28 1237.92-64.80 1236.96-64.80C1236-64.80 1236-63.36 1235.04-63.36C1234.56-62.40 1233.12-61.92 1232.16-61.44C1230.24-60.48 1228.80-58.56 1226.40-57.60C1225.44-57.12 1224.48-56.64 1224-55.68C1223.52-55.68 1223.04-55.20 1222.56-54.72C1222.56-53.76 1221.12-54.72 1221.12-53.76C1220.16-53.76 1219.68-52.80 1219.20-52.80L1219.20-52.32C1218.72-52.32 1218.24-52.32 1217.76-51.84L1216.32-49.92C1216.32-49.92 1215.36-49.92 1215.36-49.44L1210.56-47.52C1208.16-45.60 1206.72-43.20 1203.36-42.24L1200-38.88C1194.72-36.48 1190.88-32.64 1185.12-30.72L1180.80-26.40C1179.84-26.40 1179.36-25.92 1177.92-25.92C1176.96-24.48 1175.52-24 1174.08-23.04C1172.64-22.08 1171.68-20.64 1169.76-20.16L1164.96-17.76C1164-16.80 1162.56-15.84 1160.64-15.36L1155.84-11.04C1153.92-11.04 1153.44-9.60 1152-8.64L1149.12-7.68C1148.16-6.24 1146.24-5.76 1145.28-4.80C1143.36-4.32 1141.92-3.36 1140.48-1.92C1139.04-1.44 1137.60-0.48 1136.16 0.48C1135.68 1.44 1134.72 1.44 1134.24 1.92C1133.76 2.40 1133.28 2.40 1133.28 3.36C1132.80 3.36 1132.80 3.36 1132.32 3.84C1130.88 3.84 1129.92 4.32 1128.48 4.80L1126.08 6.24C1125.60 6.72 1125.12 7.20 1124.64 7.20L1122.24 9.12L1118.40 11.04C1116.96 11.52 1116 12.48 1114.56 13.44C1112.64 12.96 1112.64 14.88 1110.72 15.36C1109.28 15.36 1108.80 17.28 1107.36 17.76C1106.40 17.76 1105.92 18.72 1104.48 18.72L1103.04 19.68C1102.56 20.64 1101.12 20.16 1101.12 21.12C1100.16 21.12 1099.20 21.12 1099.20 22.08C1097.76 21.60 1097.28 22.08 1096.32 22.56L1095.84 23.04C1095.36 23.04 1094.88 23.52 1094.40 24L1093.92 24.48L1092.48 25.44C1092 25.92 1091.52 26.40 1091.04 26.40C1088.16 26.88 1086.72 28.32 1084.80 29.76L1082.40 29.76C1081.44 31.68 1079.04 32.16 1077.12 33.12C1076.16 33.12 1075.68 34.08 1074.72 33.60C1073.28 35.04 1070.88 35.52 1069.44 36.96C1068 36.48 1067.04 36.96 1066.56 36.96C1065.12 37.92 1064.16 38.88 1062.72 39.36L1057.44 40.80C1056.96 41.28 1056 41.76 1056 41.76L1055.52 41.76L1052.64 42.72C1052.16 43.20 1051.68 43.68 1051.20 43.68L1049.76 43.68C1049.28 44.16 1048.80 44.16 1048.80 44.16C1048.32 44.16 1047.84 44.64 1047.84 44.64C1045.92 45.12 1044 46.08 1041.60 45.60C1041.12 46.56 1039.68 47.04 1038.24 47.52C1037.28 47.52 1035.84 47.52 1034.88 48C1034.40 48.96 1032.96 48.96 1032 48.96C1031.04 49.44 1029.60 49.44 1028.16 49.44C1027.68 49.92 1026.24 49.92 1025.76 50.40L1024.32 49.92C1023.84 49.92 1023.84 50.40 1023.84 50.40L1022.40 50.40C1021.92 50.40 1021.92 50.88 1021.92 50.88C1021.44 50.88 1020.48 50.40 1020 50.88C1017.60 50.88 1016.64 51.84 1014.24 51.36C1012.80 51.36 1012.80 52.32 1010.88 52.32C1007.52 51.84 1004.16 51.36 1001.28 51.84C999.36 51.84 999.36 50.40 997.92 50.40C996.96 50.88 996 50.40 994.56 50.88C994.08 49.92 993.12 49.92 992.16 49.44L989.28 48.48L986.40 47.52C985.44 47.52 984.96 46.56 983.52 47.04L982.08 46.08C982.08 46.08 981.60 45.12 981.12 45.12C980.64 44.64 980.16 45.12 979.68 44.64C979.20 44.64 979.20 43.68 978.72 43.68C978.24 43.68 978.24 43.20 977.76 43.20C976.80 43.20 976.80 41.76 976.32 41.76C975.84 41.28 975.84 41.76 975.36 41.76C975.36 41.28 975.36 40.80 974.88 40.80C974.40 40.80 974.40 39.84 973.92 39.84C972.96 38.40 971.04 38.88 970.56 37.44C970.08 35.52 968.64 35.04 968.64 33.12L967.68 31.68C966.72 31.68 966.24 30.72 966.24 30.24C966.24 26.40 963.36 25.44 962.88 22.56C962.88 21.60 961.92 21.12 962.40 20.16C962.40 19.20 961.92 18.24 961.44 17.76C961.92 15.84 960.96 14.40 960.96 12.48C960.48 11.52 960.96 11.04 960.96 10.56C960.48 10.08 960.96 10.08 960.96 9.60C960.48 8.64 960 7.68 960 6.72C959.52 4.80 960.48 4.80 960.48 3.36C958.56-2.40 960.96-8.64 960.48-14.88L961.44-18.72L961.44-22.56C962.40-24.48 962.88-26.88 962.88-29.76C963.36-31.20 963.84-32.16 963.84-34.56C963.84-36.48 965.28-37.44 964.80-39.84C965.76-41.28 965.76-42.72 966.24-44.16C966.24-45.60 967.20-48 967.20-49.92L969.12-53.76L969.12-58.08C969.60-58.56 969.60-59.04 969.60-60C970.56-60.48 970.56-61.44 971.04-62.40C972-63.36 972-65.76 973.44-66.72C973.44-71.04 974.88-73.44 975.84-77.28C976.80-78.24 977.28-80.16 977.76-81.60L980.16-86.40C979.68-88.32 981.12-89.28 981.60-91.20C982.08-91.20 981.60-93.12 982.56-93.12C982.56-94.56 983.52-94.56 983.52-95.52C984.96-96.96 984.48-99.36 985.92-100.32C986.40-101.76 987.36-103.20 988.32-104.64C988.80-106.56 989.28-108 990.24-109.92C990.72-111.84 991.20-113.76 992.64-114.72C993.12-116.16 992.64-116.16 993.12-116.64L994.08-117.12L994.08-118.08L994.56-118.08C995.04-118.56 994.56-119.52 995.52-119.52L997.44-124.80C998.40-125.76 998.88-126.72 999.36-128.64C999.84-129.12 1000.80-129.60 1000.80-130.08C1000.80-130.56 1000.80-130.56 1001.28-130.56L1001.28-132L1001.76-132L1001.76-132.96L1002.24-132.96L1002.72-133.92C1003.68-135.84 1004.16-137.76 1004.64-139.20C1006.08-141.12 1008-142.08 1008.48-144.96C1009.92-145.92 1009.92-147.84 1011.84-148.32C1011.36-149.76 1011.84-150.72 1012.32-151.20C1014.24-153.12 1015.68-155.04 1016.16-157.92C1017.12-158.88 1018.56-158.88 1019.04-160.32C1019.52-160.32 1019.04-161.28 1019.04-161.76C1020-161.76 1019.52-162.72 1019.52-163.20C1019.52-163.20 1020.48-163.20 1020.48-163.68L1020.48-164.16C1020.48-164.64 1020.96-164.64 1020.96-165.12C1021.44-165.60 1021.44-165.60 1021.44-166.56L1025.28-169.44C1025.28-170.40 1025.76-170.88 1025.76-171.36C1026.24-171.84 1026.72-171.84 1026.72-172.32C1026.72-173.28 1027.68-173.28 1027.68-173.76L1027.68-174.24C1028.64-174.72 1029.12-176.16 1029.60-176.64C1030.08-177.60 1030.08-178.08 1030.08-179.04C1032.96-180 1032.96-183.36 1035.36-184.80L1037.76-188.16C1037.76-189.60 1039.20-190.56 1039.68-191.52C1041.12-193.92 1043.52-195.84 1045.44-197.76C1045.92-198.72 1045.92-199.68 1046.88-200.16C1048.80-203.52 1052.64-205.44 1054.08-209.28L1056.96-211.20C1057.44-213.12 1058.40-213.60 1059.36-215.04C1061.76-216.96 1063.68-219.36 1065.60-221.76C1066.08-223.68 1068-224.16 1068.96-225.12C1069.44-225.60 1068.96-226.08 1069.44-226.56L1070.40-227.04C1070.88-227.52 1070.88-228 1070.88-228.48L1071.36-228.48C1071.36-228.96 1071.36-229.44 1071.84-229.44L1075.20-231.84C1075.68-232.32 1077.12-233.76 1077.12-234.24C1077.12-234.72 1077.60-234.72 1077.60-234.72C1079.04-236.64 1080.96-238.08 1082.40-240.48C1083.84-240.96 1084.80-241.44 1085.76-242.40C1087.20-243.36 1087.68-244.80 1089.12-246.24C1090.08-247.20 1091.52-248.16 1092.48-249.60L1095.36-251.52C1095.84-251.52 1095.84-252.96 1096.32-252.96L1097.76-253.92L1099.68-255.84C1099.68-256.32 1100.16-256.32 1100.16-256.80C1101.60-257.28 1101.60-258.72 1103.04-259.20L1105.44-261.12L1106.40-261.12C1106.40-261.12 1106.40-261.60 1106.88-262.08C1106.88-262.08 1107.36-261.60 1107.36-262.08C1107.84-262.08 1107.84-262.56 1108.32-263.04C1108.32-263.52 1108.80-263.52 1109.28-264L1110.72-265.92C1111.20-266.40 1111.68-266.40 1112.16-266.40L1112.64-266.88C1113.12-266.88 1113.12-266.88 1113.60-267.36C1114.56-268.32 1115.52-270.24 1117.44-271.20C1119.36-272.16 1120.80-274.56 1123.68-274.56C1125.12-276.96 1127.52-277.92 1129.44-279.84C1130.40-280.32 1130.40-281.28 1130.40-281.28C1130.40-281.76 1131.36-281.28 1131.36-281.76C1132.80-282.24 1133.76-283.20 1135.68-283.68L1140.96-288C1142.88-288.48 1143.36-289.92 1145.28-290.40L1149.12-293.28C1151.04-293.76 1151.52-295.20 1152.96-296.16C1154.88-295.68 1155.36-296.64 1156.32-297.12C1158.72-299.04 1161.60-300.48 1164.96-301.92C1165.92-302.88 1166.88-304.32 1168.32-304.80C1170.24-305.28 1171.20-306.24 1173.12-306.24C1173.60-306.72 1174.08-307.68 1174.56-307.68L1175.04-307.68L1176.96-309.12C1178.88-309.60 1180.32-310.56 1181.76-311.52C1183.68-311.52 1184.64-312.48 1186.08-312.96C1187.52-312.96 1187.52-314.40 1189.44-314.88C1192.80-315.84 1195.20-317.76 1198.08-319.20C1201.44-319.68 1204.32-320.64 1206.24-322.08C1207.20-322.56 1207.68-323.52 1209.12-323.52L1215.36-324.96C1216.32-325.92 1217.76-326.40 1219.20-326.88C1223.04-327.36 1224.48-329.76 1228.80-329.28C1229.76-330.24 1230.72-330.72 1232.16-330.72C1233.12-331.68 1234.56-332.16 1235.52-332.16C1237.92-332.16 1239.36-333.12 1241.76-332.64C1241.76-333.12 1243.20-333.60 1243.20-333.60L1243.68-333.60L1243.68-334.08L1246.08-334.08C1246.56-334.08 1246.56-334.56 1246.56-334.56C1247.52-335.04 1248.48-335.04 1249.44-335.04C1252.32-335.52 1255.68-336.48 1259.04-336C1260-336.48 1260.96-337.44 1262.40-337.44C1266.72-337.44 1270.56-336.96 1274.88-337.44C1275.36-336.48 1276.32-336.96 1277.28-336.48L1277.76-336C1278.24-335.52 1278.72-335.52 1279.20-335.52C1280.64-335.04 1282.08-335.04 1283.52-335.04C1284.48-333.60 1286.40-333.60 1287.36-332.64C1288.80-332.16 1289.76-330.72 1291.20-330.72C1292.64-328.80 1294.56-327.84 1295.52-325.92C1296.96-323.52 1297.92-320.64 1298.88-317.76C1298.40-315.36 1299.36-314.40 1299.84-312.96C1299.84-309.60 1299.36-307.68 1299.84-304.80C1299.36-303.36 1298.88-301.92 1298.88-300C1298.40-299.52 1298.40-297.60 1297.44-297.12C1297.44-295.68 1296.96-295.20 1296.96-293.28L1296-291.36C1295.52-290.40 1295.52-289.44 1295.52-288.48C1294.56-287.52 1294.56-286.08 1293.60-285.60C1294.08-283.68 1293.12-282.72 1292.64-281.28L1291.20-277.44C1289.76-275.04 1288.80-272.64 1287.84-269.28C1286.88-268.32 1286.40-266.88 1285.44-265.44L1284.48-262.56C1284-262.08 1283.52-261.12 1282.56-260.64C1282.08-259.20 1280.64-257.76 1280.16-255.84L1278.24-253.44L1277.28-249.60L1275.84-248.16C1274.88-247.68 1274.88-246.72 1274.40-246.24C1273.92-245.28 1273.44-244.80 1273.44-243.84C1272-243.84 1272-242.40 1271.04-242.40C1271.04-240.96 1270.56-240.48 1270.08-239.04C1269.12-238.56 1268.64-236.64 1267.20-235.68C1266.72-233.28 1264.80-231.84 1263.84-229.44C1262.88-228.48 1262.88-227.52 1261.92-226.56L1261.44-226.56C1261.44-226.56 1261.92-225.60 1261.44-225.60C1260.96-224.64 1260-224.64 1259.52-223.68C1259.52-222.24 1258.56-221.28 1258.08-219.84C1256.16-218.88 1255.68-216.48 1253.76-215.52C1253.76-214.08 1252.80-214.08 1252.80-212.64C1252.32-211.68 1250.88-210.72 1250.40-210.24C1249.92-209.76 1250.40-209.28 1249.92-208.80C1249.92-208.32 1249.44-208.32 1248.96-207.84C1248.96-207.36 1248.96-207.36 1248.48-206.88L1245.60-203.04C1245.12-203.04 1244.64-202.56 1244.64-202.08L1244.64-201.60C1244.64-201.60 1244.16-201.12 1243.68-201.12L1243.68-200.16L1242.24-199.20L1242.24-198.24L1240.80-197.28C1240.80-195.84 1239.36-195.36 1239.36-193.44L1236.48-191.52C1236-190.56 1236-190.08 1235.04-189.60C1235.04-188.64 1233.60-188.64 1233.60-187.68C1233.12-187.68 1233.60-186.24 1233.12-185.28C1231.68-183.84 1230.72-181.92 1229.76-179.52C1227.84-179.04 1226.88-176.64 1225.44-174.72C1224-173.28 1222.56-171.36 1220.64-169.92L1219.20-166.56C1218.24-166.08 1217.76-165.12 1217.28-163.68C1215.84-162.24 1214.88-160.32 1212.96-159.36C1212.48-156.96 1210.56-156.48 1210.56-154.56C1208.64-153.60 1208.16-152.16 1206.72-151.20C1206.24-149.28 1204.80-148.80 1204.32-146.40C1202.88-146.40 1202.40-145.44 1201.44-144.96C1200.48-142.56 1198.56-140.64 1196.64-139.20C1196.16-137.76 1195.20-136.32 1193.76-135.36L1191.36-132C1190.88-132 1191.36-131.52 1191.36-131.52L1189.44-130.08L1187.52-127.68C1186.56-126.72 1184.64-125.76 1184.64-124.80C1184.64-124.32 1183.68-124.32 1183.68-123.84L1183.68-123.36L1182.72-122.40C1182.72-121.92 1182.24-121.92 1182.24-121.44C1181.76-121.44 1182.24-120.96 1182.24-120.96C1181.76-120.48 1181.28-120.48 1181.28-120.48C1181.28-120 1181.28-119.52 1180.80-119.52L1179.36-118.08C1179.36-118.08 1179.36-117.60 1178.88-117.60C1178.88-117.12 1178.40-117.60 1177.92-117.12L1172.64-111.36C1172.64-111.36 1172.64-110.88 1172.16-110.88C1172.16-110.40 1171.68-110.40 1171.20-110.40L1170.24-109.44C1170.24-109.44 1169.76-109.44 1169.76-108.96C1169.28-108.48 1168.80-107.52 1167.36-107.52C1165.92-108 1165.92-112.32 1167.36-112.80C1167.36-113.76 1168.32-115.68 1168.32-116.16C1168.32-116.64 1168.80-116.64 1168.80-116.64C1169.28-117.12 1168.80-117.60 1169.28-118.08C1169.28-118.56 1169.76-118.56 1170.24-119.04C1170.24-119.52 1169.76-120 1170.72-119.52L1172.16-121.44C1172.16-122.88 1172.64-122.88 1172.64-124.32C1174.08-124.80 1174.56-126.24 1175.52-127.68C1176-129.12 1176.48-130.56 1177.92-131.52C1179.36-134.40 1180.80-136.80 1183.20-138.72C1183.20-139.68 1184.16-140.16 1184.16-141.60C1184.64-141.60 1184.64-142.56 1185.12-142.56L1186.56-144C1187.04-144.96 1187.52-145.92 1188.48-146.88C1189.44-147.36 1190.40-148.32 1190.88-149.76C1190.88-150.72 1192.32-151.20 1192.80-152.16C1193.76-153.12 1194.24-154.08 1194.72-155.04C1195.20-156 1196.16-156.48 1196.16-156.48C1196.16-156.96 1196.16-156.96 1196.64-156.96C1198.08-159.36 1200.48-160.80 1201.44-163.68C1202.40-164.16 1203.84-166.08 1204.80-166.56C1205.28-167.04 1205.76-167.04 1205.76-167.52C1205.76-168 1206.24-168 1206.24-168L1207.68-170.40C1208.16-170.40 1208.64-170.40 1208.64-170.88C1210.08-171.36 1210.08-173.28 1211.04-174.24C1212-174.24 1212.48-174.72 1212.48-175.20L1213.44-175.20C1213.44-175.68 1213.44-176.16 1213.92-176.16C1214.88-177.12 1215.36-177.60 1216.80-178.08L1220.16-182.40C1222.08-182.88 1222.56-185.28 1224.48-186.24L1228.32-188.16C1229.28-189.12 1231.20-188.64 1232.16-189.60C1232.64-192 1233.60-195.84 1232.64-198.72C1232.16-199.68 1230.72-199.68 1230.24-200.64C1226.40-200.64 1224.48-199.20 1221.60-197.76C1220.64-196.32 1219.68-195.36 1218.24-194.40C1217.76-193.44 1216.80-192.96 1215.84-192.48L1215.84-191.52C1215.36-191.04 1214.88-191.52 1214.88-191.52C1214.40-191.04 1214.40-190.56 1213.44-190.56C1212.48-188.64 1211.52-186.72 1209.12-186.24C1208.64-183.84 1206.72-182.88 1205.76-180.96C1204.80-180.96 1204.80-180 1203.36-180C1202.88-178.08 1201.44-176.64 1199.52-175.68C1199.04-173.28 1196.64-172.32 1196.16-169.92C1195.20-168.96 1193.28-168.48 1193.28-167.52C1193.28-167.04 1193.28-167.52 1192.80-167.04C1192.80-166.56 1191.36-165.12 1191.36-165.12L1191.36-164.64C1189.92-162.72 1188.48-161.76 1187.04-160.32C1186.56-159.36 1185.60-158.40 1185.12-156.96C1184.64-156.96 1184.16-156 1183.68-155.52C1183.20-155.04 1181.76-155.04 1182.24-154.08C1180.80-153.60 1180.80-152.16 1180.80-151.20L1179.84-151.20L1179.84-150.24C1179.84-150.24 1179.36-150.24 1178.88-149.76C1177.92-148.32 1177.44-146.88 1175.52-145.92C1175.04-144.96 1174.56-143.52 1173.60-143.04L1172.16-140.16C1171.20-139.68 1171.20-138.72 1170.24-137.76L1168.80-135.36C1168.32-134.40 1167.36-134.40 1166.88-132.96C1165.92-132 1165.44-130.08 1164.96-128.64C1164-128.16 1163.04-127.68 1162.08-126.72C1161.60-124.32 1160.64-122.88 1159.68-121.44L1158.72-119.52C1158.24-118.56 1157.76-118.08 1157.76-117.60C1156.80-116.16 1156.32-114.72 1155.36-113.76C1154.88-111.36 1153.44-109.92 1153.44-107.52C1152.96-106.56 1152-105.60 1152-104.64C1152-102.72 1151.04-100.32 1150.56-98.40C1150.56-96 1151.04-94.08 1151.52-91.68ZM1362.24-94.56C1360.80-95.52 1358.40-96 1357.92-95.52L1356.96-95.52C1356.96-95.52 1356.48-94.56 1356-95.04C1355.04-93.60 1354.56-92.16 1353.12-91.68C1352.64-91.20 1353.12-90.72 1352.64-90.72C1352.64-90.24 1352.16-90.24 1352.16-89.76C1352.16-89.28 1351.68-89.28 1351.68-89.28L1351.68-86.88C1351.20-86.88 1351.20-87.36 1351.20-86.88C1350.72-86.88 1351.20-86.40 1351.20-86.40C1350.72-85.92 1350.24-85.92 1350.24-85.44C1349.76-84.96 1349.76-84.48 1349.76-83.52C1349.76-82.56 1350.24-82.08 1350.72-80.64C1352.16-80.16 1354.56-80.16 1355.52-80.64L1359.36-85.44C1359.84-85.92 1360.80-86.40 1361.28-87.36C1361.28-87.84 1361.76-88.32 1362.24-88.80C1362.72-89.28 1362.24-89.76 1362.24-89.76L1362.72-89.76L1362.72-90.72C1362.72-91.68 1362.24-93.12 1362.24-94.56Z" fill="#000000"/>
  </g>
</svg>