<svg width="947" height="384" viewBox="0 0 947 384" xmlns="http://www.w3.org/2000/svg">
  <g transform="translate(13.63763905380392, 249.60000000000002)">
    <path d="M167.52 21.12C242.40 21.12 359.52-133.44 356.64-218.40C354.72-266.88 315.36-284.16 267.84-284.16C236.64-284.16 202.08-276.48 172.32-265.44C37.44-213.60-72-46.08 53.76-46.08C62.40-46.08 72-47.04 83.04-48.48C107.52-52.32 115.68-54.72 118.08-54.72C119.04-54.72 118.56-53.76 118.08-51.84C111.36-13.92 123.36 15.84 160.80 20.64C162.72 21.12 165.12 21.12 167.52 21.12ZM134.88 4.32C115.68-13.92 123.36-54.72 124.32-55.68C126.24-57.60 157.92-62.40 182.40-62.40C198.72-62.40 211.68-60 210.72-53.76C210.72-51.36 211.68-49.92 212.64-49.92C214.56-49.92 216.48-52.32 216-56.16C215.52-61.44 210.24-64.32 198.72-66.24C194.88-66.72 183.36-67.20 172.80-67.20C166.56-67.20 160.80-67.20 157.44-66.72C136.32-64.32 129.12-61.44 126.72-61.44C125.76-61.44 125.76-61.92 125.76-63.36C126.24-67.20 130.08-78.72 132-84C166.56-93.12 225.60-135.36 248.16-180.48C262.08-208.80 256.32-226.56 240-226.56C225.12-226.56 202.08-212.64 176.64-179.04C144.48-136.80 129.12-89.28 127.20-88.32C125.28-87.36 122.40-87.36 119.52-87.36C109.44-87.36 96.96-91.20 93.12-95.04C92.16-96 91.20-96.48 90.72-96.48C90.24-96.48 89.76-96.48 89.28-96C86.88-94.08 88.80-90.24 94.08-87.84C104.64-83.04 113.28-82.56 124.32-82.56C125.28-82.56 125.76-82.56 125.76-82.08C123.36-76.32 120-60.48 119.52-60.48C119.52-60 79.20-51.36 52.32-51.36C47.52-51.36 43.20-51.84 39.36-52.32C-17.28-61.92 0.96-111.36 35.52-156.96C96.96-238.08 196.80-278.88 266.88-278.88C279.84-278.88 291.36-277.44 301.92-275.04C340.80-264.96 359.52-240 348.48-188.64C330.72-106.56 231.84 16.32 165.60 16.32C154.08 16.32 143.52 12.48 134.88 4.32ZM245.28-187.20C228.48-147.36 175.68-104.64 133.92-89.76C167.52-177.60 217.92-221.28 240-221.28C251.04-221.28 254.88-210.24 245.28-187.20ZM350.40-138.72C350.88-138.24 351.36-138.24 351.84-138.24C352.80-138.24 353.76-139.20 354.72-140.64C356.16-142.56 362.40-151.68 362.88-152.16C362.88-152.16 371.52-150.72 372-150.72C372.96-149.28 356.16-129.60 365.28-122.88C366.24-121.92 367.68-121.92 368.64-121.92C375.84-121.92 384-132.96 388.32-138.72C390.24-141.60 390.24-143.52 386.40-144C382.08-138.72 372.96-126.24 369.12-127.20C362.40-128.16 378.72-147.36 376.80-152.64C375.84-156.96 367.20-156 366.24-156.96C366.24-157.44 370.08-163.68 374.88-171.84C385.92-190.56 387.84-194.88 385.44-197.76C384.48-198.72 384-198.72 382.56-198.72C374.88-198.72 356.16-175.20 354.24-168C352.80-161.76 354.72-158.88 358.56-154.56C352.32-144.96 347.04-141.12 350.40-138.72ZM380.16-192.48C381.12-191.52 361.44-159.36 361.44-159.36C360.96-158.88 359.52-161.28 359.04-162.72C356.16-171.84 379.68-192.96 380.16-192.48ZM380.64-120.96C381.60-120 382.08-120 383.04-120C384.48-120 386.40-121.92 390.24-127.20C392.16-130.56 394.08-132.96 394.56-132.96C394.56-133.44 396.00-131.52 397.44-129.12C401.28-123.84 405.12-121.92 409.44-121.92C415.68-121.92 422.88-126.72 430.56-132.48C435.84-136.80 443.04-141.60 436.80-144C432.00-140.16 419.52-130.56 414.72-128.64C411.84-127.68 410.88-127.20 407.52-127.20C406.08-127.68 402.72-130.08 401.76-132.48C401.28-133.44 401.28-133.44 402.72-132.96C411.36-132.96 423.84-143.04 423.84-152.16C423.84-156 422.40-156.96 420.00-156.96C415.20-156.96 406.08-151.20 400.80-146.40C391.68-138.72 386.88-131.52 386.40-131.52C385.92-131.52 386.40-132.96 388.32-136.80C390.72-142.08 390.72-142.08 396.96-148.32C440.16-192.48 481.92-260.64 473.76-268.80C473.28-269.76 472.32-270.24 471.36-270.24C456.96-270.24 414.24-198.24 408.00-185.76C382.08-137.28 375.84-124.80 380.64-120.96ZM399.36-159.36C410.88-180.48 436.80-233.28 465.60-260.64C467.52-262.56 469.44-264 469.92-264C469.92-263.52 467.04-255.36 464.16-249.12C444.96-207.84 396.00-153.12 399.36-159.36ZM400.32-138.72C400.32-139.68 405.12-144 408.48-145.92C412.32-148.80 418.56-152.16 418.56-151.68C419.52-149.76 410.88-138.24 404.64-138.24C401.76-138.24 400.32-138.72 400.32-138.72ZM448.80-137.28C443.04-131.52 437.28-126.24 436.80-126.24C434.40-124.80 437.28-136.32 444-146.40C446.88-150.24 446.40-152.16 443.04-152.16C439.68-152.16 425.28-125.28 433.44-120.96C434.40-120.48 434.88-120 435.84-120C438.24-120 441.12-122.88 449.28-131.04C455.04-136.80 457.44-138.72 457.92-138.72C458.88-138.72 455.04-132.48 457.92-127.20C459.36-124.80 461.76-123.36 464.16-123.36C465.60-123.36 467.52-123.36 468.96-124.32C470.40-125.28 478.08-132 484.32-138.24C487.20-140.64 487.20-143.04 483.84-144C478.08-139.20 468-128.16 463.68-128.16C462.72-128.16 461.76-129.12 461.76-131.52C461.76-138.24 468.96-146.40 465.60-148.80C465.12-149.28 464.64-149.76 463.68-149.76C461.76-149.76 458.40-146.88 448.80-137.28ZM523.20-129.12C525.12-129.12 527.04-129.60 528.96-130.56C533.76-132.48 540-138.72 541.44-139.68C542.88-141.12 543.36-143.52 539.52-144C530.88-137.28 528-134.40 523.20-134.40C511.20-134.88 521.76-153.12 515.04-156.48L514.08-156.48C506.40-156.48 488.64-138.24 486.72-138.24C486.24-138.24 489.60-144 491.04-146.40C492.00-147.84 491.52-150.24 489.12-150.24C488.16-150.24 487.68-150.24 486.24-148.32C483.84-144.96 475.68-130.56 483.36-130.56C487.20-130.56 506.88-149.28 512.16-151.20C514.08-151.68 510.24-143.04 513.12-135.84C515.52-131.52 518.88-129.12 523.20-129.12ZM800.64-267.84C808.80-270.24 818.88-271.68 828-271.68C835.20-271.68 841.92-270.72 847.20-268.80C870.72-259.68 868.80-240.48 859.68-217.92C852.48-212.16 826.56-193.92 823.20-182.88C822.24-179.52 823.20-176.64 826.56-176.64C830.40-176.64 836.64-180 845.76-189.12C863.52-206.88 859.20-211.68 867.84-216.96C874.56-220.80 880.32-223.20 882.72-223.20C885.12-223.20 886.56-225.60 884.64-227.52C884.16-228 883.68-228 882.72-228C878.40-228 870.24-223.68 867.36-222.24C872.16-238.56 874.56-256.32 860.16-267.84C851.52-274.08 840.96-276.96 827.52-276.96C821.28-276.96 814.56-276.48 807.36-275.04C709.92-255.36 617.76-117.60 615.84-51.36C614.88-14.88 638.88 13.44 682.08 13.44C723.36 13.44 782.40-12 854.88-80.16C865.44-90.24 885.12-109.44 889.44-114.24C891.36-116.64 895.20-120.48 891.84-121.92C891.36-121.92 891.36-122.40 890.88-122.40C889.92-122.40 888.48-120.96 884.16-116.16C833.28-60.96 744.48 8.64 681.60 8.64C661.92 8.64 644.64 1.92 632.16-13.92C584.64-72.96 703.20-241.92 800.64-267.84ZM828.96-183.36C832.80-191.04 852.96-206.88 853.44-206.40C853.44-206.40 852-204.48 850.08-202.08C841.44-190.08 826.56-179.04 828.96-183.36ZM912.48-119.04C914.88-118.08 919.20-121.44 920.16-125.28C921.60-129.12 919.68-131.52 916.32-131.52L914.88-131.52C909.12-129.60 906.24-121.44 912.48-119.04Z" fill="#000000"/>
  </g>
</svg>