<svg width="1149" height="504" viewBox="0 0 1149 504" xmlns="http://www.w3.org/2000/svg">
  <g transform="translate(16.72055316376608, 327.6)">
    <path d="M250.56-328.80C182.40-380.64-7.20-244.32 25.44-117.60C11.04-96.96-26.88-3.36 12.96 15.36C48.96 32.16 140.64-44.64 204.48-132C261.12-209.28 295.68-294.72 250.56-328.80ZM196.32-141.12C169.44-104.16 49.92 26.88 18.72 4.80C-4.80-11.52 18.72-81.60 33.60-103.20C36.48-97.44 73.92-64.80 83.52-88.80C86.88-96.96 54.24-96 44.16-115.68C57.12-152.64 140.16-255.36 173.76-262.08C204-268.32 159.36-319.20 38.40-131.52C0.96-219.36 177.12-376.80 244.80-320.64C272.64-297.12 259.20-227.04 196.32-141.12ZM304.32-39.84C302.40-41.76 299.52-42.24 297.60-40.32L292.32-36.48C272.64-19.68 231.36 12.48 205.44 7.68C201.12 7.20 198.72 4.80 199.68 0C200.64-9.60 206.88-17.28 212.64-25.44C216-29.76 217.92-32.64 216.48-36.48C215.52-38.88 212.16-41.76 206.40-45.60C213.60-65.28 229.92-77.76 223.20-83.04C216-89.76 202.08-63.84 193.92-56.16C191.04-53.28 185.76-48.96 179.52-43.20C176.64-40.80 173.76-38.40 170.88-36.48C167.04-33.12 162.72-29.76 158.88-26.40C155.52-23.52 160.80-16.80 166.08-21.12L172.80-26.40C177.12-29.76 181.44-33.12 185.28-36.48C190.08-39.84 193.92-42.72 196.32-44.16C196.80-38.40 198.24-37.92 200.16-36.48C201.12-35.52 202.08-34.08 203.52-31.68C193.44-18.72 188.64-8.16 187.68 0C186.72 7.20 189.12 12.48 193.92 15.36C210.72 26.40 249.60 6.72 264.96-3.84C278.88-13.44 294.24-25.92 305.28-34.56C306.72-36 305.76-38.40 304.32-39.84ZM460.32-39.84C458.88-41.76 456-42.24 453.60-40.32L448.80-36.48C408.96-3.36 358.08 30.72 312-11.04C325.92-12 365.28-30.24 357.12-43.20C348.96-56.64 310.56-26.40 300.48-23.52C307.20-32.64 307.68-35.04 316.32-44.16C350.40-67.20 366.24-81.12 381.12-94.08C459.84-166.56 438.72-198.24 408-175.68C355.20-136.80 317.28-60.48 274.56-9.60C271.68-6.24 268.80-2.88 265.92 0.96C260.64 6.72 257.28 14.88 260.64 16.32C277.44 18.24 285.60 0 296.16-8.64C349.92 42.72 400.32 12.96 442.08-19.68C449.28-24.96 456-30.24 461.28-35.04C463.20-36 461.76-38.40 460.32-39.84ZM345.12-36.48C346.56-31.68 317.76-20.64 312.48-19.20C311.52-19.20 344.16-39.36 345.12-36.48ZM375.84-127.68C384.48-137.76 417.60-176.64 424.32-170.40C424.80-137.28 348-74.88 328.80-65.28L375.84-127.68ZM560.16-39.84C558.24-41.76 555.84-42.24 553.44-40.32L548.64-36.48C526.08-17.76 496.80 4.32 492-0.96C489.60-7.20 500.64-24.96 502.08-36.48C502.56-40.32 501.60-43.68 497.76-44.64C495.84-45.12 492-40.80 488.16-36.48C484.80-32.16 480.96-27.36 479.04-25.44C470.40-18.24 458.40-7.20 452.16-10.08C449.28-15.36 456-26.40 462.72-36.48C466.56-42.72 470.88-48 473.28-50.40C475.20-51.84 468.96-56.16 467.04-55.20C462.24-53.28 456-45.12 450.72-36.48C441.12-20.64 435.84-0.96 451.68 0L454.08 0C465.60-0.96 477.12-12 482.40-15.36C481.44-11.04 480-4.80 480.48 0C480.48 5.76 483.36 10.56 491.04 10.56C496.80 11.04 505.44 6.72 515.04 0C530.40-10.08 548.64-24.96 561.12-34.56C562.56-36 561.60-38.40 560.16-39.84ZM651.36-39.84C649.44-41.76 646.56-42.24 644.64-40.32L639.36-36.48C617.28-17.76 587.52 4.32 582.72-0.96C579.84-9.60 600-54.24 594.24-57.12C586.08-61.92 575.04-45.60 564-35.52C561.60-47.04 600-73.44 583.68-79.20C575.52-81.12 549.60-34.08 544.80-24C541.44-17.28 539.52-10.56 547.68-9.60C551.52-9.12 552.96-10.08 557.76-12.96L581.76-42.72C576.48-29.76 572.16-13.92 572.64 0C573.12 5.76 574.08 10.56 582.24 10.56C587.52 11.04 596.16 6.24 606.24 0C621.60-10.08 639.36-24.96 652.32-35.04C653.76-36 652.80-38.40 651.36-39.84ZM924.00-159.36C920.16-157.44 919.68-152.16 924.00-150.72C932.64-148.80 941.28-151.20 949.92-156C990.72-178.08 1159.68-322.08 1111.68-368.64C1086.72-393.12 1021.92-348.96 1001.76-335.04C923.52-281.76 815.04-182.88 765.12-98.88C739.68-56.16 719.04 8.64 749.28 29.28C796.32 60.96 901.92 7.20 946.56-28.80C949.44-30.72 951.84-33.12 954.24-35.04C955.68-36 954.72-38.40 953.28-39.84C951.84-41.76 948.96-42.24 946.56-40.32L941.76-36.48C906.24-7.20 793.44 46.08 756.48 16.32C729.60-4.80 762.24-71.52 775.68-91.20C824.64-165.60 873.60-212.64 941.76-271.20C955.68-283.20 981.12-304.80 1008.00-324.48C1022.40-335.04 1083.84-375.84 1103.04-358.56C1135.20-329.76 1002.72-194.88 924.00-159.36ZM960.96-19.68C950.88-26.40 943.20-9.12 948.00-3.36C954.72 4.32 966.72-12.48 960.96-19.68Z" fill="#000000"/>
  </g>
</svg>