<svg width="1923" height="591" viewBox="0 0 1923 591" xmlns="http://www.w3.org/2000/svg">
  <g transform="translate(-4.04660361534026, 384.15000000000003)">
    <path d="M324.48-117.60C367.20-182.88 405.12-260.64 415.68-338.88C417.60-354.24 418.08-370.08 413.76-385.44C405.12-416.16 382.56-432 351.84-432C296.16-432 237.12-376.32 202.56-337.44C201.12-336 199.68-334.56 197.76-332.64C196.32-334.08 194.88-335.04 193.92-336C190.08-339.36 186.24-340.80 182.88-340.80C175.20-340.80 168-333.12 163.68-327.84C156.48-318.24 148.80-308.64 142.56-299.04C87.36-212.64 32.64-82.56 18.72 19.68C16.32 39.84 14.88 59.52 17.28 79.68C19.68 107.52 31.20 134.40 63.36 134.40C147.36 134.40 282.24-53.28 324.48-117.60ZM25.44 78.24C22.56 54.24 24.96 31.20 28.80 7.68C44.16-88.32 95.52-204.96 147.36-286.56C153.60-296.16 160.80-305.76 167.52-315.36C170.40-319.20 174.24-322.56 178.08-325.92C181.92-329.76 182.88-329.28 186.72-325.44C187.68-324.48 188.16-323.52 189.12-322.08C132-250.56 87.84-167.04 72.96-76.32C70.08-56.16 68.64-36 72.48-15.84C76.80 9.12 91.68 33.12 119.52 33.12C164.16 33.12 208.32-27.36 227.52-62.88C230.40-68.16 232.80-73.44 234.72-79.20C235.20-81.60 235.20-84.96 234.72-87.36C233.76-91.20 230.40-92.64 227.04-92.64C224.16-92.16 221.76-90.24 221.28-86.40C219.36-58.08 160.32 20.16 122.88 22.56C109.92 24 99.36 19.20 91.68 8.64C84.48-1.92 81.12-13.92 79.68-26.40C76.80-50.40 80.16-74.40 85.44-97.44C103.20-180 141.60-246.24 192.48-311.52C193.92-313.44 196.32-314.88 198.72-316.32C201.12-317.28 202.08-318.72 203.04-321.60C203.52-323.52 204-325.44 205.44-326.88C236.16-360.96 286.56-409.44 333.12-420C343.68-422.40 353.76-422.88 364.32-421.44C384.96-417.60 397.92-405.12 404.16-385.44C408-372.96 408.48-360 407.52-347.04C396-213.12 282.72-60.48 193.92 36.48C166.08 67.20 107.04 125.28 61.92 125.28C36 124.32 28.32 99.84 25.44 78.24ZM397.44 44.64C408.00 38.40 417.60 26.40 424.80 16.80C445.44-11.04 477.60-66.24 495.36-95.52C497.76-99.36 497.28-102.24 495.36-103.68C492.96-105.12 490.08-104.16 487.68-100.32C464.64-61.44 441.12-23.52 416.16 13.92C411.36 20.64 405.12 26.40 399.36 32.64C397.92 34.56 396.00 35.52 393.12 37.44C395.04 22.08 397.92 7.68 403.20-7.20L413.76-40.32C420.48-59.52 426.24-78.72 431.52-98.40C432.48-103.68 432.96-109.44 432.48-114.72C431.52-123.36 426.72-126.24 418.56-125.28C417.60-125.28 416.16-125.28 415.20-124.80C407.52-122.40 400.32-120 392.64-117.60C386.88-115.68 380.64-112.80 374.88-110.88C372.96-109.92 371.04-109.92 368.16-109.44C369.60-112.32 370.56-113.76 371.52-115.20C374.88-122.88 377.28-130.56 378.24-138.72C378.24-140.64 378.24-142.56 377.76-144.48C376.80-148.32 372.96-150.24 369.60-147.36C363.36-141.12 359.04-126.72 357.60-118.08C356.64-111.36 357.12-104.64 351.84-99.36C351.84-98.88 351.36-98.88 351.36-98.40C350.40-95.52 351.36-93.12 353.76-92.16C356.64-91.20 358.08-92.64 359.52-95.04C360.48-96.96 361.92-99.36 362.88-101.76C372.00-100.80 380.16-104.16 388.32-107.04C395.52-109.92 403.20-112.80 410.88-115.20C414.72-116.64 418.56-117.12 422.40-117.60C425.28-113.28 424.80-109.44 424.32-106.08C423.36-99.84 422.40-93.12 420.48-87.36C413.28-65.28 406.08-43.20 398.88-21.60C393.60-4.80 387.84 11.52 385.92 28.80C385.44 32.16 384.96 35.52 385.44 38.88C386.88 45.12 391.68 47.52 397.44 44.64ZM419.52 66.24C420.48 65.28 420.96 63.36 421.44 61.92C434.40 29.76 447.36-2.40 462.72-33.60C463.68-36.48 464.64-39.36 468.00-39.36C468.96-39.84 470.40-41.28 470.40-42.24C471.36-48 475.20-52.32 478.08-56.64C479.52-59.52 481.92-60 485.28-60C494.40-59.04 503.52-58.56 512.64-58.56C551.52-59.52 593.28-64.32 626.40-85.92C628.80-87.36 630.72-89.76 632.64-92.16C633.12-93.12 633.12-95.52 632.16-96.48C631.20-97.44 628.80-97.44 627.36-97.44C626.40-97.44 625.92-96.48 624.96-96C613.92-86.88 600.48-80.64 586.56-76.80C557.28-68.64 527.04-65.28 496.80-66.72C494.88-66.72 493.44-67.20 491.04-67.68C493.44-69.60 494.88-71.04 496.32-72C514.08-88.32 531.84-104.64 547.68-122.88C552.00-127.20 555.84-132 559.68-137.28C561.12-138.72 562.08-140.64 563.04-143.04C564.00-144.96 564.48-147.36 562.08-149.76C560.16-151.68 557.76-151.68 555.36-150.72C553.92-150.24 552.48-149.28 551.04-148.80C549.12-147.36 547.20-145.44 544.80-144C531.84-133.44 520.32-120.96 508.80-108.48C503.52-102.24 497.76-95.52 492.48-89.28C492.00-89.76 492.00-89.76 491.52-89.76C492.48-91.20 492.96-92.64 493.92-94.08C510.72-127.20 527.52-159.84 544.32-192.48C545.76-195.36 547.68-198.24 549.60-200.64C576.96-236.16 602.88-275.04 623.04-315.36C624.00-317.76 624.96-320.16 624.96-322.56C624.96-326.88 621.12-329.28 617.28-326.88C615.36-326.40 613.92-324.96 612.48-323.04C610.08-320.16 607.68-316.80 605.28-312.96C582.24-280.80 562.56-246.72 545.76-211.20C543.36-206.88 540.96-202.56 538.08-199.20C525.12-182.88 512.16-167.52 498.72-151.68C497.76-149.76 495.84-148.32 494.88-146.40C493.44-144.48 493.92-142.08 495.84-140.64C497.76-139.20 499.68-139.68 501.60-141.60C502.56-142.56 503.04-143.52 504.00-144.48C510.24-151.68 516.48-158.88 522.72-166.08C522.72-163.68 521.76-161.76 520.80-159.84C505.92-131.52 491.52-103.68 477.12-75.36C474.72-71.04 472.32-68.16 467.04-66.72C460.80-64.80 455.52-60.96 451.68-55.20C450.24-53.28 449.76-50.88 451.20-48.96C452.64-47.52 455.04-47.04 456.96-46.56C458.40-46.08 459.84-47.04 462.24-47.52C460.80-44.64 459.84-42.72 458.88-40.80C444.00-6.72 428.64 27.36 413.76 61.92C413.28 62.40 412.80 62.88 412.80 63.36C413.76 64.80 413.76 67.20 415.20 67.68C416.64 69.12 418.56 68.16 419.52 66.24ZM592.80-280.80C592.80-278.88 591.84-276.96 590.88-275.52C590.88-276 590.40-276 589.92-276ZM586.56-271.20C587.04-271.20 587.52-270.72 587.52-270.24C586.56-268.80 585.60-267.36 584.16-266.40ZM543.84-129.60C535.68-120.96 527.04-112.32 518.88-103.68C520.32-109.44 536.64-126.24 543.84-129.60ZM621.60-44.16C626.40-45.60 630.72-47.52 634.56-50.88C642.72-57.12 650.40-64.32 658.08-71.04C665.28-78.24 672.48-85.44 679.68-92.64C681.12-93.60 682.08-94.56 683.52-95.52C683.52-88.80 683.04-82.56 683.52-76.80C685.44-63.84 694.56-56.16 705.12-56.16C713.28-56.16 724.32-62.88 729.12-69.60C736.80-77.76 743.52-86.40 750.72-95.04C751.68-96 752.64-97.44 752.64-98.40C752.64-100.32 752.16-102.24 751.20-103.20C749.76-105.12 747.84-104.64 746.40-103.20C744.96-102.24 744-100.80 743.04-99.36C737.76-93.12 732.96-85.92 727.20-79.68C722.40-73.92 712.32-64.80 704.16-64.80C697.44-64.80 692.16-70.08 691.68-78.72C691.20-84 691.68-89.28 692.16-94.08C692.64-97.44 693.60-100.80 694.08-104.16C694.56-106.56 694.08-108.96 691.68-109.92C689.76-111.36 687.36-110.40 685.92-108.96C683.52-107.52 681.12-105.60 679.20-103.68C669.12-93.60 659.52-83.52 649.44-73.92C642.24-67.20 634.56-60.96 626.88-54.72C624.48-52.80 621.60-50.88 618.24-51.36C616.32-54.24 616.80-57.12 617.76-60.48C620.16-70.56 624.48-80.16 629.28-89.76C630.72-92.16 631.68-94.08 635.04-95.04C636-95.04 637.44-97.44 638.40-98.88C639.84-102.72 639.36-106.08 636.96-107.52C634.56-108.96 631.68-108 629.28-103.68C620.16-90.24 613.92-75.84 610.08-60C609.60-57.12 609.60-54.24 610.08-51.36C611.04-45.12 615.84-42.24 621.60-44.16ZM740.16-43.20C742.08-44.16 743.52-45.12 744.96-46.56C750.24-51.84 755.04-57.60 759.84-63.36L770.40-76.32C774.72-81.12 779.04-85.92 783.36-90.72C785.28-87.36 786.72-84.48 788.16-82.08C792-75.36 795.36-72.48 800.64-72.48C803.04-72.48 805.44-72.96 808.80-74.40C818.40-78.24 827.52-83.52 837.12-88.32C837.60-88.80 838.56-89.28 839.04-90.24C840.96-91.68 841.44-93.60 840.48-95.52C839.04-97.92 836.64-97.44 834.72-96.96C833.28-96 832.32-95.04 830.88-94.08C822.72-89.76 814.56-85.44 806.40-81.60C800.16-78.72 798.24-79.68 795.36-85.44C793.44-88.32 792.48-91.68 790.56-94.08C787.20-98.88 783.36-99.84 778.56-96.48C775.20-93.60 771.84-90.24 768.96-86.88C762.24-78.72 755.52-70.56 749.28-62.40C746.88-59.52 744.48-56.64 742.08-53.76C741.60-53.76 741.12-54.24 740.64-54.24C744.48-71.52 748.80-88.80 755.52-105.60C756-107.04 757.92-108 758.88-108.96C759.84-110.40 761.28-111.84 760.80-112.80C760.80-114.24 759.36-115.68 757.92-116.64C756-117.60 753.12-117.12 751.68-114.72C750.72-113.28 750.24-111.84 749.28-109.92C742.56-92.16 738.24-73.44 733.92-54.24C733.44-52.32 732.96-49.44 733.44-47.04C733.92-43.20 736.80-41.76 740.16-43.20ZM1112.64 99.36C1205.76 83.52 1327.20-1.44 1389.12-76.80C1391.04-78.72 1392.96-81.60 1393.92-84C1395.36-87.36 1393.92-90.72 1391.52-92.16C1388.64-93.60 1385.76-93.12 1383.36-90.24C1382.40-89.76 1381.92-88.80 1380.96-87.84C1379.04-84.96 1376.64-81.60 1374.72-79.20C1314.24-6.24 1215.84 67.68 1121.28 89.76C1103.52 93.60 1086.24 95.52 1068.48 92.64C1037.76 87.36 1026.72 66.72 1023.84 38.88C1022.88 23.52 1025.28 8.64 1029.60-5.76C1057.92-114.24 1144.32-221.76 1226.88-293.28C1262.88-324.48 1314.24-360 1361.76-371.04C1373.28-373.44 1384.80-375.36 1396.32-372.96C1409.76-370.56 1416-362.88 1416-348.96C1416-288.48 1314.72-181.44 1273.44-143.04C1265.76-135.84 1257.12-129.60 1249.44-123.36C1248-121.92 1246.08-120.96 1245.12-119.52C1243.68-117.12 1244.16-114.72 1245.60-112.80C1247.52-110.40 1249.92-109.44 1252.80-110.88C1286.88-128.16 1369.92-230.40 1393.44-266.40C1406.88-288 1424.64-320.64 1426.08-346.56C1427.04-367.20 1416-380.64 1395.84-384C1382.40-385.92 1369.44-383.52 1356.96-380.64C1300.80-366.24 1238.88-317.28 1198.08-277.92C1123.20-205.92 1051.68-108.96 1023.36-7.20C1018.56 11.04 1015.68 29.28 1018.08 48.48C1020.96 73.92 1036.80 92.64 1061.76 98.88C1069.92 100.80 1078.08 101.28 1085.76 102.24C1095.36 101.28 1104 100.80 1112.64 99.36ZM1403.52-62.40C1410.72-69.60 1416.96-77.76 1423.68-85.44C1425.12-87.36 1426.56-88.80 1428.48-91.20C1428.96-88.80 1428.96-87.84 1428.96-86.88C1430.40-82.56 1430.88-78.24 1432.32-74.40C1436.64-64.80 1444.80-60.96 1455.36-63.84C1464-65.76 1472.64-71.04 1478.88-76.80C1486.56-83.52 1492.80-89.76 1500-96.96C1502.88-99.84 1499.52-107.52 1494.72-102.24C1488.96-96.96 1473.60-74.88 1454.88-71.52C1446.72-69.60 1440.96-71.04 1438.56-79.20C1437.12-84.48 1436.64-90.24 1436.16-95.52C1436.16-101.76 1436.16-102.72 1430.40-105.12C1424.16-107.52 1418.40-109.92 1413.12-109.92C1395.36-109.92 1380-82.08 1375.20-67.68C1374.72-65.76 1374.72-64.32 1374.72-62.88C1374.24-54.72 1378.08-50.40 1383.84-50.40C1390.56-50.40 1399.20-57.60 1403.52-62.40ZM1399.20-89.76C1406.88-97.92 1410.24-100.80 1422.24-99.36C1422.24-98.40 1422.72-97.92 1422.72-97.92C1414.08-87.36 1405.92-76.80 1397.28-66.72C1394.40-63.36 1390.08-60.96 1386.24-58.08C1385.28-57.60 1384.32-58.08 1382.88-57.60C1379.04-60 1390.08-79.20 1399.20-89.76ZM1519.68 17.28C1526.40 4.80 1532.16-7.68 1538.88-20.16C1539.84-22.56 1541.76-24.96 1543.68-26.40C1558.08-35.52 1572.48-44.16 1586.88-52.80C1591.68-55.68 1596.96-57.12 1601.76-58.56C1605.60-60 1609.92-60 1613.76-58.08C1613.76-57.60 1614.24-56.64 1614.24-55.68C1614.72-53.76 1615.20-52.32 1617.60-52.32C1619.04-52.80 1620.96-53.76 1621.92-54.72C1624.32-58.08 1623.84-62.88 1620-64.80C1617.60-66.72 1614.72-67.68 1611.84-68.16C1603.20-69.12 1595.52-67.20 1587.84-62.88C1576.32-56.64 1565.28-49.92 1553.76-43.20C1552.32-42.24 1550.88-41.28 1548.96-40.32C1548.96-41.28 1548.96-41.76 1548.96-42.24C1550.40-45.12 1551.84-48 1552.80-50.88C1559.04-63.84 1575.84-103.20 1575.84-117.12C1575.84-121.44 1572.48-123.36 1568.64-121.92C1566.24-120.48 1564.80-119.04 1562.88-117.60C1551.84-108.96 1540.80-99.84 1529.76-91.68C1518.72-83.52 1506.72-75.84 1494.24-70.56C1493.76-71.04 1493.76-71.52 1493.28-72C1495.68-82.08 1496.64-93.12 1503.84-101.76C1505.76-103.68 1506.24-105.60 1504.32-107.52C1502.88-109.44 1500-109.44 1498.08-107.52C1496.64-105.60 1495.20-103.68 1494.72-101.76C1491.84-93.60 1488.96-84.96 1486.56-76.80C1485.60-72.48 1485.60-68.16 1489.44-64.80C1493.28-61.92 1497.60-63.36 1501.44-65.28C1508.64-69.12 1516.32-72.48 1523.52-77.28C1536-85.92 1548-95.52 1560-105.12C1561.44-106.08 1563.36-107.52 1565.76-109.44C1565.76-108 1565.76-107.52 1565.76-107.04C1562.40-93.12 1542.24-36 1531.68-27.84C1523.52-21.60 1515.36-15.84 1507.20-9.60C1483.20 9.60 1460.16 29.28 1440 52.32C1432.80 60.96 1421.76 74.88 1420.80 86.40C1419.84 93.60 1424.16 98.40 1430.88 99.84C1433.28 100.32 1435.68 100.32 1438.08 100.32C1470.72 96.48 1505.28 44.16 1519.68 17.28ZM1428.96 84.48C1429.92 81.12 1430.88 77.76 1432.80 74.88C1456.32 39.84 1491.84 12.48 1524.96-12.96C1525.44-13.44 1525.92-13.44 1527.84-14.40C1513.92 13.92 1472.16 92.64 1435.68 92.64C1429.44 93.12 1427.04 90.24 1428.96 84.48ZM1585.44 37.92C1608 32.64 1633.44-13.92 1644-34.56C1657.92-59.52 1672.32-84.48 1688.64-108C1689.60-109.44 1690.56-110.88 1690.56-112.32C1691.04-113.76 1691.04-116.16 1690.08-117.12C1688.64-119.04 1686.24-118.08 1684.32-116.64C1682.88-115.20 1681.44-113.28 1680-111.36C1666.08-90.72 1654.08-69.12 1642.56-47.52C1634.40-33.12 1626.72-18.72 1618.08-4.32C1612.80 5.28 1606.08 14.40 1597.92 22.56C1594.56 25.44 1591.20 28.32 1587.36 30.24C1584.96 31.20 1582.56 32.16 1581.12 32.16C1576.80 32.16 1574.88 28.80 1574.88 23.04C1574.88 17.28 1575.36 11.52 1576.80 6.24C1588.32-36.48 1622.88-153.60 1654.56-185.28C1656.48-187.68 1658.40-189.60 1659.84-192C1690.56-229.44 1713.60-271.20 1728.96-317.76C1728.96-318.72 1729.44-319.68 1729.92-320.64C1730.40-323.04 1730.88-325.92 1728-327.84C1725.60-329.28 1723.20-328.32 1720.32-324.96C1718.88-323.04 1717.44-321.12 1716-319.20C1711.20-311.04 1705.92-303.36 1701.12-295.20C1682.88-265.44 1667.52-234.24 1651.68-203.04C1638.72-177.60 1638.72-177.60 1617.60-158.40C1616.16-156.96 1614.72-156 1613.28-154.56C1608.96-151.20 1604.16-147.36 1599.84-144C1597.92-142.08 1596.96-140.64 1597.92-138.24C1599.36-135.84 1601.76-135.36 1604.16-136.80C1605.60-137.76 1607.52-139.20 1608.96-140.16C1614.72-145.44 1620.96-150.72 1627.68-155.52C1602.24-104.64 1586.40-50.40 1570.56 3.84C1568.64 11.04 1567.68 18.72 1568.64 26.40C1569.60 36 1575.84 39.84 1585.44 37.92ZM1709.76-291.84C1698.72-264.48 1684.32-239.04 1667.04-213.60C1668-220.32 1701.60-282.72 1709.76-291.84ZM1682.40-62.40C1689.60-69.60 1695.84-77.76 1702.56-85.44C1704-87.36 1705.44-88.80 1707.36-91.20C1707.84-88.80 1707.84-87.84 1707.84-86.88C1709.28-82.56 1709.76-78.24 1711.20-74.40C1715.52-64.80 1723.68-60.96 1734.24-63.84C1742.88-65.76 1751.52-71.04 1757.76-76.80C1765.44-83.52 1771.68-89.76 1778.88-96.96C1781.76-99.84 1778.40-107.52 1773.60-102.24C1767.84-96.96 1752.48-74.88 1733.76-71.52C1725.60-69.60 1719.84-71.04 1717.44-79.20C1716-84.48 1715.52-90.24 1715.04-95.52C1715.04-101.76 1715.04-102.72 1709.28-105.12C1703.04-107.52 1697.28-109.92 1692-109.92C1674.24-109.92 1658.88-82.08 1654.08-67.68C1653.60-65.76 1653.60-64.32 1653.60-62.88C1653.12-54.72 1656.96-50.40 1662.72-50.40C1669.44-50.40 1678.08-57.60 1682.40-62.40ZM1678.08-89.76C1685.76-97.92 1689.12-100.80 1701.12-99.36C1701.12-98.40 1701.60-97.92 1701.60-97.92C1692.96-87.36 1684.80-76.80 1676.16-66.72C1673.28-63.36 1668.96-60.96 1665.12-58.08C1664.16-57.60 1663.20-58.08 1661.76-57.60C1657.92-60 1668.96-79.20 1678.08-89.76ZM1815.36 44.64C1825.92 38.40 1835.52 26.40 1842.72 16.80C1863.36-11.04 1895.52-66.24 1913.28-95.52C1915.68-99.36 1915.20-102.24 1913.28-103.68C1910.88-105.12 1908-104.16 1905.60-100.32C1882.56-61.44 1859.04-23.52 1834.08 13.92C1829.28 20.64 1823.04 26.40 1817.28 32.64C1815.84 34.56 1813.92 35.52 1811.04 37.44C1812.96 22.08 1815.84 7.68 1821.12-7.20L1831.68-40.32C1838.40-59.52 1844.16-78.72 1849.44-98.40C1850.40-103.68 1850.88-109.44 1850.40-114.72C1849.44-123.36 1844.64-126.24 1836.48-125.28C1835.52-125.28 1834.08-125.28 1833.12-124.80C1825.44-122.40 1818.24-120 1810.56-117.60C1804.80-115.68 1798.56-112.80 1792.80-110.88C1790.88-109.92 1788.96-109.92 1786.08-109.44C1787.52-112.32 1788.48-113.76 1789.44-115.20C1792.80-122.88 1795.20-130.56 1796.16-138.72C1796.16-140.64 1796.16-142.56 1795.68-144.48C1794.72-148.32 1790.88-150.24 1787.52-147.36C1781.28-141.12 1776.96-126.72 1775.52-118.08C1774.56-111.36 1775.04-104.64 1769.76-99.36C1769.76-98.88 1769.28-98.88 1769.28-98.40C1768.32-95.52 1769.28-93.12 1771.68-92.16C1774.56-91.20 1776-92.64 1777.44-95.04C1778.40-96.96 1779.84-99.36 1780.80-101.76C1789.92-100.80 1798.08-104.16 1806.24-107.04C1813.44-109.92 1821.12-112.80 1828.80-115.20C1832.64-116.64 1836.48-117.12 1840.32-117.60C1843.20-113.28 1842.72-109.44 1842.24-106.08C1841.28-99.84 1840.32-93.12 1838.40-87.36C1831.20-65.28 1824-43.20 1816.80-21.60C1811.52-4.80 1805.76 11.52 1803.84 28.80C1803.36 32.16 1802.88 35.52 1803.36 38.88C1804.80 45.12 1809.60 47.52 1815.36 44.64Z" fill="#000000"/>
  </g>
</svg>