<svg width="512" height="308" viewBox="0 0 512 308" xmlns="http://www.w3.org/2000/svg">
  <g transform="translate(36.38375, 200.20000000000002)">
    <path d="M133.38-111.02C132.86-116.22 132.86-120.64 132.34-125.06C131.30-134.16 128.70-142.74 123.76-150.54C120.90-155.48 117-159.64 112.06-162.24C96.20-171.08 79.56-173.42 62.14-166.92C34.84-156.52 16.90-136.50 5.98-109.98C3.12-103.22 2.08-96.20 2.86-88.92C3.38-81.64 7.02-76.18 13.26-72.28C14.30-71.50 15.86-70.98 17.16-70.46C18.72-69.68 18.98-68.90 18.72-67.34C18.46-65 18.20-62.40 17.94-60.06C16.38-44.72 19.50-30.68 29.12-18.46C35.62-10.40 43.94-5.46 54.34-3.90C61.10-3.12 67.86-3.64 74.62-5.46C89.70-9.88 101.14-19.50 109.46-32.50C125.06-56.68 131.82-83.46 133.38-111.02ZM36.14-68.64C33.80-69.16 31.72-69.68 29.64-69.94C27.56-70.20 27.30-71.24 27.82-73.06C30.94-85.80 35.62-98.02 44.20-108.42C48.62-113.62 53.30-118.04 58.50-122.20C60.32-123.50 61.88-124.80 63.18-126.88C60.06-128.70 57.72-127.40 55.38-126.10C44.98-119.60 36.40-111.28 30.16-100.62C26.26-93.86 23.40-86.58 21.32-79.04C21.06-77.74 20.54-76.70 20.28-75.40C20.02-73.84 19.24-73.58 17.94-74.10C15.08-75.66 12.48-77.22 10.92-80.08C8.32-85.02 7.28-90.22 8.32-95.68C11.70-112.06 19.24-126.10 29.90-138.84C39.52-150.02 50.96-158.86 65-164.06C81.38-170.04 96.72-167.70 111.54-159.38C117.26-156.26 121.16-151.32 124.02-145.60C127.92-137.80 129.74-129.22 130.52-120.64C131.82-101.92 128.44-83.72 122.20-66.30C119.08-56.68 114.92-47.32 109.98-38.74C104.52-29.38 97.50-21.58 88.66-15.60C78.26-8.84 67.08-6.24 54.60-8.58C47.32-10.14 41.34-13.52 36.40-19.24C29.90-27.04 26-36.14 25.22-46.54C24.96-52.78 25.22-59.02 26.26-65C26.52-67.08 27.30-67.86 29.38-67.60C31.46-67.34 33.80-67.08 36.14-68.64ZM143.26-88.14C143.26-89.18 143.26-90.22 143.52-91.52C143.52-92.82 143.78-94.12 143.78-95.42C144.04-98.54 143-100.62 141.44-100.36C139.10-100.10 139.36-98.02 138.58-96.46C138.58-95.94 138.32-95.42 138.32-94.90C137.28-88.14 136.24-81.38 135.46-74.62C135.20-73.58 135.20-72.80 135.20-71.76C135.20-70.20 135.72-69.16 137.28-68.90C138.58-68.64 139.36-69.42 139.88-70.46C140.40-71.24 140.66-72.28 140.92-73.06C143.26-78.52 146.38-83.46 150.02-88.14C153.14-92.04 156.26-95.68 160.94-97.50C161.98-97.76 163.02-97.76 162.50-99.32C162.24-100.36 161.20-100.36 160.16-100.10C157.56-99.84 155.22-98.54 153.14-96.98C149.76-94.38 146.90-91 143.26-88.14ZM173.16-76.18C174.20-78.26 175.76-78.78 177.06-79.82C179.40-82.16 181.48-84.50 183.30-87.36C184.34-89.18 184.86-91.26 184.34-93.34C183.82-96.20 182-97.24 179.40-95.68C177.58-94.90 176.54-93.34 174.98-92.04C174.20-91 173.94-89.18 172.38-88.66C172.38-88.92 172.12-89.18 172.12-89.18C174.72-107.64 177.06-126.10 179.66-144.82C179.66-145.60 179.66-146.64 181.22-146.64C183.56-147.16 182.26-148.98 182.26-150.28C182-151.32 181.48-152.88 180.18-153.14C178.62-153.40 177.58-152.36 177.06-151.06C175.76-148.20 174.98-145.34 174.46-142.22C171.60-122.98 168.74-103.74 165.88-84.50C165.36-81.38 165.62-78 163.28-75.40C162.76-74.62 162.76-74.10 163.02-73.58C164.32-71.50 163.54-69.68 163.28-67.86C162.50-64.22 161.98-60.58 161.20-56.94C161.20-55.90 161.20-55.12 161.98-54.86C163.02-54.34 163.54-55.12 164.06-55.90C164.32-56.68 164.84-57.46 165.10-58.50C166.14-62.14 167.44-65.52 168.22-69.16C168.74-71.24 169.78-72.02 171.86-72.28C178.62-72.80 185.12-74.10 191.10-76.96C192.14-77.48 193.44-77.48 193.70-79.30C186.94-78.26 180.44-75.14 173.16-76.18ZM175.50-85.02C176.28-87.88 177.06-91 180.70-92.30C179.92-88.66 178.10-86.58 175.50-85.02ZM206.70-80.60C212.94-73.06 222.56-72.54 228.28-79.04C225.16-78.26 222.04-77.22 218.66-77.48C214.76-77.74 212.68-79.30 211.90-83.20C211.64-84.24 211.64-85.02 211.38-86.06C211.12-87.10 210.86-88.40 209.56-88.40C208-88.66 207.48-87.88 206.96-86.58C205.40-83.20 203.32-80.60 200.72-78C200.20-77.22 199.42-75.92 197.86-76.70C198.12-79.82 198.64-82.68 198.64-85.80C198.38-87.62 198.12-89.18 196.04-89.44C193.96-89.44 192.92-88.40 192.40-86.58C191.62-83.72 190.84-80.86 190.84-78C190.84-75.14 192.40-72.54 194.74-71.76C197.34-70.72 199.42-71.76 201.24-73.84C203.06-75.92 204.62-78.26 206.70-80.60ZM231.92-78C232.18-80.08 232.18-81.64 232.18-82.94C232.18-84.50 231.92-86.06 230.10-86.32C228.54-86.58 227.76-85.28 227.50-83.98C226.46-79.82 225.16-75.66 224.64-71.24C224.64-69.42 224.64-67.86 226.72-67.34C228.54-66.82 229.32-68.12 230.10-69.42C232.18-72.54 234.26-75.66 236.60-78.52C239.98-82.68 244.14-86.32 249.60-88.92C249.60-86.06 249.34-83.98 249.60-81.90C250.12-77.74 251.94-74.62 256.10-73.06C262.86-70.98 272.74-73.32 277.94-78.78C276.64-78.26 275.34-77.74 274.04-77.22C270.14-76.18 266.24-74.62 261.82-75.66C258.44-76.44 256.10-78 255.84-81.64C255.58-83.20 255.58-84.50 255.32-86.06C254.02-92.30 251.68-93.34 246.22-89.96C242.58-87.88 239.98-85.02 236.86-82.16C235.56-80.86 234.52-79.30 231.92-78ZM418.60-60.06C431.86-79.56 427.44-78.26 427.44-78.26C430.30-83.98 408.98-51.22 398.32-41.08C388.44-31.46 377.52-23.66 365.04-18.46C359.84-16.12 354.64-14.56 348.92-14.30C334.10-14.04 315.12-21.32 312.78-44.72C312-50.44 311.74-55.90 312.52-61.36C315.90-91 326.30-117.52 343.46-141.96C348.14-148.46 353.60-154.18 359.84-159.12C364.78-163.02 370.24-165.88 376.22-167.18C389.74-170.56 400.92-163.80 404.56-150.28C405.34-147.16 405.60-144.04 405.60-140.66C405.60-139.36 405.34-138.06 406.12-136.24C406.90-137.02 407.16-137.54 407.42-137.80C413.40-155.22 399.36-173.94 380.90-173.16C371.80-172.64 363.48-170.04 356.20-164.32C347.88-158.34 341.12-151.06 335.40-142.74C320.06-121.16 309.92-97.50 305.50-71.50C303.42-60.06 302.90-48.62 306.02-37.18C308.88-26.78 314.60-19.24 324.22-14.30C339.04-7.02 353.34-7.80 367.90-14.82C389.22-24.96 405.34-40.82 418.60-60.06ZM433.16-81.12C430.82-81.12 428.74-79.56 428.74-77.74C428.74-75.92 430.82-74.10 432.64-74.36C434.46-74.62 436.02-76.70 435.76-78.52C435.50-80.34 434.46-81.12 433.16-81.12Z" fill="#000000"/>
  </g>
</svg>