<svg width="990" height="637" viewBox="0 0 990 637" xmlns="http://www.w3.org/2000/svg">
  <g transform="translate(-4.40625, 414.05)">
    <path d="M98.91 13.59C107.81 13.59 116.72 11.02 125.63 5.63C135.70-0.47 145.08-7.50 153.52-15.47C168.28-29.77 181.88-45 193.83-61.64C211.41-85.31 226.64-110.16 239.06-136.64C247.50-154.69 254.06-173.44 258.52-192.66C261.09-202.27 262.27-212.11 262.27-222.19L262.50-230.16C262.50-246.56 258.52-260.39 250.55-271.88C240.94-285 226.64-291.56 207.89-291.56C202.97-291.56 197.81-291.33 192.89-290.39C179.53-288.05 166.88-283.83 154.45-277.97C122.11-262.03 94.22-239.06 70.31-209.53C53.20-188.20 38.91-165.23 27.42-140.16C22.03-129.38 18.52-118.13 16.64-106.17L16.41-102.42C16.41-100.31 16.64-98.44 16.88-96.33C17.34-93.75 18.75-91.41 20.63-89.77C22.50-87.89 24.84-86.95 27.66-86.95C30.47-86.95 34.69-88.59 40.08-91.64C45.70-95.39 53.67-101.25 63.98-109.45C77.11-120.23 90.47-130.31 104.53-139.69C121.64-150.70 140.39-158.67 160.31-163.13C166.41-164.53 172.73-165 179.06-165L183.75-165C192.66-164.53 197.34-161.02 198.05-154.45C198.28-152.34 198.28-148.13 198.28-142.27C198.52-141.33 198.75-140.39 199.45-139.69C200.16-138.98 200.86-138.75 201.80-138.52C203.67-138.52 204.84-139.45 205.31-141.09C206.48-143.67 206.95-147.19 206.95-151.64L206.95-153.28C206.95-157.73 205.55-161.95 202.73-165.70C199.92-169.69 194.53-172.27 187.03-173.67C184.45-174.14 182.11-174.14 179.53-174.14C174.14-174.14 168.75-173.67 163.36-172.50C134.06-167.11 107.34-154.69 82.73-135.23L45-105.70C36.80-100.08 31.41-97.03 28.59-96.56C28.13-96.56 27.66-96.80 26.95-97.03C26.48-97.50 26.25-97.73 26.25-98.20C26.25-98.67 26.02-99.14 25.78-99.61C25.55-100.31 25.55-100.78 25.55-101.48C25.55-105.23 26.02-108.75 26.72-112.27C29.53-122.58 33.28-132.42 37.97-142.03C51.56-170.63 69.61-196.88 91.88-220.78C118.13-248.44 146.95-267.42 178.36-277.73C187.97-281.02 197.58-282.66 207.66-282.66L214.22-282.42C226.64-281.72 236.48-276.09 243.75-266.02C245.63-263.44 247.03-260.63 248.20-257.58C251.25-250.08 253.13-242.11 253.59-234.14L253.83-227.34C253.83-219.61 253.13-211.88 251.72-204.38C245.16-168.52 229.92-132.19 206.02-94.92C186.33-63.98 165.94-38.91 145.08-19.45C131.48-7.27 119.06 0.47 108.05 3.75C105.47 4.45 103.13 4.69 100.55 4.69L98.20 4.69C92.81 4.45 88.59 2.11 85.78-2.34C84.14-4.69 82.97-7.50 82.27-10.31C80.86-14.77 80.39-19.45 80.39-23.91C80.63-33.05 81.80-42.19 83.67-51.09C90.70-78.75 102.42-104.06 119.06-127.03C120.94-130.08 123.52-132.66 126.80-134.30C127.97-135 128.44-135.94 128.44-136.88C128.44-138.05 127.97-138.98 126.80-139.92C125.86-140.63 124.69-141.09 123.52-141.09C121.17-140.63 118.83-138.98 116.48-136.41C111.33-131.25 106.88-125.63 103.13-119.53L96.09-107.11C86.25-89.30 78.98-70.55 74.53-50.63C72.42-42.42 71.25-33.98 71.25-25.31L71.25-21.80C71.48-14.06 73.36-6.56 76.88 0.23C81.56 8.67 88.83 13.13 98.91 13.59ZM228.28-33.75C230.63-33.75 232.50-35.63 233.67-39.14C246.33-63.75 261.09-82.27 277.97-94.45C284.53-99.38 290.16-101.72 295.08-101.72C299.53-101.72 303.05-99.61 305.86-95.63C306.33-94.45 307.27-93.98 308.67-93.98C309.84-93.98 311.02-94.45 311.95-95.63C312.66-96.56 313.13-97.50 313.13-98.67C313.13-101.72 311.02-104.53 306.80-107.11C302.58-109.69 298.83-110.86 295.31-110.86C293.67-110.86 292.27-110.63 290.63-110.16C282.66-107.58 275.86-104.06 270.23-99.61C264.61-95.16 258.98-89.77 253.59-83.91L247.27-77.34C247.97-80.39 249.14-83.20 250.31-85.78C251.95-89.06 253.36-92.58 254.06-96.33C254.06-98.20 252.89-99.38 250.78-100.08C249.61-100.08 248.44-99.38 247.50-98.20C237.89-80.63 230.63-62.34 225.23-43.36C224.53-41.02 224.06-39.38 224.06-38.20C224.06-36.56 224.53-35.63 225.23-34.92C225.94-34.22 226.88-33.98 228.28-33.75ZM303.28 18.75C305.63 18.75 307.27 16.88 307.97 12.89C310.55 0 313.83-12.89 317.81-25.31C318.98-29.06 319.92-32.34 320.86-35.86C322.03-39.14 323.91-41.72 326.72-43.36C335.63-48.75 344.77-54.61 353.67-60.47C378.28-77.34 400.08-89.30 418.83-96.09C421.88-97.73 424.92-98.44 428.44-98.44L430.78-98.20C432.66-98.20 433.83-98.67 434.53-99.38C435.23-100.31 435.47-101.02 435.47-101.95L435.23-103.36C434.06-105.47 432.42-106.64 430.08-106.88L427.97-107.11C423.05-106.41 418.59-105.23 414.38-103.59C393.75-95.63 369.38-81.80 340.78-62.34C334.45-58.13 330.94-56.02 330-55.55C329.06-55.08 328.13-54.84 327.66-54.38C327.89-56.02 328.13-57.89 328.59-59.53L339.84-93.28C340.78-96.09 342.19-98.44 344.53-100.78C352.73-108.52 361.64-115.31 371.48-120.94C373.59-122.11 375.94-123.05 378.28-123.98C378.98-124.22 379.69-124.45 380.63-124.69C381.33-125.16 382.27-125.16 383.20-125.16L385.78-124.92C388.59-124.22 390-122.34 390-119.53C389.77-118.36 389.77-117.19 389.30-116.02C388.59-113.20 388.13-110.39 387.89-107.58C387.89-106.41 388.36-105.70 389.77-105.23L391.17-105C392.58-105 393.75-105.70 394.69-107.58C396.80-111.56 397.97-116.02 398.20-120.94C398.20-125.63 396.09-129.14 392.11-131.72C389.30-133.36 386.25-134.30 383.44-134.30C380.86-134.30 376.41-132.66 369.84-129.84C367.73-128.91 365.63-127.73 363.52-126.33C361.41-124.92 359.53-123.98 357.66-123.05L355.55-121.88L364.45-132.19C376.64-146.02 391.17-165.47 408.05-190.31C425.86-215.86 441.56-242.58 455.63-270.23C467.81-294.38 475.31-315.23 478.36-332.58L478.59-337.03C478.59-340.78 477.89-344.30 476.25-347.58C474.14-351.09 471.09-352.97 467.58-352.97C464.77-352.97 461.02-351.56 456.33-348.52C452.11-345.70 448.36-342.19 445.08-338.20C437.34-329.53 430.31-319.92 424.22-309.84C393.75-260.86 366.80-201.09 343.59-131.02C340.55-122.58 337.50-114.14 334.92-105.70C333.98-103.36 332.58-101.25 330.94-99.38L320.63-88.36C305.86-71.95 296.72-60.47 293.44-54.14C291.09-49.45 289.69-45.47 289.22-42.66C289.69-36.09 292.97-33.05 298.83-33.05C301.88-33.05 303.98-33.28 305.16-33.52C306.56-33.98 307.73-34.22 309.14-34.45C310.08-34.45 310.55-33.98 310.55-33.28C310.55-32.58 310.31-31.41 309.84-30.23L300.70 4.45C300 7.27 299.53 10.31 299.53 13.13C299.53 16.64 300.70 18.52 303.28 18.75ZM302.58-42.19C300.23-42.42 299.06-43.36 299.06-45C299.53-49.22 306.33-58.83 319.22-73.59L320.16-75C321.56-77.58 323.44-78.98 325.31-79.22L325.31-78.75C325.31-77.11 324.84-75.70 324.14-74.06C323.67-73.13 323.44-72.42 323.20-71.48L320.63-63.52C318.98-59.30 317.81-55.08 316.64-50.86C315.70-47.81 313.59-45.70 310.78-44.53C307.73-42.89 305.16-42.19 302.58-42.19ZM348.52-116.48C349.45-117.66 350.86-118.59 352.50-119.06C351.33-117.66 349.92-116.95 348.52-116.48ZM355.31-134.30C354.61-134.30 354.38-134.30 354.38-134.53L358.59-147.19C368.44-176.02 379.69-204.61 392.81-232.50C409.69-270.47 427.50-301.64 446.25-326.25C454.69-336.80 461.25-342.66 466.17-343.59C467.34-343.59 468.05-342.89 468.52-341.48C468.98-340.08 469.22-338.67 469.22-337.03L468.98-332.58C468.98-328.83 468.05-324.61 466.41-319.69L465.94-317.81C456.56-289.22 440.63-257.11 417.89-221.25C401.95-195.70 384.14-170.63 364.69-146.02ZM416.95-21.80C425.39-21.80 437.34-30.70 453.05-48.75C460.31-57.19 469.45-68.44 480.70-82.50C480.47-81.33 480.23-80.39 479.77-79.45C472.97-60 469.69-46.17 469.69-37.73C469.69-34.22 470.39-31.41 472.03-29.06C473.44-26.72 475.55-25.55 478.59-25.55C488.67-25.55 503.67-37.50 523.83-61.64C535.31-75.70 541.17-83.67 541.17-85.55C541.17-86.95 540.47-88.13 539.06-89.06L537.42-89.30C535.78-89.30 534.61-88.59 533.67-87.19C530.39-82.03 525-75.47 517.97-67.03C510.94-58.83 503.67-51.33 496.17-44.30C488.67-37.50 483.05-33.98 479.06-33.98C478.36-34.45 477.89-35.86 477.89-37.73C477.89-44.30 481.17-56.95 487.27-75.94L487.50-76.41C490.78-86.02 492.66-92.34 492.66-95.39C492.66-98.20 491.02-99.84 487.97-100.08C486.80-100.08 485.63-99.61 484.22-98.67C482.34-97.03 477.19-91.17 468.98-80.86C464.30-74.77 458.44-67.73 451.64-59.77C435-40.08 423.75-30.23 417.66-30.23C416.25-30.23 415.55-32.11 415.55-35.39C415.55-41.95 417.89-51.80 422.58-65.39C427.50-78.75 432.66-91.64 438.28-103.83L438.52-105.70C438.52-106.41 438.52-106.88 438.28-107.34C437.81-107.58 437.58-108.05 437.11-108.28C436.88-108.52 436.41-108.75 435.94-108.98C435.70-109.22 435.23-109.45 434.77-109.45C433.13-109.45 431.72-108.52 430.78-106.88C428.20-101.72 425.39-94.92 421.64-86.02C418.13-77.34 414.84-68.20 411.80-58.59C408.75-49.22 407.34-41.25 407.34-34.69C407.34-31.17 408.05-28.13 409.22-26.02C411.09-23.20 413.67-21.80 416.95-21.80ZM583.36-22.27C586.88-22.27 590.63-23.91 594.84-26.95C599.77-30.23 603.98-33.98 607.97-38.44C615.47-45.94 622.50-53.91 628.83-62.34L636.33-72.19C641.25-78.98 643.83-82.73 644.30-83.91C644.30-86.48 642.89-88.13 640.31-88.59C639.14-88.59 638.20-88.36 637.73-87.89C637.03-87.42 636.56-86.95 636.33-86.25C635.86-85.55 635.39-85.08 634.92-84.61L623.67-70.31C615.94-60 607.27-50.39 597.89-41.25C595.08-38.44 592.03-35.86 588.75-33.75C588.52-33.52 588.05-33.28 587.81-33.05C587.34-32.58 586.88-32.11 586.17-31.88C585.47-31.64 584.77-31.41 584.06-31.41C583.36-31.41 582.66-31.88 581.72-32.81C580.55-34.45 580.08-36.09 580.08-37.97C580.55-46.64 583.36-59.06 588.28-75.70L591.33-86.02L592.27-91.41C592.27-93.05 592.27-94.69 592.03-95.86C591.80-102.19 588.28-105.47 581.48-105.47C578.91-105.47 576.56-105.23 574.45-104.77C570.23-103.59 566.48-102.19 562.97-100.08C556.17-95.86 549.14-90.47 541.88-84.14C543.52-88.36 544.45-90.47 544.45-90.94C544.45-91.41 544.45-91.88 544.69-92.11C544.69-92.34 544.69-92.81 544.69-93.52C544.69-94.45 544.45-95.16 543.75-95.86C543.05-96.33 542.11-96.56 541.41-96.56C540.23-96.56 539.06-95.86 537.89-94.69L534.84-89.06C527.58-74.30 520.78-59.53 514.69-44.30C513.98-42.42 513.52-40.55 513.05-38.67L512.34-36.33C512.34-33.52 513.75-31.88 516.33-31.41C517.97-31.41 519.38-32.11 520.31-33.75C521.25-35.39 522.19-37.03 522.89-38.44C534.84-63.28 548.67-80.63 564.84-90.70C567.42-92.58 570-93.98 572.11-94.69C574.22-95.39 577.03-96.09 580.08-96.56C582.19-96.33 583.13-95.39 583.13-93.52C582.89-90.47 581.48-84.38 578.67-75C576.09-66.33 573.75-57.66 571.88-49.22L571.88-48.75C571.64-46.88 571.41-43.13 571.41-37.27C571.41-33.75 572.58-30.47 574.92-27.42C577.03-24.38 579.84-22.50 583.36-22.27ZM820.55 7.03C826.64 7.03 832.50 6.33 838.59 5.16C858.52 1.17 876.80-6.80 892.97-18.98C907.27-29.53 920.86-40.55 933.98-52.03C946.88-62.81 956.02-71.95 961.88-79.45C962.58-80.39 963.28-81.33 963.98-82.50C964.92-83.67 965.39-85.08 965.86-86.72C965.86-87.66 965.39-88.59 964.45-89.30C963.52-89.77 962.81-90.23 961.88-90.23C960.23-89.77 958.36-88.36 956.48-86.25C950.39-79.22 944.06-72.66 937.03-66.56C923.91-54.84 910.55-43.59 896.72-32.81C871.41-12.19 846.33-2.11 821.72-2.11C818.44-2.11 815.16-2.11 811.88-2.58C796.17-3.98 784.45-11.72 776.72-25.31C774.61-29.30 772.97-33.52 771.80-37.97C769.69-46.88 768.75-56.02 768.75-65.39L768.98-69.84C768.98-72.89 769.22-75.70 769.45-78.75C771.09-93.98 774.14-108.98 779.06-123.75C789.14-155.63 803.91-185.39 822.89-213.05C832.97-227.58 844.45-240.70 857.34-252.42C872.81-266.48 887.34-274.92 900.47-277.97C903.05-278.67 905.63-278.91 908.20-278.91L910.55-278.91C916.17-278.67 920.39-276.09 923.67-271.64C927.66-266.02 929.53-258.52 929.53-248.67C929.53-239.06 927.42-227.58 922.97-214.22C913.13-184.92 898.13-157.27 878.44-131.25C875.39-126.80 871.64-123.05 867.19-119.77C866.72-119.30 866.02-118.83 865.55-118.36C865.08-117.66 864.84-117.19 864.84-116.48C865.31-114.38 866.25-113.20 867.66-113.20L869.06-112.97C871.41-113.44 873.98-115.08 877.03-117.66C886.17-126.56 893.91-136.41 900.23-147.19C911.25-164.30 920.39-182.34 927.66-201.33C934.22-217.03 937.97-232.97 938.67-248.91C938.67-257.58 937.03-265.31 933.98-271.88C930-280.31 923.44-285.47 914.53-287.34C912.42-287.81 910.31-288.05 908.44-288.05C905.63-288.05 903.05-287.58 900.47-287.11C892.73-285.47 885.47-282.66 878.44-278.67C854.53-264.84 833.20-243.98 814.22-216.09C801.33-197.34 790.31-177.42 781.64-156.33C768.75-126.56 761.48-97.73 760.08-69.84L759.61-64.92L760.31-54.14C760.78-45.70 762.42-37.27 765.23-29.30C771.80-11.25 784.45 0.23 803.20 4.92C809.06 6.33 814.69 7.03 820.55 7.03ZM976.64-5.63C978.05-6.09 979.22-6.80 980.39-7.97C981.56-9.14 982.27-10.55 982.27-12.19C982.27-13.13 981.80-14.30 981.09-15.23C980.16-16.41 979.22-16.88 978.05-17.11C977.11-17.11 976.17-16.88 975.47-16.41C973.13-14.53 971.95-12.42 971.95-10.08C971.95-9.38 972.19-8.67 972.42-7.97C972.66-7.27 973.36-6.56 973.83-6.33C974.53-5.86 975.47-5.63 976.17-5.63Z" fill="#000000"/>
  </g>
</svg>