<svg width="712" height="299" viewBox="0 0 712 299" xmlns="http://www.w3.org/2000/svg">
  <g transform="translate(5.647229227134353, 194.35)">
    <path d="M13.60-56.10C21.76-87.38 37.06-114.58 58.14-138.72C75.48-158.44 99.62-177.48 126.82-177.48C145.18-176.12 154.02-161.84 152.66-144.50C150.62-118.32 133.96-91.80 113.22-73.10C108.12-68.34 101.66-62.90 93.84-62.22C77.86-61.88 80.58-85.34 84.32-94.52C84.66-95.54 84.32-96.56 83.30-96.56C82.96-96.56 82.62-96.22 82.28-95.54C77.18-84.66 75.48-60.52 93.16-59.50C102.68-59.50 111.52-67.66 118.66-74.46C138.72-93.84 157.08-121.38 155.38-151.30C154.36-168.98 141.44-180.54 124.44-180.54C103.70-180.54 79.90-164.22 64.60-149.60C38.08-123.08 20.06-91.46 10.20-55.08C0.68-17.34 6.46 38.42 54.74 38.42C82.62 38.42 111.18 19.38 131.92 2.04C163.88-26.18 185.64-60.52 198.90-100.64C208.76-133.96 211.14-171.02 188.36-200.60C172.04-219.30 148.24-226.78 123.08-226.78C91.46-226.78 57.46-214.88 33.66-198.90C32.98-197.54 32.64-195.84 33.66-195.84C33.66-195.84 34.34-196.18 34.68-196.52C56.78-212.50 90.44-223.72 121.72-223.72C151.98-223.72 180.20-213.18 194.14-186.32C206.72-164.22 205.70-135.32 198.56-110.50C187.34-69.36 165.92-34 134.98-4.42C114.92 14.62 88.74 32.30 59.84 35.70L55.76 35.70C7.82 35.70 4.42-16.32 13.60-56.10ZM187.68-58.82C196.18-75.82 224.40-106.42 240.72-110.84C234.94-103.02 226.78-97.92 218.62-92.82C215.22-90.44 210.80-87.72 209.10-85C207.74-82.96 208.42-80.92 210.80-79.90C212.16-79.22 214.20-78.88 216.24-78.88C231.54-78.88 257.38-91.46 269.28-99.96C270.30-100.64 270.64-101.66 268.60-102.00C255.68-93.84 232.56-81.94 216.58-81.94C214.20-81.94 212.50-82.28 211.14-82.96C212.16-85.34 216.92-88.40 219.64-90.10C227.46-95.20 239.70-103.70 242.42-109.82C243.10-111.52 242.76-112.88 240.72-112.88C230.18-112.20 207.74-89.76 201.62-82.96C205.70-89.42 213.86-101.66 219.98-110.84C220.66-111.86 223.38-115.26 224.40-115.94C225.42-116.96 224.74-119.00 223.38-118.32C222.02-117.64 219.30-114.58 218.28-113.22C205.36-95.54 194.82-76.84 183.94-58.48C182.58-56.44 181.90-55.08 183.26-53.72C183.60-53.38 183.60-53.38 183.94-53.38C185.30-53.38 187-57.80 187.68-58.82ZM241.74-55.76C249.56-67.32 256.02-79.22 264.52-90.10C265.20-83.98 268.94-81.94 273.70-81.94C283.90-81.94 304.64-93.50 312.80-98.94C313.14-99.28 316.54-101.32 313.14-102.00C305.32-96.90 283.56-84.32 273.70-84.32C271.66-84.32 269.62-85 268.26-86.36C266.56-89.08 266.90-92.48 269.62-94.18C274.38-97.58 279.14-100.98 284.24-104.04C287.64-106.42 291.38-108.46 295.12-110.50C295.80-111.18 297.16-111.52 296.48-112.88C296.14-113.22 295.80-113.56 295.46-113.56C293.08-113.56 272.34-100.30 269.28-97.92C279.48-114.58 291.04-131.58 301.24-148.58C302.26-150.62 303.28-151.64 302.26-152.32C301.92-152.32 301.92-152.66 301.58-152.66C300.56-152.66 299.88-151.30 299.20-150.28C279.14-119.34 259.76-88.40 239.36-57.12C238.68-56.10 237.66-54.40 239.02-53.38C240.04-52.70 241.06-54.40 241.74-55.76ZM330.82-88.06C328.10-82.28 314.16-54.40 320.62-49.64C320.96-49.30 321.64-49.30 321.98-49.30C328.44-49.30 342.72-64.94 346.80-68.68C358.02-79.90 369.24-92.14 381.48-102.68C378.08-95.88 372.98-89.42 368.56-82.62C367.54-81.26 366.86-79.90 368.22-78.88C368.56-78.54 368.90-78.54 369.24-78.54C369.92-78.54 370.26-78.88 371.28-79.90C382.84-90.78 399.16-105.06 408.00-109.82C404.60-104.04 400.18-96.56 400.52-89.42C400.86-86.36 403.24-84.66 406.30-84.66C413.10-85 427.04-93.16 436.56-99.96C436.90-100.30 437.24-101.32 435.54-102.00C429.08-96.90 413.10-88.06 406.64-87.38C404.60-87.38 403.58-88.06 403.24-90.10C403.24-96.22 407.66-104.72 411.40-110.84C411.74-111.18 411.74-112.20 411.40-112.88C411.06-113.22 410.38-113.56 410.04-113.56C408.34-113.56 406.64-112.54 404.60-111.18C394.74-104.04 385.90-96.22 376.72-89.08C380.12-94.18 383.52-99.96 386.92-105.40C387.60-106.76 387.60-107.44 386.58-108.46C386.24-108.80 385.90-108.80 385.56-108.80C384.20-108.80 382.84-107.44 381.82-106.76C361.42-89.76 333.54-56.10 323.68-51.68C323.34-51.34 323.00-51.34 322.66-51.34C321.98-51.34 321.64-51.68 321.64-52.70C320.28-63.58 334.90-87.38 341.02-102.68C341.70-104.04 341.70-105.40 340.34-106.76C340.00-107.10 339.66-107.44 338.98-107.44C338.30-107.44 337.28-106.76 336.60-106.42C328.44-99.62 312.12-86.02 308.38-85.68C308.04-89.42 312.80-97.24 316.20-102.34C317.90-104.04 318.58-105.40 317.22-106.08C316.20-106.76 315.18-105.06 314.16-103.70C310.08-98.26 306.00-91.80 306.00-86.70C306.00-83.64 307.02-83.64 309.74-83.64C317.22-86.70 329.12-97.58 338.64-104.38C336.94-99.28 333.88-94.18 330.82-88.06ZM612.00-173.06C555.56-157.42 515.44-95.20 498.78-39.10C494.36-24.48 491.64-5.78 498.78 9.52C503.20 18.70 511.70 22.44 521.90 22.44C523.60 22.44 525.64 22.44 527.68 22.10C579.36 10.88 648.72-73.44 674.22-121.72C686.12-144.50 697.68-176.12 692.92-201.96C689.52-220.66 673.20-236.30 647.36-236.30C620.84-236.30 597.38-223.72 576.30-208.76C554.20-192.78 529.72-172.04 514.42-152.32C512.72-149.94 510.00-146.54 510.00-144.50C510.00-143.82 510.68-143.48 511.02-143.48C511.36-143.48 512.04-143.48 512.04-143.82C512.72-144.84 513.40-145.52 513.74-146.20C530.06-169.32 552.84-187.68 576.30-205.36C595.68-219.64 622.88-233.58 647.36-233.58C664.36-233.58 686.12-223.72 689.86-202.30C694.96-172.72 682.72-144.50 668.44-117.30C646.00-77.52 617.10-43.18 582.76-13.60C568.82-1.02 540.94 19.72 521.22 19.72C513.06 19.72 505.58 16.66 501.16 7.82C494.36-5.78 497.42-23.12 501.16-38.76C517.14-93.16 558.28-154.36 611.32-170C614.38-171.02 617.44-171.36 620.50-171.36C630.02-171.36 639.54-166.94 640.90-157.08C644.30-137.36 628.32-112.54 613.02-96.90C610.64-94.52 607.92-92.14 604.18-91.12C602.48-90.78 601.12-91.80 601.12-93.50C600.78-94.52 601.46-96.90 601.46-98.94C601.46-99.28 601.46-99.96 600.44-99.96C599.76-100.30 599.42-99.96 599.08-99.28C598.74-97.58 598.06-94.86 598.74-92.14C599.08-89.42 600.78-88.40 603.50-88.40C608.60-88.40 613.36-93.16 618.46-98.26C632.40-113.56 647.36-137.02 643.28-158.78C641.24-169.66 631.72-174.08 621.18-174.08C618.12-174.08 615.06-173.74 612.00-173.06ZM672.52-86.36C671.50-86.36 669.80-84.32 669.80-82.96C670.14-81.94 671.16-80.92 672.18-80.92C673.54-81.26 674.90-82.62 674.90-83.98C674.90-85 673.54-86.36 672.52-86.36Z" fill="#000000"/>
  </g>
</svg>