<svg width="1088" height="524" viewBox="0 0 1088 524" xmlns="http://www.w3.org/2000/svg">
  <g transform="translate(-5.331249947938787, 340.6)">
    <path d="M38.50-80.50C36-50 35-20 43 13.50C48.50 35 59.50 67 83 72C159 90.50 213-122 206-232C204-255 201-283.50 189.50-303.50C165-347 99-343 49-254C22-205.50-1-121.50 38.50-81C38.50-81 38.50-81 38.50-80.50ZM49.50-71C63.50-65.50 81.50-64.50 99-70.50C102-71 101-75 97.50-74.50C83-72.50 65.50-75 51.50-83C48-84 80.50-217 115.50-207C125-203.50 123.50-198.50 127.50-200.50C134-203 107.50-240.50 73.50-184.50C54.50-153.50 47.50-126.50 40.50-91.50C-1-144.50 54-288.50 119.50-318.50C139-327.50 158.50-327 172.50-312C225-259.50 180.50-48.50 148.50 8.50C134 35.50 104.50 75.50 83 63.50C59.50 51 43.50-8 49.50-71ZM292-45.50C286-38 278-31 264.50-43.50C259.50-48 249.50-66.50 244.50-69.50C238.50-72.50 234-69 232-63.50C229-55.50 223-24 221-17C221-17 221-48 220.50-60C220.50-66 213-64.50 212-60C211.50-40 210.50-32.50 211.50-1C212 16.50 210.50 25 217 24.50C220.50 24 221 20.50 221.50 17C225 1 233-46.50 239.50-61.50C240-62.50 241-65.50 243.50-63C248-58.50 260.50-34 275-32C287-30 292-36 296.50-42C298.50-45.50 294.50-48 292-45.50ZM485-40C463.50 4 438 51.50 404 62.50C370.50 74 343 43.50 326.50 12.50C321 2 318-11 318-11C317-10 307.50 8.50 300 30.50C299.50 32 299 36.50 295 35.50C291 35 290.50 35 290.50 18C290.50 8.50 291.50-51.50 291.50-54C297-304 363-361 385.50-340.50C412-313 378-131 301.50-43.50C301-43 300 8.50 300.50 8.50C315.50-27 338.50-67.50 366-95C379-107.50 388.50-109 394-105C403-99 400-78 371-45.50C355.50-28 345.50-22.50 338-19.50C330.50-16.50 325.50-17 325-17C324.50-16.50 360 78.50 410 52.50C437.50 38 465-14 479-42.50C482-47.50 487.50-46 485-40ZM301.50-51.50C302.50-52.50 350-106.50 378.50-224C391-273.50 397.50-362.50 366-332C315.50-282.50 301.50-125 301.50-51.50ZM324-23.50C346-23.50 397.50-78.50 391-100C389-106.50 356.50-87.50 324-23.50ZM641-46C633.50-25.50 608.50 12 594 3C577-7.50 584.50-51 581.50-67C579.50-78.50 572.50-75 569-70C552-47 533-10 512.50-3.50C498.50 1 488-19 487.50-44.50C487.50-46.50 490-54.50 488.50-59C487.50-62.50 480.50-63.50 478.50-47C476-23.50 488.50 7.50 511.50 3.50C537-1.50 563.50-53.50 574-66.50C575-64.50 563 10.50 598 10C599.50 10 601 9.50 602.50 9C620.50 3.50 638-23.50 644.50-44.50C645.50-47 642-48 641-46ZM649-7.50C649-7.50 648.50-7.50 648.50-7.50C645-43.50 654-58.50 647.50-60C637.50-61.50 635.50-7.50 644-0.50C651.50 5 657.50-8 667.50-29.50C714-128.50 690-8.50 720 4.50C735 11 757.50-38 759.50-44C760.50-46.50 758.50-48 756.50-46.50C751.50-39 736.50-7 726.50-2C713 4.50 711-50.50 704-66.50C698-78 689-75 680.50-62.50C669-45.50 656.50-15.50 649-7.50ZM1049.50-47C1024 5.50 956.50 63 904.50 59C860 56 833.50-6.50 851.50-110.50C879.50-273.50 988.50-371 987.50-309C986.50-271.50 940-197.50 940.50-210C940.50-220 955-256.50 961-259.50C962-260.50 962-262.50 961-263C956-265.50 943.50-245.50 937.50-226.50C930.50-202.50 939-199.50 944-203.50C976.50-225.50 1020.50-337.50 974-337.50C883-316.50 790.50-49 862.50 41.50C875 57.50 893.50 67 914.50 66C986 63 1050-33 1054-44C1055.50-48.50 1051-49.50 1049.50-47ZM1074.50 0.50C1077.50 0.50 1080.50-2.50 1080.50-6C1080.50-9.50 1077.50-12.50 1074.50-12.50C1071.50-12.50 1068.50-9.50 1068.50-6C1068.50-2.50 1071.50 0.50 1074.50 0.50Z" fill="#000000"/>
  </g>
</svg>