<svg width="1836" height="864" viewBox="0 0 1836 864" xmlns="http://www.w3.org/2000/svg">
  <g transform="translate(7.0462422374631, 561.6)">
    <path d="M426.24-275.04C357.60-333.12 274.08-354.24 173.28-338.88C161.28-337.44 151.68-336 151.68-336C150.72-336.48 171.84-367.20 180.96-378.72C191.52-391.68 205.92-405.12 211.20-406.56C213.12-407.04 214.56-407.04 214.56-406.56C214.56-406.08 211.68-401.28 207.84-395.52C200.64-384.96 195.36-375.84 198.24-378.72C203.52-383.52 218.40-407.04 218.40-409.92C218.40-414.72 210.72-413.76 203.04-408C191.52-399.84 169.92-373.44 151.68-346.08C147.36-339.36 142.56-333.60 141.60-333.60C139.20-333.60 25.92-309.12 15.36-306.24C6.72-303.84 1.44-300 7.68-300C9.60-300 20.16-301.92 31.20-304.32C65.28-311.52 135.36-324.96 136.32-324C136.80-323.52 130.56-311.52 122.88-297.12C83.04-226.08 58.08-156 47.52-88.32C44.16-66.24 44.16-23.04 47.52-6.24C56.64 41.28 82.56 66.72 129.12 72.96C168.96 78.24 225.60 65.76 280.80 38.88C332.64 13.44 368.64-11.52 406.56-49.44C434.40-78.24 450.24-98.40 462.24-123.84C472.80-145.92 476.64-162.24 476.64-181.44C476.64-215.04 459.36-247.20 426.24-275.04ZM457.92-125.76C419.52-46.08 293.76 39.84 190.08 57.60C167.04 61.92 134.40 61.44 117.60 57.12C84.96 48.48 65.76 28.32 56.16-5.76C51.84-21.60 50.88-64.32 54.72-89.76C63.84-155.52 91.20-230.40 134.88-308.16L144.96-325.92L158.88-327.84C166.56-329.28 186.24-330.72 202.56-332.16C288-338.40 358.56-317.76 417.12-269.76C451.68-241.44 468.48-213.12 470.40-180.48C471.36-160.80 468.48-147.84 457.92-125.76ZM498.24-75.36C498.24-62.40 499.68-58.56 502.56-62.88C503.52-63.84 504.96-76.80 506.40-91.68C511.68-142.08 522.24-165.12 542.88-170.88C550.08-172.80 555.84-172.80 567.84-169.92C575.52-168 573.12-172.32 564.48-175.20C547.20-181.92 528.96-175.20 518.40-156.96C515.04-151.68 512.64-148.80 512.64-150.24C512.64-152.16 513.60-159.84 515.04-178.56C516.96-199.68 517.44-213.12 516-214.08C513.60-216.48 513.12-220.32 507.84-168.48C505.44-141.12 502.56-112.32 501.12-103.68C499.68-95.52 498.24-83.04 498.24-75.36ZM744.96-149.76C744.48-150.24 740.64-145.92 736.32-139.68C685.92-66.72 668.64-46.56 659.04-46.56C648.96-46.56 641.28-58.08 627.36-93.60C623.04-105.12 618.72-115.20 617.76-116.64C616.32-118.08 615.84-119.04 616.32-119.52C640.32-133.92 660.48-152.64 660.48-160.80C660.48-163.68 659.52-164.64 657.12-164.64C653.76-164.64 624.48-145.92 611.52-135.84C607.68-132.48 602.88-129.60 600.96-129.12C599.52-129.12 596.64-126.72 595.20-123.84C593.76-121.44 588.96-116.16 584.64-112.80C576.48-105.60 576.48-105.60 579.36-124.32C581.28-134.88 582.24-136.80 588-140.64C602.40-150.24 622.08-182.88 637.92-223.68C654.24-265.44 664.80-319.68 658.08-325.44C653.76-329.28 648.96-325.44 638.40-309.60C610.56-266.88 585.12-193.44 574.08-121.44C571.68-108 568.80-94.08 567.36-90.24C565.44-85.92 564.96-83.04 566.40-80.64C567.36-78.72 567.36-69.60 566.40-57.12C564.48-33.60 566.88-7.20 571.20 1.92C575.52 11.52 580.32 10.08 585.12-0.96C589.92-11.52 592.80-21.60 589.92-19.20C588.96-18.24 587.04-13.44 585.60-9.12C579.36 8.16 573.12 5.76 571.20-13.92C569.76-27.84 573.12-86.40 576-91.68C576.96-93.60 581.76-99.84 587.04-105.60C594.72-114.72 597.12-116.16 601.92-116.16C609.12-116.16 610.56-113.76 623.52-83.04C636-52.80 641.76-43.20 649.92-38.88C662.40-32.16 670.08-37.92 694.08-72.96C728.64-123.36 745.92-149.28 744.96-149.76ZM595.68-197.28C608.64-245.28 631.68-297.60 647.04-313.92L652.32-319.20L653.76-314.88C656.64-306.24 650.40-272.64 638.88-239.04C629.76-212.64 612.96-179.52 601.44-164.16C592.32-151.68 590.40-150.24 587.04-151.68C584.64-152.64 587.52-167.04 595.68-197.28ZM611.52-127.20C612.96-129.60 638.88-147.84 647.04-152.16L654.24-156.48L646.08-149.28C641.76-144.96 634.08-139.20 629.28-135.84C620.16-129.60 610.08-124.80 611.52-127.20ZM751.68-46.08C761.76-41.76 775.20-55.68 804.96-103.20C815.52-119.04 825.60-134.40 828.96-136.32L833.28-141.12L835.20-135.36C835.68-132.48 837.60-119.52 838.56-107.52C840-80.64 842.40-69.60 847.68-60.96C852-52.32 858.72-50.88 865.44-57.12C871.20-61.92 927.84-149.28 926.88-150.72C925.92-152.16 918.72-143.52 899.04-113.28C887.52-97.44 875.52-80.16 871.68-75.36C864-66.24 857.76-63.36 853.44-67.68C850.08-71.52 845.76-88.80 844.32-114.72C840.96-143.04 840-148.32 834.24-149.28C828.96-149.28 822.24-141.60 799.68-106.08C774.24-66.72 760.32-52.80 753.12-58.08C747.84-60.96 743.52-75.84 742.08-90.72C741.12-101.28 741.12-112.80 743.52-134.40C745.44-150.72 746.40-164.64 745.92-165.12C743.04-168.48 739.20-151.68 736.80-126.72C732.96-80.64 737.76-51.36 751.68-46.08ZM919.68-95.52C920.16-92.16 921.60-90.72 923.52-90.72C924.96-91.20 932.16-102.24 939.36-115.20C960.48-151.68 980.16-172.80 988.80-167.04C993.12-164.64 1000.32-149.76 1007.04-130.56C1017.12-103.20 1027.68-91.68 1044-91.68C1057.92-91.68 1085.76-119.52 1098.72-138.72C1105.44-149.28 1102.56-148.80 1093.92-137.76C1083.36-123.84 1060.32-100.80 1047.36-99.84C1036.80-98.88 1036.80-98.88 1029.60-106.56C1024.32-111.84 1020.48-118.08 1017.12-126.72L1007.04-153.60C1000.32-171.36 995.52-177.12 986.40-177.12C981.12-177.12 978.72-175.68 968.16-165.12C955.20-152.16 948.48-142.08 935.04-118.08C929.76-108.48 926.40-103.68 925.44-105.12C924-108 926.40-139.68 931.20-177.12C933.60-196.80 934.08-206.40 933.12-207.84C930.72-209.76 927.36-202.08 927.36-193.92C927.36-191.04 926.40-180 924.96-168.96C921.12-139.20 918.24-101.76 919.68-95.52ZM1304.64 60.48C1344 63.36 1400.16 56.16 1465.44 39.84C1536.48 22.08 1746.24-40.32 1761.60-48.48C1771.20-53.28 1766.88-54.24 1753.92-49.92C1704-32.64 1490.88 23.52 1425.60 36.96C1379.52 46.56 1361.76 48.96 1326.72 48.96C1300.32 48.96 1291.68 48 1281.60 45.60C1247.52 36.48 1232.64 19.68 1232.64-8.64C1232.64-26.40 1236.48-40.80 1248.48-65.76C1274.88-120 1319.04-178.08 1384.80-243.84C1466.88-325.44 1556.64-388.80 1621.92-410.40C1680.96-430.08 1719.84-419.52 1731.84-380.64C1734.72-370.08 1735.20-365.76 1734.24-345.60C1732.80-309.60 1720.32-248.64 1707.36-212.16C1701.12-194.88 1700.16-189.60 1703.04-191.52C1712.16-197.28 1740-306.72 1742.88-350.40C1745.76-386.88 1733.76-411.84 1708.32-423.36C1700.64-427.20 1695.36-428.16 1681.44-428.64C1642.56-430.56 1599.36-414.24 1533.60-373.44C1485.12-342.72 1439.52-306.24 1389.12-257.28C1301.76-171.36 1240.80-84 1228.32-25.92C1225.44-10.08 1225.44 8.16 1228.80 18.24C1236.48 41.76 1264.80 57.12 1304.64 60.48ZM1791.84-7.20C1794.24-1.92 1802.88-2.88 1808.16-9.12C1813.44-15.84 1817.76-29.28 1815.36-32.64C1813.44-33.60 1810.08-33.12 1805.28-30.72C1794.24-27.84 1788.48-16.80 1791.84-7.20Z" fill="#000000"/>
  </g>
</svg>