<svg width="1037" height="692" viewBox="0 0 1037 692" xmlns="http://www.w3.org/2000/svg">
  <g transform="translate(2.0845714285714294, 449.8)">
    <path d="M211.68-315.36C204-335.04 189.60-343.68 171.84-343.68C126.72-343.68 60.48-286.56 30.24-206.40C15.36-167.04 9.60-120 16.32-96.96C18.24-90.24 18.24-90.24 15.84-76.32C4.32-20.16 9.60 12.48 31.68 19.20C35.04 20.16 38.40 20.64 41.76 20.64C90.24 20.64 161.76-76.80 204.96-203.52C220.32-248.64 222.72-287.52 211.68-315.36ZM192.48-192.96C156.48-90.72 96.96-4.32 54.24 8.64C49.92 10.08 46.56 10.56 43.20 10.56C22.56 10.56 17.28-13.44 26.88-63.36C28.32-71.52 28.80-74.40 30.24-74.40C31.20-74.40 32.16-73.44 33.60-72.48C39.36-68.64 45.60-66.72 52.80-66.72C59.04-66.72 66.24-68.64 73.92-72C81.60-75.36 82.56-78.24 78.24-78.24C76.32-78.24 73.92-77.76 70.56-76.80C64.80-74.88 58.56-73.44 53.28-73.44C48.96-73.44 44.64-74.40 42.24-75.84C36-78.72 32.16-82.56 32.16-84.96C32.16-93.12 48.96-140.64 60-165.12C61.92-168.96 62.40-169.92 63.84-169.92C64.32-169.92 64.80-169.92 65.28-169.92C70.08-169.92 71.04-171.84 72.48-176.16C74.40-183.36 82.08-199.68 90.24-216.96C103.20-242.88 103.68-244.80 99.36-247.68C97.92-248.64 96.96-249.12 95.52-249.12C81.12-249.12 24.48-128.16 24.48-110.88C24.48-110.40 24-109.92 23.52-109.44C22.56-108.96 23.04-131.52 24-137.76C24.48-139.20 25.44-144.96 25.92-150.24C38.88-227.04 85.44-298.08 142.08-326.40C153.60-332.16 163.68-335.04 172.80-335.04C212.64-335.04 222.72-277.92 192.48-192.96ZM147.84 2.88C148.32 4.80 149.28 5.76 150.72 5.76C152.64 5.76 156.00 2.40 159.36-4.80C188.16-60.96 228.48-102.24 281.28-129.12C289.92-133.44 294.72-135.36 296.64-135.36C298.08-135.36 298.56-134.40 298.56-132.96C298.56-130.56 299.04-130.08 300.48-129.60C304.32-129.12 306.72-137.28 303.84-140.64C302.88-141.60 300.96-142.08 298.56-142.08C281.28-142.08 232.80-113.28 202.56-83.04C194.88-75.84 189.60-70.56 190.08-71.52C190.56-72.96 196.80-83.04 204.00-94.56C223.20-125.76 224.16-129.12 220.80-133.44C219.36-134.88 217.92-135.84 216.48-135.84C212.64-135.84 208.80-132.48 204.96-126.24C202.56-122.40 197.76-114.72 193.92-108.96C182.88-92.16 180.48-88.32 179.52-84C179.04-82.08 175.68-74.40 172.32-67.20C151.68-23.52 144.96-3.84 147.84 2.88ZM404.64-68.16C381.60-53.28 328.32-24.48 300.96-24.48C298.56-24.96 298.56-24.96 301.44-26.88C329.28-48.48 371.04-95.04 371.04-104.64C371.04-109.44 369.60-111.36 366.24-111.36C343.20-111.36 289.44-35.04 277.92-17.28C277.92-17.28 277.92-18.24 278.88-20.16C294.72-57.60 307.68-80.64 317.28-90.72C336.96-111.36 379.68-163.68 398.88-191.52C447.84-261.12 481.92-338.40 465.12-338.40C440.16-338.40 334.56-144.48 321.12-120C317.28-112.80 313.92-108 308.16-100.80C299.52-90.72 298.08-88.32 300-84.48C301.44-82.08 300.96-82.08 290.40-60C260.16 3.36 247.68 39.36 254.40 43.68C254.88 44.16 255.84 44.16 256.32 44.16C257.76 44.16 258.72 42.72 258.72 40.80C258.72 31.20 284.16-21.12 288.48-21.12C288.96-21.12 289.92-20.16 291.36-19.20C294.72-16.80 298.56-15.36 303.36-15.36C313.92-15.36 330.24-22.08 360.96-37.44C386.88-49.92 410.88-64.32 412.32-68.16C413.28-70.08 412.80-70.56 411.36-70.56C409.92-70.56 407.52-70.08 404.64-68.16ZM339.36-138.72C350.40-161.76 450.24-328.32 461.28-328.32C462.24-328.32 461.28-324.48 458.88-317.28C444-272.16 404.16-210.72 351.84-151.20C341.76-139.68 338.88-136.32 338.40-136.32C337.92-136.32 338.88-137.28 339.36-138.72ZM306.24-48.48C325.44-73.44 357.12-105.12 362.40-105.12C362.88-105.12 363.36-104.64 363.36-104.16C363.36-98.40 299.04-31.68 295.20-31.68C293.76-31.68 297.60-36.96 306.24-48.48ZM386.40-24.96C388.32-23.52 390.24-22.56 392.64-22.56C403.20-22.56 422.40-37.44 463.68-77.28C483.84-96.48 491.04-102.72 492-102.72C492.96-102.72 489.12-96 480.48-82.56C460.80-50.88 459.36-34.56 474.24-34.56C484.80-34.56 504-43.20 530.88-60C540.96-66.72 544.32-69.60 540.96-69.60C540-69.60 534.24-66.24 527.52-62.40C502.56-48 486.24-40.32 478.08-40.32C467.52-40.32 469.92-52.32 484.32-76.80C495.84-96.96 497.76-101.28 496.32-105.12C495.84-106.56 495.36-107.04 494.40-107.04C491.52-107.04 483.84-100.32 457.44-76.32C429.12-49.92 418.56-41.28 405.60-34.56C400.32-32.16 396.96-30.72 394.56-30.72C392.16-30.72 392.16-32.64 393.60-37.44C396.96-47.52 413.76-76.80 415.68-76.32C416.16-76.32 416.64-76.32 416.64-76.32C418.08-76.32 419.04-76.80 419.04-77.76C419.04-78.24 420.96-82.56 423.36-86.88C428.64-97.44 427.20-103.68 422.40-103.68C419.04-103.68 413.28-99.84 408-91.68C386.88-60.48 377.76-32.16 386.40-24.96ZM509.76-20.64C510.72-19.68 511.68-18.72 512.64-18.72C515.04-18.72 517.44-21.60 522.72-28.80C529.92-37.92 567.84-80.64 579.36-80.64C580.80-80.64 580.32-77.76 578.40-70.08C574.08-52.32 576.96-43.20 588.96-43.20C600-43.20 644.16-62.40 645.60-67.68C646.08-69.12 645.60-69.60 644.64-69.60C643.68-69.60 641.76-68.64 638.88-67.20C618.72-55.68 603.36-50.40 591.84-49.44C590.88-49.44 589.44-49.44 588.96-49.44C581.28-49.44 581.28-51.84 584.64-66.72C588-79.68 586.56-85.92 580.80-85.92C574.08-85.92 559.68-75.84 538.56-54.72C535.20-51.36 532.80-49.44 532.32-49.44C531.84-49.44 533.76-52.32 537.60-59.52C551.04-81.12 559.20-93.12 560.64-92.64C561.60-92.16 562.56-92.64 563.52-95.52C564.48-97.44 566.88-101.76 569.28-104.64C576-114.72 576.48-116.64 573.12-120C571.68-121.92 570.24-122.88 568.32-122.88C564-122.88 557.76-115.68 547.20-98.88C520.32-58.56 504.96-26.40 509.76-20.64ZM778.08 31.20C781.44 31.68 784.80 32.16 788.64 32.16C828 32.16 891.84 5.28 935.04-30.24C955.68-47.52 974.88-67.68 972.48-70.56C972-71.04 972-71.04 971.52-71.04C969.60-71.04 966.24-68.16 955.20-57.12C937.44-39.36 925.44-29.28 907.20-17.76C866.40 8.16 820.80 23.52 791.52 23.52C780.48 23.52 771.36 21.12 766.08 16.32C728.16-19.20 801.12-169.92 910.56-282.24C949.44-322.08 982.56-342.24 1000.32-342.24C1018.56-342.24 1020.96-321.60 998.40-280.80C981.60-250.56 936-197.76 911.52-180.96C902.40-174.72 904.80-167.52 911.52-167.52C913.44-167.52 916.32-168.48 919.68-170.40C924.96-173.76 941.76-190.08 954.72-204.48C1031.04-288.96 1038.24-351.84 1000.80-351.84C980.16-351.84 947.04-333.60 904.32-290.88C769.92-156.96 701.76 18.24 778.08 31.20ZM977.28-33.12C978.24-32.16 979.68-32.16 980.16-32.16C983.52-32.16 987.36-35.04 987.36-38.88C987.36-41.76 985.44-43.68 983.52-43.68C982.08-43.68 980.16-42.72 978.72-40.80C975.36-36.96 974.88-35.04 977.28-33.12Z" fill="#000000"/>
  </g>
</svg>