<svg width="1506" height="782" viewBox="0 0 1506 782" xmlns="http://www.w3.org/2000/svg">
  <g transform="translate(-9.14163001921856, 508.3)">
    <path d="M57.72-121.16C24.44-217.88 78-302.12 168.48-344.76C374.40-442 577.72-353.08 429.52-97.24C384.80-19.76 317.20 72.80 223.60 72.80C182.52 72.80 126.88 34.84 136.24-44.72C145.60-124.28 188.76-197.60 276.64-261.04C312.52-286.52 353.60-295.36 366.08-286.52C366.08-286.52 369.20-305.24 358.28-309.92C340.08-317.72 275.08-308.88 197.08-228.28C99.32-126.88 104.52-25.48 127.92 20.80C151.32 67.08 186.16 84.24 223.08 85.28C320.84 87.88 394.16 10.40 440.44-62.40C510.64-173.16 551.72-339.04 405.08-382.72C329.16-405.60 227.76-394.16 154.96-359.84C69.16-319.80 11.96-242.32 22.36-162.76C24.44-146.12 34.84-118.04 57.72-121.16ZM497.12-62.40C497.12-62.40 524.68-105.04 534.04-118.04C538.72-109.20 550.16-110.76 553.28-112.84C553.28-112.84 524.16-56.68 522.08-29.64C520.52-8.84 523.12 1.04 538.72 1.04C553.28 1.04 573.56-20.80 587.60-39C597.48-51.48 604.76-62.40 604.76-62.40L594.88-62.40C594.88-62.40 589.16-54.08 580.84-43.68C568.88-28.60 551.20-9.88 540.80-9.88C530.92-9.88 555.36-65.52 576.16-108.68C592.80-143.52 535.08-99.84 542.88-129.48C544.96-136.76 559-155.48 559-157.04C559-167.96 544.44-174.72 542.36-173.16C530.92-165.88 516.88-140.40 528.32-124.28C528.32-124.28 510.64-97.24 487.24-62.40ZM712.92-62.40C712.40-61.88 676-10.40 658.84-9.88C638.04-9.36 621.92-57.72 621.92-57.72L615.68-47.84C619.32-53.56 621.92-57.20 621.92-57.20C628.68-37.96 665.08-43.16 690.04-79.04C702.52-96.72 712.40-145.08 682.24-137.80C657.28-131.56 633.88-86.84 618.28-64.48C651.56-129.48 710.84-258.96 711.88-261.04C720.20-280.28 700.44-282.88 700.44-282.88C700.44-282.88 626.08-120.12 586.04-46.80C561.08-1.04 588.64 3.12 588.64 3.12C594.88-13.52 604.24-29.64 611.52-41.08C612.04-39 629.20 1.04 655.72 1.04C679.12 1.04 704.08-37.44 722.80-62.40ZM628.68-63.44C635.44-75.92 669.76-130.52 685.36-130.52C689-130.52 689-126.36 689-124.28C689-99.32 648.96-53.04 638.04-53.04C630.24-53.04 628.68-63.44 628.68-63.44ZM716.04-12.48C708.24-12.48 761.80-110.24 769.60-123.76C774.28-132.60 760.76-137.80 757.12-136.76C752.44-135.20 668.20-5.72 709.80 0C725.40 2.08 756.08-35.36 783.12-71.76C767.52-37.96 757.64-2.60 778.96 0.52C803.40 4.16 826.80-31.72 849.16-62.40L839.28-62.40C838.76-61.88 802.36-9.88 785.20-9.88C773.24-9.88 825.76-111.28 833.56-124.80C836.68-132.60 823.68-137.28 820.04-136.24C819-135.72 813.80-128.44 807.56-118.04C784.16-85.80 729.56-12.48 716.04-12.48ZM942.76-125.84C952.12-125.84 904.28-52 898.04-18.72C896.48-6.24 897.52 1.04 912.60 1.04C938.08 1.04 962-35.88 981.76-62.40L971.88-62.40C971.36-61.88 936-9.36 918.84-9.36C917.80-9.36 917.80-10.40 918.32-11.96C930.28-47.84 960.96-94.12 960.96-120.64C960.96-132.08 957.84-138.32 946.40-136.24C926.12-132.60 888.16-95.68 848.64-35.36C847.08-32.76 889.20-114.92 892.84-122.20C899.08-135.72 877.76-137.28 877.24-136.76C876.20-135.20 868.92-133.12 816.40-12.48C810.68 0.52 826.28 2.60 836.16-0.52C843.44-13.52 920.92-125.84 942.76-125.84ZM1369.68-217.88C1399.32-217.88 1469-240.76 1482.52-306.80C1493.96-362.44 1446.12-386.88 1405.56-391.56C1311.44-401.44 1142.96-330.20 1089.92-104C1071.72-25.48 1101.36 65.52 1168.96 87.88C1273.48 122.20 1369.68 43.68 1403.48-50.44C1404.52-57.20 1396.72-79.56 1389.96-79.56C1367.08 7.28 1288.56 74.88 1221.48 79.56C1160.12 83.72 1105 43.68 1109.68-62.40C1114.88-183.56 1211.08-379.60 1406.60-379.60C1476.80-379.60 1469-326.56 1466.92-314.08C1457.04-272.48 1400.88-232.44 1360.32-232.44C1345.76-232.44 1337.44-240.24 1337.44-240.24C1337.44-240.24 1339.52-217.88 1369.68-217.88ZM1487.20-37.96C1474.72-37.96 1468.48-29.12 1468.48-22.36C1468.48-15.60 1473.16-6.76 1483.56-6.76C1494.48-6.76 1502.28-11.44 1502.28-22.88C1502.28-35.36 1489.28-37.96 1487.20-37.96Z" fill="#000000"/>
  </g>
</svg>