<svg width="1001" height="480" viewBox="0 0 1001 480" xmlns="http://www.w3.org/2000/svg">
  <g transform="translate(9.599988664898632, 312)">
    <path d="M322.47-290.31C324.57-292.00 325.19-295.01 323.81-297.42C322.28-300.08 318.88-301.00 316.21-299.47C286.91-282.65 258.82-263.63 232.47-242.47C231.83-243.61 231.20-244.76 230.52-245.88C221.82-260.37 209.74-273.31 194.51-281.33C179.34-289.33 161.66-292.40 144.66-289.88C127.60-287.36 111.91-279.15 98.75-268.53C85.51-257.88 74.41-244.93 64.80-231.13C45.60-203.39 32.14-172.25 21.96-140.33C11.80-108.27 6.33-74.98 3.51-41.57C2.21-24.82 1.88-7.92 3.46 9.00C5.14 25.82 8.33 43.09 17.41 58.58C21.96 66.22 28.41 73.28 36.78 77.69C44.21 81.66 52.74 83.14 60.89 82.74C62.63 89.03 64.99 95.17 68.16 101.00C72.24 108.66 77.98 115.54 84.95 120.88C91.87 126.30 100.17 129.74 108.62 131.66C117.14 133.51 125.75 133.90 134.43 132.84C143.06 131.71 151.38 128.80 158.94 124.69C174.12 116.41 186.30 103.96 196.43 90.50C206.56 76.95 214.77 62.16 221.76 46.89C235.66 16.28 244.84-16.21 250.69-49.17C256.43-82.14 258.84-115.78 256.67-149.26C255.57-165.99 253.25-182.69 249.20-199.02C246.24-210.85 242.34-222.53 237.08-233.61C250.25-243.96 263.84-253.78 277.79-263.04C277.78-262.98 277.76-262.94 277.74-262.87C277.58-261.91 277.26-260.53 278.17-258.35C279.54-255.40 283.04-254.10 286.00-255.47C287.97-256.38 289.18-258.26 289.37-260.28C289.38-260.28 289.38-260.29 289.38-260.29C289.75-260.83 290.29-261.51 290.88-262.19C292.06-263.55 293.43-264.96 294.82-266.34C297.63-269.11 300.63-271.84 303.66-274.52C309.75-279.89 316.06-285.15 322.39-290.25ZM41.24 69.03C34.72 65.80 29.31 60.32 25.21 53.78C16.99 40.57 13.31 24.30 11.44 8.19C9.69-8.06 9.77-24.59 10.80-41.05C13.11-74.01 18.04-106.96 27.59-138.60C32.29-154.45 38.03-170.01 44.92-185.03C51.77-200.06 59.73-214.60 69.06-228.18C78.39-241.72 89.15-254.37 101.85-264.68C114.48-274.98 129.35-282.78 145.37-285.23C161.31-287.68 178.11-284.85 192.43-277.38C206.86-269.92 218.36-257.58 226.72-243.58C227.51-242.26 228.26-240.91 229.00-239.56C204.32-219.43 181.16-197.45 160.11-173.52C138.01-148.27 117.91-121.17 101.20-92.01C84.51-62.89 70.85-31.79 62.94 1.05C59.04 17.45 56.63 34.31 56.77 51.32C56.86 58.37 57.45 65.50 58.66 72.52C52.55 72.73 46.56 71.70 41.24 69.03ZM244.76-197.91C248.69-181.90 250.94-165.46 251.98-148.95C254.04-115.92 251.58-82.63 245.82-50.02C239.95-17.44 230.77 14.67 217.04 44.73C210.13 59.72 202.04 74.19 192.17 87.31C182.32 100.35 170.56 112.22 156.36 119.90C149.28 123.72 141.61 126.37 133.71 127.39C125.87 128.36 117.58 127.92 109.86 126.15C102.13 124.33 94.68 121.17 88.50 116.25C82.29 111.40 77.15 105.19 73.45 98.13C70.73 93.03 68.67 87.62 67.11 82.03C74.97 80.84 82.44 78.36 89.45 75.23C97.45 71.64 104.89 67.19 112.00 62.35C112.04 62.32 112.11 62.28 112.15 62.24C114.78 60.33 115.37 56.64 113.45 54.00C111.53 51.37 107.84 50.79 105.21 52.71L105.18 52.73C98.67 57.46 91.89 61.80 84.78 65.26C78.38 68.40 71.66 70.77 64.88 71.88C63.74 65.10 63.20 58.16 63.17 51.27C63.16 34.94 65.61 18.60 69.52 2.65C77.47-29.30 91.10-59.74 107.71-88.23C124.40-116.73 144.25-143.38 166.42-167.89C186.99-190.66 209.54-211.54 233.49-230.67C238.33-220.22 241.98-209.15 244.76-197.91ZM342.58-44.12L342.54-44.07C340.25-42.17 337.55-40.50 335.29-40.60C333.13-40.62 331.27-42.38 329.39-44.74C328.46-45.91 327.52-47.21 326.40-48.55C325.24-49.86 323.94-51.39 321.51-52.42C318.87-53.47 316.29-53.01 314.15-52.06C312.05-51.09 310.53-49.72 309.20-48.35C304.14-42.73 301.53-36.57 298.96-30.44C298.92-30.35 298.89-30.25 298.85-30.16C299.34-37.64 300.14-45.24 301.13-52.66L301.15-52.73C301.17-52.89 301.18-53.05 301.19-53.21C301.34-56.47 298.83-59.24 295.57-59.39C292.31-59.54 289.55-57.03 289.39-53.77C289.02-45.91 288.86-38.19 289.02-30.33C289.11-26.40 289.28-22.46 289.69-18.43C289.90-16.42 290.18-14.38 290.67-12.22C290.92-11.13 291.23-10.00 291.77-8.72C292.06-8.07 292.41-7.36 293.06-6.53C293.68-5.72 294.91-4.62 296.79-4.29C296.98-4.26 297.15-4.31 297.34-4.31C297.44-4.29 297.53-4.25 297.63-4.24C300.86-3.75 303.87-5.98 304.35-9.20L304.37-9.30C305.26-15.22 306.56-21.41 308.19-27.27C309.87-33.06 311.92-39.04 315.03-43.26C316.58-45.41 318.33-46.35 319.28-46.11C319.86-46.05 320.95-45.31 321.98-44.35C323.04-43.37 324.13-42.21 325.34-41.03C326.56-39.86 327.89-38.64 329.59-37.65C331.26-36.67 333.47-36.01 335.55-36.28C339.78-36.86 342.41-39.48 344.71-41.80C345.27-42.37 345.32-43.28 344.81-43.91C344.24-44.58 343.25-44.67 342.58-44.12ZM467.69-44.24C467.27-44.59 466.64-44.53 466.29-44.10C459.96-36.68 453.39-29.47 446.30-22.91C439.21-16.38 431.53-10.46 423.22-6.39C414.94-2.48 405.69-1.08 398.78-5.19C391.85-8.94 386.93-17.39 384.67-25.18L384.57-25.52C384.57-25.53 384.56-25.55 384.56-25.56C387.29-30.32 390.61-34.69 394.29-38.66C398.16-43.07 402.89-46.53 407.64-49.84L408.02-50.11C408.08-50.15 408.14-50.19 408.19-50.24C410.79-52.21 411.29-55.91 409.31-58.50C407.34-61.10 403.63-61.60 401.04-59.62C395.65-55.52 390.38-51.18 386.13-45.90C381.79-40.75 377.98-35.15 375.06-29.16C374.78-28.61 374.55-28.06 374.29-27.52C373.71-26.79 373.32-25.95 373.13-25.05C371.05-20.35 369.35-15.51 368.06-10.57C368.02-10.42 367.99-10.26 367.95-10.11C367.78-12.77 367.64-15.43 367.55-18.11C367.24-27.49 367.27-36.92 367.44-46.36C367.79-65.24 368.67-84.15 369.73-103.05C371.12-127.20 372.85-151.36 374.80-175.48C374.96-175.50 375.13-175.50 375.30-175.54C378.48-176.22 380.52-179.35 379.84-182.53L379.83-182.58C379.32-184.98 379.03-187.82 378.80-190.62C378.58-193.44 378.44-196.32 378.35-199.21C378.17-204.99 378.17-210.89 378.29-216.65L378.29-216.91C378.28-219.98 375.90-222.56 372.80-222.77C369.55-222.99 366.74-220.54 366.52-217.29C363.94-179.35 361.86-141.45 360.54-103.46C359.90-84.46 359.45-65.46 359.53-46.41C359.58-36.88 359.76-27.34 360.30-17.77C360.57-12.98 360.94-8.19 361.53-3.36C361.85-0.94 362.19 1.48 362.73 3.94C363.30 6.43 363.83 8.87 365.34 11.67C366.03 12.96 367.46 13.56 368.84 13.30C369.30 13.37 369.78 13.40 370.26 13.31C372.49 12.87 373.94 10.71 373.51 8.48C373.59 8.68 373.58 7.79 373.64 7.14L373.88 5.00C374.10 3.54 374.30 2.08 374.62 0.62C375.17-2.31 375.96-5.21 376.83-8.07C377.25-9.42 377.71-10.76 378.20-12.08C379.22-10.48 380.28-8.91 381.49-7.36C384.95-3.08 389.30 0.82 394.65 3.19C399.94 5.69 406.03 6.20 411.47 5.29C416.97 4.39 421.91 2.24 426.43-0.29C435.32-5.62 442.72-12.48 449.43-19.77C456.13-27.09 462.14-34.91 467.86-42.88C468.16-43.31 468.09-43.91 467.69-44.24ZM549.16-44.20C548.84-44.75 548.12-44.94 547.57-44.61C542.26-41.60 536.86-38.78 531.28-36.50C525.73-34.27 519.91-32.46 514.28-32.28C508.58-31.97 503.65-34.20 501.30-38.61C498.88-42.96 498.43-49.07 499.08-54.23L499.11-54.45C499.12-54.54 499.12-54.62 499.13-54.71C499.25-56.88 497.60-58.74 495.43-58.86C494.16-58.93 493.05-58.36 492.28-57.47C492.18-57.37 492.10-57.27 492.02-57.14C491.62-56.56 491.31-55.91 491.27-55.16C491.25-54.86 491.29-54.61 491.27-54.33C490.00-48.47 488.47-42.63 486.58-37.01C485.49-33.83 484.29-30.72 482.88-27.78C481.48-24.90 479.81-22.05 477.92-20.26C475.94-18.36 474.82-18.87 474.16-19.53C473.29-20.31 472.37-23.25 472.19-26.12C471.93-29.06 472.06-32.22 472.44-35.32C472.63-36.86 472.89-38.41 473.22-39.86C473.39-40.58 473.57-41.29 473.77-41.89C473.84-42.09 473.92-42.29 473.98-42.45C475.73-45.09 475.10-48.66 472.50-50.51C469.85-52.39 466.17-51.77 464.28-49.12C463.45-47.82 463.24-47.05 463.04-46.45C462.83-45.78 462.73-45.26 462.60-44.71C462.38-43.65 462.25-42.67 462.13-41.70C461.90-39.76 461.80-37.89 461.77-36.01C461.72-32.27 461.94-28.53 462.69-24.68C463.08-22.75 463.60-20.80 464.46-18.78C465.32-16.81 466.56-14.62 468.87-12.86C470.00-12.00 471.43-11.33 472.87-11.07C474.33-10.78 475.65-10.82 477.15-11.12C480.05-11.82 481.99-13.57 483.38-15.17C486.12-18.47 487.53-21.89 488.82-25.29C490.07-28.69 491.01-32.10 491.81-35.52C492.25-37.44 492.57-39.37 492.94-41.29C493.62-39.18 494.53-37.12 495.80-35.18C497.80-32.14 500.87-29.60 504.29-28.31C507.73-26.99 511.31-26.84 514.61-27.20C521.26-27.93 527.19-30.37 532.80-33.11C538.41-35.91 543.68-39.20 548.80-42.64C549.30-42.98 549.47-43.67 549.16-44.20ZM474.00-42.49C474.02-42.53 474.04-42.59 474.06-42.62C474.11-42.79 474.13-42.74 474.00-42.49ZM658.55-43.99C658.27-44.42 657.70-44.54 657.27-44.26C647.78-38.20 637.98-32.42 627.60-28.69C622.44-26.88 617.02-25.59 612.07-26.11C607.06-26.59 603.31-29.36 600.68-33.74C599.32-35.90 598.20-38.34 596.80-40.99C596.08-42.32 595.32-43.72 594.11-45.19C592.97-46.60 590.97-48.31 588.32-48.75C587.05-48.96 585.84-48.93 584.63-48.66C583.50-48.40 582.62-48.04 581.80-47.67C580.18-46.91 578.82-46.07 577.52-45.20C574.94-43.46 572.63-41.59 570.39-39.66C565.93-35.80 561.80-31.71 557.84-27.40C556.01-25.39 554.22-23.33 552.47-21.16C552.48-24.12 552.58-27.12 552.77-30.14C553.26-37.62 554.06-45.23 555.05-52.65L555.07-52.73C555.09-52.89 555.10-53.05 555.11-53.21C555.26-56.47 552.75-59.24 549.49-59.39C546.23-59.54 543.47-57.03 543.31-53.77C542.94-45.91 542.78-38.19 542.94-30.33C543.03-26.40 543.20-22.46 543.61-18.43C543.82-16.42 544.10-14.38 544.59-12.21C544.84-11.13 545.15-10.00 545.69-8.72C545.98-8.07 546.33-7.36 546.98-6.53C547.60-5.72 548.83-4.61 550.71-4.28C550.81-4.27 550.90-4.31 551.00-4.30C551.77-4.10 552.59-4.03 553.43-4.16C556.19-4.59 558.19-6.88 558.39-9.54C558.54-9.91 558.77-10.36 559.03-10.83C559.61-11.86 560.31-12.96 561.05-14.05C562.52-16.24 564.16-18.43 565.84-20.58C569.22-24.88 572.84-29.06 576.66-32.91C578.57-34.83 580.54-36.67 582.54-38.26C584.43-39.85 586.93-41.14 587.09-40.91C587.38-41.26 589.13-39.64 590.46-37.33C591.87-35.08 593.30-32.45 595.14-29.94C596.98-27.44 599.30-24.97 602.23-23.28C605.15-21.55 608.50-20.73 611.68-20.62C618.09-20.46 623.83-22.42 629.16-24.70C639.82-29.42 649.22-35.97 658.32-42.74C658.71-43.03 658.82-43.58 658.55-43.99ZM959.44-43.88C958.58-44.41 957.45-44.14 956.92-43.29C938.74-14.13 919.73 14.54 898.90 41.80C888.50 55.44 877.58 68.67 865.95 81.19C854.27 93.63 841.86 105.50 827.94 115.06C821.00 119.82 813.62 123.94 805.84 126.61C798.11 129.21 789.81 130.26 782.29 128.05C774.73 125.96 768.34 120.74 763.56 114.19C758.74 107.65 755.26 100.00 752.57 92.10C747.28 76.18 744.88 59.23 743.68 42.29C742.51 25.32 742.66 8.23 743.64-8.81C745.66-42.91 750.89-76.83 758.69-110.10C766.56-143.31 776.97-176.04 791.37-206.80C798.61-222.13 806.87-237.00 816.85-250.44C821.85-257.15 827.26-263.47 833.26-269.12C839.23-274.74 845.78-279.98 852.55-282.62C855.90-283.86 859.14-284.29 861.68-283.47C864.22-282.71 866.46-280.67 868.28-277.72C871.88-271.71 873.46-263.52 874.05-255.53C874.62-247.45 874.20-239.15 872.89-231.16C872.23-227.17 871.31-223.23 870.05-219.63C869.42-217.84 868.69-216.13 867.88-214.75C867.14-213.36 866.00-212.36 866.12-212.51C863.17-211.13 861.90-207.61 863.28-204.66C864.66-201.71 868.17-200.44 871.12-201.82C875.13-203.94 876.62-206.60 878.04-208.88C879.37-211.24 880.28-213.52 881.07-215.79C882.60-220.33 883.58-224.81 884.28-229.31C885.66-238.30 886.02-247.32 885.30-256.39C884.45-265.43 882.95-274.71 877.65-283.56C874.98-287.87 870.63-292.23 864.81-293.92C859.01-295.64 853.31-294.46 848.69-292.70C839.41-288.89 832.47-282.87 825.98-276.74C819.52-270.53 813.77-263.67 808.57-256.53C798.16-242.22 789.80-226.75 782.50-210.92C768.03-179.17 757.82-145.84 750.16-112.06C742.58-78.25 737.62-43.86 735.92-9.22C735.09 8.10 735.11 25.48 736.47 42.83C737.87 60.15 740.48 77.55 746.22 94.28C749.15 102.60 752.92 110.80 758.40 118.07C761.14 121.69 764.34 125.06 768.07 127.86C771.81 130.63 776.09 132.78 780.63 134.03C789.78 136.60 799.36 135.16 807.78 132.23C816.27 129.23 824.00 124.77 831.18 119.75C845.56 109.66 858.04 97.44 869.77 84.71C881.43 71.90 892.30 58.45 902.64 44.63C923.33 16.99 942.11-11.96 960.04-41.37C960.56-42.22 960.29-43.35 959.44-43.88ZM978.13-3.44C978.18-3.68 978.23-3.94 978.29-4.15C979.10-7.30 977.22-10.52 974.07-11.34C970.91-12.16 967.69-10.28 966.87-7.13C964.78 0.87 968.39 3.37 970.72 4.15C971.34 4.35 971.96 4.44 972.58 4.44C975.05 4.44 977.36 2.88 978.18 0.41C978.60-0.89 978.56-2.24 978.13-3.44Z" fill="#000000"/>
  </g>
</svg>