<svg width="1742" height="513" viewBox="0 0 1742 513" xmlns="http://www.w3.org/2000/svg">
  <g transform="translate(2.3764279879386834, 333.45)">
    <path d="M115.96-250.64C92.56-238.16 71.76-221.52 55.12-200.20C-11.44-117.52-10.40 8.32 94.64 8.32C215.28 8.84 306.28-115.44 305.76-228.80C305.76-286.52 277.16-334.36 214.76-333.84C158.08-333.84 124.28-296.92 115.96-250.64ZM232.96-269.88C223.08-271.44 213.72-271.96 203.84-271.96C177.32-271.96 150.80-266.76 126.36-255.84C136.76-294.32 166.40-323.44 214.76-323.44C270.92-322.92 291.72-278.72 291.72-228.80C291.20-122.20 206.44-5.72 94.64-5.20C-0.52-5.20 3.64-121.16 62.40-195C76.96-213.20 94.64-227.76 114.40-239.20C108.68-183.56 136.76-117 201.76-82.16L205.92-89.44C141.96-123.76 115.96-190.84 124.28-244.40C149.24-256.88 176.80-263.64 204.88-263.64C213.72-263.64 223.08-263.12 231.92-261.56ZM284.96-19.76C300.04-29.64 323.96-48.36 334.88-79.56C343.72-75.40 354.64-73.32 365.04-73.32C372.84-73.32 380.64-74.88 387.92-76.96C358.28-32.24 380.12 2.08 421.72 2.08C439.40 2.08 460.72-4.16 483.08-18.72L478.92-26C459.16-13.52 439.40-7.80 423.80-7.80C385.32-7.80 367.64-41.08 415.48-87.36C422.24-94.64 416-103.48 408.72-103.48C406.64-103.48 404.56-102.96 402.48-100.88C394.16-92.56 380.12-85.80 363.48-85.80C352.04-85.80 339.04-89.44 327.08-97.24C321.36-65.52 305.76-44.72 279.24-26L283.40-18.72ZM518.44 2.08C520.52-5.72 525.20-24.44 531.44-47.32C544.44-60.32 554.84-71.24 563.68-80.08C568.88-41.60 585.52 0.52 631.28 0.52C651.56 0.52 678.08-7.28 694.20-18.72L690.04-26C676.52-16.64 653.64-9.36 634.92-9.36C589.16-9.36 578.24-52 574.08-89.96C590.20-105.04 608.92-118.56 631.80-118.56C646.36-118.56 656.24-112.32 655.72-100.88L663-100.36C664.04-117 651.56-127.92 631.80-127.92C599.56-127.92 574.08-103.48 552.76-82.16C581.36-119.08 606.84-163.28 618.28-196.04C632.32-236.60 627.12-257.40 614.64-257.40C603.72-257.40 587.60-241.80 573.04-210.08C554.32-169 536.12-107.64 523.12-61.88C508.04-45.76 492.96-32.76 478.92-26L483.08-18.72C494.52-24.44 506.48-33.28 518.44-44.72C513.24-24.44 509.08-8.84 507.52-2.08ZM540.80-81.64C552.76-122.72 567.32-170.04 582.40-203.84C593.32-228.80 606.84-245.44 614.12-245.44C620.36-245.44 620.88-231.92 609.96-199.68C598.52-165.36 570.96-119.08 540.80-81.64ZM759.72-106.60C751.40-96.20 741-81.12 733.20-65C722.28-49.40 707.20-36.92 690.04-26L694.20-18.72C704.08-24.44 713.44-31.20 721.76-38.48C715.52-20.28 715-4.16 726.44 1.04C729.04 2.08 732.16 2.60 735.28 2.60C758.16 2.60 797.16-23.40 827.32-57.20C814.32-18.20 827.32 0.52 851.24 0.52C865.80 0.52 883.48-6.24 902.20-18.72L898.04-26C846.56 6.76 809.64-6.24 854.88-87.36C859.56-96.20 856.96-102.44 852.80-102.44C849.68-102.44 846.04-100.36 842.40-94.12C812.76-46.28 757.64-7.80 735.80-7.80C733.72-7.80 732.16-8.32 730.60-8.84C723.32-11.96 729.04-35.88 742.56-62.92C749.32-76.44 757.64-89.44 767-101.40ZM1136.72-26C1115.92-11.44 1097.20-5.20 1082.12-5.20C1045.72-5.20 1031.68-41.60 1068.60-88.40L1069.12-88.92C1073.80-95.68 1067.56-104 1061.32-104C1059.24-104 1057.16-103.48 1055.60-101.92C1051.96-99.32 952.12-24.44 930.28-7.80C938.08-34.32 945.88-63.96 956.80-95.68L943.28-99.84C939.12-88.40 935.48-76.96 932.36-66.04C923-45.76 907.40-32.76 898.04-26L902.20-18.72C907.40-21.84 915.20-27.04 923-34.32C920.40-24.44 917.80-14.56 914.68-5.20C913.64 2.08 918.84 6.24 924.56 6.24C927.16 6.24 930.28 5.20 932.36 3.64C962.52-21.32 1011.40-52.52 1044.16-75.92C1020.76-30.16 1041.04 5.20 1080.04 5.20C1097.20 5.20 1118.52-2.08 1140.88-18.72ZM1278.16-304.72C1306.24-271.44 1350.44-248.04 1396.72-233.48C1377.48-205.92 1363.96-173.16 1358.76-137.80C1344.72-37.44 1431.04 5.20 1512.68 5.20C1570.92 5.20 1627.08-16.12 1642.68-54.08C1653.08-56.16 1664-58.24 1673.88-61.36L1671.80-69.68C1663.48-67.08 1654.64-65 1645.80-63.44C1655.68-107.64 1610.44-150.80 1516.84-150.28C1489.80-149.76 1437.28-141.96 1437.28-102.44C1437.28-66.04 1500.72-47.32 1571.96-47.32C1589.64-47.32 1607.84-48.36 1625.52-50.96C1607.84-24.44 1561.04-8.84 1512.68-8.84C1438.84-8.84 1359.80-45.24 1372.28-135.72C1376.96-170.56 1391.00-202.80 1410.76-229.32C1446.12-219.96 1483.56-214.24 1520.48-214.24C1569.36-214.24 1644.76-225.68 1650.48-270.40C1655.16-307.84 1608.88-326.56 1570.92-326.56C1504.36-326.56 1442.48-293.28 1402.44-241.28C1356.16-255.32 1312.48-277.68 1285.44-309.92ZM1630.20-60.84C1610.96-57.72 1591.72-56.68 1573-56.68C1505.92-56.68 1447.16-74.36 1447.68-102.44C1447.68-135.20 1502.28-136.24 1516.84-136.24C1607.32-135.20 1640.08-97.24 1631.76-65C1631.24-63.44 1630.72-61.88 1630.20-60.84ZM1417.00-237.64C1454.96-283.40 1511.12-312.52 1570.92-312.52C1599-312.52 1639.56-299.52 1636.96-272.48C1632.80-238.68 1564.68-224.64 1513.72-224.64C1484.08-224.64 1450.28-228.80 1417.00-237.64ZM1726.92-26C1726.92-31.72 1724.32-35.36 1718.60-35.36C1707.68-35.36 1694.68-19.24 1694.68-8.84C1694.68-4.16 1696.76 0 1702.48 0C1713.40 0 1726.92-15.60 1726.92-26Z" fill="#000000"/>
  </g>
</svg>