<svg width="1847" height="1105" viewBox="0 0 1847 1105" xmlns="http://www.w3.org/2000/svg">
  <g transform="translate(12, 718.25)">
    <path d="M296.64-558.24C180.96-558.24 0-391.68 0-260.16C0-206.40 31.68-170.40 71.52-147.36C45.60-78.72 40.32-23.52 40.32-1.92C40.32 60 66.24 84.96 108 84.96C168.48 84.96 300.48-34.56 363.84-196.32C455.04-428.64 412.32-558.24 296.64-558.24ZM334.08-204.48C280.32-51.36 136.80 61.44 91.68 61.44C70.08 61.44 67.68 32.16 67.68 32.16C66.72-25.92 80.64-82.56 100.80-133.44C152.16-113.28 206.88-109.92 225.12-115.20C261.60-126.72 263.52-141.60 263.52-141.60C258.24-137.76 176.16-131.04 110.40-155.52C156.48-258.72 223.68-333.12 228.96-336.96C237.12-342.72 227.04-360.96 211.68-359.04C146.40-295.68 105.60-228.48 80.16-169.44C50.40-187.68 28.32-215.52 28.32-257.76C28.32-394.56 204-533.28 316.80-533.28C343.20-533.28 434.88-492 334.08-204.48ZM566.88-144C560.64-140.64 496.80-65.76 451.68-56.64C451.20-80.64 498.24-150.72 498.24-150.72C493.92-166.08 480.48-163.20 480.48-163.20C468-148.80 444-138.24 427.68-139.20C446.88-164.64 467.52-196.32 467.52-208.32C467.52-227.52 446.40-235.68 439.20-235.68C432-235.68 387.84-217.92 387.84-165.60C387.84-148.32 394.56-136.80 401.76-129.60C396.48-122.88 393.12-117.12 390.72-113.76C391.68-101.76 398.40-105.12 398.40-105.12C401.76-108 407.04-113.76 412.80-120.96C423.84-116.16 435.84-116.16 444-117.12C435.36-107.04 422.40-89.76 422.40-69.60C422.40-46.56 441.60-38.40 448.80-36.48C448.80-36 448.80-36 448.80-36C448.80-36 449.76-35.52 451.20-35.52C451.20-35.52 451.20-35.52 451.20-35.52L451.20-35.52C461.28-35.04 500.64-40.32 574.08-139.20C574.08-139.20 573.60-147.84 566.88-144ZM411.36-157.44C412.80-203.04 447.36-212.16 447.36-212.16C445.92-194.40 429.12-168.48 413.28-147.36C411.84-150.24 410.88-153.12 411.36-157.44ZM769.44-144.48C763.20-141.12 700.32-67.68 655.20-57.60C640.80-57.60 630.24-71.04 624.96-79.68C655.20-78.24 682.56-121.44 682.56-138.24C682.56-145.44 679.20-162.72 658.56-162.72C634.08-162.72 592.32-113.28 566.40-79.20C576-99.84 588.48-125.28 602.40-153.60C640.80-179.52 756-264.48 756-342.24C756-384.96 730.08-388.80 720.48-388.80C710.88-388.80 671.04-377.76 526.08-53.76C526.08-53.76 532.32-36.96 543.84-36.48L543.84-36.48L543.84-36.48C544.32-36.48 544.32-36.48 544.80-36.48C554.40-36.48 554.88-36 554.88-36C570.24-56.64 584.16-72.96 596.64-86.88C612.48-48.48 642.72-38.88 651.36-36.48C651.36-36.48 651.84-36.48 651.84-36.48C651.84-36.48 690.72-24.48 776.64-139.68C776.64-139.68 776.16-148.32 769.44-144.48ZM730.08-362.88C730.08-362.88 744.48-293.76 621.12-190.08C656.16-257.28 697.44-327.84 730.08-362.88ZM665.28-145.44C652.32-114.72 626.40-104.16 609.12-100.32C647.52-140.16 665.28-145.44 665.28-145.44ZM966.24-144C960-140.64 896.16-65.28 851.04-56.64C850.56-57.12 843.84-61.92 883.68-136.32C883.68-136.32 893.76-156 864.96-160.32C864.96-160.32 855.84-146.40 845.28-128.64C826.08-106.56 791.04-69.60 767.52-60.48C767.52-60.48 767.52-84 807.36-144.96C807.36-144.96 804.48-167.04 782.88-164.64C782.88-164.64 737.76-100.80 737.76-64.80C737.76-48.48 757.44-39.36 765.60-39.36C771.36-39.36 791.52-45.12 822.24-79.68C819.84-72.96 818.88-66.24 819.36-61.44C819.36-61.44 826.56-35.52 850.56-35.52L850.56-35.52C859.20-35.04 898.56-38.40 973.92-139.20C973.92-139.20 972.96-147.84 966.24-144ZM1171.68-143.52C1165.92-140.16 1108.32-73.44 1064.16-58.56C1066.56-63.84 1069.44-69.12 1072.80-73.92C1082.40-89.28 1105.44-122.40 1105.44-140.16C1105.44-157.44 1094.40-166.08 1080.48-166.08C1067.52-166.08 1042.08-149.28 980.16-74.88C988.80-93.60 998.88-120 998.88-133.92C998.88-157.44 972.96-166.56 966.72-157.92C966.72-150.72 970.56-138.24 955.68-111.36C940.32-84.96 936-71.52 936-61.92C936-52.32 953.76-35.04 964.32-35.04C975.36-35.04 1021.44-102.72 1067.04-133.44C1067.04-133.44 1062.24-122.88 1052.16-107.52C1042.08-91.68 1030.56-73.92 1030.56-60.96C1030.56-47.52 1042.56-37.44 1054.08-35.52C1054.08-35.52 1092.96-23.52 1178.88-138.72C1178.88-138.72 1178.40-147.36 1171.68-143.52ZM1420.80 109.44C1549.92 109.44 1683.84-99.36 1679.52-129.12C1679.52-129.12 1677.60-138.24 1668-123.84C1657.92-108.96 1488.48 117.60 1389.12 81.60C1322.88 57.60 1368.96-148.32 1462.08-283.68C1574.88-446.88 1723.20-532.80 1791.84-513.12C1791.84-513.12 1801.92-471.84 1758.24-407.52C1690.08-307.20 1562.88-220.32 1540.80-205.92C1540.80-205.92 1535.04-199.20 1559.52-210.72C1583.52-222.72 1807.68-326.40 1822.08-491.04C1825.44-528 1817.76-547.68 1771.68-547.68C1655.52-547.68 1529.76-431.52 1444.80-317.28C1308.96-134.40 1274.88 109.44 1420.80 109.44ZM1709.76-24.48C1719.36-19.20 1732.80-24.48 1739.04-36.48C1745.76-48.48 1743.36-62.40 1733.76-67.68C1724.16-72.96 1710.72-67.20 1704.48-55.68C1697.76-43.68 1700.16-29.76 1709.76-24.48Z" fill="#000000"/>
  </g>
</svg>