<svg width="2595" height="781" viewBox="0 0 2595 781" xmlns="http://www.w3.org/2000/svg">
  <g transform="translate(-4.171036944088989, 507.65000000000003)">
    <path d="M632.13-304.20C631.43-368.07 616.19-420.20 586.82-459.13C546.90-512.06 483.57-537.29 398.56-534.10C347.22-532.18 297.38-518.68 250.42-493.97C207.91-471.60 168.78-440.67 134.12-402.03C70.77-331.42 27.39-239.07 18.06-154.99C10.33-85.30 26.56-29.12 62.61 5.88C60.16 43.56 62.67 81.65 74.18 115.29C83.95 143.86 99.50 167.17 120.39 184.56C142.96 203.36 171.85 215.29 206.25 220.01C215.85 221.33 225.53 221.99 235.29 221.99C266.42 221.99 298.23 215.28 330.19 201.92C369.08 185.66 407.18 160.04 443.42 125.75C513.88 59.10 571.10-34.00 604.57-136.42C617.54-176.12 632.85-237.47 632.13-304.20ZM572.55-146.88C556.80-98.67 535.42-52.45 509.01-9.50C482.80 33.10 452.95 70.37 420.28 101.28C387.00 132.76 352.33 156.16 317.20 170.84C280.85 186.03 245.06 191.35 210.83 186.65C156.71 179.21 122.43 152.30 106.04 104.38C98.74 83.04 95.20 57.67 95.35 29.10C104.21 33.56 113.76 37.16 123.96 39.86C132.96 42.24 142.17 36.87 144.55 27.88C146.92 18.89 141.56 9.67 132.57 7.30C119.36 3.81 107.66-1.54 97.51-8.72C101.66-48.54 111.81-93.04 127.80-140.53C157.90-229.95 200.34-303.98 226.70-330.89C233.21-337.53 233.10-348.20 226.46-354.70C219.81-361.21 209.15-361.10 202.64-354.46C168.23-319.33 124.33-235.77 95.88-151.27C86.46-123.31 75.08-84.18 68.13-41.64C67.02-43.61 65.96-45.63 64.95-47.70C51.68-74.91 47.03-110.73 51.53-151.28C60.11-228.64 100.36-313.97 159.19-379.54C191.17-415.19 227.14-443.66 266.10-464.16C308.56-486.51 353.55-498.71 399.82-500.45C473.15-503.20 527.03-482.47 559.93-438.85C615.50-365.17 602.89-239.72 572.55-146.88ZM707.05 21.23C708.65 18.57 710.34 15.75 712.09 12.81C722.82-5.13 736.18-27.44 749.24-45.78C764.14-66.68 772.40-73.38 775.82-75.48C778.36-73.06 782.12-68.71 785.06-65.32C797.00-51.53 813.36-32.65 836.88-24.15C865.43-13.84 896.19-21.94 928.30-48.20C934.54-53.31 935.46-62.50 930.35-68.74C925.25-74.98 916.06-75.90 909.81-70.80C885.88-51.21 865.27-44.94 846.80-51.61C830.44-57.51 817.51-72.44 807.12-84.43C797.20-95.88 789.37-104.93 778.37-105.51C760.67-106.44 742.87-88.91 718.10-51.90C718.91-55.40 719.80-58.73 720.78-61.81C723.22-69.49 718.98-77.70 711.30-80.14C703.61-82.59 695.41-78.34 692.96-70.66C686.48-50.27 683.69-22.78 681.65-2.70C681.07 3.06 680.56 8.04 680.07 11.81C679.18 18.67 683.21 25.21 689.73 27.48C691.31 28.03 692.94 28.30 694.54 28.30C699.54 28.30 704.35 25.71 707.05 21.23ZM1165.72-59.78C1159.99-65.44 1150.75-65.39 1145.08-59.65C1112.05-26.23 1078.82-12.29 1046.34-18.23C1019.81-23.07 1000.47-40.09 991.75-50.56C1001.68-59.31 1011.68-65.83 1019.51-65.16C1027.54-64.49 1034.60-70.44 1035.28-78.48C1035.96-86.51 1030.00-93.57 1021.97-94.25C992.55-96.74 965.99-67.61 944.63-44.21C940.99-40.21 936.43-35.22 932.24-30.96C932.72-39.25 934.24-52.16 938.08-71.91C943.60-100.25 952.70-136.40 963.70-173.70C974.56-210.52 986.50-245.84 997.30-273.17C1011.68-309.52 1019.29-319.66 1021.41-322.02C1027.55-324.34 1031.56-330.61 1030.74-337.42C1029.78-345.42 1022.52-351.13 1014.51-350.17C1002.25-348.70 990.89-336.94 969.10-281.21C951.40-235.92 932.09-173.86 918.70-119.24C911.76-90.92 906.86-66.18 904.53-47.70C901.24-21.67 902.68-7.79 909.50 0.21C913.23 4.58 918.44 6.95 924.00 6.95C925.40 6.95 926.83 6.80 928.26 6.49C940.27 3.88 951.15-8.04 966.20-24.53C967.74-26.23 969.37-28.01 971.07-29.85C984.48-14.37 1008.59 4.55 1041.09 10.49C1047.81 11.72 1054.38 12.28 1060.80 12.28C1105.00 12.28 1141.69-14.70 1165.84-39.13C1171.51-44.87 1171.45-54.11 1165.72-59.78ZM1425.10-67.96C1419.81-74.04 1410.59-74.68 1404.51-69.38C1386.52-53.72 1345.50-44.76 1309.09-48.56C1286.84-50.88 1269.96-57.66 1262.78-67.17C1259.47-71.55 1253.99-73.70 1248.60-72.75C1243.20-71.80 1238.79-67.90 1237.18-62.66C1233.84-51.81 1220.75-16.19 1192.28-13.70C1186.62-13.21 1176.56-13.33 1172.66-19.73C1168.71-26.20 1170.99-38.04 1178.46-49.89C1182.76-56.71 1180.72-65.72 1173.90-70.02C1167.08-74.32 1158.07-72.28 1153.77-65.46C1140.02-43.66 1137.77-20.88 1147.74-4.53C1155.68 8.48 1170.31 15.66 1188.47 15.66C1190.54 15.66 1192.66 15.57 1194.81 15.38C1228.00 12.48 1247.15-13.73 1257.13-34.11C1268.07-27.53 1283.71-21.85 1306.06-19.53C1326.68-17.38 1349.44-18.70 1370.15-23.25C1385.91-26.71 1407.99-33.70 1423.68-47.37C1429.76-52.66 1430.39-61.88 1425.10-67.96ZM1736.37-73.13C1730.70-78.86 1721.46-78.91 1715.72-73.24C1691.71-49.49 1629.11-25.42 1605.92-31.03C1591.09-34.61 1585.41-40.52 1577.55-48.71C1569.60-56.98 1559.71-67.28 1540.08-74.35C1505.19-86.93 1466.93-59.84 1438.98-40.06C1434.93-37.18 1430.09-33.76 1425.89-31.00C1426.04-32.34 1426.27-33.86 1426.60-35.58C1428.26-44.22 1431.61-53.62 1434.31-61.17L1434.37-61.33C1437.08-68.92 1433.12-77.27 1425.53-79.98C1417.94-82.69 1409.59-78.74 1406.88-71.15L1406.82-70.98C1399.87-51.53 1389.37-22.14 1403.33-4.10C1405.78-0.93 1410.36 3.05 1417.91 3.05C1422.10 3.05 1427.21 1.82 1433.38-1.46C1439.81-4.88 1447.25-10.14 1455.85-16.24C1477.27-31.40 1509.62-54.31 1530.18-46.89C1543.39-42.13 1549.46-35.81 1556.50-28.48C1565.62-18.99 1575.95-8.23 1599.07-2.65C1622.00 2.89 1654.01-7.32 1671.05-13.89C1697.92-24.26 1722.29-38.69 1736.25-52.49C1741.98-58.16 1742.03-67.40 1736.37-73.13ZM2517.84-89.90C2509.89-94.72 2499.53-92.19 2494.70-84.24C2449.44-9.66 2393.78 51.49 2333.76 92.59C2274.35 133.26 2213.61 152.17 2158.11 147.26C2110.91 143.09 2078.01 121.68 2060.32 83.65C2039.03 37.84 2039.53-32.45 2061.73-114.28C2082.71-191.60 2122.24-275.11 2170.19-343.40C2203.57-390.93 2239.96-429.70 2275.43-455.52C2312.79-482.72 2347.75-495.08 2379.36-492.26C2390.34-491.28 2405.62-486.55 2411.59-456.88C2417.49-427.51 2411.96-381.84 2396.79-334.72C2384.61-296.85 2371.02-272.67 2362.79-262.47C2358.41-267.29 2351.43-269.33 2344.87-267.09C2336.07-264.09 2331.37-254.52 2334.38-245.72C2340.76-227.00 2354.37-222.50 2364.96-224.54C2376.27-226.71 2386.79-236.18 2398.07-254.35C2406.68-268.20 2415.28-286.50 2422.94-307.25C2440.35-354.46 2449.25-403.09 2447.36-440.65C2443.86-510.02 2405.12-523.78 2382.35-525.81C2342.38-529.37 2299.74-514.88 2255.60-482.75C2217.18-454.78 2178.11-413.29 2142.63-362.76C2092.52-291.40 2051.18-204.05 2029.22-123.10C1998.11-8.41 2012.35 60.36 2029.78 97.85C2052.58 146.88 2095.93 175.57 2155.14 180.81C2161.87 181.40 2168.65 181.70 2175.49 181.70C2232.99 181.70 2293.86 160.72 2352.78 120.38C2416.73 76.59 2475.76 11.88 2523.49-66.76C2528.32-74.71 2525.79-85.07 2517.84-89.90ZM2576.76-12.51C2564.48-15.79 2546.61-10.17 2540.12 5.61C2534.21 19.97 2535.66 30.79 2544.47 34.65C2552.88 38.33 2571.50 28.02 2580.74 14.37C2589.46 1.51 2589.04-9.24 2576.76-12.51Z" fill="#000000"/>
  </g>
</svg>