<svg width="688" height="338" viewBox="0 0 688 338" xmlns="http://www.w3.org/2000/svg">
  <g transform="translate(41.556966297039956, 219.70000000000002)">
    <path d="M135.72-178.10C98.80-206.18-3.90-132.34 13.78-63.70C5.98-52.52-14.56-1.82 7.02 8.32C26.52 17.42 76.18-24.18 110.76-71.50C141.44-113.36 160.16-159.64 135.72-178.10ZM106.34-76.44C91.78-56.42 27.04 14.56 10.14 2.60C-2.60-6.24 10.14-44.20 18.20-55.90C19.76-52.78 40.04-35.10 45.24-48.10C47.06-52.52 29.38-52 23.92-62.66C30.94-82.68 75.92-138.32 94.12-141.96C110.50-145.34 86.32-172.90 20.80-71.24C0.52-118.82 95.94-204.10 132.60-173.68C147.68-160.94 140.40-122.98 106.34-76.44ZM164.84-21.58C163.80-22.62 162.24-22.88 161.20-21.84L158.34-19.76C147.68-10.66 125.32 6.76 111.28 4.16C108.94 3.90 107.64 2.60 108.16 0C108.68-5.20 112.06-9.36 115.18-13.78C117-16.12 118.04-17.68 117.26-19.76C116.74-21.06 114.92-22.62 111.80-24.70C115.70-35.36 124.54-42.12 120.90-44.98C117-48.62 109.46-34.58 105.04-30.42C103.48-28.86 100.62-26.52 97.24-23.40C95.68-22.10 94.12-20.80 92.56-19.76C90.48-17.94 88.14-16.12 86.06-14.30C84.24-12.74 87.10-9.10 89.96-11.44L93.60-14.30C95.94-16.12 98.28-17.94 100.36-19.76C102.96-21.58 105.04-23.14 106.34-23.92C106.60-20.80 107.38-20.54 108.42-19.76C108.94-19.24 109.46-18.46 110.24-17.16C104.78-10.14 102.18-4.42 101.66 0C101.14 3.90 102.44 6.76 105.04 8.32C114.14 14.30 135.20 3.64 143.52-2.08C151.06-7.28 159.38-14.04 165.36-18.72C166.14-19.50 165.62-20.80 164.84-21.58ZM249.34-21.58C248.56-22.62 247-22.88 245.70-21.84L243.10-19.76C221.52-1.82 193.96 16.64 169-5.98C176.54-6.50 197.86-16.38 193.44-23.40C189.02-30.68 168.22-14.30 162.76-12.74C166.40-17.68 166.66-18.98 171.34-23.92C189.80-36.40 198.38-43.94 206.44-50.96C249.08-90.22 237.64-107.38 221-95.16C192.40-74.10 171.86-32.76 148.72-5.20C147.16-3.38 145.60-1.56 144.04 0.52C141.18 3.64 139.36 8.06 141.18 8.84C150.28 9.88 154.70 0 160.42-4.68C189.54 23.14 216.84 7.02 239.46-10.66C243.36-13.52 247-16.38 249.86-18.98C250.90-19.50 250.12-20.80 249.34-21.58ZM186.94-19.76C187.72-17.16 172.12-11.18 169.26-10.40C168.74-10.40 186.42-21.32 186.94-19.76ZM203.58-69.16C208.26-74.62 226.20-95.68 229.84-92.30C230.10-74.36 188.50-40.56 178.10-35.36L203.58-69.16ZM303.42-21.58C302.38-22.62 301.08-22.88 299.78-21.84L297.18-19.76C284.96-9.62 269.10 2.34 266.50-0.52C265.20-3.90 271.18-13.52 271.96-19.76C272.22-21.84 271.70-23.66 269.62-24.18C268.58-24.44 266.50-22.10 264.42-19.76C262.60-17.42 260.52-14.82 259.48-13.78C254.80-9.88 248.30-3.90 244.92-5.46C243.36-8.32 247-14.30 250.64-19.76C252.72-23.14 255.06-26 256.36-27.30C257.40-28.08 254.02-30.42 252.98-29.90C250.38-28.86 247-24.44 244.14-19.76C238.94-11.18 236.08-0.52 244.66 0L245.96 0C252.20-0.52 258.44-6.50 261.30-8.32C260.78-5.98 260-2.60 260.26 0C260.26 3.12 261.82 5.72 265.98 5.72C269.10 5.98 273.78 3.64 278.98 0C287.30-5.46 297.18-13.52 303.94-18.72C304.72-19.50 304.20-20.80 303.42-21.58ZM352.82-21.58C351.78-22.62 350.22-22.88 349.18-21.84L346.32-19.76C334.36-9.62 318.24 2.34 315.64-0.52C314.08-5.20 325-29.38 321.88-30.94C317.46-33.54 311.48-24.70 305.50-19.24C304.20-25.48 325-39.78 316.16-42.90C311.74-43.94 297.70-18.46 295.10-13C293.28-9.36 292.24-5.72 296.66-5.20C298.74-4.94 299.52-5.46 302.12-7.02L315.12-23.14C312.26-16.12 309.92-7.54 310.18 0C310.44 3.12 310.96 5.72 315.38 5.72C318.24 5.98 322.92 3.38 328.38 0C336.70-5.46 346.32-13.52 353.34-18.98C354.12-19.50 353.60-20.80 352.82-21.58ZM500.50-86.32C498.42-85.28 498.16-82.42 500.50-81.64C505.18-80.60 509.86-81.90 514.54-84.50C536.64-96.46 628.16-174.46 602.16-199.68C588.64-212.94 553.54-189.02 542.62-181.48C500.24-152.62 441.48-99.06 414.44-53.56C400.66-30.42 389.48 4.68 405.86 15.86C431.34 33.02 488.54 3.90 512.72-15.60C514.28-16.64 515.58-17.94 516.88-18.98C517.66-19.50 517.14-20.80 516.36-21.58C515.58-22.62 514.02-22.88 512.72-21.84L510.12-19.76C490.88-3.90 429.78 24.96 409.76 8.84C395.20-2.60 412.88-38.74 420.16-49.40C446.68-89.70 473.20-115.18 510.12-146.90C517.66-153.40 531.44-165.10 546-175.76C553.80-181.48 587.08-203.58 597.48-194.22C614.90-178.62 543.14-105.56 500.50-86.32ZM520.52-10.66C515.06-14.30 510.90-4.94 513.50-1.82C517.14 2.34 523.64-6.76 520.52-10.66Z" fill="#000000"/>
  </g>
</svg>