<svg width="1435" height="591" viewBox="0 0 1435 591" xmlns="http://www.w3.org/2000/svg">
  <g transform="translate(-4.04660361534026, 384.15000000000003)">
    <path d="M324.48-117.60C367.20-182.88 405.12-260.64 415.68-338.88C417.60-354.24 418.08-370.08 413.76-385.44C405.12-416.16 382.56-432 351.84-432C296.16-432 237.12-376.32 202.56-337.44C201.12-336 199.68-334.56 197.76-332.64C196.32-334.08 194.88-335.04 193.92-336C190.08-339.36 186.24-340.80 182.88-340.80C175.20-340.80 168-333.12 163.68-327.84C156.48-318.24 148.80-308.64 142.56-299.04C87.36-212.64 32.64-82.56 18.72 19.68C16.32 39.84 14.88 59.52 17.28 79.68C19.68 107.52 31.20 134.40 63.36 134.40C147.36 134.40 282.24-53.28 324.48-117.60ZM25.44 78.24C22.56 54.24 24.96 31.20 28.80 7.68C44.16-88.32 95.52-204.96 147.36-286.56C153.60-296.16 160.80-305.76 167.52-315.36C170.40-319.20 174.24-322.56 178.08-325.92C181.92-329.76 182.88-329.28 186.72-325.44C187.68-324.48 188.16-323.52 189.12-322.08C132-250.56 87.84-167.04 72.96-76.32C70.08-56.16 68.64-36 72.48-15.84C76.80 9.12 91.68 33.12 119.52 33.12C164.16 33.12 208.32-27.36 227.52-62.88C230.40-68.16 232.80-73.44 234.72-79.20C235.20-81.60 235.20-84.96 234.72-87.36C233.76-91.20 230.40-92.64 227.04-92.64C224.16-92.16 221.76-90.24 221.28-86.40C219.36-58.08 160.32 20.16 122.88 22.56C109.92 24 99.36 19.20 91.68 8.64C84.48-1.92 81.12-13.92 79.68-26.40C76.80-50.40 80.16-74.40 85.44-97.44C103.20-180 141.60-246.24 192.48-311.52C193.92-313.44 196.32-314.88 198.72-316.32C201.12-317.28 202.08-318.72 203.04-321.60C203.52-323.52 204-325.44 205.44-326.88C236.16-360.96 286.56-409.44 333.12-420C343.68-422.40 353.76-422.88 364.32-421.44C384.96-417.60 397.92-405.12 404.16-385.44C408-372.96 408.48-360 407.52-347.04C396-213.12 282.72-60.48 193.92 36.48C166.08 67.20 107.04 125.28 61.92 125.28C36 124.32 28.32 99.84 25.44 78.24ZM397.44 44.64C408.00 38.40 417.60 26.40 424.80 16.80C445.44-11.04 477.60-66.24 495.36-95.52C497.76-99.36 497.28-102.24 495.36-103.68C492.96-105.12 490.08-104.16 487.68-100.32C464.64-61.44 441.12-23.52 416.16 13.92C411.36 20.64 405.12 26.40 399.36 32.64C397.92 34.56 396.00 35.52 393.12 37.44C395.04 22.08 397.92 7.68 403.20-7.20L413.76-40.32C420.48-59.52 426.24-78.72 431.52-98.40C432.48-103.68 432.96-109.44 432.48-114.72C431.52-123.36 426.72-126.24 418.56-125.28C417.60-125.28 416.16-125.28 415.20-124.80C407.52-122.40 400.32-120 392.64-117.60C386.88-115.68 380.64-112.80 374.88-110.88C372.96-109.92 371.04-109.92 368.16-109.44C369.60-112.32 370.56-113.76 371.52-115.20C374.88-122.88 377.28-130.56 378.24-138.72C378.24-140.64 378.24-142.56 377.76-144.48C376.80-148.32 372.96-150.24 369.60-147.36C363.36-141.12 359.04-126.72 357.60-118.08C356.64-111.36 357.12-104.64 351.84-99.36C351.84-98.88 351.36-98.88 351.36-98.40C350.40-95.52 351.36-93.12 353.76-92.16C356.64-91.20 358.08-92.64 359.52-95.04C360.48-96.96 361.92-99.36 362.88-101.76C372.00-100.80 380.16-104.16 388.32-107.04C395.52-109.92 403.20-112.80 410.88-115.20C414.72-116.64 418.56-117.12 422.40-117.60C425.28-113.28 424.80-109.44 424.32-106.08C423.36-99.84 422.40-93.12 420.48-87.36C413.28-65.28 406.08-43.20 398.88-21.60C393.60-4.80 387.84 11.52 385.92 28.80C385.44 32.16 384.96 35.52 385.44 38.88C386.88 45.12 391.68 47.52 397.44 44.64ZM419.52 66.24C420.48 65.28 420.96 63.36 421.44 61.92C434.40 29.76 447.36-2.40 462.72-33.60C463.68-36.48 464.64-39.36 468.00-39.36C468.96-39.84 470.40-41.28 470.40-42.24C471.36-48 475.20-52.32 478.08-56.64C479.52-59.52 481.92-60 485.28-60C494.40-59.04 503.52-58.56 512.64-58.56C551.52-59.52 593.28-64.32 626.40-85.92C628.80-87.36 630.72-89.76 632.64-92.16C633.12-93.12 633.12-95.52 632.16-96.48C631.20-97.44 628.80-97.44 627.36-97.44C626.40-97.44 625.92-96.48 624.96-96C613.92-86.88 600.48-80.64 586.56-76.80C557.28-68.64 527.04-65.28 496.80-66.72C494.88-66.72 493.44-67.20 491.04-67.68C493.44-69.60 494.88-71.04 496.32-72C514.08-88.32 531.84-104.64 547.68-122.88C552.00-127.20 555.84-132 559.68-137.28C561.12-138.72 562.08-140.64 563.04-143.04C564.00-144.96 564.48-147.36 562.08-149.76C560.16-151.68 557.76-151.68 555.36-150.72C553.92-150.24 552.48-149.28 551.04-148.80C549.12-147.36 547.20-145.44 544.80-144C531.84-133.44 520.32-120.96 508.80-108.48C503.52-102.24 497.76-95.52 492.48-89.28C492.00-89.76 492.00-89.76 491.52-89.76C492.48-91.20 492.96-92.64 493.92-94.08C510.72-127.20 527.52-159.84 544.32-192.48C545.76-195.36 547.68-198.24 549.60-200.64C576.96-236.16 602.88-275.04 623.04-315.36C624.00-317.76 624.96-320.16 624.96-322.56C624.96-326.88 621.12-329.28 617.28-326.88C615.36-326.40 613.92-324.96 612.48-323.04C610.08-320.16 607.68-316.80 605.28-312.96C582.24-280.80 562.56-246.72 545.76-211.20C543.36-206.88 540.96-202.56 538.08-199.20C525.12-182.88 512.16-167.52 498.72-151.68C497.76-149.76 495.84-148.32 494.88-146.40C493.44-144.48 493.92-142.08 495.84-140.64C497.76-139.20 499.68-139.68 501.60-141.60C502.56-142.56 503.04-143.52 504.00-144.48C510.24-151.68 516.48-158.88 522.72-166.08C522.72-163.68 521.76-161.76 520.80-159.84C505.92-131.52 491.52-103.68 477.12-75.36C474.72-71.04 472.32-68.16 467.04-66.72C460.80-64.80 455.52-60.96 451.68-55.20C450.24-53.28 449.76-50.88 451.20-48.96C452.64-47.52 455.04-47.04 456.96-46.56C458.40-46.08 459.84-47.04 462.24-47.52C460.80-44.64 459.84-42.72 458.88-40.80C444.00-6.72 428.64 27.36 413.76 61.92C413.28 62.40 412.80 62.88 412.80 63.36C413.76 64.80 413.76 67.20 415.20 67.68C416.64 69.12 418.56 68.16 419.52 66.24ZM592.80-280.80C592.80-278.88 591.84-276.96 590.88-275.52C590.88-276 590.40-276 589.92-276ZM586.56-271.20C587.04-271.20 587.52-270.72 587.52-270.24C586.56-268.80 585.60-267.36 584.16-266.40ZM543.84-129.60C535.68-120.96 527.04-112.32 518.88-103.68C520.32-109.44 536.64-126.24 543.84-129.60ZM621.60-44.16C626.40-45.60 630.72-47.52 634.56-50.88C642.72-57.12 650.40-64.32 658.08-71.04C665.28-78.24 672.48-85.44 679.68-92.64C681.12-93.60 682.08-94.56 683.52-95.52C683.52-88.80 683.04-82.56 683.52-76.80C685.44-63.84 694.56-56.16 705.12-56.16C713.28-56.16 724.32-62.88 729.12-69.60C736.80-77.76 743.52-86.40 750.72-95.04C751.68-96 752.64-97.44 752.64-98.40C752.64-100.32 752.16-102.24 751.20-103.20C749.76-105.12 747.84-104.64 746.40-103.20C744.96-102.24 744-100.80 743.04-99.36C737.76-93.12 732.96-85.92 727.20-79.68C722.40-73.92 712.32-64.80 704.16-64.80C697.44-64.80 692.16-70.08 691.68-78.72C691.20-84 691.68-89.28 692.16-94.08C692.64-97.44 693.60-100.80 694.08-104.16C694.56-106.56 694.08-108.96 691.68-109.92C689.76-111.36 687.36-110.40 685.92-108.96C683.52-107.52 681.12-105.60 679.20-103.68C669.12-93.60 659.52-83.52 649.44-73.92C642.24-67.20 634.56-60.96 626.88-54.72C624.48-52.80 621.60-50.88 618.24-51.36C616.32-54.24 616.80-57.12 617.76-60.48C620.16-70.56 624.48-80.16 629.28-89.76C630.72-92.16 631.68-94.08 635.04-95.04C636-95.04 637.44-97.44 638.40-98.88C639.84-102.72 639.36-106.08 636.96-107.52C634.56-108.96 631.68-108 629.28-103.68C620.16-90.24 613.92-75.84 610.08-60C609.60-57.12 609.60-54.24 610.08-51.36C611.04-45.12 615.84-42.24 621.60-44.16ZM740.16-43.20C742.08-44.16 743.52-45.12 744.96-46.56C750.24-51.84 755.04-57.60 759.84-63.36L770.40-76.32C774.72-81.12 779.04-85.92 783.36-90.72C785.28-87.36 786.72-84.48 788.16-82.08C792-75.36 795.36-72.48 800.64-72.48C803.04-72.48 805.44-72.96 808.80-74.40C818.40-78.24 827.52-83.52 837.12-88.32C837.60-88.80 838.56-89.28 839.04-90.24C840.96-91.68 841.44-93.60 840.48-95.52C839.04-97.92 836.64-97.44 834.72-96.96C833.28-96 832.32-95.04 830.88-94.08C822.72-89.76 814.56-85.44 806.40-81.60C800.16-78.72 798.24-79.68 795.36-85.44C793.44-88.32 792.48-91.68 790.56-94.08C787.20-98.88 783.36-99.84 778.56-96.48C775.20-93.60 771.84-90.24 768.96-86.88C762.24-78.72 755.52-70.56 749.28-62.40C746.88-59.52 744.48-56.64 742.08-53.76C741.60-53.76 741.12-54.24 740.64-54.24C744.48-71.52 748.80-88.80 755.52-105.60C756-107.04 757.92-108 758.88-108.96C759.84-110.40 761.28-111.84 760.80-112.80C760.80-114.24 759.36-115.68 757.92-116.64C756-117.60 753.12-117.12 751.68-114.72C750.72-113.28 750.24-111.84 749.28-109.92C742.56-92.16 738.24-73.44 733.92-54.24C733.44-52.32 732.96-49.44 733.44-47.04C733.92-43.20 736.80-41.76 740.16-43.20ZM1112.64 99.36C1205.76 83.52 1327.20-1.44 1389.12-76.80C1391.04-78.72 1392.96-81.60 1393.92-84C1395.36-87.36 1393.92-90.72 1391.52-92.16C1388.64-93.60 1385.76-93.12 1383.36-90.24C1382.40-89.76 1381.92-88.80 1380.96-87.84C1379.04-84.96 1376.64-81.60 1374.72-79.20C1314.24-6.24 1215.84 67.68 1121.28 89.76C1103.52 93.60 1086.24 95.52 1068.48 92.64C1037.76 87.36 1026.72 66.72 1023.84 38.88C1022.88 23.52 1025.28 8.64 1029.60-5.76C1057.92-114.24 1144.32-221.76 1226.88-293.28C1262.88-324.48 1314.24-360 1361.76-371.04C1373.28-373.44 1384.80-375.36 1396.32-372.96C1409.76-370.56 1416-362.88 1416-348.96C1416-288.48 1314.72-181.44 1273.44-143.04C1265.76-135.84 1257.12-129.60 1249.44-123.36C1248-121.92 1246.08-120.96 1245.12-119.52C1243.68-117.12 1244.16-114.72 1245.60-112.80C1247.52-110.40 1249.92-109.44 1252.80-110.88C1286.88-128.16 1369.92-230.40 1393.44-266.40C1406.88-288 1424.64-320.64 1426.08-346.56C1427.04-367.20 1416-380.64 1395.84-384C1382.40-385.92 1369.44-383.52 1356.96-380.64C1300.80-366.24 1238.88-317.28 1198.08-277.92C1123.20-205.92 1051.68-108.96 1023.36-7.20C1018.56 11.04 1015.68 29.28 1018.08 48.48C1020.96 73.92 1036.80 92.64 1061.76 98.88C1069.92 100.80 1078.08 101.28 1085.76 102.24C1095.36 101.28 1104 100.80 1112.64 99.36ZM1408.80-41.76C1410.24-44.64 1409.28-48.48 1406.40-50.40C1403.04-52.80 1400.16-53.76 1398.24-53.76C1393.92-53.76 1391.52-50.88 1389.60-44.64C1389.12-43.68 1389.12-42.72 1389.12-41.76C1388.64-36.96 1392-33.60 1396.80-33.60C1402.08-34.56 1405.92-36.96 1408.80-41.76Z" fill="#000000"/>
  </g>
</svg>