<svg width="473" height="267" viewBox="0 0 473 267" xmlns="http://www.w3.org/2000/svg">
  <g transform="translate(40.3, 173.55)">
    <path d="M64.74-65.78C65.52-70.72 65.78-74.88 65.78-78.26C65.78-80.08 65.78-81.64 66.04-82.42L66.04-86.58L66.04-89.96L66.04-93.60C64.74-108.68 61.88-121.68 56.94-132.86C52.52-143 46.54-149.76 39.26-153.66C36.66-154.96 33.80-155.74 30.94-155.74C28.08-155.74 26-155.22 24.18-154.18C16.64-151.58 10.92-146.90 7.02-139.88C4.16-134.94 2.08-127.66 0.26-118.56L-1.04-110.76C-1.30-109.20-1.30-105.56-1.30-100.10C-0.26-87.62 1.56-79.56 7.54-70.98C7.80-70.46 8.32-69.68 9.62-68.38L10.14-67.08C9.88-65.78 9.88-62.92 9.88-58.24C9.88-51.74 9.88-47.32 10.14-45.50C11.44-31.72 13.52-20.80 16.90-13C17.68-10.66 18.72-8.58 20.02-7.02C23.14-1.56 28.86 1.56 34.06 1.56C35.36 1.56 36.40 1.56 36.92 1.30C41.08 0.52 44.98-2.60 48.36-8.06C52.52-14.04 57.46-26.26 61.36-41.60L62.14-46.54L62.92-51.22C62.92-51.48 63.18-52.78 63.70-55.38C63.70-56.16 63.96-57.98 64.22-60.32ZM60.06-68.12C59.80-67.08 59.80-65.52 59.80-63.70L59.28-59.54C59.02-57.46 58.76-55.90 58.76-54.86L57.98-50.44L57.20-46.02C55.12-34.32 52.78-26.52 47.32-15.34C44.20-9.36 43.16-8.32 39.78-5.20C38.22-3.64 36.40-2.86 34.58-2.86C31.20-2.86 28.08-4.94 25.22-9.36C22.88-12.74 21.06-17.94 19.76-24.96L18.20-32.76C17.42-39.26 16.90-44.72 16.90-48.88C16.64-50.96 16.64-53.56 16.64-56.68L16.64-58.76C16.64-59.80 16.64-60.32 16.90-60.58L18.20-59.54C18.20-59.28 20.28-57.72 22.62-56.68C24.44-55.90 25.48-56.68 25.48-59.02C25.48-59.80 25.22-60.32 24.70-60.58C23.14-61.36 22.10-62.14 21.32-62.92L18.46-66.04L17.68-66.82C17.16-67.60 16.90-68.38 16.90-69.16L16.90-70.46C16.90-71.50 17.16-73.84 17.42-77.74L18.20-86.58C18.46-92.04 18.98-96.20 19.76-99.32C20.02-102.18 20.54-104.26 20.80-105.30C21.58-110.24 22.36-113.10 22.62-114.14C23.66-119.08 25.22-124.54 27.04-130L28.34-134.16C29.12-134.94 29.38-135.20 29.38-135.20C31.46-136.24 29.38-139.10 27.30-139.10C26.52-139.10 26-138.84 25.74-138.58C24.44-137.28 23.40-135.46 22.62-132.86L21.06-129.48C18.46-122.20 16.64-116.22 15.86-111.54L13.78-101.40C13-97.76 12.22-93.86 11.96-89.44L11.18-83.98L10.66-78.52L10.66-77.74L10.66-76.96L10.40-76.96L10.14-76.96L10.14-77.22L9.88-77.74C6.50-83.20 4.94-91.52 4.94-102.44L5.46-114.14C7.80-128.96 10.66-136.50 16.12-142.48C22.10-148.46 27.82-151.06 33.80-150.28C38.22-148.98 42.64-145.86 46.80-140.40C53.04-131.30 58.50-115.96 60.58-98.28L61.10-85.28C61.10-80.86 61.10-78 60.84-76.70C60.84-74.62 60.84-73.06 60.58-72.28C60.32-70.46 60.06-69.16 60.06-68.12ZM89.44-60.58C89.44-63.44 89.18-67.08 88.40-70.98L87.88-72.80C87.62-73.84 87.36-74.62 87.36-74.88L86.58-76.70L86.06-78.26C84.76-81.12 80.60-84.24 75.66-85.28C75.40-85.54 74.88-85.54 74.10-85.54C72.80-86.06 72.02-85.80 72.02-84.76C72.02-83.46 72.54-82.42 73.84-81.64L74.88-80.86C74.62-80.08 74.62-77.74 74.62-74.36L74.10-62.66L74.10-51.48C74.10-45.24 74.10-41.34 74.36-39.52C75.14-38.48 75.92-37.96 76.18-37.96C77.22-37.96 77.74-38.48 78-39.78L78-40.56L78-41.86L78-46.02L78-50.18L78-57.46L78-64.74L77.74-69.68L78-74.62C78-75.66 78-76.44 78.26-76.96L78.26-79.56L78.78-79.30C79.56-78.78 80.34-78 81.12-76.70C81.12-76.44 81.38-75.40 81.90-73.32C82.42-70.98 82.68-68.64 82.68-66.30C82.68-62.66 82.94-56.68 83.20-48.36C83.46-40.82 84.50-34.58 86.32-29.90C87.36-26.52 91.52-22.62 94.90-23.66C95.16-23.66 95.68-23.92 96.72-24.18C98.28-24.96 99.58-26 100.62-27.30C105.30-32.76 110.24-43.16 115.44-58.50C115.70-59.80 116.22-61.36 117-63.18L117-64.48C116.74-65.78 116.22-66.04 114.92-65.78C114.14-65 113.62-64.48 113.62-63.96L111.80-59.54L110.24-55.12L107.64-48.36C107.12-46.80 106.08-44.72 104.78-41.86C102.70-37.70 100.36-34.06 98.02-30.94C96.72-29.12 95.16-28.34 93.86-28.08C92.56-27.30 92.56-28.86 91.78-30.94C91.26-32.76 91-34.58 91-36.14L90.48-40.30C90.22-41.08 90.22-42.64 90.22-44.72C89.96-48.10 89.44-53.30 89.44-60.58ZM112.84-43.16C113.10-37.70 113.36-33.80 113.36-31.46L113.88-26.26C113.88-23.40 114.14-20.28 114.66-17.16C115.44-14.82 114.92-13 117.52-13C118.56-13 119.34-13.52 119.60-14.30L119.86-14.56L120.12-15.08C120.64-15.60 120.90-16.12 120.90-16.90C120.64-17.16 120.64-17.94 120.64-18.72C120.64-27.30 121.68-32.76 125.58-43.94L126.10-45.76L126.88-47.58C127.14-48.10 127.40-48.10 127.92-47.58C132.34-41.60 137.02-38.74 141.70-38.74C146.64-37.96 148.98-39.78 153.92-44.72C155.22-46.02 157.30-48.88 159.64-53.30C162.24-57.72 164.06-60.84 165.10-63.18L165.10-64.48C165.10-67.34 162.24-66.04 161.98-64.74C162.24-65 161.98-64.48 161.46-63.44C156.26-54.60 152.62-49.40 150.80-47.58C147.68-44.46 144.82-42.90 142.48-42.90C140.66-42.90 139.10-43.42 137.80-44.72C136.76-44.98 134.68-46.54 133.64-48.36L131.30-50.70C131.04-50.96 131.04-51.22 131.56-51.22C131.30-50.96 131.82-51.22 132.86-51.74C134.42-52 135.98-52.78 137.54-53.56C140.40-55.12 141.96-57.98 141.96-62.40C141.96-63.70 141.96-64.74 141.70-65.52C141.70-67.34 140.14-69.68 138.06-69.68C137.80-69.68 137.28-69.42 136.50-69.16L135.72-68.64L135.20-68.38L133.90-67.08C132.34-65.26 131.30-63.70 130.78-62.40L127.14-55.90C127.14-55.90 126.88-55.64 126.10-54.86C125.32-54.60 124.80-53.82 124.80-52.78L124.80-52C125.06-51.48 125.06-50.96 124.80-50.44C122.72-44.98 121.16-40.30 120.12-36.40L119.34-34.84L119.34-35.62L119.34-36.66L119.34-36.92C119.34-44.20 119.60-50.70 119.86-56.16C119.86-57.98 119.86-59.54 120.12-60.32C120.12-63.70 120.38-66.04 121.16-67.34C122.72-69.68 124.54-72.54 126.62-76.44L129.22-81.90C129.74-83.20 130.78-85.02 132.08-87.36C134.68-92.56 137.02-97.76 139.10-102.96L143.78-115.18C145.08-118.56 146.90-124.54 149.24-133.64L150.80-139.36C151.32-141.44 151.58-143.52 151.58-145.86L151.58-148.20C151.06-149.24 150.54-154.18 147.16-154.18L145.86-153.92L143.52-153.14L140.40-150.54C134.16-143 131.82-137.80 127.66-127.14C123.76-117.26 120.90-107.64 118.82-98.28C117-91.26 115.44-83.20 114.66-74.10L114.14-69.68C113.88-68.64 113.88-67.08 113.88-65.26L113.36-60.06C113.36-57.20 113.36-55.12 113.10-54.34C112.84-52.78 112.84-49.14 112.84-43.16ZM148.20-148.46C148.20-147.68 148.20-147.42 148.46-147.16C148.46-145.34 148.46-143.78 148.20-143C147.94-141.18 147.68-140.14 147.68-139.62C145.60-130.52 143-122.20 140.14-114.66L137.54-108.16L134.94-101.92C131.56-93.86 127.14-85.28 122.20-76.18L121.68-75.14L121.42-74.88L121.42-75.14L121.42-75.40C122.46-89.70 126.88-105.04 135.46-132.86C136.76-136.50 139.10-141.18 142.74-146.90C143.78-148.72 145.08-149.76 146.90-150.54C147.16-150.80 147.94-149.50 148.20-148.46ZM137.80-65.78C138.06-65.52 138.06-65.26 138.06-64.74C138.06-62.92 137.80-61.10 137.28-59.54C135.98-57.20 133.90-56.16 131.04-55.90L130.78-55.90L130.78-56.16L130.78-56.42C132.60-60.06 134.42-62.92 136.50-65L137.54-66.04ZM191.88-79.30C192.14-80.08 192.40-79.30 192.40-78C192.14-75.66 191.88-74.10 191.88-73.58L191.88-69.68C191.62-68.90 191.62-67.34 191.62-65.52C191.62-60.06 191.62-56.68 191.88-55.12C191.88-50.70 193.18-45.24 194.48-42.90C194.74-42.12 195.26-41.08 196.04-40.30C196.82-39.26 197.86-38.74 198.64-38.74C199.42-38.74 200.20-39 200.72-39.26L201.24-39.52L202.02-40.04C203.84-41.86 204.62-42.64 204.62-42.64C205.66-44.46 209.30-50.70 211.38-55.64L215.28-63.70L215.54-64.48C215.80-65.26 215.80-65.78 215.02-66.04C213.98-66.30 212.94-65.78 212.68-65C211.90-64.22 211.64-63.44 211.38-62.66C210.60-61.36 208.52-55.64 205.40-50.18L202.02-44.98L200.46-43.16C200.46-42.90 200.20-42.64 199.68-42.64C199.42-42.38 199.16-42.38 199.16-42.90L198.64-43.94L198.12-45.50C197.86-45.76 197.86-46.28 197.86-47.06C197.08-51.22 196.82-56.68 197.08-63.70C197.08-69.94 197.34-74.88 197.86-78.52C197.86-81.64 198.12-84.24 198.64-86.58C198.64-87.36 198.64-87.88 198.90-88.40L198.90-90.48L198.90-91.26L198.90-92.30C198.38-93.60 197.34-94.38 196.04-94.38C195.26-94.38 194.74-94.12 194.48-93.34L193.96-92.82L193.70-92.30L192.40-89.18L187.98-79.30C180.96-63.44 174.72-52 169.52-44.98C167.96-42.64 166.66-41.60 165.62-41.60C164.58-41.60 164.06-42.38 163.80-44.20C163.54-45.24 163.28-46.02 163.28-46.80L163.54-48.62L165.36-60.32L165.88-64.74L165.88-66.30C165.62-67.34 165.10-67.86 164.06-67.86L163.02-67.60C162.24-66.82 161.46-65.78 161.20-64.22L160.68-62.40C160.42-59.28 158.86-53.56 158.86-46.54C159.38-43.68 160.16-41.08 161.46-39.26C162.50-38.22 163.54-37.70 164.84-37.70C166.14-37.70 167.96-38.74 169.78-40.82C174.20-45.50 179.92-54.86 186.94-69.16ZM212.94-67.08C212.68-66.30 212.68-64.48 212.68-61.62L212.68-60.84L212.68-60.06L212.68-55.64L212.68-51.48L212.68-49.92L212.68-48.10C212.68-47.32 212.94-46.54 213.20-46.28C214.50-44.46 215.54-44.72 216.84-46.80L217.36-47.84L218.92-52.26C219.70-55.12 221-58.50 222.82-61.88C225.94-67.86 229.84-73.84 234.26-80.34C238.68-86.32 242.58-89.96 245.96-91.26C247-91.52 247.52-91.78 247.78-91.78C249.86-91.78 249.60-90.22 250.64-89.18C251.42-87.88 251.68-86.32 251.94-84.50C252.72-80.60 252.98-75.14 252.98-68.12C253.24-61.10 254.54-49.92 256.36-46.02C256.62-44.72 257.14-43.94 257.66-43.42C258.44-41.60 260-40.30 262.34-40.30C263.12-40.30 263.64-40.30 263.90-40.56C267.02-41.60 269.36-43.94 272.22-47.06C273-48.36 274.04-49.66 274.82-50.44C276.90-53.30 279.50-57.46 282.36-62.66C282.88-63.18 283.14-63.96 283.14-64.74C282.36-66.82 281.32-66.56 279.76-63.96C279.50-63.70 278.46-62.14 277.16-59.80L269.62-49.66L265.98-45.76L265.20-45.24C264.94-44.98 264.68-44.98 264.42-44.98C263.12-44.46 262.08-45.50 261.56-48.36C260.52-53.56 258.96-64.74 258.70-70.72C258.44-75.14 257.92-79.56 257.14-83.72C256.88-85.54 256.36-87.88 255.58-90.22L253.76-93.34C252.46-94.90 250.90-95.68 249.08-95.68C248.30-95.68 247.26-95.42 245.96-95.16L243.88-94.12C241.54-92.82 239.98-91.52 238.68-90.22C235.30-86.84 231.92-82.68 228.54-77.22L224.12-70.72C221.26-66.30 218.92-62.14 217.36-58.24L217.10-64.74L217.10-65.78L217.10-67.08C217.10-68.64 216.32-69.42 215.02-69.42C214.24-69.42 213.72-68.90 213.20-68.12ZM324.74-37.96C324.48-43.42 324.22-47.84 324.22-50.70C324.22-53.04 324.48-56.42 324.74-60.84C324.74-63.70 324.74-65.78 325-67.08L325.52-73.58C326.56-80.08 327.34-85.28 328.12-88.66C330.46-99.58 333.84-109.46 337.74-118.56C340.08-124.02 342.42-129.22 345.28-133.90C349.70-140.92 351.26-141.96 354.64-144.30C355.16-144.30 355.42-144.30 355.68-144.56C355.94-144.82 356.72-144.82 356.98-145.08C358.54-145.60 359.58-144.82 360.36-142.74C360.62-142.48 360.62-142.22 360.62-141.44C360.88-140.66 361.66-140.14 362.44-140.14C363.22-140.14 363.74-140.66 364-141.70C364.26-143.52 363.74-145.60 362.96-147.42C361.66-149.50 359.58-150.54 356.46-150.54C355.16-150.54 353.86-150.28 352.82-149.76C351.52-149.24 350.74-148.72 350.48-148.46C346.06-146.12 341.38-140.66 336.96-132.08C333.06-125.06 329.68-117.52 327.08-109.98C322.14-97.24 319.28-83.46 318.24-68.12L317.72-57.20C317.72-53.30 317.72-50.18 317.98-48.36C317.98-42.38 318.24-37.70 318.76-34.06C319.02-32.76 319.02-30.94 319.02-28.60C321.10-16.38 323.96-8.06 330.46-2.08C334.36 2.34 339.56 4.42 342.68 3.38C346.84 2.34 349.18 0.52 354.64-5.72C358.02-10.14 361.14-16.64 363.48-22.62L367.12-31.20L370.50-39.52C371.54-41.86 372.84-45.50 374.66-50.70C375.44-52.78 377.52-59.80 379.60-62.92C380.38-65 379.34-66.04 378.30-66.04C377.52-66.04 377-65.78 376.74-65.26L376.22-64.48C375.96-64.22 375.96-63.96 375.96-63.70C375.18-62.40 374.40-60.06 373.36-56.94C371.28-52 369.72-48.36 368.94-46.02L364.26-35.10C358.80-22.36 353.34-13 347.88-6.76C346.06-4.94 344.76-3.64 344.24-3.38C342.94-2.86 341.90-2.60 341.12-2.60C340.08-2.60 338.78-3.12 336.96-4.16C335.40-5.20 334.10-6.76 333.06-8.58C330.20-11.96 328.38-16.38 327.34-21.32C326.04-25.22 325-30.94 324.74-37.96ZM389.48-7.28C387.66-7.28 386.36-5.98 386.36-3.64C386.36-1.30 387.40-0.26 389.48-0.26C391.82-0.26 393.12-1.30 393.12-3.64C393.12-5.98 391.30-7.28 389.48-7.28Z" fill="#000000"/>
  </g>
</svg>