<svg width="1047" height="687" viewBox="0 0 1047 687" xmlns="http://www.w3.org/2000/svg">
  <g transform="translate(11.999986762234661, 446.55)">
    <path d="M64.62 53.48C64.70 56.91 64.83 60.39 65.01 63.89C70.52 170.92 141.19 219.38 187.34 225.84C192.42 226.56 197.47 226.91 202.52 226.91C249.65 226.91 295.18 196.02 335.04 136.70C356.39 104.93 375.49 65.86 391.36 22.03C451.94-21.97 492.85-70.00 495.97-73.72C497.93-76.05 497.63-79.52 495.30-81.48C492.97-83.44 489.50-83.14 487.54-80.81C486.84-79.98 451.57-38.56 398.06 2.66C407.93-27.21 416.31-58.99 422.95-91.96C430.34-128.65 439.64-200.17 418.95-266.91C399.67-329.09 358.78-368.61 300.67-381.20C232.50-395.97 150.94-364.90 87.80-300.14C14.81-225.27-15.24-125.05 7.39-32.06C15.74 2.23 36.03 31.57 64.62 53.48ZM188.87 214.93C146.34 208.98 81.19 163.69 76.01 63.32C75.98 62.70 75.95 62.09 75.92 61.47C108.62 82.80 150.23 95.29 196.28 95.93C261.25 96.74 324.00 67.74 375.09 33.40C332.83 141.59 267.25 225.93 188.87 214.93ZM95.69-292.45C156.19-354.52 233.84-384.40 298.34-370.44C418.16-344.49 434.53-205.38 412.15-94.14C404.77-57.46 394.66-20.50 382.16 14.48C330.05 51.89 264.03 85.90 196.43 84.91C149.45 84.26 107.39 70.73 75.55 47.87C74.25-119.79 194.28-211.62 195.52-212.55C197.96-214.38 198.46-217.83 196.64-220.26C194.82-222.70 191.37-223.20 188.93-221.38C187.65-220.43 67.33-128.62 64.57 39.26C41.51 19.56 25.16-5.66 18.10-34.66C-3.63-123.95 25.37-220.31 95.69-292.45ZM506.27-104.46C503.12-105.86 499.86-105.67 497.05-103.98C496.07-104.86 494.80-105.40 493.40-105.40C493.39-105.40 493.39-105.40 493.39-105.40C490.35-105.40 487.88-102.95 487.88-99.90L487.78-54.25C487.72-32.66 487.68-15.10 487.68-5.33C487.68-2.29 490.14 0.18 493.19 0.18C496.23 0.18 498.70-2.29 498.70-5.33C498.70-15.10 498.74-32.64 498.79-54.22L498.84-75.86C498.84-75.87 498.84-75.88 498.84-75.89C499.01-86.39 501.01-92.22 502.27-94.06C503.48-92.89 505.05-88.84 504.96-75.63L504.96-74.60C504.95-71.56 507.41-69.09 510.45-69.07C510.45-69.07 510.46-69.07 510.47-69.07C513.50-69.07 515.97-71.53 515.98-74.56L515.98-75.56C516.04-84.72 516.14-100.06 506.27-104.46ZM550.07-87.09C550.04-87.09 550.02-87.09 549.99-87.09C546.98-87.09 544.53-84.67 544.48-81.66L544.43-77.52C544.05-33.47 541.41-17.92 539.49-12.48C536.99-16.73 533.56-27.00 534.94-40.94C535.13-42.85 536.09-47.98 537.20-53.92C543.44-87.19 544.39-97.58 541.62-102.24C539.96-105.04 537.01-106.34 534.11-105.55C533.35-105.35 532.64-104.92 531.95-104.39C532.01-139.65 532.04-173.93 532.00-188.46C531.99-191.50 529.53-193.95 526.49-193.95C526.49-193.95 526.48-193.95 526.48-193.95C523.43-193.95 520.98-191.47 520.98-188.43C521.04-168.54 520.95-111.54 520.88-65.74C520.84-39.17 520.80-16.01 520.80-5.20C520.80-2.16 523.26 0.31 526.31 0.31C529.07 0.31 531.33-1.73 531.73-4.38C533.13-2.64 534.66-1.32 536.30-0.53C537.53 0.06 538.81 0.34 540.07 0.34C542.21 0.34 544.29-0.50 545.94-2.12C552.29-8.35 555.04-30.17 555.45-77.42L555.50-81.49C555.54-84.54 553.12-87.04 550.07-87.09ZM589.62-81.45C589.69-84.49 587.27-87.01 584.23-87.07C581.23-87.19 578.67-84.72 578.61-81.68C578.46-74.68 578.48-67.33 578.49-60.22C578.53-43.52 578.59-15.93 574.69-11.33C573.20-14.31 572.43-23.39 572.43-38.37C572.43-51.74 572.36-59.34 572.28-66.54C572.19-75.20 572.11-83.37 572.18-100.54C572.19-103.59 569.73-106.06 566.69-106.07C566.68-106.07 566.68-106.07 566.67-106.07C563.64-106.07 561.17-103.63 561.16-100.59C561.09-83.34 561.17-75.12 561.26-66.42C561.33-59.70 561.41-52.56 561.41-40.72C561.41-40.65 561.39-40.58 561.39-40.50C561.16-26.22 559.18-16.60 557.45-12.70C556.36-15.65 555.30-21.84 555.34-30.78C555.40-45.76 555.41-79.73 555.41-100.21C555.41-103.25 552.94-105.71 549.90-105.71C546.85-105.71 544.39-103.25 544.39-100.21C544.39-79.74 544.38-45.80 544.32-30.82C544.21-3.86 552.06-1.47 554.63-0.69C555.56-0.40 556.49-0.26 557.41-0.26C559.33-0.26 561.21-0.88 562.86-2.08C563.89-2.84 564.81-3.86 565.64-5.07C566.17-4.19 566.76-3.41 567.44-2.75C569.32-0.90 571.68 0.08 574.29 0.08C574.34 0.08 574.39 0.08 574.44 0.08C589.64-0.15 589.58-25.35 589.50-60.24C589.49-67.29 589.48-74.58 589.62-81.45ZM621.39-81.46C621.45-84.50 619.03-87.02 615.99-87.07C612.94-87.15 610.44-84.71 610.38-81.67C610.24-74.70 610.26-67.41 610.27-60.22C610.30-43.61 610.36-19.29 607.17-12.28C606.23-15.23 605.24-22.20 605.24-38.48C605.24-58.17 605.24-59.51 605.29-72.91L605.31-75.54C605.36-84.66 605.45-99.93 596.28-104.38C593.29-105.83 590.16-105.72 587.45-104.12C586.53-104.81 585.39-105.24 584.15-105.24C584.14-105.24 584.13-105.24 584.13-105.24C581.08-105.23 578.63-102.76 578.64-99.71C578.71-81.56 578.62-62.65 578.53-44.20C578.46-30.81 578.40-17.66 578.40-5.21C578.40-2.17 580.86 0.30 583.91 0.30C586.95 0.30 589.42-2.17 589.42-5.21C589.42-17.64 589.48-30.78 589.55-44.15C589.60-54.60 589.64-65.18 589.66-75.70C589.67-75.75 589.68-75.80 589.68-75.85C589.82-85.27 591.24-90.93 592.36-93.41C593.29-91.63 594.35-87.09 594.28-75.60L594.27-72.96C594.22-59.53 594.22-58.19 594.22-38.48C594.22-16.16 595.75-7.11 600.30-2.64C602.11-0.86 604.36 0.07 606.82 0.07C606.87 0.07 606.92 0.07 606.98 0.07C621.41-0.16 621.36-25.36 621.28-60.24C621.27-67.35 621.26-74.56 621.39-81.46ZM655.77-100.52C660.52-99.62 665.34-98.87 670.22-98.27C660.25-48.90 657.23 2.25 661.83 53.24C666.10 100.40 686.89 156.13 732.48 171.11C738.97 173.23 746.46 174.64 754.96 174.64C783.50 174.64 823.33 158.82 874.00 101.59C896.72 75.93 934.71 18.75 990.15-73.23C991.72-75.84 990.88-79.22 988.28-80.79C985.67-82.36 982.28-81.53 980.72-78.92C925.63 12.48 888.03 69.13 865.76 94.28C816.85 149.52 771.96 172.46 735.92 160.63C702.54 149.67 677.77 107.12 672.81 52.24C668.27 1.95 671.30-48.50 681.22-97.15C738.65-92.58 802.71-107.29 860.85-138.90C928.68-175.79 981.44-232.30 1005.59-293.93C1019.70-329.95 1032.40-379.31 1012.78-409.93C1002.74-425.60 985.55-434.23 961.68-435.60C916.06-438.22 853.88-404.84 799.34-348.49C736.44-283.49 692.76-199.58 672.52-109.08C667.58-109.68 662.67-110.43 657.82-111.35C596.63-122.91 493.97-170.40 493.97-358.50C493.97-361.55 491.51-364.01 488.47-364.01C485.42-364.01 482.96-361.55 482.96-358.50C482.96-282.21 499.86-220.73 533.19-175.78C562.57-136.14 604.96-110.12 655.77-100.52ZM807.26-340.81C859.64-394.93 918.55-426.98 961.04-424.59C981.19-423.44 995.48-416.50 1003.50-403.98C1016.86-383.15 1013.96-345.48 995.33-297.94C952.87-189.59 821.24-107.31 702.06-107.32C695.86-107.32 689.68-107.54 683.56-108.00C703.47-196.03 746.06-277.59 807.26-340.81ZM1000.07-12.69C997.02-12.69 994.56-10.23 994.56-7.18L994.56-3.87C994.56-0.83 997.02 1.64 1000.07 1.64C1003.11 1.64 1005.58-0.83 1005.58-3.87L1005.58-7.18C1005.58-10.23 1003.11-12.69 1000.07-12.69Z" fill="#000000"/>
  </g>
</svg>