<svg width="602" height="289" viewBox="0 0 602 289" xmlns="http://www.w3.org/2000/svg">
  <g transform="translate(34.1419988207498, 187.85)">
    <path d="M10.40-42.90C16.64-66.82 28.34-87.62 44.46-106.08C57.72-121.16 76.18-135.72 96.98-135.72C111.02-134.68 117.78-123.76 116.74-110.50C115.18-90.48 102.44-70.20 86.58-55.90C82.68-52.26 77.74-48.10 71.76-47.58C59.54-47.32 61.62-65.26 64.48-72.28C64.74-73.06 64.48-73.84 63.70-73.84C63.44-73.84 63.18-73.58 62.92-73.06C59.02-64.74 57.72-46.28 71.24-45.50C78.52-45.50 85.28-51.74 90.74-56.94C106.08-71.76 120.12-92.82 118.82-115.70C118.04-129.22 108.16-138.06 95.16-138.06C79.30-138.06 61.10-125.58 49.40-114.40C29.12-94.12 15.34-69.94 7.80-42.12C0.52-13.26 4.94 29.38 41.86 29.38C63.18 29.38 85.02 14.82 100.88 1.56C125.32-20.02 141.96-46.28 152.10-76.96C159.64-102.44 161.46-130.78 144.04-153.40C131.56-167.70 113.36-173.42 94.12-173.42C69.94-173.42 43.94-164.32 25.74-152.10C25.22-151.06 24.96-149.76 25.74-149.76C25.74-149.76 26.26-150.02 26.52-150.28C43.42-162.50 69.16-171.08 93.08-171.08C116.22-171.08 137.80-163.02 148.46-142.48C158.08-125.58 157.30-103.48 151.84-84.50C143.26-53.04 126.88-26 103.22-3.38C87.88 11.18 67.86 24.70 45.76 27.30L42.64 27.30C5.98 27.30 3.38-12.48 10.40-42.90ZM143.52-44.98C150.02-57.98 171.60-81.38 184.08-84.76C179.66-78.78 173.42-74.88 167.18-70.98C164.58-69.16 161.20-67.08 159.90-65C158.86-63.44 159.38-61.88 161.20-61.10C162.24-60.58 163.80-60.32 165.36-60.32C177.06-60.32 196.82-69.94 205.92-76.44C206.70-76.96 206.96-77.74 205.40-78C195.52-71.76 177.84-62.66 165.62-62.66C163.80-62.66 162.50-62.92 161.46-63.44C162.24-65.26 165.88-67.60 167.96-68.90C173.94-72.80 183.30-79.30 185.38-83.98C185.90-85.28 185.64-86.32 184.08-86.32C176.02-85.80 158.86-68.64 154.18-63.44C157.30-68.38 163.54-77.74 168.22-84.76C168.74-85.54 170.82-88.14 171.60-88.66C172.38-89.44 171.86-91 170.82-90.48C169.78-89.96 167.70-87.62 166.92-86.58C157.04-73.06 148.98-58.76 140.66-44.72C139.62-43.16 139.10-42.12 140.14-41.08C140.40-40.82 140.40-40.82 140.66-40.82C141.70-40.82 143-44.20 143.52-44.98ZM184.86-42.64C190.84-51.48 195.78-60.58 202.28-68.90C202.80-64.22 205.66-62.66 209.30-62.66C217.10-62.66 232.96-71.50 239.20-75.66C239.46-75.92 242.06-77.48 239.46-78C233.48-74.10 216.84-64.48 209.30-64.48C207.74-64.48 206.18-65 205.14-66.04C203.84-68.12 204.10-70.72 206.18-72.02C209.82-74.62 213.46-77.22 217.36-79.56C219.96-81.38 222.82-82.94 225.68-84.50C226.20-85.02 227.24-85.28 226.72-86.32C226.46-86.58 226.20-86.84 225.94-86.84C224.12-86.84 208.26-76.70 205.92-74.88C213.72-87.62 222.56-100.62 230.36-113.62C231.14-115.18 231.92-115.96 231.14-116.48C230.88-116.48 230.88-116.74 230.62-116.74C229.84-116.74 229.32-115.70 228.80-114.92C213.46-91.26 198.64-67.60 183.04-43.68C182.52-42.90 181.74-41.60 182.78-40.82C183.56-40.30 184.34-41.60 184.86-42.64ZM244.14-80.86C244.40-81.12 244.92-82.68 243.62-82.68C242.84-82.68 242.32-81.90 241.80-81.38C237.90-75.92 233.74-69.16 233.22-63.96C232.96-62.66 233.74-61.62 235.04-61.62C235.30-61.62 235.56-61.88 235.82-61.88C242.58-64.48 250.64-73.58 256.36-78.26C250.64-64.74 241.54-48.88 242.84-37.70C243.10-35.36 244.40-34.06 246.22-34.06C247-34.06 247.52-34.06 248.30-34.58C256.88-39.78 274.04-62.92 283.66-75.66C284.44-76.70 285.22-78 283.14-78C277.42-70.46 258.18-43.16 247.52-36.40C247-36.14 246.48-35.88 245.96-35.88C245.18-35.88 244.92-36.92 244.66-39C244.14-48.36 252.20-64.22 257.14-75.14C258.18-76.96 259.22-80.34 258.18-81.12C257.92-81.38 257.66-81.38 257.40-81.38C256.10-81.38 255.06-79.56 254.28-79.04C248.82-73.58 239.98-66.04 235.30-63.70C235.04-66.30 239.72-75.92 244.14-80.86ZM277.16-60.84C284.96-68.90 293.54-76.70 302.90-83.46C300.04-76.70 294.58-66.30 295.88-58.76C296.40-56.42 297.70-55.12 300.04-55.12C300.56-55.12 301.08-55.12 301.60-55.38C308.36-57.20 321.62-68.12 330.72-75.66C331.76-76.44 332.28-77.74 330.72-78C330.72-78 329.68-77.48 329.16-76.96C320.06-70.20 308.88-60.32 301.60-57.72C300.82-57.46 300.30-57.20 299.78-57.20C298.48-57.20 297.70-58.24 297.70-60.32C297.70-68.38 302.38-75.92 304.72-82.94C304.98-83.72 305.24-84.76 304.46-85.28C304.20-85.54 303.68-85.54 303.42-85.54C302.12-85.54 300.56-84.76 299.26-83.46C291.72-77.48 284.96-71.50 278.20-65.26C279.50-68.12 286.78-82.16 289.64-83.46C290.94-84.24 290.16-85.28 289.38-85.28C288.60-85.28 287.30-84.50 286.78-83.72C281.58-76.70 277.42-68.90 273.78-61.88C273.26-61.10 272.48-59.28 273.52-58.50C273.78-58.50 273.78-58.24 274.04-58.24C275.34-58.24 276.38-60.06 277.16-60.84ZM465.66-132.34C422.50-120.38 391.82-72.80 379.08-29.90C375.70-18.72 373.62-4.42 379.08 7.28C382.46 14.30 388.96 17.16 396.76 17.16C398.06 17.16 399.62 17.16 401.18 16.90C440.70 8.32 493.74-56.16 513.24-93.08C522.34-110.50 531.18-134.68 527.54-154.44C524.94-168.74 512.46-180.70 492.70-180.70C472.42-180.70 454.48-171.08 438.36-159.64C421.46-147.42 402.74-131.56 391.04-116.48C389.74-114.66 387.66-112.06 387.66-110.50C387.66-109.98 388.18-109.72 388.44-109.72C388.70-109.72 389.22-109.72 389.22-109.98C389.74-110.76 390.26-111.28 390.52-111.80C403.00-129.48 420.42-143.52 438.36-157.04C453.18-167.96 473.98-178.62 492.70-178.62C505.70-178.62 522.34-171.08 525.20-154.70C529.10-132.08 519.74-110.50 508.82-89.70C491.66-59.28 469.56-33.02 443.30-10.40C432.64-0.78 411.32 15.08 396.24 15.08C390.00 15.08 384.28 12.74 380.90 5.98C375.70-4.42 378.04-17.68 380.90-29.64C393.12-71.24 424.58-118.04 465.14-130C467.48-130.78 469.82-131.04 472.16-131.04C479.44-131.04 486.72-127.66 487.76-120.12C490.36-105.04 478.14-86.06 466.44-74.10C464.62-72.28 462.54-70.46 459.68-69.68C458.38-69.42 457.34-70.20 457.34-71.50C457.08-72.28 457.60-74.10 457.60-75.66C457.60-75.92 457.60-76.44 456.82-76.44C456.30-76.70 456.04-76.44 455.78-75.92C455.52-74.62 455.00-72.54 455.52-70.46C455.78-68.38 457.08-67.60 459.16-67.60C463.06-67.60 466.70-71.24 470.60-75.14C481.26-86.84 492.70-104.78 489.58-121.42C488.02-129.74 480.74-133.12 472.68-133.12C470.34-133.12 468.00-132.86 465.66-132.34ZM511.94-66.04C511.16-66.04 509.86-64.48 509.86-63.44C510.12-62.66 510.90-61.88 511.68-61.88C512.72-62.14 513.76-63.18 513.76-64.22C513.76-65 512.72-66.04 511.94-66.04Z" fill="#000000"/>
  </g>
</svg>