<svg width="915" height="504" viewBox="0 0 915 504" xmlns="http://www.w3.org/2000/svg">
  <g transform="translate(12, 327.6)">
    <path d="M3.36-16.32C4.32-11.04 7.20-6.24 10.08-2.40C14.88 4.32 23.52 6.72 31.20 4.32C41.28 1.92 49.44-3.84 56.64-10.56C90.24-42.24 104.64-65.28 122.40-106.08C132.96-130.56 141.12-155.04 144-181.44C145.92-193.92 144.96-206.40 139.20-218.40C132-233.28 115.20-250.56 97.92-252.48C91.20-253.44 84.96-246.24 87.84-240.96C89.76-238.08 88.80-237.12 86.88-235.68C79.68-230.40 73.92-224.16 69.12-216.96C62.88-207.84 56.64-198.72 50.88-189.60C22.08-143.52 2.88-90.72 0-36C0.48-31.68 1.44-24 3.36-16.32ZM11.52-51.36C19.20-112.32 50.88-175.68 90.24-222.72C91.20-223.68 92.16-224.64 93.60-226.08C95.52-227.52 96.96-228.48 98.40-225.12C99.36-224.16 101.28-222.24 102.24-222.72C103.68-223.20 105.12-225.12 106.08-226.56C108.48-234.24 105.60-239.04 96-241.92C103.20-243.36 108-239.52 112.32-235.68C126.72-224.16 133.92-209.28 133.92-191.04C133.92-145.92 107.04-80.64 78.24-45.12C69.12-33.12 58.56-22.56 47.04-12.48C40.80-7.68 34.08-2.88 25.44-2.88C21.60-2.88 18.72-4.32 16.80-7.20C12.96-12 10.56-17.76 10.56-23.52C10.08-32.64 10.56-42.24 11.52-51.36ZM151.20 6.72C156 6.72 160.80 5.76 165.60 3.84C183.84-2.40 234.72-50.88 248.64-64.80C250.56-66.24 252-68.16 252.96-70.08C253.44-70.56 253.92-72.96 252.96-73.44C252-73.92 250.08-74.40 249.12-73.92C247.20-72.96 245.76-71.52 243.84-70.08C224.16-52.32 204.48-34.56 184.32-17.76C177.12-11.04 168.96-4.80 158.88-2.40C155.52-1.44 151.68 0.48 148.32-2.88C144.96-5.76 146.88-10.08 148.32-13.44C155.52-31.20 164.64-43.20 173.28-59.04C177.12-66.72 174.24-72.48 166.08-73.92C164.16-74.40 162.24-73.92 160.32-74.40C155.52-74.40 150.72-74.40 144.48-74.40C147.36-78.24 149.76-80.16 151.68-83.04C154.56-88.80 157.44-95.04 159.84-101.28C161.28-105.60 160.32-109.92 156.48-112.80C152.16-115.68 148.32-114.24 144.96-111.84C136.32-106.08 129.60-98.40 126.72-88.32C123.84-78.72 129.60-64.80 144-65.28C148.32-65.28 152.64-65.28 156.48-65.28C164.64-65.76 165.12-64.80 161.28-57.60C154.56-45.12 119.52 5.28 151.20 6.72ZM135.84-83.52C137.28-92.64 142.56-98.88 151.20-105.12C149.76-94.08 144.96-86.88 138.72-80.16C137.28-78.72 135.84-79.20 135.84-81.60C135.36-82.08 135.36-83.04 135.84-83.52ZM216.48 24.48C219.84 25.92 223.68 24.48 225.60 20.64C226.56 18.24 227.52 15.84 228.48 13.44C237.60-10.08 246.72-33.60 257.28-56.64C266.40-43.68 278.88-25.44 291.36-15.84C298.56-10.56 305.28-7.68 312.48-7.68C332.64-7.68 363.84-43.20 375.84-57.60C378.24-60.48 381.12-62.88 384-65.76C386.40-68.16 386.40-71.04 384.48-72.96C383.04-74.88 380.16-74.40 377.76-71.52C364.80-58.56 352.32-46.08 339.36-33.12C334.08-28.32 328.32-24 322.08-20.16C318.72-18.24 314.40-16.80 311.04-17.28C303.84-18.72 297.60-22.56 291.84-27.84C283.20-36.48 276-46.56 269.28-56.64C265.92-61.92 266.40-63.84 270.24-68.64C278.88-77.76 289.44-84 300.96-89.28C310.08-93.60 320.16-96 330.24-99.36C332.64-99.84 334.08-101.28 333.60-104.16C333.12-107.04 331.20-107.52 328.80-107.52C312-107.52 289.44-94.56 275.52-85.92C273.60-84.48 271.20-83.04 268.80-81.60C268.80-81.60 268.32-81.12 267.84-81.12C267.84-81.12 268.32-81.60 268.80-82.08C276.48-102.72 286.56-122.88 296.16-142.56C301.92-155.04 308.16-167.04 314.40-179.52C322.08-194.88 330.24-210.72 337.92-226.08C347.52-244.32 357.12-262.56 366.24-280.80C369.12-285.12 371.04-290.40 373.44-295.20C374.88-298.08 376.32-301.44 377.76-304.32C378.72-306.72 377.76-308.64 375.84-310.56C373.44-312 371.52-311.52 369.60-310.08C368.64-309.12 367.68-307.68 367.20-306.72C362.88-299.04 359.52-290.88 355.68-283.20C344.64-261.12 333.12-239.52 321.12-217.92C312.96-201.60 304.80-185.28 296.16-168.96C282.72-143.04 269.28-117.60 256.80-91.20C254.88-88.32 253.92-84.96 252.48-82.08C247.20-72 240.96-62.40 238.08-51.36C237.60-49.92 236.64-48.96 236.16-48C226.08-27.84 216.96-6.72 211.68 15.36C210.72 19.68 213.12 23.52 216.48 24.48ZM266.88-80.16C266.88-80.16 266.88-80.16 266.88-80.16ZM365.76-20.16C366.24-13.44 371.04-10.08 377.28-12C380.16-12.96 383.04-14.88 385.92-16.80C398.40-26.40 408.00-38.40 418.56-50.40C421.92-54.72 425.76-59.04 430.56-64.80C429.60-60.48 429.60-58.08 429.12-55.68C427.68-46.56 426.72-37.44 429.12-28.32C432-18.72 437.76-16.32 446.88-19.68C455.04-23.04 461.28-28.80 467.04-34.56C479.04-46.08 486.72-54.72 498.24-66.72C502.08-71.04 502.56-73.44 500.64-75.36C498.72-77.28 495.84-76.32 492-72.48C482.40-62.40 477.12-55.68 467.04-46.08C460.32-39.84 453.12-34.08 445.92-28.32C441.60-25.44 439.20-26.40 438.24-31.68C437.76-36.48 437.76-41.28 438.24-46.08C439.68-58.56 443.04-70.56 447.84-82.08C448.80-84.48 449.28-86.88 449.76-89.28C450.24-91.68 449.76-94.56 446.88-95.04C444.96-95.52 442.08-95.04 440.16-94.08C438.72-93.12 437.76-91.68 436.80-90.24C432.48-83.52 428.16-77.28 423.84-71.04C414.24-59.04 404.64-47.04 394.56-35.04C389.76-30.24 384.00-26.40 378.24-22.08C375.84-20.16 374.40-21.12 374.40-23.52C374.88-26.88 374.88-30.24 375.84-33.12C378.72-44.64 390.72-80.16 400.80-88.32C404.64-91.68 405.12-95.04 406.08-98.88C406.56-101.28 406.08-104.16 403.68-104.64C401.76-105.12 398.88-105.12 397.44-104.16C394.56-101.76 392.16-98.88 390.24-95.52C387.36-89.76 384.96-83.52 381.60-78.24C371.04-60.48 365.76-40.80 365.76-20.16ZM474.24-10.56C476.16-11.04 478.56-12 480.00-13.44C484.32-17.76 488.16-22.56 492.48-26.40C503.52-36.96 515.04-47.04 526.08-57.12C528.96-59.52 531.84-61.44 534.72-63.36C535.68-63.84 537.60-64.32 538.56-63.84C539.52-63.36 540-61.44 539.52-60C539.04-54.72 537.60-48.96 536.64-43.68C535.68-34.56 534.72-24.96 534.24-15.36C533.76-12 534.72-8.64 536.16-5.28C538.08 0 541.92 3.36 547.68 3.36C549.60 3.36 552.48 2.40 554.88 1.44C565.44-2.40 573.60-9.12 581.28-16.80C596.64-30.72 611.04-45.60 625.44-60C627.36-61.92 629.28-63.84 630.72-66.24C632.16-68.16 632.64-70.08 632.64-72.48C633.12-75.36 629.76-76.80 626.88-74.88C626.40-74.40 625.92-73.44 624.96-72.96C615.36-62.88 605.76-52.80 596.16-43.20C588.48-35.52 559.68-7.20 549.60-7.20C546.72-7.20 544.80-9.60 544.80-14.40C545.28-21.60 546.24-28.80 546.72-36C548.16-46.08 549.60-56.16 551.04-66.24C552-71.52 546.24-77.28 540.96-77.28C539.04-77.28 537.12-76.80 535.68-75.36C534.24-74.40 532.80-73.92 531.84-72.96C519.84-62.40 508.32-51.36 496.32-40.80C492.00-36.96 487.68-33.12 482.88-28.80C482.88-29.76 482.40-30.24 482.88-30.72C492.00-50.88 502.08-68.64 513.60-87.36C514.08-88.80 514.56-91.20 514.08-92.16C513.12-93.60 510.72-95.04 508.80-94.56C506.88-94.56 504.96-93.12 503.52-91.68C500.64-89.28 498.24-86.40 496.32-83.04C487.20-65.28 485.28-60 476.64-42.24C472.80-35.04 470.88-26.88 468.96-18.72C467.52-13.92 469.92-10.08 474.24-10.56ZM735.84-37.44C736.32-31.20 736.32-23.04 737.76-15.36C739.68-2.40 747.84 13.44 762.24 14.88C772.32 15.84 780.48 12 788.16 7.20C800.16 0 810.72-8.64 820.80-17.76C842.88-38.88 844.80-36.96 866.88-58.08C870.24-60.96 872.64-64.80 875.04-68.64C875.52-70.08 875.04-72.96 874.56-73.92C873.12-76.32 870.24-75.84 868.32-74.40C867.36-73.92 866.40-72.96 865.92-72C862.08-68.16 859.20-63.84 855.36-60.48C835.68-40.80 814.08-20.16 792.00-3.84C785.28 0.96 778.08 4.80 769.44 6.24C763.68 7.68 756.96 5.28 754.08 0.48C752.16-3.36 750.72-7.68 749.76-11.52C746.40-26.88 749.28-42.24 753.12-57.12C764.16-105.12 806.40-190.08 851.04-217.92C856.80-221.28 864.00-223.20 870.72-223.20C877.92-223.20 881.76-219.36 881.28-212.16C881.28-210.72 882.24-209.28 882.72-207.84C884.16-208.32 886.56-208.32 887.52-209.76C892.32-214.56 890.88-224.16 885.12-228.48C878.88-232.80 872.16-234.72 864.00-233.28C822.72-222.24 786.72-167.04 766.56-132C750.72-104.16 737.28-69.12 735.84-37.44ZM876.48-7.68C877.44-9.12 879.36-10.56 880.32-12.96C883.20-18.24 886.08-23.52 888.96-29.28C890.40-31.68 891.36-34.08 888.48-36.48C886.56-38.40 883.20-38.40 880.80-35.52C875.52-28.80 873.12-20.64 871.20-12C870.72-9.60 872.64-8.16 876.48-7.68Z" fill="#000000"/>
  </g>
</svg>