<svg width="256" height="399" viewBox="0 0 256 399" xmlns="http://www.w3.org/2000/svg">
  <g transform="translate(25.200000000000003, 259.35)">
    <path d="M215.20-204.80C214-203.20 200-177.60 192.40-162.40C162.80-102 137.20-39.60 112 22.80C107.20 33.60 100 48 97.20 52C94.40 55.60 91.20 58 90 57.60C89.60 57.20 88.80 56 88 54.80C82.40 41.20 84 6.40 92.80-41.60C97.60-66.80 103.60-91.60 114-124.80C119.20-141.60 121.60-150 121.60-152.40C121.60-154.40 119.60-156.80 117.60-157.20C114.80-158 107.60-149.60 92.40-126.40C59.60-77.60 32-26.40 4.40 25.20C4.40 18.80 62.80-120.40 67.60-131.60C77.60-155.60 81.20-164 81.20-165.20C81.20-166 78.80-168 77.60-168C76.80-168 76-166.40 73.60-161.60C70-152.80 64.80-141.20 60.80-130C58.80-125.60 53.60-112.80 48.80-101.60C27.20-50.40 11.60-11.60-2.40 27.20C-8 43.20-13.20 57.60-13.20 58.80C-13.20 59.20-12.40 60.40-11.60 60.80C-10 62.40-8.80 62.40-8 61.60C-7.60 61.20-1.60 49.60 4.80 36.40C24.80-4 41.20-33.60 62-68.80C82-102.40 109.20-144 115.60-150L116.80-151.20L116-147.60C115.60-145.60 112.80-136.40 109.60-127.60C95.20-80.40 86.80-44.40 82.40-7.20C77.20 35.20 79.60 57.20 90 60.40C94.40 61.60 98.40 59.20 103.20 51.60C108.80 42.80 112.80 34 130.40-8.80C163.20-90 192-153.60 212.80-191.20C216-197.20 218.80-202.40 218.40-202.80C218-203.60 215.60-205.20 215.20-204.80ZM200.40-42.80C199.60-43.20 197.60-41.60 192.00-36C178.40-22 166.40-11.60 161.20-8.80C157.60-6.80 156.00-6.80 155.20-9.20C154.40-12 156.00-20 158.40-26.40L158.80-28L160.00-26.40C161.20-24.40 163.20-23.20 164.80-23.20C172.80-23.20 192.40-52.40 190.40-62C190.00-64.80 187.60-67.20 184.80-67.20C176.00-67.20 159.20-46 153.60-26.80C149.60-14.40 150.40-7.60 156.00-4C160.00-1.60 164.80-4 175.60-13.60C181.60-18.80 201.20-38.40 201.60-39.60C202.40-40.80 201.60-42.40 200.40-42.80ZM168.40-46.40C170.80-49.60 173.20-52.40 174.40-52.40C174.80-52.40 175.20-52.80 174.80-53.60C174.80-54.40 175.60-55.20 178.00-57.60C181.20-60.80 186.00-63.60 186.40-63.20C188.00-61.60 183.20-50.40 177.60-42C174.40-36.80 168.80-30.80 166.00-28.80C162.80-26.80 162.40-26.80 162.40-29.20C162.40-34 164.80-40.80 168.40-46.40Z" fill="#000000"/>
  </g>
</svg>