<svg width="345" height="613" viewBox="0 0 345 613" xmlns="http://www.w3.org/2000/svg">
  <g transform="translate(11.542150202128978, 398.45)">
    <path d="M260.16-411.36C255.36-410.40 251.04-390.72 248.64-362.40C247.68-350.40 245.28-336.48 227.04-242.88C221.76-214.56 214.08-172.32 210.24-149.28C195.36-62.40 179.52 13.92 171.84 37.44C166.56 54.24 158.40 67.20 153.60 67.20C149.76 67.20 143.52 56.64 140.16 44.16C125.76-5.28 128.64-107.04 147.84-240.96C156.96-307.20 157.92-317.28 154.56-322.08C150.24-327.36 146.40-325.44 137.76-313.92C115.68-283.68 85.44-208.80 68.16-142.08L65.76-133.44L59.04-159.36C48.96-198.24 33.60-232.32 18.24-249.12C10.56-257.76 2.88-259.20 0.96-252.48C-0.96-247.68 2.88-242.88 8.16-242.88C12.48-242.88 21.12-229.92 32.64-207.36C45.12-182.40 58.56-135.36 59.04-114.72C59.04-108.48 57.12-91.68 54.72-77.76C48.48-43.20 46.56-21.60 45.12 14.88C43.68 49.92 46.08 83.52 50.88 90.72C55.68 97.92 60 96.48 64.32 86.88C77.28 56.64 81.60-20.64 72.96-87.84C69.60-116.16 69.60-116.16 82.56-164.16C96.48-213.60 120-271.68 137.76-300C143.04-308.16 147.84-315.84 149.28-316.32C152.16-318.24 150.72-300.48 141.60-238.56C129.60-151.68 128.16-131.52 127.68-56.64C127.68 18.24 129.60 36.48 139.68 58.56C148.80 79.20 160.32 77.28 172.32 53.28C181.92 34.08 196.32-29.76 216.48-146.88C220.32-170.40 228.96-216.96 235.68-250.56C265.44-405.12 266.40-412.80 260.16-411.36ZM65.28 45.60C63.84 57.12 60.96 70.56 59.52 75.84L56.64 84.48L55.68 77.28C52.80 60.48 51.84 25.92 54.24-4.32C56.64-39.84 61.92-79.68 64.32-82.08C69.60-88.32 70.56 12 65.28 45.60ZM321.12-144C320.16-147.36 315.84-146.88 314.88-143.52C305.76-119.04 284.64-88.32 273.12-84C265.44-81.12 258.72-99.36 264.48-124.32C267.84-139.68 267.84-140.16 274.56-139.20C281.76-138.24 286.08-140.64 289.92-146.88C299.52-161.76 285.12-173.28 273.12-160.32C266.40-153.12 263.52-147.84 259.68-133.92C253.44-110.88 254.40-89.76 262.08-82.08C271.20-72.96 285.60-81.12 301.92-104.64C311.04-118.08 322.08-141.12 321.12-144ZM284.64-159.36C287.52-158.40 287.52-155.04 283.68-150.24C280.32-145.92 275.52-144.96 274.08-148.80C273.12-152.16 281.28-160.80 284.64-159.36Z" fill="#000000"/>
  </g>
</svg>