<?xml version="1.0" encoding="UTF-8"?>
<svg xmlns="http://www.w3.org/2000/svg" xmlns:xlink="http://www.w3.org/1999/xlink" version="1.2" >
<font id="Mackmoore">
<font-face  font-family="Mackmoore" units-per-em="1000" ascent="750" descent="-250" font-style="normal" font-weight="400" font-stretch="normal" cap-height="700" x-height="500" underline-position="-75" underline-thickness="50" />
<missing-glyph  horiz-adv-x="201" d="" />
<glyph glyph-name="NULL" d="" />
<glyph glyph-name="CR" unicode="&#xd;" horiz-adv-x="201" d="" />
<glyph glyph-name="space" unicode="&#x20;" horiz-adv-x="201" d="" />
<glyph glyph-name="exclam" unicode="&#x21;" horiz-adv-x="250" d="M269 567 C266 570 260 570 258 567 C171 445 94 318 15 191 C7 178 0 165 -4 152 C-5 146 -1 141 6 142 C8 142 10 145 12 148 C17 158 22 169 28 179 C93 285 231 493 269 557 C272 561 272 564 269 567 L269 567 Z M-32 74 C-37 74 -41 70 -40 65 C-40 61 -36 58 -32 58 C-27 58 -24 62 -24 67 C-25 71 -28 74 -32 74 L-32 74 Z " />
<glyph glyph-name="quotedbl" unicode="&#x22;" horiz-adv-x="240" d="M126 520 C124 514 118 505 128 501 C136 498 139 508 142 514 C159 541 177 567 196 592 C199 595 200 600 197 604 C193 608 188 605 182 600 C161 575 143 548 126 520 L126 520 Z M235 591 C237 595 238 600 233 604 C228 606 224 603 221 599 C203 572 183 545 165 518 C162 513 159 507 164 502 C169 497 176 504 179 508 C198 535 218 563 235 591 L235 591 Z " />
<glyph glyph-name="numbersign" unicode="&#x23;" horiz-adv-x="403" d="M366 364 C347 363 326 363 307 363 C316 378 327 394 338 409 C339 410 340 412 341 412 C348 415 347 426 342 429 C335 434 329 423 326 419 C314 403 302 386 290 370 C287 365 283 361 276 362 C245 362 216 359 186 359 C206 386 227 414 249 441 C253 447 266 448 263 456 C263 460 260 462 256 462 C249 462 241 456 237 452 C228 441 218 431 210 420 C195 401 181 381 167 362 C165 360 163 358 160 358 C127 358 72 356 36 354 C31 354 28 350 28 345 C29 341 32 339 37 339 C77 341 116 340 151 340 C135 315 119 291 102 267 C101 265 99 264 96 264 C69 264 42 264 15 264 C11 264 8 262 7 259 C5 251 11 248 17 248 C40 248 64 247 88 247 C77 229 65 211 54 193 C44 177 35 163 28 148 C26 141 24 132 33 130 C37 129 41 132 43 137 C45 142 46 146 48 150 C65 180 91 218 107 244 C109 246 111 247 113 247 C145 247 176 248 208 246 C183 205 163 171 143 137 C140 129 133 109 147 109 C155 112 155 121 158 127 C183 170 204 204 226 242 C228 245 231 247 235 247 C258 246 281 246 304 245 C308 245 312 245 316 242 C319 240 324 241 326 245 C333 252 324 258 318 260 C313 261 308 262 303 262 C282 263 261 263 241 264 C257 290 274 316 291 342 C293 345 296 346 299 346 C323 346 349 349 373 346 C377 345 380 346 382 349 C390 359 373 364 366 364 L366 364 Z M222 268 C220 264 218 264 215 264 C183 264 153 264 121 264 C137 289 154 313 170 338 C173 341 175 342 178 342 C209 342 240 345 272 344 L222 268 Z " />
<glyph glyph-name="dollar" unicode="&#x24;" horiz-adv-x="347" d="M282 464 C279 465 277 466 274 467 C286 486 297 505 308 523 C309 525 310 526 311 526 C315 529 315 532 314 536 C314 543 307 544 303 541 C301 540 300 539 299 538 C295 532 291 526 287 520 C277 505 267 490 258 475 C256 471 253 469 249 469 C202 472 84 421 73 376 C71 368 73 361 79 355 C86 350 99 345 110 342 C128 336 146 333 162 325 C150 306 138 286 126 267 C107 271 90 263 76 254 C38 228 -32 171 -18 124 C-13 104 6 98 23 98 C1 57 -24 19 -43 -23 C-45 -29 -49 -38 -41 -42 C-29 -49 -28 -30 -26 -26 C-5 17 20 58 44 99 C45 101 47 102 49 103 C58 106 67 109 75 113 C128 138 169 175 201 224 C228 265 224 309 187 332 C205 360 222 387 240 415 C247 426 254 437 261 448 C262 450 263 452 266 451 C284 447 297 436 296 415 C295 398 290 376 292 365 C293 361 297 358 300 359 C304 360 306 361 307 370 C310 392 315 412 311 433 C306 448 296 458 282 464 L282 464 Z M38 121 C36 118 33 116 29 116 C16 114 0 117 -2 132 C-7 164 50 213 71 230 C87 241 102 251 116 251 C87 204 64 164 38 121 L38 121 Z M188 235 C154 185 110 142 60 125 C82 163 105 200 128 237 C129 240 130 241 133 242 C137 242 139 246 138 250 C138 252 138 254 140 257 C153 277 165 297 178 317 C209 296 206 264 188 235 L188 235 Z M172 341 C153 348 134 353 113 359 C107 361 100 363 94 366 C83 370 101 386 103 388 C141 420 195 452 243 452 C219 415 195 378 172 341 L172 341 Z " />
<glyph glyph-name="percent" unicode="&#x25;" horiz-adv-x="378" d="M440 504 C434 516 413 508 404 505 C367 494 330 482 293 472 C263 463 232 456 202 449 C199 448 198 448 196 450 C186 458 171 454 163 447 C138 432 103 401 103 373 C103 362 110 356 121 356 C142 356 165 378 171 396 C175 405 174 415 168 424 C226 435 283 450 339 467 C364 475 389 484 414 490 C355 439 310 399 257 356 C123 246 -14 133 -135 8 C-143 0 -153 -11 -156 -18 C-158 -23 -159 -30 -150 -34 C-142 -38 -127 -30 -133 -19 C-133 -19 -134 -18 -135 -17 C-132 -14 -130 -11 -127 -8 C-22 93 85 190 197 284 C275 350 354 414 431 481 C439 489 443 497 440 504 L440 504 Z M155 402 C149 390 134 373 120 373 C121 383 138 406 151 416 C156 411 158 407 155 402 L155 402 Z M140 120 C132 128 123 129 113 125 C109 123 106 121 101 118 C105 124 109 129 113 134 C118 137 118 142 115 146 C112 150 107 149 101 143 C97 139 94 135 91 131 C77 113 63 89 63 70 C63 57 72 49 83 49 C107 49 127 65 140 79 C150 92 152 109 140 120 L140 120 Z M94 67 C88 65 80 64 80 71 C80 81 86 93 91 100 C95 90 101 89 107 97 C110 101 113 104 116 107 C122 112 129 110 131 103 C136 88 104 71 94 67 L94 67 Z " />
<glyph glyph-name="ampersand" unicode="&#x26;" horiz-adv-x="308" d="M262 529 C255 535 249 528 245 522 C216 488 188 451 161 415 C125 411 71 395 58 371 C53 362 53 353 60 348 C86 327 117 324 142 311 C120 298 95 292 72 283 C42 271 -25 241 -37 216 C-40 210 -39 201 -31 199 C-16 195 11 198 26 200 C0 160 -40 84 -55 47 C-58 40 -58 33 -52 30 C-45 28 -40 39 -39 43 C-17 93 10 140 38 187 C40 192 46 194 48 200 C49 203 50 203 55 204 C106 212 147 217 188 221 C197 223 209 216 214 225 C220 235 205 239 199 239 C153 235 108 229 63 222 C36 218 7 213 -20 214 C8 237 40 251 71 264 C92 272 113 280 134 288 C141 291 148 294 154 298 C165 304 165 316 155 323 C139 335 117 340 100 346 C90 350 77 355 73 360 C74 364 83 373 90 377 C112 389 136 396 161 398 C180 398 210 393 210 371 C210 364 218 355 224 361 C229 364 227 372 225 376 C225 400 199 409 181 414 C206 448 227 476 258 514 C262 518 267 524 262 529 L262 529 Z " />
<glyph glyph-name="quotesingle" unicode="&#x27;" horiz-adv-x="163" d="M94 510 C92 507 94 502 95 501 C101 496 107 500 112 508 C128 534 144 561 160 587 C163 590 164 596 159 599 C154 603 150 599 147 595 C129 566 108 541 94 510 L94 510 Z " />
<glyph glyph-name="parenleft" unicode="&#x28;" horiz-adv-x="239" d="M297 568 C284 562 271 555 259 547 C173 494 104 415 57 333 C13 255 5 175 0 91 C0 80 0 70 0 59 C0 52 7 45 13 49 C21 51 17 63 17 67 C17 76 17 85 18 95 C25 194 32 264 86 347 C136 427 208 501 287 545 C295 549 303 554 312 556 C316 557 318 560 318 564 C318 575 302 569 297 568 L297 568 Z " />
<glyph glyph-name="parenright" unicode="&#x29;" horiz-adv-x="224" d="M226 554 C224 560 222 568 213 564 C210 562 209 559 210 555 C220 509 204 454 189 414 C154 326 100 257 45 198 C-8 141 -53 96 -102 53 C-106 50 -107 46 -105 42 C-103 38 -98 36 -93 40 C-18 98 108 230 157 312 C198 379 238 478 226 554 L226 554 Z " />
<glyph glyph-name="asterisk" unicode="&#x2a;" horiz-adv-x="255" d="M203 526 C192 507 171 485 164 464 C163 459 166 455 170 454 C175 453 179 456 181 461 C182 463 182 466 184 468 C197 486 210 504 222 523 C227 504 232 484 238 466 C240 459 243 453 251 455 C256 457 256 464 254 469 C249 491 243 512 237 534 C260 538 280 543 304 546 C310 547 312 553 310 558 C307 565 301 565 294 563 C279 560 262 558 246 554 C252 564 259 573 266 583 C270 588 276 591 272 599 C268 606 259 601 255 595 C246 583 238 573 230 562 C227 570 226 578 223 587 C222 594 217 596 211 593 C204 588 210 576 212 565 C213 559 214 553 216 547 C197 541 178 536 158 531 C152 529 146 526 149 519 C151 515 153 513 159 515 C174 520 188 522 203 526 L203 526 Z " />
<glyph glyph-name="plus" unicode="&#x2b;" horiz-adv-x="306" d="M215 286 C185 290 156 290 128 290 C136 304 144 315 155 332 C160 340 167 350 172 356 C175 360 179 359 179 364 C179 373 174 377 167 374 C159 370 154 360 150 355 C137 334 123 314 109 293 C108 291 106 290 103 290 C59 290 28 286 -2 283 C-9 283 -20 282 -19 272 C-18 267 -14 265 -9 266 C0 268 86 272 96 273 C74 234 47 192 29 159 C26 154 24 147 31 144 C39 141 47 158 50 163 C71 198 93 234 114 269 C116 272 117 273 120 273 C168 273 196 272 217 267 C221 266 224 268 226 271 C230 280 224 283 215 286 L215 286 Z " />
<glyph glyph-name="comma" unicode="&#x2c;" horiz-adv-x="225" d="M94 249 C98 254 90 261 84 258 C61 239 37 210 16 183 C12 177 8 169 15 163 C20 160 24 165 27 169 C46 191 74 225 94 249 L94 249 Z " />
<glyph glyph-name="hyphen" unicode="&#x2d;" horiz-adv-x="188" d="M108 278 C108 284 104 285 99 285 C78 285 34 286 13 284 C9 284 7 281 7 277 C7 272 10 270 14 270 C41 269 74 271 101 270 C106 270 108 273 108 278 L108 278 Z " />
<glyph glyph-name="period" unicode="&#x2e;" horiz-adv-x="112" d="M37 218 C38 222 37 227 30 228 C25 229 22 226 20 221 C18 216 19 209 26 208 C32 207 36 213 37 218 L37 218 Z " />
<glyph glyph-name="slash" unicode="&#x2f;" horiz-adv-x="391" d="M417 491 C416 495 411 498 407 495 C400 490 394 486 388 480 C288 392 38 135 -38 54 C-42 50 -45 40 -37 38 C-32 37 -29 39 -26 42 C-20 48 -15 55 -9 61 C96 170 324 399 407 476 C412 481 421 485 417 491 L417 491 Z " />
<glyph glyph-name="zero" unicode="0" horiz-adv-x="201" d="M151 273 C169 301 195 354 185 390 C181 403 165 407 151 404 C149 403 147 403 146 404 C136 408 126 399 118 392 C104 379 87 369 71 353 C58 340 45 323 47 303 C47 301 47 299 46 297 C44 292 41 287 38 282 C25 256 9 219 17 192 C21 178 31 171 46 173 C87 178 125 230 151 273 L151 273 Z M33 199 C27 229 55 278 74 311 C86 330 99 349 114 365 C124 375 139 380 152 386 C158 389 168 390 170 381 C177 337 123 256 91 219 C79 207 65 194 46 190 C38 189 35 191 33 199 L33 199 Z " />
<glyph glyph-name="one" unicode="1" horiz-adv-x="166" d="M199 497 C169 479 144 462 118 445 C112 441 112 436 114 433 C118 428 125 431 130 434 C146 444 161 454 176 463 C88 346 15 240 -44 127 C-51 113 -58 101 -58 88 C-58 82 -54 78 -48 77 C-39 77 -30 86 -35 94 C-36 95 -38 95 -39 96 C-33 110 -27 123 -20 135 C39 244 106 337 178 436 C190 452 201 467 211 483 C216 491 207 502 199 497 L199 497 Z " />
<glyph glyph-name="two" unicode="2" horiz-adv-x="209" d="M12 192 C78 245 189 378 184 440 C182 458 168 468 151 464 C115 457 81 421 59 391 C56 386 53 381 53 372 C53 368 57 365 61 365 C64 366 68 368 68 372 C68 376 70 379 72 382 C92 407 119 434 150 446 C162 451 168 447 167 434 C160 375 82 283 33 233 C17 217 0 204 -19 192 C-22 190 -25 189 -29 188 C-48 185 -73 184 -84 171 C-89 165 -88 156 -80 154 C-67 151 -41 160 -22 170 C-20 171 -17 173 -15 173 C27 177 67 173 114 166 C122 165 131 163 139 161 C140 160 140 159 140 158 C142 152 147 150 153 153 C159 158 160 166 154 171 C151 174 147 176 143 177 C99 187 58 191 12 192 L12 192 Z " />
<glyph glyph-name="three" unicode="3" horiz-adv-x="222" d="M194 479 C184 482 178 481 170 481 C137 478 106 471 76 458 C71 456 66 453 61 450 C56 447 53 438 58 435 C61 433 65 433 68 435 C72 439 77 441 83 443 C104 451 127 457 150 461 C165 463 178 466 192 461 C184 447 175 439 136 413 C104 392 73 373 43 352 C39 349 38 345 39 340 C41 332 55 332 60 332 C92 330 122 328 144 308 C187 271 158 213 130 183 C92 142 50 116 -3 98 C-39 86 -76 78 -113 73 C-120 72 -127 72 -134 71 C-138 79 -142 80 -149 76 C-153 72 -157 70 -156 63 C-154 57 -148 54 -143 54 C-95 54 -49 66 -9 78 C70 102 203 184 183 277 C177 303 160 321 137 333 C116 344 93 347 68 349 C102 372 136 392 169 414 C184 423 202 442 207 453 C212 465 206 475 194 479 L194 479 Z " />
<glyph glyph-name="four" unicode="4" horiz-adv-x="245" d="M270 448 C255 444 222 411 205 395 C170 362 136 329 100 298 C81 281 34 242 18 242 C13 242 14 247 14 249 C17 272 30 293 42 311 C77 365 114 416 156 464 C166 475 176 486 186 498 C189 501 189 506 186 509 C182 515 173 509 171 505 C164 498 158 492 151 485 C118 447 86 408 57 366 C37 338 -8 278 -3 243 C-2 233 5 225 15 225 C60 225 143 313 170 339 C193 360 219 386 244 407 C229 384 212 362 197 339 C129 243 70 153 26 59 C22 52 18 42 20 35 C21 28 28 25 34 28 C40 31 42 37 38 44 C39 47 40 51 42 54 C91 153 154 247 217 339 C235 364 253 390 271 416 C276 422 282 431 282 438 C283 445 277 450 270 448 L270 448 Z " />
<glyph glyph-name="five" unicode="5" horiz-adv-x="226" d="M320 444 C316 446 312 447 309 448 C293 450 278 450 263 450 C239 449 215 448 191 447 C189 447 187 447 186 449 C182 452 177 452 173 449 C169 447 165 446 161 446 C141 444 122 442 102 440 C88 439 74 436 60 437 C56 437 53 434 52 431 C51 427 53 423 57 422 C59 421 61 421 63 421 C74 421 84 422 94 423 C111 424 127 426 144 427 C119 403 93 378 67 353 C55 341 44 329 33 316 C27 310 20 301 27 294 C32 289 39 291 45 294 C77 307 114 320 147 316 C160 314 166 307 165 295 C162 259 114 205 92 184 C52 147 10 114 -32 81 C-37 77 -44 72 -40 65 C-35 57 -28 64 -23 66 C19 99 61 133 101 169 C134 199 184 258 182 301 C181 316 173 326 158 331 C127 341 86 326 56 317 C77 338 98 360 120 380 C136 396 152 411 169 427 C171 428 173 429 175 430 C182 430 189 431 196 431 C210 431 224 432 238 432 C257 432 277 432 296 432 C299 432 302 431 304 431 C305 430 305 429 305 428 C307 423 311 421 316 423 C318 424 321 425 322 427 C328 433 327 441 320 444 L320 444 Z " />
<glyph glyph-name="six" unicode="6" horiz-adv-x="235" d="M268 451 C262 491 222 486 197 473 C104 426 -44 254 -19 143 C-15 127 -6 115 10 110 C11 110 12 109 13 109 C13 105 13 101 14 97 C15 89 22 83 30 82 C34 82 37 84 38 88 C40 91 38 94 35 97 C29 101 29 102 31 109 C74 117 125 171 149 219 C158 237 162 252 160 268 C158 279 150 284 139 284 C121 284 93 255 81 241 C56 208 36 173 20 135 C19 132 18 130 17 126 C7 128 2 135 -1 144 C-28 246 129 423 208 460 C222 466 244 472 250 453 C253 443 251 431 248 422 C242 402 232 385 220 368 C218 365 216 362 215 358 C213 354 215 350 218 349 C222 347 225 348 228 352 C231 356 234 360 237 364 C255 387 271 424 268 451 L268 451 Z M93 229 C107 248 125 264 142 268 C147 257 141 241 136 231 C120 197 66 131 36 129 C48 162 71 199 93 229 L93 229 Z " />
<glyph glyph-name="seven" unicode="7" horiz-adv-x="296" d="M294 470 C258 476 218 470 181 468 C143 465 108 461 76 461 C67 461 65 457 65 454 C65 448 70 444 74 444 C110 444 157 448 194 452 C220 454 280 458 295 451 C293 442 281 425 273 416 C248 387 221 361 195 335 C191 331 188 330 183 331 C141 334 98 337 56 340 C51 340 47 337 46 333 C46 329 48 326 53 325 C94 321 135 317 173 314 C96 240 -8 141 -53 60 C-55 55 -58 49 -59 44 C-61 36 -57 30 -50 28 C-44 26 -39 28 -34 31 C-32 33 -31 35 -31 38 C-33 44 -37 43 -41 45 C-39 48 -38 51 -36 54 C0 106 41 152 82 198 C117 237 155 274 194 310 C195 311 196 313 199 312 C210 311 222 310 233 308 C244 306 254 298 260 306 C265 314 253 320 248 321 C237 326 225 327 213 328 C238 353 264 378 286 405 C300 420 312 435 312 453 C310 463 303 468 294 470 L294 470 Z " />
<glyph glyph-name="eight" unicode="8" horiz-adv-x="222" d="M206 453 C200 459 193 462 185 462 C161 461 130 451 107 439 C77 424 43 401 31 378 C23 363 24 348 31 332 C38 318 50 302 61 292 C41 278 22 261 4 245 C-28 214 -67 171 -63 134 C-57 93 -6 102 19 112 C52 128 87 154 103 186 C115 208 117 230 106 253 C100 265 94 277 85 288 C122 312 159 333 198 351 C201 352 204 353 207 354 C212 355 214 358 214 362 C214 366 210 369 206 369 C203 369 199 368 197 367 C183 361 169 356 156 349 C117 330 93 314 74 301 C64 314 54 325 46 339 C40 350 40 360 46 370 C61 396 109 425 149 438 C158 441 167 444 177 445 C197 447 207 428 211 412 C212 405 211 399 207 393 C203 389 205 384 207 381 C211 377 216 380 219 383 C224 387 226 392 227 398 C229 417 222 437 206 453 L206 453 Z M71 278 C81 265 89 252 94 236 C101 214 89 195 78 179 C60 158 39 141 14 129 C-2 122 -46 110 -46 138 C-47 167 3 222 23 239 C39 253 55 266 71 278 L71 278 Z " />
<glyph glyph-name="nine" unicode="9" horiz-adv-x="245" d="M216 428 C216 444 208 456 194 463 C173 473 148 465 125 454 C96 438 72 417 51 392 C40 379 26 359 26 340 C26 330 33 323 42 321 C69 315 104 335 129 349 C149 362 170 374 190 388 C191 388 191 388 191 387 C196 381 202 381 206 388 C207 393 210 400 215 406 C224 411 230 417 238 422 C229 407 216 393 206 379 C136 289 75 193 19 94 C11 81 0 60 0 51 C-1 43 5 38 12 39 C18 39 23 45 19 57 C24 66 29 76 34 85 C90 184 151 279 220 369 C241 396 263 424 284 451 C288 455 292 463 288 469 C280 477 274 468 267 465 C250 452 233 439 216 428 L216 428 Z M123 433 C140 443 160 453 182 449 C194 446 200 436 199 424 C199 417 196 412 190 409 C168 395 147 381 125 367 C109 357 92 348 74 342 C69 340 41 330 43 344 C44 354 51 364 62 379 C80 400 100 418 123 433 L123 433 Z " />
<glyph glyph-name="colon" unicode="&#x3a;" horiz-adv-x="153" d="M97 345 C92 346 88 342 87 337 C87 333 90 329 95 328 C99 328 103 332 104 337 C104 341 101 345 97 345 L97 345 Z M53 273 C49 273 45 270 44 266 C43 262 47 258 50 257 C54 257 58 259 59 264 C59 268 57 272 53 273 L53 273 Z " />
<glyph glyph-name="semicolon" unicode="&#x3b;" horiz-adv-x="126" d="M65 287 C47 271 29 256 12 239 C10 237 9 234 9 231 C12 219 26 228 30 232 C46 247 63 262 78 277 C81 279 82 282 81 285 C78 293 69 290 65 287 L65 287 Z M100 346 C96 347 93 344 92 340 C92 336 95 332 99 332 C103 331 107 334 107 338 C107 343 104 346 100 346 L100 346 Z " />
<glyph glyph-name="less" unicode="&#x3c;" horiz-adv-x="270" d="M211 378 C210 382 206 384 202 384 C199 383 197 382 195 381 C139 359 62 320 37 300 C30 295 31 287 37 281 C41 278 45 275 49 273 C75 259 101 249 126 239 C146 231 172 221 184 210 C191 204 199 207 199 214 C201 223 187 229 181 233 C136 257 91 267 52 291 C60 297 67 301 76 306 C105 322 135 337 166 351 C179 357 193 363 206 369 C210 371 212 375 211 378 L211 378 Z " />
<glyph glyph-name="equal" unicode="&#x3d;" horiz-adv-x="224" d="M134 287 C134 290 130 293 123 293 C79 293 53 293 23 291 C19 291 17 288 17 284 C18 280 20 278 24 277 C67 277 95 277 126 278 C132 278 135 282 134 287 L134 287 Z M100 256 C100 259 96 262 89 262 C48 262 23 261 -2 261 C-6 260 -8 257 -8 253 C-7 249 -5 247 -1 246 C38 246 65 245 92 247 C98 247 101 252 100 256 L100 256 Z " />
<glyph glyph-name="greater" unicode="&#x3e;" horiz-adv-x="240" d="M206 311 C185 328 171 338 156 349 C137 363 118 376 99 390 C96 392 93 394 93 398 C92 403 85 405 80 403 C73 400 74 389 80 386 C100 366 136 343 142 338 C161 325 179 311 197 297 C183 287 169 281 153 274 C125 261 100 250 76 238 C70 234 62 224 72 218 C81 213 90 226 96 229 C111 236 126 243 141 250 C165 261 187 268 205 282 C217 291 218 301 206 311 L206 311 Z " />
<glyph glyph-name="question" unicode="&#x3f;" horiz-adv-x="340" d="M351 562 C261 562 148 511 104 444 C100 438 95 428 105 426 C112 423 115 434 118 437 C173 501 258 537 332 544 C358 545 415 545 408 507 C397 459 305 392 271 364 C164 272 75 182 -14 91 C-19 86 -18 82 -16 80 C-12 75 -5 77 -2 80 C1 82 3 85 6 87 C106 187 192 277 289 356 C333 394 406 445 424 500 C435 546 386 562 351 562 L351 562 Z M-43 39 C-53 35 -57 30 -61 22 C-62 18 -59 13 -53 13 C-47 14 -42 21 -37 25 C-33 28 -33 34 -35 36 C-36 39 -40 40 -43 39 L-43 39 Z " />
<glyph glyph-name="at" unicode="&#x40;" horiz-adv-x="385" d="M106 208 C127 224 145 242 165 260 C163 248 157 238 158 225 C159 213 167 206 178 206 C201 206 226 217 248 234 C281 261 309 294 329 332 C348 367 368 411 358 457 C332 539 229 494 178 462 C104 415 46 352 4 275 C-20 230 -44 174 -34 119 C-27 88 -9 67 23 59 C69 49 116 67 155 94 C169 103 182 113 194 123 C217 142 239 160 261 179 C268 184 277 192 270 201 C266 204 262 203 250 192 C220 166 191 142 160 118 C124 92 84 71 33 74 C5 79 -14 97 -18 126 C-23 165 -10 206 7 242 C35 303 75 356 125 401 C148 421 171 440 198 455 C238 478 334 518 344 438 C344 368 297 302 242 251 C216 228 175 215 175 227 C175 248 188 271 199 289 C201 295 208 305 200 310 C195 313 189 310 184 306 C190 318 188 333 172 338 C158 344 139 334 126 323 C98 299 76 270 58 237 C54 228 49 217 49 203 C49 194 56 188 65 188 C79 188 92 198 106 208 L106 208 Z M66 205 C66 216 72 228 78 238 C92 262 110 284 131 304 C139 312 150 321 164 322 C172 322 170 313 168 307 C166 301 167 296 173 293 C172 292 171 291 170 290 C147 266 123 242 96 222 C87 214 77 209 66 205 L66 205 Z " />
<glyph glyph-name="A" unicode="A" horiz-adv-x="711" d="M720 297 C718 302 712 306 707 308 C681 318 638 320 607 320 C595 321 580 321 567 321 C584 360 602 400 619 439 C642 489 664 540 686 591 C697 617 711 654 709 678 C708 688 702 696 691 698 C680 700 661 692 649 684 C634 674 618 664 604 653 C551 612 502 568 455 523 C385 456 320 385 258 312 C255 309 253 308 249 307 C224 304 199 301 175 297 C103 284 32 268 -26 246 C-41 240 -53 234 -53 224 C-52 215 -42 216 -35 217 C-22 219 -9 221 3 222 C70 230 132 236 193 234 C140 164 95 101 50 31 C48 28 49 24 52 21 C59 16 63 20 67 26 C113 95 160 165 212 229 C214 232 217 234 221 234 C258 234 287 230 319 225 C367 217 426 206 436 155 C438 140 438 124 437 109 C436 100 432 81 443 77 C453 74 456 85 460 91 C472 115 484 138 495 162 C516 207 536 253 556 298 C558 302 561 304 565 303 C579 303 594 303 608 303 C640 302 672 301 699 293 C703 292 706 290 706 285 C706 282 709 280 712 280 C715 279 718 280 719 283 C720 284 721 285 721 287 C722 291 721 294 720 297 L720 297 Z M210 254 C208 252 206 251 203 251 C133 251 75 248 15 241 C34 251 204 287 238 288 C235 285 232 282 230 279 C223 271 217 262 210 254 L210 254 Z M456 120 C456 136 454 146 452 159 C443 222 365 235 316 243 C286 246 258 250 230 250 C238 263 250 276 260 288 C262 291 264 292 267 292 C362 296 451 303 540 303 C512 241 485 181 456 120 L456 120 Z M550 325 C548 322 547 320 542 320 C447 320 362 314 279 310 C360 405 446 496 541 579 C571 606 603 632 636 655 C655 668 668 678 683 681 C689 682 692 681 692 675 C692 655 682 627 674 608 C652 557 630 506 608 455 C589 411 569 369 550 325 L550 325 Z " />
<glyph glyph-name="B" unicode="B" horiz-adv-x="557" d="M563 290 C563 292 560 297 558 299 C555 302 553 303 550 305 C524 320 498 334 469 344 C466 345 465 346 464 350 C456 400 404 416 362 417 C343 417 325 414 306 412 C315 421 326 431 335 440 C367 469 399 499 428 531 C441 545 453 559 463 575 C468 583 472 591 474 599 C479 617 472 631 456 634 C414 643 365 617 331 601 C335 610 336 621 339 630 C341 636 340 644 332 644 C327 646 324 639 323 636 C318 621 314 607 309 591 C308 588 307 587 305 585 C301 583 296 580 292 577 C244 546 201 508 163 465 C132 432 105 397 82 358 C68 334 56 310 51 283 C50 281 49 279 47 277 C29 265 12 252 -3 236 C-36 203 -62 163 -65 117 C-65 74 -35 38 3 23 C67 1 136 16 191 42 C269 77 337 127 396 191 C431 230 462 277 466 327 C488 319 508 308 528 297 C535 293 543 289 549 283 C552 280 557 280 559 282 C562 284 563 287 563 290 L563 290 Z M310 547 C313 555 317 564 320 573 C321 575 322 576 324 578 C350 593 377 606 406 614 C422 619 440 621 453 616 C457 615 459 612 458 607 C455 595 449 584 442 574 C427 553 409 534 390 515 C360 485 328 455 297 426 C289 420 275 405 272 402 C267 397 272 389 279 389 C282 389 285 389 288 390 C304 394 320 397 337 399 C373 402 415 398 437 371 C441 365 444 358 445 351 C411 360 378 366 344 368 C305 370 267 365 229 356 C220 355 213 352 205 350 C244 413 279 479 310 547 L310 547 Z M125 393 C166 450 238 526 296 559 C283 526 267 494 250 462 C229 423 207 384 183 347 C180 343 177 341 174 340 C139 327 104 313 72 294 C79 325 113 377 125 393 L125 393 Z M66 269 C67 271 68 272 70 273 C76 277 84 281 91 285 C113 298 137 309 161 317 C143 292 122 268 95 255 C90 253 85 251 79 251 C70 251 64 261 66 269 L66 269 Z M438 286 C414 226 368 183 327 148 C259 92 184 45 103 32 C54 26 -4 30 -32 71 C-61 110 -43 156 -21 189 C-13 201 25 248 49 258 C50 247 59 235 76 234 C84 234 92 236 100 239 C133 253 159 285 177 311 C181 315 184 320 187 324 C189 327 190 328 193 329 C225 339 257 346 290 350 C346 355 398 345 449 332 C448 316 444 301 438 286 L438 286 Z " />
<glyph glyph-name="C" unicode="C" horiz-adv-x="519" d="M416 360 C416 360 417 363 417 365 C418 370 418 374 412 376 C408 377 404 376 401 372 C394 360 384 349 379 335 C377 326 384 318 393 321 C405 324 415 333 425 344 C434 355 444 367 452 379 C486 428 525 518 509 580 C503 604 489 622 466 632 C435 644 402 642 367 633 C325 622 287 603 251 579 C213 554 179 524 148 490 C70 405 -9 275 -14 153 C-14 103 0 54 53 24 C95 5 140 10 190 26 C233 42 274 65 312 91 C346 114 378 140 409 167 C450 203 489 241 525 281 C527 285 530 288 531 293 C531 300 525 304 519 300 C517 299 516 297 514 296 C492 271 471 247 447 225 C388 167 324 115 248 72 C202 47 146 21 91 30 C19 45 -3 108 5 180 C18 290 97 412 177 495 C208 527 242 555 281 578 C318 600 358 616 401 622 C416 624 432 624 447 620 C470 614 485 600 492 577 C511 514 459 418 421 366 C420 364 418 362 416 360 L416 360 Z " />
<glyph glyph-name="D" unicode="D" horiz-adv-x="568" d="M570 299 C552 304 516 307 491 309 C477 310 462 311 449 311 C471 346 493 378 510 413 C530 452 547 492 555 535 C563 590 558 654 494 660 C410 669 328 604 271 556 C227 520 186 480 148 437 C177 488 207 537 237 587 C256 617 275 647 292 679 C292 680 293 681 294 682 C299 685 301 689 300 694 C298 707 284 699 281 693 C265 666 249 639 233 612 C180 528 129 442 80 355 C79 352 77 350 75 347 C49 312 25 275 6 235 C3 229 0 222 -2 216 C-5 210 -4 204 1 200 C9 197 14 204 18 210 C24 220 30 230 36 240 C54 272 72 304 90 336 C92 341 95 345 98 349 C143 408 193 463 248 514 C309 568 408 654 494 643 C542 637 544 588 540 551 C536 523 528 496 518 470 C495 414 463 362 429 313 C427 311 426 310 423 310 C395 309 368 306 340 301 C280 291 223 272 170 243 C123 217 80 186 44 146 C17 116 -4 85 -7 48 C-7 34 -2 22 8 12 C37 -17 97 -7 125 4 C201 33 265 90 317 146 C359 190 395 236 430 285 C436 294 436 294 448 294 C477 294 507 291 537 287 C547 286 557 285 567 282 C571 280 575 283 576 287 C577 292 576 297 570 299 L570 299 Z M301 154 C241 90 178 40 109 17 C85 9 56 5 35 14 C17 21 8 35 11 58 C19 89 39 116 59 137 C93 174 134 203 177 227 C228 255 282 273 339 283 C365 288 390 292 414 292 C381 241 340 195 301 154 L301 154 Z " />
<glyph glyph-name="E" unicode="E" horiz-adv-x="480" d="M166 329 C111 264 21 139 33 54 C36 28 61 14 85 14 C135 14 184 40 229 68 C264 90 297 116 330 142 C384 187 435 237 488 284 C495 291 490 300 480 300 C480 300 473 294 471 292 C448 272 426 251 404 231 C363 193 321 156 277 122 C244 97 209 74 171 55 C148 44 125 35 99 32 C80 30 57 34 50 55 C43 109 86 187 124 245 C167 312 221 369 290 410 C299 416 310 429 298 439 C289 447 271 448 257 450 C232 454 192 457 180 463 C171 468 167 475 170 485 C191 545 253 590 311 619 C334 630 362 638 389 635 C419 630 424 602 420 575 C416 556 409 538 399 521 C395 514 391 507 385 502 C382 499 380 496 383 491 C387 486 391 488 396 491 C400 495 403 498 406 502 C420 520 429 540 435 562 C438 576 440 590 438 604 C435 629 418 647 394 652 C369 656 337 650 306 635 C248 608 175 559 154 491 C149 471 156 455 176 447 C198 439 221 437 247 434 C261 433 286 428 286 428 C284 427 279 424 278 423 C235 398 198 366 166 329 L166 329 Z " />
<glyph glyph-name="F" unicode="F" horiz-adv-x="354" d="M670 582 C668 586 665 589 661 591 C639 603 597 608 569 612 C457 627 357 627 261 621 C181 616 111 608 43 586 C18 578 -16 566 -31 552 C-38 546 -36 537 -29 533 C-5 521 17 513 37 501 C100 464 93 347 80 296 C79 296 78 295 78 295 C57 295 39 294 20 293 C15 293 11 292 10 287 C9 284 11 279 16 278 C34 276 57 278 76 278 C69 245 56 213 45 182 C33 149 18 113 14 87 C13 82 14 78 19 75 C28 71 37 80 41 87 C47 95 53 104 59 113 C92 166 125 219 158 272 C160 276 163 277 168 277 C206 277 241 278 282 277 C295 277 306 275 316 273 C320 272 323 274 324 277 C326 280 326 285 322 287 C313 292 300 293 288 294 C263 296 205 296 172 294 C223 373 273 456 328 533 C330 536 332 538 335 539 C341 540 342 546 339 551 C336 555 330 556 326 553 C323 551 320 548 317 545 C310 536 303 528 297 518 C249 445 201 373 155 299 C153 296 151 295 147 295 C125 295 114 296 98 297 C114 387 111 476 42 518 C25 528 6 536 -13 544 C14 561 71 578 109 585 C287 616 436 618 623 587 C632 585 641 583 649 578 C653 577 656 575 654 569 C653 565 656 562 659 561 C670 557 673 575 670 582 L670 582 Z M94 279 C110 278 125 279 141 278 C107 223 73 168 39 115 C58 169 80 222 94 279 L94 279 Z " />
<glyph glyph-name="G" unicode="G" horiz-adv-x="426" d="M334 437 C348 452 361 469 377 482 C356 416 325 351 285 275 C283 272 281 270 277 269 C190 247 109 210 33 161 C5 142 -22 121 -46 96 C-69 72 -94 42 -96 7 C-98 -32 -73 -46 -40 -50 C19 -53 75 -20 125 24 C151 47 173 74 194 102 C229 149 261 199 290 250 C293 254 295 257 300 257 C335 265 371 272 406 279 C413 280 421 282 428 283 C435 284 439 298 426 300 C426 300 416 298 411 297 C377 291 344 284 305 277 C343 344 378 423 404 502 C405 505 406 507 406 510 C407 518 399 523 392 520 C386 517 381 511 370 500 C359 489 347 476 336 465 C336 477 335 489 330 501 C322 519 309 530 289 534 C257 540 222 520 195 499 C147 461 103 406 81 341 C76 325 72 309 75 292 C77 276 85 259 108 257 C141 254 181 289 203 308 C238 338 274 373 306 409 C314 405 317 406 321 412 C326 420 328 429 334 437 L334 437 Z M270 249 C239 196 206 145 169 97 C148 70 125 46 100 24 C64 -5 21 -30 -28 -34 C-53 -34 -82 -25 -79 7 C-74 34 -55 61 -30 88 C-8 110 16 130 42 147 C113 192 189 228 270 249 L270 249 Z M314 493 C321 477 320 463 317 446 C317 444 316 443 314 441 C269 393 224 346 172 305 C154 290 136 278 111 274 C103 274 97 278 94 286 C86 306 94 330 103 351 C128 407 164 454 213 491 C233 506 258 519 284 517 C299 515 308 507 314 493 L314 493 Z " />
<glyph glyph-name="H" unicode="H" horiz-adv-x="496" d="M141 -66 C153 -68 150 -54 153 -45 C160 -28 168 -12 176 4 C235 114 299 220 368 325 C405 323 454 314 486 302 C489 301 490 299 490 295 C489 291 491 288 495 287 C498 286 502 288 504 292 C508 299 508 307 502 313 C492 321 481 324 467 328 C439 335 408 338 379 342 C425 413 473 481 525 547 C531 554 537 561 543 568 C547 571 548 575 546 578 C543 581 539 582 535 580 C532 578 529 575 527 573 C515 559 503 546 493 532 C445 472 403 408 360 344 C324 349 271 350 237 349 C267 400 299 452 329 503 C332 508 334 512 337 517 C340 521 339 525 335 528 C332 530 328 529 325 525 C324 524 323 523 322 523 C288 467 252 405 217 348 C181 348 145 346 108 342 C70 338 13 321 -7 298 C-14 289 -12 280 -3 276 C0 275 3 274 5 274 C28 271 55 266 75 251 C104 224 97 186 83 150 C73 126 63 102 53 78 C50 73 48 64 54 59 C61 56 68 61 71 68 C122 154 173 240 227 331 C246 333 337 330 349 326 C289 236 235 143 182 50 C165 18 146 -14 135 -50 C133 -57 134 -62 141 -66 L141 -66 Z M103 153 C117 193 120 233 89 262 C67 281 38 286 9 291 C22 306 82 322 105 325 C139 329 172 329 207 331 C172 271 137 212 103 153 L103 153 Z " />
<glyph glyph-name="I" unicode="I" horiz-adv-x="439" d="M583 558 C580 561 575 562 571 563 C527 568 485 562 444 559 C447 563 449 567 452 569 C456 571 457 576 455 579 C453 584 448 585 444 583 C436 578 430 568 425 560 C423 558 421 557 418 557 C306 549 207 531 102 513 C96 512 88 507 92 499 C96 491 108 498 113 499 C162 508 385 539 408 538 C317 395 232 261 148 129 C146 126 144 124 140 124 C67 124 3 119 -59 108 C-63 107 -67 107 -70 106 C-74 105 -75 102 -75 98 C-74 95 -72 93 -68 92 C-62 91 -52 93 -48 94 C27 104 81 108 134 106 C127 96 121 86 114 74 C111 67 109 61 116 57 C122 55 125 60 128 63 C136 76 144 90 152 103 C154 106 156 108 160 108 C242 108 270 107 301 107 C310 107 322 103 332 100 C339 98 342 105 342 109 C341 121 300 124 290 124 C248 126 207 125 166 125 C253 264 338 402 429 537 C431 540 433 542 437 542 C482 545 523 550 564 547 C571 545 576 537 582 541 C587 545 588 553 583 558 L583 558 Z " />
<glyph glyph-name="J" unicode="J" horiz-adv-x="575" d="M578 299 C575 303 570 306 565 307 C539 314 503 312 475 312 C458 312 442 311 421 311 C449 380 477 439 484 506 C486 521 486 536 483 551 C476 585 453 603 418 605 C327 610 201 490 151 428 C123 394 100 357 83 316 C79 303 74 291 74 278 C75 272 80 268 86 270 C88 271 89 271 91 272 C97 276 97 283 92 286 C92 286 92 287 91 288 C101 320 118 351 137 380 C188 458 327 596 424 588 C443 586 458 574 464 555 C472 524 466 491 459 464 C445 411 425 358 402 309 C357 307 281 292 259 285 C166 254 86 203 17 133 C-24 90 -72 21 -59 -38 C-45 -97 23 -88 65 -75 C158 -42 233 27 289 99 C341 163 384 227 412 292 C458 295 503 297 548 293 C554 293 563 291 565 286 C568 279 575 281 579 285 C582 289 581 295 578 299 L578 299 Z M271 104 C210 30 137 -34 53 -60 C26 -70 -28 -79 -39 -43 C-61 10 -1 90 32 123 C98 190 176 240 267 269 C309 283 351 286 392 291 C364 235 320 162 271 104 L271 104 Z " />
<glyph glyph-name="K" unicode="K" horiz-adv-x="423" d="M602 598 C606 598 607 592 613 594 C620 599 619 609 610 613 C606 615 601 615 597 612 C571 602 550 581 527 563 C416 473 305 380 180 300 C142 276 103 252 63 232 C76 257 91 283 105 308 C168 419 239 525 317 627 C323 635 327 640 332 643 C337 645 339 649 338 653 C337 658 333 660 327 658 C317 655 296 628 288 616 C228 537 173 455 123 371 C94 323 67 274 40 226 C38 222 35 220 31 218 C24 216 17 213 9 210 C6 209 3 208 0 209 C-12 211 -24 211 -36 211 C-46 210 -71 208 -71 192 C-71 186 -67 182 -61 181 C-44 178 -24 182 -3 188 C5 191 12 190 19 187 C3 154 -16 122 -33 83 C-38 73 -49 47 -45 38 C-43 34 -40 33 -36 33 C-33 34 -30 37 -30 42 C-27 53 -23 64 -19 75 C-2 112 17 148 36 184 C80 172 122 159 163 138 C208 116 251 90 293 63 C313 49 334 36 350 18 C354 15 358 15 361 17 C370 23 362 31 356 38 C325 69 281 92 236 119 C176 155 113 183 45 200 C47 204 48 207 52 209 C93 227 133 250 171 274 C300 358 419 456 544 556 C561 570 580 590 602 598 L602 598 Z " />
<glyph glyph-name="L" unicode="L" horiz-adv-x="326" d="M12 117 C68 217 128 316 191 411 C238 481 285 550 338 615 C341 619 345 622 348 625 C351 628 352 632 350 635 C348 643 339 639 336 636 C302 602 276 564 251 528 C160 401 78 269 2 133 C-18 96 -42 64 -61 33 C-65 27 -71 23 -77 21 C-99 15 -117 1 -134 -13 C-136 -18 -142 -22 -137 -27 C-133 -33 -126 -29 -122 -27 C-107 -16 -91 -8 -73 0 C-45 12 -15 21 15 29 C114 54 197 65 280 77 C294 79 309 80 323 81 C331 81 335 74 340 79 C346 83 346 91 340 95 C325 100 311 97 297 96 C230 88 168 78 106 66 C57 57 9 46 -39 31 C-21 60 -4 87 12 117 L12 117 Z " />
<glyph glyph-name="M" unicode="M" horiz-adv-x="737" d="M336 284 C358 340 388 402 409 458 C429 508 474 608 455 668 C447 686 429 693 410 690 C382 686 358 669 332 651 C284 615 240 574 199 529 C143 468 94 402 51 330 C7 259 -39 177 -51 91 C-54 69 -53 39 -23 33 C-7 29 13 41 28 49 C79 85 115 135 148 190 C182 250 211 313 237 376 C256 423 273 470 287 519 C295 546 300 573 300 601 C300 603 301 605 303 606 C333 630 381 675 422 674 C429 674 434 670 438 664 C458 621 415 522 397 475 C374 417 349 359 324 302 C315 282 307 259 299 236 C298 229 306 224 313 228 C318 231 322 238 326 243 C379 314 441 386 519 436 C535 446 549 451 567 454 C583 454 578 422 576 413 C568 376 557 338 558 299 C558 277 565 254 587 242 C609 233 636 239 659 248 C686 259 713 270 740 282 C750 287 746 298 737 300 C737 299 707 286 683 276 C658 266 632 253 602 256 C581 260 576 279 575 301 C575 338 587 376 593 413 C595 424 596 435 594 446 C592 459 583 469 571 470 C554 473 537 465 513 453 C446 413 391 350 336 284 L336 284 Z M282 588 C280 541 256 478 250 460 C221 377 187 297 145 220 C113 165 79 108 25 68 C13 59 -1 52 -18 50 C-37 50 -35 65 -35 80 C-28 165 22 247 68 327 C108 392 153 453 203 509 C228 536 257 564 282 588 L282 588 Z " />
<glyph glyph-name="N" unicode="N" horiz-adv-x="378" d="M396 568 C396 576 390 581 382 581 C362 580 323 543 306 526 C258 479 214 428 172 375 C134 328 100 279 65 229 C41 194 15 156 -12 136 C-10 159 0 181 8 201 C26 245 48 288 71 330 C100 381 131 430 164 478 C184 508 205 539 226 569 C227 571 229 572 231 573 C237 578 235 584 231 586 C223 590 217 585 213 579 C205 567 196 555 188 543 C168 514 148 485 128 455 C88 395 51 332 19 267 C-2 224 -28 164 -29 136 C-29 129 -28 123 -21 119 C-16 115 -9 117 -4 121 C39 154 73 209 104 255 C157 331 214 404 278 472 C314 511 343 541 380 564 C373 532 360 501 349 472 C308 368 273 263 243 155 C234 122 225 88 220 54 C219 46 215 29 226 27 C238 23 247 38 237 45 C245 99 259 147 273 195 C300 290 332 382 368 473 C378 501 395 541 396 568 L396 568 Z " />
<glyph glyph-name="O" unicode="O" horiz-adv-x="560" d="M600 605 C581 645 535 648 498 636 C431 615 379 563 334 517 C333 554 314 585 276 585 C222 584 163 515 135 475 C62 373 7 233 38 117 C43 98 50 79 63 63 C67 58 69 54 68 47 C67 43 68 39 70 36 C72 32 77 30 82 31 C86 31 88 34 89 39 C89 40 89 40 90 40 C93 39 97 38 100 37 C118 31 136 31 154 34 C347 63 520 332 587 488 C603 526 615 569 600 605 L600 605 Z M83 102 C79 94 77 85 74 77 C60 97 54 120 50 143 C36 241 75 342 121 422 C152 474 213 561 273 568 C315 572 320 522 315 496 C314 494 312 492 311 490 C278 452 249 412 222 371 C163 280 118 191 83 102 L83 102 Z M573 499 C505 337 338 84 154 51 C129 47 104 48 87 63 C90 71 92 79 95 87 C135 192 184 278 235 359 C256 392 280 425 304 456 C306 458 308 460 311 460 C314 460 316 462 318 464 C322 473 326 482 331 487 C379 542 428 588 487 614 C521 628 566 634 584 599 C597 567 585 528 573 499 L573 499 Z " />
<glyph glyph-name="P" unicode="P" horiz-adv-x="418" d="M492 582 C491 619 461 635 429 629 C393 621 351 591 319 566 C253 512 192 452 137 386 C85 324 38 257 -6 188 C4 208 15 229 26 249 C79 342 137 431 200 518 C202 521 203 526 200 528 C194 534 190 529 185 524 C118 428 53 334 -3 232 C-29 184 -55 136 -77 85 C-81 75 -95 50 -82 43 C-69 36 -61 63 -49 83 C2 167 53 251 113 329 C176 411 247 485 327 550 C361 577 389 595 420 609 C439 617 467 614 472 592 C488 521 388 389 350 341 C323 307 294 275 263 246 C236 221 178 178 148 182 C141 183 138 186 136 192 C129 238 189 311 222 331 C228 335 228 335 233 330 C233 329 233 329 233 329 C236 326 240 325 243 327 C246 328 247 331 247 335 C246 343 239 350 231 351 C224 352 219 350 214 346 C190 330 173 311 155 289 C135 262 116 226 119 195 C121 173 135 163 155 165 C203 169 261 219 298 256 C366 326 496 485 492 582 L492 582 Z " />
<glyph glyph-name="Q" unicode="Q" horiz-adv-x="413" d="M469 615 C460 657 426 680 384 676 C258 664 135 465 89 355 C82 338 76 320 74 302 C73 296 71 291 67 286 C26 227 2 166 -1 92 C-52 92 -104 87 -158 79 C-165 78 -173 77 -180 75 C-187 73 -189 66 -185 61 C-182 54 -172 60 -165 62 C-132 65 -27 76 3 74 C5 70 7 65 9 61 C22 37 42 26 68 26 C99 26 128 43 156 62 C158 64 161 65 165 65 C174 63 184 62 193 61 C214 58 238 54 258 43 C265 40 258 32 265 28 C268 26 271 27 274 30 C283 39 278 53 267 58 C245 68 224 73 199 77 C193 78 186 79 178 80 C202 102 224 126 245 150 C320 240 385 341 435 452 C456 500 480 558 469 615 L469 615 Z M17 92 C17 156 39 215 78 271 C79 273 80 275 83 275 C87 276 89 279 89 283 C89 286 90 288 91 290 C109 313 128 334 149 354 C166 371 184 388 204 403 C211 409 218 413 225 418 C228 420 232 421 236 424 C236 421 236 419 235 418 C235 414 236 410 240 409 C244 407 247 409 250 413 C252 418 254 423 254 429 C253 436 249 441 242 441 C238 441 235 441 232 440 C226 438 220 435 215 432 C199 422 184 410 170 397 C144 375 121 350 97 326 C117 390 150 448 190 501 C237 565 299 645 384 659 C419 665 448 642 453 608 C461 555 439 500 414 448 C365 339 297 234 214 141 C197 122 179 103 159 87 C156 84 153 83 149 83 C107 89 62 92 17 92 L17 92 Z M22 74 C35 75 121 70 133 67 C111 52 79 38 51 45 C37 50 28 60 22 74 L22 74 Z " />
<glyph glyph-name="R" unicode="R" horiz-adv-x="459" d="M496 575 C482 633 415 628 374 610 C340 597 309 580 278 561 C287 581 296 602 304 622 C306 626 305 630 301 632 C295 636 290 629 288 625 C276 599 263 573 251 547 C249 543 246 540 242 537 C164 481 95 416 35 340 C-16 274 -67 197 -71 121 C-72 97 -64 67 -35 74 C10 85 64 174 83 207 C102 198 120 195 140 197 C145 197 149 197 152 195 C167 187 182 181 197 173 C249 145 301 117 353 89 C363 84 372 78 382 73 C386 71 390 71 392 74 C395 77 395 81 393 85 C388 90 381 94 375 97 C306 134 240 165 178 203 C227 216 270 240 308 271 C378 328 514 480 496 575 L496 575 Z M75 227 C52 189 5 108 -36 92 C-58 84 -55 116 -54 127 C-45 206 9 280 56 339 C107 401 163 457 228 505 C228 505 229 505 229 505 C180 411 131 318 75 227 L75 227 Z M306 291 C258 251 208 225 152 215 C150 215 147 215 145 216 C129 222 112 228 96 228 C151 321 202 416 252 511 C253 514 254 516 255 518 C258 527 265 532 272 537 C304 558 339 576 374 591 C406 605 475 619 480 569 C491 482 363 340 306 291 L306 291 Z " />
<glyph glyph-name="S" unicode="S" horiz-adv-x="550" d="M549 272 C561 272 559 283 554 296 C546 307 531 310 516 311 C502 311 487 310 473 308 C446 305 419 300 388 294 C375 323 356 349 329 375 C306 396 280 413 253 430 C227 445 200 461 174 477 C162 485 149 493 137 502 C123 512 112 529 114 548 C119 572 136 593 153 611 C186 643 224 667 267 684 C311 703 366 715 413 697 C441 686 455 665 457 635 C462 576 424 512 380 467 C376 464 373 461 376 455 C380 451 384 451 389 455 C418 479 439 510 456 547 C468 576 475 606 474 638 C471 675 449 702 412 716 C374 728 330 723 289 711 C241 696 198 671 160 640 C137 620 108 593 100 561 C93 539 97 519 113 502 C132 483 154 469 180 454 C205 438 232 423 258 407 C283 391 307 373 329 351 C347 333 361 313 371 290 C337 280 303 273 269 263 C179 239 -1 179 -39 86 C-52 51 -42 26 -13 9 C57 -21 170 16 238 51 C274 71 308 95 337 126 C374 166 401 216 393 277 C425 284 458 291 502 294 C512 294 538 296 542 280 C543 276 544 273 549 272 L549 272 Z M376 273 C384 232 368 194 341 158 C319 129 292 106 262 86 C198 44 95 11 37 14 C25 14 13 16 2 21 C-18 29 -32 46 -26 69 C0 160 179 219 266 244 C302 254 339 265 376 273 L376 273 Z " />
<glyph glyph-name="T" unicode="T" horiz-adv-x="423" d="M733 618 C724 624 715 627 705 629 C522 659 238 634 72 590 C26 578 -57 547 -50 489 C-46 465 -23 451 -4 444 C34 429 76 419 107 406 C162 383 179 349 171 299 C159 232 129 171 107 112 C98 89 90 66 84 42 C82 34 79 21 88 17 C99 11 111 32 116 38 C142 80 165 122 190 164 C240 253 292 341 346 428 C377 479 409 530 442 579 C444 582 445 583 449 583 C458 583 458 603 452 607 C446 611 440 604 438 600 C429 587 419 575 410 562 C376 511 345 460 313 408 C259 321 209 232 158 143 C141 113 123 84 106 55 C116 91 130 125 143 159 C164 214 192 273 190 330 C190 364 171 391 145 406 C112 428 70 436 35 447 C12 454 -10 462 -25 477 C-61 518 32 559 57 567 C203 613 554 647 714 609 C719 608 724 605 725 599 C725 594 729 593 733 593 C736 593 739 596 739 600 C740 607 739 613 733 618 L733 618 Z " />
<glyph glyph-name="U" unicode="U" horiz-adv-x="401" d="M583 674 C583 683 576 688 567 688 C546 688 510 649 494 631 C459 590 428 546 399 500 C356 432 318 360 282 288 C276 276 265 267 259 261 C194 194 120 112 62 91 C47 84 24 81 18 99 C10 123 14 149 19 173 C24 198 32 221 40 244 C78 343 130 435 196 518 C201 524 205 530 211 534 C215 537 215 543 211 546 C205 550 199 545 195 541 C177 522 161 501 146 479 C106 422 72 362 44 298 C25 255 8 210 0 162 C-4 137 -5 103 6 86 C17 67 41 66 58 72 C125 91 211 188 255 233 C228 164 198 93 171 23 C153 -25 123 -106 123 -138 C123 -142 123 -146 125 -150 C130 -157 140 -157 144 -150 C148 -144 143 -141 140 -138 C142 -99 182 5 203 58 C230 129 259 199 292 267 C293 270 295 273 297 276 C325 305 353 335 380 364 C419 406 456 449 490 494 C521 537 580 610 583 674 L583 674 Z M478 507 C444 461 406 417 367 375 C352 359 336 342 321 326 C329 345 341 366 352 385 C380 437 410 487 443 536 C465 568 488 600 515 629 C534 648 548 664 566 671 C558 608 512 553 478 507 L478 507 Z " />
<glyph glyph-name="V" unicode="V" horiz-adv-x="403" d="M655 678 C647 687 641 677 635 673 C626 665 617 657 608 648 C517 559 427 468 337 377 C260 298 186 217 117 131 C94 103 70 68 38 53 C29 49 23 51 20 60 C14 79 16 109 20 134 C36 238 71 332 112 417 C128 447 145 478 162 508 C162 509 163 510 164 511 C171 514 172 528 165 530 C158 533 152 525 150 520 C136 496 122 473 110 449 C78 390 54 329 34 265 C15 208 -15 100 6 51 C13 36 25 31 40 35 C76 46 106 91 127 117 C185 188 246 256 309 322 C400 417 493 510 586 603 C608 624 629 646 652 665 C656 669 660 673 655 678 L655 678 Z " />
<glyph glyph-name="W" unicode="W" horiz-adv-x="514" d="M533 615 C531 623 521 623 514 618 C508 614 499 601 507 596 C514 592 516 598 520 600 C524 570 517 501 511 467 C499 400 474 342 446 287 C418 234 386 184 352 135 C322 94 268 22 221 15 C212 14 206 18 203 25 C194 44 201 93 207 120 C224 202 250 277 274 351 C281 371 285 388 290 407 C293 418 279 421 274 416 C261 403 256 396 249 388 C204 336 161 283 117 230 C89 196 61 161 32 128 C20 114 9 102 0 97 C-1 111 4 135 8 151 C18 185 29 218 42 250 C80 350 125 445 178 538 C181 544 185 551 188 558 C191 564 189 572 182 572 C179 573 176 571 174 567 C172 562 170 556 167 551 C155 531 143 512 133 492 C96 422 63 350 34 277 C17 234 -1 192 -11 147 C-16 126 -20 108 -16 90 C-13 81 -5 77 4 80 C19 85 39 110 51 124 C122 208 195 298 266 381 C257 352 246 322 237 293 C214 220 162 75 188 16 C193 5 203 -2 215 -2 C295 -5 400 171 434 229 C458 271 480 314 498 358 C521 418 548 552 533 615 L533 615 Z " />
<glyph glyph-name="X" unicode="X" horiz-adv-x="442" d="M185 384 C185 482 192 581 203 708 C205 713 201 717 197 718 C190 720 187 714 186 708 C177 599 170 484 169 369 C169 365 168 363 166 360 C131 320 97 281 63 240 C15 183 -32 124 -75 64 C-80 53 -87 42 -80 30 C-78 27 -74 25 -70 27 C-67 28 -65 31 -66 35 C-68 42 -63 51 -59 57 C9 156 89 248 170 337 C170 304 174 271 182 238 C189 208 201 172 227 150 C246 134 267 130 291 140 C320 153 342 177 367 200 C396 228 425 255 451 286 C455 290 458 296 442 300 C407 260 367 222 328 187 C312 173 296 158 277 153 C266 150 255 151 245 158 C221 174 211 204 201 232 C190 272 187 313 186 354 C186 356 187 358 189 360 C274 458 366 561 478 637 C483 641 488 644 494 645 C501 645 501 653 497 658 C490 663 479 656 471 652 C423 622 297 514 185 384 L185 384 Z " />
<glyph glyph-name="Y" unicode="Y" horiz-adv-x="507" d="M506 581 C503 579 499 577 496 575 C488 569 480 563 473 557 C393 487 310 421 226 355 C191 327 158 305 121 288 C111 283 95 280 92 292 C85 316 121 370 135 395 C172 455 214 511 261 563 C266 568 271 573 277 577 C281 578 282 582 280 586 C278 593 268 590 265 587 C249 574 236 561 224 546 C189 505 156 462 128 416 C109 385 66 324 76 286 C82 267 102 263 118 269 C173 289 245 349 299 391 C349 430 398 470 446 511 C464 527 482 542 501 557 C496 540 489 523 481 507 C441 427 397 348 351 272 C349 269 347 267 344 266 C294 248 247 225 202 198 C149 166 102 128 61 81 C40 56 18 28 13 -4 C11 -19 18 -33 32 -39 C50 -46 70 -45 105 -29 C171 6 223 60 267 117 C300 159 329 204 357 250 C359 253 361 255 365 256 C386 262 407 270 429 276 C445 281 462 284 479 288 C482 289 486 289 489 289 C493 290 496 289 498 285 C501 280 505 280 509 284 C510 284 510 284 511 285 C511 287 512 290 512 292 C510 301 504 305 496 306 C493 306 491 307 488 306 C478 305 469 304 459 302 C430 296 402 287 374 277 C410 337 445 399 477 461 C491 489 505 517 516 546 C519 553 521 560 523 567 C524 578 516 584 506 581 L506 581 Z M332 243 C242 93 154 15 98 -13 C80 -21 61 -29 42 -24 C35 -23 30 -17 30 -10 C30 28 93 92 122 118 C167 158 217 190 271 216 C291 226 311 235 332 243 L332 243 Z " />
<glyph glyph-name="Z" unicode="Z" horiz-adv-x="494" d="M488 305 C446 313 415 306 382 306 C383 318 381 328 379 338 C356 417 260 432 193 424 C228 450 272 487 308 523 C326 542 343 561 357 583 C363 593 369 604 371 616 C373 632 361 642 346 642 C311 641 280 621 252 605 C185 565 107 495 85 456 C81 449 77 437 85 434 C94 432 96 443 99 448 C124 483 168 525 207 554 C236 576 266 596 299 611 C317 620 332 625 348 625 C353 624 355 622 354 617 C348 600 339 586 329 573 C282 514 227 473 174 431 C166 425 155 419 159 408 C164 399 179 405 186 406 C242 416 312 408 346 365 C361 347 367 327 365 304 C292 297 224 278 158 253 C65 218 -99 115 -99 15 C-99 -35 -53 -55 -11 -55 C56 -55 120 -23 171 12 C268 78 354 180 382 289 C418 291 459 295 484 289 C484 288 484 288 484 287 C483 283 485 280 488 279 C494 275 502 284 502 289 C501 299 495 303 488 305 L488 305 Z M166 30 C113 -8 50 -38 -10 -38 C-50 -38 -87 -17 -81 25 C-68 115 80 203 161 236 C225 262 302 285 363 287 C333 180 251 91 166 30 L166 30 Z " />
<glyph glyph-name="bracketleft" unicode="&#x5b;" horiz-adv-x="260" d="M317 537 C315 541 311 543 307 544 C303 545 299 546 295 546 C284 547 272 549 261 549 C239 551 225 536 215 519 C169 446 -52 112 -62 81 C-67 70 -66 57 -55 54 C-44 51 -31 54 -21 57 C2 61 24 66 47 67 C49 67 52 68 54 65 C59 58 68 66 69 70 C70 75 68 80 63 82 C49 85 36 84 22 82 C-1 78 -24 72 -47 70 C-40 102 218 493 238 522 C243 529 249 532 256 532 C258 532 259 532 261 532 C274 531 287 530 300 529 C302 529 303 528 305 527 C313 519 319 530 317 537 L317 537 Z " />
<glyph glyph-name="backslash" unicode="&#x5c;" horiz-adv-x="219" d="M171 583 C164 586 162 579 160 575 C135 483 42 104 37 56 C36 46 38 44 42 43 C55 39 54 58 55 62 C54 77 173 564 176 575 C177 579 175 582 171 583 L171 583 Z " />
<glyph glyph-name="bracketright" unicode="&#x5d;" horiz-adv-x="279" d="M297 533 C282 546 246 542 224 542 C205 541 187 540 169 540 C165 540 162 539 160 536 C158 529 165 524 171 524 C217 524 234 525 252 525 C260 524 269 525 278 522 C295 516 278 484 271 473 C197 352 118 233 42 113 C39 110 36 107 32 107 C12 103 -6 99 -24 95 C-33 95 -40 87 -34 79 C-28 72 -20 77 -15 80 C2 83 20 87 37 90 C45 92 51 97 56 104 C135 224 206 342 286 464 C292 475 298 486 302 498 C306 509 308 527 297 533 L297 533 Z " />
<glyph glyph-name="asciicircum" unicode="&#x5e;" horiz-adv-x="270" d="M270 615 C270 622 261 629 256 625 C214 587 174 547 143 510 C140 507 141 502 145 499 C148 496 152 497 155 500 C177 522 235 583 247 596 C235 564 222 532 216 500 C215 495 217 490 222 487 C227 484 234 488 233 494 C233 510 241 525 245 539 C252 560 260 580 267 601 C269 606 270 610 270 615 L270 615 Z " />
<glyph glyph-name="underscore" unicode="&#x5f;" horiz-adv-x="491" d="M327 227 C314 231 -22 226 -33 225 C-38 224 -41 221 -40 216 C-40 212 -36 209 -31 209 C95 211 211 210 326 210 C330 209 335 212 336 216 C338 221 334 225 327 227 L327 227 Z " />
<glyph glyph-name="grave" unicode="&#x60;" horiz-adv-x="230" d="M213 492 C201 521 188 549 175 578 C172 583 169 593 162 591 C154 589 157 577 160 573 C171 546 183 520 195 493 C199 482 202 469 209 471 C221 471 216 487 213 492 L213 492 Z " />
<glyph glyph-name="a" unicode="a" horiz-adv-x="196" d="M17 315 C-5 302 -34 258 -28 236 C-26 227 -18 224 -8 227 C15 235 34 261 52 282 C49 272 48 264 48 253 C49 231 63 223 81 223 C102 223 130 239 144 248 C163 260 182 271 200 283 C210 288 207 298 196 300 C196 300 192 297 190 296 C171 284 152 272 133 260 C117 251 97 239 79 240 C72 240 68 243 66 250 C61 270 80 305 88 330 C89 337 81 343 75 337 C65 328 58 316 49 304 C46 315 35 326 17 315 L17 315 Z M35 287 C22 271 9 254 -11 243 C-11 264 9 291 26 302 C31 304 33 301 33 296 C33 293 34 290 35 287 L35 287 Z " />
<glyph glyph-name="b" unicode="b" horiz-adv-x="244" d="M107 244 C111 254 115 270 115 281 C115 293 107 300 95 300 C53 297 1 253 -31 215 C-15 245 4 273 22 302 C23 303 24 304 26 305 C37 309 47 315 57 322 C102 356 136 406 166 460 C170 467 175 477 176 487 C177 497 168 502 159 498 C141 488 123 465 113 454 C83 417 54 379 27 340 C-14 282 -51 221 -82 157 C-84 151 -89 145 -82 138 C-74 134 -68 141 -64 148 C-47 171 -29 193 -9 213 C19 241 56 274 98 283 C98 265 92 253 84 236 C84 234 82 233 80 232 C52 219 26 207 -1 190 C-20 176 -41 156 -45 135 C-48 121 -41 109 -29 106 C-6 101 24 120 42 140 C63 162 80 188 94 216 C95 219 98 221 101 223 C150 243 199 263 247 283 C254 286 255 297 244 300 C244 300 238 298 236 297 C193 279 150 262 107 244 L107 244 Z M70 208 C59 186 43 166 26 148 C14 135 -1 125 -20 122 C-27 122 -29 125 -28 131 C-25 142 -13 158 1 169 C22 185 45 197 70 208 L70 208 Z M47 337 C79 383 112 429 151 469 C137 439 88 365 47 337 L47 337 Z " />
<glyph glyph-name="c" unicode="c" horiz-adv-x="229" d="M-31 221 C-28 184 5 171 39 180 C108 198 172 242 233 283 C239 287 243 297 229 300 C229 300 218 293 216 292 C164 257 109 221 46 200 C24 193 -4 189 -13 217 C-24 283 99 386 149 386 C158 386 162 381 160 373 C155 351 137 337 121 319 C118 316 118 312 120 309 C122 306 126 304 130 307 C149 322 168 341 177 369 C181 386 173 403 154 403 C83 404 -35 292 -31 221 L-31 221 Z " />
<glyph glyph-name="d" unicode="d" horiz-adv-x="238" d="M361 590 C357 591 354 589 351 586 C277 498 198 415 121 328 C122 342 111 356 91 357 C68 357 47 343 31 330 C3 305 -21 277 -40 244 C-50 227 -64 186 -37 179 C-17 174 14 195 32 211 C109 283 172 362 240 435 C212 392 185 350 159 306 C111 223 68 138 29 51 C14 20 0 -11 -11 -43 C-15 -52 -18 -68 -15 -72 C-12 -76 -9 -77 -4 -75 C0 -74 1 -70 1 -66 C0 -57 8 -39 12 -29 C30 16 51 60 72 104 C151 271 247 430 364 574 C368 579 371 586 361 590 L361 590 Z M102 315 C103 309 99 305 95 300 C74 277 54 253 30 232 C11 215 -4 203 -23 197 C-33 194 -38 195 -36 208 C-30 242 13 292 37 312 C52 325 69 340 88 340 C98 340 104 335 104 327 C104 324 102 318 102 315 L102 315 Z " />
<glyph glyph-name="e" unicode="e" horiz-adv-x="189" d="M7 280 C15 268 23 265 36 269 C64 277 85 307 90 336 C92 354 78 368 59 359 C27 341 0 310 -16 272 C-25 251 -30 227 -12 209 C1 199 16 197 33 200 C68 207 108 232 146 255 C163 264 179 274 196 284 C200 286 202 298 189 300 C189 300 116 258 83 239 C58 225 30 214 14 216 C-19 219 -4 258 7 280 L7 280 Z M60 340 C67 344 74 347 73 335 C65 311 53 292 29 285 C24 284 23 285 23 290 C23 298 29 304 32 312 C38 324 48 333 60 340 L60 340 Z " />
<glyph glyph-name="f" unicode="f" horiz-adv-x="179" d="M179 300 C179 300 169 295 166 294 C102 264 -31 209 -33 208 C-32 210 54 357 100 426 C109 440 118 452 128 466 C131 470 134 474 139 476 C143 477 145 481 144 485 C143 488 140 490 135 490 C128 490 124 486 114 474 C98 455 83 431 69 411 C25 343 -17 273 -57 202 C-59 198 -61 196 -65 194 C-80 188 -95 182 -110 176 C-118 172 -125 169 -133 165 C-144 158 -147 148 -142 136 C-140 131 -137 126 -134 122 C-129 113 -124 105 -119 96 C-116 92 -116 89 -118 85 C-145 29 -167 -28 -172 -87 C-172 -95 -171 -106 -162 -109 C-152 -111 -143 -101 -139 -96 C-119 -71 -106 -42 -96 -13 C-91 2 -88 16 -86 31 C-84 50 -87 68 -95 85 C-96 89 -96 92 -94 96 C-80 123 -65 150 -50 178 C-48 182 -46 184 -42 185 C3 204 47 222 92 242 C122 255 151 268 181 282 C187 285 195 296 179 300 L179 300 Z M-103 38 C-104 21 -108 5 -114 -12 C-124 -40 -136 -66 -155 -88 C-150 -42 -136 1 -118 45 C-115 52 -111 61 -107 69 C-105 66 -103 48 -103 38 L-103 38 Z M-107 109 C-110 114 -119 129 -124 138 C-129 147 -128 148 -120 152 C-105 159 -81 170 -73 173 C-84 152 -96 130 -107 109 L-107 109 Z " />
<glyph glyph-name="g" unicode="g" horiz-adv-x="259" d="M-227 -24 C-245 -49 -265 -88 -265 -122 C-265 -146 -252 -160 -232 -163 C-158 -173 -69 -75 -19 -16 C37 55 79 134 121 223 C122 226 124 228 127 230 C167 246 207 263 247 278 C253 280 257 282 264 284 C270 287 272 296 259 300 C259 300 246 295 241 293 C206 279 170 265 135 250 C153 293 171 339 188 394 C190 400 197 418 187 422 C182 425 176 418 169 412 C162 402 154 393 146 384 C145 382 143 381 142 380 C136 388 128 390 118 389 C100 386 85 378 66 365 C24 334 -46 252 -42 222 C-41 214 -37 209 -29 208 C-5 209 28 234 52 256 C77 281 102 306 127 337 C136 338 137 339 140 346 C143 350 144 355 146 360 C153 368 160 376 167 384 C153 336 133 291 113 244 C112 241 110 239 107 238 C38 207 -26 168 -100 113 C-150 73 -192 28 -227 -24 L-227 -24 Z M101 218 C74 162 47 109 9 50 C-17 11 -45 -26 -79 -59 C-114 -94 -163 -141 -218 -147 C-237 -148 -250 -141 -248 -115 C-244 -73 -208 -21 -175 19 C-139 62 -97 97 -52 129 C-3 163 51 194 101 218 L101 218 Z M-25 225 C-23 256 51 334 80 355 C91 363 113 375 124 371 C129 371 129 364 127 361 C98 328 69 295 37 265 C22 250 5 236 -16 227 C-18 226 -22 225 -25 225 L-25 225 Z " />
<glyph glyph-name="h" unicode="h" horiz-adv-x="302" d="M12 287 C58 304 128 384 179 437 C222 482 276 564 282 607 C284 620 275 627 262 621 C230 605 189 557 158 521 C124 481 93 439 64 396 C12 322 -36 245 -78 164 C-80 159 -84 152 -78 147 C-71 142 -64 151 -60 156 C-36 187 -10 216 18 243 C36 260 55 278 81 289 C85 258 73 226 79 193 C82 175 93 166 109 167 C130 167 162 183 184 198 C222 224 266 253 310 286 C314 290 314 299 302 300 C273 279 242 257 212 237 C186 219 157 197 125 187 C116 184 99 180 96 192 C91 219 103 257 98 293 C96 302 87 307 77 305 C51 300 5 255 -24 224 C-16 245 0 267 12 287 L12 287 Z M264 602 C259 578 245 556 232 535 C215 507 195 481 173 456 C130 408 85 359 33 319 C84 401 141 478 206 549 C224 569 242 587 264 602 L264 602 Z " />
<glyph glyph-name="i" unicode="i" horiz-adv-x="149" d="M-8 205 C6 204 19 208 32 214 C72 231 108 255 154 283 C162 288 162 296 149 300 C149 300 145 298 143 296 C108 276 73 254 35 234 C19 227 7 222 -5 223 C-15 224 -12 235 -10 242 C-5 256 1 270 9 283 C16 295 24 307 31 319 C34 322 34 326 31 329 C26 334 21 330 16 324 C0 302 -19 270 -26 247 C-32 230 -29 207 -8 205 L-8 205 Z M66 393 C61 393 57 390 57 385 C57 380 60 377 66 377 C71 377 75 380 75 385 C75 390 72 393 66 393 L66 393 Z " />
<glyph glyph-name="j" unicode="j" horiz-adv-x="143" d="M-15 235 C-8 248 25 315 39 347 C41 351 40 355 36 356 C30 359 28 355 24 348 C4 308 -16 269 -37 229 C-39 225 -42 222 -46 220 C-115 188 -179 150 -240 104 C-284 71 -335 27 -362 -31 C-375 -58 -379 -95 -346 -111 C-296 -133 -242 -88 -202 -49 C-135 26 -83 113 -31 205 C-29 209 -26 211 -23 213 C-4 221 118 273 142 282 C152 286 158 295 143 300 C90 280 38 256 -15 235 L-15 235 Z M-54 198 C-100 115 -151 31 -217 -40 C-245 -68 -293 -114 -339 -95 C-363 -83 -355 -53 -344 -31 C-316 26 -262 67 -209 106 C-160 141 -108 172 -54 198 L-54 198 Z M52 391 C57 391 61 394 61 399 C61 403 56 408 52 408 C48 408 44 404 44 400 C43 395 47 391 52 391 L52 391 Z " />
<glyph glyph-name="k" unicode="k" horiz-adv-x="342" d="M137 297 C187 325 229 353 262 380 C263 381 264 381 266 382 C275 385 274 395 268 397 C262 399 257 397 253 393 C238 380 222 368 206 357 C178 338 132 312 104 304 C98 305 93 306 87 307 C149 402 214 495 278 588 C280 591 281 593 285 594 C293 597 293 610 284 610 C274 610 270 602 264 595 C197 503 132 410 71 314 C69 311 67 310 63 310 C47 313 22 317 6 308 C-4 301 -5 288 5 281 C16 272 31 273 45 272 C26 241 -10 181 -30 147 C-47 118 -63 89 -77 58 C-82 45 -88 33 -89 15 C-88 8 -83 4 -76 4 C-71 4 -65 12 -70 17 C-72 19 -72 21 -71 23 C-68 41 -57 62 -48 79 C-13 146 26 209 65 272 C67 275 69 276 71 277 C78 278 86 279 92 282 C102 286 111 285 121 283 C186 270 254 270 323 277 C332 278 345 278 351 287 C354 293 351 299 342 300 C334 296 314 293 303 292 C246 288 194 293 137 297 L137 297 Z M57 293 C51 288 26 289 18 293 C23 296 51 296 57 293 L57 293 Z " />
<glyph glyph-name="l" unicode="l" horiz-adv-x="238" d="M237 541 C245 554 257 577 258 594 C258 602 252 609 241 604 C210 587 180 558 156 528 C96 455 43 378 -2 296 C-3 293 -5 290 -8 288 C-10 286 -12 284 -12 281 C-11 278 -13 275 -14 272 C-25 250 -35 227 -43 204 C-51 178 -57 150 -46 122 C-39 109 -26 102 -10 104 C31 108 113 176 165 217 C187 235 222 266 241 283 C251 293 248 299 238 300 C213 279 162 237 134 214 C95 182 54 152 9 127 C-4 120 -25 116 -31 134 C-38 152 -34 172 -28 193 C-20 223 -6 252 8 279 C9 281 11 283 13 285 C22 292 31 299 39 306 C87 349 130 395 169 445 C193 476 216 507 237 541 L237 541 Z M33 324 C43 341 50 353 59 366 C93 419 129 470 170 518 C188 541 216 570 241 585 C237 573 230 562 224 551 C185 492 93 371 33 324 L33 324 Z " />
<glyph glyph-name="m" unicode="m" horiz-adv-x="360" d="M206 428 C184 391 111 282 109 259 C107 250 115 243 124 246 C134 250 154 266 168 276 C178 283 189 291 203 297 C197 279 194 257 195 238 C196 226 202 217 213 213 C243 201 325 258 365 283 C371 287 374 298 360 300 C360 300 355 297 352 295 C319 274 284 253 249 237 C239 232 215 224 213 237 C210 253 220 283 220 301 C220 309 213 314 205 314 C187 313 154 287 134 273 C145 294 164 327 178 350 C195 380 215 408 232 441 C235 447 233 457 224 457 C203 456 147 399 130 380 C93 340 56 301 19 261 C2 242 -38 200 -40 199 C-35 209 -26 227 -19 237 C7 280 35 322 64 363 C73 376 83 389 92 402 C94 405 94 410 91 412 C87 416 82 415 77 408 C74 404 70 400 67 395 C29 345 -6 292 -39 238 C-48 221 -61 201 -64 184 C-65 176 -59 169 -51 171 C-42 174 -32 183 -23 191 C-11 203 1 215 12 228 C49 268 85 308 122 348 C148 375 175 404 206 428 L206 428 Z " />
<glyph glyph-name="n" unicode="n" horiz-adv-x="237" d="M85 320 C83 298 75 278 77 253 C80 238 88 231 106 232 C131 233 180 256 198 264 C213 271 226 277 240 283 C244 284 251 296 237 300 C237 300 232 298 229 296 C210 288 191 280 172 271 C156 264 129 252 105 248 C98 247 95 249 94 256 C92 275 104 302 102 326 C101 336 93 341 84 337 C63 328 36 299 0 263 C9 280 12 286 18 295 C28 312 39 328 49 344 C56 355 63 361 56 366 C47 372 35 352 32 347 C13 320 -6 291 -22 262 C-27 253 -33 240 -34 231 C-34 224 -28 220 -22 222 C-14 224 -5 234 5 244 C18 257 30 269 43 282 C56 295 70 309 85 320 L85 320 Z " />
<glyph glyph-name="o" unicode="o" horiz-adv-x="230" d="M76 246 C122 246 167 261 212 276 C219 279 227 281 234 284 C239 286 243 297 230 300 C230 300 225 299 223 298 C210 294 196 289 182 284 C153 275 117 263 86 264 C93 276 103 304 106 323 C107 332 106 341 103 349 C98 364 85 372 70 372 C37 369 13 339 4 318 C0 308 -2 298 1 288 C1 285 0 283 -1 281 C-18 253 -41 223 -43 188 C-42 174 -34 165 -22 164 C15 159 58 219 76 246 L76 246 Z M66 264 C47 263 26 272 21 282 C21 283 22 283 22 284 C33 298 44 313 56 327 C60 332 67 334 68 341 C68 344 66 346 63 347 C57 350 50 344 45 340 C37 331 30 322 22 313 C27 327 43 351 69 354 C81 356 86 348 88 341 C93 319 80 284 66 264 L66 264 Z M55 246 C40 223 15 186 -17 181 C-22 180 -26 182 -26 187 C-26 214 -5 244 10 267 C17 256 35 250 55 246 L55 246 Z " />
<glyph glyph-name="p" unicode="p" horiz-adv-x="253" d="M88 379 C93 388 99 400 103 408 C106 413 105 417 102 419 C97 421 93 420 89 414 C81 400 72 385 64 371 C58 359 51 348 40 340 C39 339 38 338 37 337 C-4 298 -41 255 -75 209 C-105 169 -133 126 -156 81 C-169 53 -182 20 -180 -2 C-178 -14 -173 -19 -163 -19 C-150 -19 -138 -9 -127 1 C-79 57 -47 128 -9 198 C-11 185 -7 172 8 169 C28 166 48 178 66 193 C84 207 99 224 112 242 C115 246 118 247 122 248 C136 251 149 254 162 258 C194 266 225 275 257 283 C262 285 266 298 253 300 C253 300 248 299 245 298 C208 287 151 273 131 268 C146 290 161 323 169 350 C172 361 173 371 172 382 C170 394 165 402 152 403 C129 405 108 391 88 379 L88 379 Z M2 219 C24 258 44 299 66 339 C67 341 68 343 70 344 C88 360 116 382 142 386 C152 387 155 384 155 374 C155 363 152 352 149 342 C139 315 126 289 109 265 C107 263 105 262 103 261 C86 257 69 252 53 248 C33 243 12 230 2 219 L2 219 Z M29 306 C28 303 -41 173 -76 109 C-96 73 -135 9 -156 -1 C-163 -3 -165 -2 -165 5 C-165 16 -161 27 -157 38 C-148 61 -137 83 -124 105 C-94 158 -57 208 -17 255 C-4 271 26 304 29 306 L29 306 Z M92 242 C81 226 63 210 46 198 C38 192 27 186 14 186 C9 186 7 189 8 193 C10 207 22 216 36 224 C53 233 73 236 92 242 L92 242 Z " />
<glyph glyph-name="q" unicode="q" horiz-adv-x="260" d="M-75 -108 C-61 -111 -45 -96 -40 -90 C-11 -51 12 0 2 51 C-2 65 -6 78 -10 91 C-11 97 -12 101 -8 106 C-7 108 -5 109 -3 111 C0 113 4 114 7 116 C60 140 111 167 158 200 C196 227 232 256 268 285 C273 289 276 299 260 300 C260 300 254 296 249 292 C230 277 222 270 203 255 C143 207 77 165 7 135 C33 182 61 227 91 272 C120 315 151 357 185 396 C189 400 191 405 186 410 C181 415 175 410 170 406 C153 386 130 363 110 340 C102 353 87 360 71 356 C23 345 -28 282 -26 240 C-25 228 -16 220 -4 223 C25 230 45 254 72 276 C42 227 10 177 -17 126 C-19 123 -21 120 -23 118 C-27 114 -29 110 -30 105 C-30 102 -31 100 -32 97 C-41 76 -51 55 -60 34 C-71 7 -81 -21 -87 -50 C-90 -68 -99 -100 -75 -108 L-75 -108 Z M-23 75 C-19 62 -15 49 -13 36 C-11 19 -14 3 -19 -12 C-26 -36 -53 -88 -73 -90 C-76 -78 -72 -64 -70 -50 C-63 -21 -52 8 -40 37 C-34 50 -30 63 -23 75 L-23 75 Z M-8 239 C-8 247 -6 255 -2 265 C12 296 42 329 78 340 C84 340 96 340 94 331 C94 330 93 329 94 328 C94 323 92 320 89 317 C63 292 39 265 5 245 C2 243 -3 241 -8 239 L-8 239 Z " />
<glyph glyph-name="r" unicode="r" horiz-adv-x="223" d="M229 284 C236 290 235 299 223 300 C165 249 107 195 50 144 C22 119 -11 91 -49 79 C-35 119 28 203 42 254 C47 271 43 284 30 295 C28 296 25 298 23 300 C37 313 48 330 57 349 C62 361 63 382 45 383 C23 383 -6 345 -11 324 C-14 312 -11 302 -1 295 C5 289 14 284 21 279 C29 273 28 263 25 255 C6 194 -50 137 -66 81 C-69 71 -63 61 -49 62 C-14 67 43 114 81 150 C130 195 182 237 229 284 L229 284 Z M44 365 C44 350 23 322 9 309 C3 313 6 323 7 325 C15 341 32 362 44 365 L44 365 Z " />
<glyph glyph-name="s" unicode="s" horiz-adv-x="219" d="M46 205 C46 215 44 224 42 235 C38 258 26 280 18 303 C15 314 17 324 24 333 C35 347 51 362 70 365 C81 368 81 354 80 346 C78 333 73 320 69 307 C68 303 71 299 75 298 C78 298 84 301 85 305 C91 319 97 338 98 356 C98 370 90 380 78 382 C49 384 15 352 4 329 C-6 307 5 285 15 262 C23 243 28 220 28 196 C22 193 15 189 8 186 C-32 164 -88 141 -113 104 C-122 89 -117 75 -103 69 C-87 62 -64 66 -42 77 C-22 87 -4 102 11 119 C27 138 39 158 44 182 C44 184 45 186 47 187 C53 187 182 253 216 277 C235 289 231 296 219 300 C198 286 137 247 46 205 L46 205 Z M25 175 C17 143 -12 115 -43 95 C-57 87 -77 78 -94 84 C-100 87 -102 92 -98 98 C-74 127 -18 157 25 175 L25 175 Z " />
<glyph glyph-name="t" unicode="t" horiz-adv-x="77" d="M683 522 C680 524 676 526 672 527 C650 537 179 539 169 539 C195 581 223 622 250 664 C258 672 262 681 254 683 C247 685 242 679 234 667 C206 624 178 581 149 539 C95 538 -195 521 -210 519 C-215 519 -217 517 -220 512 C-222 508 -218 500 -213 502 C-199 508 127 522 137 521 C42 361 -200 -33 -217 -85 C-218 -89 -218 -96 -214 -97 C-210 -98 -205 -97 -203 -93 C-146 23 35 315 162 522 C193 522 638 517 663 511 C666 511 667 510 667 507 C668 502 673 501 678 503 C687 507 690 516 683 522 L683 522 Z " />
<glyph glyph-name="u" unicode="u" horiz-adv-x="191" d="M-11 230 C-10 239 -6 246 -3 255 C10 281 24 306 40 333 C42 337 43 339 38 343 C35 345 32 346 24 337 C7 312 -7 287 -19 260 C-25 247 -38 214 -13 212 C3 212 20 229 32 242 C46 256 59 270 73 284 C68 265 60 231 87 224 C103 221 120 232 136 242 C154 253 171 266 189 278 C202 286 205 294 191 300 C191 300 187 298 186 297 C165 282 145 268 122 254 C116 249 97 239 91 241 C82 244 87 264 88 268 C91 282 96 295 99 308 C100 310 101 313 101 315 C101 322 95 326 89 324 C83 321 78 315 74 310 C56 291 37 272 19 253 C10 244 1 235 -11 230 L-11 230 Z " />
<glyph glyph-name="v" unicode="v" horiz-adv-x="277" d="M277 300 C277 300 275 299 273 297 C242 277 213 259 179 249 C151 243 116 242 112 274 C111 284 110 299 117 306 C131 324 145 342 159 360 C187 399 215 435 225 474 C227 484 219 492 209 486 C180 469 153 434 137 406 C119 376 105 345 98 311 C97 309 96 307 94 305 C79 287 64 269 49 251 C31 230 1 197 -23 194 C-24 226 13 290 35 329 C41 338 47 344 39 350 C32 355 25 341 19 334 C-6 297 -41 226 -41 197 C-41 180 -30 172 -15 177 C23 189 66 245 94 277 C91 249 120 233 129 231 C159 223 191 232 217 244 C239 255 260 268 280 282 C291 287 287 298 277 300 L277 300 Z M201 459 C180 420 155 383 127 347 C144 390 169 427 201 459 L201 459 Z " />
<glyph glyph-name="w" unicode="w" horiz-adv-x="322" d="M83 279 C85 279 79 256 78 252 C71 227 60 186 67 167 C70 155 80 149 92 151 C113 156 131 169 150 187 C169 206 187 227 204 250 C216 247 233 247 249 250 C276 256 300 269 324 282 C330 285 337 294 322 300 C322 300 320 299 319 298 C303 289 286 282 269 275 C253 267 230 264 215 266 C235 294 252 327 258 364 C260 379 255 404 234 398 C200 385 172 342 167 303 C166 285 172 268 188 257 C172 235 154 213 133 194 C123 184 109 174 92 169 C86 166 83 168 82 175 C81 199 91 229 98 259 C100 268 102 277 101 286 C101 298 93 303 82 298 C62 286 41 266 21 249 C6 237 -8 225 -24 214 C-19 238 14 289 35 326 C39 333 43 340 36 343 C29 347 25 338 20 332 C1 303 -43 232 -43 208 C-43 197 -36 191 -26 194 C-12 199 11 218 30 235 C47 248 67 267 83 279 L83 279 Z M197 271 C190 277 185 284 185 293 C185 324 205 356 228 376 C232 379 235 381 239 382 C244 376 241 361 238 349 C229 322 216 296 197 271 L197 271 Z " />
<glyph glyph-name="x" unicode="x" horiz-adv-x="207" d="M10 244 C14 276 20 318 26 351 C26 355 25 358 22 359 C11 362 10 350 8 344 C2 305 -7 266 -9 227 C-9 224 -10 221 -12 218 C-32 195 -52 172 -71 148 C-101 113 -137 69 -158 34 C-162 28 -169 16 -163 8 C-160 5 -157 4 -153 5 C-149 6 -146 10 -147 13 C-148 18 -145 22 -143 27 C-134 39 -126 52 -117 64 C-82 111 -45 156 -5 199 C1 177 18 165 40 169 C62 173 81 185 101 200 C138 227 175 255 212 283 C213 284 214 285 215 286 C218 289 220 298 207 300 C207 300 201 296 199 294 C170 272 141 250 112 229 C90 213 67 192 38 186 C26 185 17 187 12 202 C10 207 9 215 12 220 C54 268 99 313 146 356 C152 361 158 366 164 371 C168 374 169 377 167 381 C165 385 161 386 156 384 C144 376 131 365 118 353 C81 320 24 259 10 244 L10 244 Z " />
<glyph glyph-name="y" unicode="y" horiz-adv-x="241" d="M204 280 C177 265 150 250 121 234 C122 235 147 287 159 311 C166 327 173 342 179 358 C181 364 182 370 181 376 C179 383 173 387 165 384 C156 380 146 370 137 363 C106 337 75 310 43 286 C31 279 16 267 4 264 C4 277 11 289 18 303 C31 324 43 344 56 365 C59 370 66 377 59 383 C56 385 49 383 48 379 C33 359 19 338 7 316 C-2 301 -13 275 -13 263 C-13 253 -5 246 6 248 C34 254 56 276 80 294 C107 316 134 339 161 362 C146 318 118 269 97 223 C95 220 93 217 89 215 C35 184 -17 150 -67 114 C-115 79 -175 36 -197 -24 C-203 -43 -202 -67 -179 -75 C-125 -87 -66 -38 -28 1 C-1 31 23 65 45 99 C66 132 85 167 104 202 C105 204 107 207 110 209 C147 229 201 260 238 280 C253 288 255 297 241 300 C241 300 207 282 204 280 L204 280 Z M78 190 C64 159 26 97 -5 55 C-19 37 -34 19 -50 3 C-78 -26 -128 -66 -174 -58 C-187 -54 -184 -36 -180 -25 C-168 4 -136 38 -104 65 C-65 97 -23 126 19 153 C37 164 75 188 78 190 L78 190 Z " />
<glyph glyph-name="z" unicode="z" horiz-adv-x="285" d="M-59 103 C-117 57 -183 -7 -186 -73 C-186 -90 -175 -103 -157 -103 C-123 -103 -88 -82 -54 -61 C-4 -27 41 13 81 59 C108 90 131 122 150 158 C162 179 171 201 173 225 C209 244 243 261 279 279 C283 281 286 282 290 284 C295 287 298 298 285 300 C285 300 273 294 268 292 C236 276 204 260 172 244 C162 284 120 290 82 285 C111 314 190 389 201 431 C202 438 198 443 191 443 C179 443 168 437 158 430 C118 407 82 379 47 348 C26 329 -9 295 -12 279 C-13 275 -10 271 -5 270 C2 270 8 284 12 290 C42 323 75 353 111 380 C134 397 157 412 181 424 C151 369 96 329 60 283 C54 275 59 267 68 267 C99 270 148 278 156 235 C135 226 78 193 58 181 C18 157 -22 132 -59 103 L-59 103 Z M155 217 C149 185 133 157 113 127 C77 74 33 27 -18 -14 C-54 -43 -95 -74 -142 -84 C-152 -87 -169 -87 -169 -71 C-165 -6 -80 67 -29 106 C30 148 93 180 155 217 L155 217 Z " />
<glyph glyph-name="braceleft" unicode="&#x7b;" horiz-adv-x="243" d="M272 538 C257 552 238 543 228 529 C206 499 193 475 178 452 C169 437 160 423 148 410 C123 379 92 354 61 338 C57 335 55 331 56 326 C57 321 61 319 65 318 C73 318 73 315 73 310 C57 270 27 241 1 211 C-24 180 -45 147 -61 111 C-70 89 -83 49 -60 35 C-46 30 -33 35 -21 38 C10 49 41 61 72 73 C78 73 80 80 79 84 C77 91 70 90 65 88 C33 78 3 65 -28 54 C-39 49 -57 45 -57 61 C-57 82 -42 113 -32 132 C-16 162 4 188 25 213 C53 246 79 273 90 309 C93 318 91 325 83 330 C83 331 92 337 96 340 C130 363 159 391 181 425 C200 455 218 486 238 514 C248 531 257 531 269 520 C274 515 280 518 282 524 C284 530 276 534 272 538 L272 538 Z " />
<glyph glyph-name="bar" unicode="&#x7c;" horiz-adv-x="214" d="M234 555 C230 556 227 554 224 549 C132 396 -36 114 -76 58 C-78 55 -78 51 -76 48 C-73 45 -69 44 -65 46 C-57 54 -55 58 -52 62 C-3 141 196 466 237 541 C240 546 242 552 234 555 L234 555 Z " />
<glyph glyph-name="braceright" unicode="&#x7d;" horiz-adv-x="287" d="M171 317 C164 312 155 309 146 305 C122 292 115 271 103 245 C88 207 70 170 44 137 C11 96 -32 71 -85 49 C-92 45 -107 46 -100 32 C-95 25 -89 29 -82 31 C-34 51 14 74 51 118 C76 148 95 182 111 218 C123 243 127 274 155 290 C163 295 174 298 182 304 C188 310 190 316 187 323 C182 333 179 345 176 357 C169 378 202 401 222 422 C248 448 278 480 290 519 C292 524 293 530 293 535 C294 550 285 559 271 558 C261 558 251 556 242 552 C238 552 235 546 236 542 C237 538 239 536 243 536 C245 536 247 537 249 538 C256 541 263 542 271 542 C280 542 275 529 274 524 C264 490 236 462 207 432 C189 414 157 390 159 360 C159 345 166 331 171 317 L171 317 Z " />
<glyph glyph-name="asciitilde" unicode="&#x7e;" horiz-adv-x="276" d="M57 298 C58 292 59 287 60 282 C63 267 72 258 87 255 C114 250 150 267 180 280 C186 283 189 288 185 295 C180 302 169 294 164 291 C144 284 123 273 100 271 C76 269 79 288 73 304 C70 314 61 317 51 314 C36 307 25 295 10 280 C7 277 7 272 10 269 C13 266 16 266 20 269 C31 278 45 292 57 298 L57 298 Z " />
<glyph glyph-name="cent" unicode="&#xa2;" horiz-adv-x="350" d="M348 573 C346 576 342 577 339 575 C336 574 334 572 332 570 C321 559 312 546 304 533 C286 506 269 478 251 451 C250 449 248 447 245 447 C184 433 129 399 80 363 C50 341 17 308 6 276 C1 260 4 246 17 237 C31 228 49 226 65 225 C81 224 97 223 113 222 C81 163 43 108 13 47 C10 41 10 35 15 32 C19 29 26 34 28 38 C59 99 95 159 130 218 C132 221 134 221 137 221 C175 219 212 218 248 216 C251 216 253 216 255 214 C258 210 263 210 267 214 C271 217 272 223 269 226 C264 233 251 234 244 234 C210 235 176 237 142 238 C172 286 201 335 230 384 C239 398 248 413 256 427 C258 430 260 432 263 431 C268 431 272 431 277 430 C287 428 294 422 297 412 C298 406 298 400 297 394 C292 366 275 340 263 316 C261 311 257 299 267 299 C274 297 277 309 279 313 C286 327 294 340 300 354 C307 368 313 382 315 398 C317 422 303 447 270 449 C289 480 309 509 328 540 C333 548 339 556 347 563 C350 566 351 570 348 573 L348 573 Z M123 239 C90 241 70 241 49 244 C35 246 15 253 22 270 C35 303 66 332 96 354 C143 389 193 414 235 428 C201 365 160 303 123 239 L123 239 Z " />
<glyph glyph-name="sterling" unicode="&#xa3;" horiz-adv-x="427" d="M236 304 C251 328 269 351 285 374 C310 408 340 458 383 475 C391 478 397 475 400 467 C406 439 395 412 378 380 C375 376 370 364 379 362 C388 359 391 373 394 378 C409 404 428 445 414 476 C408 489 398 495 385 493 C343 487 307 433 282 399 C261 370 240 339 218 309 C216 306 213 304 209 304 C182 305 108 303 78 301 C72 301 62 305 62 296 C62 289 67 287 76 286 C118 286 161 287 202 287 C179 256 154 225 127 196 C118 186 108 177 99 167 C97 165 95 164 92 164 C53 170 -4 173 -33 162 C-51 155 -60 134 -57 116 C-54 98 -43 89 -26 85 C-5 80 19 89 40 100 C61 112 80 127 98 143 C101 145 104 146 107 146 C156 141 206 135 255 130 C264 129 280 128 288 122 C291 118 297 118 300 120 C303 123 304 128 302 132 C297 138 288 142 280 143 C227 151 173 155 119 163 C157 200 189 241 220 283 C223 287 226 288 230 288 C249 287 268 287 287 286 C303 285 319 285 334 280 C337 279 340 280 342 282 C347 287 343 293 338 296 C331 303 304 302 290 303 C272 304 254 304 236 304 L236 304 Z M78 148 C62 133 43 121 23 110 C8 102 -9 97 -26 102 C-35 105 -41 114 -41 124 C-41 134 -36 142 -27 146 C0 157 33 152 78 148 L78 148 Z " />
<glyph glyph-name="yen" unicode="&#xa5;" horiz-adv-x="444" d="M147 264 C110 203 68 129 40 65 C37 57 36 50 39 42 C42 37 48 36 53 40 C58 43 59 48 56 52 C54 55 55 57 56 59 C86 125 120 188 167 263 C168 266 170 267 173 267 C209 269 244 270 280 270 C286 270 291 269 297 269 C299 269 301 268 303 266 C306 262 313 262 317 266 C321 269 321 276 317 280 C315 282 311 283 308 284 C303 285 297 286 292 286 C256 289 218 286 182 285 C185 292 190 299 195 305 C195 306 197 307 199 307 C223 307 339 317 380 314 C384 313 388 316 389 320 C389 332 376 332 369 332 C334 330 257 327 208 325 C217 337 226 348 235 360 C268 349 301 383 325 406 C345 426 363 447 381 467 C417 508 453 549 489 590 C492 593 492 598 490 600 C488 604 483 605 479 603 C475 601 472 597 468 592 C434 553 400 514 365 476 C336 442 295 392 257 377 C254 376 251 375 248 376 C252 380 255 381 254 387 C254 390 251 392 248 392 C245 393 241 392 233 384 C228 411 233 431 244 460 C263 503 289 541 319 577 C323 581 327 585 332 590 C332 590 333 589 334 589 C341 588 345 594 343 600 C341 605 335 608 330 606 C326 604 322 602 319 599 C311 592 304 585 297 577 C271 546 249 512 232 476 C219 447 202 402 221 371 C221 371 221 370 221 370 C210 355 199 340 188 325 C187 324 185 323 183 323 C158 322 92 319 55 317 C53 317 52 317 50 319 C46 323 39 323 35 319 C30 315 30 308 35 305 C39 301 47 301 57 301 C67 300 149 304 173 305 C169 297 164 290 159 283 C118 283 78 274 32 276 C29 276 26 274 25 271 C21 263 31 260 38 259 C64 258 116 265 147 264 L147 264 Z " />
<glyph glyph-name="copyright" unicode="&#xa9;" horiz-adv-x="301" d="M271 549 C234 549 201 530 176 508 C133 470 100 408 116 352 C130 301 187 290 228 308 C263 324 286 351 304 383 C308 392 309 401 309 409 C307 417 298 420 291 415 C286 412 286 407 290 403 C293 400 291 400 291 397 C283 378 270 362 256 347 C230 324 200 311 169 319 C122 332 124 391 138 425 C159 479 209 525 264 532 C286 532 299 522 305 507 C311 490 307 474 304 458 C304 454 306 451 309 450 C314 449 320 453 320 458 C322 466 323 474 324 483 C328 521 303 547 271 549 L271 549 Z M245 443 C243 437 240 428 248 425 C252 424 255 425 257 429 C263 439 265 456 261 469 C257 481 246 486 234 482 C200 471 163 417 174 382 C178 371 185 365 196 362 C206 360 216 363 225 369 C232 374 239 379 246 386 C251 391 250 394 247 399 C242 404 236 401 232 397 C222 389 215 379 202 379 C195 379 192 382 190 389 C185 418 215 453 238 465 C248 472 246 446 245 443 L245 443 Z " />
<glyph glyph-name="registered" unicode="&#xae;" horiz-adv-x="357" d="M361 483 C349 550 289 565 236 543 C216 535 197 523 180 509 C130 469 88 411 97 350 C107 315 135 294 168 292 C219 287 257 305 297 322 C303 322 305 330 303 334 C300 339 292 340 288 336 C260 325 235 311 205 309 C166 305 125 312 114 352 C100 427 179 497 238 525 C268 540 305 542 327 520 C338 508 344 494 345 477 C345 456 341 436 334 416 C330 406 325 395 318 386 C316 381 315 376 321 374 C329 371 335 383 339 388 C356 417 364 449 361 483 L361 483 Z M329 348 C303 366 272 375 241 384 C265 393 292 400 304 423 C316 445 290 459 274 462 C277 466 279 470 283 473 C286 475 286 477 286 480 C285 483 283 485 280 486 C276 487 273 486 271 483 C266 478 261 472 257 467 C255 464 253 463 249 462 C228 461 208 457 188 449 C180 446 174 442 168 436 C165 431 167 425 171 423 C174 421 179 421 181 425 C183 430 187 431 191 433 C207 438 224 444 240 444 C230 428 221 413 212 398 C211 396 209 395 207 395 C198 394 186 392 176 392 C172 391 170 387 170 384 C170 380 172 377 176 376 C182 373 191 375 197 374 C196 371 195 369 194 366 C193 362 195 357 198 356 C202 354 207 355 209 359 C212 362 213 367 216 371 C242 369 307 346 315 336 C314 331 311 326 318 324 C322 322 329 324 332 327 C338 333 336 344 329 348 L329 348 Z M262 445 C270 446 296 442 287 429 C274 412 253 406 235 400 C240 408 257 438 262 445 L262 445 Z " />
<glyph glyph-name="germandbls" unicode="&#xdf;" horiz-adv-x="267" d="M276 298 C273 300 271 300 267 300 C259 300 252 298 245 296 C214 289 183 277 154 268 C148 282 144 292 129 298 C115 303 103 303 90 303 C101 317 114 328 125 341 C151 367 177 393 200 421 C210 433 226 450 230 469 C232 480 225 487 215 486 C195 485 172 470 156 460 C121 436 89 408 61 376 C-1 308 -51 232 -91 150 C-98 136 -104 121 -108 107 C-110 99 -111 88 -101 86 C-96 83 -89 90 -92 95 C-94 99 -93 103 -91 107 C-61 188 -9 263 43 329 C69 362 97 391 128 418 C147 433 166 447 188 459 C197 464 205 466 213 469 C205 454 194 441 184 428 C159 398 131 371 104 343 C89 328 73 312 70 302 C67 293 71 285 79 286 C95 287 115 287 128 279 C134 274 137 269 137 262 C105 246 78 234 53 212 C27 190 0 151 10 119 C14 109 21 102 31 99 C63 93 89 120 105 141 C129 173 148 209 155 250 C178 258 203 266 226 273 C237 276 249 279 261 282 C263 283 266 283 269 282 C274 281 278 282 280 286 C281 290 280 295 276 298 L276 298 Z M80 138 C69 126 55 115 41 115 C32 115 27 119 26 128 C22 155 46 183 63 199 C87 219 111 233 136 242 C126 203 107 167 80 138 L80 138 Z " />
</font>
</svg>
