<svg width="1541" height="568" viewBox="0 0 1541 568" xmlns="http://www.w3.org/2000/svg">
  <g transform="translate(11.64, 369.2)">
    <path d="M546.24-240.48C554.88-241.44 563.52-245.28 571.20-251.04C576-269.28 542.88-264 529.92-264.48C477.12-260.64 424.32-256.32 369.12-249.12C316.32-242.40 264.48-232.80 213.12-222.24C151.20-209.28 90.24-193.92 30.72-174.72C27.84-173.76 24.96-172.80 22.08-172.32C14.40-171.36 8.16-167.52 2.88-162.72C-0.48-159.84-0.48-156 2.88-153.12C5.76-150.72 10.56-150.24 14.88-152.64C24.96-158.88 36.48-162.24 48-166.08C50.88-167.04 54.24-167.52 57.60-167.52C72.48-166.08 87.36-165.12 102.24-163.20C122.88-160.80 142.08-156 160.32-147.84C187.20-135.36 200.64-117.12 200.64-92.64C200.64-88.80 200.16-84.48 200.16-80.64C198.72-80.16 197.76-80.16 197.28-80.16C170.40-76.32 144-72 116.64-71.04C109.44-70.56 101.76-70.56 94.56-72.96C90.72-74.40 87.36-73.44 85.92-71.04C84.48-68.64 85.44-65.76 89.28-64.80C93.12-63.36 96.96-62.40 100.80-62.40C108-61.92 115.68-61.92 122.88-62.40C138.24-64.32 153.60-66.24 168.48-68.16C178.56-69.60 188.16-71.52 199.20-72.96C197.76-70.56 197.28-68.64 195.84-66.72C177.60-35.52 161.76-3.36 153.12 30.24C149.28 44.64 146.40 59.52 147.84 74.40C148.32 78.72 149.76 83.04 151.68 86.88C153.12 89.28 155.52 91.68 158.40 93.60C166.08 94.08 169.44 82.08 162.24 81.60C161.28 76.32 161.28 71.04 161.76 65.76C164.16 43.20 171.36 21.60 182.40 0.96C195.84-24.48 210.72-49.44 224.64-74.88C226.08-77.76 228.48-78.72 231.84-79.20C250.56-82.56 269.76-85.92 288.96-89.28C290.88-89.76 292.80-89.76 294.72-90.24C294.72-89.28 295.20-88.80 295.20-87.84C297.12-88.80 299.04-88.80 300-89.76C300.96-90.72 301.92-92.16 301.44-93.12C301.44-93.60 299.52-94.56 298.56-94.56C294.72-94.56 291.36-94.56 287.52-93.60C271.20-91.20 254.88-88.80 238.08-86.40C236.16-85.92 234.24-85.92 231.84-85.44C247.68-114.72 303.36-186.72 336.96-215.04C337.44-215.52 338.40-216.48 338.88-216.96C340.80-219.84 341.28-222.72 338.88-225.60C336-228.48 332.64-229.44 328.32-228.48C325.92-228 323.04-227.04 321.60-226.08C317.76-223.68 314.40-220.80 311.04-218.40C268.80-181.44 223.20-117.12 209.76-89.76C209.76-93.12 209.76-95.04 209.76-96.96C210.24-119.52 198.24-137.28 175.20-150.72C164.16-156.96 151.68-161.76 138.24-165.12C120.48-169.92 101.76-171.84 83.04-173.28C80.64-173.76 77.76-173.76 75.36-174.24C83.52-177.60 91.68-180 99.84-182.40C157.92-199.68 217.44-212.64 277.92-224.16C367.68-240.96 459.36-254.88 554.40-257.28C577.44-257.28 554.88-246.72 546.24-240.48ZM336.96-57.12C338.40-56.64 339.36-55.68 340.80-55.20C352.32-50.88 363.84-49.92 373.44-55.68C388.32-64.80 396.96-76.80 401.28-90.24C403.68-98.40 395.52-105.60 384.48-106.08C351.84-106.08 303.84-55.20 305.28-19.20C305.28-14.40 307.20-10.56 310.56-7.20C341.28 21.60 414.72-41.76 451.68-68.16C451.68-68.16 451.68-68.64 451.68-69.12C450.72-69.60 449.28-70.56 447.84-71.04C420.48-54.72 335.52 8.16 319.68-14.40C312.96-24.48 328.80-48 336.96-57.12ZM386.88-93.12C392.64-90.72 381.60-73.44 371.04-64.32C361.92-56.16 352.80-54.72 339.84-60.48C340.80-61.44 341.28-62.40 342.24-63.36C349.92-72 358.56-80.16 369.12-86.88C374.88-90.24 380.16-92.16 386.88-93.12ZM576.96-59.04C583.68-64.80 597.12-86.88 598.08-102.72C597.60-111.84 585.12-116.64 575.04-111.84C558.24-103.68 545.28-72.48 560.64-57.12C552.96-43.20 520.32-12.48 511.20-9.60C508.80-31.68 526.56-56.16 538.56-74.40C540-76.32 541.44-78.24 542.40-80.16C543.84-83.04 542.88-85.44 540-86.88C537.60-88.32 534.72-88.32 531.36-85.92C506.88-62.88 477.12-30.72 444-17.28C431.52-14.88 460.80-64.80 480.96-86.40C482.40-87.36 483.36-88.32 483.36-89.76C484.80-93.60 481.44-97.44 476.16-97.44C459.36-95.04 447.84-72 438.72-56.64C432.48-44.64 424.80-29.76 427.20-15.84C428.16-12 431.52-10.56 436.80-10.08C466.08-10.08 503.52-54.24 507.36-56.16C508.32-56.64 506.40-54.24 505.92-52.80C498.72-39.36 490.08-21.60 494.88-5.28C497.28 4.32 506.40 7.20 516.48 1.44C537.12-11.04 553.44-30.72 571.20-51.36C590.88-52.80 609.12-57.60 646.56-67.68C648.48-68.16 649.92-68.64 649.92-70.08C649.44-72 647.04-72 645.60-71.52C643.68-71.52 642.24-71.52 640.80-71.04C619.68-68.16 599.52-61.44 576.96-59.04ZM566.88-66.24C561.60-75.84 572.16-99.36 584.16-104.64C588-96.48 573.60-73.44 566.88-66.24ZM828.96 65.76C872.16 42.72 921.12 4.32 961.44-28.80C993.60-56.64 1023.84-85.44 1051.68-116.16C1075.68-142.56 1098.72-170.88 1114.08-205.44C1128.96-243.84 1120.32-277.92 1073.76-287.04C1027.20-293.76 977.76-275.04 932.16-253.44C884.16-229.92 842.40-200.16 805.92-167.04C774.24-138.72 739.20-102.24 730.08-56.64C728.64-48.96 728.64-40.80 732-32.64C736.80-22.08 745.92-14.88 760.80-12.48C791.04-8.64 819.36-28.32 843.36-45.60C866.40-62.40 887.04-81.12 906.24-100.32C907.20-101.28 908.64-102.72 910.08-103.68C910.08-101.76 909.12-100.32 908.16-98.88C883.68-62.88 851.04 0 839.04 45.60C838.56 47.52 837.12 48.48 835.20 49.44C822.24 56.64 809.76 64.32 796.80 71.04C786.24 76.32 775.20 80.64 764.64 84.96C756 88.32 747.36 90.24 737.76 87.84C737.28 87.84 736.80 87.84 735.84 87.84C732 87.84 729.12 89.76 728.64 92.16C728.16 94.56 730.08 96.96 733.44 97.92C740.64 99.84 747.84 99.84 755.04 98.40C764.16 96.96 772.80 94.08 780.96 90.24C797.76 83.04 813.60 74.88 828.96 65.76ZM851.52 38.40C852.48 36.48 853.44 34.08 854.40 32.16C870.72-2.40 890.40-35.52 910.56-69.12C936-112.32 967.68-152.64 1001.76-192.48C1005.60-196.32 1009.44-200.16 1013.28-203.52C1018.08-208.32 1018.56-213.60 1013.28-216.48C1008.48-219.84 1001.28-219.36 996.48-214.56C963.36-180.48 936.96-136.32 900-103.68C876.48-81.60 852-60 823.68-41.28C808.32-32.16 793.44-22.56 775.20-19.20C756-16.80 741.60-25.44 739.20-39.84C737.76-49.92 739.68-59.04 743.52-68.64C766.56-129.12 825.60-174.72 883.68-213.60C914.88-234.24 948.96-252 987.36-264.48C1013.76-273.60 1044.48-281.76 1073.28-275.52C1104-268.80 1111.20-242.88 1101.60-214.56C1081.92-153.60 1020.48-93.60 968.16-46.56C933.60-16.32 896.16 11.04 856.32 36.48C854.88 37.44 853.92 38.40 852.48 38.88C852 38.88 852 38.88 851.52 38.40ZM1187.52-70.08C1157.76-54.24 1119.84-16.80 1086.72-12.48C1078.08-11.04 1072.32-16.32 1074.24-22.56C1078.08-36.96 1091.52-51.36 1101.60-60.96C1105.92-65.28 1111.68-70.56 1105.92-75.36C1099.68-80.16 1091.52-75.36 1087.20-71.52C1070.88-58.56 1056.48-41.76 1054.08-24C1053.12-12 1066.08-1.92 1081.44-1.44C1113.12-1.44 1164.48-47.04 1187.52-63.84C1188.48-64.32 1189.44-65.76 1189.44-66.72C1189.44-67.68 1188.48-69.12 1187.52-70.08ZM1121.28-98.40C1127.52-115.68 1156.80-130.56 1168.32-147.84C1173.60-156.96 1159.20-159.36 1153.92-157.44C1146.24-154.56 1126.56-124.80 1119.84-114.24C1117.44-108.96 1115.04-100.80 1121.28-98.40ZM1195.68-57.12C1197.12-56.64 1198.08-55.68 1199.52-55.20C1211.04-50.88 1222.56-49.92 1232.16-55.68C1247.04-64.80 1255.68-76.80 1260-90.24C1262.40-98.40 1254.24-105.60 1243.20-106.08C1210.56-106.08 1162.56-55.20 1164-19.20C1164-14.40 1165.92-10.56 1169.28-7.20C1200 21.60 1273.44-41.76 1310.40-68.16C1310.40-68.16 1310.40-68.64 1310.40-69.12C1309.44-69.60 1308-70.56 1306.56-71.04C1279.20-54.72 1194.24 8.16 1178.40-14.40C1171.68-24.48 1187.52-48 1195.68-57.12ZM1245.60-93.12C1251.36-90.72 1240.32-73.44 1229.76-64.32C1220.64-56.16 1211.52-54.72 1198.56-60.48C1199.52-61.44 1200-62.40 1200.96-63.36C1208.64-72 1217.28-80.16 1227.84-86.88C1233.60-90.24 1238.88-92.16 1245.60-93.12ZM1367.52 46.56C1349.76 52.32 1370.88-33.60 1388.64-71.04C1390.08-74.40 1392.48-76.80 1394.88-79.68C1426.56-113.76 1497.12-184.80 1516.32-229.92C1518.72-236.16 1513.92-240.96 1505.76-239.52C1472.16-231.84 1401.12-125.28 1382.40-95.04C1380-90.72 1377.12-86.88 1373.28-83.52C1371.36-88.32 1370.40-92.16 1368-96C1361.28-107.52 1348.80-109.44 1336.80-101.76C1313.76-86.40 1296.96-60.96 1284-35.52C1279.68-28.32 1276.32-19.20 1277.76-10.08C1279.68-3.36 1286.40-0.48 1295.04-3.36C1309.44-7.20 1356-51.36 1363.68-59.52C1354.56-28.80 1338.72 9.60 1348.80 43.20C1352.16 53.28 1359.84 60.48 1371.84 54.24C1400.64 35.04 1450.08-34.08 1470.72-68.16C1471.68-69.60 1471.68-71.04 1470.24-71.52C1468.80-72 1466.40-72 1464.96-71.52C1464-70.56 1463.04-69.12 1462.08-68.16C1433.76-29.28 1406.88 9.60 1367.52 46.56ZM1367.04-75.84C1344.96-53.28 1323.36-30.24 1292.64-13.44C1306.56-41.28 1321.44-70.08 1348.80-90.72C1356.48-96 1363.20-82.08 1367.04-75.84ZM1404-98.88C1425.12-132.96 1471.68-197.28 1505.76-225.12C1491.84-201.12 1427.04-114.24 1404.96-98.40C1404.96-98.40 1404.48-98.40 1404-98.88Z" fill="#000000"/>
  </g>
</svg>