<svg width="1452" height="587" viewBox="0 0 1452 587" xmlns="http://www.w3.org/2000/svg">
  <g transform="translate(35.04, 381.55)">
    <path d="M276-312C275.04-312.96 275.04-313.92 274.08-314.88C273.12-314.88 273.60-315.84 273.12-315.84C272.64-316.80 271.68-316.32 271.68-317.28C269.76-317.28 268.32-317.28 267.84-316.32C266.88-316.80 266.88-315.36 266.40-315.36C265.92-314.40 264.48-314.40 263.04-314.40C260.16-311.04 257.28-308.64 253.44-306.24C252.48-304.32 250.56-302.88 249.60-300.48C247.20-300 246.24-297.60 244.32-296.64L243.84-295.68C243.84-295.20 243.36-295.20 243.36-294.72C241.92-292.80 240.48-291.84 239.04-290.40L236.16-287.04L230.88-280.80C230.88-279.84 229.92-279.84 229.44-279.36C229.44-278.40 228.96-277.92 228.48-277.44C228-276 226.08-276 225.60-274.08C224.64-273.60 224.16-272.16 222.72-271.68C222.24-269.76 220.80-269.28 220.32-267.84C218.88-267.36 218.40-265.92 216.96-264.96C216.48-261.60 214.08-260.16 211.68-258.24C210.72-254.88 208.32-252.96 206.40-250.56C205.92-249.60 205.44-249.12 205.44-247.68C204.48-247.20 203.52-246.72 202.56-245.76C201.60-243.36 200.16-242.40 198.24-240.96C197.76-238.56 195.84-237.12 195.36-234.72C193.92-233.76 192.48-232.80 191.04-231.36C191.04-230.40 190.08-229.92 190.08-229.44C189.60-229.44 190.08-228 189.12-228C189.12-227.04 187.68-226.56 187.20-226.08L187.20-225.12L184.32-222.24L181.92-218.88C180.96-218.40 180-217.92 180-216C177.12-213.60 175.68-209.28 172.32-206.88L170.40-203.04C168.48-202.56 168-200.64 167.52-199.68C166.56-198.24 165.60-197.76 165.12-197.28L164.16-195.84C164.16-195.36 163.68-194.88 163.20-194.40C162.72-194.40 162.72-193.44 162.24-193.44L160.32-189.12C158.88-188.16 156.96-187.20 155.52-185.76C155.52-184.32 154.56-183.84 154.56-182.40C152.64-181.44 151.68-179.52 150.24-177.60C147.84-177.12 148.32-173.76 145.92-173.28C141.60-172.80 137.76-170.88 132.96-171.84C131.52-171.84 131.04-171.36 129.60-171.36C126.72-171.84 123.36-170.88 119.52-171.36C115.68-169.92 110.40-170.40 106.08-169.44C105.12-169.92 105.12-168.96 104.16-168.96L100.80-168.96C99.84-168.48 99.36-167.52 97.92-168C94.08-168 91.20-167.04 87.36-167.52L85.92-166.56C85.44-166.56 84.48-166.56 84-166.08L80.64-164.64C79.68-165.12 78.24-165.12 76.80-165.12C75.36-164.64 73.92-163.68 72-163.20L67.20-163.20L63.84-161.76C60.48-162.24 59.04-160.32 55.68-160.80C55.68-159.84 54.72-160.32 54.72-159.36C53.76-159.36 53.76-158.40 53.28-158.40C52.32-157.44 50.40-157.44 49.92-156.48C49.44-154.56 48.48-152.64 48-150.24C48.96-150.24 48.48-149.76 48.48-149.28C48.48-149.28 49.44-148.80 49.44-148.32C49.44-148.32 49.44-147.84 49.92-147.36C49.92-147.36 50.40-147.36 50.40-146.88C51.84-145.92 53.28-145.44 55.20-144.96C57.60-144.96 59.52-145.92 62.88-145.44C63.84-146.40 65.76-146.88 65.76-147.36L66.72-147.36L66.72-147.84L67.68-147.84C67.68-147.84 67.20-148.32 67.68-148.32L68.16-148.32C68.64-148.32 68.64-148.80 69.12-148.80L70.08-149.28C71.04-149.28 71.04-150.24 71.52-150.24L72-150.24C73.44-151.20 74.40-151.20 75.84-151.68L78.24-153.60C79.68-153.12 79.68-154.56 81.12-154.56L85.92-156C88.32-156 89.76-156.96 91.68-157.44C94.08-156.96 96-157.44 97.44-157.92C100.32-157.92 102.24-158.40 104.64-158.88C106.08-157.92 108.48-158.40 110.40-158.40C112.32-157.44 114.24-156 116.64-155.52C117.12-155.04 117.12-154.08 118.08-154.08C119.04-152.64 120.48-150.72 120.96-148.80C121.44-146.88 122.40-143.52 120.96-142.56L120.96-141.60L120.48-141.12C119.52-139.68 118.56-138.72 118.56-137.28L116.64-136.32C116.16-134.40 115.20-132.96 113.76-132C113.76-131.04 112.80-131.04 112.80-130.56C112.80-130.08 112.32-130.08 112.32-130.08C111.84-129.60 112.32-129.12 111.84-128.64C111.84-128.16 110.88-128.16 110.88-127.68C109.92-126.24 108.96-124.80 107.52-123.84C106.56-122.40 105.60-120.96 104.16-120.48C102.72-117.12 100.32-114.72 97.92-112.80C97.44-110.88 96.48-109.44 95.52-108C94.56-107.52 94.08-106.56 94.08-105.60L91.68-104.16C91.68-102.72 90.72-101.76 90.24-100.80L87.84-97.92C87.36-96.96 85.44-96.96 85.44-95.04C84.48-94.56 84-92.64 83.04-92.16C82.08-91.20 81.60-90.24 81.12-88.80L76.80-85.44C76.80-84 76.32-82.56 75.84-81.60C72-79.68 71.04-74.88 67.68-72.48C67.20-71.04 66.24-70.56 66.24-69.12C64.32-68.16 63.84-65.76 61.92-64.80C61.44-62.88 60-61.92 59.52-60.48C58.56-60 58.08-58.56 57.12-58.08C56.16-57.12 55.68-55.68 54.72-55.20C54.24-53.76 53.28-53.28 52.80-51.84C51.36-50.88 50.88-49.92 50.88-48.48C49.92-48 50.40-47.04 48.96-47.04C48-46.08 48-45.60 47.52-44.64C47.04-43.20 45.12-42.24 44.64-41.28C44.64-40.32 43.68-39.84 43.68-38.88C42.24-37.44 40.32-36.48 39.84-34.08C38.40-33.12 37.44-31.20 36-30.24C35.52-27.36 33.60-26.88 33.12-24.96C31.68-24 30.72-22.08 28.80-21.12C28.80-19.68 27.84-18.72 27.36-17.28C26.40-16.80 25.92-15.36 25.44-14.88C24.48-14.40 24.48-13.92 24-13.44C24-12.96 23.52-12.96 23.52-12.96C23.04-12.48 23.04-12 23.04-11.52L22.08-11.52L22.08-10.08L21.60-10.08C21.12-9.60 21.60-8.64 20.64-8.64C20.16-7.68 19.20-6.72 18.72-5.28C16.80-3.84 15.84-1.44 13.92-0.48L12 3.36C11.04 4.32 10.08 5.28 9.60 6.72C8.16 7.68 7.20 9.60 5.76 10.56C5.76 12 4.32 12.48 4.32 13.92L0.48 17.28L-0.96 19.68L-2.40 22.56C-2.88 23.04-2.88 23.52-3.36 23.52C-5.76 25.44-6.72 28.80-8.64 30.72C-9.60 31.68-9.60 33.12-10.08 34.08C-11.52 35.04-12.48 36-12.96 37.92L-14.88 40.32C-14.88 40.80-15.36 40.80-15.36 41.28C-16.32 45.12-19.68 46.08-19.68 50.40L-22.08 53.76C-21.12 56.16-22.56 57.60-23.04 59.52L-23.04 63.84C-21.60 65.28-21.60 67.20-19.68 67.68C-19.20 67.68-18.24 67.68-16.80 67.20L-16.80 66.72C-16.32 66.72-15.84 66.24-15.36 66.24C-14.88 66.24-14.88 66.24-14.40 65.76C-13.44 65.76-12.96 65.28-12.96 64.32C-12 63.84-11.52 62.88-10.08 62.88C-9.60 61.92-9.12 60.96-8.16 60C-6.72 60-6.72 59.04-5.76 58.56C-4.32 56.64-3.36 54.72-0.96 53.76C-0.48 50.88 1.92 49.92 2.88 48L5.76 46.56C6.24 45.12 7.20 44.16 7.68 43.20C10.56 39.36 14.40 37.44 15.84 33.12C18.72 31.68 20.16 28.32 23.04 26.40C24.48 22.56 27.84 21.12 28.80 17.28C31.68 15.84 33.12 12.96 35.52 10.56C36.48 9.60 36.96 8.16 37.92 6.72C38.40 6.72 38.40 6.24 38.88 6.24L40.80 2.40L45.60-1.44L47.52-5.28C50.40-6.24 51.36-9.12 52.32-12C53.28-12.48 53.76-13.92 54.72-14.88L57.60-16.80L59.04-20.16C60.96-21.12 62.40-22.56 62.88-24.48C64.80-25.44 65.28-27.36 66.72-28.80C67.68-30.72 68.64-32.16 70.08-33.12C71.04-35.04 72.48-36 72.96-37.92L75.84-39.84C76.32-42.24 78.72-43.20 78.72-45.60C80.16-46.08 80.64-47.04 81.60-48C81.60-48.96 82.08-49.44 82.08-50.40C83.52-51.36 84.48-52.32 84.96-54.24C87.36-55.68 88.80-58.08 90.24-60C90.24-60 90.72-60 90.72-60.48C91.20-60.48 91.20-60.96 91.68-61.44L91.68-62.40L92.16-62.88C93.12-63.84 93.60-65.28 95.04-65.76C95.52-68.64 98.40-69.60 98.88-72.96C100.80-73.92 100.80-76.32 102.72-77.28L104.16-81.12C106.08-82.08 106.08-84.48 108-85.44C108.48-87.36 109.92-88.80 110.40-91.20L113.28-94.56L114.24-98.40C114.72-98.88 115.20-99.36 115.20-99.84L115.68-99.84L115.68-100.80C115.68-100.80 116.16-101.28 116.64-101.28C116.64-102.24 117.12-102.72 117.12-103.20C117.12-103.68 118.08-103.68 118.08-104.16C118.08-104.64 118.08-104.64 118.56-105.12L119.04-105.60C119.52-106.08 119.52-106.56 119.52-106.56C120-107.52 120-108 120.48-108C120.96-108.96 120.48-109.92 120.96-110.88C120.96-110.88 121.44-110.88 121.44-111.36C121.44-112.32 121.44-112.32 121.92-113.28C122.88-114.72 123.84-116.16 124.80-118.56C124.80-119.04 124.80-119.52 125.28-120C125.28-120.48 125.76-120.96 125.76-121.44C126.24-122.40 126.24-123.84 127.20-124.32C127.20-126.24 127.68-127.68 128.64-128.64L128.64-132C129.60-132.96 130.56-133.92 130.08-136.32C131.52-137.76 132.48-139.20 132.96-141.60C134.40-142.08 135.36-143.04 136.32-144C136.32-145.44 137.76-145.92 137.76-147.36C139.68-148.80 141.12-150.72 142.56-152.64C144.48-154.08 145.44-156 146.88-158.40C146.88-158.88 147.84-158.88 148.32-159.36C149.28-159.84 149.28-160.80 150.24-160.80C150.72-162.24 152.64-162.72 153.60-163.20C155.04-163.20 155.52-162.72 156.96-162.72C157.92-163.68 159.36-162.72 159.84-162.72L160.32-162.72C163.20-163.20 166.08-162.72 168.48-163.20C169.44-163.20 170.88-162.72 172.32-162.72C174.24-162.24 176.64-162.72 178.08-163.20C179.04-162.72 180-162.24 180.96-162.24C180.96-162.72 181.92-162.24 182.40-162.72C186.24-162.72 189.60-162.24 192.48-162.24C194.40-162.24 194.40-161.28 195.84-161.28C196.80-161.28 196.80-161.76 197.76-161.76C197.76-161.28 199.20-160.80 199.20-160.80C199.68-160.80 200.16-161.28 200.64-160.80C201.12-160.32 202.08-160.80 203.04-160.80C205.44-160.32 207.36-158.88 209.76-158.88C211.20-157.92 212.64-157.92 213.60-156.96C215.52-156.48 216.48-155.52 217.92-155.04C217.92-155.52 218.40-155.52 218.88-155.52L219.36-155.52C221.28-156.48 223.20-157.44 223.20-159.36C222.24-161.28 221.28-162.72 219.84-164.16C219.36-164.64 217.92-164.64 216.96-165.12C216.48-166.08 216-167.04 215.04-167.04C213.12-167.04 212.16-167.52 211.20-168C209.28-168 208.32-168.48 206.88-168.96L203.52-168.96C202.56-169.44 202.08-169.92 201.12-169.92L197.76-169.92L194.40-171.36C188.64-171.36 182.88-171.84 176.64-171.84C175.20-172.32 174.24-172.80 172.80-172.80C170.88-172.32 168.96-172.32 167.04-172.80C165.60-172.80 165.12-171.84 163.68-171.84C163.68-172.32 162.72-172.32 162.72-172.80C162.24-173.28 161.76-173.76 161.76-174.24C161.76-175.68 162.72-176.64 163.20-178.56C164.64-179.04 165.12-180 165.12-181.92C167.04-182.88 168-184.80 169.44-185.76C169.44-186.24 169.92-186.72 169.92-187.20C170.40-187.20 170.88-187.68 171.36-188.16C171.36-188.16 170.88-188.64 171.36-189.12L171.84-189.12C172.32-189.60 172.80-190.08 172.80-190.56L176.64-193.92C176.64-194.88 177.12-195.84 178.08-196.32C178.08-197.76 179.52-197.76 179.52-199.68L181.92-201.12C182.40-203.52 184.32-204 184.80-205.92C187.20-207.84 189.60-209.76 190.56-213.60C191.52-214.08 192.96-214.56 193.92-215.52C193.92-217.44 195.84-218.40 196.32-220.32C198.24-221.76 199.68-223.68 201.12-225.60C202.08-226.08 203.04-226.56 203.04-227.04C203.52-227.52 203.52-228 203.52-228C203.52-228.48 204-228.48 204.48-228.48L204.48-229.44C204.96-230.40 205.44-230.88 205.44-231.36C206.88-232.32 207.84-234.24 209.76-234.72C209.76-237.12 211.20-237.12 211.68-239.04L214.56-240.48C214.56-241.44 215.04-241.92 215.52-242.88C216-243.84 216.96-243.84 217.44-244.80L218.88-246.72C219.36-247.68 220.32-248.16 220.80-248.64L221.76-250.08L224.16-252.96C225.60-254.40 226.56-255.84 228-256.80C228.48-258.72 229.92-259.68 230.88-261.12C230.88-262.08 232.32-262.08 232.80-262.56C233.28-263.52 234.24-264.48 234.24-265.44C234.72-265.92 235.20-266.88 236.16-266.88C237.12-267.84 237.12-268.80 238.08-269.28C238.08-269.76 238.56-269.76 239.04-269.76C240-270.72 240.48-272.16 241.92-272.64C241.92-274.08 243.36-274.08 243.36-275.52C244.80-275.52 244.80-276.96 246.24-277.44C246.72-279.84 248.64-280.32 249.12-282.72C250.08-283.68 251.04-284.16 252-284.64C252.96-287.04 255.36-288 255.84-290.40C257.28-290.40 257.76-291.36 259.20-291.84C259.68-293.76 261.12-294.24 261.60-296.16C262.56-296.16 263.52-296.64 264-297.12C264-297.12 264-298.08 264.48-298.08C264.48-298.56 264.96-298.56 265.44-299.04C265.44-299.04 265.92-299.52 266.40-299.52C266.88-300.96 267.84-302.40 268.80-302.88C270.24-303.36 271.20-304.32 273.12-304.80C273.12-305.28 274.08-305.28 275.04-305.76C275.04-306.24 276-307.20 276.48-307.68C276.48-309.60 276-310.56 276-312ZM401.28-335.52C399.84-337.44 396.96-337.92 395.04-339.84C389.76-340.80 385.44-342.72 378.72-342.72C378.24-342.72 377.76-343.68 376.80-343.68C376.32-344.64 375.84-342.72 375.36-343.68C375.36-342.72 373.92-343.20 373.44-343.20L368.64-344.64L362.88-344.64C361.92-344.64 361.44-345.12 360.96-345.12L357.60-345.12C357.60-345.12 357.12-345.60 357.60-345.60C356.16-345.60 354.72-345.12 353.76-345.12C352.32-345.12 350.88-345.12 349.92-345.60C348-345.60 346.08-346.08 345.12-346.08C344.64-346.08 344.16-346.08 344.16-345.60L343.20-345.60C342.72-345.60 342.72-346.08 342.72-346.08C338.88-346.08 335.52-345.60 332.64-345.60C330.72-345.12 330.24-346.56 328.32-346.56C324.96-346.08 322.56-346.56 319.20-345.60C317.28-346.08 314.40-346.56 312-346.56C311.04-346.56 311.04-346.08 310.08-346.08L308.16-346.08C306.72-344.64 303.36-345.60 301.44-346.08C299.04-345.12 296.64-346.56 294.24-346.08L291.84-346.08C290.40-346.56 289.44-346.08 288.48-345.60C287.52-345.60 287.04-346.08 286.08-345.60C285.12-345.60 283.68-345.12 282.72-345.12C282.24-345.12 281.76-345.12 281.28-345.60C278.88-345.60 276.96-345.12 275.04-345.12C273.60-345.12 272.16-345.12 270.72-345.60C269.76-345.60 268.80-345.12 267.84-345.12C264.96-344.64 263.04-344.64 261.12-344.64C257.76-344.16 252.96-344.64 248.64-344.16C247.68-344.16 246.24-343.68 245.28-343.68C243.36-343.20 242.88-344.64 241.44-344.16C239.04-343.20 235.20-343.68 232.80-342.72C231.84-343.68 229.92-342.72 228-343.20L224.16-342.24C223.20-342.24 222.72-342.24 222.24-342.72C222.72-341.76 220.32-343.20 220.32-341.76C218.88-342.24 217.44-342.24 216-342.24C215.52-342.24 215.04-341.76 214.08-341.76C213.60-341.76 213.60-342.24 213.60-342.24C212.16-342.72 211.68-342.24 210.72-341.76C208.80-341.76 207.36-341.76 205.92-341.28C202.08-341.76 197.28-341.28 193.92-340.32C191.04-340.80 188.16-339.84 185.28-340.32C183.36-340.32 182.88-339.36 181.44-339.36C178.08-339.36 175.68-339.36 172.80-338.88C171.84-338.88 171.84-337.92 170.40-338.40C168.96-337.92 167.52-338.88 167.04-338.40C165.12-337.92 162.24-337.92 160.80-337.92C160.32-337.92 160.32-337.44 160.32-337.44L158.40-337.44C156.96-337.44 157.44-337.92 156.96-337.44L155.52-337.44C151.68-336.48 144.96-336.96 141.60-336.48C139.68-336 138.24-336 136.80-336.48C136.32-336.48 136.32-336 135.84-336L135.36-336.48C134.88-336.48 134.40-336 134.40-336.48C132.96-336 132-335.04 130.56-335.04C128.64-336 126.72-334.56 124.80-334.56C122.40-334.56 120.48-333.60 118.56-333.60L114.72-333.60C113.28-333.60 112.32-333.12 111.36-333.12C108-332.64 104.64-332.64 100.80-332.64C99.36-332.16 96.96-331.68 94.56-331.68C92.64-330.72 88.80-330.72 86.88-329.76C85.44-330.72 84-330.24 82.56-329.76C79.68-329.76 76.80-329.28 73.92-328.80C72-328.80 70.56-328.32 69.12-328.32C67.20-327.84 66.24-327.36 63.84-327.84C63.36-326.88 61.92-327.36 61.44-326.40C60.48-326.88 59.52-326.40 59.04-325.92L57.60-325.92C56.64-325.44 55.20-325.44 54.24-325.44C51.84-324.96 49.44-324 46.56-324.48C45.12-323.04 43.20-322.08 41.28-321.60C39.84-319.68 37.92-319.20 37.92-316.80C37.92-315.84 38.40-314.88 38.40-313.44C39.36-312 41.28-310.56 42.24-310.08C43.20-309.12 44.64-309.60 46.08-309.12C47.04-309.12 47.04-310.08 47.52-310.56L52.80-315.36L54.72-316.32L55.68-316.80C56.16-316.80 56.16-316.80 56.64-317.28L57.12-317.28L64.80-318.24L65.28-318.72L69.60-318.72C70.08-319.20 71.04-319.20 71.52-319.20C72.48-319.68 72.96-320.16 73.92-320.16C76.80-320.16 79.20-320.64 82.08-320.64C83.52-321.12 84.96-321.12 86.40-321.12C87.84-321.60 88.80-322.08 90.24-322.08C93.12-322.08 95.52-322.08 98.40-322.56C99.36-322.56 100.80-323.04 100.80-323.04C102.24-323.52 102.24-323.04 102.72-323.52C107.04-323.52 110.40-324 113.76-324.48C116.64-324.48 119.04-324.96 120.96-325.44C123.84-324.48 127.20-325.92 130.08-325.92C132-326.40 132.48-325.44 134.40-325.44C135.84-325.92 136.80-326.88 138.72-326.88C140.16-326.88 141.12-326.40 143.04-326.40C144.96-327.36 147.36-327.36 149.76-327.84C150.72-327.84 151.20-328.32 151.68-327.84C151.68-327.36 152.16-327.84 152.16-327.84C155.04-327.36 157.44-327.84 158.88-328.32C159.84-327.84 160.80-327.84 162.24-327.84C166.56-328.80 171.84-329.28 176.64-328.80C180-329.76 185.76-329.76 189.60-329.76C190.56-330.24 192.48-329.76 193.44-330.72C195.36-329.76 199.20-330.72 202.08-330.24C203.52-330.24 204.96-331.20 206.40-331.20C207.84-331.20 209.28-330.72 210.24-330.72C210.72-330.72 211.68-330.72 212.16-331.20L215.52-331.20C216.96-331.68 217.92-331.20 219.36-331.20C219.36-330.72 222.72-332.16 222.72-331.20C227.04-331.20 229.92-332.16 232.80-332.16L239.52-332.16L240-332.64C240.48-332.64 240.48-332.16 241.44-332.16C242.88-332.16 243.84-332.64 244.80-332.64C245.76-332.64 246.24-332.16 246.72-332.16C248.16-332.16 249.60-332.64 251.04-332.64C251.52-332.64 251.52-332.16 251.52-332.16C252-332.16 252-332.64 252-332.64L254.40-332.64C254.88-332.64 254.88-332.16 254.88-332.16C255.36-332.16 255.84-332.64 256.32-332.64L260.64-332.64C261.60-332.64 262.56-333.12 264-333.12C264.48-333.60 264.96-333.12 265.92-333.12L267.84-333.12C269.28-333.12 270.24-333.12 271.68-332.64L275.04-333.60C276-333.60 276.48-333.12 276.96-333.12C278.40-333.12 278.40-333.60 278.88-333.60C280.32-333.60 281.76-333.12 283.20-333.12C284.16-333.12 285.12-333.60 286.08-333.60C287.04-333.60 288.48-333.60 288.96-334.08C290.40-334.08 290.40-333.12 291.84-333.12C292.32-333.60 293.76-334.56 294.24-333.60C304.32-334.08 315.84-333.12 325.92-334.56L331.20-333.12C333.12-334.08 336.96-332.64 337.92-333.60C337.92-334.08 338.88-333.12 338.88-333.12C340.32-333.12 341.28-333.60 342.24-333.60C343.68-334.08 345.12-333.60 346.56-333.60C346.08-332.64 348.48-334.08 348-333.12C349.92-332.64 349.44-334.08 351.36-334.08C352.32-333.60 353.28-332.64 354.72-333.12L358.56-333.12C359.04-331.68 360-333.12 360.96-333.12C361.92-333.12 361.92-332.64 362.88-332.64C365.76-332.16 368.64-332.64 371.04-331.68C372.48-331.68 372.96-332.64 374.40-332.64L376.32-331.68C377.76-330.24 380.64-331.20 382.56-331.20C385.44-330.72 387.36-329.28 390.72-329.28L394.56-325.92C396-325.44 396-323.04 397.92-323.04C399.84-323.04 399.84-324 400.80-324.96C401.28-324.96 401.28-325.92 402.24-325.92C402.24-326.40 402.72-326.88 403.20-327.36C403.20-330.72 402.72-333.60 401.28-335.52ZM104.64-96.96C103.68-96.96 104.16-96 103.68-95.52L99.84-91.20C99.36-90.72 99.36-89.76 99.36-88.80C97.92-87.84 97.44-86.40 97.44-84.48C96.48-84.48 96.48-83.52 96-83.52C96-83.04 95.52-82.56 95.04-82.08C94.56-81.60 94.08-81.60 94.08-81.12C93.60-80.64 94.08-79.68 93.12-79.68C91.68-77.76 91.20-75.36 89.28-74.40C89.28-72.48 87.84-72 87.84-70.56C86.40-70.08 86.40-68.64 86.40-67.20L83.52-65.28C83.04-62.88 81.12-61.92 80.64-59.52C79.68-59.52 79.68-58.56 79.20-57.60C79.20-57.60 78.72-57.60 78.72-57.12C78.72-56.64 78.24-56.64 77.76-55.68L77.76-55.20C77.28-54.72 76.32-54.24 76.32-53.76C75.84-53.28 75.84-52.32 74.88-51.84C74.40-50.88 73.44-50.40 73.44-49.44C72-48 70.56-46.56 70.08-44.16L66.72-41.28C66.72-39.84 65.76-38.88 65.76-37.92L64.32-36.96C64.32-36.96 64.80-36.48 64.32-36C64.32-36 63.36-36 62.88-35.52C62.88-35.04 62.88-34.56 62.40-34.08L59.04-31.20C58.56-29.28 57.12-28.32 56.16-26.40C55.68-25.44 54.24-24.48 53.76-23.04L51.84-21.60C50.88-19.20 48.48-17.76 48-14.88C46.56-14.40 45.60-13.44 44.64-12.48C44.64-11.04 44.16-10.56 43.68-9.60C42.72-9.60 42.24-8.16 41.28-8.16C39.84-6.72 38.40-3.84 36-5.28C35.52-8.16 37.92-7.68 37.92-9.60C39.36-10.56 39.36-12.96 41.28-13.44C41.28-14.88 42.24-15.36 42.24-16.80C43.20-17.28 42.72-17.76 43.68-18.24C44.64-18.24 44.16-19.20 44.64-19.20C44.64-20.64 46.56-20.64 46.08-22.56C46.56-23.04 46.56-23.52 46.56-24C48-24.48 47.52-26.40 48.96-26.40C49.44-26.88 49.44-27.36 49.92-27.36C50.40-29.76 52.32-30.72 52.80-32.64C53.76-33.12 54.24-34.56 55.20-35.04C56.64-38.88 59.04-41.76 61.44-44.16C61.44-45.60 62.40-46.08 62.40-47.52C64.32-48.48 64.80-50.88 66.72-51.84C66.72-53.28 67.68-53.76 68.16-55.20C69.60-55.68 69.60-57.12 70.56-57.60C71.52-60 72.96-61.44 73.92-64.32C75.36-64.80 75.84-66.72 77.76-67.20C77.76-68.16 78.72-68.64 78.72-70.08C80.64-71.04 81.12-73.44 82.56-74.40L84-76.32C84-77.76 85.44-77.76 85.92-78.24C85.92-79.68 86.88-80.16 86.88-81.60C87.84-81.60 87.84-82.56 88.80-82.56C89.76-84.48 90.72-85.92 92.16-86.88L95.04-92.16C96-93.60 98.88-93.60 99.36-96C100.32-96 100.32-96.96 101.28-96.48C101.76-97.44 102.24-97.92 102.24-98.88C102.24-99.36 102.72-98.88 102.72-99.36L104.64-99.36C105.60-98.40 104.16-97.92 104.64-96.96ZM34.08-0.96C32.64-2.88 36.48-6.24 36.96-2.88C36.48-1.92 36-0.48 34.08-0.96ZM308.64-144C305.76-144 305.28-142.08 303.36-141.12C301.44-140.64 299.04-138.72 298.08-137.76C298.08-137.28 297.60-137.76 297.60-137.76C297.12-137.28 297.12-136.80 297.12-136.80L296.16-136.80L296.16-135.84C295.68-135.84 295.20-136.32 295.20-135.84C294.72-135.84 294.72-134.88 294.24-134.88C292.80-135.36 292.80-133.92 291.36-134.40C290.40-132.96 288.96-132 287.52-131.04C285.12-130.56 283.68-129.12 282.24-127.68C280.32-127.20 278.40-126.72 277.44-125.28C275.52-124.80 274.56-123.36 272.16-123.36C271.68-122.40 270.72-121.92 269.76-121.44C267.36-120 264.96-119.04 262.08-118.56C260.64-117.60 259.68-116.64 257.76-116.64C256.80-116.64 256.80-115.68 255.84-115.68C255.36-114.72 253.44-115.68 252.96-115.20C249.60-113.76 245.76-113.28 242.88-111.84C241.44-111.84 240.48-112.32 239.52-111.84C239.04-111.84 238.08-111.36 238.08-111.36C235.20-110.40 232.80-111.84 230.40-111.84C229.44-112.32 228.96-113.28 228.48-113.76C228-114.72 226.56-114.24 226.56-115.68L226.56-120C227.04-121.92 229.44-121.92 228.96-124.32C229.44-124.80 229.44-126.24 230.40-126.24C230.40-127.20 231.36-127.68 231.36-128.64L234.72-132.48C235.68-132 235.68-133.44 236.16-133.92C237.12-134.40 237.60-135.36 238.56-135.36C240-136.32 241.92-135.36 243.36-135.84C244.32-135.84 245.76-136.32 246.72-136.32C248.16-136.80 249.12-136.32 250.56-136.32C252.48-137.28 254.88-137.28 257.76-137.28C258.72-138.24 260.64-138.24 261.60-138.72C262.08-139.20 262.56-139.68 263.04-139.68C264-141.12 265.92-140.64 266.88-141.12C267.36-142.56 268.80-142.56 268.32-144C269.28-144.48 270.24-144.96 270.24-146.40C270.24-148.32 270.72-150.24 271.20-151.68L271.20-153.60C269.76-156.48 267.84-158.40 265.44-159.84C265.44-160.32 264.48-159.84 264.48-160.80C262.08-160.80 261.12-160.32 259.68-160.32C259.20-159.84 258.24-159.84 257.76-159.84L257.76-159.36L257.28-159.36L257.28-158.88C256.80-158.88 256.32-159.36 256.32-158.88C255.36-158.40 253.92-157.92 252-158.40C250.08-156.48 247.68-155.52 244.80-154.56L242.40-151.68C241.44-151.20 240-151.20 239.52-149.76C239.04-148.80 237.60-148.80 237.60-147.84C236.16-146.88 235.68-145.92 234.72-144.96C234.72-144.96 234.24-144.48 233.76-144.48L229.44-140.16C228.96-140.16 229.44-139.68 229.44-139.68L228-138.24C228-137.76 227.52-137.28 227.52-136.80C226.56-135.84 225.60-135.36 225.12-134.40C224.16-132.96 223.68-131.52 222.24-130.56C221.76-129.12 220.32-128.16 219.84-126.72C218.88-126.24 219.36-124.32 218.88-123.84C217.44-121.92 216.48-120.48 216-118.56C215.52-116.16 216-112.80 215.52-109.92C216-109.92 216-109.44 216-109.44C216.48-108.48 217.92-108.48 217.44-107.52C218.88-107.04 219.36-105.12 220.32-105.12C220.80-105.12 220.80-104.64 220.80-104.64C221.76-104.64 224.16-104.16 224.64-104.16L225.60-104.16C226.56-103.68 226.56-103.68 227.52-103.68C229.92-103.68 232.80-103.68 235.20-103.20C238.08-104.16 240.48-105.12 244.32-104.64C245.28-105.12 246.24-106.08 247.68-106.08C248.64-107.04 250.56-107.04 251.04-108C254.40-107.52 255.36-109.92 259.20-109.92L264.48-113.28C265.44-113.28 266.40-113.76 267.36-113.76C268.80-114.72 269.76-116.16 271.68-116.64C273.12-116.64 273.60-117.60 275.04-117.60C275.04-118.08 276.48-118.08 276.48-118.56C276.96-119.04 276.96-119.52 277.92-120C279.36-120.48 279.84-121.44 281.28-121.92C281.76-122.88 283.68-122.88 284.16-123.84L288-125.28C291.36-128.16 296.16-129.60 299.52-132.48C300.48-132.48 301.44-133.44 301.44-133.44L302.40-133.44L302.40-133.92L303.36-133.92L303.84-134.40C304.80-135.36 306.24-135.84 306.24-136.80C306.72-137.28 307.20-137.76 308.64-137.76C308.64-138.24 309.12-137.76 309.12-138.24C309.60-138.24 309.60-139.20 310.08-139.20C310.56-141.12 310.08-143.04 308.64-144ZM253.44-146.40C254.40-147.36 255.36-146.40 255.84-146.40C256.32-144 252.96-144.48 253.44-146.40ZM257.28-146.40C256.32-147.36 257.28-146.88 257.28-148.32L258.24-148.32C258.24-147.36 258.24-146.40 257.28-146.40ZM451.68-134.88C451.20-137.28 453.12-137.28 452.64-139.20C455.04-141.12 456.48-143.52 458.88-145.44C459.36-146.88 459.36-148.32 460.32-148.80C461.76-149.76 462.24-150.72 462.72-152.16C463.20-153.12 464.16-154.08 465.12-155.04C464.64-156.96 466.56-156.96 466.56-158.88C467.04-159.84 467.52-161.28 467.04-163.20C468-164.16 468-165.12 468.48-166.08C468-167.52 468-169.92 468-172.32L467.04-174.24C466.56-175.20 466.08-175.68 466.08-176.64C464.16-178.08 463.20-180 461.76-181.92C460.80-182.40 458.88-181.92 458.40-182.88C457.44-182.40 456.96-183.84 456.96-183.84C456.96-184.32 456.48-183.84 456.48-183.84C453.60-185.28 448.32-183.84 444.48-184.32C443.04-183.84 442.08-182.88 440.16-182.88L437.76-180.96C437.76-180.96 437.28-180.48 436.80-180.48C433.92-180.48 433.92-177.60 431.04-177.60L427.20-173.28C427.20-173.28 426.72-173.76 426.24-173.28L426.24-172.80C425.28-171.84 422.88-169.92 422.88-169.44C422.88-168.48 421.92-168.48 421.44-168L421.44-167.52C421.44-167.04 420.96-167.04 420.96-166.56L420-165.12L419.52-165.12C419.52-165.12 420-164.64 419.52-164.64C419.52-164.16 419.04-163.68 419.04-163.68C418.56-163.20 419.04-162.24 418.56-161.76C418.56-161.76 418.08-161.76 417.60-161.28L417.60-160.32C417.12-159.84 417.12-159.84 417.12-159.36C416.64-159.36 416.64-158.88 416.16-158.88C416.16-158.40 416.64-156.96 415.68-156.96C415.68-155.04 415.20-153.12 414.72-152.64L414.72-152.16C414.72-150.24 414.72-149.76 414.24-148.80C414.72-147.84 414.72-146.88 415.20-146.88C415.68-146.40 414.72-144.48 415.68-144.96L416.64-140.64L419.52-136.80C420.48-136.32 420.48-135.84 420.96-134.88C421.92-134.40 422.88-133.92 422.88-132.96C424.80-132.48 427.68-131.52 428.16-129.12C428.16-128.64 428.16-127.68 427.68-126.24L423.84-123.36L422.40-120.96C420.96-120.48 419.52-119.04 418.08-118.56C417.60-116.64 415.20-116.64 414.24-115.20C413.28-113.28 411.36-113.28 410.40-111.84C409.44-110.40 408-109.44 406.08-108.96C405.12-108 404.64-106.56 403.68-106.08C402.72-105.60 401.28-105.12 400.80-104.16C399.36-103.68 397.92-102.24 397.44-101.28C397.44-101.28 396.96-101.76 396.48-101.28L396-100.80C394.56-99.84 394.08-98.88 393.12-97.92L389.28-96.48C388.80-95.52 387.84-95.52 387.36-95.04C386.88-94.08 386.40-93.60 385.44-93.12L382.08-91.68C381.60-91.20 381.12-90.24 380.16-90.24L378.72-88.32C377.76-88.32 376.32-88.32 375.84-87.84C374.40-87.36 374.40-85.44 372.96-84.96C370.08-84.48 369.60-82.08 367.68-81.60C364.80-81.12 362.88-79.68 360.96-78.24C360.48-78.24 360-78.24 359.52-77.76C359.04-77.28 358.56-76.80 358.08-76.80L354.24-74.88C352.80-74.40 351.84-73.44 349.44-72.96L344.16-69.60C341.76-69.12 339.84-67.68 337.44-66.72C335.04-66.24 332.64-65.76 331.20-64.32C329.76-64.80 328.80-64.32 328.32-64.32L325.92-62.88C324.96-62.88 324.48-62.40 323.52-62.40C320.16-62.88 315.84-61.92 312.96-62.40C312.48-63.84 311.52-64.80 311.52-65.76L311.52-69.12C312-69.60 312-70.56 312-71.52C312.48-71.52 312.96-72 312.96-72C313.44-72.96 313.92-72.96 313.92-73.92L313.92-74.40C314.88-75.84 315.36-77.76 315.36-79.68C315.84-79.68 315.36-80.16 315.84-80.16L317.28-82.08L319.68-84C320.16-85.44 321.12-86.40 321.12-87.84C323.04-89.28 324-91.20 324.96-93.12C325.44-93.60 325.92-94.08 326.40-94.08C326.40-95.04 327.36-95.52 327.36-96C327.36-96.48 328.32-96.48 328.32-96.96C328.80-96.96 328.32-97.44 328.32-97.44C328.80-97.92 329.28-97.92 329.28-98.40C329.76-99.84 331.68-100.32 331.68-102.24C333.12-102.72 334.56-104.64 335.04-105.60L338.40-110.88L340.32-112.32C341.76-113.28 342.24-114.72 343.20-116.16C344.64-116.64 345.12-118.08 347.04-118.56C347.52-119.52 347.52-120.96 348.48-121.92C351.84-123.84 353.28-127.20 356.16-129.60C357.60-130.08 358.56-131.52 360-132.96C361.92-133.92 364.32-134.40 365.28-136.32C365.28-136.32 365.28-136.80 365.76-136.80C366.24-138.72 365.28-140.16 364.80-141.60C363.36-142.56 360.96-144.48 358.56-143.52C356.64-144.48 354.72-143.52 352.80-143.52L350.88-142.56C350.40-141.60 348.96-141.60 348-141.60L346.08-139.20C345.60-138.24 344.64-137.76 343.68-137.28C342.24-136.32 341.28-134.40 339.36-132.96L336.96-131.04C336.96-130.56 336.48-130.08 336-129.12C334.56-127.20 332.64-125.76 330.72-124.32C330.24-122.40 328.32-121.44 327.36-119.52C326.40-119.52 325.44-118.56 324.96-118.08C324.48-117.12 324-116.64 323.04-116.16C322.56-115.68 321.60-115.20 321.12-114.24C320.16-113.76 320.16-112.80 319.20-112.32L315.84-110.88C314.40-108.96 312.48-108 311.52-106.08C310.08-106.56 310.56-105.12 309.12-105.12C309.12-104.16 307.68-104.64 307.20-103.68C306.24-104.16 306.24-102.72 305.28-102.24C304.80-101.76 304.32-101.28 303.36-101.28C301.44-100.32 299.52-99.36 298.08-101.28C297.60-103.20 298.56-104.16 298.56-106.56C299.52-106.56 299.04-107.04 299.52-108C299.52-108 300-108 300-108.48C300-108.96 300.48-108.96 300.48-108.96L301.44-112.32C301.92-112.32 301.44-112.80 301.44-113.28C302.40-113.76 303.36-113.76 303.36-115.20C303.84-115.68 305.28-116.16 305.28-117.60C306.24-118.08 306.24-119.52 306.72-120.48C308.16-121.92 309.12-123.36 310.08-125.28C311.52-126.72 312-129.12 313.92-129.60C313.92-130.56 314.40-132 314.40-132.96C315.84-134.40 317.28-135.36 318.72-136.32C318.72-138.72 320.16-140.16 320.16-142.08C319.68-143.04 319.20-143.52 319.20-144.48C318.72-145.44 317.76-145.44 317.28-146.40C314.40-146.88 313.44-145.44 311.04-145.44C310.08-144.48 308.16-143.52 306.24-143.04C305.28-141.12 304.32-139.20 302.88-138.24L301.44-134.40C300-132.96 299.52-130.56 297.60-129.12C297.12-127.68 296.16-126.72 296.16-125.28C295.68-124.80 294.72-124.80 294.72-123.36C293.76-122.88 294.24-121.44 293.28-121.44C293.28-120.48 292.80-120 292.32-119.52C292.32-118.56 291.36-117.60 291.36-116.16C290.40-115.68 290.40-114.24 289.44-113.76C289.44-112.80 288.48-112.32 288-111.36C287.52-110.40 288-108.48 287.52-107.52C287.04-106.56 286.56-105.60 286.08-105.60L286.08-104.64L285.60-104.16C285.12-103.68 285.60-103.20 285.60-102.72L284.64-102.24C284.64-101.76 284.16-100.80 284.16-100.32C283.20-97.92 284.16-95.04 284.64-92.64C285.60-92.16 286.56-91.68 287.52-90.72L292.32-90.72C293.76-90.24 294.72-91.20 295.68-90.72C295.68-91.20 296.64-90.72 296.64-91.20C297.60-91.20 297.60-91.68 298.08-91.68C299.04-92.16 300-92.64 301.44-92.64C301.92-93.60 302.88-93.60 303.84-94.08L306.72-95.52C308.16-95.52 308.16-96.96 309.12-97.44C309.60-97.92 312-97.44 312-96.96C312.96-95.52 311.52-94.08 311.52-92.16C311.04-92.16 311.04-91.20 310.56-90.72C310.56-90.24 310.56-90.24 310.08-90.24L310.08-89.28L309.60-89.28L309.60-88.80L309.12-88.80L309.12-87.84L308.64-87.84C308.64-87.84 309.12-87.36 308.64-87.36C308.16-86.88 308.64-86.40 308.64-86.40L308.16-86.40L308.16-85.44L307.68-85.44L307.68-84.96C307.20-84 306.72-83.04 306.72-82.08C306.72-81.60 306.24-82.08 306.24-82.08L305.28-80.16L305.28-77.28C304.32-76.80 303.84-75.36 303.36-74.88C303.36-72.48 302.40-71.52 301.92-69.60C301.44-66.72 301.92-64.32 301.92-60.96L304.32-57.12L306.72-53.76C310.08-52.32 315.36-52.80 319.20-51.84C321.12-51.84 321.12-53.28 322.56-53.28L325.44-53.28C325.92-54.24 327.84-54.24 328.80-54.72C330.72-54.72 331.20-55.68 333.12-55.68C333.12-56.16 333.12-56.16 333.60-56.16L336.96-57.12C337.92-57.60 338.88-58.56 340.32-58.56C341.28-59.52 343.20-59.04 343.68-60.48C344.16-60.96 345.60-60.96 346.56-60.96C346.56-60.96 347.04-61.92 347.52-62.40L348.48-62.40L348.96-62.88C349.44-63.36 350.88-62.88 350.88-63.84C354.24-64.32 356.64-65.76 358.56-67.68C360.48-67.68 360.96-69.60 362.40-69.60C364.80-70.08 367.20-71.52 368.64-72.48L371.04-73.44L371.52-74.40C372-74.88 372.48-75.36 372.96-74.88C373.92-75.84 375.36-76.32 376.80-76.80C377.76-78.24 379.68-79.20 380.64-80.64C381.60-81.12 383.04-81.12 383.04-82.08C383.52-82.08 383.52-83.04 384.48-83.04C384-84 385.44-83.52 385.44-84C386.88-84 387.36-84.48 388.32-84.48C389.76-85.92 391.20-86.88 393.12-87.36C393.60-88.32 394.08-89.28 395.04-89.76C396.48-90.24 397.44-90.72 398.40-92.16C399.84-92.16 400.80-93.12 401.76-94.08L404.64-96C404.64-96.48 405.60-96.48 405.60-96.96C406.56-97.44 406.56-98.40 407.04-98.40C408-98.40 408.96-100.32 409.44-100.32C409.92-100.32 409.44-100.32 409.92-100.80L413.76-102.72C414.24-103.20 414.72-103.68 414.72-104.64C415.68-104.64 416.16-104.64 416.64-105.12C418.08-105.60 418.56-107.04 420-107.04C421.44-108.96 422.88-110.88 425.28-111.84L428.16-115.20C429.12-115.68 430.56-116.16 431.52-117.12L436.32-121.44C437.76-122.88 439.20-124.80 441.60-125.76C444.96-125.28 449.76-126.24 452.16-124.80C454.08-125.28 456-125.28 457.92-124.32C458.88-124.80 459.84-125.28 460.80-125.28C463.20-123.84 466.08-125.28 469.44-124.80C470.88-125.28 471.84-125.76 473.28-125.76L479.04-124.80C480.48-124.80 480.96-125.76 482.88-125.76C483.84-126.24 483.84-125.28 485.28-125.76C487.20-126.72 490.08-126.24 492.96-126.24L496.80-127.68C500.16-127.20 501.12-128.64 504-127.68C504.96-128.64 506.88-129.12 508.32-129.60L512.16-129.60L515.52-131.04L526.08-133.44C526.08-134.40 528-133.44 528.48-134.40C529.44-133.92 529.92-134.88 530.88-134.88C530.88-135.36 531.36-135.36 531.84-135.36C532.32-135.36 532.80-135.84 533.76-135.84C534.72-135.84 534.72-136.80 535.68-136.80C537.12-136.80 538.56-136.80 539.52-137.28C540.48-138.24 541.92-138.72 542.40-139.68C542.40-140.64 541.92-142.08 541.44-143.52C536.16-144.96 533.76-141.12 528.48-141.60C527.04-140.64 526.08-140.16 524.16-139.68C523.68-139.20 522.72-139.20 521.76-139.20C521.28-139.20 520.32-138.72 519.36-138.72C518.40-137.76 516.48-137.76 514.56-137.76C512.64-137.28 511.68-136.80 509.28-136.80C508.32-136.32 507.36-135.84 505.44-135.84C504-135.36 503.04-135.84 502.08-136.32L498.24-134.40C494.88-135.84 492-133.92 489.60-133.44C485.76-134.40 480.96-133.92 478.56-132.96C476.16-132.48 474.24-132.96 472.80-132.96C470.88-132.48 469.44-132.48 467.52-132.96C463.20-132.96 457.92-132 454.56-132.96C453.60-133.44 451.68-133.44 451.68-134.88ZM446.40-175.20L455.04-175.20C455.52-174.72 456.48-174.72 456.48-173.76C457.44-173.28 457.44-172.32 457.92-171.84C458.40-170.40 459.84-169.44 459.84-166.08C459.84-164.64 458.88-163.20 457.92-162.24C456.96-161.28 456.96-159.84 456-159.36C455.04-156.48 453.12-154.56 452.64-152.16C450.72-150.72 449.76-148.80 448.32-147.36C446.88-145.92 445.44-144.48 444.48-142.56C444-142.08 443.04-142.08 442.56-141.12C441.60-141.12 441.60-139.68 440.64-139.68C440.16-138.24 437.76-138.24 436.32-137.28C433.44-137.76 432-138.72 430.08-139.68L427.68-142.56C427.20-142.56 427.68-143.04 427.20-143.04C426.72-143.04 426.72-143.52 426.24-144C426.24-145.44 425.76-145.92 424.80-146.88C424.80-149.28 424.32-151.20 424.80-154.08C425.28-156.48 426.72-157.44 426.72-160.32C427.20-160.80 428.64-161.28 429.12-162.24L429.12-162.72L429.60-162.72C429.60-163.20 429.60-163.68 430.08-164.16C430.08-164.16 430.56-164.16 430.56-164.64C431.04-164.64 431.04-165.12 431.04-165.60L431.52-166.08L432.96-167.04C432.96-167.04 432.96-167.52 433.44-168C433.44-168 433.92-167.52 433.92-168C434.40-168 434.88-168.48 435.36-168.96C435.36-169.44 435.84-169.44 435.84-169.92C437.28-171.36 439.20-172.32 440.64-173.28C443.04-172.80 444.48-174.72 446.40-175.20ZM816.48-258.24L815.52-260.16C815.04-260.16 814.56-260.64 814.08-260.64C812.64-261.60 810.72-262.56 808.80-262.08C807.36-262.08 806.88-261.12 805.92-261.12C804.96-259.20 803.52-257.76 803.04-255.36C801.60-253.92 801.12-251.52 799.68-249.60C798.72-248.64 797.76-246.72 796.32-245.76L796.32-244.80L795.36-243.84L795.36-243.36L794.40-243.36C793.44-242.40 792.96-240.96 792.48-240L791.52-238.08C791.52-237.12 790.56-237.12 791.04-236.16C788.16-234.24 785.76-231.84 784.32-228.48C782.88-228 782.40-226.56 781.44-225.12C780.48-224.16 780-222.72 778.56-221.76C777.12-219.36 774.72-217.44 773.76-214.08C771.84-213.12 770.40-211.68 769.92-208.80C767.52-208.32 767.04-206.40 765.12-205.44C764.16-203.52 762.72-201.12 761.28-200.16C760.80-198.72 759.84-198.24 759.36-197.76C759.36-197.76 759.84-197.28 759.36-196.80L756.96-194.88C756.48-192.96 756-192 755.04-191.04C754.08-190.08 752.16-188.64 751.68-187.68C751.20-187.68 751.20-187.20 751.20-186.72C750.72-186.24 750.24-185.76 750.24-184.80C748.80-184.32 748.32-183.36 747.36-182.40C747.36-181.44 746.40-181.44 745.92-180.96L745.92-180.48C745.92-180 745.44-180 745.44-180C744.96-180 745.44-179.52 745.44-179.04C744.96-179.04 744.48-178.56 744-178.56C743.04-177.12 742.08-176.16 741.60-173.76L738.72-172.32C738.24-170.40 736.32-169.44 735.84-167.04C735.36-166.56 734.40-166.56 733.92-165.60C732.96-165.60 733.44-164.16 732.48-163.68C732.48-162.24 731.04-162.72 731.04-161.76C730.08-161.76 730.08-160.80 729.12-160.32C728.64-159.36 727.68-158.40 727.68-156.96L725.28-155.04C724.80-154.56 724.80-154.56 724.32-154.56C723.84-153.12 723.36-152.16 722.40-151.20C722.40-150.72 721.92-150.72 721.92-150.72C721.44-150.24 721.92-149.76 721.44-149.28C720.96-148.80 720.48-148.80 720.48-147.84C719.04-147.36 718.08-145.92 716.64-145.44C715.68-143.04 713.76-141.60 712.80-139.20L709.44-136.80C708.48-134.88 707.52-132.96 706.08-132C705.60-130.08 703.68-128.64 703.20-126.72C701.76-126.24 701.28-124.80 699.84-124.80C699.36-122.88 698.40-122.40 697.92-120.96L695.52-119.04C695.04-118.08 694.56-117.12 693.12-116.64C692.16-114.72 690.24-113.28 689.28-110.88L686.40-107.04C685.44-107.04 685.92-106.08 684.96-106.08C684-103.68 682.08-102.72 680.16-101.28C679.68-98.40 677.28-96.96 676.32-94.56C675.36-93.60 674.40-93.12 673.44-92.64C671.52-86.40 665.76-84 663.84-78.24C661.92-77.28 660.96-75.36 659.52-73.44L659.04-73.44C658.56-72.96 659.04-72.48 659.04-72.48L657.60-71.52C657.12-70.56 656.64-69.60 655.68-68.64C655.20-67.68 654.24-66.72 652.80-65.76C653.28-64.80 652.32-64.80 652.32-64.80C651.84-64.32 651.84-63.84 651.84-62.88L651.36-62.88C651.36-62.40 651.36-62.40 650.88-61.92L649.92-60.96C648.96-59.52 647.52-57.60 647.04-56.16C645.60-55.68 645.60-54.72 644.64-54.24C643.68-51.36 641.28-49.92 639.84-47.52C638.88-45.12 636.48-43.68 636.00-40.32C634.56-39.84 634.08-37.92 632.64-36.96C632.16-35.04 630.24-34.56 629.76-32.64C629.76-31.68 628.80-31.20 628.32-30.72C628.32-30.24 628.32-29.76 627.84-29.76C627.84-29.28 627.36-29.28 627.36-29.28C626.88-29.28 627.36-28.32 627.36-28.32L624.00-24.48C624.00-23.52 623.04-22.56 623.04-21.12L622.56-21.12C622.08-19.68 620.64-19.20 620.64-17.76C619.68-17.76 620.16-16.80 619.68-16.32C619.68-15.84 618.72-15.84 618.72-14.88C617.76-14.40 618.24-12.48 617.28-12L615.36-9.60C615.36-9.12 614.88-9.12 614.88-8.64C614.88-6.72 613.44-5.76 613.44-3.36L611.04-1.44L611.04 1.44L608.16 5.28C608.16 7.68 606.72 8.64 606.72 11.04L605.76 12.48C605.76 13.44 604.32 13.44 604.80 14.40C604.32 15.36 604.32 16.80 604.32 18.24C603.36 18.72 603.36 20.16 602.88 21.12C602.88 22.08 602.40 23.04 602.88 24.48C601.92 24.48 602.40 25.44 601.92 25.92C601.44 26.88 600.96 27.84 601.44 29.76C600.96 30.24 600.48 30.72 600.48 31.68C601.44 33.12 600.48 34.08 600.48 36C600.96 39.36 602.88 40.80 602.88 44.64C604.80 46.56 606.24 49.44 607.68 51.84C608.16 52.32 609.12 52.80 610.08 52.80C610.56 54.24 611.52 54.24 612.00 55.20C613.44 55.20 614.40 55.68 615.36 55.68C615.84 56.64 617.76 56.16 618.72 57.12C623.04 57.60 627.84 59.52 632.16 57.60C632.16 58.08 633.12 57.60 633.60 58.08C634.08 58.08 635.04 58.56 635.52 58.08C638.88 57.12 643.20 56.64 647.52 56.64C647.52 56.16 648.96 56.64 648.96 56.16L651.84 56.16C653.28 55.20 654.24 54.24 655.68 53.76L659.04 53.76C659.52 53.28 660.00 53.28 660.48 53.28C661.44 53.28 662.40 52.32 663.36 51.84C665.76 51.84 666.72 50.88 669.12 51.36C670.08 50.88 670.08 49.44 671.52 49.44L673.44 49.44C675.36 47.52 678.24 46.56 681.12 46.08C682.08 45.12 684 45.60 684.96 45.12L692.64 40.80C696.48 40.80 697.92 39.36 700.32 37.92C701.76 37.92 702.24 37.44 703.68 36.96C706.08 35.52 708.96 35.04 710.88 33.12C713.76 32.64 715.20 30.72 718.08 30.24C719.04 30.24 719.04 29.28 720 28.80C720 27.84 721.44 28.32 721.92 27.36C723.36 27.84 723.84 26.88 725.28 26.88C726.24 25.92 727.20 24.96 728.64 24.48C732.48 23.52 734.88 21.12 738.24 19.68C739.20 19.20 740.16 18.72 741.60 18.72C741.60 18.24 741.60 18.24 742.08 18.24C743.04 17.76 743.52 16.32 744.96 15.84C747.84 15.36 749.76 13.92 751.68 12.48C753.12 12 754.56 11.04 755.04 10.56C755.52 10.56 755.52 10.56 756 10.08L756.48 10.08L756.48 9.60C756.48 9.60 757.44 9.12 757.92 9.12L758.40 8.64L759.36 8.64L759.36 8.16L760.32 7.68L762.72 6.72C763.68 6.24 763.68 4.80 764.64 4.32C765.60 4.32 766.08 3.36 767.52 3.84C768 2.88 768.48 1.92 769.44 1.44C769.92 1.44 770.40 0.96 770.88 0.96C771.84 0.96 773.28 0 773.28-0.48L774.24-0.48C774.72-0.48 774.72-0.96 775.20-1.44L778.56-3.36C779.52-3.84 780-4.80 780.48-4.80L782.40-5.76C784.32-7.20 785.76-8.64 787.68-9.60C789.12-9.60 790.08-10.56 791.52-10.56L794.40-13.92C796.32-14.40 797.28-15.36 799.20-15.84C800.64-16.80 800.64-18.24 802.56-18.72C802.56-19.20 803.52-19.20 804-19.20C804.48-19.68 804.96-20.16 804.96-20.64L807.84-22.56C807.84-23.04 808.32-22.56 808.80-22.56C809.28-23.04 809.28-24 810.24-24C810.72-24 810.24-24 810.24-24.48C811.20-24.96 812.16-25.44 813.12-26.40C814.08-26.40 815.04-26.88 815.52-27.36C816-27.36 816.48-27.84 816.96-27.84C817.44-28.32 817.92-29.28 818.40-29.28C819.36-29.28 818.88-30.24 819.84-29.76C820.80-31.68 822.24-32.64 823.68-34.08L826.56-35.52L828-36.48L829.44-37.44C829.44-37.92 830.40-37.92 829.92-38.40C830.88-38.88 830.88-39.84 831.84-40.32C834.24-41.28 835.68-42.72 838.56-43.68L840.48-46.56C842.88-46.56 843.36-48.48 844.80-48.96C846.72-49.92 847.68-51.36 849.12-51.84C850.08-52.80 850.56-54.24 852-54.72C852.96-55.20 853.44-56.16 854.88-56.16C855.84-56.64 856.32-58.08 856.80-59.04C858.24-59.04 858.72-60 859.68-60C859.68-61.44 861.12-61.44 861.60-62.40C862.56-62.40 862.56-63.84 863.04-64.32C864-64.32 864.96-64.80 865.44-64.80L866.88-66.72C867.84-67.68 869.28-68.16 870.72-69.12C872.64-71.52 874.56-73.44 876.96-75.36C878.88-76.80 880.80-79.20 883.68-80.64C885.12-82.56 887.04-83.52 888-85.92C889.92-85.92 890.40-87.36 891.36-87.84C891.84-89.76 894.72-89.28 894.72-91.20C895.68-91.68 897.12-92.64 897.60-94.08C899.04-95.52 900.96-96.48 901.92-98.40C903.36-99.84 904.80-100.32 905.28-101.76C906.24-102.72 907.20-102.72 907.68-103.68C909.60-105.12 911.04-107.04 912.48-108.96C914.40-110.40 915.36-111.84 917.28-112.80C918.24-115.68 920.64-117.12 922.56-119.04C923.04-119.52 924-120 924.48-120.96L925.92-122.88C926.40-123.84 927.36-124.32 927.84-124.80L930.72-129.60L933.60-131.04C934.56-132 935.04-132.96 936-133.44C936.48-134.40 937.44-134.88 937.92-135.36L938.88-137.28L939.36-137.76L939.36-138.72L940.32-138.72L943.20-142.08C943.68-143.52 945.12-144.48 945.60-145.92C947.04-146.40 947.52-147.84 948.48-148.32C948.96-149.76 949.92-150.24 949.92-152.16C952.80-154.08 954.72-157.44 957.12-159.84C958.08-163.20 961.44-164.16 961.44-168.48L965.28-171.84C965.28-172.80 965.76-173.76 966.24-174.72C967.20-174.72 966.72-175.68 967.20-175.68C967.20-176.64 968.64-176.16 968.64-177.12L969.60-180.48C970.56-180.96 971.52-181.92 972.48-182.88C973.44-185.28 974.88-187.20 975.84-189.12C976.80-189.12 976.32-190.08 976.80-190.56C977.76-192 978.24-194.40 979.68-194.88C979.68-196.32 980.64-196.80 980.16-198.24C982.08-199.20 982.08-202.08 984-203.52C984-204.96 984.48-206.40 985.44-207.36C985.44-208.80 987.36-208.80 987.36-210.72C988.32-210.72 987.36-212.64 987.84-213.12C989.28-215.52 990.72-217.92 991.20-220.80C992.16-221.76 992.64-222.72 993.12-223.68C993.12-226.56 994.56-227.04 994.56-229.44C995.04-229.44 994.56-229.92 995.04-229.92C995.04-230.40 995.52-230.88 995.52-230.88L996.48-231.84L996.48-232.80C996.48-233.28 996.96-234.24 996.96-234.72L997.92-236.64C997.92-238.08 998.88-239.52 998.88-240.48L999.84-245.28C999.84-246.24 1000.80-246.24 1000.80-246.72C1001.28-247.68 1000.80-248.16 1001.28-249.12C1001.28-249.60 1001.28-249.60 1001.76-250.56L1001.76-251.04L1002.72-252.96L1002.72-255.84L1003.68-257.76C1004.16-257.76 1004.16-258.72 1004.16-259.68C1002.72-262.56 1004.16-266.88 1005.12-269.76C1004.64-272.16 1005.12-273.60 1005.60-275.52C1005.12-277.92 1006.08-280.32 1005.60-283.68C1004.64-287.04 1004.64-291.36 1003.20-294.24C1004.16-296.64 1002.72-297.60 1002.72-300.48C1002.24-300.48 1002.72-301.44 1001.76-301.44C1002.24-301.92 1001.76-302.40 1001.76-302.88C1000.80-303.84 1000.80-304.80 1000.32-305.76C998.88-307.68 997.44-310.08 996.96-312.48C995.52-313.92 994.08-314.88 993.60-316.80C991.68-317.28 990.72-319.68 989.28-320.64C989.28-321.12 988.32-321.12 987.84-321.60C987.84-322.08 987.36-322.08 986.88-322.56L984.96-324.96L981.60-326.40C980.64-327.84 978.24-329.28 977.28-330.24C976.32-330.72 975.36-330.72 974.88-331.20C974.40-331.20 974.40-332.16 973.92-332.16L971.04-333.60C969.60-334.08 968.16-334.56 966.24-334.56L964.80-335.52L964.32-335.52L960-336.96C959.04-336.96 958.56-337.92 957.60-337.92L954.72-337.92C954.24-338.88 953.28-338.40 952.80-338.88L939.36-341.28C936.48-340.80 933.60-341.76 930.72-342.24C928.80-342.24 926.88-341.76 924.48-341.76C923.52-341.76 922.08-342.24 921.12-342.24C916.32-342.24 912.48-340.80 907.68-340.80C906.72-340.80 906.24-340.32 905.28-340.32L898.56-340.32C897.12-339.84 896.64-338.88 895.20-338.88C892.32-338.88 890.40-337.92 887.52-338.88C886.08-337.92 883.20-337.44 881.76-336.48C879.36-336.48 877.92-335.52 875.52-335.52C875.04-335.04 874.08-335.04 873.60-335.04C872.64-334.56 872.16-334.08 871.68-334.08C869.76-334.08 868.80-333.60 867.36-333.12L864.48-333.12C863.04-332.64 862.56-331.68 861.60-331.68L861.12-331.68L858.24-330.72L857.76-330.24C857.28-330.24 856.32-330.72 855.84-330.24C855.36-329.76 854.40-329.76 853.92-329.76C853.92-328.80 852.96-328.80 852.48-328.32C850.56-328.80 848.64-327.84 848.16-327.84C847.20-327.36 846.72-327.84 846.72-326.88C845.76-326.88 845.28-325.92 844.32-325.92C842.88-326.40 841.92-325.44 840.48-325.44C840.48-324.96 840-324.96 839.52-324.96C838.56-324 837.12-323.52 836.16-323.04C833.28-322.56 831.84-321.12 829.44-321.60C828.48-320.16 827.04-320.16 826.08-319.68L822.24-317.76C820.80-317.76 820.80-316.80 819.36-317.28C818.88-316.80 817.92-316.32 817.92-316.32C817.92-315.84 817.44-316.32 817.44-316.32C816.96-315.84 816.96-315.36 816.48-315.36C816-314.88 815.04-315.36 814.56-314.88L814.56-314.40C814.56-314.40 814.08-314.88 814.08-314.40C813.60-314.40 813.60-313.92 813.12-313.92L811.20-312.96L810.24-312.96L809.76-312.48C809.28-312 808.80-312.48 808.80-312.48C808.32-312.48 807.84-311.52 807.84-311.52L806.40-310.56C804.96-310.56 804-310.08 803.52-310.08L799.20-307.20C798.24-307.68 796.80-306.72 796.80-306.72L795.84-306.24C795.36-306.24 794.88-306.24 794.40-305.76L793.92-305.28L792.96-305.28L792.96-304.80L792-304.32L790.08-302.88C788.64-303.36 788.64-302.40 787.68-302.40C787.68-301.92 787.20-302.40 786.72-301.92C785.76-301.44 785.28-300.48 784.32-300.48C783.84-300 782.40-299.52 782.40-299.04C781.92-299.04 781.92-298.56 781.44-298.56C780.96-298.08 780.48-298.08 780-298.08C779.52-298.08 779.52-297.60 779.52-297.60L777.60-296.64C777.60-296.64 777.60-296.16 777.12-296.16L776.16-295.68C775.20-295.20 774.72-295.68 774.24-295.20C772.80-293.76 771.36-293.28 769.44-292.80L765.12-288.96C764.16-288.96 763.68-288.48 762.72-288.48L757.92-284.64C756.96-284.16 756-284.16 756-283.68L755.04-283.68L754.08-282.72C754.08-282.72 753.60-283.20 753.12-282.72L752.64-282.24C751.68-281.76 751.20-281.28 750.72-281.28C750.24-280.80 749.28-281.28 749.28-280.32C748.80-280.32 749.28-278.88 748.32-279.36L744-276.96C744-276.96 743.52-276.48 743.52-276L741.60-275.04L740.16-274.08C739.20-274.08 739.20-273.12 738.72-272.64L736.80-271.68C735.36-270.72 734.40-269.28 732.96-268.80L728.16-266.40C727.68-265.92 726.72-265.44 726.24-264.48C725.76-264.48 725.76-264 725.28-263.52C725.28-263.04 724.32-263.52 724.32-263.04C721.44-261.12 720-258.24 716.64-257.28C716.16-255.36 714.24-255.36 713.76-253.92C710.88-252 708.96-250.08 706.56-247.68C706.08-247.20 705.12-246.72 705.12-245.76C703.68-245.76 704.16-244.32 703.20-244.32C701.76-242.40 699.36-241.44 697.92-240.48C696.96-240 696.96-239.04 696.48-238.56C696.96-237.12 695.04-237.60 695.52-236.16C694.08-236.16 694.08-234.72 693.12-234.72C693.12-234.24 692.64-234.24 692.16-233.76C691.68-233.76 691.68-232.80 690.72-232.80C689.76-229.92 687.36-228 685.44-226.56C685.44-223.20 682.56-223.20 682.08-219.84C681.60-219.84 681.12-219.36 680.16-218.88C680.16-218.40 679.20-217.44 679.20-217.44C679.20-216.96 678.72-216.96 678.72-216.96L678.72-214.08C678.24-212.16 677.76-211.20 678.72-210.72C678.72-210.72 678.24-210.24 678.72-210.24C678.72-209.76 679.20-209.76 679.20-209.28L679.68-208.32C679.68-207.84 680.64-207.84 680.16-207.36L682.08-207.36C684.48-206.88 685.92-206.88 687.36-207.36C688.80-207.36 688.32-208.32 689.28-208.32C689.76-208.32 689.28-209.28 690.24-209.28C690.72-211.20 689.76-212.64 689.76-214.08C689.76-215.04 690.24-215.04 690.24-216C690.24-216.48 689.76-216.96 689.76-217.92C690.24-217.44 689.76-218.40 690.24-218.88L690.72-219.36C691.20-220.32 692.16-220.32 692.64-221.28C694.08-221.76 694.08-223.68 695.04-224.64L699.84-228.96C700.80-230.88 702.24-232.32 703.68-233.76C705.60-234.24 706.08-235.68 708-236.16L709.44-238.56L711.84-240C712.80-241.92 714.72-241.92 716.16-243.36C717.60-244.80 718.56-246.24 719.52-247.68C720.48-247.68 721.44-248.64 721.44-248.64L722.40-248.64L722.40-249.12L722.88-249.12C723.36-249.12 723.36-250.08 723.84-250.08C724.32-250.56 725.76-252.48 726.24-252.48C726.72-252.48 726.72-252.48 726.72-252.96L728.16-252.96L728.64-253.44L732-255.36C732-255.84 732.48-255.36 732.96-255.84L732.96-256.80C734.40-258.24 735.36-258.72 736.80-259.68C737.28-260.16 737.28-260.64 738.24-261.12C739.20-261.60 739.68-262.08 741.12-261.60C742.56-263.52 744.96-264.48 746.88-265.92C748.80-267.36 750.24-269.28 752.16-270.24C753.12-271.20 754.08-271.20 755.52-271.68C756.48-273.60 758.88-274.08 760.32-275.52C763.20-276 763.68-278.40 766.08-279.36C768.48-280.32 770.40-281.76 772.80-283.20L774.24-284.64C775.20-285.12 776.16-285.12 776.16-285.60L777.12-285.60C777.12-285.60 777.12-286.08 777.60-286.08C778.56-286.56 779.04-287.04 780-287.04C780.96-288.48 782.88-289.44 784.80-289.92C785.76-290.88 787.68-291.36 788.64-292.80C791.52-293.28 793.44-295.20 796.32-296.64C800.16-296.64 802.08-299.04 804.96-300.48L809.28-301.92C809.28-302.40 809.76-301.92 810.24-301.92C810.24-302.40 810.72-302.88 810.72-302.88L811.20-302.88C812.16-302.88 811.68-303.84 812.64-303.84C815.52-304.32 817.44-305.76 820.80-306.24C821.76-306.72 822.24-308.16 823.68-308.16C828-309.12 830.40-312 835.20-312C836.16-312.96 838.08-313.44 840-313.92C840.96-314.88 843.36-314.88 844.80-315.84C846.24-316.32 846.72-317.76 848.16-318.24C852-317.76 852.96-319.68 856.80-319.68C856.80-319.68 857.28-320.16 857.76-319.68L863.04-323.04L866.88-323.04C866.88-323.52 867.84-323.52 868.32-323.52L869.76-324.48L872.64-324.48C874.08-325.44 876.48-325.92 877.92-326.88C883.20-326.40 886.56-328.32 890.88-329.28C894.24-328.80 896.64-330.24 899.04-330.72C900.96-331.20 902.88-331.20 905.28-331.20L908.64-332.64C912-332.64 914.88-333.60 917.76-332.64C919.20-332.64 918.72-334.08 920.64-333.60C926.88-332.64 933.12-334.08 940.32-333.60C940.80-333.60 941.28-334.08 941.28-333.60C941.76-333.60 942.24-333.60 942.24-333.12C943.20-333.12 944.16-333.60 945.60-333.60C948-332.64 949.92-332.16 952.80-331.68C954.24-331.20 954.72-332.16 956.16-332.16C958.56-331.20 960.96-330.24 962.40-328.80L965.28-328.80C965.76-327.36 968.16-327.36 969.12-326.88C970.56-325.92 972-324.96 973.44-324.48C973.92-323.52 974.40-323.52 975.36-323.04C975.84-323.04 975.84-322.56 975.84-322.56L976.80-322.56C976.80-322.56 976.80-322.08 977.28-321.60L978.24-321.60L979.20-320.16C979.20-320.16 979.68-320.16 980.16-319.68L980.64-319.68C980.64-319.20 981.12-319.20 981.12-319.20C981.12-317.76 982.08-317.76 982.56-316.80C983.52-316.32 983.52-315.36 984.48-314.88L987.84-311.04L988.80-307.68C988.80-307.68 989.28-307.68 989.76-307.20L989.76-306.72C990.72-305.28 991.20-302.88 991.68-301.92C992.16-301.44 992.16-300.96 992.16-300.48C992.64-298.56 993.60-297.12 994.08-295.68C994.08-292.32 995.04-290.40 995.52-288C995.04-286.08 996-283.68 996-280.80C996-279.36 996-278.40 995.52-276.96C996.48-276 995.04-275.04 995.04-273.60C995.04-272.16 996-271.68 995.52-270.24C995.04-268.32 994.56-266.40 995.04-264.48C994.08-263.52 994.56-262.08 993.60-261.60C993.60-260.16 994.56-259.68 994.08-258.24C993.60-256.80 992.64-255.36 993.12-252.96C992.16-252.48 992.64-251.04 992.16-250.56C992.16-250.56 991.68-250.56 991.68-250.08C991.68-249.12 991.20-249.12 991.68-248.16C991.20-247.68 990.72-247.20 990.72-246.24C990.72-245.76 990.72-244.80 990.24-244.32C989.76-242.88 989.28-241.44 989.28-239.52L986.88-236.16C986.40-230.88 984.48-226.56 982.08-223.20C982.08-222.24 981.12-221.28 981.12-219.84C980.16-218.88 979.20-217.44 979.20-215.52C977.76-214.56 976.80-213.12 976.80-210.72L974.88-208.80C974.40-208.32 974.88-207.84 974.40-207.36L973.92-206.88C973.44-206.40 973.44-205.92 973.44-205.44L972.96-205.44L972.96-204.48L972-203.52C972-203.04 972-202.56 971.52-202.08C971.04-201.12 970.56-200.64 970.56-200.16C970.08-199.68 969.60-199.68 969.60-199.20C969.12-198.24 968.64-197.76 968.64-197.28C968.16-197.28 967.68-196.80 967.68-196.80C967.68-194.88 966.24-194.88 966.24-192.96C965.76-192.96 965.28-192 965.28-191.52C964.80-191.52 965.28-191.04 965.28-191.04C964.80-190.56 964.32-190.56 964.32-190.08L964.32-189.60C964.32-189.12 963.84-189.60 963.84-189.60C963.36-188.64 962.88-187.68 962.88-186.72C961.92-185.76 960.48-185.28 960-184.32C959.04-182.88 958.56-181.44 958.08-180C956.64-180 956.16-178.56 955.20-178.08C954.72-176.64 953.76-175.68 953.28-174.72C952.32-173.76 951.84-172.32 950.88-171.84C950.40-170.40 949.92-169.44 948.96-168.48C948-168 947.52-166.56 947.04-165.12C945.60-164.64 944.64-164.16 944.16-162.72C943.20-161.76 942.72-160.32 941.76-159.84C940.80-158.40 939.84-157.44 939.36-156L936.96-152.64C935.52-152.16 934.56-150.72 933.60-149.76C933.12-149.76 933.12-148.80 933.12-148.80L931.68-147.84L929.76-146.40C928.80-144 927.36-142.56 925.92-140.64C924.48-140.16 924.48-138.72 923.04-138.72C922.56-137.76 922.08-136.32 921.12-135.36L917.28-132C916.32-131.04 915.84-129.60 914.40-128.64C912-127.20 910.56-124.32 908.16-122.88L905.28-119.04C904.32-118.08 903.84-117.60 902.40-117.12C902.40-116.16 901.92-115.68 901.92-115.68L900.48-114.24C900-113.28 899.04-112.80 898.08-112.32L896.16-109.92C895.20-109.92 895.68-108.48 894.72-108.96C894.72-108 893.76-108 893.76-107.04C890.40-105.60 888.48-102.72 886.08-99.84C883.68-99.84 883.20-97.92 881.76-96.48C880.32-95.52 878.88-94.56 877.44-93.12C876.48-92.64 876-91.68 875.52-91.20C874.56-90.72 873.60-90.24 873.60-89.28C873.12-89.28 872.64-88.80 872.64-88.32L870.24-86.88C869.28-86.40 868.32-84.48 867.84-84L866.88-84C866.40-83.52 866.40-83.04 866.40-83.04C865.92-83.04 865.44-83.04 864.96-82.56L864.96-82.08C864.48-81.60 863.52-82.08 863.52-81.12C863.52-80.64 862.56-80.16 862.56-80.16C861.12-78.72 859.68-77.28 857.76-76.80C856.32-73.92 853.44-72.48 851.04-70.56C850.56-69.60 849.60-69.60 849.12-69.12C848.16-68.64 848.16-67.68 847.20-67.20C845.28-66.24 843.84-64.32 840.96-63.84C840.48-62.40 839.52-61.44 838.56-60.48C837.60-59.52 836.16-59.52 835.20-58.56C834.72-57.60 833.76-56.64 832.80-56.16L829.92-54.72C828.48-53.28 827.04-51.36 825.60-50.40C823.68-49.44 822.72-48 820.32-47.52C819.36-46.56 818.40-45.12 816.48-44.64C816-43.68 815.04-43.68 814.56-43.20C813.60-43.20 813.60-42.24 812.16-41.76C811.68-40.80 810.72-39.84 809.76-38.88C808.32-39.36 807.84-38.88 806.88-38.40C806.88-37.92 805.92-37.92 805.44-37.44C804.96-36.96 804.96-36 804-36.48L802.56-35.04C802.08-35.04 801.60-34.56 801.60-34.56L800.16-33.12C799.20-32.64 798.24-32.64 797.76-31.68C796.32-31.20 795.36-30.24 794.40-29.28C792.96-28.80 792.48-27.84 791.04-27.36C788.16-25.92 785.76-23.52 782.88-22.08C782.40-21.12 781.92-20.64 781.44-20.64C778.08-19.68 775.68-18.72 773.76-16.32C772.32-15.84 771.36-14.88 769.92-13.92C769.44-12.96 768.48-12.96 767.52-12.48C767.04-12.48 767.04-12 766.56-12C766.56-11.52 766.08-11.52 765.60-11.52L763.20-9.60C760.32-9.12 758.88-6.72 756-6.24C755.04-4.80 754.08-3.84 752.64-3.36C749.28-1.92 746.88 0.48 743.52 1.92C742.56 2.40 741.60 2.88 740.64 2.88C738.72 4.80 735.84 5.76 733.44 7.20C731.52 8.64 730.08 10.08 727.68 10.56C727.68 11.52 726.72 11.52 726.24 12.48L723.84 12.48C722.88 12.96 722.88 14.40 721.92 14.40C720.48 14.40 720 14.88 719.04 14.88C718.08 16.80 716.16 17.28 714.72 18.24C714.24 19.20 712.32 18.24 711.84 19.20C710.88 19.68 709.44 20.16 708.48 21.12C707.04 21.60 706.56 22.56 704.64 22.56C704.64 23.04 703.20 23.04 703.20 23.52C702.24 24 702.24 24.48 701.28 24.48C700.32 25.44 698.40 25.44 696.96 25.92C694.08 27.84 691.20 30.24 687.36 30.72C687.36 31.68 685.92 31.20 685.44 32.16C684.96 32.64 684.96 33.60 684 33.60L680.64 33.60C680.64 34.08 680.64 34.08 680.16 34.08C679.20 35.04 678.72 36.48 677.28 36.96C675.36 36.48 674.88 37.92 672.48 37.44C670.56 39.36 667.68 39.36 664.80 40.32L664.80 40.80C664.80 40.80 664.32 40.32 664.32 40.80C661.92 41.28 659.52 42.24 657.60 43.20L654.72 43.20L652.80 44.64C652.32 45.12 651.84 46.56 650.40 46.08C648 46.08 646.08 46.56 644.16 47.52C641.28 46.56 637.92 48 635.52 48.48C633.12 48 630.72 48.96 628.80 48.96C627.36 48.96 626.40 48.48 625.44 48C624.00 48 622.56 48 621.12 47.52C621.12 47.04 620.16 47.04 619.68 47.04L618.24 46.08C617.28 46.08 615.84 45.60 614.88 45.12C613.92 43.68 612.48 43.20 612.00 41.28C609.60 36.96 610.56 30.24 611.04 24.96C611.52 24.96 611.52 24 612.00 23.52C612.00 23.04 612.48 22.56 612.48 21.60C612.48 20.64 612.96 19.68 612.96 17.76C613.92 17.28 614.40 16.32 615.36 14.88C615.84 13.44 616.32 12.48 617.28 11.52C616.80 10.08 617.76 9.60 617.28 8.16C617.76 8.16 617.76 8.16 617.76 7.68C618.72 6.72 619.68 6.24 620.16 4.80C620.64 3.84 621.12 2.88 621.12 1.44C623.52-0.48 624.96-3.36 625.92-6.24L628.80-9.12C629.28-11.04 630.24-12.48 631.20-13.92C632.16-15.36 633.12-16.32 634.56-17.28C634.56-19.68 636.00-20.64 636.48-22.56C636.96-22.56 636.96-23.04 637.44-23.52C638.40-23.04 637.92-24.96 638.88-24.48C638.88-25.92 639.84-26.88 640.32-27.84C641.28-28.80 641.28-29.76 642.72-29.76C642.72-31.20 643.68-32.64 644.16-33.12C645.12-33.60 645.12-34.56 645.12-35.04C645.12-36 646.56-35.52 646.08-36.96C647.52-37.44 648-38.88 648.96-39.36C649.92-41.28 651.84-43.20 653.28-44.16L653.28-45.12L653.76-45.12L653.76-45.60C653.76-46.08 654.72-46.56 654.72-47.04L656.16-49.92C657.60-51.36 659.52-52.32 660.48-54.24L663.36-57.60C664.32-59.04 664.80-60.48 666.24-61.44C666.24-61.92 666.72-61.92 666.72-62.40C667.20-62.88 666.72-63.36 667.20-63.36C667.68-64.32 668.16-64.32 668.16-64.80C668.16-65.28 668.64-65.28 668.64-65.28L671.52-69.60C672.96-70.08 673.92-71.52 674.88-72.48C675.84-73.44 675.84-74.88 676.80-75.36C678.24-75.84 678.72-77.28 678.72-78.72C680.16-79.20 680.16-80.64 681.60-80.64L683.52-84C684.48-84.96 685.44-86.40 686.88-86.88C687.36-88.32 687.84-89.76 689.28-90.72C690.24-92.16 691.20-93.60 692.64-94.08C693.12-96.48 695.04-97.44 696-99.84C697.92-100.80 698.88-103.20 700.80-104.16C701.28-105.12 701.28-106.56 701.76-107.04C705.12-108.48 705.60-112.32 708.96-113.76C708.96-114.72 709.92-114.72 710.40-115.68C710.40-117.12 711.84-117.60 712.32-118.56C713.28-119.52 713.28-120.96 714.24-121.92C715.20-122.88 716.16-122.88 717.12-123.36C719.04-127.20 722.88-129.12 724.32-133.44C725.76-133.92 726.72-135.36 727.68-135.84L731.52-140.64L733.44-143.04C733.92-143.52 733.92-144.48 734.88-144.48C735.36-144.48 735.36-145.44 735.84-145.44C736.32-146.88 737.28-147.84 738.24-148.80C738.24-150.72 740.16-150.72 740.16-152.64C741.60-153.12 742.08-154.08 743.52-154.56C744-156.48 745.44-157.44 746.40-159.36L748.80-161.28C749.28-162.72 750.24-163.20 751.20-163.68C751.68-165.60 752.16-166.56 753.12-167.52L754.56-168.48L754.56-169.44C755.04-170.40 755.52-169.92 755.52-170.88C756.96-170.88 757.44-172.32 758.40-172.32C758.88-174.72 761.28-175.68 761.76-177.60C763.68-179.04 765.12-180.48 765.60-182.40L768.48-184.32L769.92-187.68C771.36-189.12 773.28-190.08 773.76-192.48C778.56-196.80 781.44-203.04 786.72-206.88C786.72-208.32 787.68-208.80 787.68-210.24C789.60-211.68 791.04-213.12 792-215.52C793.44-216 794.40-217.44 795.36-217.92C795.84-219.36 796.80-220.80 797.76-222.24L800.16-226.56C800.64-227.52 802.08-228 802.08-228.96C803.04-229.44 803.04-230.88 803.52-231.84C804.48-232.32 805.44-232.80 805.92-233.76C806.88-236.16 808.32-237.60 809.76-239.04C810.24-241.44 811.68-242.88 812.16-244.80C813.12-244.80 813.12-246.24 814.08-246.24C813.60-247.68 814.08-248.64 814.08-249.12C814.56-249.12 814.08-249.60 814.08-249.60C814.56-250.08 815.04-250.08 815.04-250.08C815.52-251.04 815.04-251.52 815.52-251.52C815.52-254.40 816.48-255.84 816.48-258.24ZM1130.40-142.56C1129.92-142.56 1128.96-144 1128-143.04C1127.04-143.04 1126.56-144 1125.12-144C1124.64-143.52 1123.68-142.56 1123.20-142.56L1122.72-142.56C1122.24-142.08 1121.76-142.08 1121.28-142.08C1121.28-141.60 1121.28-141.12 1120.32-141.12C1119.84-140.64 1118.40-141.12 1117.44-140.64C1116.48-140.16 1115.52-140.16 1115.04-139.20C1114.08-138.72 1112.64-139.20 1112.16-138.72C1111.20-138.24 1110.72-136.80 1109.28-136.80C1106.88-136.32 1104.96-135.84 1103.04-134.88C1100.64-135.36 1099.68-134.40 1098.24-133.92C1096.32-133.44 1095.84-132 1094.40-132C1089.60-131.52 1086.72-129.60 1083.36-128.64C1081.92-128.16 1080-127.68 1079.52-127.68L1079.04-127.68C1078.56-127.68 1079.04-127.20 1079.04-127.20C1078.08-127.20 1078.08-127.20 1077.12-126.72C1075.20-126.24 1073.76-125.28 1071.36-125.76L1069.44-124.80L1068.96-124.80C1068.48-124.32 1068-124.32 1067.04-124.32C1067.04-124.32 1067.04-123.84 1066.56-123.84C1066.08-123.84 1066.08-123.36 1065.60-123.36L1064.64-123.36C1064.16-123.36 1063.20-122.88 1062.72-122.88C1062.24-122.40 1061.28-121.92 1060.80-121.92C1059.84-121.92 1058.88-121.92 1057.92-121.44L1053.60-120L1050.72-120C1049.76-120 1049.28-119.04 1048.80-119.04L1048.32-119.04L1043.52-117.60C1041.12-117.60 1038.72-116.16 1036.32-116.16C1034.88-115.68 1033.44-116.16 1032.48-116.16C1031.04-115.68 1029.60-114.72 1028.16-114.72C1027.20-114.24 1026.24-114.72 1025.28-114.72C1024.32-114.72 1022.88-114.24 1021.44-114.24L1015.68-113.28C1015.20-113.76 1013.76-113.76 1012.80-114.24C1011.36-114.24 1010.40-114.72 1009.44-115.68C1008.00-119.04 1008.96-122.88 1011.36-124.80C1012.32-125.28 1012.80-126.72 1013.76-128.16L1017.12-131.04C1018.08-132.96 1019.52-133.92 1020.00-135.84C1021.44-137.28 1022.40-138.24 1022.88-140.64C1022.40-141.12 1022.40-143.04 1020.96-143.04C1020.00-145.44 1017.60-144.96 1014.24-144.48C1013.76-143.52 1012.32-143.04 1011.84-142.08L1008.96-139.20C1008.48-137.28 1007.04-136.32 1006.08-134.40C1005.60-133.92 1004.64-133.92 1004.64-132.96L1003.20-130.56C1002.72-130.56 1002.24-129.12 1001.76-128.64C1001.28-127.20 1000.80-125.28 999.36-124.32C999.36-122.40 998.40-120.96 998.40-119.04C998.40-116.64 999.36-114.72 999.36-112.32C1000.32-111.36 1001.28-109.92 1001.76-108.48L1005.12-107.04C1006.08-106.56 1008.48-106.56 1008.96-105.60L1010.40-105.60C1010.88-105.12 1011.84-104.64 1012.80-104.64C1018.08-103.68 1024.32-106.08 1029.60-105.60L1032.48-107.04C1033.92-107.52 1034.88-107.04 1035.36-107.52C1036.32-108 1037.28-108 1037.76-108.48C1041.12-108 1042.08-109.92 1045.44-109.44C1047.84-110.88 1051.68-110.88 1054.08-111.84L1057.92-113.76L1061.28-113.76C1062.72-114.72 1063.68-115.68 1065.12-116.16L1068.48-116.16C1068.48-116.64 1069.44-116.64 1069.92-116.64L1071.84-118.08C1071.84-118.08 1072.32-117.60 1072.32-118.08C1073.76-118.08 1074.72-118.56 1075.20-119.04C1077.12-118.56 1077.12-119.52 1079.04-119.52C1078.56-120 1079.52-119.52 1080-119.52C1080-120 1080.48-120.48 1080.48-120.48C1081.44-120.96 1081.92-121.44 1082.88-121.44C1084.32-121.44 1084.80-122.40 1086.24-121.92C1086.24-122.88 1088.16-121.92 1087.68-123.36C1088.64-123.36 1089.60-123.36 1089.60-123.84C1092-123.84 1093.44-125.28 1095.36-126.24L1101.60-128.16C1102.56-128.64 1104.48-129.12 1105.44-130.08L1106.40-130.08L1108.80-131.04C1111.20-132.48 1114.56-132.96 1117.44-133.92C1118.88-134.40 1119.36-135.36 1120.80-135.84C1122.24-135.84 1123.20-135.84 1123.68-136.32L1128-138.72C1128.96-139.68 1130.88-139.68 1130.40-142.56ZM1032.96-155.04L1038.24-159.84C1038.72-160.80 1039.68-161.76 1040.16-163.20C1042.08-163.20 1042.56-164.64 1044-165.60C1047.36-167.04 1048.32-170.40 1052.16-171.36C1053.12-172.80 1054.56-173.76 1056-174.72C1056.48-175.68 1057.92-175.20 1058.40-176.16C1059.36-176.64 1059.84-177.60 1061.28-177.60C1063.20-178.56 1064.64-180 1064.64-182.88C1065.12-185.28 1063.68-185.76 1063.20-187.20L1060.32-187.20L1059.84-186.72C1059.36-186.72 1059.36-187.20 1058.88-187.20C1058.40-187.20 1057.92-186.72 1057.44-186.72C1057.44-186.24 1056.96-186.72 1056.96-186.24C1055.52-185.76 1055.04-184.32 1054.08-183.84C1053.60-182.88 1052.16-183.36 1052.16-182.40C1051.20-182.40 1050.72-180.96 1049.76-180.96C1048.32-178.56 1045.44-177.60 1043.52-175.68C1042.56-174.72 1042.08-173.28 1041.60-172.32C1038.24-169.44 1035.84-166.56 1033.44-163.68C1032.48-161.76 1030.56-160.80 1029.60-158.88C1028.64-156.96 1027.20-156 1027.68-152.64C1030.08-151.68 1032-153.60 1032.96-155.04ZM1198.08-144C1195.20-144 1194.72-142.08 1192.80-141.12C1190.88-140.64 1188.48-138.72 1187.52-137.76C1187.52-137.28 1187.04-137.76 1187.04-137.76C1186.56-137.28 1186.56-136.80 1186.56-136.80L1185.60-136.80L1185.60-135.84C1185.12-135.84 1184.64-136.32 1184.64-135.84C1184.16-135.84 1184.16-134.88 1183.68-134.88C1182.24-135.36 1182.24-133.92 1180.80-134.40C1179.84-132.96 1178.40-132 1176.96-131.04C1174.56-130.56 1173.12-129.12 1171.68-127.68C1169.76-127.20 1167.84-126.72 1166.88-125.28C1164.96-124.80 1164.00-123.36 1161.60-123.36C1161.12-122.40 1160.16-121.92 1159.20-121.44C1156.80-120 1154.40-119.04 1151.52-118.56C1150.08-117.60 1149.12-116.64 1147.20-116.64C1146.24-116.64 1146.24-115.68 1145.28-115.68C1144.80-114.72 1142.88-115.68 1142.40-115.20C1139.04-113.76 1135.20-113.28 1132.32-111.84C1130.88-111.84 1129.92-112.32 1128.96-111.84C1128.48-111.84 1127.52-111.36 1127.52-111.36C1124.64-110.40 1122.24-111.84 1119.84-111.84C1118.88-112.32 1118.40-113.28 1117.92-113.76C1117.44-114.72 1116.00-114.24 1116.00-115.68L1116.00-120C1116.48-121.92 1118.88-121.92 1118.40-124.32C1118.88-124.80 1118.88-126.24 1119.84-126.24C1119.84-127.20 1120.80-127.68 1120.80-128.64L1124.16-132.48C1125.12-132 1125.12-133.44 1125.60-133.92C1126.56-134.40 1127.04-135.36 1128-135.36C1129.44-136.32 1131.36-135.36 1132.80-135.84C1133.76-135.84 1135.20-136.32 1136.16-136.32C1137.60-136.80 1138.56-136.32 1140.00-136.32C1141.92-137.28 1144.32-137.28 1147.20-137.28C1148.16-138.24 1150.08-138.24 1151.04-138.72C1151.52-139.20 1152.00-139.68 1152.48-139.68C1153.44-141.12 1155.36-140.64 1156.32-141.12C1156.80-142.56 1158.24-142.56 1157.76-144C1158.72-144.48 1159.68-144.96 1159.68-146.40C1159.68-148.32 1160.16-150.24 1160.64-151.68L1160.64-153.60C1159.20-156.48 1157.28-158.40 1154.88-159.84C1154.88-160.32 1153.92-159.84 1153.92-160.80C1151.52-160.80 1150.56-160.32 1149.12-160.32C1148.64-159.84 1147.68-159.84 1147.20-159.84L1147.20-159.36L1146.72-159.36L1146.72-158.88C1146.24-158.88 1145.76-159.36 1145.76-158.88C1144.80-158.40 1143.36-157.92 1141.44-158.40C1139.52-156.48 1137.12-155.52 1134.24-154.56L1131.84-151.68C1130.88-151.20 1129.44-151.20 1128.96-149.76C1128.48-148.80 1127.04-148.80 1127.04-147.84C1125.60-146.88 1125.12-145.92 1124.16-144.96C1124.16-144.96 1123.68-144.48 1123.20-144.48L1118.88-140.16C1118.40-140.16 1118.88-139.68 1118.88-139.68L1117.44-138.24C1117.44-137.76 1116.96-137.28 1116.96-136.80C1116.00-135.84 1115.04-135.36 1114.56-134.40C1113.60-132.96 1113.12-131.52 1111.68-130.56C1111.20-129.12 1109.76-128.16 1109.28-126.72C1108.32-126.24 1108.80-124.32 1108.32-123.84C1106.88-121.92 1105.92-120.48 1105.44-118.56C1104.96-116.16 1105.44-112.80 1104.96-109.92C1105.44-109.92 1105.44-109.44 1105.44-109.44C1105.92-108.48 1107.36-108.48 1106.88-107.52C1108.32-107.04 1108.80-105.12 1109.76-105.12C1110.24-105.12 1110.24-104.64 1110.24-104.64C1111.20-104.64 1113.60-104.16 1114.08-104.16L1115.04-104.16C1116.00-103.68 1116.00-103.68 1116.96-103.68C1119.36-103.68 1122.24-103.68 1124.64-103.20C1127.52-104.16 1129.92-105.12 1133.76-104.64C1134.72-105.12 1135.68-106.08 1137.12-106.08C1138.08-107.04 1140.00-107.04 1140.48-108C1143.84-107.52 1144.80-109.92 1148.64-109.92L1153.92-113.28C1154.88-113.28 1155.84-113.76 1156.80-113.76C1158.24-114.72 1159.20-116.16 1161.12-116.64C1162.56-116.64 1163.04-117.60 1164.48-117.60C1164.48-118.08 1165.92-118.08 1165.92-118.56C1166.40-119.04 1166.40-119.52 1167.36-120C1168.80-120.48 1169.28-121.44 1170.72-121.92C1171.20-122.88 1173.12-122.88 1173.60-123.84L1177.44-125.28C1180.80-128.16 1185.60-129.60 1188.96-132.48C1189.92-132.48 1190.88-133.44 1190.88-133.44L1191.84-133.44L1191.84-133.92L1192.80-133.92L1193.28-134.40C1194.24-135.36 1195.68-135.84 1195.68-136.80C1196.16-137.28 1196.64-137.76 1198.08-137.76C1198.08-138.24 1198.56-137.76 1198.56-138.24C1199.04-138.24 1199.04-139.20 1199.52-139.20C1200-141.12 1199.52-143.04 1198.08-144ZM1142.88-146.40C1143.84-147.36 1144.80-146.40 1145.28-146.40C1145.76-144 1142.40-144.48 1142.88-146.40ZM1146.72-146.40C1145.76-147.36 1146.72-146.88 1146.72-148.32L1147.68-148.32C1147.68-147.36 1147.68-146.40 1146.72-146.40ZM1334.40-142.08C1332.48-145.44 1326.72-143.52 1325.76-141.12C1324.32-140.16 1322.40-138.72 1320.96-138.24L1320.48-138.24C1318.56-138.24 1319.04-136.80 1317.60-136.80C1317.12-135.84 1315.20-135.36 1314.72-135.36C1314.24-135.36 1313.28-135.36 1313.28-134.88C1312.80-134.88 1312.32-135.36 1311.84-134.88C1308.48-131.52 1301.76-131.52 1297.44-129.12L1294.08-129.12C1291.68-127.20 1287.84-126.72 1283.52-126.72L1278.24-126.72C1276.32-126.72 1275.36-125.76 1274.40-126.24C1272.96-126.24 1273.44-126.72 1272.48-126.72C1272-126.72 1272-127.20 1272-127.20C1271.52-127.20 1270.08-127.20 1269.60-127.68L1264.32-129.12C1263.36-129.60 1262.88-130.08 1262.40-130.08C1261.92-130.08 1261.92-131.04 1260.96-131.52L1260.48-131.52L1257.60-132.96C1256.64-134.88 1254.24-135.84 1253.28-137.76L1249.92-143.04C1249.44-145.44 1248.48-146.40 1248.48-149.28C1248.48-150.72 1249.44-150.72 1249.92-151.20L1249.92-152.16C1250.40-153.60 1251.84-155.52 1253.28-156L1253.76-156C1254.24-156.48 1254.72-156.48 1255.20-156.48L1255.20-156.96C1255.20-157.44 1256.16-156.96 1256.64-157.44C1257.12-158.40 1258.08-158.40 1258.56-159.36L1260.96-161.28C1262.88-163.20 1264.32-165.12 1266.24-166.56C1268.16-167.04 1269.60-168.48 1271.04-168.96C1272-169.92 1272.48-170.88 1273.44-170.88L1274.88-173.28C1276.32-173.28 1276.80-173.76 1277.76-174.24C1278.72-176.16 1280.64-177.12 1282.08-178.56C1284-179.52 1284.96-180.96 1286.88-181.44C1287.84-183.36 1289.76-184.32 1291.20-185.76C1292.16-186.24 1292.64-187.20 1294.08-187.68C1294.08-188.64 1295.04-189.12 1296-189.60C1297.44-191.04 1299.36-192.48 1301.28-193.44C1301.76-195.36 1304.16-195.36 1304.64-196.80C1305.60-196.80 1305.12-197.76 1306.08-198.24C1307.52-198.72 1308.96-200.16 1310.40-200.64C1311.36-202.08 1312.80-203.04 1313.76-204L1315.20-205.44C1316.16-205.92 1317.12-206.88 1318.56-206.88C1319.04-208.32 1320-208.80 1321.44-209.28L1325.76-214.08L1328.16-215.52C1329.60-217.44 1331.52-219.36 1333.92-220.80C1334.88-221.28 1336.32-221.76 1336.80-223.20L1340.16-225.60L1346.40-232.32L1349.28-233.76L1352.16-237.12C1353.60-238.08 1354.08-239.52 1355.52-240.48C1356.96-240.96 1356.96-242.40 1357.44-242.88L1358.88-243.84L1362.24-246.72C1362.24-246.72 1362.24-247.68 1362.72-247.68C1362.72-248.16 1363.20-247.68 1363.68-248.16L1365.12-250.08C1366.08-251.04 1367.52-252 1368-253.44C1370.40-255.36 1372.32-258.24 1374.72-259.68L1380.48-267.36L1383.84-271.20C1385.28-271.68 1385.28-274.08 1387.20-274.56C1387.20-276 1388.16-277.44 1388.64-278.88C1389.60-279.36 1390.56-280.32 1392-280.80C1392.48-282.72 1393.92-284.16 1394.40-286.08C1395.36-286.56 1395.36-288.48 1396.32-288.48C1396.32-289.92 1397.28-290.40 1397.28-291.84C1399.68-293.28 1400.16-297.12 1402.08-299.04C1402.08-300 1402.56-301.92 1403.04-301.92L1403.04-303.36C1403.52-303.84 1403.04-304.32 1403.04-304.80C1403.52-304.80 1403.52-304.80 1403.52-305.28C1405.44-310.08 1404.96-317.76 1402.56-322.08C1400.64-324 1397.76-325.44 1395.84-327.84C1392.96-327.84 1391.52-328.80 1389.60-329.28L1383.36-329.28C1380-328.32 1376.64-326.88 1373.28-326.40C1372.32-325.44 1370.88-325.44 1369.92-324.48C1369.44-324 1368.96-324 1368.96-323.52C1367.52-323.52 1367.04-323.04 1366.08-323.04L1362.72-320.16C1360.80-320.16 1360.80-318.24 1359.36-317.76L1355.52-315.84C1354.56-314.40 1353.12-313.92 1351.68-313.44C1349.76-311.04 1347.36-308.64 1344.96-307.20C1344-305.76 1342.56-305.28 1342.08-303.36C1340.64-302.88 1339.68-301.44 1337.76-300.96L1336.32-297.60L1331.52-294.72C1330.56-292.80 1329.12-291.84 1328.16-289.44C1326.24-288 1324.32-286.56 1322.88-284.16C1321.44-282.24 1319.04-280.80 1318.08-278.40C1316.16-277.92 1315.68-276.48 1314.24-275.52C1313.28-273.60 1311.36-272.64 1310.88-270.24C1309.44-269.28 1308.48-268.32 1308-266.40C1306.08-265.92 1306.08-264 1304.64-263.04C1302.72-261.12 1300.80-258.24 1298.88-255.84L1296-252.48C1294.56-251.04 1293.60-248.64 1292.16-247.20L1290.72-244.80C1289.28-243.84 1289.28-241.92 1287.36-241.44C1287.36-240 1286.40-239.52 1286.40-238.08L1283.52-236.16C1283.04-233.76 1281.12-232.80 1280.64-229.92L1278.72-228.48C1278.72-228 1278.72-227.52 1278.24-227.52C1277.76-226.56 1276.80-226.08 1276.32-225.60C1276.32-225.12 1275.84-225.12 1275.84-224.64L1275.84-224.16C1275.84-223.68 1275.36-223.68 1274.88-223.68L1274.88-222.24C1273.92-221.28 1273.44-219.84 1272.96-219.36L1272-217.92L1271.04-216.96C1270.56-216 1270.56-215.04 1269.60-215.04C1268.16-211.20 1265.28-208.80 1264.32-204.96C1262.88-203.04 1261.44-202.56 1260.96-200.16C1260-199.20 1259.04-197.28 1257.60-196.32C1257.60-194.88 1257.12-193.92 1257.12-192.96L1255.20-191.52C1253.28-189.12 1251.84-185.76 1250.88-182.40L1249.92-180.48C1249.44-180.48 1248.48-180 1248.48-179.04L1247.04-175.20C1245.12-172.80 1244.64-169.44 1242.72-167.04C1242.72-165.60 1242.72-164.64 1242.24-163.68L1240.32-161.28C1240.32-160.80 1239.84-160.80 1239.36-160.32C1239.36-158.88 1238.88-157.92 1237.92-156.48C1236.96-155.52 1236.96-153.60 1236.48-152.16C1235.04-151.68 1234.08-149.76 1232.64-148.80C1231.20-149.28 1230.24-148.80 1229.28-148.80C1228.32-148.80 1227.36-149.28 1226.40-149.76C1225.44-150.24 1224-150.24 1223.52-150.72C1223.04-151.68 1222.08-151.68 1221.60-152.16C1219.68-152.16 1217.28-152.64 1216.32-152.16L1215.84-152.16L1212-151.20C1212-151.20 1212-150.72 1211.52-150.72L1209.60-150.72C1208.64-150.24 1207.68-150.24 1206.72-150.24L1206.72-149.76L1206.24-149.76C1205.76-149.76 1206.24-149.28 1206.24-149.28L1205.28-149.28L1205.28-148.80C1205.28-148.80 1204.80-149.28 1204.32-148.80C1204.32-148.32 1203.84-148.80 1203.84-148.80C1203.36-148.32 1203.36-147.84 1202.88-147.84C1202.40-146.88 1201.44-145.92 1200-145.44C1199.52-144.48 1198.08-144 1197.60-143.04L1194.24-140.64L1192.80-137.76C1189.44-135.84 1188-132 1185.60-129.60C1186.56-125.76 1184.16-124.32 1183.68-121.92C1183.68-120.48 1184.64-119.04 1184.16-117.12C1185.60-115.68 1186.08-113.28 1188.48-112.80C1188.48-111.84 1190.40-112.80 1191.36-112.32C1191.36-111.84 1191.36-112.32 1191.84-111.84C1192.80-111.84 1193.28-111.36 1193.76-111.36C1194.24-111.84 1195.20-111.36 1195.68-111.84C1196.16-111.84 1196.16-113.28 1197.12-112.80C1197.60-113.76 1199.52-113.76 1200.48-114.24C1201.92-115.68 1203.36-117.12 1205.76-118.08C1207.20-119.52 1209.12-120.96 1211.52-121.92C1211.52-122.88 1213.44-122.88 1213.44-124.32C1214.88-124.32 1214.88-126.24 1215.84-126.24L1218.72-127.68C1221.60-130.56 1224.48-132.96 1227.84-134.88C1229.28-136.32 1229.28-138.24 1231.20-138.72C1233.12-139.20 1234.56-139.20 1236.48-139.20C1238.40-137.76 1239.84-135.84 1239.84-132.96C1240.80-132 1241.76-132 1242.24-131.04C1242.72-130.08 1243.20-129.12 1243.20-127.68C1245.60-127.68 1247.04-126.24 1248.48-124.80L1252.80-120.96C1254.24-120.96 1254.72-120.48 1255.20-120C1257.12-120 1258.56-119.52 1260.48-119.04C1261.44-118.56 1262.88-118.56 1263.84-117.60C1264.80-117.60 1264.80-118.08 1265.76-118.08C1265.76-118.08 1266.24-117.60 1265.76-117.60C1266.72-117.60 1267.68-117.60 1269.12-117.12C1271.52-117.12 1272.96-118.08 1274.88-118.08C1276.32-118.56 1276.80-117.60 1278.24-117.60C1280.16-118.56 1283.04-118.08 1285.44-119.04L1288.80-119.04C1292.64-120 1295.52-121.92 1299.36-122.40C1299.36-123.84 1301.76-122.40 1301.76-123.36C1303.68-123.36 1304.64-124.80 1306.56-124.32C1308-126.24 1310.88-126.72 1312.80-128.16C1315.20-128.64 1317.12-130.08 1318.56-131.04C1319.52-131.52 1321.44-131.04 1321.92-131.52C1322.40-132.48 1323.36-132.96 1323.84-132.96C1324.32-133.92 1324.80-134.88 1325.76-134.88L1329.12-135.84C1330.56-138.24 1334.88-137.76 1334.40-142.08ZM1381.92-319.68C1384.80-319.68 1388.16-319.20 1391.52-319.20C1392.48-318.72 1393.44-318.24 1393.92-316.80L1395.36-313.44C1395.36-311.04 1394.88-310.08 1395.36-308.16C1394.40-308.16 1394.88-306.72 1394.40-306.72C1394.40-306.24 1393.92-305.76 1393.92-305.28C1392.96-304.32 1392.96-302.88 1392.48-301.92C1390.56-297.60 1388.16-294.24 1385.28-290.88C1383.84-289.44 1383.84-286.56 1381.44-286.08L1380-282.24C1379.04-281.76 1378.08-281.28 1377.12-279.84C1377.12-279.84 1376.64-279.84 1376.64-279.36C1376.64-278.88 1376.16-278.88 1376.16-278.88L1376.16-277.92C1375.68-277.44 1375.20-276.96 1374.72-276.96C1374.72-276.48 1374.24-276.48 1374.24-276.48L1374.24-275.52C1373.76-275.52 1373.28-275.04 1373.28-274.56C1372.80-274.08 1372.32-274.08 1372.32-273.60C1371.36-273.12 1371.84-271.68 1370.88-271.68C1369.44-270.72 1368.96-269.28 1368-268.32C1367.04-266.88 1365.60-265.92 1364.16-264.96L1361.28-261.12C1361.28-261.12 1360.32-261.12 1360.32-260.64C1359.84-260.16 1360.32-259.68 1359.84-259.68C1359.84-259.20 1359.36-259.20 1358.88-259.20C1358.88-258.72 1358.88-258.24 1358.40-257.76C1358.40-257.28 1357.44-257.28 1357.44-257.28C1357.44-256.80 1357.44-256.32 1356.96-255.84C1356.48-255.36 1355.52-254.40 1355.52-253.92C1354.08-253.44 1353.60-252 1352.16-251.52C1351.20-250.56 1350.24-249.60 1349.76-248.16C1348.32-248.64 1349.28-246.72 1348.32-247.20L1346.88-245.28C1346.40-244.32 1344.96-244.32 1344.48-242.88C1343.52-242.88 1344.48-241.92 1343.04-241.92L1341.60-240.48C1340.64-239.52 1339.68-238.56 1338.72-238.08L1331.04-229.92L1330.08-229.92C1330.08-229.44 1329.60-229.92 1329.12-229.92C1329.12-229.44 1329.60-229.44 1329.12-229.44L1328.64-229.44C1328.64-228.96 1328.16-228.48 1328.16-228.48C1326.72-227.52 1325.28-226.56 1323.84-225.12C1323.36-224.64 1323.36-223.20 1322.40-223.20L1318.08-219.36C1317.60-218.88 1315.68-218.40 1315.68-217.44C1315.68-216.48 1314.72-216 1314.72-215.52C1313.28-215.52 1312.80-214.56 1311.84-214.56C1310.40-213.12 1308.96-212.16 1308-210.24C1304.64-209.28 1302.24-207.36 1301.28-204.48C1300.32-204.48 1300.32-204 1299.84-203.52L1298.88-203.52C1298.88-203.04 1298.40-202.56 1298.40-202.56L1296.96-201.60L1293.60-198.72C1292.64-198.72 1292.64-197.28 1291.68-197.28C1290.24-195.36 1287.84-194.88 1286.88-192.48C1284-191.52 1282.08-189.60 1280.16-187.68C1278.24-187.20 1277.76-185.76 1276.32-184.80C1275.36-183.84 1274.88-182.88 1272.96-182.40C1272.48-181.44 1271.52-180.48 1271.04-179.04C1268.64-178.56 1267.20-176.16 1264.80-175.20C1263.84-173.28 1261.44-172.32 1258.08-172.32C1258.56-172.80 1257.60-172.80 1257.60-173.28C1257.60-173.28 1258.08-173.76 1258.08-174.24C1258.08-174.72 1258.56-174.72 1258.56-174.72C1258.56-175.20 1259.04-176.16 1259.04-177.12C1259.52-177.12 1260-177.60 1260-177.60C1260.48-178.56 1260.48-180 1261.44-180.48L1262.40-183.84C1262.88-185.76 1264.80-186.24 1265.28-188.64C1266.72-189.60 1267.20-192 1268.16-192.96L1271.04-197.76C1272-199.20 1272.96-200.64 1274.40-201.60C1274.40-203.04 1274.88-203.04 1275.36-203.52C1275.36-204 1275.84-204 1275.84-204C1275.84-204.48 1275.84-204.96 1276.32-205.44C1276.32-205.92 1276.80-205.92 1276.80-205.92L1276.80-206.88L1277.76-206.88L1277.76-207.84C1277.76-208.32 1278.24-208.32 1278.24-208.80C1278.72-209.28 1279.20-209.28 1279.20-209.28C1279.20-209.76 1279.20-210.24 1280.16-210.72C1281.60-214.08 1284-216.48 1285.44-220.32C1286.88-221.28 1287.84-222.72 1288.80-224.16L1290.24-227.52C1292.16-228.96 1292.64-231.36 1295.04-232.80C1295.52-234.24 1296.96-235.68 1297.44-237.12C1299.36-238.56 1300.32-240.96 1302.24-241.92C1302.24-243.84 1303.68-244.80 1304.16-246.24C1306.08-247.68 1307.52-249.60 1308.96-251.52L1310.88-253.92C1310.88-253.92 1310.88-254.40 1311.36-254.40C1311.84-255.36 1312.80-256.32 1313.76-256.80C1314.24-258.72 1315.20-259.68 1315.68-261.12L1319.04-264C1319.04-264.96 1320-264.96 1320.48-265.44L1320.48-266.40C1320.96-267.36 1322.88-268.32 1323.36-270.24C1324.32-270.24 1325.28-271.68 1326.24-271.68C1326.72-273.12 1327.68-274.08 1328.16-275.04C1328.64-275.04 1329.12-275.52 1329.12-276L1330.08-277.44C1332.48-279.84 1335.36-282.24 1337.76-285.12C1337.76-285.60 1338.24-285.60 1338.24-286.08C1338.72-286.08 1338.72-286.56 1338.72-287.04C1339.68-288 1341.12-288.48 1341.60-289.44C1342.08-289.44 1342.08-290.40 1342.08-290.40C1342.56-290.40 1343.52-290.40 1343.52-291.36C1344.48-292.32 1344.48-293.28 1344.96-293.76C1346.40-294.24 1347.36-295.20 1348.32-295.68L1350.24-298.08C1351.20-299.04 1352.16-300 1352.16-300.96C1353.60-300.96 1353.60-301.92 1355.04-301.92L1356.48-303.36C1356.96-304.32 1357.92-304.32 1358.40-304.80L1361.28-307.68C1361.76-308.16 1362.72-308.64 1363.20-308.64L1367.52-312.48L1368-312.48L1368-312.96L1370.40-313.92C1370.88-313.92 1371.36-314.40 1371.84-314.88L1375.20-316.32C1375.68-316.32 1375.20-316.80 1375.68-316.80C1376.16-316.80 1376.64-317.76 1377.60-317.76C1378.56-318.72 1380.48-318.72 1381.92-319.68ZM1210.08-138.72C1212.48-139.20 1217.76-142.56 1217.76-137.76C1217.76-136.32 1216.32-136.32 1215.36-136.32L1213.92-133.92C1211.52-132.96 1210.56-131.52 1208.16-130.56C1207.20-129.60 1206.24-129.12 1205.76-127.68C1202.40-127.68 1200.48-124.32 1197.60-125.28C1196.64-127.20 1198.56-128.64 1199.04-130.56L1201.44-132L1204.32-135.84C1206.72-136.32 1208.64-137.28 1210.08-138.72Z" fill="#000000"/>
  </g>
</svg>