<svg width="1976" height="883" viewBox="0 0 1976 883" xmlns="http://www.w3.org/2000/svg">
  <g transform="translate(9.6, 573.95)">
    <path d="M193.44-79.68C196.80-86.88 199.68-93.12 202.56-99.36C210.72-116.64 219.36-133.44 227.52-150.24C240.96-178.56 254.88-205.92 269.76-233.28C289.44-268.80 310.08-303.84 327.84-340.32C329.76-343.20 331.68-345.12 335.04-345.60C365.28-350.88 395.04-355.68 425.28-360C448.80-363.36 471.84-366.72 495.36-369.60C513.12-372 531.36-373.92 549.60-375.84C563.52-377.28 577.92-378.24 591.84-379.68C607.20-381.12 622.56-382.08 637.92-382.56C644.64-382.56 651.84-383.04 658.56-383.04C672.48-383.04 686.88-382.56 700.80-381.12L702.24-381.12C705.12-381.12 706.56-382.08 706.56-384.48C706.56-384.96 706.08-385.92 706.08-386.88C705.60-390.72 704.16-394.56 703.68-398.40C702.72-403.20 701.28-404.16 696.48-405.12C677.28-407.52 658.08-408.96 638.88-409.44L625.44-409.44C605.28-409.44 585.12-408.48 564.48-407.52C546.72-406.56 528.96-405.12 511.20-403.68C494.40-402.24 477.12-400.32 459.84-398.40C439.68-396.48 419.04-394.08 398.88-391.20C382.08-389.28 365.76-386.88 348.96-384.48L347.04-384.48C345.60-384.48 345.12-384.96 345.12-387.84L345.12-389.76C345.12-392.64 344.16-395.04 342.24-397.44C335.04-404.64 326.88-410.40 318.72-416.64C317.28-417.60 316.32-418.08 315.36-418.08C313.44-418.08 312-417.12 310.56-414.72C308.16-411.84 306.24-408.96 304.80-406.08C299.52-396.96 294.24-388.32 289.44-379.68C288-376.80 285.60-374.88 282.72-374.88C278.88-374.40 275.04-373.44 271.68-372.96C225.60-365.76 180-356.64 135.84-341.76C109.44-333.12 83.52-323.04 58.56-309.60C47.04-302.88 35.52-295.68 24.96-287.04C17.28-280.80 10.08-273.60 5.76-264.48C3.36-260.16 2.40-255.84 2.40-252C2.40-245.76 4.80-240.48 9.12-235.20C14.40-229.44 19.68-224.64 25.44-219.36C32.64-213.12 41.76-209.28 51.36-206.88C69.12-202.56 87.84-201.12 106.08-200.64C127.68-200.16 149.28-199.68 170.40-198.24C178.08-197.76 185.76-196.32 192.96-194.88C196.32-194.40 197.28-192.96 197.76-189.60C197.76-186.24 197.76-182.40 195.84-179.04C181.44-145.92 167.52-112.80 153.60-79.20C151.68-74.88 149.28-72.96 144.96-72.48C128.64-69.60 112.32-66.24 96.48-61.92C74.40-56.16 53.28-48.96 32.64-38.40C28.32-36.48 24.48-34.08 21.12-30.72C19.20-29.76 18.24-27.84 18.24-25.44L18.24-24C19.20-19.20 24.48-14.88 29.76-14.40C39.84-14.40 49.44-17.28 59.04-19.68C83.04-25.92 107.04-34.08 131.04-40.80C132.96-41.28 134.88-42.24 137.28-42.24C137.28-39.36 136.32-37.44 135.36-35.52C122.88-4.32 110.40 26.88 98.88 58.08C92.16 76.32 85.92 94.56 79.68 112.80C79.20 114.24 79.20 115.68 79.20 116.64C79.20 119.04 80.64 120 84.48 120.96C87.84 121.92 91.68 122.88 95.04 123.84C96.48 124.32 97.92 124.32 98.88 124.32C101.76 124.32 102.72 122.88 104.16 119.52C111.36 102.72 118.56 86.40 125.28 70.08C142.56 30.24 160.80-8.64 178.56-48C180.48-52.32 182.88-54.24 187.68-55.20C207.84-59.04 228-63.36 247.68-67.68C288.48-76.32 329.28-85.92 370.08-92.16C384.96-94.56 399.36-97.92 414.24-98.88C415.68-98.88 416.16-99.36 416.16-100.32C416.16-100.80 416.16-101.28 415.68-101.76C414.24-104.64 411.84-106.56 408.96-108C405.12-109.44 401.28-109.92 396.96-109.92C395.04-109.92 393.12-109.44 391.20-109.44C372-108 352.80-104.64 333.60-101.28C295.20-95.52 257.28-88.80 219.36-82.56C211.20-81.12 203.04-79.68 193.44-79.68ZM262.08-330.24L262.08-329.28C262.08-327.84 261.60-327.36 261.12-326.40C246.24-296.64 233.76-265.44 220.32-235.20C216.48-225.12 212.16-215.52 207.84-205.44C207.36-204.48 206.88-203.52 205.92-202.56C205.44-201.60 204.96-201.60 204.48-201.60C204-201.60 203.52-201.60 203.04-202.08C202.08-202.56 201.60-203.04 201.12-203.52C193.44-212.16 183.36-216 172.80-218.40C160.80-221.28 148.80-222.24 136.32-222.72C114.72-223.68 92.64-224.16 71.04-225.60C58.56-226.08 46.08-227.04 33.60-229.92C29.28-230.88 27.84-232.32 27.84-233.76C27.84-235.20 28.32-236.64 29.76-239.04C32.16-242.88 35.04-246.24 38.40-249.12C47.04-256.32 56.16-262.56 66.24-267.36C91.20-280.80 117.60-290.40 144.48-299.04C181.44-311.04 219.36-321.12 257.76-329.76C258.72-330.24 259.68-330.24 260.64-330.24ZM488.16-75.36C488.16-79.68 488.64-83.52 489.60-87.36C493.44-104.64 502.56-119.04 513.12-132.96C514.56-134.88 516-135.84 517.44-135.84C518.40-135.84 518.88-135.84 519.84-135.36C523.68-134.40 527.04-133.92 530.88-133.92L534.24-133.92C545.76-135.36 554.88-141.60 563.52-148.80C568.80-154.08 574.08-159.36 576.96-166.08C577.92-168 578.40-169.92 578.40-171.84C578.40-175.20 576.96-177.60 574.56-180C573.60-181.44 572.16-182.88 570.72-183.84C566.40-186.24 562.56-189.60 558.72-192.48C553.92-196.32 548.16-198.24 542.88-198.24C541.44-198.24 540-197.76 538.56-197.76C525.12-195.36 513.60-189.60 504-180.96C484.80-162.72 472.32-140.64 466.08-115.20C464.64-108.96 463.68-102.72 463.68-96.48C463.68-91.68 464.16-86.88 465.60-82.08C468.96-69.12 475.68-59.04 489.60-56.16C490.56-55.68 491.04-55.68 492-55.20C494.88-54.24 497.76-53.76 500.16-53.76C504-53.76 506.88-54.24 510.24-55.68C513.60-57.12 516.48-59.04 519.84-60.48C527.04-64.80 533.28-71.04 539.52-76.80C550.08-86.88 560.16-96.96 570.72-107.04C577.92-114.24 585.60-121.44 593.28-129.12C596.16-132 600-134.88 603.36-137.76C604.32-138.72 604.32-139.20 604.32-139.68C604.32-140.64 603.84-141.12 602.40-142.08C601.44-142.56 600.48-142.56 599.52-142.56C598.08-142.56 596.16-142.08 594.72-141.12C582.72-132.96 571.68-124.32 562.08-113.76C549.12-100.32 536.16-86.88 521.76-74.88C515.52-70.08 508.32-66.24 501.12-62.88C499.68-62.40 497.76-61.92 495.84-61.44L494.88-61.44C492.48-61.44 491.04-62.88 490.08-64.80C488.64-68.64 488.16-72.48 488.16-75.36ZM521.76-142.08L521.28-142.08C530.88-152.64 540.48-162.24 552.48-168.96C551.52-159.84 534.24-142.08 521.76-142.08ZM673.44-144C673.92-143.04 674.40-142.08 674.40-141.12C674.40-140.64 673.92-140.16 673.92-139.68C672.96-132.48 672.48-125.28 672.48-117.60C672.48-113.76 672.48-109.44 672.96-105.60C674.40-96.96 675.84-88.80 680.16-81.12C684-74.88 689.28-71.04 696.48-70.56C699.84-70.08 703.20-69.60 706.56-68.64C708-68.16 709.44-68.16 710.40-68.16C714.72-68.16 718.56-70.08 722.40-73.44C725.76-76.32 728.16-79.68 730.56-83.52C738.24-94.08 743.52-106.08 749.28-117.60C758.88-138.72 768.48-159.84 780-180C782.40-183.84 784.80-188.16 787.20-192C787.68-192.96 788.64-193.44 788.64-194.40C788.64-194.88 788.16-195.84 787.68-196.32C786.24-197.76 784.32-198.72 781.92-198.72C780-198.72 778.08-198.24 776.64-196.80C772.80-192.96 769.92-188.16 767.04-183.84C753.60-162.24 742.08-139.68 731.04-117.60C726.24-108 721.44-98.88 714.72-90.72C712.80-87.84 709.92-85.44 707.52-82.56C707.04-82.08 706.56-81.60 706.08-81.60C705.12-81.60 704.64-82.56 704.16-83.52C703.20-86.40 702.72-88.80 702.72-92.16C702.24-96.48 702.24-100.32 702.24-104.64C702.24-112.80 702.72-120.96 704.16-129.12C707.04-145.92 710.40-162.72 712.80-180L712.80-182.88C712.80-187.68 710.88-190.56 706.56-193.44C704.16-194.88 702.72-195.84 701.28-195.84C699.36-195.84 697.92-194.40 695.52-192C691.68-187.20 688.32-181.92 685.92-176.64C684.48-173.28 683.04-170.40 681.12-167.52C664.32-144 647.04-120.96 628.32-98.88C626.88-96.96 625.44-95.04 623.04-94.08C623.04-95.04 622.56-95.52 622.56-96.48C622.56-98.40 623.52-100.32 624-102.72C629.28-120.48 636-137.28 642.24-154.56C645.12-162.72 648.48-170.88 650.88-179.04C651.36-180.48 651.36-181.92 651.36-182.88C651.36-186.72 649.92-190.08 646.08-192.48C644.64-193.44 642.72-194.40 641.28-195.36C638.40-196.80 635.52-198.24 633.12-200.16C631.20-201.60 628.80-203.04 626.88-204C624.96-204.96 623.52-205.44 622.08-205.44C620.16-205.44 618.24-204 616.32-201.60C612-197.28 609.12-192 606.72-186.72C595.68-162.72 590.88-137.28 590.88-111.36L590.88-104.16C591.36-97.44 592.80-91.20 595.20-85.44C597.60-80.64 600.48-77.76 605.76-76.80C609.60-75.84 613.44-75.36 617.76-74.40L619.68-74.40C622.56-74.40 625.44-75.36 627.36-78.24C630.24-81.12 632.64-84 634.56-87.36C646.08-103.68 657.12-120 668.16-136.32C669.60-138.72 671.52-141.12 673.44-144ZM1421.76-266.40C1421.28-287.52 1416.48-306.72 1405.92-324.48C1404.48-326.88 1403.04-329.76 1402.08-332.16C1391.04-360 1371.36-378.72 1344-390.24C1321.92-399.84 1298.40-404.16 1274.88-406.08C1267.68-406.56 1260-406.08 1253.28-408.48C1252.80-408.96 1252.32-408.96 1251.84-408.96C1250.88-408.96 1250.40-408.96 1249.92-408.48C1244.16-406.08 1237.44-406.56 1231.20-406.08C1207.20-405.12 1182.72-401.76 1158.72-397.44C1128-391.68 1098.24-384 1068.48-374.88C1039.68-366.24 1011.36-356.16 984.96-341.76C968.64-333.12 953.28-323.52 940.32-309.60C937.44-306.24 934.56-302.88 932.16-298.56C931.20-296.16 930.24-293.76 930.24-291.36C930.24-289.44 930.72-287.04 931.68-285.12C933.60-280.32 937.92-277.92 941.28-275.04C941.76-274.56 942.24-274.56 942.72-274.56C943.20-274.56 944.16-274.56 944.64-275.52C947.04-279.36 950.88-281.28 954.24-283.20C981.60-299.52 1009.92-312 1039.68-322.08C1090.56-338.88 1142.40-350.40 1195.20-357.60C1200.48-358.08 1205.76-358.56 1211.04-358.56L1212.48-358.56C1213.44-358.56 1214.40-358.08 1214.40-357.60C1214.40-356.64 1213.92-355.68 1213.44-354.72C1212.96-354.24 1212.48-353.76 1212.48-353.28C1195.20-321.60 1180.32-288.96 1166.88-255.84C1141.44-191.04 1116-125.76 1089.12-61.44C1087.68-57.12 1085.28-55.20 1080.96-53.76C1065.12-49.44 1049.28-44.64 1033.44-40.32C1004.16-31.68 975.36-21.60 949.44-5.76C931.20 4.80 914.40 17.28 901.44 34.08C893.28 44.64 886.56 55.68 883.20 68.64C882.24 72 881.76 75.36 881.76 78.72C881.76 89.76 887.04 99.36 897.12 107.04C902.88 111.36 909.60 114.72 916.32 118.08C934.08 128.16 953.28 131.52 972.96 131.52L976.80 131.52C989.76 131.52 1002.72 129.60 1015.68 126.72C1022.40 125.28 1028.64 122.88 1035.84 122.88L1038.72 122.88C1039.68 122.88 1040.16 122.40 1041.12 121.92C1043.04 119.52 1045.44 119.04 1047.84 118.56C1071.36 111.36 1093.92 101.76 1115.52 90.72C1143.36 76.80 1169.76 60.48 1195.68 42.72C1232.64 17.28 1267.20-11.52 1299.84-42.72C1319.52-61.44 1337.76-81.60 1354.56-102.72C1379.52-134.40 1399.68-168.48 1411.20-207.36C1416.96-226.56 1421.28-246.24 1421.76-266.40ZM1057.92 82.56L1056.48 82.56C1057.44 79.68 1058.40 77.28 1059.84 74.40C1076.64 33.60 1094.88-6.72 1112.64-47.04C1114.08-50.40 1116-51.84 1119.36-52.80C1137.12-57.60 1154.40-61.92 1172.16-65.28C1173.12-65.76 1174.08-65.76 1175.04-66.24C1176.96-67.20 1180.80-65.76 1180.80-69.60C1180.80-71.52 1175.52-74.88 1173.12-74.88C1170.24-74.40 1167.36-73.92 1164.96-73.44C1151.52-71.04 1138.08-68.16 1125.12-65.28C1124.16-64.80 1122.72-64.80 1121.76-64.80C1121.76-65.28 1121.28-65.76 1121.28-66.24C1121.28-67.20 1122.24-68.64 1122.72-69.60C1143.36-114.72 1163.52-159.84 1186.56-204C1198.56-226.56 1210.56-249.60 1221.60-272.64C1235.52-300.48 1248.96-328.32 1260.96-357.12C1261.92-360 1263.36-361.92 1266.72-361.92C1298.88-361.44 1330.56-358.56 1360.80-345.12C1370.88-340.80 1380-334.56 1388.64-327.36C1392.48-324.48 1394.40-320.64 1395.36-315.84C1395.84-311.52 1395.84-307.20 1395.84-302.88C1395.84-293.28 1394.88-283.20 1392.96-274.08C1388.16-250.08 1378.56-228 1367.04-206.88C1346.40-168.96 1321.44-133.92 1293.60-100.80C1266.24-69.12 1236.48-40.32 1204.32-13.44C1184.16 3.36 1163.52 19.68 1141.92 34.56C1116 52.32 1089.12 68.16 1060.80 81.60C1059.84 82.08 1059.36 82.56 1057.92 82.56ZM1078.08-40.32L1080-40.32C1080-37.44 1078.56-35.52 1078.08-33.60C1062.72 3.84 1047.36 41.28 1034.40 79.68C1032.96 84 1031.52 87.84 1030.56 91.68C1029.60 94.56 1028.16 96.48 1025.28 97.44C1003.68 105.60 981.60 112.32 958.56 114.72C954.24 115.20 949.92 115.20 945.60 115.20C937.44 115.20 928.80 114.24 920.64 111.84C910.08 108.48 903.84 100.80 903.36 89.76C903.36 88.32 902.88 86.88 902.88 85.44C902.88 78.72 904.80 72.48 907.68 66.72C912.48 57.12 918.24 48.96 925.44 41.28C937.44 28.32 950.88 17.76 965.76 8.64C999.84-12.96 1036.32-28.32 1074.72-39.84C1075.68-40.32 1076.64-40.32 1078.08-40.32ZM1447.20-75.84C1446.72-76.80 1446.72-77.28 1446.72-77.76L1446.72-79.20C1448.16-87.36 1450.56-94.56 1453.44-102.24C1459.20-117.12 1466.40-131.52 1473.60-145.92C1476.48-151.20 1479.36-156.48 1481.28-162.24C1482.24-164.16 1482.72-166.08 1482.72-167.52C1482.72-170.40 1481.28-172.80 1477.92-175.20C1473.60-178.08 1469.76-180.48 1464.96-182.88C1462.08-184.32 1459.20-185.28 1456.80-185.28C1452.48-185.28 1448.64-183.36 1445.28-179.04C1442.40-176.16 1440-172.80 1437.60-168.96C1425.60-147.36 1419.36-124.32 1419.36-99.84L1419.36-96.96C1419.36-90.24 1420.32-83.52 1422.24-77.28C1424.16-71.04 1428-67.20 1434.24-65.76C1436.64-65.28 1439.04-64.32 1440.96-63.36C1443.36-62.40 1445.76-61.92 1448.16-61.92C1451.04-61.92 1454.40-62.88 1457.28-64.80C1466.88-71.04 1475.04-78.72 1482.72-87.36C1497.12-103.20 1509.12-121.92 1524.48-137.28C1525.44-137.76 1526.40-139.20 1526.40-140.16C1526.40-140.64 1526.40-141.12 1525.92-141.60C1524.96-143.04 1523.52-144 1521.60-144C1520.64-144 1520.16-144 1519.20-143.52C1518.24-143.04 1517.28-142.56 1516.32-141.60C1503.84-131.04 1490.88-120.96 1481.28-107.52C1474.08-96.96 1464.96-88.32 1454.88-80.16C1452.48-78.24 1450.08-76.32 1447.20-75.84ZM1447.20-227.52C1447.20-215.52 1453.92-205.92 1463.04-203.04C1466.88-201.60 1470.72-200.64 1474.56-199.20C1477.44-198.24 1480.32-197.28 1482.72-197.28C1486.56-197.28 1490.40-198.72 1493.76-202.08C1500-207.84 1504.32-214.56 1507.68-222.24C1508.64-224.16 1508.64-225.60 1508.64-227.52C1508.64-229.92 1508.16-232.80 1506.24-235.20L1504.80-238.08C1502.88-243.36 1499.52-245.76 1494.72-247.68L1477.44-253.44C1475.04-254.40 1472.64-254.88 1470.24-254.88C1467.36-254.88 1464-253.92 1461.60-251.52C1452.96-245.28 1448.16-236.16 1447.20-227.52ZM1530.24-75.36C1530.24-79.68 1530.72-83.52 1531.68-87.36C1535.52-104.64 1544.64-119.04 1555.20-132.96C1556.64-134.88 1558.08-135.84 1559.52-135.84C1560.48-135.84 1560.96-135.84 1561.92-135.36C1565.76-134.40 1569.12-133.92 1572.96-133.92L1576.32-133.92C1587.84-135.36 1596.96-141.60 1605.60-148.80C1610.88-154.08 1616.16-159.36 1619.04-166.08C1620-168 1620.48-169.92 1620.48-171.84C1620.48-175.20 1619.04-177.60 1616.64-180C1615.68-181.44 1614.24-182.88 1612.80-183.84C1608.48-186.24 1604.64-189.60 1600.80-192.48C1596-196.32 1590.24-198.24 1584.96-198.24C1583.52-198.24 1582.08-197.76 1580.64-197.76C1567.20-195.36 1555.68-189.60 1546.08-180.96C1526.88-162.72 1514.40-140.64 1508.16-115.20C1506.72-108.96 1505.76-102.72 1505.76-96.48C1505.76-91.68 1506.24-86.88 1507.68-82.08C1511.04-69.12 1517.76-59.04 1531.68-56.16C1532.64-55.68 1533.12-55.68 1534.08-55.20C1536.96-54.24 1539.84-53.76 1542.24-53.76C1546.08-53.76 1548.96-54.24 1552.32-55.68C1555.68-57.12 1558.56-59.04 1561.92-60.48C1569.12-64.80 1575.36-71.04 1581.60-76.80C1592.16-86.88 1602.24-96.96 1612.80-107.04C1620-114.24 1627.68-121.44 1635.36-129.12C1638.24-132 1642.08-134.88 1645.44-137.76C1646.40-138.72 1646.40-139.20 1646.40-139.68C1646.40-140.64 1645.92-141.12 1644.48-142.08C1643.52-142.56 1642.56-142.56 1641.60-142.56C1640.16-142.56 1638.24-142.08 1636.80-141.12C1624.80-132.96 1613.76-124.32 1604.16-113.76C1591.20-100.32 1578.24-86.88 1563.84-74.88C1557.60-70.08 1550.40-66.24 1543.20-62.88C1541.76-62.40 1539.84-61.92 1537.92-61.44L1536.96-61.44C1534.56-61.44 1533.12-62.88 1532.16-64.80C1530.72-68.64 1530.24-72.48 1530.24-75.36ZM1563.84-142.08L1563.36-142.08C1572.96-152.64 1582.56-162.24 1594.56-168.96C1593.60-159.84 1576.32-142.08 1563.84-142.08ZM1704.96-129.12C1705.92-128.64 1705.92-128.16 1705.92-127.68C1705.92-126.72 1705.92-126.24 1705.44-125.76C1699.20-91.68 1692.48-57.12 1690.08-22.08C1689.60-17.76 1689.60-13.92 1689.60-9.60C1689.60-1.44 1690.08 7.20 1691.52 15.36C1692.48 20.16 1694.40 24.96 1697.28 28.80C1700.64 33.60 1705.44 36.48 1711.20 37.44C1713.12 37.44 1715.04 37.44 1716.96 37.92C1719.36 38.88 1721.76 38.88 1724.16 38.88C1729.92 38.88 1735.68 36.48 1740.48 32.16C1746.72 26.88 1752 21.12 1756.32 14.40C1766.40-0.48 1775.52-15.36 1783.20-31.68C1792.32-49.92 1801.44-68.64 1810.56-87.36C1813.92-93.60 1817.28-99.36 1821.12-105.12C1830.72-118.08 1840.80-131.52 1856.64-138.72C1857.60-139.20 1858.56-139.68 1858.56-141.12C1858.08-142.08 1857.12-142.56 1856.16-143.04C1855.20-143.52 1853.76-143.52 1852.80-143.52C1850.88-143.52 1849.44-143.04 1847.52-142.56C1837.92-138.72 1828.80-133.92 1821.60-126.72C1812.48-117.12 1804.32-107.04 1798.08-96C1786.08-74.88 1776-53.28 1764.96-31.68C1757.28-16.80 1748.64-2.40 1738.56 11.04C1733.76 17.28 1728.48 22.56 1722.24 27.36C1721.28 28.32 1720.32 28.80 1719.36 28.80C1718.40 28.80 1717.44 27.84 1716.96 25.44C1715.52 22.08 1715.52 18.72 1715.04 15.36L1715.04 11.04C1715.04-3.36 1717.44-17.76 1719.84-31.68C1727.52-74.40 1737.60-116.16 1752-156.96C1753.44-161.28 1755.36-163.68 1760.16-164.64C1773.60-168 1786.56-173.76 1798.56-180.48C1825.92-195.36 1850.40-214.56 1872.96-236.16C1897.44-259.20 1918.08-285.12 1933.92-314.40C1943.52-331.68 1951.68-349.44 1953.60-369.12C1953.60-370.56 1954.08-372 1954.08-373.92C1954.08-384.96 1948.80-395.04 1939.68-402.24C1936.32-405.60 1932.48-408 1929.12-411.36C1922.40-417.60 1914.72-420.96 1905.12-420.96C1894.56-420.96 1884.96-418.56 1875.36-414.24C1860-407.52 1847.04-397.92 1835.04-386.40C1816.80-369.60 1800.96-350.40 1787.04-329.76C1758.24-287.04 1736.64-240.48 1721.76-190.56C1719.84-183.84 1717.92-176.64 1715.52-169.92C1715.04-167.52 1714.56-166.56 1713.60-166.56C1713.12-166.56 1712.16-167.04 1710.72-168C1708.80-169.92 1706.40-171.84 1704.48-173.28C1698.24-178.08 1692-180.48 1685.76-180.48C1680.96-180.48 1676.16-179.52 1670.88-177.12C1664.16-174.24 1658.40-169.92 1652.64-164.64C1637.28-149.76 1626.72-131.52 1619.52-111.36C1616.16-101.28 1612.80-91.20 1612.80-80.16L1612.80-77.76C1612.80-70.56 1616.16-66.24 1622.40-63.36C1624.32-62.40 1626.72-61.44 1628.64-60.48C1631.04-58.56 1633.92-58.08 1636.32-58.08C1639.20-58.08 1642.08-59.04 1645.44-61.44C1653.12-67.20 1660.80-73.92 1667.52-81.60C1677.60-93.12 1686.72-106.08 1696.32-118.56C1699.20-121.92 1702.08-125.76 1704.96-129.12ZM1758.72-174.72C1761.12-181.44 1763.52-187.20 1765.92-192.96C1774.08-213.60 1782.72-234.24 1793.28-254.40C1809.60-285.60 1827.36-315.84 1849.92-343.20C1862.40-358.08 1875.84-372.48 1892.16-383.52C1900.80-389.76 1909.92-395.04 1920.48-397.44C1922.88-397.92 1924.32-398.40 1925.76-398.40C1930.08-398.40 1931.04-396 1931.52-389.28L1931.52-383.04C1931.52-371.52 1929.60-360 1925.28-348.96C1919.04-332.16 1910.40-315.84 1900.80-300.48C1885.92-275.52 1868.16-252 1846.56-231.84C1826.88-213.60 1805.76-196.80 1781.76-184.32C1776-180.96 1769.76-178.56 1764-176.16C1762.56-175.20 1761.12-174.72 1758.72-174.72ZM1706.40-151.68C1686.24-128.16 1667.04-103.68 1643.04-83.52C1651.68-107.52 1685.28-144.48 1706.40-151.68Z" fill="#000000"/>
  </g>
</svg>