<?xml version="1.0" encoding="UTF-8"?>
<svg xmlns="http://www.w3.org/2000/svg" xmlns:xlink="http://www.w3.org/1999/xlink" version="1.2" >
<font id="AlbertosRegular" horiz-adv-x="468">
<font-face  font-family="Albertos" units-per-em="1000" ascent="970" descent="-350" font-style="normal" font-weight="400" font-stretch="normal" cap-height="714" x-height="500" underline-position="0" underline-thickness="0" />
<missing-glyph horiz-adv-x="527" />
<glyph glyph-name="null" horiz-adv-x="0" />
<glyph glyph-name="&amp;#x0;" horiz-adv-x="0" />
<glyph glyph-name="&amp;#xd;" unicode="&#xd;" horiz-adv-x="0" />
<glyph glyph-name="space" unicode="&#x20;" horiz-adv-x="300" />
<glyph glyph-name="controlLF" unicode="&#xa;" horiz-adv-x="0" />
<glyph glyph-name="exclam" unicode="&#x21;" horiz-adv-x="247" d="M139.642 101 C139.642 159 143.642 217 147.642 275 C153.642 360 167.642 444 176.642 529 C177.642 546 184.642 646 187.642 663 C188.642 666 192.642 684 192.642 687 C199.642 723 148.642 737 135.642 703 C125.642 679 119.642 564 116.642 539 C107.642 446 92.642 352 86.642 258 C85.642 239 79.642 127 78.642 108 C78.642 105 80.642 93 81.642 90 C92.642 59 139.642 67 139.642 101 L139.642 101 Z M132.642 -28 C158.642 4 111.642 41 85.642 9 C60.642 -22 107.642 -60 132.642 -28 L132.642 -28 Z " />
<glyph glyph-name="quotedbl" unicode="&#x22;" horiz-adv-x="256" d="M125.513 570 C133.513 606 141.513 642 148.513 678 C150.513 684 150.513 691 147.513 697 C137.513 726 94.5132 723 89.5132 692 C82.5132 654 74.5132 617 66.5132 580 C64.5132 572 66.5132 563 70.5132 557 C86.5132 535 119.513 543 125.513 570 L125.513 570 Z M216.513 558 C220.513 572 240.513 652 243.513 666 C245.513 674 248.513 683 246.513 691 C242.513 716 210.513 724 194.513 705 C189.513 699 187.513 692 185.513 685 C183.513 672 165.513 599 162.513 586 C159.513 576 156.513 562 162.513 553 C175.513 530 210.513 533 216.513 558 L216.513 558 Z " />
<glyph glyph-name="numbersign" unicode="&#x23;" horiz-adv-x="473" d="M244.933 135 C250.933 143 266.933 182 270.933 191 C294.933 191 319.933 191 343.933 190 C381.933 189 386.933 243 350.933 250 C341.933 251 299.933 251 291.933 251 C296.933 267 300.933 283 305.933 299 C330.933 299 355.933 299 381.933 298 C386.933 298 390.933 297 395.933 298 C425.933 304 429.933 346 400.933 356 C388.933 361 333.933 359 320.933 359 C321.933 364 327.933 388 327.933 393 C327.933 421 292.933 434 274.933 412 C267.933 405 261.933 368 258.933 358 C238.933 357 217.933 357 197.933 356 C199.933 362 204.933 386 208.933 390 C228.933 414 204.933 448 175.933 438 C166.933 435 158.933 427 154.933 419 C149.933 410 136.933 362 133.933 353 C112.933 351 91.9332 351 70.9332 353 C39.9332 354 27.9332 312 54.9332 297 C64.9332 291 102.933 291 114.933 292 C109.933 277 104.933 262 100.933 248 C86.9332 247 72.9332 247 58.9332 246 C34.9332 243 10.9332 226 14.9332 202 C18.9332 180 45.9332 170 63.9332 185 C67.9332 188 74.9332 187 79.9332 187 C78.9332 184 71.9332 167 70.9332 163 C65.9332 130 109.933 114 126.933 143 C129.933 149 141.933 182 143.933 189 C163.933 189 184.933 190 204.933 190 C203.933 187 194.933 168 192.933 165 C181.933 134 222.933 110 244.933 135 L244.933 135 Z M178.933 295 C199.933 296 221.933 297 242.933 297 C238.933 282 233.933 266 228.933 251 C206.933 250 185.933 250 163.933 249 C168.933 265 173.933 280 178.933 295 L178.933 295 Z " />
<glyph glyph-name="dollar" unicode="&#x24;" horiz-adv-x="444" d="M240.944 23 C238.944 51 239.944 79 241.944 107 C241.944 110 239.944 117 241.944 119 C279.944 141 316.944 166 344.944 200 C366.944 226 381.944 263 375.944 296 C371.944 320 355.944 341 333.944 353 C310.944 364 283.944 370 257.944 371 C218.944 373 178.944 370 138.944 368 C125.944 367 111.944 367 97.9439 369 C102.944 388 115.944 405 128.944 420 C164.944 462 206.944 501 254.944 529 C271.944 540 290.944 551 310.944 551 C309.944 531 306.944 510 298.944 492 C293.944 482 287.944 471 287.944 460 C287.944 426 334.944 418 345.944 450 C346.944 452 346.944 454 347.944 456 C362.944 488 372.944 524 369.944 559 C368.944 570 364.944 581 357.944 590 C345.944 604 325.944 611 306.944 611 C287.944 611 267.944 604 249.944 595 C249.944 602 250.944 635 249.944 642 C243.944 675 196.944 675 190.944 642 C189.944 637 190.944 610 189.944 605 C189.944 588 187.944 572 185.944 555 C142.944 523 101.944 486 70.9439 442 C55.9439 423 42.9439 401 38.9439 378 C35.9439 360 40.9439 338 53.9439 326 C69.9439 311 95.9439 309 116.944 308 C130.944 307 208.944 311 222.944 312 C245.944 312 300.944 312 314.944 292 C318.944 285 317.944 275 314.944 267 C308.944 247 292.944 230 276.944 216 C248.944 192 165.944 137 128.944 139 C127.944 145 126.944 160 128.944 165 C143.944 192 114.944 221 87.9439 206 C65.9439 193 63.9439 151 70.9439 126 C73.9439 114 79.9439 101 89.9439 93 C98.9439 86 109.944 81 120.944 80 C140.944 78 161.944 83 180.944 89 C179.944 79 178.944 27 180.944 17 C187.944 -20 242.944 -14 240.944 23 L240.944 23 Z " />
<glyph glyph-name="percent" unicode="&#x25;" horiz-adv-x="540" d="M210.464 441 C221.464 470 218.464 503 215.464 534 C214.464 542 215.464 550 212.464 557 C208.464 569 197.464 577 183.464 577 C177.464 596 158.464 614 138.464 617 C124.464 620 108.464 614 96.4641 605 C85.4641 595 76.4641 582 70.4641 569 C44.4641 517 46.4641 434 94.4641 401 C136.464 371 192.464 393 210.464 441 L210.464 441 Z M156.464 104 C227.464 229 302.464 350 374.464 474 C382.464 488 415.464 548 428.464 559 C456.464 582 425.464 626 393.464 607 C371.464 595 329.464 515 316.464 493 C246.464 373 173.464 256 104.464 135 C103.464 133 96.4641 121 95.4641 118 C89.4641 102 97.4641 83 113.464 77 C133.464 70 154.464 84 156.464 104 L156.464 104 Z M131.464 448 C119.464 453 113.464 480 113.464 493 C112.464 514 118.464 536 129.464 553 C136.464 545 144.464 541 154.464 541 C156.464 524 158.464 508 158.464 491 C158.464 475 155.464 451 140.464 447 C137.464 447 134.464 446 131.464 448 L131.464 448 Z M455.464 140 C466.464 169 463.464 202 460.464 232 C459.464 240 460.464 248 457.464 255 C453.464 268 442.464 275 428.464 275 C422.464 294 403.464 312 383.464 315 C369.464 318 353.464 312 341.464 303 C330.464 294 321.464 281 315.464 267 C298.464 234 293.464 192 303.464 156 C309.464 134 320.464 112 339.464 99 C381.464 69 437.464 91 455.464 140 L455.464 140 Z M376.464 146 C364.464 152 358.464 178 358.464 192 C357.464 212 363.464 234 374.464 251 C381.464 243 389.464 239 399.464 239 C401.464 223 403.464 206 403.464 189 C403.464 174 400.464 149 385.464 146 C382.464 145 379.464 145 376.464 146 L376.464 146 Z " />
<glyph glyph-name="ampersand" unicode="&#x26;" horiz-adv-x="565" d="M448.628 112 C444.628 118 440.628 145 439.628 152 C435.628 185 434.628 219 434.628 252 C434.628 269 435.628 287 438.628 304 C439.628 308 441.628 313 441.628 318 C454.628 317 468.628 317 481.628 317 C522.628 316 522.628 376 481.628 377 C441.628 378 402.628 380 363.628 374 C354.628 373 344.628 371 334.628 372 C294.628 379 283.628 322 323.628 313 C340.628 310 359.628 313 376.628 316 C351.628 264 318.628 213 270.628 182 C240.628 161 199.628 154 162.628 158 C147.628 160 132.628 165 119.628 173 C100.628 187 85.6277 210 83.6277 234 C82.6277 252 89.6277 271 98.6277 288 C115.628 318 145.628 343 177.628 357 C204.628 368 234.628 369 262.628 370 C300.628 370 305.628 422 268.628 429 C238.628 435 207.628 442 181.628 459 C175.628 463 160.628 476 158.628 483 C157.628 488 163.628 497 165.628 501 C182.628 522 208.628 538 234.628 543 C253.628 546 290.628 548 300.628 532 C306.628 524 306.628 512 312.628 505 C329.628 485 360.628 494 365.628 519 C368.628 539 349.628 572 332.628 583 C269.628 628 172.628 601 121.628 541 C110.628 528 101.628 512 99.6277 495 C97.6277 480 100.628 464 107.628 451 C116.628 434 132.628 420 147.628 409 C68.6277 373 1.6277 281 30.6277 198 C42.6277 163 69.6277 131 102.628 114 C148.628 92 207.628 92 255.628 108 C303.628 124 345.628 159 375.628 199 C376.628 178 384.628 100 394.628 81 C415.628 45 468.628 76 448.628 112 L448.628 112 Z " />
<glyph glyph-name="quotesingle" unicode="&#x27;" horiz-adv-x="167" d="M138.153 592 C139.153 603 147.153 671 149.153 683 C155.153 716 110.153 733 93.153 704 C87.153 693 87.153 680 87.153 668 C86.153 656 76.153 602 78.153 591 C84.153 557 133.153 558 138.153 592 L138.153 592 Z " />
<glyph glyph-name="parenleft" unicode="&#x28;" horiz-adv-x="361" d="M269.689 28 C266.689 32 261.689 35 256.689 38 C197.689 77 152.689 142 129.689 209 C101.689 289 95.6888 382 119.689 464 C135.689 518 164.689 572 205.689 611 C233.689 636 268.689 656 304.689 666 C312.689 669 320.689 676 323.689 685 C331.689 706 312.689 728 289.689 724 C287.689 724 274.689 720 272.689 719 C237.689 707 204.689 689 176.689 665 C130.689 626 96.6888 573 74.6888 518 C30.6888 405 35.6888 265 86.6888 155 C114.689 96 153.689 39 206.689 0 C211.689 -3 231.689 -18 236.689 -20 C265.689 -30 289.689 4 269.689 28 L269.689 28 Z " />
<glyph glyph-name="parenright" unicode="&#x29;" horiz-adv-x="362" d="M53.3836 -21 C95.3836 -10 135.384 11 167.384 39 C212.384 77 247.384 130 269.384 185 C313.384 298 308.384 438 257.384 548 C229.384 608 189.384 665 137.384 703 C132.384 706 112.384 721 107.384 723 C78.3836 733 54.3836 699 73.3836 675 C77.3836 671 82.3836 668 87.3836 665 C146.384 626 191.384 562 214.384 495 C242.384 414 248.384 321 224.384 240 C208.384 185 179.384 131 138.384 93 C110.384 67 75.3836 47 39.3836 37 C13.3836 30 11.3836 -7 35.3836 -18 C41.3836 -21 47.3836 -23 53.3836 -21 L53.3836 -21 Z " />
<glyph glyph-name="asterisk" unicode="&#x2a;" horiz-adv-x="311" d="M115.464 464 C129.464 478 143.464 490 156.464 504 C157.464 505 167.464 503 168.464 502 C177.464 490 186.464 478 199.464 471 C207.464 466 217.464 463 226.464 464 C254.464 469 260.464 506 236.464 520 C235.464 520 230.464 523 229.464 523 C226.464 525 221.464 529 224.464 531 C240.464 539 256.464 545 273.464 551 C311.464 566 290.464 622 252.464 608 C234.464 601 217.464 594 200.464 586 C204.464 603 223.464 659 216.464 676 C203.464 713 150.464 700 157.464 661 C156.464 654 144.464 610 142.464 603 C129.464 616 114.464 633 96.4637 633 C65.4637 633 54.4637 592 81.4637 577 C94.4637 570 103.464 557 114.464 547 C111.464 544 95.4637 527 93.4637 525 C89.4637 521 71.4637 506 68.4637 501 C51.4637 471 90.4637 440 115.464 464 L115.464 464 Z " />
<glyph glyph-name="plus" unicode="&#x2b;" horiz-adv-x="378" d="M201.736 174 C201.736 200 202.736 226 202.736 252 C231.736 252 260.736 255 289.736 256 C294.736 256 298.736 256 303.736 258 C336.736 270 325.736 315 290.736 316 C279.736 317 212.736 312 201.736 312 C200.736 339 199.736 365 198.736 392 C211.736 428 164.736 451 144.736 419 C140.736 412 138.736 404 138.736 397 C137.736 386 141.736 323 141.736 312 C129.736 312 59.7356 313 47.7356 313 C10.7356 313 6.73564 261 42.7356 254 C56.7356 251 71.7356 252 86.7356 252 C104.736 253 123.736 252 142.736 252 C142.736 226 141.736 200 141.736 174 C140.736 133 200.736 133 201.736 174 L201.736 174 Z " />
<glyph glyph-name="comma" unicode="&#x2c;" horiz-adv-x="164" d="M35.3696 -49 C53.3696 -28 69.3696 -2 74.3696 25 C78.3696 42 75.3696 62 67.3696 77 C60.3696 90 48.3696 101 36.3696 109 C4.36964 128 -27.6304 84 1.36964 60 C6.36964 56 14.3696 52 15.3696 46 C18.3696 35 5.36964 10 -1.63036 1 C-7.63036 -8 -15.6304 -15 -16.6304 -25 C-22.6304 -55 16.3696 -73 35.3696 -49 L35.3696 -49 Z " />
<glyph glyph-name="hyphen" unicode="&#x2d;" horiz-adv-x="335" d="M70.8911 237 C86.8911 238 187.891 239 203.891 240 C212.891 240 252.891 240 261.891 243 C292.891 255 284.891 302 251.891 302 C250.891 302 244.891 301 243.891 301 C217.891 300 67.8911 299 41.8911 296 C2.89114 292 3.89114 236 42.8911 236 C45.8911 236 67.8911 237 70.8911 237 L70.8911 237 Z " />
<glyph glyph-name="period" unicode="&#x2e;" horiz-adv-x="131" d="M47.8999 86 C37.8999 116 -5.10013 113 -11.1001 82 C-12.1001 71 -8.10013 60 -0.100128 53 C23.8999 33 56.8999 57 47.8999 86 L47.8999 86 Z " />
<glyph glyph-name="slash" unicode="&#x2f;" horiz-adv-x="322" d="M2.04373 -112 C4.04373 -109 10.0437 -96 11.0437 -93 C25.0437 -61 94.0437 128 106.044 162 C144.044 267 177.044 374 217.044 479 C234.044 524 252.044 568 270.044 612 C278.044 630 320.044 729 326.044 747 C328.044 752 329.044 758 329.044 763 C329.044 803 267.044 803 267.044 763 C267.044 757 257.044 736 255.044 730 C214.044 632 172.044 533 136.044 433 C100.044 331 68.0437 227 29.0437 126 C20.0437 101 -33.9563 -47 -44.9563 -71 C-47.9563 -78 -51.9563 -84 -52.9563 -91 C-58.9563 -124 -14.9563 -140 2.04373 -112 L2.04373 -112 Z " />
<glyph glyph-name="zero" unicode="0" horiz-adv-x="395" d="M174.587 100 C197.587 102 221.587 114 239.587 130 C277.587 164 307.587 212 321.587 262 C339.587 330 343.587 405 325.587 473 C320.587 494 314.587 516 305.587 536 C300.587 546 295.587 558 287.587 566 C287.587 585 270.587 599 251.587 596 C235.587 604 219.587 612 201.587 616 C191.587 618 180.587 617 171.587 614 C157.587 609 145.587 598 134.587 588 C102.587 557 78.5865 517 64.5865 475 C43.5865 411 35.5865 342 43.5865 276 C47.5865 245 56.5865 214 70.5865 186 C81.5865 163 96.5865 139 116.587 122 C132.587 109 153.587 99 174.587 100 L174.587 100 Z M167.587 161 C160.587 163 154.587 168 150.587 173 C129.587 195 117.587 224 109.587 253 C93.5865 311 99.5865 375 114.587 434 C126.587 479 151.587 525 187.587 555 C188.587 556 190.587 557 191.587 557 C197.587 556 227.587 541 233.587 538 C235.587 538 237.587 531 239.587 529 C245.587 521 250.587 512 254.587 502 C266.587 470 275.587 435 277.587 401 C278.587 354 274.587 305 258.587 261 C249.587 238 236.587 215 220.587 196 C209.587 183 184.587 157 167.587 161 L167.587 161 Z " />
<glyph glyph-name="one" unicode="1" horiz-adv-x="244" d="M149.498 118 C149.498 176 149.498 234 155.498 292 C162.498 368 170.498 444 190.498 518 C196.498 539 203.498 559 210.498 580 C213.498 590 215.498 601 212.498 611 C205.498 628 185.498 636 168.498 627 C158.498 621 150.498 610 143.498 600 C135.498 588 91.4983 528 81.4983 518 C80.4983 517 75.4983 517 73.4983 516 C37.4983 503 53.4983 450 92.4983 456 C101.498 458 110.498 464 117.498 470 C111.498 437 106.498 404 103.498 370 C98.4983 330 82.4983 153 89.4983 113 C96.4983 77 149.498 82 149.498 118 L149.498 118 Z " />
<glyph glyph-name="two" unicode="2" horiz-adv-x="408" d="M63.0065 80 C109.007 82 156.007 89 203.007 91 C227.007 91 252.007 92 276.007 85 C278.007 85 287.007 82 289.007 82 C319.007 76 337.007 114 314.007 134 C301.007 144 254.007 150 238.007 151 C189.007 152 139.007 146 90.0065 142 C153.007 216 215.007 292 265.007 376 C287.007 414 309.007 453 324.007 494 C331.007 512 336.007 531 334.007 550 C329.007 610 260.007 631 203.007 609 C157.007 591 119.007 552 92.0065 510 C79.0065 491 73.0065 467 73.0065 444 C71.0065 407 126.007 401 132.007 438 C133.007 446 132.007 453 134.007 461 C140.007 477 151.007 490 162.007 504 C179.007 524 199.007 543 224.007 552 C235.007 557 247.007 559 259.007 557 C264.007 556 273.007 553 274.007 549 C279.007 531 255.007 483 247.007 467 C208.007 392 159.007 322 106.007 256 C95.0065 241 24.0065 157 14.0065 142 C1.00652 123 4.00652 98 24.0065 87 C35.0065 80 50.0065 80 63.0065 80 L63.0065 80 Z " />
<glyph glyph-name="three" unicode="3" horiz-adv-x="368" d="M57.1464 80 C59.1464 80 60.1464 82 62.1464 82 C128.146 94 194.146 122 242.146 168 C270.146 195 293.146 229 300.146 267 C305.146 287 305.146 310 299.146 330 C293.146 349 282.146 366 267.146 379 C252.146 392 233.146 400 215.146 406 C250.146 439 284.146 479 295.146 526 C299.146 540 299.146 556 294.146 571 C279.146 624 213.146 633 161.146 615 C134.146 607 109.146 594 87.1464 578 C70.1464 565 55.1464 542 65.1464 524 C77.1464 502 107.146 505 119.146 526 C120.146 529 130.146 535 133.146 537 C153.146 550 178.146 559 202.146 563 C213.146 565 232.146 564 237.146 554 C242.146 544 231.146 522 225.146 512 C206.146 479 178.146 448 145.146 428 C142.146 426 123.146 415 119.146 412 C97.1464 394 108.146 358 136.146 355 C153.146 354 171.146 356 187.146 352 C205.146 347 225.146 340 236.146 325 C246.146 311 245.146 289 240.146 273 C230.146 240 205.146 213 178.146 193 C145.146 169 106.146 151 66.1464 144 C62.1464 143 40.1464 139 36.1464 137 C-1.85361 123 19.1464 66 57.1464 80 L57.1464 80 Z " />
<glyph glyph-name="four" unicode="4" horiz-adv-x="415" d="M315.449 126 C315.449 138 320.449 210 321.449 223 C348.449 232 351.449 268 326.449 280 C328.449 305 332.449 330 334.449 356 C335.449 364 334.449 373 337.449 381 C348.449 413 308.449 437 286.449 411 C279.449 402 277.449 390 276.449 379 C273.449 347 269.449 316 266.449 284 C218.449 285 169.449 283 121.449 278 C158.449 316 191.449 357 223.449 399 C267.449 454 309.449 513 339.449 577 C349.449 597 335.449 621 312.449 621 C297.449 621 283.449 610 280.449 595 C280.449 594 280.449 593 280.449 592 C251.449 538 217.449 488 180.449 440 C141.449 390 100.449 341 55.4489 296 C49.4489 289 17.4489 260 12.4489 251 C0.448853 231 16.4489 205 39.4489 204 C52.4489 204 64.4489 208 76.4489 211 C137.449 222 200.449 225 261.449 224 C259.449 192 257.449 161 255.449 129 C254.449 120 258.449 109 266.449 103 C285.449 87 315.449 100 315.449 126 L315.449 126 Z " />
<glyph glyph-name="five" unicode="5" horiz-adv-x="416" d="M87.8386 74 C91.8386 78 97.8386 81 102.839 84 C165.839 122 229.839 164 275.839 221 C300.839 252 318.839 293 321.839 333 C323.839 354 321.839 375 313.839 394 C304.839 418 282.839 440 257.839 448 C236.839 454 213.839 454 192.839 449 C173.839 443 155.839 434 139.839 423 C145.839 465 152.839 507 168.839 546 C227.839 554 287.839 552 346.839 547 C349.839 546 362.839 545 365.839 545 C402.839 545 406.839 600 369.839 604 C288.839 614 204.839 614 124.839 599 C105.839 596 84.8386 593 72.8386 578 C53.8386 557 72.8386 525 100.839 529 C92.8386 501 85.8386 472 81.8386 443 C74.8386 394 58.8386 324 108.839 324 C118.839 324 128.839 331 136.839 338 C149.839 352 162.839 367 178.839 378 C191.839 386 208.839 392 224.839 393 C235.839 393 248.839 389 254.839 380 C260.839 370 262.839 358 262.839 347 C263.839 303 234.839 260 202.839 230 C171.839 201 137.839 175 101.839 153 C94.8386 149 55.8386 126 48.8386 120 C18.8386 94 56.8386 48 87.8386 74 L87.8386 74 Z " />
<glyph glyph-name="six" unicode="6" horiz-adv-x="385" d="M204.396 67 C260.396 93 302.396 149 312.396 213 C315.396 232 314.396 252 307.396 270 C293.396 312 247.396 347 204.396 354 C176.396 359 147.396 355 121.396 345 C150.396 405 186.396 462 229.396 513 C241.396 527 255.396 541 269.396 553 C296.396 558 307.396 589 286.396 606 C276.396 614 259.396 615 247.396 609 C234.396 603 224.396 593 213.396 584 C173.396 545 140.396 498 110.396 451 C76.3963 395 47.3963 336 30.3963 273 C16.3963 221 14.3963 158 41.3963 111 C57.3963 83 87.3963 59 119.396 52 C147.396 47 178.396 55 204.396 67 L204.396 67 Z M128.396 112 C74.3963 127 76.3963 202 88.3963 257 C98.3963 258 109.396 264 114.396 272 C115.396 274 115.396 276 117.396 277 C133.396 287 152.396 294 170.396 296 C205.396 299 246.396 278 253.396 244 C259.396 211 229.396 155 202.396 135 C190.396 127 177.396 119 163.396 115 C152.396 111 139.396 109 128.396 112 L128.396 112 Z " />
<glyph glyph-name="seven" unicode="7" horiz-adv-x="426" d="M153.698 105 C163.698 163 183.698 220 206.698 275 C217.698 276 229.698 276 241.698 276 C275.698 274 284.698 322 252.698 334 C246.698 336 240.698 336 234.698 336 C258.698 382 286.698 426 317.698 468 C340.698 497 365.698 526 395.698 548 C406.698 556 420.698 561 427.698 573 C438.698 592 426.698 615 405.698 619 C388.698 623 309.698 611 292.698 610 C251.698 607 210.698 607 168.698 609 C147.698 609 126.698 610 106.698 615 C98.6982 617 89.6982 618 81.6982 616 C49.6982 604 58.6982 556 91.6982 556 C93.6982 556 94.6982 556 95.6982 556 C112.698 552 129.698 550 146.698 550 C201.698 547 256.698 547 310.698 551 C250.698 487 203.698 411 166.698 332 C157.698 332 106.698 330 97.6982 328 C61.6982 322 66.6982 268 103.698 268 C107.698 268 134.698 270 139.698 271 C120.698 220 102.698 169 93.6982 116 C87.6982 75 146.698 64 153.698 105 L153.698 105 Z " />
<glyph glyph-name="eight" unicode="8" horiz-adv-x="388" d="M242.311 124 C259.311 143 273.311 170 271.311 195 C268.311 222 253.311 247 236.311 267 C239.311 279 244.311 291 250.311 301 C278.311 353 306.311 405 330.311 458 C342.311 484 353.311 511 356.311 539 C359.311 561 356.311 587 341.311 603 C325.311 621 298.311 629 274.311 630 C193.311 633 97.3111 557 76.3111 479 C63.3111 432 76.3111 375 103.311 334 C76.3111 316 56.3111 287 42.3111 257 C28.3111 229 16.3111 197 18.3111 165 C19.3111 143 27.3111 119 43.3111 103 C98.3111 47 188.311 66 242.311 124 L242.311 124 Z M133.311 414 C130.311 430 129.311 447 133.311 462 C139.311 484 153.311 504 168.311 520 C186.311 539 210.311 553 234.311 562 C249.311 569 266.311 572 282.311 569 C286.311 568 295.311 566 297.311 563 C302.311 550 289.311 516 284.311 504 C267.311 459 246.311 417 223.311 376 C219.311 369 195.311 326 192.311 318 C167.311 346 140.311 377 133.311 414 L133.311 414 Z M84.3111 148 C65.3111 174 93.3111 229 110.311 256 C112.311 259 122.311 271 125.311 274 C126.311 275 129.311 280 131.311 280 C133.311 280 142.311 284 143.311 283 C161.311 262 180.311 242 197.311 220 C204.311 211 212.311 200 211.311 189 C209.311 166 173.311 142 152.311 134 C131.311 125 97.3111 129 84.3111 148 L84.3111 148 Z " />
<glyph glyph-name="nine" unicode="9" horiz-adv-x="385" d="M193.542 78 C205.542 85 232.542 127 239.542 140 C259.542 178 277.542 217 291.542 257 C305.542 302 350.542 510 352.542 557 C354.542 588 317.542 602 296.542 579 C291.542 572 270.542 538 266.542 531 C252.542 574 205.542 624 159.542 621 C136.542 620 113.542 604 99.5421 586 C61.5421 536 38.5421 466 48.5421 404 C53.5421 376 66.5421 348 84.5421 325 C92.5421 314 104.542 304 117.542 299 C129.542 294 143.542 295 155.542 300 C175.542 308 192.542 325 208.542 340 C230.542 363 249.542 388 267.542 415 C261.542 387 255.542 359 249.542 331 C235.542 270 211.542 209 178.542 156 C175.542 151 163.542 132 159.542 129 C130.542 105 160.542 60 193.542 78 L193.542 78 Z M109.542 405 C102.542 434 107.542 466 117.542 493 C123.542 509 145.542 553 159.542 561 C165.542 564 174.542 558 179.542 554 C189.542 546 199.542 536 205.542 524 C210.542 514 211.542 502 216.542 492 C220.542 485 228.542 480 236.542 478 C215.542 444 193.542 412 166.542 383 C157.542 374 147.542 364 135.542 357 C123.542 371 114.542 387 109.542 405 L109.542 405 Z " />
<glyph glyph-name="colon" unicode="&#x3a;" horiz-adv-x="170" d="M73.7094 303 C91.7094 309 98.7094 330 88.7094 347 C74.7094 371 38.7094 365 33.7094 337 C29.7094 314 51.7094 295 73.7094 303 L73.7094 303 Z M72.7094 147 C90.7094 153 97.7094 175 87.7094 191 C73.7094 215 36.7094 209 31.7094 181 C27.7094 158 50.7094 139 72.7094 147 L72.7094 147 Z " />
<glyph glyph-name="semicolon" unicode="&#x3b;" horiz-adv-x="194" d="M52.1146 178 C70.1146 185 77.1146 206 67.1146 222 C53.1146 246 17.1146 240 12.1146 212 C8.11459 189 30.1146 170 52.1146 178 L52.1146 178 Z M61.1146 -49 C79.1146 -28 95.1146 -2 100.115 25 C104.115 42 101.115 62 93.1146 77 C86.1146 90 74.1146 101 62.1146 109 C30.1146 128 -1.88541 84 27.1146 60 C32.1146 56 40.1146 52 41.1146 46 C44.1146 35 31.1146 10 24.1146 1 C18.1146 -8 10.1146 -15 9.11459 -25 C3.11459 -55 42.1146 -73 61.1146 -49 L61.1146 -49 Z " />
<glyph glyph-name="less" unicode="&#x3c;" horiz-adv-x="403" d="M321.155 134 C319.155 146 308.155 156 298.155 163 C244.155 205 182.155 239 117.155 260 C168.155 284 219.155 309 268.155 337 C282.155 345 294.155 356 306.155 368 C330.155 392 298.155 431 269.155 414 C265.155 412 250.155 397 247.155 394 C239.155 388 192.155 364 183.155 359 C136.155 335 87.1551 314 40.1551 290 C20.1551 280 8.15506 258 19.1551 239 C25.1551 230 35.1551 224 45.1551 220 C53.1551 218 98.1551 204 105.155 201 C131.155 192 156.155 181 180.155 169 C196.155 160 257.155 123 269.155 109 C289.155 86 327.155 104 321.155 134 L321.155 134 Z " />
<glyph glyph-name="equal" unicode="&#x3d;" horiz-adv-x="358" d="M110.452 300 C134.452 301 238.452 306 261.452 314 C290.452 325 286.452 367 256.452 372 C250.452 373 244.452 372 238.452 371 C201.452 365 164.452 362 127.452 361 C114.452 360 59.4519 360 48.4519 355 C19.4519 345 23.4519 303 53.4519 298 C61.4519 296 101.452 300 110.452 300 L110.452 300 Z M79.4519 180 C81.4519 180 93.4519 180 95.4519 180 C152.452 181 208.452 186 265.452 192 C302.452 195 297.452 254 260.452 251 C209.452 247 158.452 242 107.452 240 C87.4519 240 65.4519 243 47.4519 233 C19.4519 216 34.4519 174 66.4519 177 C71.4519 178 75.4519 180 79.4519 180 L79.4519 180 Z " />
<glyph glyph-name="greater" unicode="&#x3e;" horiz-adv-x="401" d="M52.2213 95 C61.2213 97 68.2213 104 72.2213 113 C72.2213 115 72.2213 116 73.2213 118 C91.2213 133 111.221 145 131.221 156 C190.221 190 257.221 204 320.221 229 C325.221 232 330.221 234 334.221 238 C346.221 249 348.221 267 338.221 280 C327.221 293 311.221 300 297.221 310 C235.221 350 172.221 390 115.221 438 C106.221 446 97.2213 457 85.2213 462 C48.2213 475 29.2213 422 64.2213 402 C65.2213 401 67.2213 401 68.2213 400 C124.221 350 188.221 309 250.221 268 C218.221 257 185.221 247 154.221 234 C120.221 220 31.2213 173 16.2213 139 C5.22131 115 26.2213 88 52.2213 95 L52.2213 95 Z " />
<glyph glyph-name="question" unicode="&#x3f;" horiz-adv-x="542" d="M266.34 137 C261.34 169 270.34 203 277.34 235 C283.34 264 291.34 292 304.34 319 C320.34 352 342.34 382 367.34 409 C399.34 443 436.34 472 470.34 505 C493.34 526 516.34 550 528.34 579 C537.34 599 537.34 623 530.34 643 C522.34 665 505.34 684 485.34 696 C456.34 714 421.34 723 387.34 727 C304.34 736 213.34 717 146.34 668 C116.34 647 92.3403 619 74.3403 588 C59.3403 563 49.3403 533 51.3403 505 C53.3403 488 55.3403 469 66.3403 456 C90.3403 428 132.34 458 115.34 490 C111.34 497 110.34 518 112.34 525 C115.34 541 123.34 555 132.34 568 C150.34 596 176.34 619 205.34 635 C256.34 661 310.34 673 367.34 668 C396.34 666 428.34 662 453.34 646 C465.34 639 476.34 625 475.34 611 C472.34 582 408.34 529 386.34 509 C356.34 483 327.34 456 302.34 425 C269.34 384 242.34 335 228.34 284 C218.34 248 191.34 149 210.34 116 C227.34 87 270.34 103 266.34 137 L266.34 137 Z M255.34 3 C272.34 23 257.34 53 231.34 53 C208.34 53 194.34 28 205.34 8 C216.34 -11 242.34 -13 255.34 3 L255.34 3 Z " />
<glyph glyph-name="at" unicode="&#x40;" horiz-adv-x="568" d="M280.471 83 C340.471 90 397.471 115 451.471 142 C459.471 147 467.471 151 475.471 157 C505.471 180 475.471 226 442.471 207 C392.471 178 338.471 151 281.471 144 C243.471 139 203.471 142 169.471 157 C71.4713 203 71.4713 335 137.471 420 C171.471 463 222.471 496 275.471 507 C318.471 516 368.471 510 407.471 489 C421.471 482 435.471 471 444.471 458 C454.471 444 459.471 428 458.471 411 C456.471 390 446.471 370 435.471 353 C421.471 332 399.471 316 377.471 304 C372.471 301 366.471 298 360.471 297 C358.471 314 362.471 332 367.471 349 C369.471 356 382.471 390 382.471 398 C382.471 422 359.471 438 338.471 428 C334.471 443 327.471 459 316.471 470 C283.471 498 237.471 473 209.471 441 C181.471 410 159.471 371 148.471 331 C143.471 311 139.471 290 140.471 270 C141.471 257 143.471 243 150.471 232 C159.471 217 176.471 209 193.471 212 C208.471 215 221.471 225 233.471 235 C257.471 255 279.471 278 300.471 300 C301.471 284 304.471 266 315.471 254 C328.471 240 350.471 234 369.471 237 C390.471 241 410.471 252 428.471 264 C460.471 285 487.471 316 503.471 351 C515.471 378 520.471 409 516.471 438 C512.471 461 502.471 483 487.471 501 C472.471 520 450.471 535 427.471 546 C381.471 568 326.471 577 276.471 568 C211.471 558 148.471 523 104.471 474 C65.4713 430 38.4713 372 32.4713 313 C27.4713 267 37.4713 217 61.4713 178 C85.4713 137 129.471 104 175.471 91 C209.471 82 245.471 80 280.471 83 L280.471 83 Z M278.471 420 C282.471 407 285.471 392 284.471 378 C284.471 377 284.471 371 283.471 370 C257.471 341 230.471 312 201.471 286 C204.471 328 240.471 403 278.471 420 L278.471 420 Z " />
<glyph glyph-name="A" unicode="A" horiz-adv-x="725" d="M49.1595 -212 C73.1595 -201 97.1595 -190 121.159 -178 C140.159 -168 160.159 -156 174.159 -139 C200.159 -106 193.159 -59 160.159 -33 C143.159 -20 123.159 -9 104.159 0 C121.159 66 141.159 132 163.159 196 C253.159 233 354.159 244 451.159 236 C485.159 234 519.159 228 552.159 219 C544.159 102 536.159 -15 531.159 -131 C531.159 -137 529.159 -164 530.159 -170 C537.159 -206 589.159 -201 590.159 -164 C591.159 -118 607.159 151 610.159 196 C620.159 192 628.159 185 637.159 180 C664.159 164 694.159 194 678.159 221 C671.159 234 628.159 254 614.159 260 C622.159 375 637.159 490 636.159 605 C636.159 642 635.159 680 623.159 716 C614.159 742 597.159 768 573.159 783 C559.159 791 542.159 796 526.159 797 C498.159 798 469.159 786 446.159 771 C406.159 746 371.159 712 341.159 676 C285.159 608 242.159 530 204.159 451 C171.159 382 141.159 312 115.159 240 C77.1595 221 39.1595 197 8.15948 167 C-11.8405 147 -29.8405 125 -39.8405 98 C-45.8405 80 -46.8405 58 -40.8405 39 C-35.8405 22 -23.8405 7 -10.8405 -5 C2.15948 -17 18.1595 -25 34.1595 -33 C29.1595 -53 1.15948 -162 -1.84052 -182 C-4.84052 -201 8.15948 -218 27.1595 -218 C35.1595 -218 43.1595 -215 49.1595 -212 L49.1595 -212 Z M346.159 582 C374.159 625 408.159 667 448.159 699 C473.159 719 517.159 749 544.159 730 C555.159 722 564.159 708 567.159 694 C578.159 648 577.159 600 576.159 554 C573.159 462 562.159 371 556.159 280 C438.159 310 307.159 305 191.159 270 C233.159 378 282.159 485 346.159 582 L346.159 582 Z M20.1595 49 C16.1595 55 14.1595 62 15.1595 68 C16.1595 80 22.1595 91 29.1595 100 C44.1595 121 65.1595 138 86.1595 153 C72.1595 111 60.1595 69 49.1595 27 C38.1595 33 27.1595 39 20.1595 49 L20.1595 49 Z M89.1595 -59 C97.1595 -64 124.159 -78 129.159 -88 C129.159 -90 130.159 -92 130.159 -94 C131.159 -99 122.159 -107 117.159 -110 C103.159 -121 86.1595 -129 69.1595 -137 C76.1595 -111 82.1595 -85 89.1595 -59 L89.1595 -59 Z " />
<glyph glyph-name="&amp;#xc0;" unicode="&#xc0;" horiz-adv-x="725" d="M49.1595 -212 C73.1595 -201 97.1595 -190 121.159 -178 C140.159 -168 160.159 -156 174.159 -139 C200.159 -106 193.159 -59 160.159 -33 C143.159 -20 123.159 -9 104.159 0 C121.159 66 141.159 132 163.159 196 C253.159 233 354.159 244 451.159 236 C485.159 234 519.159 228 552.159 219 C544.159 102 536.159 -15 531.159 -131 C531.159 -137 529.159 -164 530.159 -170 C537.159 -206 589.159 -201 590.159 -164 C591.159 -118 607.159 151 610.159 196 C620.159 192 628.159 185 637.159 180 C664.159 164 694.159 194 678.159 221 C671.159 234 628.159 254 614.159 260 C622.159 375 637.159 490 636.159 605 C636.159 642 635.159 680 623.159 716 C614.159 742 597.159 768 573.159 783 C559.159 791 542.159 796 526.159 797 C498.159 798 469.159 786 446.159 771 C406.159 746 371.159 712 341.159 676 C285.159 608 242.159 530 204.159 451 C171.159 382 141.159 312 115.159 240 C77.1595 221 39.1595 197 8.15948 167 C-11.8405 147 -29.8405 125 -39.8405 98 C-45.8405 80 -46.8405 58 -40.8405 39 C-35.8405 22 -23.8405 7 -10.8405 -5 C2.15948 -17 18.1595 -25 34.1595 -33 C29.1595 -53 1.15948 -162 -1.84052 -182 C-4.84052 -201 8.15948 -218 27.1595 -218 C35.1595 -218 43.1595 -215 49.1595 -212 L49.1595 -212 Z M346.159 582 C374.159 625 408.159 667 448.159 699 C473.159 719 517.159 749 544.159 730 C555.159 722 564.159 708 567.159 694 C578.159 648 577.159 600 576.159 554 C573.159 462 562.159 371 556.159 280 C438.159 310 307.159 305 191.159 270 C233.159 378 282.159 485 346.159 582 L346.159 582 Z M20.1595 49 C16.1595 55 14.1595 62 15.1595 68 C16.1595 80 22.1595 91 29.1595 100 C44.1595 121 65.1595 138 86.1595 153 C72.1595 111 60.1595 69 49.1595 27 C38.1595 33 27.1595 39 20.1595 49 L20.1595 49 Z M89.1595 -59 C97.1595 -64 124.159 -78 129.159 -88 C129.159 -90 130.159 -92 130.159 -94 C131.159 -99 122.159 -107 117.159 -110 C103.159 -121 86.1595 -129 69.1595 -137 C76.1595 -111 82.1595 -85 89.1595 -59 L89.1595 -59 Z " />
<glyph glyph-name="&amp;#xc1;" unicode="&#xc1;" horiz-adv-x="725" d="M49.1595 -212 C73.1595 -201 97.1595 -190 121.159 -178 C140.159 -168 160.159 -156 174.159 -139 C200.159 -106 193.159 -59 160.159 -33 C143.159 -20 123.159 -9 104.159 0 C121.159 66 141.159 132 163.159 196 C253.159 233 354.159 244 451.159 236 C485.159 234 519.159 228 552.159 219 C544.159 102 536.159 -15 531.159 -131 C531.159 -137 529.159 -164 530.159 -170 C537.159 -206 589.159 -201 590.159 -164 C591.159 -118 607.159 151 610.159 196 C620.159 192 628.159 185 637.159 180 C664.159 164 694.159 194 678.159 221 C671.159 234 628.159 254 614.159 260 C622.159 375 637.159 490 636.159 605 C636.159 642 635.159 680 623.159 716 C614.159 742 597.159 768 573.159 783 C559.159 791 542.159 796 526.159 797 C498.159 798 469.159 786 446.159 771 C406.159 746 371.159 712 341.159 676 C285.159 608 242.159 530 204.159 451 C171.159 382 141.159 312 115.159 240 C77.1595 221 39.1595 197 8.15948 167 C-11.8405 147 -29.8405 125 -39.8405 98 C-45.8405 80 -46.8405 58 -40.8405 39 C-35.8405 22 -23.8405 7 -10.8405 -5 C2.15948 -17 18.1595 -25 34.1595 -33 C29.1595 -53 1.15948 -162 -1.84052 -182 C-4.84052 -201 8.15948 -218 27.1595 -218 C35.1595 -218 43.1595 -215 49.1595 -212 L49.1595 -212 Z M346.159 582 C374.159 625 408.159 667 448.159 699 C473.159 719 517.159 749 544.159 730 C555.159 722 564.159 708 567.159 694 C578.159 648 577.159 600 576.159 554 C573.159 462 562.159 371 556.159 280 C438.159 310 307.159 305 191.159 270 C233.159 378 282.159 485 346.159 582 L346.159 582 Z M20.1595 49 C16.1595 55 14.1595 62 15.1595 68 C16.1595 80 22.1595 91 29.1595 100 C44.1595 121 65.1595 138 86.1595 153 C72.1595 111 60.1595 69 49.1595 27 C38.1595 33 27.1595 39 20.1595 49 L20.1595 49 Z M89.1595 -59 C97.1595 -64 124.159 -78 129.159 -88 C129.159 -90 130.159 -92 130.159 -94 C131.159 -99 122.159 -107 117.159 -110 C103.159 -121 86.1595 -129 69.1595 -137 C76.1595 -111 82.1595 -85 89.1595 -59 L89.1595 -59 Z " />
<glyph glyph-name="&amp;#xc2;" unicode="&#xc2;" horiz-adv-x="725" d="M49.1595 -212 C73.1595 -201 97.1595 -190 121.159 -178 C140.159 -168 160.159 -156 174.159 -139 C200.159 -106 193.159 -59 160.159 -33 C143.159 -20 123.159 -9 104.159 0 C121.159 66 141.159 132 163.159 196 C253.159 233 354.159 244 451.159 236 C485.159 234 519.159 228 552.159 219 C544.159 102 536.159 -15 531.159 -131 C531.159 -137 529.159 -164 530.159 -170 C537.159 -206 589.159 -201 590.159 -164 C591.159 -118 607.159 151 610.159 196 C620.159 192 628.159 185 637.159 180 C664.159 164 694.159 194 678.159 221 C671.159 234 628.159 254 614.159 260 C622.159 375 637.159 490 636.159 605 C636.159 642 635.159 680 623.159 716 C614.159 742 597.159 768 573.159 783 C559.159 791 542.159 796 526.159 797 C498.159 798 469.159 786 446.159 771 C406.159 746 371.159 712 341.159 676 C285.159 608 242.159 530 204.159 451 C171.159 382 141.159 312 115.159 240 C77.1595 221 39.1595 197 8.15948 167 C-11.8405 147 -29.8405 125 -39.8405 98 C-45.8405 80 -46.8405 58 -40.8405 39 C-35.8405 22 -23.8405 7 -10.8405 -5 C2.15948 -17 18.1595 -25 34.1595 -33 C29.1595 -53 1.15948 -162 -1.84052 -182 C-4.84052 -201 8.15948 -218 27.1595 -218 C35.1595 -218 43.1595 -215 49.1595 -212 L49.1595 -212 Z M346.159 582 C374.159 625 408.159 667 448.159 699 C473.159 719 517.159 749 544.159 730 C555.159 722 564.159 708 567.159 694 C578.159 648 577.159 600 576.159 554 C573.159 462 562.159 371 556.159 280 C438.159 310 307.159 305 191.159 270 C233.159 378 282.159 485 346.159 582 L346.159 582 Z M20.1595 49 C16.1595 55 14.1595 62 15.1595 68 C16.1595 80 22.1595 91 29.1595 100 C44.1595 121 65.1595 138 86.1595 153 C72.1595 111 60.1595 69 49.1595 27 C38.1595 33 27.1595 39 20.1595 49 L20.1595 49 Z M89.1595 -59 C97.1595 -64 124.159 -78 129.159 -88 C129.159 -90 130.159 -92 130.159 -94 C131.159 -99 122.159 -107 117.159 -110 C103.159 -121 86.1595 -129 69.1595 -137 C76.1595 -111 82.1595 -85 89.1595 -59 L89.1595 -59 Z " />
<glyph glyph-name="&amp;#xc3;" unicode="&#xc3;" horiz-adv-x="725" d="M49.1595 -212 C73.1595 -201 97.1595 -190 121.159 -178 C140.159 -168 160.159 -156 174.159 -139 C200.159 -106 193.159 -59 160.159 -33 C143.159 -20 123.159 -9 104.159 0 C121.159 66 141.159 132 163.159 196 C253.159 233 354.159 244 451.159 236 C485.159 234 519.159 228 552.159 219 C544.159 102 536.159 -15 531.159 -131 C531.159 -137 529.159 -164 530.159 -170 C537.159 -206 589.159 -201 590.159 -164 C591.159 -118 607.159 151 610.159 196 C620.159 192 628.159 185 637.159 180 C664.159 164 694.159 194 678.159 221 C671.159 234 628.159 254 614.159 260 C622.159 375 637.159 490 636.159 605 C636.159 642 635.159 680 623.159 716 C614.159 742 597.159 768 573.159 783 C559.159 791 542.159 796 526.159 797 C498.159 798 469.159 786 446.159 771 C406.159 746 371.159 712 341.159 676 C285.159 608 242.159 530 204.159 451 C171.159 382 141.159 312 115.159 240 C77.1595 221 39.1595 197 8.15948 167 C-11.8405 147 -29.8405 125 -39.8405 98 C-45.8405 80 -46.8405 58 -40.8405 39 C-35.8405 22 -23.8405 7 -10.8405 -5 C2.15948 -17 18.1595 -25 34.1595 -33 C29.1595 -53 1.15948 -162 -1.84052 -182 C-4.84052 -201 8.15948 -218 27.1595 -218 C35.1595 -218 43.1595 -215 49.1595 -212 L49.1595 -212 Z M346.159 582 C374.159 625 408.159 667 448.159 699 C473.159 719 517.159 749 544.159 730 C555.159 722 564.159 708 567.159 694 C578.159 648 577.159 600 576.159 554 C573.159 462 562.159 371 556.159 280 C438.159 310 307.159 305 191.159 270 C233.159 378 282.159 485 346.159 582 L346.159 582 Z M20.1595 49 C16.1595 55 14.1595 62 15.1595 68 C16.1595 80 22.1595 91 29.1595 100 C44.1595 121 65.1595 138 86.1595 153 C72.1595 111 60.1595 69 49.1595 27 C38.1595 33 27.1595 39 20.1595 49 L20.1595 49 Z M89.1595 -59 C97.1595 -64 124.159 -78 129.159 -88 C129.159 -90 130.159 -92 130.159 -94 C131.159 -99 122.159 -107 117.159 -110 C103.159 -121 86.1595 -129 69.1595 -137 C76.1595 -111 82.1595 -85 89.1595 -59 L89.1595 -59 Z " />
<glyph glyph-name="&amp;#xc4;" unicode="&#xc4;" horiz-adv-x="725" d="M49.1595 -212 C73.1595 -201 97.1595 -190 121.159 -178 C140.159 -168 160.159 -156 174.159 -139 C200.159 -106 193.159 -59 160.159 -33 C143.159 -20 123.159 -9 104.159 0 C121.159 66 141.159 132 163.159 196 C253.159 233 354.159 244 451.159 236 C485.159 234 519.159 228 552.159 219 C544.159 102 536.159 -15 531.159 -131 C531.159 -137 529.159 -164 530.159 -170 C537.159 -206 589.159 -201 590.159 -164 C591.159 -118 607.159 151 610.159 196 C620.159 192 628.159 185 637.159 180 C664.159 164 694.159 194 678.159 221 C671.159 234 628.159 254 614.159 260 C622.159 375 637.159 490 636.159 605 C636.159 642 635.159 680 623.159 716 C614.159 742 597.159 768 573.159 783 C559.159 791 542.159 796 526.159 797 C498.159 798 469.159 786 446.159 771 C406.159 746 371.159 712 341.159 676 C285.159 608 242.159 530 204.159 451 C171.159 382 141.159 312 115.159 240 C77.1595 221 39.1595 197 8.15948 167 C-11.8405 147 -29.8405 125 -39.8405 98 C-45.8405 80 -46.8405 58 -40.8405 39 C-35.8405 22 -23.8405 7 -10.8405 -5 C2.15948 -17 18.1595 -25 34.1595 -33 C29.1595 -53 1.15948 -162 -1.84052 -182 C-4.84052 -201 8.15948 -218 27.1595 -218 C35.1595 -218 43.1595 -215 49.1595 -212 L49.1595 -212 Z M346.159 582 C374.159 625 408.159 667 448.159 699 C473.159 719 517.159 749 544.159 730 C555.159 722 564.159 708 567.159 694 C578.159 648 577.159 600 576.159 554 C573.159 462 562.159 371 556.159 280 C438.159 310 307.159 305 191.159 270 C233.159 378 282.159 485 346.159 582 L346.159 582 Z M20.1595 49 C16.1595 55 14.1595 62 15.1595 68 C16.1595 80 22.1595 91 29.1595 100 C44.1595 121 65.1595 138 86.1595 153 C72.1595 111 60.1595 69 49.1595 27 C38.1595 33 27.1595 39 20.1595 49 L20.1595 49 Z M89.1595 -59 C97.1595 -64 124.159 -78 129.159 -88 C129.159 -90 130.159 -92 130.159 -94 C131.159 -99 122.159 -107 117.159 -110 C103.159 -121 86.1595 -129 69.1595 -137 C76.1595 -111 82.1595 -85 89.1595 -59 L89.1595 -59 Z " />
<glyph glyph-name="&amp;#xc5;" unicode="&#xc5;" horiz-adv-x="725" d="M49.1595 -212 C73.1595 -201 97.1595 -190 121.159 -178 C140.159 -168 160.159 -156 174.159 -139 C200.159 -106 193.159 -59 160.159 -33 C143.159 -20 123.159 -9 104.159 0 C121.159 66 141.159 132 163.159 196 C253.159 233 354.159 244 451.159 236 C485.159 234 519.159 228 552.159 219 C544.159 102 536.159 -15 531.159 -131 C531.159 -137 529.159 -164 530.159 -170 C537.159 -206 589.159 -201 590.159 -164 C591.159 -118 607.159 151 610.159 196 C620.159 192 628.159 185 637.159 180 C664.159 164 694.159 194 678.159 221 C671.159 234 628.159 254 614.159 260 C622.159 375 637.159 490 636.159 605 C636.159 642 635.159 680 623.159 716 C614.159 742 597.159 768 573.159 783 C559.159 791 542.159 796 526.159 797 C498.159 798 469.159 786 446.159 771 C406.159 746 371.159 712 341.159 676 C285.159 608 242.159 530 204.159 451 C171.159 382 141.159 312 115.159 240 C77.1595 221 39.1595 197 8.15948 167 C-11.8405 147 -29.8405 125 -39.8405 98 C-45.8405 80 -46.8405 58 -40.8405 39 C-35.8405 22 -23.8405 7 -10.8405 -5 C2.15948 -17 18.1595 -25 34.1595 -33 C29.1595 -53 1.15948 -162 -1.84052 -182 C-4.84052 -201 8.15948 -218 27.1595 -218 C35.1595 -218 43.1595 -215 49.1595 -212 L49.1595 -212 Z M346.159 582 C374.159 625 408.159 667 448.159 699 C473.159 719 517.159 749 544.159 730 C555.159 722 564.159 708 567.159 694 C578.159 648 577.159 600 576.159 554 C573.159 462 562.159 371 556.159 280 C438.159 310 307.159 305 191.159 270 C233.159 378 282.159 485 346.159 582 L346.159 582 Z M20.1595 49 C16.1595 55 14.1595 62 15.1595 68 C16.1595 80 22.1595 91 29.1595 100 C44.1595 121 65.1595 138 86.1595 153 C72.1595 111 60.1595 69 49.1595 27 C38.1595 33 27.1595 39 20.1595 49 L20.1595 49 Z M89.1595 -59 C97.1595 -64 124.159 -78 129.159 -88 C129.159 -90 130.159 -92 130.159 -94 C131.159 -99 122.159 -107 117.159 -110 C103.159 -121 86.1595 -129 69.1595 -137 C76.1595 -111 82.1595 -85 89.1595 -59 L89.1595 -59 Z " />
<glyph glyph-name="B" unicode="B" horiz-adv-x="826" d="M249.261 -202 C342.261 -194 434.261 -161 519.261 -121 C590.261 -88 659.261 -46 713.261 11 C737.261 37 759.261 69 767.261 104 C772.261 126 770.261 150 763.261 171 C754.261 197 737.261 221 717.261 240 C684.261 271 643.261 292 601.261 308 C539.261 332 473.261 345 407.261 352 C483.261 375 560.261 397 631.261 433 C683.261 459 734.261 500 757.261 553 C772.261 586 768.261 628 752.261 660 C737.261 692 710.261 718 680.261 737 C622.261 772 553.261 787 486.261 792 C413.261 797 337.261 793 268.261 770 C204.261 749 140.261 716 94.2607 667 C63.2607 633 43.2607 588 34.2607 543 C27.2607 503 32.2607 458 52.2607 422 C60.2607 408 69.2607 394 77.2607 379 C97.2607 344 148.261 372 129.261 409 C125.261 416 102.261 454 100.261 462 C88.2607 495 90.2607 534 103.261 566 C109.261 582 116.261 598 126.261 612 C143.261 635 166.261 654 191.261 669 C230.261 692 272.261 712 316.261 721 C428.261 746 631.261 739 693.261 643 C704.261 627 710.261 605 705.261 586 C699.261 561 680.261 541 661.261 524 C632.261 500 597.261 482 562.261 467 C515.261 448 467.261 433 419.261 418 C367.261 402 314.261 387 261.261 374 C269.261 427 277.261 481 284.261 534 C285.261 543 291.261 579 290.261 587 C284.261 620 235.261 620 230.261 586 C220.261 510 210.261 435 198.261 359 C194.261 358 172.261 354 168.261 354 C138.261 348 134.261 306 163.261 296 C171.261 293 180.261 294 188.261 296 C176.261 218 167.261 140 156.261 62 C114.261 51 72.2607 36 37.2607 11 C15.2607 -5 -5.73926 -24 -19.7393 -48 C-29.7393 -66 -35.7393 -88 -32.7393 -108 C-30.7393 -132 -12.7393 -154 7.26074 -168 C35.2607 -187 69.2607 -197 103.261 -202 C151.261 -208 200.261 -206 249.261 -202 L249.261 -202 Z M59.2607 -128 C50.2607 -124 29.2607 -112 26.2607 -102 C23.2607 -91 37.2607 -71 44.2607 -62 C70.2607 -33 109.261 -15 146.261 -3 C142.261 -29 136.261 -56 129.261 -82 C121.261 -115 168.261 -133 185.261 -103 C194.261 -86 207.261 -7 210.261 13 C269.261 24 329.261 27 390.261 29 C394.261 29 398.261 29 401.261 31 C433.261 42 424.261 90 390.261 89 C333.261 87 275.261 84 218.261 75 C228.261 150 238.261 224 249.261 299 C341.261 300 435.261 293 523.261 270 C579.261 256 636.261 234 677.261 195 C697.261 176 713.261 147 709.261 120 C704.261 90 682.261 64 660.261 42 C622.261 6 577.261 -23 531.261 -48 C471.261 -80 408.261 -105 342.261 -123 C289.261 -138 234.261 -145 179.261 -146 C139.261 -146 97.2607 -143 59.2607 -128 L59.2607 -128 Z " />
<glyph glyph-name="C" unicode="C" horiz-adv-x="781" d="M442.767 -156 C536.767 -115 621.767 -44 682.767 38 C692.767 51 734.767 111 739.767 127 C752.767 162 703.767 183 685.767 151 C640.767 72 578.767 0 504.767 -53 C463.767 -82 416.767 -105 367.767 -119 C224.767 -159 85.7668 -51 62.7668 97 C53.7668 154 57.7668 214 69.7668 271 C95.7668 397 157.767 515 247.767 609 C283.767 647 326.767 682 373.767 705 C400.767 719 430.767 728 459.767 731 C480.767 734 505.767 726 519.767 710 C537.767 691 546.767 663 548.767 637 C549.767 615 547.767 593 539.767 573 C518.767 518 479.767 472 441.767 428 C415.767 396 461.767 357 487.767 389 C531.767 440 576.767 494 597.767 558 C612.767 601 612.767 650 597.767 693 C586.767 726 563.767 757 534.767 774 C508.767 789 476.767 794 447.767 790 C396.767 784 346.767 762 303.767 734 C232.767 687 172.767 622 124.767 552 C72.7668 475 33.7668 387 13.7668 297 C-3.23325 224 -8.23325 145 6.76675 72 C13.7668 41 23.7668 11 38.7668 -17 C66.7668 -71 111.767 -118 163.767 -148 C196.767 -167 232.767 -179 269.767 -184 C327.767 -192 388.767 -179 442.767 -156 L442.767 -156 Z " />
<glyph glyph-name="&amp;#xc7;" unicode="&#xc7;" horiz-adv-x="781" d="M442.767 -156 C536.767 -115 621.767 -44 682.767 38 C692.767 51 734.767 111 739.767 127 C752.767 162 703.767 183 685.767 151 C640.767 72 578.767 0 504.767 -53 C463.767 -82 416.767 -105 367.767 -119 C224.767 -159 85.7668 -51 62.7668 97 C53.7668 154 57.7668 214 69.7668 271 C95.7668 397 157.767 515 247.767 609 C283.767 647 326.767 682 373.767 705 C400.767 719 430.767 728 459.767 731 C480.767 734 505.767 726 519.767 710 C537.767 691 546.767 663 548.767 637 C549.767 615 547.767 593 539.767 573 C518.767 518 479.767 472 441.767 428 C415.767 396 461.767 357 487.767 389 C531.767 440 576.767 494 597.767 558 C612.767 601 612.767 650 597.767 693 C586.767 726 563.767 757 534.767 774 C508.767 789 476.767 794 447.767 790 C396.767 784 346.767 762 303.767 734 C232.767 687 172.767 622 124.767 552 C72.7668 475 33.7668 387 13.7668 297 C-3.23325 224 -8.23325 145 6.76675 72 C13.7668 41 23.7668 11 38.7668 -17 C66.7668 -71 111.767 -118 163.767 -148 C196.767 -167 232.767 -179 269.767 -184 C327.767 -192 388.767 -179 442.767 -156 L442.767 -156 Z " />
<glyph glyph-name="D" unicode="D" horiz-adv-x="841" d="M384.486 -146 C481.486 -102 571.486 -37 644.486 41 C716.486 117 770.486 216 795.486 318 C810.486 382 817.486 449 807.486 514 C793.486 598 748.486 682 683.486 737 C655.486 761 623.486 780 589.486 793 C550.486 807 508.486 813 467.486 813 C361.486 813 249.486 774 169.486 705 C129.486 672 95.4858 629 75.4858 581 C62.4858 549 54.4858 513 54.4858 477 C53.4858 444 60.4858 411 70.4858 380 C71.4858 375 79.4858 353 82.4858 349 C100.486 317 150.486 341 136.486 375 C119.486 415 110.486 462 116.486 505 C123.486 551 146.486 596 177.486 630 C231.486 689 309.486 730 388.486 745 C440.486 755 497.486 758 548.486 743 C593.486 730 635.486 704 667.486 670 C716.486 618 748.486 543 751.486 472 C755.486 358 716.486 238 651.486 144 C614.486 92 568.486 46 518.486 6 C453.486 -46 378.486 -89 299.486 -116 C247.486 -133 192.486 -144 138.486 -140 C104.486 -137 70.4858 -127 40.4858 -110 C27.4858 -103 14.4858 -93 8.48582 -79 C4.48582 -71 3.48582 -62 4.48582 -54 C7.48582 -38 14.4858 -24 24.4858 -11 C53.4858 28 97.4858 56 141.486 75 C134.486 23 126.486 -30 112.486 -82 C104.486 -115 151.486 -133 168.486 -103 C174.486 -91 185.486 -36 187.486 -23 C194.486 17 199.486 58 204.486 98 C279.486 117 365.486 116 436.486 86 C464.486 74 489.486 109 470.486 133 C460.486 145 414.486 157 399.486 161 C339.486 176 273.486 174 212.486 161 C229.486 286 251.486 410 268.486 534 C269.486 543 274.486 579 273.486 587 C267.486 620 218.486 620 214.486 586 C194.486 438 169.486 291 150.486 144 C103.486 127 58.4858 103 20.4858 71 C-3.51418 51 -24.5142 28 -39.5142 0 C-48.5142 -18 -55.5142 -40 -55.5142 -61 C-55.5142 -79 -50.5142 -97 -41.5142 -113 C-27.5142 -136 -4.51418 -155 19.4858 -167 C55.4858 -186 96.4858 -197 137.486 -200 C221.486 -206 308.486 -182 384.486 -146 L384.486 -146 Z " />
<glyph glyph-name="E" unicode="E" horiz-adv-x="708" d="M462.802 -191 C518.802 -162 565.802 -113 599.802 -60 C637.802 0 661.802 71 662.802 141 C663.802 172 622.802 183 606.802 156 C603.802 151 602.802 145 602.802 139 C601.802 97 589.802 54 572.802 16 C548.802 -37 510.802 -86 463.802 -120 C427.802 -146 383.802 -163 339.802 -167 C283.802 -172 224.802 -155 174.802 -130 C139.802 -112 107.802 -85 85.8022 -52 C69.8022 -28 57.8022 0 50.8022 28 C32.8022 110 48.8022 200 96.8022 269 C115.802 299 142.802 324 173.802 341 C191.802 351 255.802 370 276.802 368 C293.802 366 310.802 357 326.802 360 C352.802 364 360.802 397 340.802 414 C326.802 425 306.802 427 288.802 428 C259.802 430 231.802 440 203.802 451 C187.802 458 172.802 468 160.802 482 C134.802 515 171.802 564 200.802 595 C240.802 636 288.802 671 338.802 699 C380.802 723 425.802 744 473.802 752 C491.802 755 514.802 747 525.802 732 C536.802 717 538.802 697 538.802 679 C537.802 636 521.802 595 503.802 557 C488.802 522 541.802 497 557.802 531 C578.802 575 594.802 623 597.802 672 C599.802 701 595.802 734 579.802 759 C561.802 788 533.802 807 500.802 811 C464.802 816 427.802 805 394.802 792 C321.802 763 252.802 721 192.802 670 C173.802 654 155.802 635 138.802 615 C110.802 582 86.8022 535 93.8022 491 C96.8022 474 103.802 458 114.802 444 C127.802 427 146.802 414 165.802 404 C102.802 379 51.8022 321 21.8022 260 C-11.1978 191 -24.1978 108 -11.1978 33 C1.80223 -38 40.8022 -109 97.8022 -152 C155.802 -195 229.802 -223 302.802 -227 C356.802 -230 413.802 -217 462.802 -191 L462.802 -191 Z " />
<glyph glyph-name="&amp;#xc8;" unicode="&#xc8;" horiz-adv-x="708" d="M462.802 -191 C518.802 -162 565.802 -113 599.802 -60 C637.802 0 661.802 71 662.802 141 C663.802 172 622.802 183 606.802 156 C603.802 151 602.802 145 602.802 139 C601.802 97 589.802 54 572.802 16 C548.802 -37 510.802 -86 463.802 -120 C427.802 -146 383.802 -163 339.802 -167 C283.802 -172 224.802 -155 174.802 -130 C139.802 -112 107.802 -85 85.8022 -52 C69.8022 -28 57.8022 0 50.8022 28 C32.8022 110 48.8022 200 96.8022 269 C115.802 299 142.802 324 173.802 341 C191.802 351 255.802 370 276.802 368 C293.802 366 310.802 357 326.802 360 C352.802 364 360.802 397 340.802 414 C326.802 425 306.802 427 288.802 428 C259.802 430 231.802 440 203.802 451 C187.802 458 172.802 468 160.802 482 C134.802 515 171.802 564 200.802 595 C240.802 636 288.802 671 338.802 699 C380.802 723 425.802 744 473.802 752 C491.802 755 514.802 747 525.802 732 C536.802 717 538.802 697 538.802 679 C537.802 636 521.802 595 503.802 557 C488.802 522 541.802 497 557.802 531 C578.802 575 594.802 623 597.802 672 C599.802 701 595.802 734 579.802 759 C561.802 788 533.802 807 500.802 811 C464.802 816 427.802 805 394.802 792 C321.802 763 252.802 721 192.802 670 C173.802 654 155.802 635 138.802 615 C110.802 582 86.8022 535 93.8022 491 C96.8022 474 103.802 458 114.802 444 C127.802 427 146.802 414 165.802 404 C102.802 379 51.8022 321 21.8022 260 C-11.1978 191 -24.1978 108 -11.1978 33 C1.80223 -38 40.8022 -109 97.8022 -152 C155.802 -195 229.802 -223 302.802 -227 C356.802 -230 413.802 -217 462.802 -191 L462.802 -191 Z " />
<glyph glyph-name="&amp;#xc9;" unicode="&#xc9;" horiz-adv-x="708" d="M462.802 -191 C518.802 -162 565.802 -113 599.802 -60 C637.802 0 661.802 71 662.802 141 C663.802 172 622.802 183 606.802 156 C603.802 151 602.802 145 602.802 139 C601.802 97 589.802 54 572.802 16 C548.802 -37 510.802 -86 463.802 -120 C427.802 -146 383.802 -163 339.802 -167 C283.802 -172 224.802 -155 174.802 -130 C139.802 -112 107.802 -85 85.8022 -52 C69.8022 -28 57.8022 0 50.8022 28 C32.8022 110 48.8022 200 96.8022 269 C115.802 299 142.802 324 173.802 341 C191.802 351 255.802 370 276.802 368 C293.802 366 310.802 357 326.802 360 C352.802 364 360.802 397 340.802 414 C326.802 425 306.802 427 288.802 428 C259.802 430 231.802 440 203.802 451 C187.802 458 172.802 468 160.802 482 C134.802 515 171.802 564 200.802 595 C240.802 636 288.802 671 338.802 699 C380.802 723 425.802 744 473.802 752 C491.802 755 514.802 747 525.802 732 C536.802 717 538.802 697 538.802 679 C537.802 636 521.802 595 503.802 557 C488.802 522 541.802 497 557.802 531 C578.802 575 594.802 623 597.802 672 C599.802 701 595.802 734 579.802 759 C561.802 788 533.802 807 500.802 811 C464.802 816 427.802 805 394.802 792 C321.802 763 252.802 721 192.802 670 C173.802 654 155.802 635 138.802 615 C110.802 582 86.8022 535 93.8022 491 C96.8022 474 103.802 458 114.802 444 C127.802 427 146.802 414 165.802 404 C102.802 379 51.8022 321 21.8022 260 C-11.1978 191 -24.1978 108 -11.1978 33 C1.80223 -38 40.8022 -109 97.8022 -152 C155.802 -195 229.802 -223 302.802 -227 C356.802 -230 413.802 -217 462.802 -191 L462.802 -191 Z " />
<glyph glyph-name="&amp;#xca;" unicode="&#xca;" horiz-adv-x="708" d="M462.802 -191 C518.802 -162 565.802 -113 599.802 -60 C637.802 0 661.802 71 662.802 141 C663.802 172 622.802 183 606.802 156 C603.802 151 602.802 145 602.802 139 C601.802 97 589.802 54 572.802 16 C548.802 -37 510.802 -86 463.802 -120 C427.802 -146 383.802 -163 339.802 -167 C283.802 -172 224.802 -155 174.802 -130 C139.802 -112 107.802 -85 85.8022 -52 C69.8022 -28 57.8022 0 50.8022 28 C32.8022 110 48.8022 200 96.8022 269 C115.802 299 142.802 324 173.802 341 C191.802 351 255.802 370 276.802 368 C293.802 366 310.802 357 326.802 360 C352.802 364 360.802 397 340.802 414 C326.802 425 306.802 427 288.802 428 C259.802 430 231.802 440 203.802 451 C187.802 458 172.802 468 160.802 482 C134.802 515 171.802 564 200.802 595 C240.802 636 288.802 671 338.802 699 C380.802 723 425.802 744 473.802 752 C491.802 755 514.802 747 525.802 732 C536.802 717 538.802 697 538.802 679 C537.802 636 521.802 595 503.802 557 C488.802 522 541.802 497 557.802 531 C578.802 575 594.802 623 597.802 672 C599.802 701 595.802 734 579.802 759 C561.802 788 533.802 807 500.802 811 C464.802 816 427.802 805 394.802 792 C321.802 763 252.802 721 192.802 670 C173.802 654 155.802 635 138.802 615 C110.802 582 86.8022 535 93.8022 491 C96.8022 474 103.802 458 114.802 444 C127.802 427 146.802 414 165.802 404 C102.802 379 51.8022 321 21.8022 260 C-11.1978 191 -24.1978 108 -11.1978 33 C1.80223 -38 40.8022 -109 97.8022 -152 C155.802 -195 229.802 -223 302.802 -227 C356.802 -230 413.802 -217 462.802 -191 L462.802 -191 Z " />
<glyph glyph-name="&amp;#xcb;" unicode="&#xcb;" horiz-adv-x="708" d="M462.802 -191 C518.802 -162 565.802 -113 599.802 -60 C637.802 0 661.802 71 662.802 141 C663.802 172 622.802 183 606.802 156 C603.802 151 602.802 145 602.802 139 C601.802 97 589.802 54 572.802 16 C548.802 -37 510.802 -86 463.802 -120 C427.802 -146 383.802 -163 339.802 -167 C283.802 -172 224.802 -155 174.802 -130 C139.802 -112 107.802 -85 85.8022 -52 C69.8022 -28 57.8022 0 50.8022 28 C32.8022 110 48.8022 200 96.8022 269 C115.802 299 142.802 324 173.802 341 C191.802 351 255.802 370 276.802 368 C293.802 366 310.802 357 326.802 360 C352.802 364 360.802 397 340.802 414 C326.802 425 306.802 427 288.802 428 C259.802 430 231.802 440 203.802 451 C187.802 458 172.802 468 160.802 482 C134.802 515 171.802 564 200.802 595 C240.802 636 288.802 671 338.802 699 C380.802 723 425.802 744 473.802 752 C491.802 755 514.802 747 525.802 732 C536.802 717 538.802 697 538.802 679 C537.802 636 521.802 595 503.802 557 C488.802 522 541.802 497 557.802 531 C578.802 575 594.802 623 597.802 672 C599.802 701 595.802 734 579.802 759 C561.802 788 533.802 807 500.802 811 C464.802 816 427.802 805 394.802 792 C321.802 763 252.802 721 192.802 670 C173.802 654 155.802 635 138.802 615 C110.802 582 86.8022 535 93.8022 491 C96.8022 474 103.802 458 114.802 444 C127.802 427 146.802 414 165.802 404 C102.802 379 51.8022 321 21.8022 260 C-11.1978 191 -24.1978 108 -11.1978 33 C1.80223 -38 40.8022 -109 97.8022 -152 C155.802 -195 229.802 -223 302.802 -227 C356.802 -230 413.802 -217 462.802 -191 L462.802 -191 Z " />
<glyph glyph-name="F" unicode="F" horiz-adv-x="724" d="M41.789 -206 C70.789 -189 92.789 -161 107.789 -132 C130.789 -89 146.789 -41 159.789 6 C181.789 90 190.789 177 202.789 263 C271.789 266 340.789 267 409.789 264 C432.789 263 455.789 262 477.789 257 C504.789 249 525.789 283 506.789 305 C492.789 322 433.789 323 410.789 324 C344.789 327 277.789 326 210.789 324 C230.789 469 251.789 613 270.789 758 C271.789 764 271.789 769 269.789 774 C303.789 774 338.789 772 372.789 770 C462.789 764 552.789 758 642.789 759 C630.789 741 624.789 718 622.789 697 C622.789 689 621.789 681 624.789 673 C636.789 641 684.789 651 682.789 685 C681.789 709 691.789 731 710.789 745 C724.789 755 743.789 757 759.789 763 C785.789 773 785.789 809 759.789 819 C750.789 823 740.789 822 731.789 821 C611.789 816 491.789 823 372.789 830 C316.789 833 260.789 838 205.789 830 C170.789 825 134.789 812 107.789 790 C92.789 778 80.789 762 71.789 745 C54.789 711 49.789 671 52.789 633 C55.789 607 91.789 491 100.789 466 C112.789 431 164.789 444 158.789 481 C157.789 483 153.789 496 152.789 498 C147.789 515 118.789 610 114.789 628 C107.789 661 112.789 700 131.789 728 C148.789 753 181.789 765 211.789 770 C191.789 620 170.789 470 149.789 320 C139.789 320 101.789 317 92.789 312 C67.789 298 74.789 261 101.789 256 C107.789 255 135.789 259 141.789 260 C131.789 188 123.789 116 107.789 46 C95.789 -9 77.789 -65 49.789 -114 C39.789 -130 26.789 -145 10.789 -154 C9.78897 -155 3.78897 -157 2.78897 -158 C-21.211 -172 -15.211 -209 12.789 -214 C22.789 -215 32.789 -211 41.789 -206 L41.789 -206 Z " />
<glyph glyph-name="G" unicode="G" horiz-adv-x="818" d="M415.522 -185 C459.522 -157 500.522 -120 530.522 -77 C565.522 -76 600.522 -77 635.522 -79 C669.522 -80 677.522 -32 645.522 -21 C633.522 -16 580.522 -17 567.522 -17 C619.522 91 638.522 213 650.522 332 C680.522 326 709.522 317 737.522 307 C742.522 305 766.522 297 771.522 296 C807.522 290 821.522 343 785.522 354 C768.522 359 752.522 366 735.522 371 C601.522 416 450.522 416 313.522 386 C302.522 384 254.522 371 245.522 365 C212.522 346 237.522 297 272.522 311 C292.522 320 313.522 325 335.522 329 C418.522 345 505.522 351 590.522 341 C576.522 305 558.522 270 538.522 237 C508.522 185 474.522 135 432.522 93 C413.522 74 391.522 56 366.522 46 C329.522 33 289.522 24 250.522 28 C229.522 29 209.522 35 190.522 43 C161.522 57 136.522 80 117.522 106 C89.5222 146 74.5222 198 71.5222 248 C66.5222 319 82.5222 395 113.522 459 C155.522 546 224.522 622 304.522 675 C347.522 632 402.522 597 461.522 580 C485.522 573 510.522 566 535.522 566 C564.522 566 596.522 574 619.522 593 C679.522 641 667.522 732 600.522 771 C567.522 790 526.522 799 488.522 799 C428.522 800 368.522 779 315.522 751 C310.522 757 285.522 793 280.522 799 C261.522 822 222.522 805 228.522 775 C230.522 763 256.522 729 263.522 720 C180.522 662 107.522 583 62.5222 492 C36.5222 438 18.5222 379 12.5222 319 C5.52219 245 16.5222 166 50.5222 100 C71.5222 63 101.522 28 136.522 5 C162.522 -12 193.522 -24 224.522 -29 C284.522 -40 350.522 -28 406.522 -1 C433.522 12 456.522 32 477.522 53 C511.522 87 539.522 126 565.522 166 C552.522 102 532.522 37 497.522 -18 C433.522 -22 369.522 -32 308.522 -51 C264.522 -65 218.522 -85 186.522 -120 C174.522 -133 164.522 -149 160.522 -166 C156.522 -186 164.522 -206 180.522 -218 C236.522 -261 355.522 -224 415.522 -185 L415.522 -185 Z M498.522 631 C447.522 644 398.522 671 358.522 706 C391.522 722 427.522 734 463.522 738 C494.522 742 526.522 738 555.522 726 C569.522 721 583.522 711 592.522 698 C610.522 670 591.522 637 559.522 628 C539.522 623 518.522 626 498.522 631 L498.522 631 Z M221.522 -173 C236.522 -147 266.522 -131 294.522 -120 C343.522 -101 395.522 -89 447.522 -83 C412.522 -118 369.522 -148 322.522 -164 C298.522 -172 273.522 -177 247.522 -177 C238.522 -176 229.522 -176 221.522 -173 L221.522 -173 Z " />
<glyph glyph-name="H" unicode="H" horiz-adv-x="798" d="M572.956 -199 C579.956 -186 591.956 -122 595.956 -107 C605.956 -56 619.956 -4 630.956 47 C644.956 108 657.956 169 669.956 231 C675.956 228 709.956 211 715.956 209 C744.956 198 768.956 233 748.956 256 C739.956 267 693.956 286 680.956 291 C691.956 348 750.956 691 759.956 748 C760.956 750 761.956 762 762.956 764 C763.956 768 766.956 772 766.956 777 C772.956 807 733.956 825 714.956 801 C704.956 790 703.956 773 700.956 758 C691.956 702 634.956 365 623.956 309 C499.956 343 358.956 329 237.956 285 C262.956 424 288.956 564 299.956 704 C301.956 731 301.956 760 291.956 785 C285.956 802 272.956 819 255.956 828 C199.956 856 134.956 812 103.956 757 C81.9556 718 69.9556 674 62.9556 630 C54.9556 580 53.9556 529 59.9556 479 C61.9556 463 76.9556 389 81.9556 374 C94.9556 339 147.956 355 138.956 391 C129.956 427 120.956 463 116.956 500 C112.956 543 115.956 587 123.956 630 C129.956 664 138.956 699 156.956 728 C168.956 747 184.956 766 205.956 774 C213.956 776 223.956 778 229.956 773 C243.956 762 240.956 721 239.956 703 C237.956 671 233.956 640 228.956 608 C213.956 490 193.956 373 171.956 257 C129.956 236 87.9556 210 54.9556 175 C41.9556 162 28.9556 149 23.9556 132 C18.9556 120 18.9556 106 22.9556 94 C26.9556 83 35.9556 73 45.9556 67 C56.9556 61 69.9556 58 81.9556 58 C99.9556 58 116.956 57 133.956 55 C119.956 -12 104.956 -78 88.9556 -145 C87.9556 -150 84.9556 -155 83.9556 -161 C77.9556 -193 119.956 -209 137.956 -183 C182.956 -154 226.956 -120 256.956 -76 C274.956 -51 284.956 -18 281.956 12 C279.956 31 273.956 51 260.956 66 C245.956 83 224.956 95 203.956 102 C211.956 139 218.956 177 225.956 215 C312.956 253 410.956 273 504.956 268 C540.956 266 577.956 260 611.956 251 C591.956 147 568.956 43 543.956 -60 C540.956 -75 526.956 -151 520.956 -164 C518.956 -171 516.956 -177 516.956 -184 C516.956 -214 556.956 -225 572.956 -199 L572.956 -199 Z M83.9556 118 C103.956 143 130.956 164 157.956 181 C153.956 159 149.956 136 145.956 114 C124.956 117 103.956 117 83.9556 118 L83.9556 118 Z M191.956 42 C201.956 38 213.956 32 217.956 22 C225.956 7 222.956 -13 215.956 -29 C203.956 -53 183.956 -73 162.956 -90 C172.956 -46 182.956 -2 191.956 42 L191.956 42 Z " />
<glyph glyph-name="I" unicode="I" horiz-adv-x="298" d="M23.0535 -233 C76.0535 -225 131.053 -220 184.053 -225 C191.053 -225 229.053 -230 235.053 -230 C252.053 -230 265.053 -217 265.053 -200 C265.053 -185 254.053 -172 239.053 -170 C211.053 -167 182.053 -164 153.053 -163 C154.053 -29 171.053 106 195.053 239 C195.053 241 197.053 237 199.053 236 C216.053 221 243.053 231 247.053 254 C249.053 263 246.053 273 240.053 279 C229.053 290 219.053 302 209.053 314 C231.053 432 251.053 551 258.053 671 C259.053 694 260.053 718 255.053 741 C250.053 761 241.053 782 225.053 795 C211.053 806 193.053 811 175.053 808 C107.053 797 57.0535 691 47.0535 623 C38.0535 563 46.0535 499 66.0535 442 C84.0535 390 112.053 342 145.053 298 C116.053 145 95.0535 -10 93.0535 -165 C61.0535 -168 27.0535 -168 -3.94653 -178 C-36.9465 -188 -28.9465 -237 5.05347 -237 C11.0535 -237 17.0535 -234 23.0535 -233 L23.0535 -233 Z M103.053 571 C103.053 615 114.053 662 137.053 699 C147.053 715 158.053 731 173.053 743 C178.053 746 184.053 752 188.053 747 C194.053 740 196.053 730 197.053 721 C200.053 705 199.053 689 198.053 672 C193.053 575 178.053 478 160.053 382 C127.053 439 102.053 505 103.053 571 L103.053 571 Z " />
<glyph glyph-name="&amp;#xcc;" unicode="&#xcc;" horiz-adv-x="298" d="M23.0535 -233 C76.0535 -225 131.053 -220 184.053 -225 C191.053 -225 229.053 -230 235.053 -230 C252.053 -230 265.053 -217 265.053 -200 C265.053 -185 254.053 -172 239.053 -170 C211.053 -167 182.053 -164 153.053 -163 C154.053 -29 171.053 106 195.053 239 C195.053 241 197.053 237 199.053 236 C216.053 221 243.053 231 247.053 254 C249.053 263 246.053 273 240.053 279 C229.053 290 219.053 302 209.053 314 C231.053 432 251.053 551 258.053 671 C259.053 694 260.053 718 255.053 741 C250.053 761 241.053 782 225.053 795 C211.053 806 193.053 811 175.053 808 C107.053 797 57.0535 691 47.0535 623 C38.0535 563 46.0535 499 66.0535 442 C84.0535 390 112.053 342 145.053 298 C116.053 145 95.0535 -10 93.0535 -165 C61.0535 -168 27.0535 -168 -3.94653 -178 C-36.9465 -188 -28.9465 -237 5.05347 -237 C11.0535 -237 17.0535 -234 23.0535 -233 L23.0535 -233 Z M103.053 571 C103.053 615 114.053 662 137.053 699 C147.053 715 158.053 731 173.053 743 C178.053 746 184.053 752 188.053 747 C194.053 740 196.053 730 197.053 721 C200.053 705 199.053 689 198.053 672 C193.053 575 178.053 478 160.053 382 C127.053 439 102.053 505 103.053 571 L103.053 571 Z " />
<glyph glyph-name="&amp;#xcd;" unicode="&#xcd;" horiz-adv-x="298" d="M23.0535 -233 C76.0535 -225 131.053 -220 184.053 -225 C191.053 -225 229.053 -230 235.053 -230 C252.053 -230 265.053 -217 265.053 -200 C265.053 -185 254.053 -172 239.053 -170 C211.053 -167 182.053 -164 153.053 -163 C154.053 -29 171.053 106 195.053 239 C195.053 241 197.053 237 199.053 236 C216.053 221 243.053 231 247.053 254 C249.053 263 246.053 273 240.053 279 C229.053 290 219.053 302 209.053 314 C231.053 432 251.053 551 258.053 671 C259.053 694 260.053 718 255.053 741 C250.053 761 241.053 782 225.053 795 C211.053 806 193.053 811 175.053 808 C107.053 797 57.0535 691 47.0535 623 C38.0535 563 46.0535 499 66.0535 442 C84.0535 390 112.053 342 145.053 298 C116.053 145 95.0535 -10 93.0535 -165 C61.0535 -168 27.0535 -168 -3.94653 -178 C-36.9465 -188 -28.9465 -237 5.05347 -237 C11.0535 -237 17.0535 -234 23.0535 -233 L23.0535 -233 Z M103.053 571 C103.053 615 114.053 662 137.053 699 C147.053 715 158.053 731 173.053 743 C178.053 746 184.053 752 188.053 747 C194.053 740 196.053 730 197.053 721 C200.053 705 199.053 689 198.053 672 C193.053 575 178.053 478 160.053 382 C127.053 439 102.053 505 103.053 571 L103.053 571 Z " />
<glyph glyph-name="&amp;#xce;" unicode="&#xce;" horiz-adv-x="298" d="M23.0535 -233 C76.0535 -225 131.053 -220 184.053 -225 C191.053 -225 229.053 -230 235.053 -230 C252.053 -230 265.053 -217 265.053 -200 C265.053 -185 254.053 -172 239.053 -170 C211.053 -167 182.053 -164 153.053 -163 C154.053 -29 171.053 106 195.053 239 C195.053 241 197.053 237 199.053 236 C216.053 221 243.053 231 247.053 254 C249.053 263 246.053 273 240.053 279 C229.053 290 219.053 302 209.053 314 C231.053 432 251.053 551 258.053 671 C259.053 694 260.053 718 255.053 741 C250.053 761 241.053 782 225.053 795 C211.053 806 193.053 811 175.053 808 C107.053 797 57.0535 691 47.0535 623 C38.0535 563 46.0535 499 66.0535 442 C84.0535 390 112.053 342 145.053 298 C116.053 145 95.0535 -10 93.0535 -165 C61.0535 -168 27.0535 -168 -3.94653 -178 C-36.9465 -188 -28.9465 -237 5.05347 -237 C11.0535 -237 17.0535 -234 23.0535 -233 L23.0535 -233 Z M103.053 571 C103.053 615 114.053 662 137.053 699 C147.053 715 158.053 731 173.053 743 C178.053 746 184.053 752 188.053 747 C194.053 740 196.053 730 197.053 721 C200.053 705 199.053 689 198.053 672 C193.053 575 178.053 478 160.053 382 C127.053 439 102.053 505 103.053 571 L103.053 571 Z " />
<glyph glyph-name="&amp;#xcf;" unicode="&#xcf;" horiz-adv-x="298" d="M23.0535 -233 C76.0535 -225 131.053 -220 184.053 -225 C191.053 -225 229.053 -230 235.053 -230 C252.053 -230 265.053 -217 265.053 -200 C265.053 -185 254.053 -172 239.053 -170 C211.053 -167 182.053 -164 153.053 -163 C154.053 -29 171.053 106 195.053 239 C195.053 241 197.053 237 199.053 236 C216.053 221 243.053 231 247.053 254 C249.053 263 246.053 273 240.053 279 C229.053 290 219.053 302 209.053 314 C231.053 432 251.053 551 258.053 671 C259.053 694 260.053 718 255.053 741 C250.053 761 241.053 782 225.053 795 C211.053 806 193.053 811 175.053 808 C107.053 797 57.0535 691 47.0535 623 C38.0535 563 46.0535 499 66.0535 442 C84.0535 390 112.053 342 145.053 298 C116.053 145 95.0535 -10 93.0535 -165 C61.0535 -168 27.0535 -168 -3.94653 -178 C-36.9465 -188 -28.9465 -237 5.05347 -237 C11.0535 -237 17.0535 -234 23.0535 -233 L23.0535 -233 Z M103.053 571 C103.053 615 114.053 662 137.053 699 C147.053 715 158.053 731 173.053 743 C178.053 746 184.053 752 188.053 747 C194.053 740 196.053 730 197.053 721 C200.053 705 199.053 689 198.053 672 C193.053 575 178.053 478 160.053 382 C127.053 439 102.053 505 103.053 571 L103.053 571 Z " />
<glyph glyph-name="J" unicode="J" horiz-adv-x="631" d="M290.216 -167 C335.216 -139 369.216 -93 392.216 -45 C429.216 35 445.216 124 460.216 210 C472.216 211 525.216 212 536.216 217 C563.216 226 563.216 263 536.216 273 C526.216 277 481.216 272 470.216 271 C491.216 405 504.216 541 510.216 676 C510.216 682 510.216 716 511.216 722 C546.216 721 581.216 726 614.216 734 C625.216 736 636.216 739 647.216 743 C656.216 746 665.216 753 669.216 762 C677.216 786 654.216 809 630.216 801 C566.216 778 493.216 777 427.216 791 C375.216 803 321.216 821 268.216 811 C245.216 807 198.216 790 190.216 768 C180.216 741 209.216 718 233.216 732 C236.216 733 239.216 736 242.216 738 C265.216 752 294.216 757 320.216 753 C364.216 747 407.216 732 451.216 726 C450.216 710 451.216 693 450.216 676 C444.216 539 430.216 402 409.216 267 C326.216 261 243.216 253 163.216 231 C118.216 219 72.2163 199 35.2163 170 C-1.78371 142 -32.7837 102 -45.7837 58 C-83.7837 -62 7.21629 -176 131.216 -196 C184.216 -205 243.216 -195 290.216 -167 L290.216 -167 Z M150.216 -138 C132.216 -136 114.216 -132 97.2163 -124 C63.2163 -110 30.2163 -82 15.2163 -48 C4.21629 -22 1.21629 10 10.2163 36 C21.2163 75 50.2163 109 84.2163 132 C120.216 156 164.216 171 207.216 180 C270.216 194 334.216 201 398.216 206 C385.216 130 371.216 53 339.216 -17 C322.216 -54 297.216 -91 262.216 -113 C229.216 -134 189.216 -143 150.216 -138 L150.216 -138 Z " />
<glyph glyph-name="K" unicode="K" horiz-adv-x="633" d="M116.302 -191 C118.302 -185 124.302 -154 125.302 -148 C148.302 -31 167.302 86 186.302 203 C292.302 178 391.302 105 453.302 16 C491.302 -40 516.302 -106 528.302 -172 C529.302 -180 530.302 -189 535.302 -195 C552.302 -214 583.302 -206 588.302 -181 C591.302 -165 575.302 -108 571.302 -93 C522.302 74 381.302 212 211.302 258 C288.302 293 362.302 338 427.302 392 C517.302 465 594.302 560 640.302 666 C651.302 691 658.302 719 660.302 746 C660.302 755 660.302 765 662.302 774 C662.302 778 665.302 782 665.302 786 C670.302 813 638.302 832 617.302 814 C611.302 809 607.302 802 605.302 795 C598.302 769 602.302 742 594.302 716 C575.302 654 538.302 598 497.302 547 C420.302 452 317.302 375 206.302 321 C217.302 391 229.302 462 240.302 532 C250.302 596 261.302 661 265.302 726 C266.302 747 267.302 768 262.302 787 C259.302 800 253.302 813 242.302 821 C226.302 832 205.302 834 186.302 825 C167.302 816 151.302 800 137.302 785 C108.302 754 86.3017 714 74.3017 673 C39.3017 560 51.3017 434 82.3017 320 C92.3017 284 149.302 299 140.302 335 C118.302 416 106.302 501 116.302 583 C122.302 634 136.302 686 167.302 727 C178.302 742 191.302 755 205.302 767 C208.302 724 201.302 681 195.302 638 C179.302 523 160.302 409 141.302 294 C111.302 283 80.3017 274 50.3017 265 C22.3017 256 20.3017 218 48.3017 208 C54.3017 205 61.3017 206 68.3017 207 C87.3017 210 107.302 212 127.302 211 C119.302 162 69.3017 -125 58.3017 -174 C50.3017 -211 103.302 -226 116.302 -191 L116.302 -191 Z " />
<glyph glyph-name="L" unicode="L" horiz-adv-x="387" d="M75.4566 -190 C97.4566 -169 112.457 -142 125.457 -114 C191.457 -126 254.457 -154 319.457 -173 C368.457 -188 418.457 -200 468.457 -198 C499.457 -196 532.457 -189 559.457 -174 C580.457 -161 627.457 -125 630.457 -100 C634.457 -73 601.457 -55 581.457 -74 C578.457 -77 575.457 -80 573.457 -83 C554.457 -109 523.457 -129 490.457 -135 C439.457 -144 384.457 -130 334.457 -115 C271.457 -96 210.457 -71 147.457 -58 C160.457 -16 170.457 26 178.457 69 C205.457 207 227.457 347 255.457 485 C295.457 516 329.457 556 357.457 599 C387.457 645 411.457 697 420.457 751 C425.457 785 417.457 824 383.457 829 C364.457 831 343.457 819 329.457 806 C312.457 790 299.457 770 286.457 751 C243.457 681 219.457 601 201.457 521 C183.457 510 156.457 507 137.457 517 C110.457 531 95.4566 570 97.4566 601 C99.4566 635 114.457 669 139.457 693 C141.457 695 151.457 705 153.457 707 C171.457 731 146.457 764 118.457 753 C110.457 750 90.4566 729 85.4566 723 C23.4566 651 17.4566 541 88.4566 479 C103.457 465 124.457 455 145.457 452 C159.457 449 173.457 450 187.457 452 C163.457 327 142.457 200 118.457 74 C111.457 32 100.457 -9 86.4566 -49 C55.4566 -48 21.4566 -52 -6.5434 -67 C-37.5434 -84 -58.5434 -117 -59.5434 -153 C-60.5434 -170 -54.5434 -190 -42.5434 -203 C-10.5434 -238 41.4566 -223 75.4566 -190 L75.4566 -190 Z M359.457 750 C347.457 694 318.457 643 283.457 598 C300.457 652 323.457 706 359.457 750 L359.457 750 Z M0.456604 -158 C-3.5434 -128 30.4566 -111 60.4566 -109 C51.4566 -125 41.4566 -141 27.4566 -153 C17.4566 -160 2.4566 -170 0.456604 -158 L0.456604 -158 Z " />
<glyph glyph-name="M" unicode="M" horiz-adv-x="1047" d="M262.675 -203 C264.675 -170 297.675 -7 304.675 25 C345.675 202 397.675 378 477.675 540 C509.675 606 547.675 670 596.675 724 C603.675 732 609.675 739 618.675 744 C624.675 748 640.675 754 647.675 752 C650.675 744 649.675 735 649.675 727 C649.675 669 638.675 612 631.675 554 C622.675 490 568.675 141 566.675 76 C566.675 45 608.675 35 623.675 62 C629.675 73 643.675 127 647.675 138 C685.675 269 740.675 397 808.675 515 C835.675 563 863.675 610 901.675 649 C911.675 660 937.675 684 951.675 683 C958.675 683 962.675 672 964.675 665 C969.675 649 969.675 632 967.675 615 C952.675 480 911.675 348 891.675 214 C877.675 126 872.675 34 891.675 -52 C901.675 -100 920.675 -147 945.675 -190 C963.675 -219 1008.67 -201 1000.67 -167 C999.675 -162 995.675 -157 993.675 -152 C965.675 -105 948.675 -51 942.675 3 C932.675 90 944.675 179 960.675 265 C979.675 366 1005.67 465 1021.67 565 C1026.67 598 1031.67 632 1026.67 664 C1022.67 685 1015.67 706 1000.67 722 C986.675 736 963.675 745 943.675 743 C912.675 738 884.675 718 863.675 696 C817.675 648 782.675 591 750.675 534 C718.675 478 689.675 419 663.675 359 C669.675 401 704.675 637 707.675 679 C708.675 696 709.675 713 709.675 731 C709.675 743 709.675 755 705.675 766 C686.675 826 608.675 823 565.675 778 C505.675 716 459.675 641 421.675 563 C373.675 466 336.675 364 304.675 260 C313.675 394 319.675 528 317.675 661 C317.675 697 316.675 733 310.675 768 C307.675 783 302.675 797 292.675 808 C281.675 819 263.675 826 246.675 824 C226.675 823 206.675 815 188.675 804 C162.675 790 140.675 770 121.675 748 C86.6746 706 64.6746 654 51.6746 601 C30.6746 511 36.6746 414 55.6746 323 C58.6746 307 77.6746 254 89.6746 242 C112.675 217 153.675 244 138.675 275 C128.675 295 118.675 316 113.675 338 C104.675 386 98.6746 436 98.6746 486 C98.6746 543 108.675 602 132.675 654 C145.675 682 163.675 709 187.675 730 C202.675 744 220.675 756 240.675 763 C243.675 764 248.675 767 249.675 763 C259.675 734 258.675 603 258.675 573 C256.675 457 250.675 341 242.675 225 C236.675 124 228.675 23 215.675 -77 C211.675 -114 205.675 -151 198.675 -188 C196.675 -196 202.675 -204 205.675 -212 C217.675 -241 261.675 -234 262.675 -203 L262.675 -203 Z " />
<glyph glyph-name="N" unicode="N" horiz-adv-x="874" d="M826.231 -189 C823.231 -183 818.231 -178 814.231 -172 C803.231 -155 796.231 -135 791.231 -115 C773.231 -42 777.231 35 783.231 110 C792.231 219 810.231 326 822.231 434 C828.231 496 832.231 559 825.231 620 C819.231 663 806.231 707 780.231 743 C763.231 766 740.231 787 713.231 796 C684.231 805 650.231 800 623.231 787 C594.231 773 568.231 751 546.231 727 C503.231 681 467.231 627 435.231 572 C401.231 513 371.231 451 345.231 388 C351.231 460 366.231 694 330.231 757 C317.231 777 300.231 791 276.231 797 C256.231 802 235.231 799 215.231 794 C189.231 787 164.231 771 143.231 753 C119.231 730 96.2311 705 80.2311 675 C62.2311 641 48.2311 603 41.2311 565 C30.2311 502 35.2311 434 52.2311 372 C64.2311 331 86.2311 291 112.231 256 C115.231 253 129.231 237 132.231 235 C161.231 210 199.231 251 173.231 278 C126.231 327 101.231 398 96.2311 465 C92.2311 519 100.231 577 123.231 627 C145.231 675 204.231 745 257.231 739 C264.231 739 272.231 735 276.231 729 C284.231 717 289.231 669 290.231 655 C301.231 489 281.231 322 260.231 158 C254.231 120 221.231 -107 215.231 -145 C214.231 -152 208.231 -183 209.231 -190 C214.231 -218 251.231 -224 265.231 -200 C269.231 -194 270.231 -185 271.231 -178 C302.231 3 331.231 187 398.231 358 C417.231 408 441.231 457 467.231 505 C498.231 563 533.231 620 576.231 671 C606.231 707 660.231 758 701.231 736 C713.231 730 723.231 720 731.231 709 C744.231 691 754.231 669 759.231 647 C772.231 591 771.231 532 766.231 475 C756.231 364 736.231 254 726.231 143 C719.231 75 715.231 6 722.231 -63 C726.231 -115 739.231 -169 769.231 -211 C773.231 -217 777.231 -222 782.231 -225 C807.231 -239 835.231 -215 826.231 -189 L826.231 -189 Z " />
<glyph glyph-name="&amp;#xd1;" unicode="&#xd1;" horiz-adv-x="874" d="M826.231 -189 C823.231 -183 818.231 -178 814.231 -172 C803.231 -155 796.231 -135 791.231 -115 C773.231 -42 777.231 35 783.231 110 C792.231 219 810.231 326 822.231 434 C828.231 496 832.231 559 825.231 620 C819.231 663 806.231 707 780.231 743 C763.231 766 740.231 787 713.231 796 C684.231 805 650.231 800 623.231 787 C594.231 773 568.231 751 546.231 727 C503.231 681 467.231 627 435.231 572 C401.231 513 371.231 451 345.231 388 C351.231 460 366.231 694 330.231 757 C317.231 777 300.231 791 276.231 797 C256.231 802 235.231 799 215.231 794 C189.231 787 164.231 771 143.231 753 C119.231 730 96.2311 705 80.2311 675 C62.2311 641 48.2311 603 41.2311 565 C30.2311 502 35.2311 434 52.2311 372 C64.2311 331 86.2311 291 112.231 256 C115.231 253 129.231 237 132.231 235 C161.231 210 199.231 251 173.231 278 C126.231 327 101.231 398 96.2311 465 C92.2311 519 100.231 577 123.231 627 C145.231 675 204.231 745 257.231 739 C264.231 739 272.231 735 276.231 729 C284.231 717 289.231 669 290.231 655 C301.231 489 281.231 322 260.231 158 C254.231 120 221.231 -107 215.231 -145 C214.231 -152 208.231 -183 209.231 -190 C214.231 -218 251.231 -224 265.231 -200 C269.231 -194 270.231 -185 271.231 -178 C302.231 3 331.231 187 398.231 358 C417.231 408 441.231 457 467.231 505 C498.231 563 533.231 620 576.231 671 C606.231 707 660.231 758 701.231 736 C713.231 730 723.231 720 731.231 709 C744.231 691 754.231 669 759.231 647 C772.231 591 771.231 532 766.231 475 C756.231 364 736.231 254 726.231 143 C719.231 75 715.231 6 722.231 -63 C726.231 -115 739.231 -169 769.231 -211 C773.231 -217 777.231 -222 782.231 -225 C807.231 -239 835.231 -215 826.231 -189 L826.231 -189 Z " />
<glyph glyph-name="O" unicode="O" horiz-adv-x="796" d="M364.756 -190 C390.756 -186 417.756 -179 441.756 -166 C520.756 -126 587.756 -60 635.756 15 C703.756 121 748.756 247 756.756 373 C760.756 444 754.756 518 727.756 584 C712.756 619 691.756 653 664.756 680 C631.756 714 589.756 739 545.756 756 C401.756 811 229.756 771 127.756 658 C88.756 616 56.756 565 41.756 509 C22.756 440 25.756 358 57.756 294 C42.756 220 49.756 139 72.756 66 C96.756 -10 136.756 -86 196.756 -140 C240.756 -179 304.756 -198 364.756 -190 L364.756 -190 Z M310.756 -130 C282.756 -124 254.756 -112 233.756 -93 C188.756 -51 155.756 6 135.756 64 C118.756 114 108.756 167 109.756 220 C137.756 192 168.756 168 201.756 147 C206.756 144 232.756 128 237.756 126 C243.756 123 251.756 121 255.756 115 C272.756 90 312.756 103 310.756 133 C310.756 144 303.756 155 294.756 163 C288.756 168 254.756 184 248.756 188 C199.756 218 151.756 255 120.756 303 C127.756 329 137.756 354 150.756 377 C168.756 409 122.756 439 99.756 410 C98.756 408 92.756 396 91.756 394 C85.756 445 95.756 501 120.756 547 C150.756 602 198.756 651 254.756 681 C321.756 717 406.756 730 479.756 713 C523.756 703 567.756 684 602.756 656 C627.756 636 647.756 610 661.756 582 C686.756 534 696.756 478 697.756 424 C699.756 331 678.756 236 640.756 150 C620.756 104 596.756 60 565.756 20 C529.756 -28 485.756 -73 433.756 -103 C419.756 -111 404.756 -118 389.756 -123 C364.756 -131 336.756 -134 310.756 -130 L310.756 -130 Z " />
<glyph glyph-name="&amp;#xd2;" unicode="&#xd2;" horiz-adv-x="796" d="M364.756 -190 C390.756 -186 417.756 -179 441.756 -166 C520.756 -126 587.756 -60 635.756 15 C703.756 121 748.756 247 756.756 373 C760.756 444 754.756 518 727.756 584 C712.756 619 691.756 653 664.756 680 C631.756 714 589.756 739 545.756 756 C401.756 811 229.756 771 127.756 658 C88.756 616 56.756 565 41.756 509 C22.756 440 25.756 358 57.756 294 C42.756 220 49.756 139 72.756 66 C96.756 -10 136.756 -86 196.756 -140 C240.756 -179 304.756 -198 364.756 -190 L364.756 -190 Z M310.756 -130 C282.756 -124 254.756 -112 233.756 -93 C188.756 -51 155.756 6 135.756 64 C118.756 114 108.756 167 109.756 220 C137.756 192 168.756 168 201.756 147 C206.756 144 232.756 128 237.756 126 C243.756 123 251.756 121 255.756 115 C272.756 90 312.756 103 310.756 133 C310.756 144 303.756 155 294.756 163 C288.756 168 254.756 184 248.756 188 C199.756 218 151.756 255 120.756 303 C127.756 329 137.756 354 150.756 377 C168.756 409 122.756 439 99.756 410 C98.756 408 92.756 396 91.756 394 C85.756 445 95.756 501 120.756 547 C150.756 602 198.756 651 254.756 681 C321.756 717 406.756 730 479.756 713 C523.756 703 567.756 684 602.756 656 C627.756 636 647.756 610 661.756 582 C686.756 534 696.756 478 697.756 424 C699.756 331 678.756 236 640.756 150 C620.756 104 596.756 60 565.756 20 C529.756 -28 485.756 -73 433.756 -103 C419.756 -111 404.756 -118 389.756 -123 C364.756 -131 336.756 -134 310.756 -130 L310.756 -130 Z " />
<glyph glyph-name="&amp;#xd3;" unicode="&#xd3;" horiz-adv-x="796" d="M364.756 -190 C390.756 -186 417.756 -179 441.756 -166 C520.756 -126 587.756 -60 635.756 15 C703.756 121 748.756 247 756.756 373 C760.756 444 754.756 518 727.756 584 C712.756 619 691.756 653 664.756 680 C631.756 714 589.756 739 545.756 756 C401.756 811 229.756 771 127.756 658 C88.756 616 56.756 565 41.756 509 C22.756 440 25.756 358 57.756 294 C42.756 220 49.756 139 72.756 66 C96.756 -10 136.756 -86 196.756 -140 C240.756 -179 304.756 -198 364.756 -190 L364.756 -190 Z M310.756 -130 C282.756 -124 254.756 -112 233.756 -93 C188.756 -51 155.756 6 135.756 64 C118.756 114 108.756 167 109.756 220 C137.756 192 168.756 168 201.756 147 C206.756 144 232.756 128 237.756 126 C243.756 123 251.756 121 255.756 115 C272.756 90 312.756 103 310.756 133 C310.756 144 303.756 155 294.756 163 C288.756 168 254.756 184 248.756 188 C199.756 218 151.756 255 120.756 303 C127.756 329 137.756 354 150.756 377 C168.756 409 122.756 439 99.756 410 C98.756 408 92.756 396 91.756 394 C85.756 445 95.756 501 120.756 547 C150.756 602 198.756 651 254.756 681 C321.756 717 406.756 730 479.756 713 C523.756 703 567.756 684 602.756 656 C627.756 636 647.756 610 661.756 582 C686.756 534 696.756 478 697.756 424 C699.756 331 678.756 236 640.756 150 C620.756 104 596.756 60 565.756 20 C529.756 -28 485.756 -73 433.756 -103 C419.756 -111 404.756 -118 389.756 -123 C364.756 -131 336.756 -134 310.756 -130 L310.756 -130 Z " />
<glyph glyph-name="&amp;#xd4;" unicode="&#xd4;" horiz-adv-x="796" d="M364.756 -190 C390.756 -186 417.756 -179 441.756 -166 C520.756 -126 587.756 -60 635.756 15 C703.756 121 748.756 247 756.756 373 C760.756 444 754.756 518 727.756 584 C712.756 619 691.756 653 664.756 680 C631.756 714 589.756 739 545.756 756 C401.756 811 229.756 771 127.756 658 C88.756 616 56.756 565 41.756 509 C22.756 440 25.756 358 57.756 294 C42.756 220 49.756 139 72.756 66 C96.756 -10 136.756 -86 196.756 -140 C240.756 -179 304.756 -198 364.756 -190 L364.756 -190 Z M310.756 -130 C282.756 -124 254.756 -112 233.756 -93 C188.756 -51 155.756 6 135.756 64 C118.756 114 108.756 167 109.756 220 C137.756 192 168.756 168 201.756 147 C206.756 144 232.756 128 237.756 126 C243.756 123 251.756 121 255.756 115 C272.756 90 312.756 103 310.756 133 C310.756 144 303.756 155 294.756 163 C288.756 168 254.756 184 248.756 188 C199.756 218 151.756 255 120.756 303 C127.756 329 137.756 354 150.756 377 C168.756 409 122.756 439 99.756 410 C98.756 408 92.756 396 91.756 394 C85.756 445 95.756 501 120.756 547 C150.756 602 198.756 651 254.756 681 C321.756 717 406.756 730 479.756 713 C523.756 703 567.756 684 602.756 656 C627.756 636 647.756 610 661.756 582 C686.756 534 696.756 478 697.756 424 C699.756 331 678.756 236 640.756 150 C620.756 104 596.756 60 565.756 20 C529.756 -28 485.756 -73 433.756 -103 C419.756 -111 404.756 -118 389.756 -123 C364.756 -131 336.756 -134 310.756 -130 L310.756 -130 Z " />
<glyph glyph-name="&amp;#xd5;" unicode="&#xd5;" horiz-adv-x="796" d="M364.756 -190 C390.756 -186 417.756 -179 441.756 -166 C520.756 -126 587.756 -60 635.756 15 C703.756 121 748.756 247 756.756 373 C760.756 444 754.756 518 727.756 584 C712.756 619 691.756 653 664.756 680 C631.756 714 589.756 739 545.756 756 C401.756 811 229.756 771 127.756 658 C88.756 616 56.756 565 41.756 509 C22.756 440 25.756 358 57.756 294 C42.756 220 49.756 139 72.756 66 C96.756 -10 136.756 -86 196.756 -140 C240.756 -179 304.756 -198 364.756 -190 L364.756 -190 Z M310.756 -130 C282.756 -124 254.756 -112 233.756 -93 C188.756 -51 155.756 6 135.756 64 C118.756 114 108.756 167 109.756 220 C137.756 192 168.756 168 201.756 147 C206.756 144 232.756 128 237.756 126 C243.756 123 251.756 121 255.756 115 C272.756 90 312.756 103 310.756 133 C310.756 144 303.756 155 294.756 163 C288.756 168 254.756 184 248.756 188 C199.756 218 151.756 255 120.756 303 C127.756 329 137.756 354 150.756 377 C168.756 409 122.756 439 99.756 410 C98.756 408 92.756 396 91.756 394 C85.756 445 95.756 501 120.756 547 C150.756 602 198.756 651 254.756 681 C321.756 717 406.756 730 479.756 713 C523.756 703 567.756 684 602.756 656 C627.756 636 647.756 610 661.756 582 C686.756 534 696.756 478 697.756 424 C699.756 331 678.756 236 640.756 150 C620.756 104 596.756 60 565.756 20 C529.756 -28 485.756 -73 433.756 -103 C419.756 -111 404.756 -118 389.756 -123 C364.756 -131 336.756 -134 310.756 -130 L310.756 -130 Z " />
<glyph glyph-name="&amp;#xd6;" unicode="&#xd6;" horiz-adv-x="796" d="M364.756 -190 C390.756 -186 417.756 -179 441.756 -166 C520.756 -126 587.756 -60 635.756 15 C703.756 121 748.756 247 756.756 373 C760.756 444 754.756 518 727.756 584 C712.756 619 691.756 653 664.756 680 C631.756 714 589.756 739 545.756 756 C401.756 811 229.756 771 127.756 658 C88.756 616 56.756 565 41.756 509 C22.756 440 25.756 358 57.756 294 C42.756 220 49.756 139 72.756 66 C96.756 -10 136.756 -86 196.756 -140 C240.756 -179 304.756 -198 364.756 -190 L364.756 -190 Z M310.756 -130 C282.756 -124 254.756 -112 233.756 -93 C188.756 -51 155.756 6 135.756 64 C118.756 114 108.756 167 109.756 220 C137.756 192 168.756 168 201.756 147 C206.756 144 232.756 128 237.756 126 C243.756 123 251.756 121 255.756 115 C272.756 90 312.756 103 310.756 133 C310.756 144 303.756 155 294.756 163 C288.756 168 254.756 184 248.756 188 C199.756 218 151.756 255 120.756 303 C127.756 329 137.756 354 150.756 377 C168.756 409 122.756 439 99.756 410 C98.756 408 92.756 396 91.756 394 C85.756 445 95.756 501 120.756 547 C150.756 602 198.756 651 254.756 681 C321.756 717 406.756 730 479.756 713 C523.756 703 567.756 684 602.756 656 C627.756 636 647.756 610 661.756 582 C686.756 534 696.756 478 697.756 424 C699.756 331 678.756 236 640.756 150 C620.756 104 596.756 60 565.756 20 C529.756 -28 485.756 -73 433.756 -103 C419.756 -111 404.756 -118 389.756 -123 C364.756 -131 336.756 -134 310.756 -130 L310.756 -130 Z " />
<glyph glyph-name="&amp;#xd8;" unicode="&#xd8;" horiz-adv-x="796" d="M364.756 -190 C390.756 -186 417.756 -179 441.756 -166 C520.756 -126 587.756 -60 635.756 15 C703.756 121 748.756 247 756.756 373 C760.756 444 754.756 518 727.756 584 C712.756 619 691.756 653 664.756 680 C631.756 714 589.756 739 545.756 756 C401.756 811 229.756 771 127.756 658 C88.756 616 56.756 565 41.756 509 C22.756 440 25.756 358 57.756 294 C42.756 220 49.756 139 72.756 66 C96.756 -10 136.756 -86 196.756 -140 C240.756 -179 304.756 -198 364.756 -190 L364.756 -190 Z M310.756 -130 C282.756 -124 254.756 -112 233.756 -93 C188.756 -51 155.756 6 135.756 64 C118.756 114 108.756 167 109.756 220 C137.756 192 168.756 168 201.756 147 C206.756 144 232.756 128 237.756 126 C243.756 123 251.756 121 255.756 115 C272.756 90 312.756 103 310.756 133 C310.756 144 303.756 155 294.756 163 C288.756 168 254.756 184 248.756 188 C199.756 218 151.756 255 120.756 303 C127.756 329 137.756 354 150.756 377 C168.756 409 122.756 439 99.756 410 C98.756 408 92.756 396 91.756 394 C85.756 445 95.756 501 120.756 547 C150.756 602 198.756 651 254.756 681 C321.756 717 406.756 730 479.756 713 C523.756 703 567.756 684 602.756 656 C627.756 636 647.756 610 661.756 582 C686.756 534 696.756 478 697.756 424 C699.756 331 678.756 236 640.756 150 C620.756 104 596.756 60 565.756 20 C529.756 -28 485.756 -73 433.756 -103 C419.756 -111 404.756 -118 389.756 -123 C364.756 -131 336.756 -134 310.756 -130 L310.756 -130 Z " />
<glyph glyph-name="P" unicode="P" horiz-adv-x="709" d="M157.317 -185 C171.317 -66 190.317 52 212.317 170 C281.317 158 355.317 162 421.317 185 C470.317 201 516.317 228 554.317 261 C617.317 316 664.317 394 687.317 475 C700.317 524 710.317 574 709.317 625 C709.317 660 703.317 696 686.317 726 C670.317 756 641.317 780 610.317 794 C578.317 809 540.317 812 506.317 806 C471.317 800 437.317 786 407.317 768 C342.317 727 287.317 663 255.317 593 C258.317 639 265.317 685 261.317 730 C259.317 748 253.317 766 242.317 781 C235.317 791 225.317 798 214.317 802 C196.317 808 176.317 807 158.317 801 C132.317 791 109.317 770 93.3168 747 C76.3168 725 62.3168 700 55.3168 673 C44.3168 632 40.3168 588 45.3168 546 C48.3168 515 56.3168 483 74.3168 458 C87.3168 440 119.317 411 142.317 415 C169.317 420 176.317 456 151.317 470 C144.317 475 136.317 478 130.317 484 C117.317 498 110.317 517 107.317 536 C101.317 568 102.317 603 108.317 636 C115.317 673 134.317 711 164.317 736 C172.317 742 183.317 746 193.317 746 C203.317 736 202.317 701 202.317 687 C202.317 673 195.317 590 193.317 575 C183.317 465 168.317 356 153.317 246 C141.317 250 129.317 257 118.317 255 C90.3168 250 84.3168 213 108.317 199 C113.317 196 138.317 188 144.317 186 C127.317 70 110.317 -47 98.3168 -165 C98.3168 -167 97.3168 -178 97.3168 -180 C97.3168 -217 152.317 -221 157.317 -185 L157.317 -185 Z M224.317 229 C243.317 329 263.317 430 294.317 528 C315.317 596 358.317 657 415.317 701 C453.317 729 501.317 751 548.317 749 C583.317 747 620.317 724 636.317 694 C649.317 669 650.317 639 649.317 611 C647.317 551 634.317 491 610.317 436 C569.317 340 487.317 267 389.317 237 C336.317 222 278.317 220 224.317 229 L224.317 229 Z " />
<glyph glyph-name="Q" unicode="Q" horiz-adv-x="797" d="M825.756 -254 C852.756 -239 874.756 -215 892.756 -190 C896.756 -182 912.756 -152 913.756 -143 C919.756 -110 874.756 -94 858.756 -123 C856.756 -126 848.756 -144 847.756 -148 C831.756 -180 796.756 -207 761.756 -216 C723.756 -226 682.756 -219 650.756 -196 C610.756 -167 585.756 -122 557.756 -82 C618.756 -20 666.756 56 699.756 136 C731.756 214 753.756 297 757.756 381 C759.756 445 753.756 512 731.756 573 C716.756 612 693.756 650 664.756 680 C631.756 714 589.756 739 545.756 756 C401.756 811 229.756 771 127.756 658 C88.756 616 56.756 565 41.756 509 C22.756 440 25.756 358 57.756 294 C42.756 220 49.756 139 72.756 66 C96.756 -10 136.756 -86 196.756 -140 C225.756 -166 265.756 -183 304.756 -189 C344.756 -196 387.756 -189 425.756 -174 C456.756 -161 485.756 -142 512.756 -121 C543.756 -167 574.756 -216 620.756 -247 C649.756 -267 686.756 -278 722.756 -280 C757.756 -283 794.756 -271 825.756 -254 L825.756 -254 Z M310.756 -130 C282.756 -124 254.756 -112 233.756 -93 C188.756 -51 155.756 6 135.756 64 C118.756 114 108.756 167 109.756 220 C137.756 192 168.756 168 201.756 147 C206.756 144 232.756 128 237.756 126 C243.756 123 251.756 121 255.756 115 C272.756 90 312.756 103 310.756 133 C310.756 144 303.756 155 294.756 163 C288.756 168 254.756 184 248.756 188 C199.756 218 151.756 255 120.756 303 C127.756 329 137.756 354 150.756 377 C168.756 409 122.756 439 99.756 410 C98.756 408 92.756 396 91.756 394 C85.756 445 95.756 501 120.756 547 C150.756 602 198.756 651 254.756 681 C321.756 717 406.756 730 479.756 713 C523.756 703 567.756 684 602.756 656 C627.756 636 647.756 610 661.756 582 C688.756 530 697.756 470 697.756 412 C698.756 309 669.756 205 623.756 113 C596.756 60 563.756 9 521.756 -33 C507.756 -17 492.756 -2 475.756 10 C439.756 36 387.756 47 344.756 35 C318.756 27 295.756 8 277.756 -12 C268.756 -22 259.756 -32 253.756 -43 C248.756 -52 246.756 -62 247.756 -72 C253.756 -105 301.756 -105 306.756 -72 C307.756 -67 317.756 -57 320.756 -54 C332.756 -40 346.756 -27 363.756 -22 C384.756 -17 408.756 -22 428.756 -32 C447.756 -41 463.756 -57 477.756 -73 C450.756 -94 421.756 -113 389.756 -123 C364.756 -131 336.756 -134 310.756 -130 L310.756 -130 Z " />
<glyph glyph-name="R" unicode="R" horiz-adv-x="712" d="M803.317 -258 C832.317 -248 828.317 -203 797.317 -200 C766.317 -198 735.317 -191 707.317 -178 C671.317 -160 638.317 -134 610.317 -105 C548.317 -41 502.317 36 439.317 100 C414.317 126 385.317 150 353.317 168 C423.317 178 491.317 209 545.317 254 C613.317 309 663.317 390 687.317 475 C700.317 524 710.317 574 709.317 625 C709.317 660 703.317 696 686.317 726 C670.317 756 641.317 780 610.317 794 C578.317 809 540.317 812 506.317 806 C471.317 800 437.317 786 407.317 768 C342.317 727 287.317 663 255.317 593 C258.317 639 265.317 685 261.317 730 C259.317 748 253.317 766 242.317 781 C235.317 791 225.317 798 214.317 802 C196.317 808 176.317 807 158.317 801 C132.317 791 109.317 770 93.3168 747 C76.3168 725 62.3168 700 55.3168 673 C44.3168 632 40.3168 588 45.3168 546 C48.3168 515 56.3168 483 74.3168 458 C87.3168 440 119.317 411 142.317 415 C169.317 420 176.317 456 151.317 470 C144.317 475 136.317 478 130.317 484 C117.317 498 110.317 517 107.317 536 C101.317 568 102.317 603 108.317 636 C115.317 673 134.317 711 164.317 736 C172.317 742 183.317 746 193.317 746 C203.317 736 202.317 701 202.317 687 C202.317 673 195.317 590 193.317 575 C183.317 465 168.317 356 153.317 246 C141.317 250 129.317 257 118.317 255 C90.3168 250 84.3168 213 108.317 199 C113.317 196 138.317 188 144.317 186 C127.317 70 110.317 -47 98.3168 -165 C98.3168 -167 97.3168 -178 97.3168 -180 C97.3168 -217 152.317 -221 157.317 -185 C170.317 -75 187.317 35 207.317 144 C241.317 145 276.317 138 307.317 124 C341.317 109 370.317 85 396.317 59 C458.317 -5 504.317 -82 566.317 -146 C610.317 -191 664.317 -230 724.317 -248 C739.317 -252 788.317 -264 803.317 -258 L803.317 -258 Z M224.317 229 C243.317 329 263.317 430 294.317 528 C315.317 596 358.317 657 415.317 701 C453.317 729 501.317 751 548.317 749 C583.317 747 620.317 724 636.317 694 C649.317 669 650.317 639 649.317 611 C647.317 551 634.317 491 610.317 436 C569.317 340 487.317 267 389.317 237 C336.317 222 278.317 220 224.317 229 L224.317 229 Z " />
<glyph glyph-name="S" unicode="S" horiz-adv-x="656" d="M283.688 -177 C381.688 -127 467.688 -49 530.688 41 C567.688 94 597.688 153 611.688 215 C621.688 260 619.688 310 602.688 352 C592.688 375 576.688 397 557.688 413 C539.688 429 517.688 441 494.688 448 C457.688 460 416.688 461 377.688 457 C316.688 451 256.688 433 195.688 431 C183.688 430 153.688 431 144.688 439 C140.688 444 143.688 457 144.688 463 C149.688 485 158.688 505 168.688 524 C211.688 605 271.688 682 348.688 732 C370.688 746 422.688 774 446.688 763 C473.688 750 471.688 705 464.688 675 C459.688 657 453.688 640 446.688 623 C443.688 617 440.688 612 439.688 605 C433.688 572 478.688 556 495.688 585 C498.688 591 509.688 619 511.688 625 C524.688 660 533.688 699 528.688 736 C525.688 755 518.688 775 505.688 791 C491.688 808 470.688 821 449.688 824 C416.688 829 380.688 818 351.688 803 C242.688 746 154.688 641 104.688 529 C93.6876 506 85.6876 481 83.6876 456 C82.6876 440 84.6876 423 92.6876 410 C98.6876 400 107.688 391 117.688 385 C138.688 374 164.688 370 188.688 371 C254.688 372 320.688 391 386.688 398 C418.688 401 452.688 400 482.688 389 C501.688 382 519.688 370 532.688 354 C547.688 334 555.688 308 556.688 284 C558.688 250 552.688 216 539.688 184 C518.688 128 484.688 76 446.688 30 C393.688 -34 326.688 -88 253.688 -126 C231.688 -137 206.688 -145 182.688 -149 C143.688 -156 100.688 -158 64.6876 -143 C36.6876 -132 7.68764 -109 1.68764 -79 C-15.3124 10 83.6876 117 164.688 158 C210.688 181 268.688 191 317.688 174 C322.688 173 327.688 171 332.688 171 C366.688 171 374.688 216 342.688 229 C307.688 243 267.688 245 229.688 240 C159.688 231 91.6876 193 41.6876 143 C5.68764 107 -27.3124 64 -45.3124 16 C-53.3124 -6 -58.3124 -29 -60.3124 -52 C-62.3124 -87 -49.3124 -125 -27.3124 -151 C-0.312363 -182 41.6876 -203 81.6876 -210 C148.688 -222 223.688 -209 283.688 -177 L283.688 -177 Z " />
<glyph glyph-name="T" unicode="T" horiz-adv-x="829" d="M456.239 -209 C468.239 -195 469.239 -136 470.239 -117 C488.239 60 503.239 238 511.239 416 C512.239 446 534.239 612 538.239 641 C543.239 678 546.239 716 553.239 752 C653.239 750 754.239 749 854.239 749 C895.239 749 895.239 809 853.239 809 C723.239 809 593.239 811 463.239 815 C376.239 817 289.239 812 202.239 807 C157.239 803 112.239 802 67.2391 797 C29.2391 793 34.2391 735 72.2391 738 C150.239 743 228.239 750 305.239 740 C341.239 736 378.239 729 409.239 712 C422.239 705 433.239 693 440.239 680 C450.239 660 452.239 636 453.239 614 C455.239 587 454.239 446 451.239 419 C443.239 348 436.239 276 428.239 205 C424.239 166 414.239 -77 411.239 -116 C408.239 -139 406.239 -161 404.239 -184 C400.239 -215 436.239 -233 456.239 -209 L456.239 -209 Z M453.239 755 C466.239 755 479.239 754 492.239 754 C490.239 742 488.239 730 487.239 719 C477.239 732 466.239 745 453.239 755 L453.239 755 Z " />
<glyph glyph-name="U" unicode="U" horiz-adv-x="762" d="M732.313 -171 C705.313 -142 687.313 -104 678.313 -66 C664.313 -4 665.313 60 667.313 123 C672.313 275 692.313 426 714.313 576 C715.313 582 720.313 618 722.313 624 C733.313 667 743.313 711 748.313 755 C749.313 760 750.313 765 749.313 769 C744.313 800 700.313 803 691.313 774 C677.313 728 669.313 681 662.313 634 C657.313 596 594.313 424 580.313 388 C548.313 305 511.313 224 469.313 146 C436.313 85 400.313 25 357.313 -29 C337.313 -53 315.313 -77 290.313 -96 C262.313 -117 222.313 -132 202.313 -103 C195.313 -92 192.313 -78 191.313 -65 C189.313 -38 193.313 -11 196.313 16 C205.313 96 265.313 573 271.313 653 C273.313 681 275.313 711 265.313 737 C250.313 776 209.313 800 170.313 784 C133.313 769 100.313 738 79.3128 704 C45.3128 648 34.3128 578 39.3128 514 C43.3128 463 52.3128 411 73.3128 364 C76.3128 356 78.3128 348 84.3128 342 C106.313 316 149.313 342 134.313 372 C108.313 429 96.3128 494 99.3128 556 C101.313 599 111.313 645 135.313 681 C149.313 701 168.313 718 190.313 727 C207.313 735 213.313 710 213.313 691 C213.313 598 137.313 67 131.313 -26 C130.313 -55 130.313 -86 140.313 -113 C148.313 -133 162.313 -152 180.313 -163 C200.313 -176 226.313 -181 250.313 -178 C282.313 -174 312.313 -155 337.313 -135 C374.313 -104 405.313 -66 433.313 -27 C511.313 82 570.313 205 622.313 330 C614.313 256 608.313 182 606.313 107 C604.313 38 606.313 -32 625.313 -98 C637.313 -139 657.313 -179 687.313 -210 C690.313 -213 693.313 -217 697.313 -219 C728.313 -237 757.313 -197 732.313 -171 L732.313 -171 Z " />
<glyph glyph-name="&amp;#xd9;" unicode="&#xd9;" horiz-adv-x="762" d="M732.313 -171 C705.313 -142 687.313 -104 678.313 -66 C664.313 -4 665.313 60 667.313 123 C672.313 275 692.313 426 714.313 576 C715.313 582 720.313 618 722.313 624 C733.313 667 743.313 711 748.313 755 C749.313 760 750.313 765 749.313 769 C744.313 800 700.313 803 691.313 774 C677.313 728 669.313 681 662.313 634 C657.313 596 594.313 424 580.313 388 C548.313 305 511.313 224 469.313 146 C436.313 85 400.313 25 357.313 -29 C337.313 -53 315.313 -77 290.313 -96 C262.313 -117 222.313 -132 202.313 -103 C195.313 -92 192.313 -78 191.313 -65 C189.313 -38 193.313 -11 196.313 16 C205.313 96 265.313 573 271.313 653 C273.313 681 275.313 711 265.313 737 C250.313 776 209.313 800 170.313 784 C133.313 769 100.313 738 79.3128 704 C45.3128 648 34.3128 578 39.3128 514 C43.3128 463 52.3128 411 73.3128 364 C76.3128 356 78.3128 348 84.3128 342 C106.313 316 149.313 342 134.313 372 C108.313 429 96.3128 494 99.3128 556 C101.313 599 111.313 645 135.313 681 C149.313 701 168.313 718 190.313 727 C207.313 735 213.313 710 213.313 691 C213.313 598 137.313 67 131.313 -26 C130.313 -55 130.313 -86 140.313 -113 C148.313 -133 162.313 -152 180.313 -163 C200.313 -176 226.313 -181 250.313 -178 C282.313 -174 312.313 -155 337.313 -135 C374.313 -104 405.313 -66 433.313 -27 C511.313 82 570.313 205 622.313 330 C614.313 256 608.313 182 606.313 107 C604.313 38 606.313 -32 625.313 -98 C637.313 -139 657.313 -179 687.313 -210 C690.313 -213 693.313 -217 697.313 -219 C728.313 -237 757.313 -197 732.313 -171 L732.313 -171 Z " />
<glyph glyph-name="&amp;#xda;" unicode="&#xda;" horiz-adv-x="762" d="M732.313 -171 C705.313 -142 687.313 -104 678.313 -66 C664.313 -4 665.313 60 667.313 123 C672.313 275 692.313 426 714.313 576 C715.313 582 720.313 618 722.313 624 C733.313 667 743.313 711 748.313 755 C749.313 760 750.313 765 749.313 769 C744.313 800 700.313 803 691.313 774 C677.313 728 669.313 681 662.313 634 C657.313 596 594.313 424 580.313 388 C548.313 305 511.313 224 469.313 146 C436.313 85 400.313 25 357.313 -29 C337.313 -53 315.313 -77 290.313 -96 C262.313 -117 222.313 -132 202.313 -103 C195.313 -92 192.313 -78 191.313 -65 C189.313 -38 193.313 -11 196.313 16 C205.313 96 265.313 573 271.313 653 C273.313 681 275.313 711 265.313 737 C250.313 776 209.313 800 170.313 784 C133.313 769 100.313 738 79.3128 704 C45.3128 648 34.3128 578 39.3128 514 C43.3128 463 52.3128 411 73.3128 364 C76.3128 356 78.3128 348 84.3128 342 C106.313 316 149.313 342 134.313 372 C108.313 429 96.3128 494 99.3128 556 C101.313 599 111.313 645 135.313 681 C149.313 701 168.313 718 190.313 727 C207.313 735 213.313 710 213.313 691 C213.313 598 137.313 67 131.313 -26 C130.313 -55 130.313 -86 140.313 -113 C148.313 -133 162.313 -152 180.313 -163 C200.313 -176 226.313 -181 250.313 -178 C282.313 -174 312.313 -155 337.313 -135 C374.313 -104 405.313 -66 433.313 -27 C511.313 82 570.313 205 622.313 330 C614.313 256 608.313 182 606.313 107 C604.313 38 606.313 -32 625.313 -98 C637.313 -139 657.313 -179 687.313 -210 C690.313 -213 693.313 -217 697.313 -219 C728.313 -237 757.313 -197 732.313 -171 L732.313 -171 Z " />
<glyph glyph-name="&amp;#xdb;" unicode="&#xdb;" horiz-adv-x="762" d="M732.313 -171 C705.313 -142 687.313 -104 678.313 -66 C664.313 -4 665.313 60 667.313 123 C672.313 275 692.313 426 714.313 576 C715.313 582 720.313 618 722.313 624 C733.313 667 743.313 711 748.313 755 C749.313 760 750.313 765 749.313 769 C744.313 800 700.313 803 691.313 774 C677.313 728 669.313 681 662.313 634 C657.313 596 594.313 424 580.313 388 C548.313 305 511.313 224 469.313 146 C436.313 85 400.313 25 357.313 -29 C337.313 -53 315.313 -77 290.313 -96 C262.313 -117 222.313 -132 202.313 -103 C195.313 -92 192.313 -78 191.313 -65 C189.313 -38 193.313 -11 196.313 16 C205.313 96 265.313 573 271.313 653 C273.313 681 275.313 711 265.313 737 C250.313 776 209.313 800 170.313 784 C133.313 769 100.313 738 79.3128 704 C45.3128 648 34.3128 578 39.3128 514 C43.3128 463 52.3128 411 73.3128 364 C76.3128 356 78.3128 348 84.3128 342 C106.313 316 149.313 342 134.313 372 C108.313 429 96.3128 494 99.3128 556 C101.313 599 111.313 645 135.313 681 C149.313 701 168.313 718 190.313 727 C207.313 735 213.313 710 213.313 691 C213.313 598 137.313 67 131.313 -26 C130.313 -55 130.313 -86 140.313 -113 C148.313 -133 162.313 -152 180.313 -163 C200.313 -176 226.313 -181 250.313 -178 C282.313 -174 312.313 -155 337.313 -135 C374.313 -104 405.313 -66 433.313 -27 C511.313 82 570.313 205 622.313 330 C614.313 256 608.313 182 606.313 107 C604.313 38 606.313 -32 625.313 -98 C637.313 -139 657.313 -179 687.313 -210 C690.313 -213 693.313 -217 697.313 -219 C728.313 -237 757.313 -197 732.313 -171 L732.313 -171 Z " />
<glyph glyph-name="&amp;#xdc;" unicode="&#xdc;" horiz-adv-x="762" d="M732.313 -171 C705.313 -142 687.313 -104 678.313 -66 C664.313 -4 665.313 60 667.313 123 C672.313 275 692.313 426 714.313 576 C715.313 582 720.313 618 722.313 624 C733.313 667 743.313 711 748.313 755 C749.313 760 750.313 765 749.313 769 C744.313 800 700.313 803 691.313 774 C677.313 728 669.313 681 662.313 634 C657.313 596 594.313 424 580.313 388 C548.313 305 511.313 224 469.313 146 C436.313 85 400.313 25 357.313 -29 C337.313 -53 315.313 -77 290.313 -96 C262.313 -117 222.313 -132 202.313 -103 C195.313 -92 192.313 -78 191.313 -65 C189.313 -38 193.313 -11 196.313 16 C205.313 96 265.313 573 271.313 653 C273.313 681 275.313 711 265.313 737 C250.313 776 209.313 800 170.313 784 C133.313 769 100.313 738 79.3128 704 C45.3128 648 34.3128 578 39.3128 514 C43.3128 463 52.3128 411 73.3128 364 C76.3128 356 78.3128 348 84.3128 342 C106.313 316 149.313 342 134.313 372 C108.313 429 96.3128 494 99.3128 556 C101.313 599 111.313 645 135.313 681 C149.313 701 168.313 718 190.313 727 C207.313 735 213.313 710 213.313 691 C213.313 598 137.313 67 131.313 -26 C130.313 -55 130.313 -86 140.313 -113 C148.313 -133 162.313 -152 180.313 -163 C200.313 -176 226.313 -181 250.313 -178 C282.313 -174 312.313 -155 337.313 -135 C374.313 -104 405.313 -66 433.313 -27 C511.313 82 570.313 205 622.313 330 C614.313 256 608.313 182 606.313 107 C604.313 38 606.313 -32 625.313 -98 C637.313 -139 657.313 -179 687.313 -210 C690.313 -213 693.313 -217 697.313 -219 C728.313 -237 757.313 -197 732.313 -171 L732.313 -171 Z " />
<glyph glyph-name="V" unicode="V" horiz-adv-x="769" d="M348.63 -186 C377.63 -165 403.63 -140 428.63 -115 C480.63 -64 527.63 -6 567.63 55 C619.63 137 666.63 223 698.63 314 C738.63 430 755.63 555 753.63 677 C753.63 692 749.63 749 744.63 762 C730.63 793 684.63 782 686.63 748 C686.63 743 689.63 737 690.63 732 C691.63 721 692.63 710 692.63 699 C697.63 584 683.63 465 648.63 355 C616.63 253 564.63 158 504.63 69 C458.63 1 401.63 -60 340.63 -115 C337.63 -78 337.63 -41 337.63 -4 C335.63 97 329.63 198 325.63 299 C321.63 379 313.63 695 279.63 767 C256.63 816 198.63 840 149.63 816 C134.63 808 120.63 798 108.63 786 C78.6303 755 58.6303 713 49.6303 671 C43.6303 638 40.6303 602 44.6303 569 C52.6303 512 71.6303 456 96.6303 404 C107.63 380 147.63 312 171.63 301 C201.63 286 229.63 324 206.63 348 C178.63 377 156.63 413 141.63 450 C121.63 497 104.63 547 102.63 597 C101.63 634 108.63 673 124.63 706 C133.63 725 147.63 742 163.63 755 C170.63 759 177.63 763 185.63 764 C193.63 766 202.63 764 210.63 759 C234.63 745 240.63 677 243.63 648 C249.63 585 254.63 521 258.63 457 C261.63 398 276.63 49 277.63 -9 C278.63 -56 276.63 -103 283.63 -150 C285.63 -160 286.63 -172 292.63 -181 C305.63 -200 330.63 -199 348.63 -186 L348.63 -186 Z " />
<glyph glyph-name="W" unicode="W" horiz-adv-x="939" d="M309.95 -205 C326.95 -200 341.95 -187 353.95 -174 C390.95 -136 416.95 -86 436.95 -36 C462.95 31 483.95 101 503.95 170 C506.95 108 513.95 47 527.95 -13 C537.95 -56 550.95 -98 574.95 -135 C589.95 -159 610.95 -184 637.95 -194 C666.95 -205 698.95 -199 721.95 -178 C755.95 -146 770.95 -97 780.95 -51 C795.95 23 802.95 100 811.95 176 C818.95 238 829.95 300 841.95 361 C852.95 422 864.95 483 878.95 543 C890.95 591 907.95 639 926.95 685 C930.95 693 948.95 737 952.95 745 C954.95 750 958.95 755 959.95 761 C966.95 791 928.95 810 907.95 788 C898.95 777 876.95 720 871.95 707 C844.95 643 824.95 577 809.95 509 C791.95 426 775.95 342 762.95 258 C745.95 151 741.95 43 715.95 -62 C709.95 -86 694.95 -134 669.95 -139 C650.95 -143 631.95 -115 622.95 -98 C594.95 -50 582.95 7 574.95 62 C564.95 127 559.95 193 559.95 259 C559.95 306 562.95 353 565.95 400 C565.95 405 566.95 409 565.95 413 C563.95 426 554.95 436 542.95 439 C540.95 439 539.95 440 538.95 440 C522.95 447 505.95 439 498.95 424 C496.95 418 496.95 411 495.95 404 C476.95 293 446.95 184 412.95 77 C396.95 28 379.95 -21 356.95 -67 C342.95 -93 326.95 -119 304.95 -138 C303.95 -122 302.95 -31 302.95 -14 C301.95 31 300.95 77 299.95 123 C298.95 281 301.95 439 290.95 596 C286.95 646 282.95 696 268.95 743 C262.95 767 251.95 790 234.95 808 C214.95 830 182.95 836 155.95 825 C122.95 811 97.9501 779 80.9501 747 C43.9501 674 35.9501 584 50.9501 504 C61.9501 448 79.9501 393 110.95 345 C116.95 337 125.95 328 135.95 326 C167.95 319 185.95 359 160.95 379 C114.95 454 94.9501 550 107.95 637 C112.95 670 123.95 702 139.95 731 C146.95 742 153.95 752 163.95 760 C170.95 766 182.95 774 189.95 768 C195.95 763 198.95 757 201.95 751 C217.95 719 221.95 683 225.95 648 C241.95 490 240.95 331 239.95 173 C239.95 137 242.95 -83 243.95 -119 C243.95 -139 244.95 -161 253.95 -180 C264.95 -202 286.95 -212 309.95 -205 L309.95 -205 Z " />
<glyph glyph-name="X" unicode="X" horiz-adv-x="854" d="M47.5552 -191 C106.555 -142 159.555 -85 208.555 -26 C267.555 43 323.555 114 378.555 186 C398.555 116 410.555 44 434.555 -24 C450.555 -69 472.555 -115 506.555 -148 C524.555 -166 547.555 -179 571.555 -185 C607.555 -194 647.555 -187 680.555 -171 C723.555 -149 759.555 -111 783.555 -69 C793.555 -51 801.555 -31 806.555 -11 C813.555 22 771.555 41 752.555 13 C749.555 9 747.555 3 746.555 -3 C733.555 -50 697.555 -95 653.555 -117 C634.555 -127 610.555 -132 589.555 -127 C571.555 -124 554.555 -112 541.555 -99 C521.555 -77 508.555 -48 496.555 -20 C475.555 34 463.555 92 450.555 148 C442.555 181 432.555 214 423.555 246 C544.555 411 658.555 581 763.555 757 C765.555 760 767.555 764 768.555 767 C776.555 800 731.555 820 713.555 791 C617.555 629 512.555 472 402.555 319 C372.555 420 343.555 521 311.555 621 C290.555 687 273.555 756 236.555 815 C225.555 833 207.555 850 186.555 857 C132.555 874 85.5552 819 66.5552 766 C52.5552 726 45.5552 681 51.5552 639 C60.5552 574 78.5552 508 105.555 448 C112.555 432 135.555 388 151.555 380 C179.555 368 207.555 403 187.555 426 C178.555 436 171.555 448 165.555 460 C144.555 504 130.555 550 119.555 597 C113.555 622 109.555 646 108.555 671 C108.555 695 112.555 720 121.555 743 C127.555 757 134.555 772 144.555 784 C150.555 791 162.555 802 170.555 799 C182.555 795 198.555 762 203.555 750 C234.555 684 337.555 328 357.555 258 C303.555 185 247.555 113 189.555 43 C133.555 -25 74.5552 -92 5.55524 -147 C4.55524 -148 0.555237 -151 -0.444763 -151 C-32.4448 -157 -34.4448 -202 -2.44476 -210 C14.5552 -214 33.5552 -202 47.5552 -191 L47.5552 -191 Z " />
<glyph glyph-name="Y" unicode="Y" horiz-adv-x="774" d="M521.71 -64 C555.71 -20 582.71 31 602.71 83 C627.71 79 652.71 75 677.71 71 C718.71 64 728.71 123 687.71 130 C666.71 134 644.71 137 622.71 141 C651.71 235 667.71 333 681.71 431 C687.71 474 724.71 736 731.71 778 C736.71 811 692.71 828 675.71 798 C673.71 794 672.71 788 671.71 783 C660.71 733 643.71 683 624.71 636 C587.71 542 541.71 450 477.71 373 C456.71 348 433.71 324 405.71 307 C390.71 298 372.71 291 355.71 291 C312.71 294 276.71 350 268.71 392 C261.71 433 262.71 475 266.71 517 C272.71 578 283.71 639 289.71 701 C292.71 735 291.71 773 275.71 803 C248.71 852 184.71 850 139.71 818 C108.71 796 84.71 765 68.71 730 C59.71 708 53.71 685 48.71 661 C38.71 614 34.71 563 48.71 517 C55.71 491 81.71 445 107.71 441 C139.71 435 155.71 475 130.71 494 C111.71 510 103.71 537 100.71 562 C96.71 602 104.71 643 114.71 682 C121.71 707 135.71 731 153.71 751 C164.71 763 179.71 775 196.71 780 C203.71 782 215.71 783 220.71 778 C234.71 761 229.71 704 227.71 682 C215.71 582 192.71 481 209.71 382 C218.71 331 250.71 281 292.71 252 C317.71 235 352.71 228 381.71 234 C416.71 240 448.71 260 474.71 284 C541.71 345 590.71 425 631.71 506 C614.71 385 598.71 264 562.71 148 C478.71 157 391.71 156 310.71 134 C258.71 120 206.71 95 169.71 56 C128.71 14 114.71 -54 133.71 -108 C146.71 -143 171.71 -171 204.71 -187 C306.71 -238 452.71 -155 521.71 -64 L521.71 -64 Z M243.71 -138 C180.71 -118 166.71 -38 209.71 12 C240.71 46 286.71 66 331.71 77 C399.71 95 471.71 96 540.71 90 C516.71 31 482.71 -27 435.71 -69 C398.71 -103 352.71 -130 303.71 -140 C283.71 -144 262.71 -144 243.71 -138 L243.71 -138 Z " />
<glyph glyph-name="&amp;#xdd;" unicode="&#xdd;" horiz-adv-x="774" d="M521.71 -64 C555.71 -20 582.71 31 602.71 83 C627.71 79 652.71 75 677.71 71 C718.71 64 728.71 123 687.71 130 C666.71 134 644.71 137 622.71 141 C651.71 235 667.71 333 681.71 431 C687.71 474 724.71 736 731.71 778 C736.71 811 692.71 828 675.71 798 C673.71 794 672.71 788 671.71 783 C660.71 733 643.71 683 624.71 636 C587.71 542 541.71 450 477.71 373 C456.71 348 433.71 324 405.71 307 C390.71 298 372.71 291 355.71 291 C312.71 294 276.71 350 268.71 392 C261.71 433 262.71 475 266.71 517 C272.71 578 283.71 639 289.71 701 C292.71 735 291.71 773 275.71 803 C248.71 852 184.71 850 139.71 818 C108.71 796 84.71 765 68.71 730 C59.71 708 53.71 685 48.71 661 C38.71 614 34.71 563 48.71 517 C55.71 491 81.71 445 107.71 441 C139.71 435 155.71 475 130.71 494 C111.71 510 103.71 537 100.71 562 C96.71 602 104.71 643 114.71 682 C121.71 707 135.71 731 153.71 751 C164.71 763 179.71 775 196.71 780 C203.71 782 215.71 783 220.71 778 C234.71 761 229.71 704 227.71 682 C215.71 582 192.71 481 209.71 382 C218.71 331 250.71 281 292.71 252 C317.71 235 352.71 228 381.71 234 C416.71 240 448.71 260 474.71 284 C541.71 345 590.71 425 631.71 506 C614.71 385 598.71 264 562.71 148 C478.71 157 391.71 156 310.71 134 C258.71 120 206.71 95 169.71 56 C128.71 14 114.71 -54 133.71 -108 C146.71 -143 171.71 -171 204.71 -187 C306.71 -238 452.71 -155 521.71 -64 L521.71 -64 Z M243.71 -138 C180.71 -118 166.71 -38 209.71 12 C240.71 46 286.71 66 331.71 77 C399.71 95 471.71 96 540.71 90 C516.71 31 482.71 -27 435.71 -69 C398.71 -103 352.71 -130 303.71 -140 C283.71 -144 262.71 -144 243.71 -138 L243.71 -138 Z " />
<glyph glyph-name="&amp;#x178;" unicode="&#x178;" horiz-adv-x="774" d="M521.71 -64 C555.71 -20 582.71 31 602.71 83 C627.71 79 652.71 75 677.71 71 C718.71 64 728.71 123 687.71 130 C666.71 134 644.71 137 622.71 141 C651.71 235 667.71 333 681.71 431 C687.71 474 724.71 736 731.71 778 C736.71 811 692.71 828 675.71 798 C673.71 794 672.71 788 671.71 783 C660.71 733 643.71 683 624.71 636 C587.71 542 541.71 450 477.71 373 C456.71 348 433.71 324 405.71 307 C390.71 298 372.71 291 355.71 291 C312.71 294 276.71 350 268.71 392 C261.71 433 262.71 475 266.71 517 C272.71 578 283.71 639 289.71 701 C292.71 735 291.71 773 275.71 803 C248.71 852 184.71 850 139.71 818 C108.71 796 84.71 765 68.71 730 C59.71 708 53.71 685 48.71 661 C38.71 614 34.71 563 48.71 517 C55.71 491 81.71 445 107.71 441 C139.71 435 155.71 475 130.71 494 C111.71 510 103.71 537 100.71 562 C96.71 602 104.71 643 114.71 682 C121.71 707 135.71 731 153.71 751 C164.71 763 179.71 775 196.71 780 C203.71 782 215.71 783 220.71 778 C234.71 761 229.71 704 227.71 682 C215.71 582 192.71 481 209.71 382 C218.71 331 250.71 281 292.71 252 C317.71 235 352.71 228 381.71 234 C416.71 240 448.71 260 474.71 284 C541.71 345 590.71 425 631.71 506 C614.71 385 598.71 264 562.71 148 C478.71 157 391.71 156 310.71 134 C258.71 120 206.71 95 169.71 56 C128.71 14 114.71 -54 133.71 -108 C146.71 -143 171.71 -171 204.71 -187 C306.71 -238 452.71 -155 521.71 -64 L521.71 -64 Z M243.71 -138 C180.71 -118 166.71 -38 209.71 12 C240.71 46 286.71 66 331.71 77 C399.71 95 471.71 96 540.71 90 C516.71 31 482.71 -27 435.71 -69 C398.71 -103 352.71 -130 303.71 -140 C283.71 -144 262.71 -144 243.71 -138 L243.71 -138 Z " />
<glyph glyph-name="Z" unicode="Z" horiz-adv-x="642" d="M83.4219 -188 C131.422 -175 174.422 -147 216.422 -120 C289.422 -71 359.422 -16 418.422 49 C463.422 50 508.422 51 553.422 54 C586.422 57 590.422 106 557.422 113 C553.422 114 549.422 114 545.422 114 C519.422 112 493.422 111 468.422 110 C500.422 155 526.422 206 542.422 259 C554.422 297 561.422 337 555.422 376 C549.422 409 529.422 444 500.422 461 C473.422 477 439.422 483 407.422 482 C428.422 499 449.422 518 470.422 536 C503.422 565 536.422 594 563.422 629 C579.422 650 593.422 676 595.422 702 C602.422 776 513.422 805 439.422 812 C362.422 819 282.422 813 205.422 795 C173.422 787 140.422 777 111.422 759 C85.4219 744 60.4219 721 48.4219 693 C36.4219 667 37.4219 636 50.4219 612 C61.4219 590 79.4219 572 98.4219 558 C106.422 553 115.422 546 125.422 545 C153.422 544 167.422 578 147.422 597 C145.422 599 131.422 608 129.422 610 C115.422 621 100.422 636 100.422 654 C99.4219 695 162.422 721 202.422 732 C242.422 743 284.422 749 327.422 752 C369.422 755 413.422 756 455.422 750 C477.422 746 500.422 742 519.422 730 C526.422 726 533.422 720 535.422 712 C539.422 693 509.422 656 495.422 642 C466.422 611 434.422 584 402.422 556 C357.422 516 310.422 478 263.422 442 C254.422 436 245.422 430 239.422 421 C224.422 397 247.422 368 274.422 375 C281.422 377 310.422 390 315.422 393 C343.422 405 371.422 416 400.422 421 C422.422 424 445.422 422 465.422 412 C476.422 407 485.422 397 490.422 385 C496.422 372 497.422 357 497.422 342 C496.422 310 487.422 278 475.422 247 C455.422 197 425.422 149 390.422 107 C317.422 105 242.422 99 172.422 77 C104.422 56 36.4219 22 -14.5781 -28 C-37.5781 -51 -61.5781 -77 -68.5781 -109 C-70.5781 -123 -69.5781 -139 -63.5781 -152 C-42.5781 -200 32.4219 -202 83.4219 -188 L83.4219 -188 Z M17.4219 -135 C9.42191 -135 -6.57809 -133 -9.57809 -126 C-12.5781 -118 -1.57809 -103 3.42191 -97 C17.4219 -79 33.4219 -64 51.4219 -50 C92.4219 -19 140.422 5 189.422 20 C235.422 34 283.422 41 330.422 44 C297.422 12 259.422 -16 221.422 -43 C184.422 -70 146.422 -95 105.422 -115 C78.4219 -128 47.4219 -138 17.4219 -135 L17.4219 -135 Z " />
<glyph glyph-name="bracketleft" unicode="&#x5b;" horiz-adv-x="306" d="M184.727 -5 C210.727 -5 224.727 25 207.727 45 C201.727 52 189.727 56 179.727 56 C170.727 56 117.727 52 107.727 52 C121.727 259 129.727 466 151.727 671 C175.727 672 200.727 672 224.727 670 C255.727 668 267.727 711 240.727 726 C229.727 733 182.727 731 168.727 731 C159.727 731 120.727 732 111.727 728 C97.7268 723 89.7268 709 92.7268 695 C92.7268 694 93.7268 692 93.7268 691 C69.7268 472 61.7268 253 46.7268 34 C46.7268 28 46.7268 22 47.7268 17 C50.7268 5 60.7268 -5 72.7268 -8 C88.7268 -10 168.727 -5 184.727 -5 L184.727 -5 Z " />
<glyph glyph-name="backslash" unicode="&#x5c;" horiz-adv-x="278" d="M326 -98 C322 -76 282 30 274 51 C257 99 157 387 141 436 C120 501 102 568 80 633 C74 651 37 756 32 775 C30 780 30 786 27 790 C10 819 -34 803 -29 770 C-25 747 16 635 24 612 C41 563 55 512 70 462 C86 410 103 357 121 306 C139 253 251 -60 268 -112 C279 -148 332 -135 326 -98 L326 -98 Z " />
<glyph glyph-name="bracketright" unicode="&#x5d;" horiz-adv-x="305" d="M178.631 -5 C192.631 0 200.631 14 197.631 28 C197.631 29 197.631 31 197.631 32 C220.631 251 228.631 470 243.631 689 C244.631 695 243.631 701 242.631 706 C240.631 719 230.631 729 218.631 731 C202.631 733 121.631 728 105.631 728 C80.6306 728 66.6306 698 82.6306 678 C89.6306 671 100.631 667 110.631 667 C119.631 667 173.631 671 182.631 671 C168.631 464 160.631 257 139.631 52 C114.631 51 89.6306 51 65.6306 53 C34.6306 55 22.6306 12 49.6306 -3 C61.6306 -10 107.631 -8 121.631 -8 C130.631 -8 169.631 -9 178.631 -5 L178.631 -5 Z " />
<glyph glyph-name="asciicircum" unicode="&#x5e;" horiz-adv-x="274" d="M103.542 440 C120.542 470 137.542 500 152.542 531 C156.542 520 176.542 466 178.542 455 C184.542 422 230.542 422 237.542 455 C239.542 465 236.542 475 232.542 484 C217.542 524 201.542 564 195.542 606 C194.542 615 193.542 624 189.542 631 C178.542 650 152.542 653 138.542 637 C132.542 629 114.542 589 110.542 580 C104.542 567 69.5416 499 61.5416 487 C56.5416 478 49.5416 470 48.5416 460 C42.5416 427 86.5416 411 103.542 440 L103.542 440 Z " />
<glyph glyph-name="underscore" unicode="&#x5f;" horiz-adv-x="354" d="M273.75 -66 C249.75 -58 145.75 -63 120.75 -63 C108.75 -63 96.75 -61 84.75 -63 C51.75 -69 51.75 -116 84.75 -122 C94.75 -124 145.75 -122 156.75 -122 C191.75 -120 227.75 -122 262.75 -125 C296.75 -127 305.75 -78 273.75 -66 L273.75 -66 Z " />
<glyph glyph-name="a" unicode="a" horiz-adv-x="551" d="M574.927 159 C576.927 161 583.927 170 585.927 172 C603.927 204 560.927 234 536.927 207 C528.927 198 521.927 189 513.927 181 C483.927 150 447.927 125 409.927 105 C375.927 87 338.927 72 300.927 71 C285.927 70 268.927 73 258.927 83 C250.927 91 247.927 103 245.927 114 C243.927 131 244.927 147 247.927 164 C254.927 216 274.927 265 292.927 314 C297.927 327 320.927 380 320.927 394 C320.927 414 303.927 429 284.927 426 C276.927 424 269.927 419 263.927 413 C258.927 408 239.927 380 235.927 374 C227.927 396 210.927 418 188.927 425 C168.927 432 143.927 428 123.927 419 C88.9266 402 58.9266 373 36.9266 340 C18.9266 314 6.92656 283 1.92656 251 C-2.07344 219 -1.07344 182 16.9266 155 C23.9266 144 34.9266 133 47.9266 128 C62.9266 123 80.9266 125 95.9266 132 C137.927 151 169.927 189 198.927 225 C190.927 192 183.927 159 184.927 125 C185.927 102 190.927 77 203.927 58 C214.927 40 231.927 26 251.927 19 C349.927 -18 506.927 80 574.927 159 L574.927 159 Z M63.9266 253 C73.9266 299 106.927 342 147.927 364 C152.927 367 165.927 372 170.927 368 C182.927 360 185.927 321 186.927 307 C166.927 279 101.927 195 67.9266 186 C55.9266 205 58.9266 231 63.9266 253 L63.9266 253 Z " />
<glyph glyph-name="&amp;#xe0;" unicode="&#xe0;" horiz-adv-x="551" d="M574.927 159 C576.927 161 583.927 170 585.927 172 C603.927 204 560.927 234 536.927 207 C528.927 198 521.927 189 513.927 181 C483.927 150 447.927 125 409.927 105 C375.927 87 338.927 72 300.927 71 C285.927 70 268.927 73 258.927 83 C250.927 91 247.927 103 245.927 114 C243.927 131 244.927 147 247.927 164 C254.927 216 274.927 265 292.927 314 C297.927 327 320.927 380 320.927 394 C320.927 414 303.927 429 284.927 426 C276.927 424 269.927 419 263.927 413 C258.927 408 239.927 380 235.927 374 C227.927 396 210.927 418 188.927 425 C168.927 432 143.927 428 123.927 419 C88.9266 402 58.9266 373 36.9266 340 C18.9266 314 6.92656 283 1.92656 251 C-2.07344 219 -1.07344 182 16.9266 155 C23.9266 144 34.9266 133 47.9266 128 C62.9266 123 80.9266 125 95.9266 132 C137.927 151 169.927 189 198.927 225 C190.927 192 183.927 159 184.927 125 C185.927 102 190.927 77 203.927 58 C214.927 40 231.927 26 251.927 19 C349.927 -18 506.927 80 574.927 159 L574.927 159 Z M63.9266 253 C73.9266 299 106.927 342 147.927 364 C152.927 367 165.927 372 170.927 368 C182.927 360 185.927 321 186.927 307 C166.927 279 101.927 195 67.9266 186 C55.9266 205 58.9266 231 63.9266 253 L63.9266 253 Z " />
<glyph glyph-name="&amp;#xe1;" unicode="&#xe1;" horiz-adv-x="551" d="M574.927 159 C576.927 161 583.927 170 585.927 172 C603.927 204 560.927 234 536.927 207 C528.927 198 521.927 189 513.927 181 C483.927 150 447.927 125 409.927 105 C375.927 87 338.927 72 300.927 71 C285.927 70 268.927 73 258.927 83 C250.927 91 247.927 103 245.927 114 C243.927 131 244.927 147 247.927 164 C254.927 216 274.927 265 292.927 314 C297.927 327 320.927 380 320.927 394 C320.927 414 303.927 429 284.927 426 C276.927 424 269.927 419 263.927 413 C258.927 408 239.927 380 235.927 374 C227.927 396 210.927 418 188.927 425 C168.927 432 143.927 428 123.927 419 C88.9266 402 58.9266 373 36.9266 340 C18.9266 314 6.92656 283 1.92656 251 C-2.07344 219 -1.07344 182 16.9266 155 C23.9266 144 34.9266 133 47.9266 128 C62.9266 123 80.9266 125 95.9266 132 C137.927 151 169.927 189 198.927 225 C190.927 192 183.927 159 184.927 125 C185.927 102 190.927 77 203.927 58 C214.927 40 231.927 26 251.927 19 C349.927 -18 506.927 80 574.927 159 L574.927 159 Z M63.9266 253 C73.9266 299 106.927 342 147.927 364 C152.927 367 165.927 372 170.927 368 C182.927 360 185.927 321 186.927 307 C166.927 279 101.927 195 67.9266 186 C55.9266 205 58.9266 231 63.9266 253 L63.9266 253 Z " />
<glyph glyph-name="&amp;#xe2;" unicode="&#xe2;" horiz-adv-x="551" d="M574.927 159 C576.927 161 583.927 170 585.927 172 C603.927 204 560.927 234 536.927 207 C528.927 198 521.927 189 513.927 181 C483.927 150 447.927 125 409.927 105 C375.927 87 338.927 72 300.927 71 C285.927 70 268.927 73 258.927 83 C250.927 91 247.927 103 245.927 114 C243.927 131 244.927 147 247.927 164 C254.927 216 274.927 265 292.927 314 C297.927 327 320.927 380 320.927 394 C320.927 414 303.927 429 284.927 426 C276.927 424 269.927 419 263.927 413 C258.927 408 239.927 380 235.927 374 C227.927 396 210.927 418 188.927 425 C168.927 432 143.927 428 123.927 419 C88.9266 402 58.9266 373 36.9266 340 C18.9266 314 6.92656 283 1.92656 251 C-2.07344 219 -1.07344 182 16.9266 155 C23.9266 144 34.9266 133 47.9266 128 C62.9266 123 80.9266 125 95.9266 132 C137.927 151 169.927 189 198.927 225 C190.927 192 183.927 159 184.927 125 C185.927 102 190.927 77 203.927 58 C214.927 40 231.927 26 251.927 19 C349.927 -18 506.927 80 574.927 159 L574.927 159 Z M63.9266 253 C73.9266 299 106.927 342 147.927 364 C152.927 367 165.927 372 170.927 368 C182.927 360 185.927 321 186.927 307 C166.927 279 101.927 195 67.9266 186 C55.9266 205 58.9266 231 63.9266 253 L63.9266 253 Z " />
<glyph glyph-name="&amp;#xe3;" unicode="&#xe3;" horiz-adv-x="551" d="M574.927 159 C576.927 161 583.927 170 585.927 172 C603.927 204 560.927 234 536.927 207 C528.927 198 521.927 189 513.927 181 C483.927 150 447.927 125 409.927 105 C375.927 87 338.927 72 300.927 71 C285.927 70 268.927 73 258.927 83 C250.927 91 247.927 103 245.927 114 C243.927 131 244.927 147 247.927 164 C254.927 216 274.927 265 292.927 314 C297.927 327 320.927 380 320.927 394 C320.927 414 303.927 429 284.927 426 C276.927 424 269.927 419 263.927 413 C258.927 408 239.927 380 235.927 374 C227.927 396 210.927 418 188.927 425 C168.927 432 143.927 428 123.927 419 C88.9266 402 58.9266 373 36.9266 340 C18.9266 314 6.92656 283 1.92656 251 C-2.07344 219 -1.07344 182 16.9266 155 C23.9266 144 34.9266 133 47.9266 128 C62.9266 123 80.9266 125 95.9266 132 C137.927 151 169.927 189 198.927 225 C190.927 192 183.927 159 184.927 125 C185.927 102 190.927 77 203.927 58 C214.927 40 231.927 26 251.927 19 C349.927 -18 506.927 80 574.927 159 L574.927 159 Z M63.9266 253 C73.9266 299 106.927 342 147.927 364 C152.927 367 165.927 372 170.927 368 C182.927 360 185.927 321 186.927 307 C166.927 279 101.927 195 67.9266 186 C55.9266 205 58.9266 231 63.9266 253 L63.9266 253 Z " />
<glyph glyph-name="&amp;#xe4;" unicode="&#xe4;" horiz-adv-x="551" d="M574.927 159 C576.927 161 583.927 170 585.927 172 C603.927 204 560.927 234 536.927 207 C528.927 198 521.927 189 513.927 181 C483.927 150 447.927 125 409.927 105 C375.927 87 338.927 72 300.927 71 C285.927 70 268.927 73 258.927 83 C250.927 91 247.927 103 245.927 114 C243.927 131 244.927 147 247.927 164 C254.927 216 274.927 265 292.927 314 C297.927 327 320.927 380 320.927 394 C320.927 414 303.927 429 284.927 426 C276.927 424 269.927 419 263.927 413 C258.927 408 239.927 380 235.927 374 C227.927 396 210.927 418 188.927 425 C168.927 432 143.927 428 123.927 419 C88.9266 402 58.9266 373 36.9266 340 C18.9266 314 6.92656 283 1.92656 251 C-2.07344 219 -1.07344 182 16.9266 155 C23.9266 144 34.9266 133 47.9266 128 C62.9266 123 80.9266 125 95.9266 132 C137.927 151 169.927 189 198.927 225 C190.927 192 183.927 159 184.927 125 C185.927 102 190.927 77 203.927 58 C214.927 40 231.927 26 251.927 19 C349.927 -18 506.927 80 574.927 159 L574.927 159 Z M63.9266 253 C73.9266 299 106.927 342 147.927 364 C152.927 367 165.927 372 170.927 368 C182.927 360 185.927 321 186.927 307 C166.927 279 101.927 195 67.9266 186 C55.9266 205 58.9266 231 63.9266 253 L63.9266 253 Z " />
<glyph glyph-name="&amp;#xe5;" unicode="&#xe5;" horiz-adv-x="551" d="M574.927 159 C576.927 161 583.927 170 585.927 172 C603.927 204 560.927 234 536.927 207 C528.927 198 521.927 189 513.927 181 C483.927 150 447.927 125 409.927 105 C375.927 87 338.927 72 300.927 71 C285.927 70 268.927 73 258.927 83 C250.927 91 247.927 103 245.927 114 C243.927 131 244.927 147 247.927 164 C254.927 216 274.927 265 292.927 314 C297.927 327 320.927 380 320.927 394 C320.927 414 303.927 429 284.927 426 C276.927 424 269.927 419 263.927 413 C258.927 408 239.927 380 235.927 374 C227.927 396 210.927 418 188.927 425 C168.927 432 143.927 428 123.927 419 C88.9266 402 58.9266 373 36.9266 340 C18.9266 314 6.92656 283 1.92656 251 C-2.07344 219 -1.07344 182 16.9266 155 C23.9266 144 34.9266 133 47.9266 128 C62.9266 123 80.9266 125 95.9266 132 C137.927 151 169.927 189 198.927 225 C190.927 192 183.927 159 184.927 125 C185.927 102 190.927 77 203.927 58 C214.927 40 231.927 26 251.927 19 C349.927 -18 506.927 80 574.927 159 L574.927 159 Z M63.9266 253 C73.9266 299 106.927 342 147.927 364 C152.927 367 165.927 372 170.927 368 C182.927 360 185.927 321 186.927 307 C166.927 279 101.927 195 67.9266 186 C55.9266 205 58.9266 231 63.9266 253 L63.9266 253 Z " />
<glyph glyph-name="b" unicode="b" horiz-adv-x="517" d="M128.652 25 C179.652 60 215.652 118 238.652 176 C275.652 183 313.652 184 351.652 182 C407.652 180 463.652 172 520.652 165 C523.652 164 527.652 164 531.652 164 C564.652 170 564.652 219 530.652 224 C439.652 236 347.652 250 256.652 239 C261.652 266 263.652 294 259.652 321 C256.652 343 248.652 367 233.652 384 C193.652 429 125.652 408 82.6517 365 C102.652 473 129.652 579 162.652 684 C163.652 688 164.652 691 164.652 695 C164.652 729 116.652 737 105.652 705 C62.6517 564 28.6517 420 7.65169 275 C5.65169 266 -0.348312 225 0.651688 216 C6.65169 186 46.6517 183 58.6517 211 C67.6517 232 74.6517 255 86.6517 275 C103.652 301 124.652 327 152.652 343 C160.652 347 178.652 352 186.652 347 C193.652 341 196.652 330 198.652 321 C205.652 290 200.652 256 191.652 225 C144.652 211 98.6517 186 63.6517 151 C44.6517 133 27.6517 111 18.6517 86 C8.65169 54 14.6517 16 45.6517 4 C72.6517 -5 105.652 9 128.652 25 L128.652 25 Z M86.6517 86 C104.652 112 130.652 131 157.652 146 C137.652 113 110.652 79 74.6517 64 C77.6517 72 81.6517 80 86.6517 86 L86.6517 86 Z " />
<glyph glyph-name="c" unicode="c" horiz-adv-x="505" d="M314.73 71 C390.73 92 461.73 129 528.73 170 C563.73 192 533.73 244 498.73 222 C433.73 183 365.73 147 293.73 127 C249.73 115 201.73 110 157.73 120 C131.73 127 105.73 140 89.7301 160 C77.7301 175 69.7301 192 65.7301 210 C48.7301 279 75.7301 365 142.73 388 C157.73 393 178.73 389 189.73 377 C197.73 369 203.73 357 206.73 346 C210.73 331 206.73 314 202.73 299 C194.73 269 235.73 250 255.73 274 C270.73 291 270.73 342 263.73 364 C255.73 392 238.73 420 213.73 434 C198.73 443 181.73 449 163.73 450 C141.73 451 117.73 445 97.7301 433 C64.7301 415 36.7301 383 21.7301 349 C-3.2699 294 -7.2699 223 16.7301 167 C28.7301 140 44.7301 114 68.7301 97 C96.7301 78 128.73 64 161.73 58 C212.73 50 265.73 57 314.73 71 L314.73 71 Z " />
<glyph glyph-name="&amp;#xe7;" unicode="&#xe7;" horiz-adv-x="505" d="M314.73 71 C390.73 92 461.73 129 528.73 170 C563.73 192 533.73 244 498.73 222 C433.73 183 365.73 147 293.73 127 C249.73 115 201.73 110 157.73 120 C131.73 127 105.73 140 89.7301 160 C77.7301 175 69.7301 192 65.7301 210 C48.7301 279 75.7301 365 142.73 388 C157.73 393 178.73 389 189.73 377 C197.73 369 203.73 357 206.73 346 C210.73 331 206.73 314 202.73 299 C194.73 269 235.73 250 255.73 274 C270.73 291 270.73 342 263.73 364 C255.73 392 238.73 420 213.73 434 C198.73 443 181.73 449 163.73 450 C141.73 451 117.73 445 97.7301 433 C64.7301 415 36.7301 383 21.7301 349 C-3.2699 294 -7.2699 223 16.7301 167 C28.7301 140 44.7301 114 68.7301 97 C96.7301 78 128.73 64 161.73 58 C212.73 50 265.73 57 314.73 71 L314.73 71 Z " />
<glyph glyph-name="d" unicode="d" horiz-adv-x="585" d="M403.657 -41 C428.657 -36 453.657 -26 474.657 -13 C541.657 30 585.657 104 620.657 175 C631.657 198 614.657 224 589.657 220 C580.657 218 572.657 213 568.657 205 C544.657 156 516.657 106 478.657 67 C458.657 47 434.657 30 407.657 22 C400.657 20 391.657 17 384.657 19 C362.657 25 339.657 67 333.657 89 C311.657 159 311.657 235 317.657 308 C325.657 395 335.657 482 346.657 568 C348.657 585 363.657 657 360.657 674 C355.657 704 313.657 708 302.657 679 C297.657 665 290.657 594 287.657 580 C287.657 576 281.657 550 280.657 546 C265.657 475 242.657 406 216.657 339 C204.657 370 187.657 402 159.657 421 C138.657 435 114.657 435 90.6572 423 C55.6572 405 34.6572 365 18.6572 329 C-8.34282 266 -10.3428 156 41.6572 111 C89.6572 70 156.657 112 193.657 164 C218.657 199 238.657 237 255.657 276 C252.657 209 254.657 141 274.657 77 C284.657 42 302.657 6 330.657 -18 C349.657 -35 378.657 -45 403.657 -41 L403.657 -41 Z M64.6572 188 C59.6572 207 57.6572 228 59.6572 248 C63.6572 284 77.6572 319 97.6572 349 C99.6572 351 107.657 361 109.657 362 C111.657 365 119.657 372 123.657 372 C128.657 371 137.657 361 140.657 356 C150.657 343 157.657 328 162.657 312 C163.657 309 167.657 290 168.657 287 C171.657 279 178.657 271 186.657 268 C174.657 243 160.657 219 144.657 198 C130.657 180 113.657 163 92.6572 156 C76.6572 151 68.6572 171 64.6572 188 L64.6572 188 Z " />
<glyph glyph-name="e" unicode="e" horiz-adv-x="484" d="M330.391 68 C395.391 90 456.391 123 511.391 164 C540.391 186 509.391 232 477.391 213 C472.391 210 444.391 190 439.391 187 C399.391 161 355.391 140 309.391 124 C275.391 112 238.391 104 202.391 102 C169.391 101 133.391 106 107.391 125 C89.3913 137 75.3913 157 67.3913 178 C107.391 183 147.391 199 180.391 223 C210.391 246 237.391 281 243.391 319 C248.391 352 238.391 393 213.391 414 C196.391 428 170.391 433 149.391 430 C122.391 426 97.3913 411 77.3913 394 C35.3913 358 8.39133 302 2.39133 248 C-1.60867 218 0.391327 187 10.3913 158 C22.3913 125 46.3913 93 76.3913 73 C108.391 52 150.391 42 189.391 42 C237.391 42 285.391 52 330.391 68 L330.391 68 Z M116.391 348 C127.391 358 155.391 374 169.391 371 C174.391 370 177.391 365 179.391 361 C186.391 346 185.391 327 179.391 312 C171.391 294 155.391 279 139.391 268 C116.391 251 88.3913 241 61.3913 237 C67.3913 278 84.3913 322 116.391 348 L116.391 348 Z " />
<glyph glyph-name="&amp;#xe8;" unicode="&#xe8;" horiz-adv-x="484" d="M330.391 68 C395.391 90 456.391 123 511.391 164 C540.391 186 509.391 232 477.391 213 C472.391 210 444.391 190 439.391 187 C399.391 161 355.391 140 309.391 124 C275.391 112 238.391 104 202.391 102 C169.391 101 133.391 106 107.391 125 C89.3913 137 75.3913 157 67.3913 178 C107.391 183 147.391 199 180.391 223 C210.391 246 237.391 281 243.391 319 C248.391 352 238.391 393 213.391 414 C196.391 428 170.391 433 149.391 430 C122.391 426 97.3913 411 77.3913 394 C35.3913 358 8.39133 302 2.39133 248 C-1.60867 218 0.391327 187 10.3913 158 C22.3913 125 46.3913 93 76.3913 73 C108.391 52 150.391 42 189.391 42 C237.391 42 285.391 52 330.391 68 L330.391 68 Z M116.391 348 C127.391 358 155.391 374 169.391 371 C174.391 370 177.391 365 179.391 361 C186.391 346 185.391 327 179.391 312 C171.391 294 155.391 279 139.391 268 C116.391 251 88.3913 241 61.3913 237 C67.3913 278 84.3913 322 116.391 348 L116.391 348 Z " />
<glyph glyph-name="&amp;#xe9;" unicode="&#xe9;" horiz-adv-x="484" d="M330.391 68 C395.391 90 456.391 123 511.391 164 C540.391 186 509.391 232 477.391 213 C472.391 210 444.391 190 439.391 187 C399.391 161 355.391 140 309.391 124 C275.391 112 238.391 104 202.391 102 C169.391 101 133.391 106 107.391 125 C89.3913 137 75.3913 157 67.3913 178 C107.391 183 147.391 199 180.391 223 C210.391 246 237.391 281 243.391 319 C248.391 352 238.391 393 213.391 414 C196.391 428 170.391 433 149.391 430 C122.391 426 97.3913 411 77.3913 394 C35.3913 358 8.39133 302 2.39133 248 C-1.60867 218 0.391327 187 10.3913 158 C22.3913 125 46.3913 93 76.3913 73 C108.391 52 150.391 42 189.391 42 C237.391 42 285.391 52 330.391 68 L330.391 68 Z M116.391 348 C127.391 358 155.391 374 169.391 371 C174.391 370 177.391 365 179.391 361 C186.391 346 185.391 327 179.391 312 C171.391 294 155.391 279 139.391 268 C116.391 251 88.3913 241 61.3913 237 C67.3913 278 84.3913 322 116.391 348 L116.391 348 Z " />
<glyph glyph-name="&amp;#xea;" unicode="&#xea;" horiz-adv-x="484" d="M330.391 68 C395.391 90 456.391 123 511.391 164 C540.391 186 509.391 232 477.391 213 C472.391 210 444.391 190 439.391 187 C399.391 161 355.391 140 309.391 124 C275.391 112 238.391 104 202.391 102 C169.391 101 133.391 106 107.391 125 C89.3913 137 75.3913 157 67.3913 178 C107.391 183 147.391 199 180.391 223 C210.391 246 237.391 281 243.391 319 C248.391 352 238.391 393 213.391 414 C196.391 428 170.391 433 149.391 430 C122.391 426 97.3913 411 77.3913 394 C35.3913 358 8.39133 302 2.39133 248 C-1.60867 218 0.391327 187 10.3913 158 C22.3913 125 46.3913 93 76.3913 73 C108.391 52 150.391 42 189.391 42 C237.391 42 285.391 52 330.391 68 L330.391 68 Z M116.391 348 C127.391 358 155.391 374 169.391 371 C174.391 370 177.391 365 179.391 361 C186.391 346 185.391 327 179.391 312 C171.391 294 155.391 279 139.391 268 C116.391 251 88.3913 241 61.3913 237 C67.3913 278 84.3913 322 116.391 348 L116.391 348 Z " />
<glyph glyph-name="&amp;#xeb;" unicode="&#xeb;" horiz-adv-x="484" d="M330.391 68 C395.391 90 456.391 123 511.391 164 C540.391 186 509.391 232 477.391 213 C472.391 210 444.391 190 439.391 187 C399.391 161 355.391 140 309.391 124 C275.391 112 238.391 104 202.391 102 C169.391 101 133.391 106 107.391 125 C89.3913 137 75.3913 157 67.3913 178 C107.391 183 147.391 199 180.391 223 C210.391 246 237.391 281 243.391 319 C248.391 352 238.391 393 213.391 414 C196.391 428 170.391 433 149.391 430 C122.391 426 97.3913 411 77.3913 394 C35.3913 358 8.39133 302 2.39133 248 C-1.60867 218 0.391327 187 10.3913 158 C22.3913 125 46.3913 93 76.3913 73 C108.391 52 150.391 42 189.391 42 C237.391 42 285.391 52 330.391 68 L330.391 68 Z M116.391 348 C127.391 358 155.391 374 169.391 371 C174.391 370 177.391 365 179.391 361 C186.391 346 185.391 327 179.391 312 C171.391 294 155.391 279 139.391 268 C116.391 251 88.3913 241 61.3913 237 C67.3913 278 84.3913 322 116.391 348 L116.391 348 Z " />
<glyph glyph-name="f" unicode="f" horiz-adv-x="354" d="M78.2556 -236 C86.2556 -224 92.2556 -210 97.2556 -196 C114.256 -141 118.256 -82 114.256 -25 C109.256 28 99.2556 83 75.2556 132 C174.256 111 285.256 122 377.256 165 C411.256 181 386.256 235 352.256 219 C258.256 177 149.256 170 49.2556 200 C60.2556 357 82.2556 516 130.256 667 C132.256 671 133.256 674 133.256 678 C133.256 712 84.2556 720 74.2556 687 C26.2556 538 2.25562 380 -8.74438 223 C-14.7444 227 -37.7444 240 -44.7444 242 C-75.7444 247 -92.7444 208 -68.7444 187 C-63.7444 183 -40.7444 171 -34.7444 169 C-30.7444 167 -16.7444 154 -12.7444 151 C-14.7444 119 -20.7444 -59 -18.7444 -91 C-16.7444 -133 -13.7444 -229 23.2556 -251 C41.2556 -261 65.2556 -253 78.2556 -236 L78.2556 -236 Z M43.2556 45 C58.2556 -19 60.2556 -88 47.2556 -153 C38.2556 -87 41.2556 -21 43.2556 45 L43.2556 45 Z " />
<glyph glyph-name="g" unicode="g" horiz-adv-x="575" d="M192.473 -192 C211.473 -174 227.473 -154 239.473 -132 C264.473 -85 276.473 -32 286.473 20 C384.473 73 485.473 121 588.473 164 C593.473 166 599.473 168 603.473 171 C629.473 193 604.473 235 573.473 222 C479.473 184 387.473 140 297.473 94 C309.473 192 314.473 292 343.473 387 C356.473 426 304.473 445 287.473 407 C267.473 362 245.473 317 218.473 275 C228.473 310 194.473 374 168.473 399 C153.473 414 128.473 423 107.473 420 C40.4729 408 8.47295 300 2.47295 231 C-0.527054 201 -0.527054 170 8.47295 142 C15.4729 119 32.4729 95 55.4729 87 C68.4729 83 82.4729 82 96.4729 85 C123.473 90 148.473 106 170.473 124 C201.473 150 227.473 182 250.473 215 C244.473 163 239.473 111 231.473 59 C168.473 24 107.473 -22 63.4729 -80 C49.4729 -99 35.4729 -122 31.4729 -146 C27.4729 -163 29.4729 -184 39.4729 -199 C73.4729 -250 146.473 -233 192.473 -192 L192.473 -192 Z M75.4729 144 C68.4729 146 64.4729 161 63.4729 169 C58.4729 191 59.4729 215 63.4729 238 C67.4729 271 85.4729 345 115.473 360 C118.473 361 122.473 360 124.473 358 C132.473 353 137.473 345 141.473 338 C152.473 320 157.473 300 160.473 280 C165.473 256 194.473 247 211.473 264 C183.473 222 152.473 181 110.473 154 C102.473 150 83.4729 141 75.4729 144 L75.4729 144 Z M90.4729 -167 C87.4729 -163 90.4729 -153 92.4729 -149 C100.473 -129 114.473 -112 128.473 -96 C153.473 -67 184.473 -43 216.473 -21 C207.473 -56 197.473 -93 175.473 -121 C163.473 -136 150.473 -151 133.473 -160 C123.473 -166 112.473 -170 100.473 -170 C98.4729 -170 91.4729 -170 90.4729 -167 L90.4729 -167 Z " />
<glyph glyph-name="h" unicode="h" horiz-adv-x="593" d="M61.3716 -13 C64.3716 0 79.3716 75 82.3716 88 C94.3716 145 107.372 203 134.372 254 C150.372 286 171.372 316 198.372 338 C208.372 346 217.372 354 229.372 359 C241.372 364 263.372 371 272.372 361 C279.372 352 283.372 341 286.372 329 C290.372 306 288.372 282 285.372 258 C279.372 221 266.372 185 257.372 148 C252.372 130 252.372 109 258.372 91 C264.372 75 276.372 61 290.372 52 C305.372 42 326.372 37 345.372 36 C386.372 33 428.372 46 466.372 62 C522.372 86 574.372 122 618.372 164 C621.372 167 625.372 170 627.372 174 C645.372 205 605.372 235 579.372 210 C540.372 172 494.372 139 444.372 118 C414.372 105 382.372 95 349.372 96 C339.372 96 320.372 100 315.372 110 C310.372 120 315.372 134 318.372 145 C330.372 188 343.372 231 347.372 276 C350.372 307 348.372 341 336.372 370 C328.372 388 316.372 405 299.372 415 C277.372 429 247.372 429 222.372 421 C197.372 413 174.372 398 155.372 380 C125.372 353 100.372 319 82.3716 284 C95.3716 399 110.372 513 134.372 627 C139.372 647 143.372 668 151.372 688 C162.372 720 121.372 743 99.3716 718 C94.3716 712 92.3716 704 90.3716 696 C79.3716 659 71.3716 620 64.3716 582 C42.3716 459 26.3716 334 13.3716 210 C7.37155 149 0.371552 88 0.371552 27 C0.371552 21 0.371552 -5 2.37155 -10 C10.3716 -42 52.3716 -45 61.3716 -13 L61.3716 -13 Z " />
<glyph glyph-name="i" unicode="i" horiz-adv-x="380" d="M97.7279 510 C66.7279 536 26.7279 491 57.7279 465 C88.7279 438 128.728 484 97.7279 510 L97.7279 510 Z M182.728 64 C260.728 84 333.728 124 403.728 166 C425.728 180 422.728 214 396.728 221 C389.728 223 380.728 222 373.728 218 C310.728 180 244.728 143 173.728 124 C153.728 118 131.728 114 110.728 115 C101.728 116 91.7279 118 83.7279 122 C51.7279 140 61.7279 201 68.7279 236 C78.7279 280 85.7279 325 94.7279 369 C102.728 410 43.7279 420 35.7279 379 C30.7279 357 5.72794 228 2.72794 205 C0.727936 184 -0.272064 162 3.72794 141 C9.72794 118 20.7279 96 38.7279 80 C52.7279 69 70.7279 61 88.7279 58 C119.728 52 151.728 56 182.728 64 L182.728 64 Z " />
<glyph glyph-name="&amp;#xec;" unicode="&#xec;" horiz-adv-x="380" d="M97.7279 510 C66.7279 536 26.7279 491 57.7279 465 C88.7279 438 128.728 484 97.7279 510 L97.7279 510 Z M182.728 64 C260.728 84 333.728 124 403.728 166 C425.728 180 422.728 214 396.728 221 C389.728 223 380.728 222 373.728 218 C310.728 180 244.728 143 173.728 124 C153.728 118 131.728 114 110.728 115 C101.728 116 91.7279 118 83.7279 122 C51.7279 140 61.7279 201 68.7279 236 C78.7279 280 85.7279 325 94.7279 369 C102.728 410 43.7279 420 35.7279 379 C30.7279 357 5.72794 228 2.72794 205 C0.727936 184 -0.272064 162 3.72794 141 C9.72794 118 20.7279 96 38.7279 80 C52.7279 69 70.7279 61 88.7279 58 C119.728 52 151.728 56 182.728 64 L182.728 64 Z " />
<glyph glyph-name="&amp;#xed;" unicode="&#xed;" horiz-adv-x="380" d="M97.7279 510 C66.7279 536 26.7279 491 57.7279 465 C88.7279 438 128.728 484 97.7279 510 L97.7279 510 Z M182.728 64 C260.728 84 333.728 124 403.728 166 C425.728 180 422.728 214 396.728 221 C389.728 223 380.728 222 373.728 218 C310.728 180 244.728 143 173.728 124 C153.728 118 131.728 114 110.728 115 C101.728 116 91.7279 118 83.7279 122 C51.7279 140 61.7279 201 68.7279 236 C78.7279 280 85.7279 325 94.7279 369 C102.728 410 43.7279 420 35.7279 379 C30.7279 357 5.72794 228 2.72794 205 C0.727936 184 -0.272064 162 3.72794 141 C9.72794 118 20.7279 96 38.7279 80 C52.7279 69 70.7279 61 88.7279 58 C119.728 52 151.728 56 182.728 64 L182.728 64 Z " />
<glyph glyph-name="&amp;#xee;" unicode="&#xee;" horiz-adv-x="380" d="M97.7279 510 C66.7279 536 26.7279 491 57.7279 465 C88.7279 438 128.728 484 97.7279 510 L97.7279 510 Z M182.728 64 C260.728 84 333.728 124 403.728 166 C425.728 180 422.728 214 396.728 221 C389.728 223 380.728 222 373.728 218 C310.728 180 244.728 143 173.728 124 C153.728 118 131.728 114 110.728 115 C101.728 116 91.7279 118 83.7279 122 C51.7279 140 61.7279 201 68.7279 236 C78.7279 280 85.7279 325 94.7279 369 C102.728 410 43.7279 420 35.7279 379 C30.7279 357 5.72794 228 2.72794 205 C0.727936 184 -0.272064 162 3.72794 141 C9.72794 118 20.7279 96 38.7279 80 C52.7279 69 70.7279 61 88.7279 58 C119.728 52 151.728 56 182.728 64 L182.728 64 Z " />
<glyph glyph-name="&amp;#xef;" unicode="&#xef;" horiz-adv-x="380" d="M97.7279 510 C66.7279 536 26.7279 491 57.7279 465 C88.7279 438 128.728 484 97.7279 510 L97.7279 510 Z M182.728 64 C260.728 84 333.728 124 403.728 166 C425.728 180 422.728 214 396.728 221 C389.728 223 380.728 222 373.728 218 C310.728 180 244.728 143 173.728 124 C153.728 118 131.728 114 110.728 115 C101.728 116 91.7279 118 83.7279 122 C51.7279 140 61.7279 201 68.7279 236 C78.7279 280 85.7279 325 94.7279 369 C102.728 410 43.7279 420 35.7279 379 C30.7279 357 5.72794 228 2.72794 205 C0.727936 184 -0.272064 162 3.72794 141 C9.72794 118 20.7279 96 38.7279 80 C52.7279 69 70.7279 61 88.7279 58 C119.728 52 151.728 56 182.728 64 L182.728 64 Z " />
<glyph glyph-name="j" unicode="j" horiz-adv-x="404" d="M155.464 504 C150.464 531 116.464 538 98.4644 517 C85.4644 502 92.4644 479 110.464 469 C134.464 456 160.464 477 155.464 504 L155.464 504 Z M-34.5356 -161 C-2.53564 -142 20.4644 -111 39.4644 -79 C71.4644 -25 86.4644 39 98.4644 102 C200.464 136 308.464 153 415.464 167 C418.464 167 422.464 168 426.464 169 C457.464 184 443.464 231 409.464 226 C309.464 213 207.464 198 110.464 169 C114.464 193 136.464 330 138.464 355 C139.464 369 142.464 384 136.464 397 C123.464 428 76.4644 416 79.4644 382 C80.4644 367 71.4644 297 68.4644 283 C61.4644 237 54.4644 192 45.4644 146 C-9.53564 125 -63.5356 98 -108.536 60 C-142.536 30 -174.536 -7 -189.536 -51 C-197.536 -74 -199.536 -101 -191.536 -124 C-187.536 -138 -180.536 -150 -170.536 -160 C-157.536 -172 -140.536 -179 -122.536 -182 C-92.5356 -187 -59.5356 -177 -34.5356 -161 L-34.5356 -161 Z M-129.536 -115 C-138.536 -104 -137.536 -86 -133.536 -73 C-125.536 -43 -103.536 -17 -80.5356 5 C-47.5356 35 -8.53564 57 31.4644 75 C15.4644 0 -27.5356 -120 -105.536 -123 C-113.536 -123 -124.536 -122 -129.536 -115 L-129.536 -115 Z " />
<glyph glyph-name="k" unicode="k" horiz-adv-x="516" d="M338.366 46 C374.366 53 408.366 67 440.366 85 C481.366 110 518.366 145 548.366 182 C563.366 201 551.366 228 527.366 230 C518.366 231 508.366 228 503.366 221 C474.366 187 441.366 155 403.366 133 C375.366 117 343.366 106 310.366 103 C258.366 98 200.366 115 160.366 149 C144.366 163 130.366 180 120.366 199 C177.366 215 230.366 257 260.366 308 C271.366 327 281.366 347 285.366 368 C287.366 382 286.366 397 280.366 409 C263.366 438 226.366 447 197.366 430 C168.366 414 143.366 389 122.366 362 C105.366 341 91.3656 317 77.3656 294 C83.3656 355 120.366 653 138.366 711 C139.366 715 141.366 717 142.366 721 C150.366 748 119.366 769 96.3656 753 C79.3656 741 71.3656 687 67.3656 666 C36.3656 478 13.3656 288 0.365646 98 C-2.63435 56 56.3656 52 60.3656 95 C62.3656 117 67.3656 138 74.3656 159 C98.3656 119 137.366 86 180.366 66 C228.366 44 286.366 37 338.366 46 L338.366 46 Z M212.366 369 C214.366 370 223.366 376 225.366 377 C227.366 378 226.366 376 225.366 373 C221.366 358 213.366 344 204.366 332 C186.366 304 160.366 281 130.366 267 C153.366 304 177.366 344 212.366 369 L212.366 369 Z " />
<glyph glyph-name="l" unicode="l" horiz-adv-x="451" d="M292.633 39 C362.633 66 424.633 114 478.633 167 C510.633 199 468.633 242 436.633 210 C399.633 174 359.633 141 314.633 116 C277.633 95 236.633 79 194.633 78 C170.633 77 145.633 81 125.633 93 C107.633 102 93.6333 119 85.6333 137 C70.6333 165 63.6333 197 61.6333 229 C57.6333 287 65.6333 347 72.6333 405 C84.6333 500 101.633 594 130.633 685 C142.633 720 91.6333 740 75.6333 707 C73.6333 704 69.6333 690 68.6333 687 C39.6333 590 22.6333 489 10.6333 389 C4.63326 338 -1.36674 287 0.633255 236 C2.63326 189 13.6333 140 36.6333 100 C48.6333 80 64.6333 61 84.6333 48 C107.633 32 135.633 22 163.633 19 C206.633 14 251.633 23 292.633 39 L292.633 39 Z " />
<glyph glyph-name="m" unicode="m" horiz-adv-x="746" d="M539.744 -6 C579.744 -1 616.744 19 649.744 41 C697.744 75 739.744 118 772.744 166 C778.744 175 785.744 185 785.744 195 C785.744 221 755.744 235 736.744 218 C732.744 215 729.744 210 726.744 206 C698.744 162 661.744 123 618.744 93 C589.744 72 553.744 53 517.744 53 C489.744 52 461.744 70 449.744 95 C438.744 117 437.744 144 440.744 168 C443.744 205 452.744 241 461.744 277 C466.744 298 471.744 319 471.744 341 C471.744 355 467.744 371 458.744 381 C448.744 394 431.744 402 415.744 405 C395.744 408 374.744 403 357.744 395 C327.744 380 301.744 355 281.744 329 C283.744 352 285.744 378 272.744 397 C259.744 418 236.744 427 212.744 421 C181.744 413 154.744 390 133.744 365 C108.744 337 87.7445 306 69.7445 274 C71.7445 289 79.7445 368 84.7445 383 C84.7445 385 85.7445 387 86.7445 389 C92.7445 427 39.7445 439 27.7445 403 C19.7445 378 6.74449 252 4.74449 226 C2.74449 198 -5.25551 110 8.74449 86 C22.7445 63 54.7445 68 63.7445 93 C77.7445 128 84.7445 166 100.744 200 C120.744 246 146.744 291 180.744 328 C192.744 341 205.744 355 222.744 362 C225.744 342 221.744 321 217.744 301 C210.744 258 203.744 216 196.744 173 C194.744 159 184.744 110 189.744 97 C199.744 70 238.744 70 246.744 97 C255.744 132 264.744 166 278.744 199 C291.744 231 307.744 262 327.744 290 C343.744 311 362.744 333 387.744 342 C393.744 345 401.744 347 408.744 345 C414.744 343 411.744 334 410.744 328 C406.744 299 397.744 270 390.744 240 C380.744 194 372.744 144 385.744 98 C388.744 84 393.744 70 401.744 58 C417.744 33 441.744 13 468.744 2 C490.744 -7 515.744 -9 539.744 -6 L539.744 -6 Z " />
<glyph glyph-name="n" unicode="n" horiz-adv-x="662" d="M388.484 -21 C431.484 -19 474.484 -2 511.484 19 C561.484 47 607.484 82 648.484 123 C658.484 132 694.484 168 698.484 181 C710.484 213 667.484 237 646.484 210 C625.484 181 598.484 156 570.484 133 C537.484 105 501.484 80 462.484 60 C441.484 50 418.484 42 395.484 39 C378.484 37 358.484 39 344.484 49 C324.484 63 314.484 91 311.484 115 C308.484 147 314.484 180 321.484 212 C328.484 249 335.484 285 338.484 322 C339.484 338 339.484 355 334.484 370 C323.484 409 275.484 422 235.484 412 C213.484 406 192.484 394 174.484 379 C134.484 346 102.484 303 74.4845 259 C77.4845 276 90.4845 369 93.4845 386 C94.4845 391 95.4845 396 94.4845 400 C88.4845 433 41.4845 433 35.4845 400 C26.4845 352 19.4845 304 13.4845 255 C10.4845 230 -3.51552 118 1.48448 93 C5.48448 68 37.4845 60 53.4845 79 C60.4845 87 74.4845 128 78.4845 137 C95.4845 176 116.484 215 140.484 250 C161.484 281 185.484 312 215.484 334 C231.484 347 261.484 363 277.484 351 C283.484 321 253.484 184 251.484 154 C249.484 118 253.484 79 269.484 47 C280.484 26 297.484 6 318.484 -5 C339.484 -17 364.484 -23 388.484 -21 L388.484 -21 Z " />
<glyph glyph-name="&amp;#xf1;" unicode="&#xf1;" horiz-adv-x="662" d="M388.484 -21 C431.484 -19 474.484 -2 511.484 19 C561.484 47 607.484 82 648.484 123 C658.484 132 694.484 168 698.484 181 C710.484 213 667.484 237 646.484 210 C625.484 181 598.484 156 570.484 133 C537.484 105 501.484 80 462.484 60 C441.484 50 418.484 42 395.484 39 C378.484 37 358.484 39 344.484 49 C324.484 63 314.484 91 311.484 115 C308.484 147 314.484 180 321.484 212 C328.484 249 335.484 285 338.484 322 C339.484 338 339.484 355 334.484 370 C323.484 409 275.484 422 235.484 412 C213.484 406 192.484 394 174.484 379 C134.484 346 102.484 303 74.4845 259 C77.4845 276 90.4845 369 93.4845 386 C94.4845 391 95.4845 396 94.4845 400 C88.4845 433 41.4845 433 35.4845 400 C26.4845 352 19.4845 304 13.4845 255 C10.4845 230 -3.51552 118 1.48448 93 C5.48448 68 37.4845 60 53.4845 79 C60.4845 87 74.4845 128 78.4845 137 C95.4845 176 116.484 215 140.484 250 C161.484 281 185.484 312 215.484 334 C231.484 347 261.484 363 277.484 351 C283.484 321 253.484 184 251.484 154 C249.484 118 253.484 79 269.484 47 C280.484 26 297.484 6 318.484 -5 C339.484 -17 364.484 -23 388.484 -21 L388.484 -21 Z " />
<glyph glyph-name="o" unicode="o" horiz-adv-x="554" d="M154.975 61 C185.975 70 211.975 91 232.975 114 C336.975 94 451.975 113 547.975 157 C551.975 159 574.975 169 577.975 172 C606.975 189 590.975 233 557.975 227 C552.975 226 547.975 224 543.975 221 C459.975 180 360.975 157 268.975 169 C289.975 215 300.975 271 289.975 320 C285.975 341 277.975 362 264.975 379 C244.975 405 213.975 424 181.975 433 C151.975 441 116.975 442 87.9746 430 C70.9746 423 54.9746 412 42.9746 399 C29.9746 383 20.9746 364 16.9746 344 C10.9746 318 14.9746 290 23.9746 264 C-11.0254 215 -7.02544 138 32.9746 92 C48.9746 74 72.9746 62 95.9746 57 C115.975 53 136.975 55 154.975 61 L154.975 61 Z M93.9746 258 C72.9746 288 63.9746 337 90.9746 362 C102.975 374 121.975 380 138.975 379 C156.975 378 175.975 374 191.975 364 C204.975 356 218.975 345 223.975 331 C243.975 285 231.975 226 208.975 183 C164.975 198 120.975 221 93.9746 258 L93.9746 258 Z M61.9746 203 C90.9746 173 127.975 149 166.975 134 C154.975 124 138.975 117 122.975 115 C77.9746 111 53.9746 159 61.9746 203 L61.9746 203 Z " />
<glyph glyph-name="&amp;#xf2;" unicode="&#xf2;" horiz-adv-x="554" d="M154.975 61 C185.975 70 211.975 91 232.975 114 C336.975 94 451.975 113 547.975 157 C551.975 159 574.975 169 577.975 172 C606.975 189 590.975 233 557.975 227 C552.975 226 547.975 224 543.975 221 C459.975 180 360.975 157 268.975 169 C289.975 215 300.975 271 289.975 320 C285.975 341 277.975 362 264.975 379 C244.975 405 213.975 424 181.975 433 C151.975 441 116.975 442 87.9746 430 C70.9746 423 54.9746 412 42.9746 399 C29.9746 383 20.9746 364 16.9746 344 C10.9746 318 14.9746 290 23.9746 264 C-11.0254 215 -7.02544 138 32.9746 92 C48.9746 74 72.9746 62 95.9746 57 C115.975 53 136.975 55 154.975 61 L154.975 61 Z M93.9746 258 C72.9746 288 63.9746 337 90.9746 362 C102.975 374 121.975 380 138.975 379 C156.975 378 175.975 374 191.975 364 C204.975 356 218.975 345 223.975 331 C243.975 285 231.975 226 208.975 183 C164.975 198 120.975 221 93.9746 258 L93.9746 258 Z M61.9746 203 C90.9746 173 127.975 149 166.975 134 C154.975 124 138.975 117 122.975 115 C77.9746 111 53.9746 159 61.9746 203 L61.9746 203 Z " />
<glyph glyph-name="&amp;#xf3;" unicode="&#xf3;" horiz-adv-x="554" d="M154.975 61 C185.975 70 211.975 91 232.975 114 C336.975 94 451.975 113 547.975 157 C551.975 159 574.975 169 577.975 172 C606.975 189 590.975 233 557.975 227 C552.975 226 547.975 224 543.975 221 C459.975 180 360.975 157 268.975 169 C289.975 215 300.975 271 289.975 320 C285.975 341 277.975 362 264.975 379 C244.975 405 213.975 424 181.975 433 C151.975 441 116.975 442 87.9746 430 C70.9746 423 54.9746 412 42.9746 399 C29.9746 383 20.9746 364 16.9746 344 C10.9746 318 14.9746 290 23.9746 264 C-11.0254 215 -7.02544 138 32.9746 92 C48.9746 74 72.9746 62 95.9746 57 C115.975 53 136.975 55 154.975 61 L154.975 61 Z M93.9746 258 C72.9746 288 63.9746 337 90.9746 362 C102.975 374 121.975 380 138.975 379 C156.975 378 175.975 374 191.975 364 C204.975 356 218.975 345 223.975 331 C243.975 285 231.975 226 208.975 183 C164.975 198 120.975 221 93.9746 258 L93.9746 258 Z M61.9746 203 C90.9746 173 127.975 149 166.975 134 C154.975 124 138.975 117 122.975 115 C77.9746 111 53.9746 159 61.9746 203 L61.9746 203 Z " />
<glyph glyph-name="&amp;#xf4;" unicode="&#xf4;" horiz-adv-x="554" d="M154.975 61 C185.975 70 211.975 91 232.975 114 C336.975 94 451.975 113 547.975 157 C551.975 159 574.975 169 577.975 172 C606.975 189 590.975 233 557.975 227 C552.975 226 547.975 224 543.975 221 C459.975 180 360.975 157 268.975 169 C289.975 215 300.975 271 289.975 320 C285.975 341 277.975 362 264.975 379 C244.975 405 213.975 424 181.975 433 C151.975 441 116.975 442 87.9746 430 C70.9746 423 54.9746 412 42.9746 399 C29.9746 383 20.9746 364 16.9746 344 C10.9746 318 14.9746 290 23.9746 264 C-11.0254 215 -7.02544 138 32.9746 92 C48.9746 74 72.9746 62 95.9746 57 C115.975 53 136.975 55 154.975 61 L154.975 61 Z M93.9746 258 C72.9746 288 63.9746 337 90.9746 362 C102.975 374 121.975 380 138.975 379 C156.975 378 175.975 374 191.975 364 C204.975 356 218.975 345 223.975 331 C243.975 285 231.975 226 208.975 183 C164.975 198 120.975 221 93.9746 258 L93.9746 258 Z M61.9746 203 C90.9746 173 127.975 149 166.975 134 C154.975 124 138.975 117 122.975 115 C77.9746 111 53.9746 159 61.9746 203 L61.9746 203 Z " />
<glyph glyph-name="&amp;#xf5;" unicode="&#xf5;" horiz-adv-x="554" d="M154.975 61 C185.975 70 211.975 91 232.975 114 C336.975 94 451.975 113 547.975 157 C551.975 159 574.975 169 577.975 172 C606.975 189 590.975 233 557.975 227 C552.975 226 547.975 224 543.975 221 C459.975 180 360.975 157 268.975 169 C289.975 215 300.975 271 289.975 320 C285.975 341 277.975 362 264.975 379 C244.975 405 213.975 424 181.975 433 C151.975 441 116.975 442 87.9746 430 C70.9746 423 54.9746 412 42.9746 399 C29.9746 383 20.9746 364 16.9746 344 C10.9746 318 14.9746 290 23.9746 264 C-11.0254 215 -7.02544 138 32.9746 92 C48.9746 74 72.9746 62 95.9746 57 C115.975 53 136.975 55 154.975 61 L154.975 61 Z M93.9746 258 C72.9746 288 63.9746 337 90.9746 362 C102.975 374 121.975 380 138.975 379 C156.975 378 175.975 374 191.975 364 C204.975 356 218.975 345 223.975 331 C243.975 285 231.975 226 208.975 183 C164.975 198 120.975 221 93.9746 258 L93.9746 258 Z M61.9746 203 C90.9746 173 127.975 149 166.975 134 C154.975 124 138.975 117 122.975 115 C77.9746 111 53.9746 159 61.9746 203 L61.9746 203 Z " />
<glyph glyph-name="&amp;#xf6;" unicode="&#xf6;" horiz-adv-x="554" d="M154.975 61 C185.975 70 211.975 91 232.975 114 C336.975 94 451.975 113 547.975 157 C551.975 159 574.975 169 577.975 172 C606.975 189 590.975 233 557.975 227 C552.975 226 547.975 224 543.975 221 C459.975 180 360.975 157 268.975 169 C289.975 215 300.975 271 289.975 320 C285.975 341 277.975 362 264.975 379 C244.975 405 213.975 424 181.975 433 C151.975 441 116.975 442 87.9746 430 C70.9746 423 54.9746 412 42.9746 399 C29.9746 383 20.9746 364 16.9746 344 C10.9746 318 14.9746 290 23.9746 264 C-11.0254 215 -7.02544 138 32.9746 92 C48.9746 74 72.9746 62 95.9746 57 C115.975 53 136.975 55 154.975 61 L154.975 61 Z M93.9746 258 C72.9746 288 63.9746 337 90.9746 362 C102.975 374 121.975 380 138.975 379 C156.975 378 175.975 374 191.975 364 C204.975 356 218.975 345 223.975 331 C243.975 285 231.975 226 208.975 183 C164.975 198 120.975 221 93.9746 258 L93.9746 258 Z M61.9746 203 C90.9746 173 127.975 149 166.975 134 C154.975 124 138.975 117 122.975 115 C77.9746 111 53.9746 159 61.9746 203 L61.9746 203 Z " />
<glyph glyph-name="&amp;#xf8;" unicode="&#xf8;" horiz-adv-x="554" d="M154.975 61 C185.975 70 211.975 91 232.975 114 C336.975 94 451.975 113 547.975 157 C551.975 159 574.975 169 577.975 172 C606.975 189 590.975 233 557.975 227 C552.975 226 547.975 224 543.975 221 C459.975 180 360.975 157 268.975 169 C289.975 215 300.975 271 289.975 320 C285.975 341 277.975 362 264.975 379 C244.975 405 213.975 424 181.975 433 C151.975 441 116.975 442 87.9746 430 C70.9746 423 54.9746 412 42.9746 399 C29.9746 383 20.9746 364 16.9746 344 C10.9746 318 14.9746 290 23.9746 264 C-11.0254 215 -7.02544 138 32.9746 92 C48.9746 74 72.9746 62 95.9746 57 C115.975 53 136.975 55 154.975 61 L154.975 61 Z M93.9746 258 C72.9746 288 63.9746 337 90.9746 362 C102.975 374 121.975 380 138.975 379 C156.975 378 175.975 374 191.975 364 C204.975 356 218.975 345 223.975 331 C243.975 285 231.975 226 208.975 183 C164.975 198 120.975 221 93.9746 258 L93.9746 258 Z M61.9746 203 C90.9746 173 127.975 149 166.975 134 C154.975 124 138.975 117 122.975 115 C77.9746 111 53.9746 159 61.9746 203 L61.9746 203 Z " />
<glyph glyph-name="p" unicode="p" horiz-adv-x="608" d="M37.6516 -190 C40.6516 -185 44.6516 -161 45.6516 -155 C60.6516 -58 76.6516 39 106.652 132 C126.652 195 150.652 258 189.652 310 C203.652 329 218.652 347 238.652 359 C247.652 364 260.652 366 268.652 360 C294.652 342 288.652 282 281.652 252 C254.652 245 227.652 235 203.652 220 C172.652 200 141.652 169 134.652 133 C130.652 115 134.652 94 145.652 80 C171.652 50 221.652 63 253.652 86 C290.652 112 314.652 156 329.652 199 C368.652 205 408.652 203 447.652 199 C502.652 194 556.652 184 610.652 172 C651.652 163 661.652 222 621.652 231 C530.652 251 437.652 268 344.652 261 C355.652 331 336.652 417 265.652 423 C253.652 424 241.652 423 229.652 420 C209.652 414 190.652 400 175.652 385 C129.652 340 98.6516 281 74.6516 221 C79.6516 278 85.6516 334 90.6516 391 C93.6516 432 30.6516 435 30.6516 393 C30.6516 388 26.6516 356 26.6516 350 C11.6516 188 -6.34845 26 -17.3484 -136 C-17.3484 -143 -19.3484 -173 -18.3484 -180 C-13.3484 -207 23.6516 -214 37.6516 -190 L37.6516 -190 Z M205.652 142 C218.652 159 236.652 171 255.652 180 C242.652 155 221.652 128 193.652 123 C196.652 130 200.652 137 205.652 142 L205.652 142 Z " />
<glyph glyph-name="q" unicode="q" horiz-adv-x="693" d="M269.801 -223 C292.801 -202 306.801 -172 317.801 -143 C326.801 -117 334.801 -90 338.801 -63 C346.801 -9 344.801 49 324.801 99 C369.801 87 416.801 82 463.801 82 C518.801 82 574.801 89 626.801 108 C663.801 122 700.801 141 724.801 171 C747.801 199 710.801 237 682.801 213 C681.801 212 674.801 205 673.801 204 C659.801 191 642.801 180 624.801 172 C583.801 154 536.801 145 491.801 143 C440.801 141 388.801 145 339.801 157 C319.801 162 299.801 169 279.801 175 C289.801 239 305.801 303 316.801 367 C322.801 405 272.801 418 258.801 383 C246.801 353 234.801 324 221.801 295 C209.801 333 188.801 372 155.801 394 C125.801 414 83.8009 411 55.8009 387 C34.8009 367 20.8009 339 12.8009 312 C-7.19911 242 -7.19911 120 52.8009 80 C65.8009 71 83.8009 69 100.801 71 C120.801 74 139.801 84 155.801 96 C179.801 114 199.801 138 217.801 163 C209.801 103 180.801 -135 195.801 -193 C197.801 -204 201.801 -215 208.801 -224 C225.801 -242 252.801 -241 269.801 -223 L269.801 -223 Z M84.8009 131 C82.8009 131 79.8009 135 79.8009 136 C52.8009 173 57.8009 268 75.8009 310 C81.8009 325 95.8009 349 111.801 347 C135.801 345 155.801 303 163.801 280 C164.801 275 169.801 251 172.801 246 C176.801 240 182.801 234 190.801 232 C172.801 201 150.801 170 122.801 147 C114.801 140 94.8009 128 84.8009 131 L84.8009 131 Z M267.801 80 C275.801 59 280.801 37 282.801 15 C286.801 -40 274.801 -98 250.801 -148 C250.801 -72 259.801 4 267.801 80 L267.801 80 Z " />
<glyph glyph-name="r" unicode="r" horiz-adv-x="327" d="M56.1124 59 C60.1124 66 71.1124 101 72.1124 110 C83.1124 163 104.112 216 130.112 264 C150.112 300 173.112 336 205.112 360 C216.112 369 234.112 379 244.112 369 C246.112 367 247.112 359 247.112 356 C247.112 342 244.112 328 240.112 315 C236.112 304 217.112 258 217.112 247 C217.112 213 264.112 206 275.112 238 C287.112 271 303.112 304 306.112 339 C308.112 363 305.112 390 290.112 408 C274.112 426 245.112 436 220.112 432 C193.112 428 168.112 410 149.112 391 C122.112 365 100.112 333 82.1124 300 C87.1124 330 92.1124 360 98.1124 390 C107.112 430 48.1124 440 39.1124 400 C17.1124 293 3.1124 184 0.112396 75 C-0.887604 43 40.1124 32 56.1124 59 L56.1124 59 Z " />
<glyph glyph-name="s" unicode="s" horiz-adv-x="480" d="M107.433 -18 C147.433 -2 186.433 26 209.433 63 C218.433 77 225.433 93 229.433 109 C288.433 126 349.433 141 410.433 149 C432.433 152 454.433 155 477.433 155 C484.433 155 492.433 155 499.433 157 C531.433 169 522.433 216 488.433 215 C396.433 214 304.433 192 215.433 167 C213.433 167 210.433 171 209.433 172 C193.433 183 174.433 189 156.433 194 C132.433 200 108.433 204 84.4334 209 C70.4334 212 56.4334 223 52.4334 237 C47.4334 255 56.4334 275 65.4334 292 C80.4334 320 101.433 346 128.433 363 C139.433 369 151.433 377 164.433 378 C170.433 372 176.433 348 177.433 340 C177.433 335 177.433 330 178.433 326 C184.433 289 237.433 295 237.433 332 C238.433 355 232.433 378 222.433 398 C214.433 414 201.433 428 185.433 435 C167.433 442 145.433 437 127.433 430 C57.4334 403 -15.5666 309 -7.56657 234 C-5.56657 207 14.4334 179 37.4334 165 C63.4334 149 96.4334 146 126.433 140 C93.4334 128 60.4334 115 31.4334 96 C7.43343 81 -16.5666 62 -27.5666 37 C-39.5666 10 -22.5666 -19 5.43343 -27 C38.4334 -36 75.4334 -30 107.433 -18 L107.433 -18 Z M151.433 85 C124.433 53 82.4334 30 41.4334 29 C72.4334 56 112.433 72 151.433 85 L151.433 85 Z " />
<glyph glyph-name="t" unicode="t" horiz-adv-x="151" d="M65.6306 -192 C70.6306 -148 89.6306 118 92.6306 162 C94.6306 201 115.631 441 119.631 480 C206.631 477 293.631 474 379.631 479 C398.631 480 467.631 484 483.631 494 C512.631 510 496.631 555 463.631 549 C445.631 546 426.631 542 408.631 541 C314.631 533 219.631 536 124.631 540 C129.631 592 134.631 643 140.631 695 C142.631 711 152.631 771 147.631 787 C135.631 818 89.6306 810 89.6306 776 C89.6306 753 84.6306 731 81.6306 708 C75.6306 653 70.6306 598 65.6306 542 C40.6306 544 -89.3694 550 -113.369 554 C-125.369 556 -173.369 560 -184.369 558 C-212.369 554 -218.369 517 -194.369 503 C-183.369 496 -131.369 495 -118.369 494 C-111.369 493 -105.369 491 -99.3694 489 C-57.3694 474 27.6306 424 38.6306 381 C43.6306 360 42.6306 338 41.6306 317 C34.6306 158 17.6306 0 7.63055 -158 C7.63055 -168 6.63055 -178 6.63055 -188 C4.63055 -225 62.6306 -229 65.6306 -192 L65.6306 -192 Z M28.6306 484 C38.6306 484 49.6306 483 59.6306 483 C58.6306 475 58.6306 467 57.6306 459 C48.6306 468 38.6306 476 28.6306 484 L28.6306 484 Z " />
<glyph glyph-name="u" unicode="u" horiz-adv-x="654" d="M351.089 -1 C404.089 1 456.089 21 503.089 45 C568.089 78 628.089 120 683.089 167 C712.089 192 673.089 237 644.089 213 C594.089 170 539.089 131 480.089 100 C438.089 79 392.089 60 344.089 59 C328.089 58 310.089 61 298.089 71 C285.089 82 278.089 100 275.089 117 C271.089 137 271.089 157 272.089 177 C275.089 231 288.089 284 303.089 336 C307.089 349 313.089 364 309.089 377 C303.089 400 278.089 409 259.089 396 C255.089 392 251.089 388 248.089 384 C228.089 358 217.089 327 201.089 299 C179.089 259 151.089 222 116.089 193 C107.089 186 86.0886 171 74.0886 175 C70.0886 176 66.0886 186 65.0886 191 C60.0886 208 60.0886 227 60.0886 245 C62.0886 294 64.0886 343 76.0886 390 C83.0886 417 52.0886 438 30.0886 422 C16.0886 412 14.0886 393 11.0886 377 C8.08856 353 6.08856 330 4.08856 306 C1.08856 273 -1.91144 239 2.08856 206 C4.08856 184 9.08856 161 22.0886 143 C37.0886 123 58.0886 113 83.0886 114 C105.089 116 126.089 127 144.089 140 C172.089 159 195.089 184 215.089 211 C208.089 157 209.089 94 239.089 48 C249.089 32 266.089 18 284.089 10 C304.089 0 328.089 -2 351.089 -1 L351.089 -1 Z " />
<glyph glyph-name="&amp;#xf9;" unicode="&#xf9;" horiz-adv-x="654" d="M351.089 -1 C404.089 1 456.089 21 503.089 45 C568.089 78 628.089 120 683.089 167 C712.089 192 673.089 237 644.089 213 C594.089 170 539.089 131 480.089 100 C438.089 79 392.089 60 344.089 59 C328.089 58 310.089 61 298.089 71 C285.089 82 278.089 100 275.089 117 C271.089 137 271.089 157 272.089 177 C275.089 231 288.089 284 303.089 336 C307.089 349 313.089 364 309.089 377 C303.089 400 278.089 409 259.089 396 C255.089 392 251.089 388 248.089 384 C228.089 358 217.089 327 201.089 299 C179.089 259 151.089 222 116.089 193 C107.089 186 86.0886 171 74.0886 175 C70.0886 176 66.0886 186 65.0886 191 C60.0886 208 60.0886 227 60.0886 245 C62.0886 294 64.0886 343 76.0886 390 C83.0886 417 52.0886 438 30.0886 422 C16.0886 412 14.0886 393 11.0886 377 C8.08856 353 6.08856 330 4.08856 306 C1.08856 273 -1.91144 239 2.08856 206 C4.08856 184 9.08856 161 22.0886 143 C37.0886 123 58.0886 113 83.0886 114 C105.089 116 126.089 127 144.089 140 C172.089 159 195.089 184 215.089 211 C208.089 157 209.089 94 239.089 48 C249.089 32 266.089 18 284.089 10 C304.089 0 328.089 -2 351.089 -1 L351.089 -1 Z " />
<glyph glyph-name="&amp;#xfa;" unicode="&#xfa;" horiz-adv-x="654" d="M351.089 -1 C404.089 1 456.089 21 503.089 45 C568.089 78 628.089 120 683.089 167 C712.089 192 673.089 237 644.089 213 C594.089 170 539.089 131 480.089 100 C438.089 79 392.089 60 344.089 59 C328.089 58 310.089 61 298.089 71 C285.089 82 278.089 100 275.089 117 C271.089 137 271.089 157 272.089 177 C275.089 231 288.089 284 303.089 336 C307.089 349 313.089 364 309.089 377 C303.089 400 278.089 409 259.089 396 C255.089 392 251.089 388 248.089 384 C228.089 358 217.089 327 201.089 299 C179.089 259 151.089 222 116.089 193 C107.089 186 86.0886 171 74.0886 175 C70.0886 176 66.0886 186 65.0886 191 C60.0886 208 60.0886 227 60.0886 245 C62.0886 294 64.0886 343 76.0886 390 C83.0886 417 52.0886 438 30.0886 422 C16.0886 412 14.0886 393 11.0886 377 C8.08856 353 6.08856 330 4.08856 306 C1.08856 273 -1.91144 239 2.08856 206 C4.08856 184 9.08856 161 22.0886 143 C37.0886 123 58.0886 113 83.0886 114 C105.089 116 126.089 127 144.089 140 C172.089 159 195.089 184 215.089 211 C208.089 157 209.089 94 239.089 48 C249.089 32 266.089 18 284.089 10 C304.089 0 328.089 -2 351.089 -1 L351.089 -1 Z " />
<glyph glyph-name="&amp;#xfb;" unicode="&#xfb;" horiz-adv-x="654" d="M351.089 -1 C404.089 1 456.089 21 503.089 45 C568.089 78 628.089 120 683.089 167 C712.089 192 673.089 237 644.089 213 C594.089 170 539.089 131 480.089 100 C438.089 79 392.089 60 344.089 59 C328.089 58 310.089 61 298.089 71 C285.089 82 278.089 100 275.089 117 C271.089 137 271.089 157 272.089 177 C275.089 231 288.089 284 303.089 336 C307.089 349 313.089 364 309.089 377 C303.089 400 278.089 409 259.089 396 C255.089 392 251.089 388 248.089 384 C228.089 358 217.089 327 201.089 299 C179.089 259 151.089 222 116.089 193 C107.089 186 86.0886 171 74.0886 175 C70.0886 176 66.0886 186 65.0886 191 C60.0886 208 60.0886 227 60.0886 245 C62.0886 294 64.0886 343 76.0886 390 C83.0886 417 52.0886 438 30.0886 422 C16.0886 412 14.0886 393 11.0886 377 C8.08856 353 6.08856 330 4.08856 306 C1.08856 273 -1.91144 239 2.08856 206 C4.08856 184 9.08856 161 22.0886 143 C37.0886 123 58.0886 113 83.0886 114 C105.089 116 126.089 127 144.089 140 C172.089 159 195.089 184 215.089 211 C208.089 157 209.089 94 239.089 48 C249.089 32 266.089 18 284.089 10 C304.089 0 328.089 -2 351.089 -1 L351.089 -1 Z " />
<glyph glyph-name="&amp;#xfc;" unicode="&#xfc;" horiz-adv-x="654" d="M351.089 -1 C404.089 1 456.089 21 503.089 45 C568.089 78 628.089 120 683.089 167 C712.089 192 673.089 237 644.089 213 C594.089 170 539.089 131 480.089 100 C438.089 79 392.089 60 344.089 59 C328.089 58 310.089 61 298.089 71 C285.089 82 278.089 100 275.089 117 C271.089 137 271.089 157 272.089 177 C275.089 231 288.089 284 303.089 336 C307.089 349 313.089 364 309.089 377 C303.089 400 278.089 409 259.089 396 C255.089 392 251.089 388 248.089 384 C228.089 358 217.089 327 201.089 299 C179.089 259 151.089 222 116.089 193 C107.089 186 86.0886 171 74.0886 175 C70.0886 176 66.0886 186 65.0886 191 C60.0886 208 60.0886 227 60.0886 245 C62.0886 294 64.0886 343 76.0886 390 C83.0886 417 52.0886 438 30.0886 422 C16.0886 412 14.0886 393 11.0886 377 C8.08856 353 6.08856 330 4.08856 306 C1.08856 273 -1.91144 239 2.08856 206 C4.08856 184 9.08856 161 22.0886 143 C37.0886 123 58.0886 113 83.0886 114 C105.089 116 126.089 127 144.089 140 C172.089 159 195.089 184 215.089 211 C208.089 157 209.089 94 239.089 48 C249.089 32 266.089 18 284.089 10 C304.089 0 328.089 -2 351.089 -1 L351.089 -1 Z " />
<glyph glyph-name="v" unicode="v" horiz-adv-x="666" d="M101.548 104 C127.548 106 150.548 127 167.548 147 C199.548 181 228.548 220 252.548 261 C278.548 227 311.548 198 347.548 177 C382.548 157 422.548 144 462.548 139 C525.548 131 592.548 142 652.548 163 C659.548 165 688.548 176 694.548 181 C720.548 203 694.548 244 663.548 231 C610.548 209 551.548 194 493.548 196 C460.548 198 427.548 205 397.548 219 C351.548 240 311.548 277 284.548 319 C301.548 354 317.548 389 329.548 426 C338.548 455 346.548 486 341.548 517 C335.548 556 298.548 584 258.548 578 C245.548 576 231.548 569 220.548 560 C200.548 543 186.548 518 181.548 492 C170.548 434 188.548 370 215.548 317 C194.548 279 170.548 242 142.548 208 C131.548 195 120.548 182 107.548 171 C88.5481 226 85.5481 285 75.5481 342 C73.5481 352 61.5481 408 61.5481 418 C60.5481 428 59.5481 439 53.5481 446 C35.5481 467 1.54813 454 0.548126 426 C0.548126 409 17.5481 323 20.5481 307 C26.5481 263 31.5481 220 42.5481 178 C48.5481 158 53.5481 137 65.5481 121 C73.5481 111 88.5481 103 101.548 104 L101.548 104 Z M238.548 468 C239.548 480 242.548 492 248.548 502 C256.548 515 271.548 525 279.548 513 C287.548 503 280.548 472 277.548 460 C270.548 435 260.548 411 249.548 387 C241.548 413 235.548 441 238.548 468 L238.548 468 Z " />
<glyph glyph-name="w" unicode="w" horiz-adv-x="859" d="M139.093 104 C167.093 117 192.093 140 210.093 165 C219.093 136 242.093 108 270.093 99 C297.093 90 330.093 97 356.093 110 C380.093 123 399.093 143 416.093 164 C432.093 185 447.093 207 460.093 230 C510.093 191 573.093 166 636.093 157 C699.093 148 764.093 150 825.093 165 C835.093 167 875.093 177 883.093 181 C912.093 198 895.093 243 862.093 237 C860.093 236 845.093 232 843.093 231 C778.093 212 707.093 206 640.093 217 C584.093 226 529.093 251 486.093 287 C500.093 324 508.093 365 509.093 405 C509.093 432 504.093 461 490.093 485 C478.093 505 453.093 525 429.093 523 C378.093 518 353.093 460 356.093 408 C359.093 360 384.093 312 415.093 274 C402.093 248 385.093 222 367.093 199 C356.093 185 343.093 172 327.093 163 C314.093 156 295.093 150 283.093 159 C267.093 170 263.093 196 264.093 216 C266.093 239 271.093 261 276.093 284 C283.093 317 237.093 335 221.093 305 C204.093 273 189.093 240 169.093 210 C153.093 186 117.093 148 90.0926 153 C77.0926 155 68.0926 179 65.0926 192 C57.0926 227 58.0926 266 66.0926 302 C70.0926 323 76.0926 344 88.0926 362 C90.0926 366 95.0926 369 98.0926 373 C121.093 401 84.0926 439 56.0926 416 C3.09261 373 -9.90739 245 7.09261 179 C13.0926 154 24.0926 129 43.0926 112 C55.0926 101 73.0926 94 89.0926 93 C106.093 91 124.093 97 139.093 104 L139.093 104 Z M423.093 377 C415.093 398 414.093 423 421.093 445 C422.093 449 428.093 460 432.093 462 C457.093 441 448.093 374 440.093 342 C434.093 353 428.093 365 423.093 377 L423.093 377 Z " />
<glyph glyph-name="x" unicode="x" horiz-adv-x="645" d="M380.754 55 C446.754 59 512.754 80 572.754 108 C588.754 115 658.754 153 672.754 164 C700.754 188 668.754 232 637.754 212 C576.754 174 511.754 141 441.754 125 C402.754 115 360.754 111 320.754 116 C301.754 119 282.754 123 264.754 131 C230.754 147 201.754 174 178.754 203 C201.754 227 224.754 251 244.754 277 C268.754 310 287.754 345 304.754 382 C317.754 413 275.754 438 253.754 412 C248.754 406 246.754 398 242.754 391 C218.754 341 183.754 294 144.754 254 C131.754 276 72.7535 392 55.7535 412 C29.7535 443 -18.2465 405 8.75351 374 C24.7535 354 87.7535 232 100.754 210 C82.7535 190 25.7535 121 20.7535 94 C15.7535 61 60.7535 45 76.7535 75 C93.7535 105 113.754 134 136.754 160 C170.754 117 217.754 79 270.754 65 C306.754 55 343.754 52 380.754 55 L380.754 55 Z " />
<glyph glyph-name="y" unicode="y" horiz-adv-x="655" d="M106.305 -227 C142.305 -219 175.305 -197 201.305 -170 C236.305 -134 261.305 -88 275.305 -40 C285.305 -5 292.305 31 296.305 67 C411.305 120 535.305 158 661.305 179 C669.305 180 677.305 182 683.305 187 C705.305 205 692.305 240 663.305 240 C660.305 240 641.305 237 638.305 236 C522.305 216 408.305 182 301.305 135 C303.305 203 301.305 271 306.305 339 C308.305 373 259.305 381 247.305 349 C235.305 315 217.305 284 197.305 255 C179.305 226 158.305 197 132.305 175 C122.305 167 109.305 158 97.3052 161 C79.3052 165 68.3052 199 65.3052 217 C56.3052 269 61.3052 323 66.3052 376 C66.3052 377 68.3052 379 68.3052 379 C78.3052 408 44.3052 432 20.3052 413 C13.3052 406 8.30521 396 7.30521 387 C2.30521 337 -2.69479 288 2.30521 238 C5.30521 202 13.3052 164 34.3052 135 C58.3052 104 95.3052 93 132.305 106 C152.305 113 170.305 128 186.305 143 C207.305 164 225.305 189 242.305 214 C242.305 178 241.305 142 239.305 106 C169.305 72 101.305 31 47.3052 -25 C-4.69479 -78 -45.6948 -158 7.30521 -209 C15.3052 -217 27.3052 -223 38.3052 -226 C60.3052 -233 84.3052 -232 106.305 -227 L106.305 -227 Z M44.3052 -161 C37.3052 -144 54.3052 -111 64.3052 -96 C106.305 -39 169.305 1 231.305 35 C222.305 -16 206.305 -68 175.305 -109 C159.305 -130 138.305 -150 114.305 -161 C103.305 -167 91.3052 -170 79.3052 -171 C68.3052 -172 49.3052 -171 44.3052 -161 L44.3052 -161 Z " />
<glyph glyph-name="&amp;#xfd;" unicode="&#xfd;" horiz-adv-x="655" d="M106.305 -227 C142.305 -219 175.305 -197 201.305 -170 C236.305 -134 261.305 -88 275.305 -40 C285.305 -5 292.305 31 296.305 67 C411.305 120 535.305 158 661.305 179 C669.305 180 677.305 182 683.305 187 C705.305 205 692.305 240 663.305 240 C660.305 240 641.305 237 638.305 236 C522.305 216 408.305 182 301.305 135 C303.305 203 301.305 271 306.305 339 C308.305 373 259.305 381 247.305 349 C235.305 315 217.305 284 197.305 255 C179.305 226 158.305 197 132.305 175 C122.305 167 109.305 158 97.3052 161 C79.3052 165 68.3052 199 65.3052 217 C56.3052 269 61.3052 323 66.3052 376 C66.3052 377 68.3052 379 68.3052 379 C78.3052 408 44.3052 432 20.3052 413 C13.3052 406 8.30521 396 7.30521 387 C2.30521 337 -2.69479 288 2.30521 238 C5.30521 202 13.3052 164 34.3052 135 C58.3052 104 95.3052 93 132.305 106 C152.305 113 170.305 128 186.305 143 C207.305 164 225.305 189 242.305 214 C242.305 178 241.305 142 239.305 106 C169.305 72 101.305 31 47.3052 -25 C-4.69479 -78 -45.6948 -158 7.30521 -209 C15.3052 -217 27.3052 -223 38.3052 -226 C60.3052 -233 84.3052 -232 106.305 -227 L106.305 -227 Z M44.3052 -161 C37.3052 -144 54.3052 -111 64.3052 -96 C106.305 -39 169.305 1 231.305 35 C222.305 -16 206.305 -68 175.305 -109 C159.305 -130 138.305 -150 114.305 -161 C103.305 -167 91.3052 -170 79.3052 -171 C68.3052 -172 49.3052 -171 44.3052 -161 L44.3052 -161 Z " />
<glyph glyph-name="&amp;#xff;" unicode="&#xff;" horiz-adv-x="655" d="M106.305 -227 C142.305 -219 175.305 -197 201.305 -170 C236.305 -134 261.305 -88 275.305 -40 C285.305 -5 292.305 31 296.305 67 C411.305 120 535.305 158 661.305 179 C669.305 180 677.305 182 683.305 187 C705.305 205 692.305 240 663.305 240 C660.305 240 641.305 237 638.305 236 C522.305 216 408.305 182 301.305 135 C303.305 203 301.305 271 306.305 339 C308.305 373 259.305 381 247.305 349 C235.305 315 217.305 284 197.305 255 C179.305 226 158.305 197 132.305 175 C122.305 167 109.305 158 97.3052 161 C79.3052 165 68.3052 199 65.3052 217 C56.3052 269 61.3052 323 66.3052 376 C66.3052 377 68.3052 379 68.3052 379 C78.3052 408 44.3052 432 20.3052 413 C13.3052 406 8.30521 396 7.30521 387 C2.30521 337 -2.69479 288 2.30521 238 C5.30521 202 13.3052 164 34.3052 135 C58.3052 104 95.3052 93 132.305 106 C152.305 113 170.305 128 186.305 143 C207.305 164 225.305 189 242.305 214 C242.305 178 241.305 142 239.305 106 C169.305 72 101.305 31 47.3052 -25 C-4.69479 -78 -45.6948 -158 7.30521 -209 C15.3052 -217 27.3052 -223 38.3052 -226 C60.3052 -233 84.3052 -232 106.305 -227 L106.305 -227 Z M44.3052 -161 C37.3052 -144 54.3052 -111 64.3052 -96 C106.305 -39 169.305 1 231.305 35 C222.305 -16 206.305 -68 175.305 -109 C159.305 -130 138.305 -150 114.305 -161 C103.305 -167 91.3052 -170 79.3052 -171 C68.3052 -172 49.3052 -171 44.3052 -161 L44.3052 -161 Z " />
<glyph glyph-name="z" unicode="z" horiz-adv-x="716" d="M138.38 -200 C187.38 -177 227.38 -138 259.38 -95 C284.38 -60 307.38 -21 320.38 21 C328.38 47 332.38 74 331.38 101 C456.38 145 591.38 165 723.38 165 C765.38 165 765.38 225 724.38 225 C587.38 225 448.38 204 319.38 160 C313.38 173 303.38 184 291.38 192 C277.38 201 260.38 204 243.38 205 C268.38 235 291.38 270 299.38 308 C303.38 327 303.38 347 298.38 365 C294.38 377 287.38 388 277.38 396 C263.38 408 243.38 414 225.38 415 C138.38 421 43.3795 314 12.3795 233 C10.3795 228 3.37952 207 3.37952 201 C3.37952 165 52.3795 160 62.3795 196 C70.3795 222 84.3795 247 100.38 269 C128.38 306 187.38 366 231.38 354 C234.38 353 237.38 352 239.38 349 C243.38 345 243.38 332 242.38 327 C238.38 305 227.38 285 215.38 267 C199.38 244 180.38 222 158.38 204 C153.38 199 121.38 176 116.38 170 C98.3795 148 117.38 116 144.38 121 C148.38 122 152.38 124 156.38 126 C183.38 138 239.38 157 263.38 138 C191.38 107 120.38 64 69.3795 5 C37.3795 -33 11.3795 -78 1.37952 -125 C-0.620483 -138 0.379517 -152 4.37952 -165 C9.37952 -181 23.3795 -195 39.3795 -202 C69.3795 -216 108.38 -213 138.38 -200 L138.38 -200 Z M75.3795 -151 C71.3795 -150 62.3795 -148 60.3795 -145 C60.3795 -144 60.3795 -141 60.3795 -140 C60.3795 -131 73.3795 -100 76.3795 -92 C90.3795 -64 109.38 -38 132.38 -15 C171.38 24 220.38 54 270.38 76 C264.38 22 235.38 -30 200.38 -72 C179.38 -98 155.38 -124 125.38 -139 C110.38 -147 92.3795 -153 75.3795 -151 L75.3795 -151 Z " />
<glyph glyph-name="braceleft" unicode="&#x7b;" horiz-adv-x="369" d="M232.641 -20 C237.641 -19 259.641 -16 264.641 -14 C300.641 -1 283.641 53 246.641 44 C223.641 38 181.641 38 168.641 58 C148.641 87 174.641 186 179.641 221 C183.641 252 187.641 285 180.641 317 C175.641 336 165.641 356 150.641 369 C172.641 385 180.641 418 183.641 445 C187.641 479 189.641 514 191.641 549 C192.641 575 193.641 602 204.641 626 C210.641 639 222.641 649 235.641 654 C244.641 656 271.641 659 279.641 656 C280.641 656 283.641 653 283.641 653 C308.641 639 336.641 664 326.641 691 C316.641 718 269.641 718 241.641 716 C214.641 713 188.641 700 169.641 681 C150.641 661 140.641 632 136.641 604 C131.641 570 130.641 535 128.641 501 C127.641 485 124.641 431 114.641 419 C107.641 409 76.6409 406 65.6409 405 C29.6409 401 22.6409 354 57.6409 344 C74.6409 340 92.6409 337 106.641 327 C116.641 321 121.641 308 123.641 297 C129.641 240 108.641 183 102.641 126 C100.641 100 98.6409 73 106.641 48 C113.641 27 129.641 8 148.641 -3 C173.641 -17 203.641 -22 232.641 -20 L232.641 -20 Z " />
<glyph glyph-name="verticalbar" unicode="&#x7c;" horiz-adv-x="219" d="M98.5549 -105 C101.555 -101 102.555 -95 102.555 -89 C122.555 200 142.555 490 163.555 779 C165.555 814 117.555 825 105.555 792 C103.555 788 103.555 783 103.555 779 C82.5549 490 62.5549 200 42.5549 -89 C40.5549 -120 82.5549 -133 98.5549 -105 L98.5549 -105 Z " />
<glyph glyph-name="braceright" unicode="&#x7d;" horiz-adv-x="370" d="M109.725 -19 C135.725 -17 162.725 -4 180.725 15 C199.725 36 209.725 65 213.725 93 C218.725 127 219.725 161 221.725 196 C222.725 212 225.725 265 235.725 278 C242.725 287 273.725 291 284.725 292 C321.725 296 327.725 343 292.725 352 C275.725 357 257.725 359 243.725 369 C234.725 376 228.725 388 227.725 399 C220.725 456 241.725 513 247.725 570 C250.725 596 251.725 623 243.725 648 C236.725 669 220.725 689 201.725 700 C176.725 714 146.725 719 118.725 716 C113.725 716 90.7252 712 85.7252 711 C49.7252 698 66.7252 644 103.725 653 C126.725 659 168.725 658 182.725 639 C202.725 609 175.725 511 170.725 476 C166.725 444 162.725 411 169.725 380 C174.725 360 185.725 341 200.725 327 C177.725 311 170.725 279 166.725 252 C162.725 217 160.725 182 158.725 148 C157.725 122 156.725 94 145.725 70 C140.725 58 127.725 47 114.725 43 C105.725 40 78.7252 37 70.7252 41 C69.7252 41 67.7252 43 66.7252 43 C41.7252 58 13.7252 33 23.7252 6 C33.7252 -21 80.7252 -22 109.725 -19 L109.725 -19 Z " />
<glyph glyph-name="asciitilde" unicode="&#x7e;" horiz-adv-x="418" d="M312.045 251 C322.045 258 358.045 286 364.045 297 C382.045 326 344.045 356 317.045 333 C302.045 321 272.045 288 253.045 293 C239.045 296 199.045 334 188.045 343 C177.045 351 165.045 358 153.045 363 C111.045 381 56.0449 369 35.0449 329 C29.0449 319 24.0449 308 20.0449 297 C6.04492 266 49.0449 240 70.0449 266 C74.0449 271 86.0449 299 90.0449 303 C97.0449 311 111.045 314 121.045 311 C152.045 302 173.045 274 198.045 255 C215.045 242 237.045 232 258.045 232 C277.045 232 297.045 240 312.045 251 L312.045 251 Z " />
<glyph glyph-name="nonbreakingspace" unicode="&#xa0;" horiz-adv-x="300" />
<glyph glyph-name="cent" unicode="&#xa2;" horiz-adv-x="345" d="M171.414 120 C171.414 126 171.414 154 173.414 160 C174.414 165 175.414 170 175.414 176 C201.414 184 226.414 198 249.414 213 C255.414 217 263.414 220 268.414 226 C287.414 249 263.414 283 234.414 273 C232.414 272 222.414 267 220.414 265 C197.414 251 173.414 236 147.414 230 C135.414 228 120.414 230 110.414 237 C102.414 242 97.4137 252 94.4137 261 C89.4137 280 90.4137 300 93.4137 319 C99.4137 362 119.414 407 151.414 436 C160.414 444 171.414 453 183.414 451 C196.414 450 219.414 434 225.414 422 C227.414 418 231.414 404 231.414 400 C231.414 397 230.414 394 231.414 391 C236.414 363 273.414 357 287.414 381 C293.414 393 291.414 408 288.414 422 C284.414 438 278.414 454 267.414 466 C247.414 488 221.414 507 192.414 511 C192.414 514 190.414 532 191.414 535 C191.414 540 193.414 544 193.414 549 C193.414 579 152.414 590 137.414 564 C129.414 551 129.414 512 133.414 497 C101.414 476 75.4137 445 59.4137 410 C44.4137 379 34.4137 344 32.4137 309 C30.4137 279 32.4137 247 46.4137 221 C59.4137 196 86.4137 178 113.414 172 C112.414 161 109.414 120 113.414 110 C125.414 78 171.414 87 171.414 120 L171.414 120 Z " />
<glyph glyph-name="sterling" unicode="&#xa3;" horiz-adv-x="501" d="M323.239 54 C346.239 56 370.239 59 391.239 69 C395.239 71 412.239 81 416.239 84 C441.239 105 418.239 146 386.239 135 C384.239 134 374.239 128 372.239 127 C354.239 115 330.239 114 308.239 114 C287.239 114 265.239 117 245.239 123 C215.239 132 188.239 146 158.239 153 C179.239 188 189.239 230 189.239 271 C189.239 281 188.239 290 187.239 300 C203.239 300 281.239 297 297.239 300 C321.239 305 330.239 334 313.239 351 C307.239 357 299.239 361 291.239 360 C276.239 359 191.239 360 176.239 360 C168.239 395 161.239 430 163.239 465 C164.239 494 171.239 525 187.239 549 C208.239 580 254.239 593 286.239 574 C292.239 571 298.239 565 300.239 559 C302.239 551 299.239 543 299.239 536 C299.239 505 339.239 494 355.239 521 C358.239 527 360.239 536 360.239 543 C363.239 573 352.239 598 331.239 617 C315.239 629 296.239 636 276.239 641 C222.239 652 161.239 624 132.239 575 C112.239 539 103.239 497 102.239 456 C102.239 424 108.239 392 114.239 361 C96.2387 361 78.2387 361 60.2387 360 C46.2387 358 34.2387 344 34.2387 330 C34.2387 312 50.2387 299 68.2387 300 C75.2387 301 118.239 301 126.239 301 C129.239 281 130.239 261 127.239 241 C122.239 210 108.239 178 85.2387 157 C80.2387 153 54.2387 132 50.2387 127 C31.2387 105 49.2387 72 77.2387 77 C85.2387 78 92.2387 82 99.2387 85 C111.239 91 125.239 96 138.239 95 C158.239 94 176.239 83 195.239 77 C236.239 62 280.239 51 323.239 54 L323.239 54 Z " />
<glyph glyph-name="currency" unicode="&#xa4;" horiz-adv-x="376" d="M79.0308 184 C83.0308 190 109.031 223 113.031 228 C114.031 230 121.031 232 122.031 232 C152.031 218 192.031 225 220.031 242 C232.031 223 251.031 205 273.031 201 C303.031 196 321.031 234 298.031 254 C294.031 257 289.031 259 284.031 261 C274.031 265 270.031 278 262.031 285 C274.031 311 279.031 343 268.031 369 C276.031 377 305.031 406 309.031 416 C319.031 442 290.031 466 266.031 452 C260.031 449 240.031 426 235.031 421 C216.031 435 192.031 440 169.031 436 C153.031 432 137.031 425 124.031 415 C112.031 428 100.031 443 84.0308 448 C53.0308 460 29.0308 419 55.0308 397 C62.0308 391 69.0308 386 76.0308 379 C78.0308 376 82.0308 373 81.0308 371 C71.0308 355 66.0308 336 66.0308 318 C67.0308 304 71.0308 290 77.0308 277 C69.0308 271 39.0308 231 33.0308 223 C30.0308 220 28.0308 217 27.0308 213 C15.0308 181 58.0308 157 79.0308 184 L79.0308 184 Z M147.031 286 C132.031 293 123.031 314 128.031 329 C132.031 346 147.031 360 162.031 369 C172.031 375 186.031 379 197.031 375 C199.031 370 202.031 365 206.031 362 C209.031 359 212.031 348 213.031 344 C217.031 330 210.031 313 200.031 302 C189.031 290 163.031 279 147.031 286 L147.031 286 Z " />
<glyph glyph-name="yen" unicode="&#xa5;" horiz-adv-x="439" d="M245.963 85 C240.963 112 242.963 140 243.963 168 C254.963 169 311.963 171 322.963 173 C344.963 177 354.963 204 339.963 222 C334.963 229 324.963 233 316.963 233 C292.963 231 269.963 230 246.963 228 C247.963 240 247.963 253 248.963 265 C281.963 269 315.963 272 348.963 275 C386.963 278 381.963 337 343.963 334 C317.963 332 292.963 330 266.963 327 C290.963 374 305.963 425 326.963 474 C340.963 508 359.963 542 386.963 567 C392.963 572 399.963 577 403.963 583 C417.963 608 393.963 636 366.963 627 C350.963 621 317.963 580 307.963 566 C267.963 505 248.963 433 219.963 366 C198.963 406 180.963 447 163.963 489 C148.963 525 134.963 562 124.963 600 C114.963 636 59.9626 622 66.9626 585 C70.9626 557 120.963 435 132.963 409 C146.963 378 160.963 348 177.963 318 C164.963 317 151.963 316 138.963 316 C119.963 315 99.9626 316 82.9626 307 C51.9626 288 73.9626 240 107.963 253 C110.963 253 113.963 255 115.963 255 C139.963 256 163.963 257 188.963 259 C187.963 248 186.963 236 186.963 225 C175.963 224 111.963 219 100.963 219 C58.9626 218 58.9626 158 100.963 159 C110.963 159 173.963 164 183.963 164 C183.963 151 182.963 85 184.963 71 C192.963 30 252.963 44 245.963 85 L245.963 85 Z " />
<glyph glyph-name="brokenbar" unicode="&#xa6;" horiz-adv-x="225" d="M137.641 417 C144.641 486 148.641 555 153.641 624 C154.641 640 158.641 732 159.641 748 C160.641 754 164.641 784 163.641 791 C157.641 829 102.641 820 102.641 780 C102.641 772 98.6407 723 97.6407 715 C94.6407 625 87.6407 535 80.6407 446 C78.6407 431 75.6407 413 84.6407 402 C101.641 382 134.641 391 137.641 417 L137.641 417 Z M94.6407 -161 C98.6407 -153 99.6407 -144 100.641 -135 C105.641 -100 110.641 -65 113.641 -30 C116.641 7 118.641 45 121.641 83 C122.641 103 134.641 230 136.641 250 C136.641 251 137.641 252 137.641 253 C152.641 292 93.6407 311 79.6407 272 C77.6407 265 77.6407 257 76.6407 250 C71.6407 187 63.6407 124 59.6407 61 C56.6407 19 54.6407 -24 49.6407 -66 C48.6407 -76 42.6407 -128 39.6407 -137 C30.6407 -172 76.6407 -192 94.6407 -161 L94.6407 -161 Z " />
<glyph glyph-name="section" unicode="&#xa7;" horiz-adv-x="451" d="M245.226 16 C275.226 24 305.226 37 328.226 58 C341.226 69 353.226 84 359.226 101 C364.226 117 364.226 135 358.226 151 C349.226 174 331.226 193 311.226 208 C355.226 231 404.226 272 377.226 314 C364.226 334 339.226 346 317.226 353 C273.226 369 227.226 380 183.226 394 C165.226 400 119.226 417 111.226 434 C105.226 448 121.226 472 131.226 483 C157.226 512 192.226 535 229.226 548 C245.226 553 262.226 558 279.226 557 C281.226 550 282.226 541 278.226 535 C274.226 527 269.226 519 269.226 511 C269.226 486 299.226 472 319.226 488 C327.226 495 339.226 522 340.226 533 C342.226 558 337.226 587 318.226 604 C304.226 617 280.226 618 261.226 616 C201.226 610 142.226 579 99.2256 536 C81.2256 518 64.2256 497 55.2256 472 C48.2256 451 48.2256 423 60.2256 403 C66.2256 393 74.2256 384 83.2256 376 C63.2256 353 59.2256 322 73.2256 293 C84.2256 272 104.226 257 124.226 244 C168.226 216 218.226 200 261.226 171 C273.226 163 284.226 153 294.226 142 C299.226 136 304.226 128 302.226 121 C300.226 113 294.226 107 288.226 102 C265.226 82 232.226 72 202.226 69 C175.226 67 147.226 68 120.226 72 C117.226 93 94.2256 104 76.2256 94 C54.2256 83 38.2256 59 52.2256 39 C56.2256 34 60.2256 29 66.2256 26 C100.226 5 206.226 6 245.226 16 L245.226 16 Z M146.226 301 C133.226 311 118.226 324 128.226 337 C139.226 332 150.226 333 159.226 339 C182.226 332 299.226 298 320.226 287 C306.226 273 288.226 263 270.226 255 C262.226 257 252.226 254 245.226 249 C212.226 266 177.226 280 146.226 301 L146.226 301 Z " />
<glyph glyph-name="copyright" unicode="&#xa9;" horiz-adv-x="638" d="M381.27 66 C432.27 81 480.27 113 515.27 154 C550.27 196 570.27 253 575.27 307 C581.27 382 548.27 464 495.27 517 C361.27 650 137.27 607 60.2703 436 C-34.7297 226 159.27 2 381.27 66 L381.27 66 Z M237.27 126 C210.27 135 186.27 151 165.27 169 C137.27 193 117.27 227 105.27 261 C93.2703 298 93.2703 341 103.27 379 C140.27 521 309.27 582 428.27 496 C457.27 474 482.27 445 497.27 411 C517.27 366 521.27 320 509.27 272 C499.27 232 474.27 195 444.27 167 C417.27 142 381.27 126 345.27 119 C310.27 111 271.27 115 237.27 126 L237.27 126 Z M355.27 207 C367.27 203 380.27 206 389.27 216 C406.27 237 391.27 268 364.27 269 C332.27 270 300.27 248 269.27 256 C244.27 263 237.27 296 243.27 321 C249.27 346 260.27 371 276.27 391 C281.27 397 292.27 408 299.27 405 C309.27 403 326.27 387 330.27 379 C332.27 374 332.27 368 332.27 363 C332.27 353 337.27 343 344.27 337 C365.27 319 397.27 338 393.27 365 C392.27 371 392.27 378 391.27 384 C384.27 421 348.27 456 311.27 464 C299.27 467 285.27 466 272.27 461 C224.27 443 184.27 359 181.27 307 C179.27 255 215.27 201 267.27 196 C296.27 192 326.27 200 355.27 207 L355.27 207 Z " />
<glyph glyph-name="guillemotleft" unicode="&#xab;" horiz-adv-x="558" d="M251.572 154 C249.572 155 238.572 164 236.572 165 C191.572 197 144.572 228 93.5717 249 C114.572 265 243.572 362 264.572 378 C267.572 381 283.572 394 286.572 397 C306.572 420 282.572 455 253.572 444 C242.572 440 234.572 431 225.572 424 C199.572 403 55.5717 298 31.5717 274 C25.5717 268 19.5717 261 16.5717 253 C10.5717 238 14.5717 222 26.5717 212 C34.5717 205 45.5717 202 55.5717 199 C83.5717 189 110.572 175 136.572 159 C162.572 144 188.572 127 212.572 108 C244.572 83 281.572 127 251.572 154 L251.572 154 Z M463.572 154 C408.572 192 348.572 222 290.572 255 C309.572 269 427.572 347 447.572 361 C450.572 363 468.572 374 470.572 377 C494.572 396 476.572 434 446.572 429 C433.572 427 393.572 396 382.572 389 C365.572 378 266.572 313 250.572 300 C240.572 293 229.572 285 223.572 274 C214.572 259 216.572 240 228.572 227 C243.572 210 325.572 168 344.572 158 C373.572 141 401.572 124 429.572 105 C460.572 84 494.572 132 463.572 154 L463.572 154 Z " />
<glyph glyph-name="logicalnot" unicode="&#xac;" horiz-adv-x="371" d="M306.735 242 C307.735 248 306.735 254 305.735 260 C302.735 290 302.735 320 302.735 349 C319.735 370 305.735 401 278.735 401 C250.735 402 80.7354 401 52.7354 401 C24.7354 400 11.7354 366 33.7354 348 C44.7354 339 60.7354 340 74.7354 340 C130.735 341 186.735 341 242.735 341 C242.735 324 243.735 253 248.735 237 C259.735 208 301.735 212 306.735 242 L306.735 242 Z " />
<glyph glyph-name="softhyphen" unicode="&#xad;" horiz-adv-x="0" />
<glyph glyph-name="registered" unicode="&#xae;" horiz-adv-x="626" d="M466.92 114 C596.92 221 594.92 421 462.92 525 C321.92 636 114.92 579 51.9196 411 C32.9196 361 29.9196 307 42.9196 255 C89.9196 66 316.92 -9 466.92 114 L466.92 114 Z M279.92 115 C248.92 118 217.92 129 190.92 145 C168.92 158 149.92 177 133.92 197 C113.92 224 101.92 257 96.9196 290 C88.9196 337 101.92 389 126.92 429 C161.92 483 223.92 519 287.92 522 C437.92 529 543.92 380 487.92 241 C454.92 158 367.92 106 279.92 115 L279.92 115 Z M402.92 175 C402.92 210 344.92 267 314.92 288 C327.92 296 340.92 305 350.92 316 C366.92 336 376.92 360 379.92 385 C382.92 409 380.92 434 369.92 455 C357.92 478 333.92 492 308.92 490 C291.92 489 274.92 481 260.92 470 C247.92 498 208.92 494 202.92 465 C199.92 447 189.92 340 186.92 323 C179.92 276 177.92 228 175.92 181 C175.92 174 176.92 166 180.92 160 C194.92 136 230.92 143 235.92 170 C236.92 175 236.92 200 237.92 205 C237.92 212 240.92 254 241.92 261 C283.92 241 328.92 208 344.92 164 C355.92 132 402.92 141 402.92 175 L402.92 175 Z M287.92 413 C292.92 419 305.92 432 313.92 430 C316.92 429 318.92 423 319.92 420 C323.92 397 317.92 368 300.92 351 C286.92 338 266.92 330 247.92 325 C254.92 356 265.92 389 287.92 413 L287.92 413 Z " />
<glyph glyph-name="degree" unicode="&#xb0;" horiz-adv-x="307" d="M193.935 364 C232.935 379 263.935 423 269.935 465 C274.935 499 265.935 537 248.935 567 C238.935 587 213.935 617 192.935 615 C182.935 629 155.935 637 138.935 633 C113.935 626 89.9346 607 76.9346 584 C54.9346 544 49.9346 492 62.9346 448 C78.9346 389 135.935 343 193.935 364 L193.935 364 Z M128.935 445 C114.935 467 112.935 498 117.935 524 C121.935 540 127.935 558 140.935 569 C142.935 571 147.935 574 149.935 573 C155.935 570 163.935 568 169.935 569 C175.935 561 185.935 555 191.935 547 C218.935 508 219.935 452 179.935 424 C161.935 412 140.935 427 128.935 445 L128.935 445 Z " />
<glyph glyph-name="plusminus" unicode="&#xb1;" horiz-adv-x="399" d="M187.097 182 C187.097 207 186.097 231 188.097 255 C208.097 255 265.097 251 280.097 264 C302.097 282 288.097 319 260.097 316 C237.097 315 215.097 315 192.097 315 C192.097 325 189.097 367 192.097 377 C206.097 415 148.097 436 134.097 398 C129.097 385 132.097 328 132.097 315 C108.097 315 84.0973 313 61.0973 317 C28.0973 323 11.0973 278 40.0973 262 C55.0973 253 112.097 255 128.097 255 C127.097 246 126.097 195 126.097 186 C126.097 177 128.097 168 134.097 162 C152.097 140 186.097 154 187.097 182 L187.097 182 Z M138.097 12 C171.097 14 203.097 17 236.097 19 C244.097 20 281.097 22 289.097 25 C323.097 37 309.097 90 273.097 83 C254.097 80 153.097 73 134.097 72 C120.097 72 49.0973 75 36.0973 72 C3.09726 67 3.09726 19 36.0973 13 C40.0973 13 60.0973 14 63.0973 14 C88.0973 13 113.097 11 138.097 12 L138.097 12 Z " />
<glyph glyph-name="twosuperior" unicode="&#xb2;" horiz-adv-x="302" d="M268.867 543 C260.867 557 241.867 561 225.867 563 C202.867 565 179.867 567 155.867 566 C187.867 597 218.867 629 246.867 664 C264.867 686 282.867 708 294.867 734 C301.867 748 302.867 767 294.867 780 C284.867 798 261.867 807 241.867 810 C203.867 815 163.867 804 130.867 785 C122.867 781 113.867 776 107.867 769 C85.8672 743 116.867 707 145.867 724 C148.867 725 163.867 735 166.867 737 C188.867 747 212.867 754 236.867 750 C231.867 741 225.867 733 219.867 725 C191.867 690 162.867 656 130.867 624 C111.867 606 93.8672 589 75.8672 571 C66.8672 562 58.8672 549 58.8672 537 C58.8672 514 80.8672 502 102.867 503 C144.867 505 185.867 508 226.867 502 C228.867 502 229.867 501 231.867 500 C258.867 490 282.867 519 268.867 543 L268.867 543 Z " />
<glyph glyph-name="threesuperior" unicode="&#xb3;" horiz-adv-x="322" d="M93.5116 490 C123.512 488 154.512 492 184.512 498 C215.512 505 247.512 516 271.512 537 C286.512 550 298.512 568 302.512 587 C305.512 606 301.512 626 291.512 642 C282.512 657 268.512 668 252.512 674 C279.512 696 306.512 727 308.512 761 C312.512 826 221.512 821 157.512 813 C143.512 811 129.512 809 116.512 802 C83.5116 786 106.512 735 141.512 748 C159.512 754 226.512 760 245.512 756 C228.512 725 194.512 706 165.512 684 C145.512 668 142.512 638 164.512 626 C184.512 614 212.512 627 233.512 618 C243.512 613 245.512 599 239.512 590 C232.512 580 222.512 574 212.512 569 C179.512 555 141.512 550 105.512 549 C98.5116 549 92.5116 552 85.5116 552 C45.5116 552 43.5116 489 84.5116 489 C85.5116 489 92.5116 490 93.5116 490 L93.5116 490 Z " />
<glyph glyph-name="paragraph" unicode="&#xb6;" horiz-adv-x="434" d="M327.1 -172 C327.1 -63 324.1 47 319.1 156 C312.1 304 310.1 454 329.1 602 C330.1 609 331.1 615 331.1 622 C336.1 622 357.1 621 362.1 619 C366.1 618 370.1 614 374.1 612 C403.1 601 427.1 636 407.1 659 C395.1 674 373.1 679 354.1 681 C295.1 686 231.1 678 178.1 650 C150.1 635 125.1 614 107.1 589 C74.1002 545 57.1002 490 49.1002 436 C43.1002 397 41.1002 356 51.1002 319 C58.1002 292 68.1002 265 83.1002 241 C105.1 206 135.1 173 172.1 154 C172.1 116 177.1 -109 179.1 -147 C181.1 -173 211.1 -187 230.1 -168 C236.1 -163 240.1 -154 239.1 -146 C237.1 -107 232.1 122 231.1 161 C234.1 169 235.1 178 231.1 185 C231.1 291 230.1 396 233.1 502 C233.1 516 237.1 597 238.1 610 C249.1 614 260.1 617 271.1 619 C268.1 601 266.1 582 265.1 564 C255.1 452 251.1 339 256.1 226 C261.1 93 267.1 -40 267.1 -173 C267.1 -214 327.1 -213 327.1 -172 L327.1 -172 Z M104.1 378 C105.1 420 112.1 463 128.1 503 C138.1 530 154.1 557 176.1 576 C171.1 460 171.1 344 171.1 227 C131.1 265 104.1 323 104.1 378 L104.1 378 Z " />
<glyph glyph-name="periodcentered" unicode="&#xb7;" horiz-adv-x="152" d="M73.7878 357 C40.7878 368 16.7878 327 42.7878 305 C47.7878 300 55.7878 298 62.7878 298 C99.7878 298 108.788 345 73.7878 357 L73.7878 357 Z " />
<glyph glyph-name="onesuperior" unicode="&#xb9;" horiz-adv-x="249" d="M191.305 512 C196.305 520 195.305 529 195.305 538 C196.305 574 201.305 610 207.305 646 C216.305 689 227.305 731 243.305 772 C247.305 784 253.305 796 251.305 809 C247.305 831 221.305 841 203.305 828 C169.305 806 138.305 777 102.305 757 C67.3049 737 95.3049 686 131.305 705 C136.305 707 160.305 723 164.305 726 C150.305 674 140.305 620 137.305 567 C136.305 558 134.305 525 137.305 517 C146.305 493 179.305 490 191.305 512 L191.305 512 Z " />
<glyph glyph-name="guillemotright" unicode="&#xbb;" horiz-adv-x="531" d="M261.945 114 C261.945 115 262.945 116 262.945 117 C294.945 158 333.945 193 373.945 226 C391.945 241 409.945 256 428.945 270 C443.945 280 461.945 288 473.945 302 C487.945 317 484.945 341 468.945 354 C436.945 378 259.945 485 224.945 504 C221.945 505 207.945 513 204.945 514 C175.945 524 151.945 490 171.945 466 C177.945 459 186.945 456 195.945 451 C222.945 436 377.945 343 404.945 325 C353.945 292 308.945 252 266.945 210 C252.945 196 208.945 153 205.945 134 C199.945 101 244.945 85 261.945 114 L261.945 114 Z M88.945 122 C89.945 124 90.945 127 91.945 129 C140.945 181 195.945 230 259.945 262 C269.945 266 279.945 270 286.945 278 C292.945 286 294.945 297 291.945 307 C283.945 337 202.945 379 176.945 396 C155.945 410 134.945 423 114.945 438 C105.945 446 97.945 457 86.945 461 C57.945 472 33.945 437 52.945 414 C72.945 391 185.945 320 210.945 304 C151.945 271 101.945 224 54.945 176 C43.945 165 31.945 153 29.945 139 C22.945 102 75.945 87 88.945 122 L88.945 122 Z " />
<glyph glyph-name="onequarter" unicode="&#xbc;" horiz-adv-x="567" d="M165.667 411 C168.667 417 167.667 424 168.667 431 C170.667 455 176.667 478 182.667 501 C191.667 537 201.667 572 214.667 606 C223.667 631 240.667 653 245.667 679 C247.667 689 246.667 700 241.667 709 C232.667 725 210.667 729 194.667 720 C185.667 715 138.667 682 129.667 675 C116.667 666 74.6672 635 68.6672 619 C56.6672 587 99.6672 563 120.667 591 C124.667 596 150.667 616 156.667 621 C141.667 579 129.667 536 118.667 492 C115.667 477 104.667 426 109.667 411 C119.667 384 156.667 384 165.667 411 L165.667 411 Z M139.667 93 C146.667 113 158.667 130 169.667 148 C184.667 171 272.667 320 286.667 343 C308.667 379 442.667 598 463.667 633 C469.667 642 494.667 679 496.667 690 C502.667 724 456.667 739 439.667 708 C436.667 701 410.667 661 406.667 654 C317.667 507 226.667 360 138.667 212 C126.667 192 81.6672 127 81.6672 103 C81.6672 70 127.667 62 139.667 93 L139.667 93 Z M480.667 130 C479.667 162 479.667 194 482.667 225 C483.667 237 493.667 290 491.667 302 C486.667 332 444.667 335 433.667 307 C432.667 302 432.667 297 431.667 292 C429.667 275 425.667 257 423.667 239 C402.667 238 381.667 239 359.667 238 C390.667 281 418.667 327 437.667 376 C440.667 382 451.667 410 452.667 416 C458.667 446 420.667 464 400.667 441 C394.667 434 380.667 395 377.667 386 C352.667 329 314.667 277 277.667 226 C270.667 217 262.667 208 260.667 196 C256.667 172 280.667 155 303.667 163 C316.667 167 329.667 173 342.667 176 C368.667 180 394.667 177 420.667 179 C420.667 169 419.667 128 422.667 119 C434.667 87 481.667 96 480.667 130 L480.667 130 Z " />
</font>
</svg>
